<svg width="462" height="301" viewBox="0 0 462 301" fill="none" xmlns="http://www.w3.org/2000/svg">
<path fill-rule="evenodd" clip-rule="evenodd" d="M429.953 194.976C423.398 189.253 402.335 169.679 402.335 154.404C402.335 136.314 414.152 124.254 431.877 124.254C449.602 124.254 461.419 139.329 461.419 154.404C461.419 167.194 440.152 188.667 433.707 194.881C432.655 195.895 431.052 195.935 429.953 194.976ZM441.724 150.384C441.724 155.934 437.315 160.434 431.877 160.434C426.439 160.434 422.03 155.934 422.03 150.384C422.03 144.833 426.439 140.334 431.877 140.334C437.315 140.334 441.724 144.833 441.724 150.384Z" fill="black"/>
<path d="M271.466 227.249C283.627 237.35 349.324 228.637 342.422 225.052C316.999 211.849 368.099 204.372 385.96 218.302C397.089 226.98 425.664 220.916 431.876 213.747" stroke="#A0A0A0" stroke-width="2" stroke-miterlimit="3.99933" stroke-linecap="round" stroke-dasharray="0 4"/>
<path d="M41.3916 262.397C37.5826 267.643 31.9413 272.762 29.9213 273.608L29.0557 277.838C39.2274 274.665 42.0408 268.108 41.3916 262.397Z" fill="#A0A0A0"/>
<path d="M25.6934 256.934C25.5683 264.266 24.6462 271.125 23.7754 275.656C23.5324 276.92 24.4885 278.114 25.7759 278.114H27.8356C28.7227 278.114 29.51 277.531 29.7184 276.669C31.3289 270.005 30.7938 262.663 29.4521 256.159C28.975 253.846 25.7337 254.573 25.6934 256.934Z" fill="#A0A0A0"/>
<path d="M30.6748 263.689C36.4351 264.739 44.1156 261.763 48.3825 255.556" stroke="#A0A0A0" stroke-width="2" stroke-linecap="round"/>
<path d="M4.11167 250.425C0.420718 256.786 12.8367 270.889 25.491 264.739" stroke="#A0A0A0" stroke-width="2" stroke-linecap="round"/>
<path d="M10.0328 230.013C2.52992 231.073 -1.58433 241.347 4.1118 250.424C5.14855 252.077 9.64796 253.87 11.757 253.87" stroke="#A0A0A0" stroke-width="2" stroke-linecap="round"/>
<path d="M48.3822 242.608C48.3822 234.725 46.2753 226.338 33.6636 222.591C20.3811 218.644 13.1633 224.607 10.0327 230.013C8.54484 232.582 9.12062 235.049 10.0327 237.17" stroke="#A0A0A0" stroke-width="2" stroke-linecap="round"/>
<path d="M29.6074 252.471C31.8234 250.203 36.478 246.189 34.7545 237.03" stroke="#A0A0A0" stroke-width="2" stroke-linecap="round"/>
<path d="M25.1899 256.882C23.4516 256.346 19.1404 253.666 15.8027 247.232" stroke="#A0A0A0" stroke-width="2" stroke-linecap="round"/>
<path d="M59.5977 229.282C59.5977 228.568 60.3251 228.084 60.984 228.36L67.1995 230.963C67.5712 231.119 67.8131 231.482 67.8131 231.885V247.969C67.8131 248.698 67.0572 249.182 66.3947 248.877L60.1792 246.013C59.8247 245.85 59.5977 245.495 59.5977 245.105V229.282Z" stroke="black" stroke-width="2"/>
<path d="M78.9238 239.76C78.9238 239.045 79.6512 238.561 80.3102 238.837L86.5256 241.441C86.8974 241.596 87.1393 241.96 87.1393 242.363V258.446C87.1393 259.176 86.3834 259.66 85.7209 259.355L79.5054 256.491C79.1509 256.328 78.9238 255.973 78.9238 255.583V239.76Z" stroke="black" stroke-width="2"/>
<path d="M59.5977 197.848C59.5977 197.134 60.3251 196.65 60.984 196.926L67.1995 199.529C67.5712 199.685 67.8131 200.048 67.8131 200.451V216.535C67.8131 217.264 67.0572 217.748 66.3947 217.443L60.1792 214.579C59.8247 214.416 59.5977 214.061 59.5977 213.671V197.848Z" stroke="black" stroke-width="2"/>
<path d="M78.9238 208.05C78.9238 207.336 79.6512 206.852 80.3102 207.128L86.5256 209.731C86.8974 209.887 87.1393 210.25 87.1393 210.653V226.737C87.1393 227.466 86.3834 227.95 85.7209 227.645L79.5054 224.781C79.1509 224.618 78.9238 224.264 78.9238 223.873V208.05Z" stroke="black" stroke-width="2"/>
<path d="M67.9854 269.583V283.808C67.9854 284.59 68.4409 285.3 69.1515 285.626L73.9865 287.843C75.3113 288.451 76.8204 287.483 76.8204 286.026V271.684C76.8204 270.888 76.3479 270.167 75.6175 269.85L70.7825 267.749C69.4616 267.175 67.9854 268.143 67.9854 269.583Z" fill="black"/>
<path d="M97.5265 299.07L50.0587 275.744C49.0322 275.239 48.3818 274.195 48.3818 273.051V175.541" stroke="black" stroke-width="2" stroke-linecap="round"/>
<path d="M96.3258 296.12V199.256L51.9034 178.838C49.3388 177.659 49.6733 173.913 52.4062 173.207L90.553 163.355C91.1163 163.21 91.7097 163.231 92.2611 163.417L136.457 178.308V278.85C136.457 279.981 135.82 281.016 134.811 281.527L100.68 298.797C98.6848 299.806 96.3258 298.356 96.3258 296.12Z" fill="black"/>
<path d="M165.722 274.235L136.12 266.257V280.272L108.019 294.934L165.722 274.235Z" fill="black"/>
<path d="M239.59 165.062L211.521 172.4C209.988 172.801 209.508 174.741 210.677 175.811L231.611 194.96C232.097 195.404 232.769 195.581 233.411 195.433L262.532 188.717C264.04 188.369 264.598 186.513 263.532 185.39L245.388 166.294" stroke="black" stroke-width="2" stroke-linecap="round"/>
<path d="M265.663 187.673L271.288 157.354C271.4 156.747 271.227 156.123 270.817 155.662L253.13 135.722C252.048 134.503 250.04 135.02 249.682 136.61L243.856 162.509" stroke="black" stroke-width="2" stroke-linecap="round"/>
<path d="M208.24 173.886L217.435 144.579C217.632 143.95 218.126 143.459 218.756 143.265L251.035 133.353" stroke="black" stroke-width="2" stroke-linecap="round"/>
<path d="M237.995 140.587L231.731 166.053C231.576 166.685 231.737 167.352 232.164 167.843L238.886 175.577C239.882 176.723 239.287 178.518 237.804 178.843L232.612 179.981C231.914 180.134 231.187 179.903 230.706 179.374L222.79 170.687C222.327 170.178 222.158 169.467 222.342 168.804L230.137 140.743C230.323 140.076 230.839 139.553 231.502 139.359L235.49 138.19C236.97 137.757 238.363 139.09 237.995 140.587Z" fill="#A0A0A0"/>
<path d="M229.776 152.93L233.089 98.0588" stroke="#A0A0A0" stroke-width="2" stroke-linecap="round"/>
<path d="M229.776 152.93L217.628 103.298" stroke="#A0A0A0" stroke-width="2" stroke-linecap="round"/>
<path d="M228.948 152.93L202.167 118.739" stroke="#A0A0A0" stroke-width="2" stroke-linecap="round"/>
<path d="M229.224 152.93L182.288 123.151" stroke="#A0A0A0" stroke-width="2" stroke-linecap="round"/>
<path d="M185.877 113.776L213.21 139.144" stroke="#A0A0A0" stroke-width="2" stroke-linecap="round"/>
<path d="M222.874 100.541L226.739 132.25" stroke="#A0A0A0" stroke-width="2" stroke-linecap="round"/>
<path d="M220.665 136.11L208.793 106.331" stroke="#A0A0A0" stroke-width="2" stroke-linecap="round"/>
<path d="M162.203 68.4389C133.137 59.7678 122.887 77.0052 121.833 86.7951C121.148 118.222 155.085 122.171 171.925 119.348C172.648 119.226 173.377 119.489 173.844 120.054L175.456 122.003C176.505 123.273 178.553 122.8 178.941 121.2L179.096 120.559C179.182 120.205 179.39 119.893 179.684 119.677V119.677C180.775 118.877 180.382 117.159 179.051 116.913L178.837 116.873C177.411 116.609 176.828 114.52 177.588 113.285C178.849 111.238 179.815 108.297 179.229 104.627" stroke="#A0A0A0" stroke-width="2" stroke-linecap="round"/>
<path d="M199.371 116.48C199.039 116.55 198.715 116.625 198.405 116.703C197.32 116.975 196.205 116.181 196.205 115.063C196.205 114.007 195.189 113.074 194.162 112.83C184.313 110.485 150.878 88.6433 165.503 59.1639C175.503 39.0055 199.714 48.1206 205.679 57.0606C215.479 70.0044 208.296 101.906 200.953 110.376C200.331 111.092 200.225 112.179 200.837 112.902C201.817 114.058 200.853 116.168 199.371 116.48Z" stroke="#A0A0A0" stroke-width="2" stroke-linecap="round"/>
<path d="M210.905 95.0089C211.455 95.3265 212.303 95.7069 213.155 95.9935C214.213 96.3489 215.109 97.6139 214.785 98.6811L214.684 99.0129C214.324 100.196 215.568 101.228 216.665 100.655L216.783 100.593C217.167 100.392 217.632 100.42 217.99 100.666V100.666C218.836 101.246 219.968 100.536 219.814 99.5214L219.6 98.115C219.455 97.1635 220.087 96.2728 221.016 96.0183C230.45 93.4305 247.885 82.7139 246.231 57.1513C245.698 48.9139 235.51 34.1213 213.717 38.0473C209.675 38.7755 200.711 42.8847 197.196 49.6149" stroke="#A0A0A0" stroke-width="2" stroke-linecap="round"/>
<path d="M231.156 91.3586V93.8278C231.156 94.727 231.985 95.3972 232.864 95.2088L232.99 95.1818C233.38 95.0982 233.786 95.2181 234.068 95.5001V95.5001C234.809 96.2408 236.075 95.7162 236.075 94.6687V93.0568C236.075 92.0972 236.812 91.3029 237.761 91.1604C246.878 89.7908 263.737 82.7728 269.805 63.2504C276.27 42.4503 262.31 35.1422 254.521 34.0881" stroke="#A0A0A0" stroke-width="2" stroke-linecap="round"/>
<path d="M243.4 49.2536C250.249 43.9999 264.462 26.4271 250.073 10.0262C235.324 -6.78557 201.259 6.17328 209.511 38.5711" stroke="#A0A0A0" stroke-width="2" stroke-linecap="round"/>
<path d="M211.83 14.9311C199.991 12.4001 176.877 15.3903 179.128 47.5993" stroke="#A0A0A0" stroke-width="2" stroke-linecap="round"/>
<path d="M201.891 14.1684C195.572 5.27428 175.214 -7.24745 158.888 8.55106C143.382 23.5564 156.959 45.5905 168.543 53.6654" stroke="#A0A0A0" stroke-width="2" stroke-linecap="round"/>
<path d="M151.917 28.6635C137.914 27.261 113.863 42.3019 132.488 70.2095" stroke="#A0A0A0" stroke-width="2" stroke-linecap="round"/>
</svg>
