<svg width="647" height="302" viewBox="0 0 647 302" fill="none" xmlns="http://www.w3.org/2000/svg">
<path d="M104.626 287.357C124.731 280.409 112.752 223.433 103.436 202.807C89.3971 215.933 64.2822 210.27 62.3503 204.994C61.7697 208.107 59.9101 222.046 51.7642 234.379C43.6183 246.711 33.0503 253.125 31.1828 258.479C26.6332 271.507 36.599 278.238 41.5818 279.757C59.0868 283.753 73.8621 264.053 79.0617 253.703C86.5143 284.274 99.2098 288.877 104.626 287.357Z" fill="black"/>
<path d="M108.517 284.103C108.368 286.376 109.395 294 115.319 289.821C116.78 288.355 120.233 285.951 122.34 288.062C124.446 290.173 120.29 294.074 117.951 295.76C115.538 297.666 109.614 300.907 105.226 298.619C100.838 296.332 100.908 290.335 101.496 287.622" stroke="black" stroke-width="2" stroke-linecap="round"/>
<path d="M36.7271 276.476C35.1991 277.199 32.1432 279.208 32.1432 281.462C33.8894 283.919 36.6834 289.96 33.8894 294.468C31.0955 298.977 26.0315 288.688 23.8487 282.98C22.7573 279.728 22.6263 272.531 30.8336 269.757" stroke="black" stroke-width="2" stroke-linecap="round"/>
<path d="M101.849 297.174C100.917 298.948 97.253 301.559 90.0373 297.813" stroke="#A0A0A0" stroke-width="2" stroke-linecap="round"/>
<path d="M97.0605 293.986C94.9818 295.952 89.4199 299.187 82.3762 296.421" stroke="#A0A0A0" stroke-width="2" stroke-linecap="round"/>
<path d="M87.1646 292.711C84.5338 295.695 77.2117 300.512 68.9688 295.908" stroke="#A0A0A0" stroke-width="2" stroke-linecap="round"/>
<path d="M75.6724 291.117C75.0199 293.812 66.1896 299.563 36.0885 301" stroke="#A0A0A0" stroke-width="2" stroke-linecap="round"/>
<path d="M77.7139 182.084C65.7764 178.644 56.3839 167.783 53.1799 162.783C49.6011 157.407 52.473 145.388 92.5913 140.32" stroke="black" stroke-width="2" stroke-linecap="round"/>
<path d="M77.9067 182.084C78.62 181.092 80.4945 179.3 82.6951 179.215" stroke="black" stroke-width="2" stroke-linecap="round"/>
<path d="M82.6952 179.215C82.6278 176.402 80.2354 169.149 71.2031 162.636" stroke="black" stroke-width="2" stroke-linecap="round"/>
<path d="M82.0566 161.043C82.9936 159.591 86.0209 154.423 90.0372 153.71" stroke="black" stroke-width="2" stroke-linecap="round"/>
<path d="M90.7267 183.359C92.7975 183.264 97.1221 182.979 97.8555 182.599C98.772 182.123 98.9756 182.123 98.9756 181.172C98.9756 180.222 90.7267 181.838 90.7267 178.796C91.4737 178.098 92.6822 176.533 91.5415 175.848C90.4008 175.164 88.011 177.148 86.9589 178.225C85.8726 179.303 83.4352 181.001 82.376 179.176" stroke="black" stroke-width="2" stroke-linecap="round"/>
<path d="M77.9067 182.084C78.8136 184.712 82.0782 189.43 87.8818 187.274C93.6857 185.118 93.9275 183.98 93.3227 183.681" stroke="black" stroke-width="2" stroke-linecap="round"/>
<path d="M118.129 179.215C119.5 178.85 122.496 177.151 123.515 173.279C124.533 169.406 123.156 169.387 122.34 169.861" stroke="black" stroke-width="2" stroke-linecap="round"/>
<path d="M112.703 176.664C113.154 174.4 114.743 170.031 117.491 170.67" stroke="black" stroke-width="2" stroke-linecap="round"/>
<path d="M113.852 172.954C112.025 171.43 110.906 174.925 110.574 176.863C108.509 177.505 107.727 180.539 107.595 181.976C112.376 182.474 115.773 181.171 117.925 179.624C119.242 178.677 120.093 177.638 120.508 176.863C121.534 174.09 123.03 168.302 120.805 167.34C118.58 166.377 117.958 168.543 117.925 169.746C118.163 172.473 116.766 175.493 116.038 176.663" stroke="black" stroke-width="2" stroke-linecap="round"/>
<path d="M66.5468 184.635C62.4652 190.173 57.1457 205.256 66.5468 208.455C79.8975 212.412 107.5 213.189 111.106 184.635" stroke="black" stroke-width="2" stroke-linecap="round"/>
<path d="M109.51 142.87C111.226 141.824 124.131 142.832 126.641 126.747C130.936 126.797 133.272 123.311 129.994 121.819C126.5 120.033 126.762 116.756 127.396 114.824C128.402 112.292 128.463 109.633 128.246 109.076" stroke="black" stroke-width="2" stroke-linecap="round"/>
<path d="M122.926 120.981C123.411 120.986 123.811 120.402 123.82 119.676C123.828 118.949 123.442 118.356 122.957 118.35C122.472 118.344 122.072 118.929 122.064 119.655C122.055 120.382 122.441 120.975 122.926 120.981Z" fill="black"/>
<path d="M120.364 115.453C121.117 114.78 123.067 113.797 124.833 115.242" stroke="black" stroke-width="2" stroke-linecap="round"/>
<path d="M115.575 130.437C116.934 132.38 118.425 132.932 121.321 131.678" stroke="black" stroke-width="2" stroke-linecap="round"/>
<path d="M104.93 116.409C104.663 117.069 104.44 118.566 105.679 119.278" stroke="black" stroke-width="2" stroke-linecap="round"/>
<path d="M90.0354 109.491C88.3808 118.612 93.5578 125.478 97.311 130.756C101.319 128.574 107.889 123.385 105.369 122.825C102.721 122.237 99.928 114.958 102.5 112.732C105.517 110.12 108.237 114.072 108.756 117.069L111.186 112.834C110.498 109.873 110.229 104.677 114.649 107.59C119.069 110.502 125.552 109.739 128.241 108.994C133.543 105.17 141.781 96.251 132.314 91.1647C124.441 86.9342 114.195 92.2826 107.94 97.0885C103.706 95.9621 92.2914 97.0555 90.0354 109.491Z" fill="black"/>
<path d="M97.3799 130.118C99.3749 132.452 100.366 134.391 100.243 138.407" stroke="black" stroke-width="2" stroke-linecap="round"/>
<path d="M95.269 143.585C94.5848 141.211 94.184 136.682 98.0534 137.563C102.89 138.663 112.748 143.421 112.026 146.059" stroke="black" stroke-width="2" stroke-linecap="round"/>
<path d="M105.999 178.258L94.5065 178.896" stroke="black" stroke-width="2" stroke-linecap="round"/>
<path d="M67.0532 180.153L7.63412 182.523C4.87752 182.633 2.55277 180.489 2.43912 177.733L1.81836 162.677C1.70454 159.917 3.85116 157.587 6.61173 157.475L52.3387 155.623" stroke="black" stroke-width="2" stroke-linecap="round"/>
<path d="M124.937 176.983L164.364 175.729C167.062 175.643 169.205 173.431 169.205 170.731V157.346C169.205 154.497 166.827 152.223 163.98 152.352L86.8452 155.833" stroke="black" stroke-width="2" stroke-linecap="round"/>
<path d="M8.63525 164.868L10.3709 172.085C10.6862 173.397 12.3131 173.861 13.2727 172.913V172.913C13.9298 172.264 14.9804 172.245 15.661 172.869L15.7834 172.981C16.8291 173.94 18.5185 173.462 18.9064 172.097L20.1273 167.801" stroke="black" stroke-width="2" stroke-linecap="round"/>
<path d="M24.2773 164.549L26.013 171.767C26.3283 173.078 27.9552 173.542 28.9148 172.594V172.594C29.5719 171.945 30.6225 171.926 31.3031 172.55L31.4254 172.662C32.4711 173.621 34.1605 173.143 34.5485 171.778L35.7694 167.482" stroke="black" stroke-width="2" stroke-linecap="round"/>
<path d="M40.2383 164.23L41.9739 171.448C42.2893 172.759 43.9161 173.223 44.8757 172.275V172.275C45.5328 171.626 46.5834 171.607 47.2641 172.231L47.3864 172.343C48.4321 173.302 50.1215 172.824 50.5094 171.459L51.7304 167.164" stroke="black" stroke-width="2" stroke-linecap="round"/>
<ellipse cx="55.8805" cy="173.476" rx="0.957673" ry="0.956429" fill="black"/>
<path d="M147.498 262.105V257.642" stroke="black" stroke-width="2" stroke-linecap="round"/>
<path d="M153.244 260.192L150.69 262.105" stroke="black" stroke-width="2" stroke-linecap="round"/>
<path d="M144.306 262.743L142.39 259.236" stroke="black" stroke-width="2" stroke-linecap="round"/>
<path d="M217.727 216.197C199.393 216.197 184.528 201.351 184.528 183.04C184.528 164.729 199.393 149.884 217.727 149.884C236.062 149.884 250.927 164.729 250.927 183.04C250.927 201.351 236.062 216.197 217.727 216.197Z" stroke="#A0A0A0" stroke-width="2"/>
<path d="M188.678 153.734C194.458 147.938 201.821 143.991 209.837 142.392C217.855 140.792 226.164 141.613 233.714 144.75C241.266 147.887 247.72 153.199 252.262 160.015C256.803 166.83 259.227 174.844 259.227 183.04" stroke="#A0A0A0" stroke-width="2" stroke-linecap="round"/>
<path d="M217.727 193.88C211.556 193.88 206.554 188.956 206.554 182.881C206.554 176.806 211.556 171.882 217.727 171.882C223.898 171.882 228.9 176.806 228.9 182.881C228.9 188.956 223.898 193.88 217.727 193.88Z" stroke="#A0A0A0" stroke-width="2"/>
<path d="M217.727 211.414C202.036 211.414 189.316 198.71 189.316 183.04C189.316 167.37 202.036 154.666 217.727 154.666C233.417 154.666 246.138 167.37 246.138 183.04C246.138 198.71 233.417 211.414 217.727 211.414Z" stroke="#A0A0A0" stroke-width="2"/>
<path d="M217.887 177.621C214.978 177.621 212.619 179.976 212.619 182.881C212.619 185.786 214.978 188.141 217.887 188.141C220.795 188.141 223.154 185.786 223.154 182.881C223.154 179.976 220.795 177.621 217.887 177.621Z" fill="#A0A0A0"/>
<path d="M263.376 112.502C260.981 111.636 256.832 113.137 255.294 117.101C253.049 122.888 245.789 125.336 242.946 125.336" stroke="#A0A0A0" stroke-width="2" stroke-linecap="round"/>
<path d="M239.435 133.625C252.469 134.168 260.797 135.471 267.846 137.45" stroke="#A0A0A0" stroke-width="2" stroke-linecap="round"/>
<path d="M245.181 116.09L218.047 182.084" stroke="#A0A0A0" stroke-width="2" stroke-linecap="round"/>
<path d="M269.761 74.645V217.167C269.761 221.029 273.927 224.167 279.134 224.167H593.658C598.865 224.167 603.031 221.029 603.031 217.167V74.1667" stroke="black" stroke-width="2" stroke-miterlimit="10" stroke-linecap="round"/>
<path d="M387.7 2.25623L374.499 52.0545C374.477 52.1381 374.466 52.2242 374.466 52.3107V70.3627C374.466 70.7987 374.195 71.1815 373.778 71.3095C337.246 82.5325 269.497 76.0751 252.872 71.2951C252.452 71.1741 252.203 70.7968 252.203 70.3592V52.486C252.203 52.2868 252.263 52.0922 252.374 51.927L286.405 1.44105C286.591 1.16531 286.902 1 287.235 1H386.733C387.39 1 387.868 1.62173 387.7 2.25623Z" fill="black"/>
<path d="M592.77 1.56436L617.456 52.5702C617.521 52.706 617.556 52.8549 617.556 53.0058V68.8777C617.556 69.1028 617.505 69.2988 617.349 69.4607C608.053 79.0882 503.646 78.1914 496.502 73.5816C496.294 73.4477 496.25 73.2392 496.25 72.9923V52.7765L490.16 2.11937C490.088 1.52404 490.553 1 491.153 1H591.869C592.253 1 592.603 1.21923 592.77 1.56436Z" fill="black"/>
<path d="M490.763 2.6865L496.25 51.9875V72.2565C496.25 72.6442 496.055 72.9851 495.701 73.1416C473.552 82.9115 388.69 85.1761 374.721 71.0983C374.545 70.9209 374.466 70.6921 374.466 70.4422V52.1142C374.466 52.0301 374.476 51.9463 374.497 51.8648L387.201 2.54767C387.315 2.10588 387.713 1.79712 388.17 1.79712H489.769C490.278 1.79712 490.706 2.18015 490.763 2.6865Z" stroke="black" stroke-width="2" stroke-linecap="round"/>
<rect x="403.559" y="108.801" width="153.781" height="85.3539" rx="9" stroke="black" stroke-width="2"/>
<rect x="322.476" y="48.2275" width="227.842" height="40.4017" rx="9" fill="white" stroke="black" stroke-width="2" stroke-dasharray="30 30"/>
<path d="M249.649 229.649C245.302 227.621 234.721 223.696 227.172 224.213C226.101 224.256 224.485 224.705 226.582 226.155C228.679 227.604 229.728 228.355 229.99 228.549C231.081 229.455 232.152 231.37 227.696 231.784C222.126 232.302 206.398 226.672 175.27 230.814" stroke="#A0A0A0" stroke-width="2" stroke-linecap="round"/>
<path d="M643.216 169.361C637.102 171.054 630.478 180.886 627.931 185.591C631.752 185.12 640.413 182.627 644.489 176.417C648.565 170.208 645.338 169.126 643.216 169.361Z" fill="#A0A0A0"/>
<path d="M640.386 153.434C634.285 154.049 629.897 169.09 627.931 176.027C632.301 172.459 640.911 165.325 643.009 162.947C646.942 158.488 646.287 152.84 640.386 153.434Z" fill="#A0A0A0"/>
<path d="M620.682 146.862C616.6 153.277 625.445 162.916 629.527 169.332L629.527 153.277C629.527 147.575 623.629 142.229 620.682 146.862Z" fill="#A0A0A0"/>
<path d="M628.569 178.896C623.98 172.525 614.176 161.483 611.672 168.278C608.543 176.772 627.943 178.896 628.569 178.896Z" fill="#A0A0A0"/>
<path d="M628.569 188.46L627.931 164.549" stroke="#A0A0A0" stroke-width="2" stroke-linecap="round"/>
<path d="M622.224 206.501C623.773 202.742 626.078 193.096 626.56 188.46H633.064C633.353 194.173 636.316 202.367 637.761 206.501C642.097 216.274 638.364 222.538 635.593 224.167H625.115C618.25 221.912 620.056 211.764 622.224 206.501Z" stroke="#A0A0A0" stroke-width="2"/>
<path d="M611.331 241.383V237.557" stroke="black" stroke-width="2" stroke-linecap="round"/>
<path d="M615.48 239.789L613.565 241.383" stroke="black" stroke-width="2" stroke-linecap="round"/>
<path d="M608.777 241.701L607.181 239.151" stroke="black" stroke-width="2" stroke-linecap="round"/>
<path d="M506.306 262.105V258.28" stroke="black" stroke-width="2" stroke-linecap="round"/>
<path d="M510.456 260.511L508.541 262.105" stroke="black" stroke-width="2" stroke-linecap="round"/>
<path d="M503.752 262.424L502.156 259.874" stroke="black" stroke-width="2" stroke-linecap="round"/>
<path d="M470.872 265.875C461.86 261.65 439.926 253.472 424.277 254.551C422.057 254.64 418.707 255.575 423.054 258.595C427.401 261.615 429.575 263.179 430.118 263.583C432.381 265.47 434.601 269.461 425.364 270.324C413.817 271.402 381.214 259.674 316.687 268.301" stroke="#A0A0A0" stroke-width="2" stroke-linecap="round"/>
<path d="M302.641 140.043C302.641 122.236 317.076 107.801 334.882 107.801C352.689 107.801 367.124 122.236 367.124 140.043V224.167H302.641V140.043Z" fill="black"/>
</svg>
