<svg width="356" height="401" viewBox="0 0 356 401" fill="none" xmlns="http://www.w3.org/2000/svg">
<path d="M241.582 254.861V299.571C241.582 300.097 241.989 300.533 242.514 300.569L279.955 303.093C280.003 303.096 280.05 303.096 280.098 303.092L295.145 301.946" stroke="#A0A0A0" stroke-width="2" stroke-linecap="round"/>
<path d="M241.582 254.716L278.904 250.103C279.5 250.029 280.026 250.495 280.026 251.096V302.52" stroke="#A0A0A0" stroke-width="2" stroke-linecap="round"/>
<path d="M287.628 250.398L335.965 253.506C336.491 253.539 336.901 253.976 336.901 254.503V272.86" stroke="#A0A0A0" stroke-width="2" stroke-linecap="round"/>
<path d="M241.724 300.505H228.038C227.485 300.505 227.038 300.953 227.038 301.505V317.211C227.038 317.706 227.399 318.126 227.889 318.2L268.941 324.379C269.546 324.47 270.09 324.001 270.09 323.39V307.705" stroke="#A0A0A0" stroke-width="2" stroke-linecap="round"/>
<path d="M269.947 324.552L304.072 321.384" stroke="#A0A0A0" stroke-width="2" stroke-linecap="round"/>
<path d="M290.105 323.688V287.69L305.656 323.688H290.105Z" fill="#A0A0A0" fill-opacity="0.3"/>
<path d="M332.872 305.502L311.844 261.738C311.192 260.38 312.217 258.816 313.722 258.873L320.729 259.136C321.467 259.163 322.129 259.594 322.452 260.257L344.196 304.839C344.57 305.606 344.416 306.526 343.812 307.13L340.334 310.608C339.979 310.963 339.503 311.172 339.001 311.192L333.805 311.403C332.046 311.474 331.059 309.401 332.224 308.081L332.569 307.691C333.1 307.088 333.22 306.226 332.872 305.502Z" fill="#A0A0A0"/>
<path d="M326.924 319.8H321.331C320.884 319.8 320.455 319.983 320.146 320.306C319.122 321.374 319.922 323.146 321.401 323.083L326.988 322.847C327.346 322.832 327.687 322.691 327.951 322.45C328.979 321.511 328.315 319.8 326.924 319.8Z" fill="#A0A0A0"/>
<path d="M255.692 256.357V254.74C255.692 253.737 256.434 252.89 257.428 252.757L262.067 252.139C263.266 251.979 264.331 252.912 264.331 254.121V255.816C264.331 256.831 263.571 257.685 262.563 257.803L257.924 258.344C256.735 258.483 255.692 257.554 255.692 256.357Z" fill="#A0A0A0"/>
<path d="M242.733 317.591V318.517C242.733 319.503 243.452 320.342 244.426 320.493L248.778 321.169C249.99 321.357 251.084 320.419 251.084 319.192V318.116C251.084 317.104 250.328 316.252 249.324 316.13L244.973 315.605C243.782 315.462 242.733 316.391 242.733 317.591Z" fill="#A0A0A0"/>
<path d="M256.268 297.753V299.523C256.268 300.566 257.068 301.433 258.107 301.517L263.035 301.914C264.199 302.008 265.195 301.089 265.195 299.921V297.753C265.195 296.648 264.3 295.753 263.195 295.753H258.268C257.163 295.753 256.268 296.648 256.268 297.753Z" fill="#A0A0A0"/>
<path d="M242.733 306.218V302.791C242.733 301.632 243.715 300.716 244.871 300.795L249.222 301.095C250.271 301.168 251.084 302.04 251.084 303.091V306.743C251.084 307.943 250.036 308.873 248.845 308.729L244.493 308.204C243.489 308.083 242.733 307.23 242.733 306.218Z" fill="#A0A0A0"/>
<path d="M305.229 322.522L285.03 276.177C284.876 275.822 284.94 275.41 285.195 275.118L299.038 259.316C299.512 258.775 300.384 258.896 300.693 259.545L323.054 306.474C323.24 306.865 323.154 307.331 322.84 307.629L306.834 322.847C306.331 323.326 305.506 323.159 305.229 322.522Z" stroke="#A0A0A0" stroke-width="2" stroke-linecap="round"/>
<path d="M306.088 323.688L336.676 322.265C336.915 322.254 337.142 322.158 337.315 321.994L352.671 307.52C353.343 306.886 352.869 305.757 351.946 305.793L328.666 306.697" stroke="#A0A0A0" stroke-width="2" stroke-linecap="round"/>
<path d="M300.04 258.317L329.409 259.447C329.768 259.461 330.092 259.666 330.257 259.985L354.035 305.69" stroke="#A0A0A0" stroke-width="2" stroke-linecap="round"/>
<path d="M71.3911 396.024C79.3075 392.306 98.5772 385.11 112.326 386.06C114.275 386.138 117.219 386.963 113.4 389.618C109.581 392.276 107.671 393.653 107.194 394.008C105.205 395.668 103.255 399.178 111.371 399.938C121.515 400.887 150.157 390.567 206.845 398.157" stroke="#A0A0A0" stroke-width="2" stroke-linecap="round"/>
<path d="M7.95215 324.982V318.133" stroke="black" stroke-width="2" stroke-linecap="round"/>
<path d="M1.82568 321.937L5.56289 324.98" stroke="black" stroke-width="2" stroke-linecap="round"/>
<path d="M10.4453 324.982L13.249 320.525" stroke="black" stroke-width="2" stroke-linecap="round"/>
<path d="M150.952 366.078V355.967" stroke="black" stroke-width="2" stroke-linecap="round"/>
<path d="M141.849 361.584L147.402 366.078" stroke="black" stroke-width="2" stroke-linecap="round"/>
<path d="M154.657 366.079L158.822 359.499" stroke="black" stroke-width="2" stroke-linecap="round"/>
<path d="M212.84 116.404L213.16 166.967C213.164 167.507 212.737 167.953 212.197 167.973L173.346 169.405L148.704 167.937" stroke="black" stroke-width="2" stroke-linecap="round"/>
<path d="M212.84 116.24H173.694C173.141 116.24 172.694 116.687 172.694 117.24V138.092" stroke="black" stroke-width="2" stroke-linecap="round"/>
<path d="M166.493 116.24H133.711C133.159 116.24 132.711 116.687 132.711 117.24V145.92" stroke="black" stroke-width="2" stroke-linecap="round"/>
<path d="M198.804 121.943V120.53C198.804 119.493 198.011 118.628 196.978 118.537L191.513 118.06C190.344 117.958 189.339 118.88 189.339 120.053V121.613C189.339 122.671 190.162 123.546 191.218 123.61L196.684 123.94C197.834 124.009 198.804 123.095 198.804 121.943Z" fill="black"/>
<path d="M197.663 164.555V166.784C197.663 167.825 196.864 168.692 195.827 168.777L190.361 169.227C189.196 169.322 188.197 168.403 188.197 167.233V164.555C188.197 163.451 189.093 162.555 190.197 162.555H195.663C196.767 162.555 197.663 163.451 197.663 164.555Z" fill="black"/>
<path d="M173.183 169.404V159.13" stroke="black" stroke-width="2" stroke-linecap="round"/>
<path d="M125.204 205.933C125.204 202.345 125.204 186.005 125.204 180.656" stroke="black" stroke-width="2" stroke-linecap="round"/>
<path d="M125.855 145.419C125.855 130.863 122.034 123.767 116.757 116.67" stroke="black" stroke-width="2" stroke-linecap="round"/>
<path d="M64.4937 202.836C61.3929 165.001 63.6225 139.398 76.8796 118.855C80.8826 112.652 89.8241 107.049 95.8333 109.212" stroke="black" stroke-width="2" stroke-linecap="round"/>
<path d="M118.568 107.23C121.498 104.921 143.559 104.565 144.698 74.176C152.613 73.3488 154.044 68.5357 149.804 64.3112C143.914 58.4438 144.668 55.071 145.415 51.3512C146.72 46.4356 146.257 41.4876 145.737 40.5019" stroke="black" stroke-width="2" stroke-linecap="round"/>
<path d="M152.796 68.3149C143.262 69.9781 132.563 73.4935 111.378 57.2553C110.711 59.7018 108.822 66.0036 106.611 71.6396C103.847 78.6845 122.574 105.856 135.427 99.9632C145.93 95.1477 152.895 87.9385 152.796 68.3149Z" fill="black"/>
<path d="M136.464 65.0173C137.327 65.2522 138.327 64.3462 138.695 62.9934C139.064 61.6406 138.662 60.3532 137.798 60.1182C136.934 59.8833 135.935 60.7892 135.567 62.1423C135.198 63.4952 135.6 64.7823 136.464 65.0173Z" fill="black"/>
<path d="M130.505 60.2376C130.322 58.304 131.042 54.3599 135.388 54.051" stroke="black" stroke-width="2" stroke-linecap="round"/>
<path d="M104.174 58.9877C103.756 60.2856 103.611 63.1377 106.377 64.1656" stroke="black" stroke-width="2" stroke-linecap="round"/>
<path d="M74.8774 49.5705C73.761 66.7431 84.8586 78.2808 92.9685 87.1995C99.9507 82.3097 111.048 71.3237 106.244 70.8365C101.195 70.324 94.4394 57.51 98.7418 52.8496C103.79 47.3813 109.694 54.0793 111.301 59.4922L114.909 51.1601C112.996 45.8486 111.379 36.3286 120.22 40.7424C129.061 45.1561 140.948 42.3473 145.786 40.3915C154.821 32.1953 168.217 13.9708 149.528 6.64105C133.983 0.544856 116.087 12.6207 105.494 22.8331C97.3809 21.6724 76.3991 26.1568 74.8774 49.5705Z" fill="black"/>
<path d="M93.3838 86.0081C97.4402 89.8743 99.6219 93.2228 100.259 100.611" stroke="black" stroke-width="2" stroke-linecap="round"/>
<path d="M107.186 127.655C110.537 153.296 118.901 155.602 122.665 153.55C130.192 150.109 146.776 144.46 152.895 149.385C159.014 154.31 151.681 160.974 147.25 163.69C132.56 174.133 100.666 191.251 90.6137 176.185C80.5611 161.119 79.8691 142.142 80.7797 134.536" stroke="black" stroke-width="2" stroke-linecap="round"/>
<path d="M96.162 109.482C95.2112 106.168 94.6541 99.8475 100.031 101.076C106.752 102.611 120.251 112.554 119.247 116.236" stroke="black" stroke-width="2" stroke-linecap="round"/>
<path d="M173.232 152.881C173.837 154.741 172.866 159.047 163.964 160.09C160.596 160.485 160.09 160.43 156.928 160.163" stroke="black" stroke-width="2" stroke-linecap="round"/>
<path d="M174.467 147.472C175.951 147.889 177.285 149.506 173.231 152.88C172.345 153.618 171.2 154.44 169.744 155.352" stroke="black" stroke-width="2" stroke-linecap="round"/>
<path d="M173.807 143.554C175.362 143.536 176.867 144.412 174.467 147.472C173.428 148.798 171.657 150.532 168.841 152.781" stroke="black" stroke-width="2" stroke-linecap="round"/>
<path d="M154.79 145.948C161.862 138.687 164.882 138.321 163.462 144.269C162.042 150.218 167.311 145.106 170.048 142.165C171.148 140.943 173.597 138.977 174.593 140.892C174.935 141.551 174.558 142.505 173.807 143.553C172.375 145.55 169.585 147.889 167.836 149.177" stroke="black" stroke-width="2" stroke-linecap="round"/>
<path d="M116.338 296.894C127.488 255.175 127.814 239.326 126.012 204.557C105.891 218.195 73.8385 207.26 63.7134 202.345C57.8907 237.15 61.6497 303.467 70.098 344.075C73.3484 349.385 80.3521 346.655 83.4477 344.629L87.3172 316.43L91.7672 341.126C94.2436 345.256 101.57 344.443 104.923 343.524L116.338 296.894Z" fill="black"/>
<path d="M63.3508 354.082C62.4368 351.342 68.7907 352.94 71.6738 354.082C71.6738 356.56 77.7666 358.485 80.8129 359.137C69.0627 358.322 63.8404 355.549 63.3508 354.082Z" fill="#A0A0A0"/>
<path d="M89.5564 351.566C87.598 349.74 91.0252 349.502 93.1467 349.773C93.7995 354.991 94.2891 353.523 97.3899 355.317C96.9003 356.133 91.5148 353.393 89.5564 351.566Z" fill="#A0A0A0"/>
<path d="M104.918 346.682C105.947 348.061 109.16 350.817 112.245 350.817C114.885 350.817 115.909 353.968 113.016 355.54C108.196 357.51 97.0906 356.603 93.543 352.194V346.091" stroke="black" stroke-width="2" stroke-linecap="round"/>
<path d="M82.3192 348.375C83.2277 349.168 85.5509 350.828 87.5756 351.144C90.1064 351.539 93.6315 354.51 91.664 358.065C89.9119 361.226 86.0181 360.567 83.682 359.843L74.5318 356.483C73.5584 356.085 72.001 355.492 72.001 353.121C72.001 350.749 72.001 349.761 72.001 349.562" stroke="black" stroke-width="2" stroke-linecap="round"/>
</svg>
