<svg width="161" height="145" viewBox="0 0 161 145" fill="none" xmlns="http://www.w3.org/2000/svg">
<path d="M27.2733 26.8468L39.3323 6.00166C42.0955 1.22532 48.2091 -0.416873 52.9937 2.33207L86.9809 21.8593M8.93605 59.5022L2.89905 69.4281C-0.0156418 74.2204 1.58423 80.4652 6.44404 83.2654L13.1452 87.1266M73.9399 122.774L108.155 141.995C112.933 144.68 118.988 143.022 121.733 138.278L133.608 117.75M153.389 83.5295L158.509 74.6931C161.279 69.9121 159.643 63.7974 154.856 61.0387L148.169 57.1858" stroke="#A0A0A0" stroke-width="2" stroke-linecap="round"/>
<path d="M12.7412 35.4451C12.7412 30.4745 16.7706 26.4451 21.7412 26.4451H139.373C144.343 26.4451 148.373 30.4745 148.373 35.4451V108.751C148.373 113.722 144.343 117.751 139.373 117.751H21.7412C16.7706 117.751 12.7412 113.722 12.7412 108.751V35.4451Z" stroke="#A0A0A0" stroke-width="2"/>
<path d="M64.3057 26.8467V45.2859M64.3057 117.149V75.3201" stroke="black" stroke-width="2" stroke-linecap="round"/>
<path d="M72.1329 59.4839C72.1329 63.7953 68.6302 67.2939 64.3052 67.2939C59.9802 67.2939 56.4775 63.7953 56.4775 59.4839C56.4775 55.1724 59.9802 51.6738 64.3052 51.6738C68.6302 51.6738 72.1329 55.1724 72.1329 59.4839Z" stroke="black" stroke-width="2"/>
<path d="M13.3457 59.4839H24.9863" stroke="black" stroke-width="2" stroke-linecap="round"/>
<path d="M103.433 59.4839H147.968" stroke="black" stroke-width="2" stroke-linecap="round"/>
<path d="M37.754 45.8938C46.249 41.2628 55.6117 48.3375 58.8887 53.0762C54.3946 57.7215 55.8124 63.2211 57.6849 65.0899C46.0484 53.4767 36.3513 60.6181 33.0075 65.6906C30.6 63.0876 27.8506 51.2927 37.754 45.8938Z" fill="black"/>
<path d="M59.3965 53.8774C56.1195 49.1387 47.1982 40.9427 37.7285 46.0685C25.8914 52.4758 31.9103 67.2927 33.9166 69.4952C35.9229 71.6977 45.7537 82.9105 59.3965 65.6908" stroke="black" stroke-width="2" stroke-linecap="round"/>
<path d="M57.6826 67.4269C53.8038 61.4868 43.5473 53.3969 32.312 66.6921" stroke="black" stroke-width="2" stroke-linecap="round"/>
<path d="M49.0555 86.6487C49.0555 81.4427 52.8089 81.7489 56.2782 78.0388C60.21 73.8341 58.961 67.8175 64.6133 67.2927" stroke="black" stroke-width="2" stroke-linecap="round"/>
<path d="M80.0617 86.6487C80.0617 81.4427 76.3083 81.7489 72.839 78.0388C68.9072 73.8341 70.1562 67.8175 64.5039 67.2927" stroke="black" stroke-width="2" stroke-linecap="round"/>
<path d="M90.7635 45.8938C82.2685 41.2628 72.9059 48.3375 69.6289 53.0762C74.123 57.7215 72.7052 63.2211 70.8327 65.0899C82.4692 53.4767 92.1663 60.6181 95.5101 65.6906C97.9176 63.0876 100.667 51.2927 90.7635 45.8938Z" fill="black"/>
<path d="M69.1211 53.8774C72.398 49.1387 81.3194 40.9427 90.7891 46.0685C102.626 52.4758 96.6073 67.2927 94.601 69.4952C92.5947 71.6977 82.7639 82.9105 69.1211 65.6908" stroke="black" stroke-width="2" stroke-linecap="round"/>
<path d="M70.7236 67.6271C74.6025 61.687 84.9707 53.3969 96.2059 66.6921" stroke="black" stroke-width="2" stroke-linecap="round"/>
</svg>
