<svg width="159" height="201" viewBox="0 0 159 201" fill="none" xmlns="http://www.w3.org/2000/svg">
<path d="M5.35452 127.549L11.7988 126.38C12.7796 126.202 13.6079 125.549 14.0093 124.636L15.9793 120.158C16.4728 119.036 16.2342 117.727 15.3767 116.851L10.9199 112.3C9.67967 111.033 9.80212 108.973 11.1836 107.863L19.9441 100.82C21.2503 99.7696 23.1636 99.9933 24.1922 101.317L29.0571 107.574C30.0719 108.88 31.9515 109.118 33.2598 108.107L35.4151 106.442C36.2699 105.781 36.7037 104.712 36.5506 103.643L35.5741 96.8208C35.3153 95.0133 36.7178 93.3958 38.5438 93.3958H46.7519C48.4088 93.3958 49.7519 94.7389 49.7519 96.3958V101.382C49.7519 102.638 50.534 103.761 51.7118 104.196L58.3831 106.662C59.4049 107.04 60.5512 106.834 61.3777 106.124L65.8813 102.257C67.1663 101.153 69.1095 101.332 70.172 102.651L74.2347 107.694C75.2438 108.947 75.0853 110.772 73.8756 111.833L69.81 115.395C68.8613 116.226 68.534 117.562 68.9908 118.738L70.8378 123.492C71.4078 124.959 73.0145 125.736 74.5184 125.272L78.9323 123.91C80.7072 123.363 82.5481 124.544 82.7909 126.385L83.9039 134.827C84.0936 136.266 83.2263 137.634 81.8442 138.076L75.6855 140.048C74.7186 140.357 73.9738 141.135 73.7062 142.114L72.2026 147.617C71.9778 148.439 72.1137 149.318 72.5762 150.035L75.8342 155.08C76.6979 156.418 76.3662 158.197 75.0786 159.134L67.917 164.343C66.8564 165.114 65.4177 165.107 64.3645 164.326L60.3289 161.331C59.3475 160.602 58.0224 160.542 56.979 161.179L53.6545 163.206C52.571 163.867 52.0206 165.138 52.2799 166.38L53.0596 170.116C53.4278 171.879 52.1697 173.567 50.3746 173.718L40.8571 174.519C39.2351 174.656 37.8001 173.474 37.6233 171.856L37.0382 166.504C36.8955 165.198 35.92 164.137 34.6309 163.885L29.9041 162.962C28.7635 162.739 27.5969 163.195 26.9098 164.133L24.248 167.763C23.2104 169.178 21.1849 169.405 19.8605 168.254L12.4768 161.835C11.3486 160.855 11.1145 159.193 11.9277 157.939L15.8622 151.871C16.4409 150.978 16.5036 149.846 16.0272 148.895L12.6732 142.2C12.1646 141.185 11.1264 140.544 9.99096 140.544H5.89014C4.23328 140.544 2.89014 139.201 2.89014 137.544V130.501C2.89014 129.051 3.92756 127.808 5.35452 127.549Z" stroke="black" stroke-width="2"/>
<path d="M76.8021 157.654L66.7787 165.076C65.7171 165.862 64.2663 165.862 63.2056 165.074L59.1858 162.091C58.2044 161.363 56.8793 161.303 55.8359 161.939L52.5115 163.967C51.428 164.628 50.8775 165.899 51.1369 167.141L51.9166 170.876C52.2847 172.64 51.0266 174.328 49.2315 174.479L39.714 175.28C38.092 175.416 36.6571 174.234 36.4802 172.616L35.8951 167.264C35.7524 165.958 34.7769 164.897 33.4878 164.646L28.761 163.723C27.6204 163.5 26.4538 163.956 25.7667 164.893L23.1049 168.524C22.0673 169.939 20.0419 170.165 18.7174 169.014L11.3337 162.596C10.2056 161.615 9.97142 159.954 10.7846 158.7L14.7191 152.631C15.2978 151.739 15.3606 150.606 14.8841 149.655L11.5301 142.961C11.0215 141.946 9.98335 141.305 8.8479 141.305H4.74707C3.09022 141.305 1.74707 139.961 1.74707 138.305V131.262C1.74707 129.811 2.7845 128.569 4.21145 128.31L10.6558 127.141C11.6365 126.963 12.4648 126.309 12.8662 125.397L14.8362 120.919C15.3297 119.797 15.0912 118.487 14.2336 117.612L9.7768 113.06C8.53661 111.794 8.65906 109.734 10.0406 108.623L18.801 101.58C20.1072 100.53 22.0205 100.754 23.0492 102.077L27.914 108.335C28.9288 109.64 30.8084 109.878 32.1167 108.867L34.4894 107.034C35.2247 106.466 35.6552 105.589 35.6552 104.66V94.3464" stroke="black" stroke-width="2" stroke-linecap="round"/>
<path d="M56.7528 134.08C56.7528 141.296 50.8912 147.149 43.6562 147.149C36.4212 147.149 30.5596 141.296 30.5596 134.08C30.5596 126.865 36.4212 121.012 43.6562 121.012C50.8912 121.012 56.7528 126.865 56.7528 134.08Z" stroke="black" stroke-width="2"/>
<path d="M45.3705 147.008C51.4663 145.487 55.0857 140.59 55.0857 134.08C55.0857 127.57 50.8948 120.962 42.894 120.962" stroke="black" stroke-width="2" stroke-linecap="round"/>
<path d="M121.947 94.1554C121.947 98.851 118.133 102.661 113.423 102.661C108.713 102.661 104.898 98.851 104.898 94.1554C104.898 89.4597 108.713 85.6497 113.423 85.6497C118.133 85.6497 121.947 89.4597 121.947 94.1554Z" stroke="black" stroke-width="2"/>
<path d="M114.185 102.711C118.566 100.81 121.042 98.5286 121.042 94.156C120.661 89.7833 118.375 87.1217 114.185 85.6008" stroke="black" stroke-width="2" stroke-linecap="round"/>
<path d="M115.47 159.175C115.47 163.136 112.253 166.35 108.279 166.35C104.306 166.35 101.088 163.136 101.088 159.175C101.088 155.214 104.306 152 108.279 152C112.253 152 115.47 155.214 115.47 159.175Z" stroke="#A0A0A0" stroke-width="2"/>
<path d="M108.47 166.399C112.661 165.258 114.613 162.597 114.946 159.555C115.439 155.067 112.089 152.901 109.803 152.141" stroke="#A0A0A0" stroke-width="2" stroke-linecap="round"/>
<path d="M88.757 100.401L89.7433 102.597C90.2397 103.702 90.0227 104.997 89.1933 105.88L86.7361 108.496C85.6687 109.632 85.6495 111.397 86.6919 112.556L89.7933 116.005C90.784 117.107 92.4304 117.32 93.6693 116.508L96.741 114.493C97.6338 113.908 98.7704 113.841 99.7257 114.317L101.475 115.19C102.493 115.698 103.136 116.738 103.136 117.875V120.053C103.136 121.71 104.479 123.053 106.136 123.053H112.708C114.365 123.053 115.708 121.71 115.708 120.053V119.443C115.708 118.186 116.493 117.061 117.673 116.627L120.759 115.493C122.047 115.019 123.491 115.479 124.267 116.609L125.527 118.443C126.572 119.964 128.73 120.19 130.068 118.917L133.755 115.408C134.867 114.35 135.001 112.624 134.066 111.407L132.546 109.429C131.809 108.469 131.72 107.16 132.322 106.11L133.64 103.808C134.104 102.997 134.921 102.449 135.848 102.325L140.213 101.744C141.759 101.539 142.89 100.181 142.813 98.6229L142.527 92.8029C142.445 91.139 141.023 89.8605 139.359 89.9554L137.635 90.0537C136.463 90.1206 135.359 89.497 134.811 88.458L132.996 85.0162C132.352 83.7962 132.624 82.2946 133.654 81.377L135.165 80.0302C136.333 78.9891 136.505 77.2248 135.56 75.9778L133.838 73.7078C132.79 72.3248 130.79 72.1176 129.48 73.2562L127.747 74.7626C126.715 75.6591 125.208 75.7453 124.081 74.9721L120.991 72.8516C120.296 72.3745 119.833 71.6267 119.717 70.7914L119.355 68.1946C119.129 66.5674 117.636 65.4251 116.006 65.6321L111.092 66.2563C109.593 66.4467 108.47 67.7217 108.47 69.2324V70.9792C108.47 72.3192 107.581 73.4967 106.292 73.8642L104.498 74.3758C103.636 74.6217 102.708 74.4688 101.97 73.9589L97.733 71.0314C96.555 70.2175 94.9662 70.3494 93.9386 71.3465L90.9972 74.2005C89.8098 75.3525 89.7792 77.2483 90.9288 78.4381L92.3226 79.8806C93.2983 80.8905 93.443 82.4421 92.6707 83.615L90.4996 86.9122C89.9447 87.755 89.0031 88.2623 87.994 88.2623H85.8896C84.4125 88.2623 83.1553 89.3374 82.9259 90.7965L82.2688 94.9772C82.0105 96.6207 83.1389 98.1606 84.7839 98.4093L86.4689 98.6641C87.4773 98.8166 88.3391 99.4709 88.757 100.401Z" stroke="black" stroke-width="2"/>
<path d="M136.091 78.9466L132.695 74.468C131.647 73.085 129.647 72.8778 128.337 74.0164L126.604 75.5228C125.572 76.4194 124.065 76.5055 122.938 75.7324L119.848 73.6119C119.152 73.1348 118.69 72.387 118.574 71.5517L118.212 68.9549C117.986 67.3277 116.493 66.1853 114.863 66.3923L109.949 67.0166C108.45 67.2069 107.327 68.4819 107.327 69.9926V71.7394C107.327 73.0795 106.438 74.257 105.149 74.6244L103.355 75.136C102.492 75.382 101.565 75.2291 100.827 74.7192L96.5899 71.7916C95.412 70.9778 93.8231 71.1097 92.7955 72.1067L89.8541 74.9607C88.6668 76.1128 88.6362 78.0086 89.7857 79.1983L91.1795 80.6408C92.1553 81.6507 92.2999 83.2024 91.5276 84.3752L89.3566 87.6724C88.8016 88.5153 87.8601 89.0226 86.8509 89.0226H84.7465C83.2695 89.0226 82.0122 90.0977 81.7829 91.5568L81.1258 95.7375C80.8674 97.381 81.9959 98.9208 83.6408 99.1696L85.3259 99.4244C86.3342 99.5768 87.1961 100.231 87.6139 101.161L88.6755 103.525C89.1332 104.544 88.9869 105.732 88.2961 106.61L85.2291 110.505" stroke="black" stroke-width="2" stroke-linecap="round"/>
<path d="M130.476 152.663L128.749 153.733C127.866 154.28 127.329 155.244 127.329 156.283V158.663C127.329 159.891 128.077 160.995 129.217 161.45L129.784 161.676C131.122 162.21 131.892 163.621 131.616 165.036L131.23 167.015C130.956 168.424 129.721 169.441 128.286 169.441H125.017C124.074 169.441 123.186 169.885 122.619 170.639L121.9 171.596C121.154 172.589 121.096 173.938 121.755 174.99L122.752 176.581C123.679 178.062 123.15 180.02 121.601 180.831L119.429 181.969C117.993 182.722 116.219 182.197 115.423 180.785L114.283 178.763C113.752 177.82 112.753 177.236 111.67 177.236H108.616C107.379 177.236 106.269 177.995 105.82 179.147L104.907 181.491C104.337 182.952 102.74 183.728 101.239 183.273L98.2648 182.369C96.5818 181.858 95.6976 180.015 96.352 178.383L96.85 177.14C97.3985 175.771 96.8714 174.207 95.6066 173.45L93.6114 172.255C92.677 171.696 91.5069 171.711 90.5876 172.295C89.1475 173.209 87.2324 172.679 86.4683 171.154L85.3823 168.986C84.6591 167.543 85.208 165.786 86.6242 165.011L88.4321 164.021C89.3938 163.495 89.9918 162.486 89.9918 161.39V158.572C89.9918 157.529 89.4503 156.561 88.5618 156.016L87.2978 155.239C86.0077 154.447 85.5101 152.817 86.1377 151.439L86.7784 150.033C87.4141 148.637 89.0002 147.945 90.4555 148.43L91.3573 148.73C92.678 149.169 94.1274 148.642 94.8579 147.458L95.6882 146.111C96.2834 145.146 96.2834 143.927 95.6882 142.962L95.1416 142.075C94.2894 140.693 94.6914 138.884 96.0486 137.993L98.0677 136.667C99.5554 135.691 101.561 136.216 102.379 137.797L103.059 139.112C103.574 140.108 104.602 140.734 105.724 140.734H109.335C110.636 140.734 111.789 139.895 112.189 138.657L112.44 137.881C112.972 136.234 114.785 135.378 116.395 136.014L118.992 137.038C120.466 137.619 121.233 139.247 120.745 140.754L120.175 142.512C119.782 143.724 120.198 145.053 121.213 145.825L121.717 146.208C122.784 147.019 124.258 147.025 125.331 146.222L126.037 145.693C127.515 144.587 129.631 145.065 130.49 146.698L131.551 148.716C132.285 150.11 131.815 151.833 130.476 152.663Z" stroke="#A0A0A0" stroke-width="2"/>
<path d="M113.917 135.791L118.275 137.678C119.693 138.292 120.412 139.883 119.937 141.353L119.388 143.052C118.997 144.263 119.412 145.588 120.423 146.36L120.823 146.664C121.89 147.479 123.37 147.485 124.444 146.678L124.997 146.263C126.476 145.152 128.597 145.631 129.456 147.269L130.416 149.1C131.145 150.492 130.677 152.211 129.343 153.041L127.751 154.03C126.871 154.577 126.335 155.541 126.335 156.578V158.82C126.335 160.046 127.081 161.149 128.219 161.605L128.667 161.784C130.003 162.319 130.77 163.728 130.496 165.141L130.143 166.961C129.869 168.371 128.634 169.389 127.198 169.389H124.129C123.184 169.389 122.295 169.834 121.728 170.591L121.079 171.457C120.337 172.448 120.28 173.793 120.935 174.844L121.845 176.301C122.768 177.78 122.239 179.733 120.696 180.544L118.724 181.581C117.286 182.337 115.508 181.811 114.712 180.395L113.665 178.53C113.133 177.585 112.133 176.999 111.049 176.999H108.247C106.979 176.999 105.848 177.797 105.422 178.992L104.279 182.197" stroke="#A0A0A0" stroke-width="2" stroke-linecap="round"/>
<path d="M65.7027 84.3928C66.2646 82.0842 68.442 78.0976 70.013 74.6127C70.4698 73.5994 73.1421 73.5521 73.5351 74.5919C75.1265 78.8025 76.711 82.536 77.2415 84.3928C77.9826 86.9864 78.2261 93.5161 71.7029 93.3941C65.1796 93.272 64.9847 87.3424 65.7027 84.3928Z" fill="black"/>
<path d="M77.8051 59.494C78.1101 58.2498 79.1075 56.2918 80.0454 54.352C80.5287 53.3525 83.3963 53.3518 83.8019 54.3852C84.6681 56.5916 85.4419 58.465 85.7381 59.494C86.2475 61.2642 86.415 65.721 81.9302 65.6377C77.4455 65.5544 77.3115 61.5072 77.8051 59.494Z" fill="black"/>
<path d="M81.8003 41.477L87.4765 31.7687C87.9902 30.8902 88.7597 30.1893 89.6822 29.7597L108.403 21.0423C110.236 20.1884 112.481 20.5229 113.325 22.361C113.531 22.8075 113.714 23.2938 113.858 23.8141C114.406 25.7917 112.823 27.5289 110.839 28.0553L93.6512 32.6165C92.4397 32.938 91.3931 33.7028 90.7188 34.7595L85.5716 42.8255" stroke="#A0A0A0" stroke-width="2" stroke-linecap="round"/>
<path d="M86.3481 43.2714C86.7229 41.4592 82.6035 40.0094 81.1054 40.7343C79.982 41.4592 81.1056 42.909 82.978 43.6339C84.4759 44.2138 86.3481 43.9963 86.3481 43.2714Z" fill="#A0A0A0"/>
<path d="M111.137 19.8998C111.389 15.0904 115.24 5.15493 128.328 1.61836C130.013 1.16307 131.795 1.77969 132.806 3.20193C136.242 8.03181 140.579 16.9106 140.048 27.0475C139.94 29.0972 138.376 30.7364 136.349 31.0536C128.665 32.2556 117.641 32.4655 114.185 27.0456" stroke="#A0A0A0" stroke-width="2" stroke-linecap="round"/>
</svg>
