<svg width="102" height="101" viewBox="0 0 102 101" fill="none" xmlns="http://www.w3.org/2000/svg">
<path d="M38.6794 33.7146C30.7158 32.4176 22.2646 34.8494 16.0888 41.0102C13.6509 43.4421 11.8632 46.1982 10.563 49.1164C16.2513 48.0626 22.8334 47.9005 29.9032 48.7922C32.1785 43.6042 35.1039 38.4972 38.6794 33.7146Z" stroke="black" stroke-width="2" stroke-miterlimit="10" stroke-linecap="round" stroke-linejoin="round"/>
<path d="M60.5387 85.3515C58.1821 87.7834 55.338 89.5667 52.4126 90.8637C53.7968 84.8736 53.2252 75.2998 52.7376 71.4898C57.9384 69.3012 62.9766 66.3829 67.8522 62.8162C69.1524 70.8413 66.7146 79.1908 60.5387 85.3515Z" stroke="black" stroke-width="2" stroke-miterlimit="10" stroke-linecap="round" stroke-linejoin="round"/>
<path d="M46.48 59.3303C50.3805 62.8971 54.5248 65.8153 58.9942 68.3282" stroke="black" stroke-width="2" stroke-miterlimit="10" stroke-linecap="round" stroke-linejoin="round"/>
<path d="M33.1533 42.4695C35.5912 46.8469 38.5978 51.0621 42.1733 54.9531" stroke="black" stroke-width="2" stroke-miterlimit="10" stroke-linecap="round" stroke-linejoin="round"/>
<path d="M31.7721 69.7061C30.5532 68.4902 30.5532 66.5447 31.7721 65.3288L48.0243 49.1163C49.2433 47.9004 51.1935 47.9004 52.4124 49.1163C53.6314 50.3322 53.6314 52.2777 52.4124 53.4937L36.1602 69.7061C34.9413 70.9221 32.991 70.9221 31.7721 69.7061Z" stroke="black" stroke-width="2" stroke-miterlimit="10" stroke-linecap="round" stroke-linejoin="round"/>
<path d="M42.0922 63.7077C45.4239 66.707 48.9182 69.301 52.5749 71.5708C61.4324 67.7608 70.0461 62.0054 77.6846 54.3856M37.7041 59.3304C34.6975 56.0879 32.0971 52.5211 29.8218 48.8733C33.7223 40.0375 39.4106 31.4449 47.0492 23.825C54.4459 16.4844 62.755 10.857 71.3302 7.02647M84.6173 46.5635C95.6722 32.4083 101.133 15.9556 100.519 1.04652C93.101 0.742414 85.3158 1.93128 77.6167 4.55441" stroke="black" stroke-width="2" stroke-miterlimit="10" stroke-linecap="round" stroke-linejoin="round"/>
<path d="M81.1787 3.47852C83.2915 6.9642 85.7293 10.1256 88.6547 12.9628C91.5802 15.8811 94.7493 18.3129 98.1623 20.3395" stroke="black" stroke-width="2" stroke-miterlimit="10" stroke-linecap="round" stroke-linejoin="round"/>
<path d="M13.7446 72.5635C13.526 69.5331 11.0797 62.788 5.29132 65.7271C1.13751 67.8362 2.06062 72.3453 4.34399 74.5271" stroke="#A0A0A0" stroke-width="2" stroke-linecap="round"/>
<path d="M11.85 76.6366C10.2468 74.6001 3.57177 75.8795 5.07281 81.6548C5.88325 84.773 11.9958 86.4305 14.8378 84.8548" stroke="#A0A0A0" stroke-width="2" stroke-linecap="round"/>
<path d="M15.3476 83.1817C16.3435 82.7696 18.2917 82.5708 18.1168 85.0726C17.9419 87.5745 15.6634 89.0726 14.546 89.509C13.708 89.8362 12.4473 89.3926 12.5056 87.4726" stroke="#A0A0A0" stroke-width="2" stroke-linecap="round"/>
<path d="M20.2302 97.3637C21.2504 98.3819 23.9759 99.9674 26.7159 98.1637" stroke="#A0A0A0" stroke-width="2" stroke-linecap="round"/>
<path d="M25.1856 89.2179C24.4326 87.7876 22.1687 85.6834 19.1371 88.7089C15.3477 92.4907 20.6675 95.9089 22.3436 95.5452" stroke="#A0A0A0" stroke-width="2" stroke-linecap="round"/>
<path d="M30.651 86.818C32.9344 87.3514 37.7797 89.6228 36.6995 94.0181C35.7521 97.8726 30.9425 97.1938 28.4648 95.9817" stroke="#A0A0A0" stroke-width="2" stroke-linecap="round"/>
<path d="M24.3841 72.8545C24.2092 73.1454 19.1129 76.3211 16.5867 77.8727" stroke="black" stroke-width="2" stroke-linecap="round"/>
<path d="M26.3516 75.9817L20.1573 82.1635" stroke="black" stroke-width="2" stroke-linecap="round"/>
<path d="M29.1938 78.0908L24.4571 85.1454" stroke="black" stroke-width="2" stroke-linecap="round"/>
<path d="M77.5113 31.9585C77.5113 36.4599 73.8544 40.1124 69.3392 40.1124C64.8239 40.1124 61.167 36.4599 61.167 31.9585C61.167 27.4572 64.8239 23.8047 69.3392 23.8047C73.8544 23.8047 77.5113 27.4572 77.5113 31.9585Z" stroke="#A0A0A0" stroke-width="2"/>
</svg>
