<svg width="181" height="152" viewBox="0 0 181 152" fill="none" xmlns="http://www.w3.org/2000/svg">
<path d="M157.015 70.1098V52.335C157.015 49.5735 154.776 47.335 152.015 47.335H67.9785C65.2171 47.335 62.9785 49.5735 62.9785 52.335V107.126C62.9785 109.887 65.2171 112.126 67.9785 112.126H117.866" stroke="black" stroke-width="2" stroke-linecap="round"/>
<path d="M73.9951 95.6333H92.8811" stroke="#A0A0A0" stroke-width="2" stroke-linecap="round"/>
<path d="M99.1768 95.6333H101.931" stroke="#A0A0A0" stroke-width="2" stroke-linecap="round"/>
<rect x="64.1592" y="55.9739" width="91.6755" height="10.9948" fill="black"/>
<ellipse cx="141.67" cy="97.5969" rx="11.4103" ry="11.3874" fill="#A0A0A0"/>
<path fill-rule="evenodd" clip-rule="evenodd" d="M0.489125 81.679C-0.196893 91.323 3.8571 112.706 25.56 124.142C25.6808 124.206 25.8208 124.215 25.9459 124.161C35.0519 120.188 52.6095 106.309 51.8166 81.6723C51.81 81.4693 51.6635 81.2906 51.4662 81.2423C50.7749 81.0732 50.1132 80.9138 49.477 80.7606C40.2418 78.5359 36.4002 77.6106 26.1027 67.2382C25.9168 67.0509 25.6066 67.0519 25.4282 67.2464C21.5577 71.4683 11.8068 79.5878 0.876146 81.2722C0.666188 81.3046 0.504199 81.4671 0.489125 81.679ZM34.8109 89.6905C35.4572 88.7948 35.2549 87.5447 34.3591 86.8984C33.4633 86.2522 32.2133 86.4545 31.567 87.3502L24.1037 97.6952L20.6874 93.0209C20.0356 92.1291 18.7843 91.9346 17.8925 92.5863C17.0008 93.2381 16.8062 94.4894 17.458 95.3812L22.1292 101.772C23.114 103.12 25.127 103.114 26.1033 101.76L34.8109 89.6905Z" fill="black"/>
<path d="M149.958 87.3828C151.078 87.004 152.281 86.7983 153.532 86.7983C159.598 86.7983 164.516 91.633 164.516 97.5968C164.516 103.561 159.598 108.395 153.532 108.395C152.281 108.395 151.078 108.19 149.958 107.811" stroke="#A0A0A0" stroke-width="2" stroke-linecap="round"/>
<path d="M31.7969 56.1702C40.5096 24.3715 69.6662 1 104.292 1C145.797 1 179.443 34.5786 179.443 76C179.443 117.421 145.797 151 104.292 151C81.2236 151 60.5824 140.626 46.797 124.298" stroke="#A0A0A0" stroke-width="2" stroke-linecap="round"/>
</svg>
