<svg width="24" height="24" viewBox="0 0 24 24" fill="none" xmlns="http://www.w3.org/2000/svg">
<path d="M12.5714 7L11.9345 12.0156M11.9345 12.0156L11.928 12.0672M11.9345 12.0156L11.9099 12.0483M11.9345 12.0156L14.0952 9.14286M11.928 12.0672L11.9184 12.1429M11.928 12.0672L11.9099 12.0483M11.928 12.0672L12 12.1429M11.9184 12.1429L11.4286 16M11.9184 12.1429H11.8388M11.9184 12.1429H12M8 12.1429H11.8388M11.8388 12.1429L9.90476 14.7143M11.8388 12.1429L11.9099 12.0483M12 12.1429H16M12 12.1429L14.8571 15.1429M9.14286 9.14286L11.9099 12.0483" stroke="black" stroke-opacity="0.3" stroke-linecap="round"/>
<path d="M6.44429 2C5.40725 2.2648 3.33318 3.35045 3.33318 5.57473C3.33318 8.10294 3.01163 11.288 1.49135 12.1435C1.3077 12.2469 1.24009 12.5322 1.3894 12.6809C1.97212 13.2612 2.62882 14.1407 2.94429 15.1074C3.33318 16.2989 3.33318 23.0512 7.99985 21.8596M18.3332 2C19.2221 2.2648 20.9998 3.35045 20.9998 5.57473C20.9998 8.10379 21.2756 11.2901 22.5799 12.1444C22.7457 12.253 22.8135 12.5109 22.6835 12.6606C22.1797 13.2406 21.6068 14.1294 21.3332 15.1074C20.9998 16.2989 20.9998 23.0512 16.9998 21.8596" stroke="black" stroke-linecap="round"/>
</svg>
