<svg width="24" height="24" viewBox="0 0 24 24" fill="none" xmlns="http://www.w3.org/2000/svg">
<path d="M12.055 9C12.711 9.61644 14.3679 10.997 15.9519 11.7966C16.0174 11.8297 16.0154 11.9753 15.9494 12.0063C14.945 12.4779 13.0706 13.9264 12.055 15M15.5556 11.9667C13.1345 12.0608 8 12 6 11" stroke="black" stroke-linecap="round"/>
<path d="M10.5376 22.7916C11.0152 22.7207 22.5795 21.1781 22.0978 10.4211C22.0536 9.43274 21.9303 8.53367 21.7387 7.71865M10.5376 22.7916C16.876 22.3728 20.0969 19.8899 21.5383 16.9142M10.5376 22.7916C9.7707 22.9055 8.97982 22.8964 8.19743 22.7725M21.7387 7.71865C21.4988 6.69828 21.1518 5.80967 20.7188 5.04257M21.7387 7.71865C22.6022 10.1105 23.0542 13.7848 21.5383 16.9142M20.7188 5.04257C17.1684 -1.24629 7.83127 0.632493 4.27577 5.04257C2.88063 6.77451 -0.0433281 11.1668 1.38159 16.6571C2.27481 20.0988 5.17269 22.2936 8.19743 22.7725M20.7188 5.04257C22.0697 6.9404 24.0299 11.3848 22.3541 15.4153M21.5383 16.9142C21.8737 16.4251 22.1428 15.9235 22.3541 15.4153M8.19743 22.7725C12.1971 23.4683 20.6281 22.971 22.3541 15.4153" stroke="black" stroke-opacity="0.3" stroke-linecap="round"/>
</svg>
