<svg width="24" height="24" viewBox="0 0 24 24" fill="none" xmlns="http://www.w3.org/2000/svg">
<path d="M21.3076 10.5288V7.59878C21.3076 7.36629 21.1592 7.15864 20.9363 7.07919L15.1025 5M17.3589 10.5288V7.07001C17.3589 6.82585 17.1955 6.6106 16.9569 6.54044L11.7179 5M13.4102 10.5288V7.08094C13.4102 6.83161 13.2399 6.61314 12.9945 6.54754L7.20507 5M8.89737 10.5288V7.62289C8.89737 7.37873 8.73397 7.16348 8.49536 7.09333L3.98254 5.76641C3.62061 5.65999 3.25635 5.92562 3.25635 6.29597V8.87018" stroke="black" stroke-opacity="0.3" stroke-linecap="round"/>
<path d="M1 9.42315V16.2803C1 16.5274 1.16734 16.7445 1.40989 16.8121M1.40989 16.8121L5.92271 18.0692C6.02915 18.0988 6.13541 18.0966 6.23231 18.0692M1.40989 16.8121L5.72216 18.6095M1 8.31738L6.27682 10.2772C6.49603 10.3587 6.64103 10.5645 6.64103 10.7943V17.5373C6.64103 17.7959 6.46329 18.0039 6.23231 18.0692M6.23231 18.0692L21.8718 18.2693M21.8718 18.2693C22.4949 18.2693 23 17.7742 23 17.1635V11.6347C23 11.024 22.4949 10.5289 21.8718 10.5289H21.3077H17.359H13.4103H8.89744H7.76923M21.8718 18.2693L6.64103 19.0001L5.72216 18.6095M21.8718 18.2693H5.4M5.72216 18.6095H11.5" stroke="black" stroke-linecap="round"/>
</svg>
