<svg width="24" height="24" viewBox="0 0 24 24" fill="none" xmlns="http://www.w3.org/2000/svg">
<path d="M14.9801 2.46286C14.9801 0.989835 11.3076 0.591372 9.51822 1.44057C9.41866 1.48782 9.32859 1.55521 9.27305 1.65041C8.94164 2.21855 8.97404 3.48719 9.37027 4.35657C9.80179 5.30339 11.5279 4.82998 13.254 4.82998C14.9801 4.82998 14.9801 4.35651 14.9801 2.46286Z" stroke="black" stroke-opacity="0.3" stroke-linecap="round"/>
<path d="M7.2124 2.9364C6.34935 2.62079 4.53696 2.65235 4.19174 5.30345C3.76022 8.61733 4.19195 17.1386 4.19174 19.5056C4.19161 21.0026 4.62284 21.8727 6.78104 22.3461C8.93869 22.8193 19.9185 24.2338 19.7267 20.4524C19.2946 11.9311 21.8843 2.4628 16.7061 2.93621" stroke="black" stroke-linecap="round"/>
</svg>
