<svg width="24" height="24" viewBox="0 0 24 24" fill="none" xmlns="http://www.w3.org/2000/svg">
<path d="M20.1111 3.69604H21.4554C22.3084 3.69604 23 4.36725 23 5.19524V21.5008C23 22.3288 22.3084 23 21.4554 23H2.54462C1.69155 23 1 22.3288 1 21.5008V5.15193C1 4.34787 1.67157 3.69604 2.5 3.69604M3.22221 9.41163H22.8889" stroke="black" stroke-opacity="0.3" stroke-linecap="round"/>
<path d="M4.76628 5.55544C5.27223 6.07091 5.98635 6.39216 6.77778 6.39216C8.3119 6.39216 9.55556 5.18508 9.55556 3.69608C9.55556 2.20708 8.3119 1 6.77778 1C5.76596 1 4.88049 1.52507 4.39484 2.3098C3.96827 2.99907 3.32843 3.69608 2.5 3.69608M15.2108 5.55544C15.7168 6.07091 16.4309 6.39216 17.2223 6.39216C18.7565 6.39216 20.0001 5.18508 20.0001 3.69608C20.0001 2.20708 18.7565 1 17.2223 1C16.2265 1 15.353 1.50863 14.8627 2.27284C14.4117 2.97568 13.753 3.69608 12.8999 3.69608H9.66679" stroke="black" stroke-linecap="round"/>
</svg>
