<svg width="24" height="24" viewBox="0 0 24 24" fill="none" xmlns="http://www.w3.org/2000/svg">
<path d="M15.0139 23C11.7114 18.8386 7.99589 17.1953 6.8633 16.3119C5.3391 15.123 6.22828 14.4011 6.8633 14.1888C7.6043 13.9765 9.04385 14.2525 10.1447 15.3566C11.2456 16.4606 11.8737 16.0289 12.05 15.675C12.1207 15.4981 12.2194 14.6771 12.05 12.8087C11.8808 10.9404 8.76873 9.83633 8.76873 8.56231C8.76873 7.11857 9.89783 7.25313 10.4623 7.50075C11.5209 7.96083 13.7438 9.26306 14.1671 10.7917C14.2681 11.467 14.695 13.029 15.5938 13.8738M16.8135 12.8085C16.5313 11.9947 15.7318 10.4518 14.2923 11.2162M18.1897 13.5517C18.1897 12.7733 18.2533 11.2375 16.3903 11.3225M22.0001 17.3735C21.1533 16.4181 20.2006 15.0379 19.9889 13.5517C19.8432 12.5289 18.7539 11.8179 18.0836 11.8533" stroke="black" stroke-opacity="0.3" stroke-linecap="round"/>
<path d="M4.85714 6.50092C4.91901 6.95922 5.78998 8.91057 6.18733 7.81216C6.66165 6.50092 7.11278 5.14286 9.14286 3.85714M11.9931 5.30746C11.9721 4.85557 11.9137 4.44451 11.823 4.07187C11.7093 3.60534 11.545 3.19905 11.3399 2.84832C9.65822 -0.0270361 5.23566 0.83197 3.55158 2.84832C2.89077 3.64019 1.50582 5.6484 2.18074 8.15866C2.60382 9.73223 3.97641 10.7358 5.40909 10.9547C5.77968 11.0114 6.15428 11.0155 6.51751 10.9635" stroke="black" stroke-linecap="round"/>
</svg>
