<svg width="24" height="24" viewBox="0 0 24 24" fill="none" xmlns="http://www.w3.org/2000/svg">
<path d="M12.5458 9.62983C11.9164 8.29277 10.735 9.30949 10.735 10.5912V15.7184C10.735 17.0002 11.6404 17.0002 11.9422 17C13.4512 17.0002 12.8476 10.2709 12.5458 9.62983Z" stroke="black" stroke-linecap="round"/>
<path d="M16.6586 10.8664C16.0881 9.75375 15.0176 10.5998 15.0176 11.6664V15.9332C15.0176 16.9999 15.8381 16.9998 16.1116 16.9997C17.4791 16.9998 16.9321 11.3999 16.6586 10.8664Z" stroke="black" stroke-linecap="round"/>
<path d="M8.35809 13.5605C7.88598 12.9366 7 13.411 7 14.0091V16.4019C7 17 7.67905 17 7.90539 16.9999C9.03714 17 8.58444 13.8597 8.35809 13.5605Z" stroke="black" stroke-linecap="round"/>
<path d="M7.2124 2.93646C6.34935 2.62085 4.53696 2.65241 4.19174 5.30351C3.76022 8.61739 4.19195 17.1387 4.19174 19.5056C4.19161 21.0027 4.62284 21.8728 6.78104 22.3461C8.93869 22.8193 19.9185 24.2339 19.7267 20.4525C19.2946 11.9311 21.8843 2.46286 16.7061 2.93627M9.51813 1.44057C11.3075 0.591372 14.98 0.989835 14.98 2.46286C14.98 4.35651 14.98 4.82998 13.2539 4.82998C11.5278 4.82998 9.8017 5.30339 9.37018 4.35657C8.97395 3.48719 8.94154 2.21855 9.27296 1.65041C9.32849 1.55521 9.41856 1.48782 9.51813 1.44057Z" stroke="black" stroke-opacity="0.3" stroke-linecap="round"/>
</svg>
