<svg width="24" height="24" viewBox="0 0 24 24" fill="none" xmlns="http://www.w3.org/2000/svg">
<path d="M8.92289 20.998C10.4839 20.9903 11.7785 20.9137 12.8449 20.7896M8.92289 20.998L12.8449 20.7896M8.92289 20.998C8.71951 20.9989 8.5245 20.9995 8.33761 20.9997M11.3789 19.7832L17.2551 19.1508M11.3789 19.7832C11.5417 19.7528 11.7016 19.7151 11.8589 19.6715M11.3789 19.7832C11.327 19.7929 11.2476 19.8048 11.145 19.8187M6.4421 20.9827L14.2292 20.5801M6.4421 20.9827C5.94555 20.9713 5.56242 20.9544 5.27759 20.9329M6.4421 20.9827C6.94991 20.9944 7.57635 21.0004 8.33761 20.9997M14.2292 20.5801C14.4181 20.5438 14.5968 20.5056 14.7658 20.4659M14.2292 20.5801C14.0055 20.6232 13.7675 20.6637 13.5145 20.7013M14.7658 20.4659L5.27759 20.9329M14.7658 20.4659C14.8536 20.4452 14.9387 20.4241 15.0213 20.4026M5.27759 20.9329C5.15404 20.9236 5.04898 20.9134 4.96118 20.9025M12.8449 20.7896C13.079 20.7624 13.302 20.7328 13.5145 20.7013M13.5145 20.7013L8.33761 20.9997M15.4991 20.2652C15.5777 20.2401 15.6534 20.2147 15.7262 20.189M15.4991 20.2652C15.3505 20.3125 15.1914 20.3584 15.0213 20.4026M15.4991 20.2652L10.8342 20.5473M4.96118 20.9025C4.8814 20.8925 4.81588 20.8819 4.76368 20.8707M4.96118 20.9025L10.8342 20.5473M4.76368 20.8707L11.2442 20.4198M4.76368 20.8707C4.64984 20.8463 4.59938 20.8191 4.60269 20.7896M15.9886 20.0898C15.9056 20.1233 15.8182 20.1564 15.7262 20.189M15.9886 20.0898L11.2442 20.4198M15.9886 20.0898C16.0971 20.0459 16.1981 20.0012 16.2918 19.9558M15.7262 20.189L11.2442 20.4198M15.0213 20.4026L10.8342 20.5473M4.60269 20.7896L16.2918 19.9558M4.60269 20.7896C4.60677 20.7533 4.69231 20.7136 4.84139 20.6716M16.2918 19.9558C16.3534 19.9261 16.4119 19.8961 16.4673 19.8658M16.4673 19.8658L4.84139 20.6716M16.4673 19.8658C16.5465 19.8226 16.6195 19.779 16.6866 19.7352M4.84139 20.6716C4.95344 20.64 5.10137 20.6072 5.27759 20.5734M5.27759 20.5734L16.6866 19.7352M5.27759 20.5734C5.53071 20.5249 5.84217 20.4747 6.18946 20.4241M16.6866 19.7352C16.7287 19.7077 16.7684 19.6801 16.8059 19.6524M16.8903 19.5869L6.68138 20.3551M16.8903 19.5869C16.9214 19.5615 16.9507 19.5361 16.9782 19.5107M16.8903 19.5869C16.8636 19.6088 16.8354 19.6306 16.8059 19.6524M6.68138 20.3551C7.1305 20.2943 7.61632 20.2338 8.10017 20.1759M6.68138 20.3551C6.51145 20.3781 6.34678 20.4011 6.18946 20.4241M8.61113 20.1155L17.0718 19.4168M8.61113 20.1155C9.42768 20.0201 10.1984 19.9347 10.7301 19.8709M8.61113 20.1155C8.4422 20.1353 8.27131 20.1554 8.10017 20.1759M17.0718 19.4168C17.0947 19.3916 17.116 19.3665 17.1357 19.3415M17.0718 19.4168C17.0432 19.4481 17.0121 19.4794 16.9782 19.5107M17.2551 19.1508C17.2667 19.1263 17.2767 19.1019 17.2853 19.0777M17.2551 19.1508C17.2364 19.1903 17.2139 19.2302 17.1872 19.2703M12.1396 19.5869C12.047 19.617 11.9535 19.6453 11.8589 19.6715M12.1396 19.5869L15.797 19.1395M12.1396 19.5869C12.2373 19.5552 12.334 19.5214 12.4296 19.486M17.3172 18.9536C17.314 18.9735 17.3099 18.9935 17.3048 19.0136M17.3172 18.9536L15.797 19.1395M17.3172 18.9536C17.3204 18.9333 17.3226 18.9131 17.3238 18.8931M17.2853 19.0777L11.8589 19.6715M17.2853 19.0777C17.293 19.0562 17.2994 19.0348 17.3048 19.0136M11.145 19.8187L17.1872 19.2703M11.145 19.8187C11.0327 19.8338 10.8925 19.8514 10.7301 19.8709M17.1872 19.2703C17.1715 19.2939 17.1543 19.3177 17.1357 19.3415M17.1357 19.3415L10.7301 19.8709M16.9782 19.5107L8.10017 20.1759M6.18946 20.4241L16.8059 19.6524M17.3048 19.0136L15.797 19.1395M17.3238 18.8203C17.3213 18.7803 17.3149 18.7411 17.3048 18.703M17.3238 18.8203C17.3252 18.8443 17.3252 18.8685 17.3238 18.8931M17.3238 18.8203L15.3432 19.0897M12.4296 19.486C12.5325 19.4478 12.6341 19.4078 12.7346 19.3664M12.4296 19.486L15.3432 19.0897M12.7346 19.3664L17.3048 18.703M12.7346 19.3664C12.8104 19.3351 12.8855 19.303 12.96 19.2703M17.3048 18.703C17.2994 18.6825 17.2929 18.6622 17.2853 18.6423M17.3238 18.8931L15.3432 19.0897M12.96 19.2703L17.2853 18.6423M12.96 19.2703C13.0289 19.24 13.0973 19.2091 13.1651 19.1779M17.2853 18.6423C17.2766 18.6193 17.2665 18.5967 17.2551 18.5746M17.2551 18.5746L13.1651 19.1779M17.2551 18.5746C17.2438 18.5526 17.2311 18.5311 17.2173 18.5101M13.1651 19.1779C13.2283 19.1488 13.2911 19.1193 13.3533 19.0897M13.3533 19.0897L17.2173 18.5101M13.3533 19.0897C13.4278 19.0542 13.5015 19.0185 13.5746 18.9827M17.2173 18.5101C17.2007 18.4849 17.1823 18.4605 17.1624 18.4368M17.1624 18.4368L13.5746 18.9827M17.1624 18.4368C17.1433 18.4143 17.1228 18.3925 17.101 18.3714M13.5746 18.9827C13.6453 18.948 13.7154 18.9133 13.7848 18.8786M13.7848 18.8786L17.101 18.3714M13.7848 18.8786C13.8421 18.8501 13.899 18.8216 13.9555 18.7933M17.101 18.3714C17.0719 18.3435 17.0404 18.317 17.0067 18.2919M17.0067 18.2919C16.9787 18.271 16.9491 18.2512 16.9181 18.2325C16.9089 18.2269 16.8996 18.2214 16.8903 18.2161M17.0067 18.2919L13.9555 18.7933M13.9555 18.7933C14.0226 18.7596 14.0891 18.7263 14.155 18.6934M14.155 18.6934L16.8903 18.2161M14.155 18.6934C14.2228 18.6596 14.2899 18.6263 14.3564 18.5936M16.8903 18.2161C16.8506 18.1932 16.8105 18.1724 16.7702 18.1538M16.7702 18.1538L14.3564 18.5936M16.7702 18.1538C16.728 18.1343 16.6855 18.1172 16.6426 18.1022M14.3564 18.5936C14.4143 18.5652 14.4717 18.5374 14.5286 18.5101M14.5286 18.5101L16.6426 18.1022M14.5286 18.5101C14.5949 18.4785 14.6605 18.4477 14.7255 18.418M16.6426 18.1022C16.5752 18.0786 16.507 18.0605 16.438 18.0473M16.438 18.0473L14.7255 18.418M16.438 18.0473C16.3497 18.0305 16.26 18.0218 16.1688 18.0205M14.7255 18.418C14.8002 18.3839 14.8741 18.3512 14.9472 18.3202M14.9472 18.3202C15.3811 18.1366 15.7873 18.0147 16.1688 18.0205M14.9472 18.3202L16.1688 18.0205" stroke="black" stroke-opacity="0.3" stroke-linecap="round"/>
<path d="M17.6473 7.45276C14.4459 3.77707 10.3687 2.62803 9.58418 3.77689C8.60347 5.21297 13.9128 11.2245 17.8694 10.3227L22.4686 13.7293C22.7166 13.7849 23.1585 13.7693 22.9421 13.2617L18.4782 9.82178C18.5233 9.57687 18.539 8.96013 18.2414 8.45249M10 3.4635C8.87515 3.69796 6.0733 4.38603 5.66836 7.11915C5.16218 10.5355 5.56177 12.1755 2.26007 14.0189C-0.439495 15.5261 1.82142 17.628 3.27243 17.7033C7.58061 17.9265 16.4602 16.9128 17.513 11.0714" stroke="black" stroke-linecap="round"/>
</svg>
