<svg width="24" height="24" viewBox="0 0 24 24" fill="none" xmlns="http://www.w3.org/2000/svg">
<path d="M15.5 18.0393H12.7814C11.6475 18.0393 10.5668 18.4933 9.80827 19.2886L7.37165 21.8429C7.0651 22.1643 6.5 21.9597 6.5 21.5273V18.9827C6.5 18.4617 6.05228 18.0393 5.5 18.0393H5C2.79086 18.0393 1 16.3496 1 14.2653V5.77397C1 5.19128 1.13996 4.63944 1.3899 4.14673" stroke="black" stroke-opacity="0.3" stroke-linecap="round"/>
<path d="M11.5 2H19C21.2091 2 23 3.68965 23 5.77394V14.2653C23 16.3496 21.2091 18.0392 19 18.0392H18.0392M8 2H9.5M6 2H5C4.14017 2 3.3437 2.25596 2.69153 2.69153M2.69153 2.69153L1 1M2.69153 2.69153L18.0392 18.0392M18.0392 18.0392L23 23" stroke="black" stroke-linecap="round"/>
</svg>
