<svg width="24" height="24" viewBox="0 0 24 24" fill="none" xmlns="http://www.w3.org/2000/svg">
<path d="M21.1409 1.20138C17.4304 0.903929 5.83944 0.963451 2.50002 1.20141M22.5323 1.49887C22.7378 4.04686 23.0963 8.58611 22.9758 9.99997M22.0003 10C20.5877 9.4197 7.44553 9.27458 4.62046 9.27458C1.7954 9.27458 1.06931 9.46036 1.44226 8.69428C1.74859 8.06504 1.52554 3.97879 1 1.35995" stroke="black" stroke-opacity="0.3" stroke-linecap="round"/>
<path d="M21.1409 14.2014C17.4304 13.9039 5.83944 13.9635 2.50002 14.2014M22.5323 14.4989C22.7378 17.0469 23.0963 21.5861 22.9758 23M22.0003 23C20.5877 22.4197 7.44553 22.2746 4.62046 22.2746C1.7954 22.2746 1.06931 22.4604 1.44226 21.6943C1.74859 21.065 1.52554 16.9788 1 14.36" stroke="black" stroke-linecap="round"/>
</svg>
