<svg width="24" height="24" viewBox="0 0 24 24" fill="none" xmlns="http://www.w3.org/2000/svg">
<path d="M19.0267 12.747C20.9865 11.0938 19.4955 7.29145 18.5 5.58972C17.0001 3.53843 14.5 5.0769 12 6.10254C9.49995 7.12818 11.5 10.2051 12.5 12.7692C13.3 14.8205 14.8333 14.6495 15.5 14.3077L18.9688 12.7829C18.9895 12.7738 19.0093 12.7616 19.0267 12.747Z" stroke="black" stroke-opacity="0.3" stroke-linecap="round"/>
<path d="M1 2H3.38984C4.38355 2 5.2665 2.65229 5.58413 3.62107L9.5 15.8462M14 18.4103L23 14.9348M10.7105 21.9775C10.8463 21.9576 14.1327 21.5235 13.9958 18.4969C13.9833 18.2188 13.9482 17.9659 13.8938 17.7365C13.8256 17.4494 13.727 17.1994 13.6039 16.9836C12.5949 15.2141 9.94139 15.7428 8.93095 16.9836C8.53446 17.4709 7.70349 18.7067 8.10845 20.2515C8.36229 21.2198 9.18585 21.8374 10.0455 21.9721C10.2678 22.007 10.4926 22.0095 10.7105 21.9775Z" stroke="black" stroke-linecap="round"/>
</svg>
