<svg width="24" height="24" viewBox="0 0 24 24" fill="none" xmlns="http://www.w3.org/2000/svg">
<path d="M1 22.565C7.70631 22.8051 21.4015 23.2034 22.5319 22.8763M1.02929 20.6488C4.00775 15.6991 10.4884 4.44083 10.7741 1.52381M23 23C19.5174 17.1034 11.5735 3.53547 10.5404 1" stroke="black" stroke-opacity="0.3" stroke-linecap="round"/>
<path d="M10.3354 20.6557C10.6262 21.0077 11.1049 21.1089 11.4993 20.87C11.8861 20.6357 12.0701 20.1482 11.9755 19.6931M10.3354 20.6557C10.2833 20.5927 10.2373 20.5215 10.1988 20.4429C9.94563 19.9253 10.1175 19.2774 10.5826 18.9957C11.0477 18.714 11.63 18.9052 11.8832 19.4228C11.9258 19.51 11.9564 19.6008 11.9755 19.6931M10.3354 20.6557C10.7592 20.8257 11.6805 20.871 11.9755 19.6931M10.7181 16.9535C10.0895 13.9323 9.41329 9 10.8689 9C12.3245 9 11.6483 13.9323 11.0197 16.9535C10.978 17.1538 10.7597 17.1538 10.7181 16.9535Z" stroke="black" stroke-linecap="round"/>
</svg>
