<svg width="24" height="24" viewBox="0 0 24 24" fill="none" xmlns="http://www.w3.org/2000/svg">
<path d="M10.6708 22.459C11.2524 23.012 12.2097 23.171 12.9986 22.7956C13.7722 22.4275 14.1401 21.6615 13.951 20.9462M10.6708 22.459C10.5666 22.3599 10.4744 22.2481 10.3975 22.1245C9.89119 21.3111 10.2349 20.293 11.1651 19.8503C12.0954 19.4076 13.26 19.7081 13.7663 20.5215C13.8515 20.6585 13.9127 20.8013 13.951 20.9462M10.6708 22.459C11.5183 22.726 13.3609 22.7973 13.951 20.9462" stroke="black" stroke-opacity="0.3" stroke-linecap="round"/>
<path d="M11.7378 1C8.82659 1 10.179 8.75079 11.4361 13.4983C11.5195 13.8131 11.956 13.8131 12.0394 13.4983C13.2965 8.75079 14.6489 1 11.7378 1Z" stroke="black" stroke-linecap="round"/>
</svg>
