<svg width="24" height="24" viewBox="0 0 24 24" fill="none" xmlns="http://www.w3.org/2000/svg">
<path d="M10.4828 3.35163C9.90805 2.2986 8 0.392049 4.96552 1.19014C1.17241 2.18775 1 5.18059 1 6.34447M3.58621 4.01671C2.2069 5.18059 3.34483 7.34208 2.37931 8.67224M4.96552 2.85283C6.17241 2.57571 8.72414 2.62005 9.27586 5.01432C9.43391 5.92621 9.6 8.05 9 9.25M11 4.84805V6.51074M3.75862 9.50358C3.93103 9.28189 4.27586 8.60573 4.27586 7.67462C4.27586 6.51074 4.10345 4.34925 6 4.34925C7.51724 4.34925 7.89655 5.34686 7.89655 5.84567C7.95402 6.84328 7.96552 8.97152 7.55172 9.50358M6 5.6794C6.17241 6.8987 6.27586 9.66985 5.31034 11" stroke="black" stroke-linecap="round"/>
<path d="M16.4416 23C13.3413 19.2785 9.85329 17.809 8.79004 17.019C7.35917 15.9558 8.1939 15.3102 8.79004 15.1203C9.48567 14.9304 10.8371 15.1773 11.8706 16.1647C12.904 17.152 13.4936 16.7659 13.6592 16.4494C13.7255 16.2912 13.8182 15.557 13.6592 13.8861C13.5003 12.2153 10.5788 11.228 10.5788 10.0886C10.5788 8.79753 11.6388 8.91786 12.1687 9.13931C13.1624 9.55075 15.2492 10.7153 15.6466 12.0823C15.7415 12.6863 16.1422 14.0831 16.986 14.8386M18.131 13.886C17.866 13.1582 17.1156 11.7784 15.7642 12.462M19.423 14.5506C19.423 13.8545 19.4826 12.481 17.7337 12.557M23 17.9684C22.2051 17.1139 21.3107 15.8797 21.112 14.5506C20.9752 13.6359 19.9526 13 19.3233 13.0317" stroke="black" stroke-opacity="0.3" stroke-linecap="round"/>
</svg>
