<svg width="24" height="24" viewBox="0 0 24 24" fill="none" xmlns="http://www.w3.org/2000/svg">
<path d="M7.00138 23C5.72928 17.855 3.7985 7.55838 6.00546 6.62189C6.10575 6.57945 6.21506 6.55174 6.31637 6.51097L14.7053 3.12887M16.8889 4.2316L17.4403 6.69783L19 13M6.8494 7.58899C5.9009 9.31475 7.37493 16.591 8.56486 21.3741C8.82368 22.4168 9.99849 22.9634 11.0192 22.5348L13 21.7233M8.52084 7.693C8.9056 7.24061 9.30324 5.64338 8.41003 4.8268C8.25616 4.68448 8.06225 4.56619 7.82232 4.48162C6.20258 3.90939 5.16932 5.85347 6.14355 6.52246M8.38499 4.7557C8.52303 3.87908 9.70071 2.96354 11.1205 3.72372C12.646 4.76558 11.8796 6.29769 11.184 6.83221M11.1848 3.6484C11.4742 2.95734 12.5656 1.62477 14.0054 2.17254C15.939 3.19178 14.8259 5.19968 14.0166 5.45669M13.9889 2.07714C14.4286 1.30955 15.5255 0.567647 16.5967 1.30146C17.668 2.03543 17.3282 3.9804 16.2396 4.60302M8.91687 11.2303C10.5466 10.7721 14.1122 9.58078 15.3375 8.48111M9.64645 13.627C11.1675 13.3984 14.736 12.0152 16.14 11.5122" stroke="black" stroke-opacity="0.3" stroke-linecap="round"/>
<path d="M14 17.5505C14.5137 16.9601 15.6642 15.4689 16.3305 14.0433C16.358 13.9843 16.4794 13.9861 16.5053 14.0455C16.8982 14.9495 18.1053 16.6365 19 17.5505M16.4722 14.4C16.5507 16.5789 16.5 21.2 15.6667 23" stroke="black" stroke-linecap="round"/>
</svg>
