<svg width="24" height="24" viewBox="0 0 24 24" fill="none" xmlns="http://www.w3.org/2000/svg">
<path d="M1.07592 9.33679C0.972797 12.5986 0.936945 16.6165 1.21736 18.5511C1.60786 21.2451 11.2955 21.1904 17 20.8106M1.07592 9.33679C1.11756 8.01952 1.17018 6.82559 1.21736 5.94202M1.07592 9.33679C2.48845 9.33679 4.18495 9.34061 6 9.34976" stroke="black" stroke-opacity="0.3" stroke-linecap="round"/>
<path d="M22.8966 9.82175C22.8808 9.43881 22.8697 9.10966 22.8697 8.85181C22.8697 6.42698 21.8855 5.45704 18.9329 5.45704C15.9803 5.45704 9.09084 7.39674 8.59874 4.00214C8.41366 2.72544 4.36858 3.03246 3.67787 3.0322C3.45969 3.0322 3.26082 3.04875 3.07956 3.07956M22.8966 9.82175C22.6427 9.55713 15.8957 9.42787 9.37243 9.37243M22.8966 9.82175C23.0279 13.0152 23.4807 19.9498 20.4798 20.4798M1 1L3.07956 3.07956M3.07956 3.07956L9.37243 9.37243M9.37243 9.37243L20.4798 20.4798M20.4798 20.4798L23 23" stroke="black" stroke-linecap="round"/>
</svg>
