<svg width="24" height="24" viewBox="0 0 24 24" fill="none" xmlns="http://www.w3.org/2000/svg">
<path d="M11.7291 12.437C11.8076 12.4258 13.7088 12.1825 13.6296 10.4859C13.6223 10.33 13.602 10.1882 13.5705 10.0597M11.7291 12.437C12.7711 12.3709 13.3006 11.9793 13.5376 11.51M11.7291 12.437C11.603 12.4549 11.473 12.4535 11.3444 12.434M13.5705 10.0597C13.5311 9.89873 13.4741 9.75858 13.4029 9.63759M13.5705 10.0597C13.7125 10.4369 13.7868 11.0164 13.5376 11.51M13.4029 9.63759C12.8192 8.64572 11.2842 8.94204 10.6997 9.63759C10.4703 9.91075 9.98961 10.6035 10.2239 11.4694C10.3707 12.0122 10.8471 12.3584 11.3444 12.434M13.4029 9.63759C13.625 9.93692 13.9472 10.6379 13.6717 11.2736M13.5376 11.51C13.5927 11.4328 13.637 11.3537 13.6717 11.2736M11.3444 12.434C12.0019 12.5437 13.388 12.4653 13.6717 11.2736M15.1818 14.716L15.3231 14.9873C15.4941 15.3152 15.5717 15.6957 15.4155 16.0303M15.1818 14.716C14.8754 14.1282 14.2493 13.757 13.5643 13.757H10.3744C9.68946 13.757 9.06328 14.1282 8.75696 14.716L8.68758 14.8491C8.47309 15.2607 8.42062 15.7466 8.64618 16.1527C9.33462 17.392 10.5249 17.9223 11.7291 17.954M15.1818 14.716C15.4961 15.5913 15.2457 17.4643 11.7291 17.954M15.4155 16.0303C14.8683 17.2017 13.2871 17.9951 11.7291 17.954M15.4155 16.0303C15.263 16.8067 14.3124 18.2785 11.7291 17.954" stroke="black" stroke-linecap="round"/>
<path d="M3.67787 3.0322C1.31578 3.0322 1.21736 4.972 1.21736 5.942C1.17018 6.82557 1.11756 8.01951 1.07592 9.33678C0.972797 12.5986 0.936945 16.6165 1.21736 18.5511C1.70944 21.9459 16.9646 20.9759 20.4093 20.4909C23.4878 20.0576 23.029 13.0399 22.8966 9.82175C22.8808 9.43881 22.8697 9.10966 22.8697 8.85181C22.8697 6.42698 21.8855 5.45704 18.9329 5.45704C15.9803 5.45704 9.09084 7.39674 8.59874 4.00214C8.41366 2.72544 4.36858 3.03246 3.67787 3.0322Z" stroke="black" stroke-opacity="0.3" stroke-linecap="round"/>
</svg>
