<svg width="24" height="24" viewBox="0 0 24 24" fill="none" xmlns="http://www.w3.org/2000/svg">
<path d="M21.1409 4.35802C17.4304 3.82921 5.83944 3.93502 2.50002 4.35807M22.5323 4.88689C22.7378 9.41663 23.0963 17.4864 22.9758 19.9999M22.0003 20C20.5877 18.9684 7.44553 18.7104 4.62046 18.7104C1.7954 18.7104 1.06931 19.0406 1.44226 17.6787C1.74859 16.5601 1.52554 9.29563 1 4.63991" stroke="black" stroke-opacity="0.3" stroke-linecap="round"/>
<path d="M3.24537 6.16697C3.10813 6.18 3.01306 6.30286 3.0285 6.43985C3.43748 10.0694 3.60623 15.4944 3.36147 16.3459C3.20598 16.8868 3.28421 17.0849 3.70464 17.1492M3.24537 6.16697L3.70464 17.1492M3.24537 6.16697C3.38313 6.15389 3.53669 6.14162 3.70464 6.13013M3.70464 17.1492C3.8725 17.1749 4.09491 17.1792 4.37878 17.1755M4.37878 17.1755L3.70464 6.13013M4.37878 17.1755C4.45488 17.1745 4.53539 17.1729 4.62046 17.171M3.70464 6.13013C3.90891 6.11615 4.13446 6.10335 4.37878 6.09169M4.37878 6.09169L4.62046 17.171M4.37878 6.09169C4.57427 6.08236 4.78177 6.07376 4.99999 6.06589M4.62046 17.171C4.73814 17.1684 4.86454 17.1652 4.99999 17.162M4.99999 17.162V6.06589M4.99999 17.162C5.19616 17.1574 5.41132 17.153 5.64656 17.1507M4.99999 6.06589C5.2063 6.05844 5.42219 6.05165 5.64656 6.04549M5.64656 6.04549V17.1507M5.64656 6.04549C5.82997 6.04046 6.01905 6.03585 6.2132 6.03167M5.64656 17.1507C5.74705 17.1498 5.8512 17.1492 5.9591 17.1492C6.08037 17.1492 6.23035 17.1537 6.40568 17.162M6.40568 17.162L6.2132 6.03167M6.40568 17.162C6.57986 17.1703 6.77906 17.1823 6.99999 17.1975M6.2132 6.03167C6.46723 6.0262 6.72994 6.02144 6.99999 6.01741M6.99999 6.01741V17.1975M6.99999 6.01741C7.22792 6.014 7.46108 6.0111 7.69866 6.0087M6.99999 17.1975C7.15618 17.2083 7.32324 17.2206 7.49999 17.2343M7.49999 17.2343L7.69866 6.0087M7.49999 17.2343C7.65908 17.2466 7.82603 17.26 7.99999 17.2743M7.69866 6.0087C7.88426 6.00682 8.07257 6.00525 8.26318 6.00399M8.26318 6.00399L7.99999 17.2743M8.26318 6.00399C8.44074 6.00281 8.6203 6.00189 8.80156 6.00124M7.99999 17.2743C8.20788 17.2914 8.42579 17.3098 8.65228 17.3293M8.65228 17.3293L8.80156 6.00124M8.65228 17.3293C8.8425 17.3457 9.03877 17.3628 9.24023 17.3804M8.80156 6.00124C9.03185 6.00041 9.26487 6 9.49999 6M9.49999 6L9.24023 17.3804M9.49999 6C9.73372 6 9.96953 6.00042 10.2068 6.00124M9.24023 17.3804C9.43244 17.3973 9.62938 17.4146 9.83029 17.4324M9.83029 17.4324L10.2068 6.00124M9.83029 17.4324C10.0491 17.4517 10.2727 17.4715 10.5 17.4915M10.2068 6.00124C10.3967 6.0019 10.5876 6.00281 10.7791 6.00399M10.7791 6.00399L10.5 17.4915M10.7791 6.00399C10.9859 6.00526 11.1935 6.00683 11.4014 6.0087M10.5 17.4915C10.6461 17.5044 10.7937 17.5173 10.9426 17.5304M10.9426 17.5304L11.4014 6.0087M10.9426 17.5304C11.1421 17.5478 11.3438 17.5653 11.5473 17.5829M11.4014 6.0087C11.6696 6.01111 11.9383 6.01401 12.2066 6.01741M12.2066 6.01741L11.5473 17.5829M12.2066 6.01741C12.4152 6.02004 12.6235 6.02298 12.8312 6.0262M11.5473 17.5829C11.6974 17.5958 11.8483 17.6087 12 17.6216M12 17.6216L12.8312 6.0262M12 17.6216C12.1659 17.6356 12.3327 17.6496 12.5 17.6635M12.8312 6.0262C12.9431 6.02794 13.0549 6.02976 13.1663 6.03167M13.1663 6.03167L12.5 17.6635M13.1663 6.03167C13.3282 6.03444 13.4896 6.03739 13.6503 6.04051M12.5 17.6635C12.7215 17.6818 12.9438 17.7 13.1663 17.7177M13.1663 17.7177L13.6503 6.04051M13.1663 17.7177C13.3779 17.7346 13.5896 17.7511 13.8008 17.7672M13.6503 6.04051C13.8312 6.04403 14.0112 6.04777 14.1899 6.05173M14.1899 6.05173L13.8008 17.7672M14.1899 6.05173C14.3886 6.05613 14.5857 6.0608 14.781 6.06574M13.8008 17.7672C14.0348 17.785 14.2681 17.8022 14.5 17.8187M14.5 17.8187L14.781 6.06574M14.5 17.8187C14.7588 17.8372 15.0158 17.8546 15.2697 17.871M14.781 6.06574C14.9453 6.0699 15.1083 6.07425 15.2697 6.07879M15.2697 6.07879V17.871M15.2697 6.07879C15.4584 6.08409 15.645 6.08965 15.8291 6.09547M15.2697 17.871C15.5164 17.8869 15.7602 17.9016 16 17.9151M16 17.9151L15.8291 6.09547M16 17.9151C16.1688 17.9246 16.3356 17.9334 16.5 17.9415M15.8291 6.09547C16.0567 6.10266 16.2806 6.11025 16.5 6.11821M16.5 6.11821V17.9415M16.5 6.11821C16.717 6.12609 16.9296 6.13435 17.1372 6.14298M16.5 17.9415C16.7168 17.9522 16.9296 17.9616 17.1372 17.9696M17.1372 17.9696V6.14298M17.1372 17.9696C17.3297 17.977 17.5179 17.9832 17.701 17.988M17.1372 6.14298C17.3296 6.15097 17.5177 6.15929 17.701 6.16792M17.701 6.16792V17.988M17.701 6.16792C17.8576 6.17529 18.0107 6.1829 18.1599 6.19073M17.701 17.988C17.9331 17.9941 18.1571 17.998 18.3716 17.9994M18.3716 17.9994L18.1599 6.19073M18.3716 17.9994C18.5916 18.0009 18.8016 17.9997 19 17.9956M18.1599 6.19073C18.3843 6.2025 18.5999 6.21479 18.8058 6.22759M18.8058 6.22759L19 17.9956M18.8058 6.22759C18.9742 6.23805 19.136 6.24886 19.2906 6.26M19 17.9956C19.1762 17.9919 19.3432 17.986 19.5 17.9776M19.5 17.9776L19.2906 6.26M19.5 17.9776C19.7561 17.9638 19.9848 17.9432 20.1815 17.9151M19.2906 6.26C19.4718 6.27305 19.6432 6.28657 19.8037 6.30053M19.8037 6.30053L20.1815 17.9151M19.8037 6.30053C19.9374 6.31216 20.0635 6.3241 20.1815 6.33635M20.1815 17.9151C20.3479 17.8913 20.4913 17.862 20.6088 17.8267M20.6088 17.8267C20.8489 17.7546 20.9812 17.6575 20.9812 17.5304C21.0778 15.611 20.7788 10.1297 20.6088 6.59203C20.6031 6.4716 20.5177 6.37432 20.3979 6.36023C20.3292 6.35215 20.257 6.34418 20.1815 6.33635M20.6088 17.8267L20.1815 6.33635" stroke="black" stroke-linecap="round"/>
</svg>
