<svg width="24" height="24" viewBox="0 0 24 24" fill="none" xmlns="http://www.w3.org/2000/svg">
<path d="M4.00138 23C2.72928 17.855 0.798502 7.55838 3.00546 6.62189C3.10575 6.57945 3.21506 6.55174 3.31637 6.51097L11.7053 3.12887M13.8889 4.2316L14.4403 6.69783L15.5091 11.2303M3.8494 7.58899C2.9009 9.31475 4.37493 16.591 5.56486 21.3741C5.82368 22.4168 6.99849 22.9634 8.01915 22.5348L11.2557 21.1752M5.52084 7.693C5.9056 7.24061 6.30324 5.64338 5.41003 4.8268C5.25616 4.68448 5.06225 4.56619 4.82232 4.48162C3.20258 3.90939 2.16932 5.85347 3.14355 6.52246M5.38499 4.7557C5.52303 3.87908 6.70071 2.96354 8.12045 3.72372C9.64597 4.76558 8.87955 6.29769 8.18396 6.83221M8.18481 3.6484C8.4742 2.95734 9.56555 1.62477 11.0054 2.17254C12.939 3.19178 11.8259 5.19968 11.0166 5.45669M10.9889 2.07714C11.4286 1.30955 12.5255 0.567647 13.5967 1.30146C14.668 2.03543 14.3282 3.9804 13.2396 4.60302M5.91687 11.2303C7.54656 10.7721 11.1122 9.58078 12.3375 8.48111M6.64645 13.627C8.16746 13.3984 11.736 12.0152 13.14 11.5122" stroke="black" stroke-opacity="0.3" stroke-linecap="round"/>
<path d="M17.6904 16.8189C17.7801 16.8064 19.9529 16.5361 19.8624 14.651C19.8541 14.4778 19.8309 14.3202 19.7949 14.1774M17.6904 16.8189C18.8813 16.7455 19.4864 16.3103 19.7573 15.7889M17.6904 16.8189C17.5463 16.8388 17.3977 16.8372 17.2507 16.8155M19.7949 14.1774C19.7498 13.9986 19.6846 13.8429 19.6033 13.7084M19.7949 14.1774C19.9572 14.5966 20.0421 15.2405 19.7573 15.7889M19.6033 13.7084C18.9362 12.6064 17.1819 12.9356 16.5139 13.7084C16.2518 14.0119 15.7024 14.7817 15.9701 15.7438C16.138 16.3469 16.6824 16.7316 17.2507 16.8155M19.6033 13.7084C19.8571 14.041 20.2254 14.8199 19.9105 15.5262M19.7573 15.7889C19.8203 15.7032 19.8708 15.6153 19.9105 15.5262M17.2507 16.8155C18.0022 16.9374 19.5862 16.8503 19.9105 15.5262M21.6363 19.3511L21.7979 19.6525C21.9932 20.0169 22.082 20.4396 21.9034 20.8114M21.6363 19.3511C21.2862 18.6981 20.5706 18.2855 19.7878 18.2855H16.1422C15.3594 18.2855 14.6438 18.6981 14.2937 19.3511L14.2144 19.499C13.9692 19.9563 13.9093 20.4962 14.1671 20.9474C14.9539 22.3245 16.3142 22.9136 17.6904 22.9489M21.6363 19.3511C21.9956 20.3237 21.7094 22.4048 17.6904 22.9489M21.9034 20.8114C21.2781 22.113 19.471 22.9946 17.6904 22.9489M21.9034 20.8114C21.7292 21.6741 20.6427 23.3094 17.6904 22.9489" stroke="black" stroke-linecap="round"/>
</svg>
