<svg width="24" height="24" viewBox="0 0 24 24" fill="none" xmlns="http://www.w3.org/2000/svg">
<path d="M6.62142 8.45557C7.3987 8.49967 8.83019 9.05101 8.33792 10.9035C8.12126 11.7188 7.66771 12.8417 7.06351 13.93M7.06351 13.93C5.95169 15.9325 4.32975 17.8178 2.73503 17.4534C0.204808 16.8753 0.854415 14.6736 2.0873 13.7815C3.41374 12.8217 4.76399 13.0905 7.06351 13.93ZM7.06351 13.93C7.45871 14.0742 7.88194 14.2354 8.33792 14.41C8.64339 14.527 8.91976 14.6037 9.16949 14.6462M9.16949 14.6462C10.9531 14.9503 11.3783 13.5176 11.3499 12.6568C11.3258 11.929 10.4107 11.6644 9.82769 12.8553C9.608 13.304 9.40416 13.9401 9.16949 14.6462ZM9.16949 14.6462C8.92862 15.3711 8.65529 16.1698 8.29903 16.9158M8.29903 16.9158C7.71403 18.1408 6.90542 19.2236 5.64981 19.6036C3.90093 20.1329 4.38673 18.4127 6.8805 17.4534C7.26952 17.3038 7.75507 17.1132 8.29903 16.9158ZM8.29903 16.9158C9.31606 16.5467 10.5373 16.1537 11.7135 15.9591M11.7135 15.9591C13.4696 15.6686 15.1255 15.8207 15.8516 17.1557C17.6509 20.4637 14.2852 21.5735 12.9368 20.7284C12.0714 20.1859 11.1694 18.4318 11.7135 15.9591ZM11.7135 15.9591C12.017 14.5794 12.7708 12.9759 14.2323 11.2343" stroke="black" stroke-opacity="0.3" stroke-linecap="round"/>
<path d="M22.4662 8.78568L17.3098 11.9956C17.1371 12.161 16.6167 12.3926 15.9172 11.9956L15.8977 11.9845C15.0269 11.4905 13.9723 10.8922 13.7473 9.31611C13.5659 8.04583 16.6357 4.60171 17.8988 3.47698M17.8988 3.47698L18.0843 3.26519M17.8988 3.47698L22.2653 8.88322M22.5918 8.69278L18.0843 3.26519M22.5918 8.69278C22.6708 8.62433 22.738 8.54481 22.7937 8.45558M22.5918 8.69278C22.4953 8.7764 22.3857 8.83956 22.2653 8.88322M18.0843 3.26519C18.1554 3.20357 18.2337 3.15305 18.3181 3.11326M18.0843 3.26519C17.9087 3.41738 17.7914 3.62437 17.7292 3.87085M8.04719 6.53731L4.70505 3.15666C4.66751 3.11869 4.6173 3.09638 4.56448 3.09723C3.65255 3.11197 1.89255 3.72428 1.45796 6.10503C1.44635 6.16864 1.46518 6.23504 1.50777 6.28295L4.6466 9.81284M8.3396 7.25417C8.30287 7.80512 7.90572 8.53693 7.25157 9.16452C6.30529 10.0724 5.17955 10.4184 4.73716 9.93729C4.29477 9.45622 4.70325 8.33026 5.64954 7.42239C6.53307 6.57473 7.57305 6.2169 8.06718 6.56475M18.3181 3.11326L22.7937 8.45558M18.3181 3.11326C18.4139 3.06813 18.5176 3.0368 18.6279 3.01871M22.7937 8.45558C22.8519 8.36221 22.8976 8.25822 22.931 8.14521M22.931 8.14521L18.6279 3.01871M22.931 8.14521C22.9718 8.00705 22.9943 7.85542 22.9991 7.69322M18.6279 3.01871C18.7721 2.99504 18.9276 2.99405 19.0913 3.01447M19.0913 3.01447L22.9991 7.69322M19.0913 3.01447C19.2667 3.03636 19.4514 3.08285 19.6417 3.15239M22.9991 7.69322C23.0053 7.48457 22.9821 7.25844 22.931 7.02104M22.931 7.02104L19.6417 3.15239M22.931 7.02104C22.8571 6.67786 22.7247 6.31113 22.5378 5.93963M19.6417 3.15239C19.9042 3.24832 20.1772 3.38813 20.4507 3.56776M20.4507 3.56776C20.8984 3.86178 21.3475 4.26247 21.7541 4.75207C22.0746 5.13801 22.3375 5.54156 22.5378 5.93963M20.4507 3.56776L22.5378 5.93963M22.2653 8.88322C22.1527 8.92407 22.0307 8.94785 21.9013 8.95536M21.9013 8.95536L17.7292 3.87085M21.9013 8.95536C21.7252 8.96558 21.5352 8.94567 21.3364 8.89762M17.7292 3.87085C17.6862 4.04131 17.6696 4.23065 17.6782 4.43381M17.6782 4.43381L21.3364 8.89762M17.6782 4.43381C17.6849 4.59053 17.7066 4.75547 17.7428 4.92632M21.3364 8.89762C21.1811 8.86011 21.0204 8.80543 20.8565 8.73454M20.4507 8.52925C19.9298 8.22829 19.3969 7.77773 18.922 7.2059C18.5316 6.7358 18.2267 6.23958 18.0163 5.75895M20.4507 8.52925L18.0163 5.75895M20.4507 8.52925C20.5872 8.60812 20.7229 8.67672 20.8565 8.73454M18.0163 5.75895C17.8911 5.47295 17.7993 5.19248 17.7428 4.92632M17.7428 4.92632L20.8565 8.73454M3.8688 6.28295C3.90394 6.18863 4.0001 5.5 4.73716 5.5M15.5001 9C15.6569 9.30325 16.1836 9.94345 16.7261 10.228M16.7261 7.2059C16.8407 7.80857 17.4854 9.04773 18.7479 9.31611M6.83222 8.50918C6.61815 8.72399 6.36699 8.81742 6.27123 8.71786C6.17547 8.6183 6.27138 8.36346 6.48544 8.14864C6.69951 7.93383 6.95067 7.8404 7.04643 7.93996C7.14219 8.03952 7.04628 8.29437 6.83222 8.50918Z" stroke="black" stroke-linecap="round"/>
</svg>
