<svg width="24" height="24" viewBox="0 0 24 24" fill="none" xmlns="http://www.w3.org/2000/svg">
<path d="M2.77101 13.9945C4.91508 9.91156 13.538 4.42061 21.2286 13.713M1 13.619C3.65678 8.55043 14.2 2.25233 23 13.4783M1.60618 11.4134L2.07228 11.8827M2.02517 9.44216L3.19042 10.7093M3.88929 9.06679L4.3554 9.72383M5.00854 7.33033L5.80092 8.7852M7.05985 7.47108L7.2929 8.08118M8.36435 6.06323L8.73723 7.61196M10.275 6.67322V7.28333M11.9995 5.5V7.09566M13.7249 6.67322V7.2364M15.542 5.96936L15.1225 7.56502M18.0128 8.87907L18.8518 7.4242M19.4579 9.81764L20.0172 9.20754M20.6693 10.8501L21.7413 9.53603M21.8351 12.0704L22.3478 11.6011" stroke="black" stroke-opacity="0.3" stroke-linecap="round"/>
<path d="M12.1395 14.5578C11.0583 14.5578 10.1819 15.4403 10.1819 16.5289C10.1819 17.6175 11.0583 18.5 12.1395 18.5C13.2207 18.5 14.0971 17.6175 14.0971 16.5289C14.0971 16.0108 13.8986 15.5394 13.574 15.1875M12.1395 14.5578C12.7061 14.5578 13.2165 14.8001 13.574 15.1875M12.1395 14.5578L15 9.59152M17.0625 7.13253C17.3133 7.38425 15.0275 12.5483 13.7549 15.4151C13.6502 15.217 13.4851 15.0373 13.2842 14.8926M17.0625 7.13253L13.574 15.1875M17.0625 7.13253C17.042 7.11191 17.0211 7.09544 17 7.08275M17 7.08275L13.2842 14.8926M17 7.08275C16.9184 7.03382 16.8331 7.04104 16.7489 7.08275M13.2842 14.8926C13.1753 14.8141 13.0558 14.7458 12.9298 14.6904M12.9298 14.6904L16.7489 7.08275M12.9298 14.6904C12.8368 14.6496 12.7403 14.6157 12.6418 14.5899M16.7489 7.08275C16.6495 7.13197 16.5517 7.22925 16.4636 7.33901M16.4636 7.33901C16.4151 7.3995 16.3695 7.46379 16.3283 7.52591L15 9.59152M16.4636 7.33901L12.6418 14.5899M12.6418 14.5899C12.3604 14.5162 12.0628 14.5081 11.7856 14.5899L15 9.59152" stroke="black" stroke-linecap="round"/>
</svg>
