<svg width="24" height="24" viewBox="0 0 24 24" fill="none" xmlns="http://www.w3.org/2000/svg">
<path d="M5.57748 13.7358C4.73419 13.5579 2.09987 13.5935 1.34091 13.7359M5.89371 13.9138C5.94041 15.4383 6.02189 18.1541 5.99451 19M5.77279 19C5.45176 18.6528 2.46489 18.566 1.82283 18.566C1.18077 18.566 1.01575 18.6771 1.10051 18.2188C1.17014 17.8423 1.11944 15.3975 1 13.8307M22.5775 13.7358C21.7342 13.5579 19.0999 13.5935 18.3409 13.7359M22.8937 13.9138C22.9404 15.4383 23.0219 18.1541 22.9945 19M22.7728 19C22.4518 18.6528 19.4649 18.566 18.8228 18.566C18.1808 18.566 18.0158 18.6771 18.1005 18.2188C18.1701 17.8423 18.1194 15.3975 18 13.8307M14.0775 13.7358C13.2342 13.5579 10.5999 13.5935 9.84091 13.7359M14.3937 13.9138C14.4404 15.4383 14.5219 18.1541 14.4945 19M14.2728 19C13.9518 18.6528 10.9649 18.566 10.3228 18.566C9.68077 18.566 9.51575 18.6771 9.60051 18.2188C9.67014 17.8423 9.61944 15.3975 9.5 13.8307" stroke="black" stroke-opacity="0.3" stroke-linecap="round"/>
<path d="M5.57748 5.12049C4.73419 4.94252 2.09987 4.97813 1.34091 5.1205M5.89371 5.29847C5.94041 6.82291 6.02189 9.5387 5.99451 10.3846M5.77279 10.3846C5.45176 10.0374 2.46489 9.9506 1.82283 9.9506C1.18077 9.9506 1.01575 10.0618 1.10051 9.60342C1.17014 9.22695 1.11944 6.78218 1 5.21536M22.5775 5.12049C21.7342 4.94252 19.0999 4.97813 18.3409 5.1205M22.8937 5.29847C22.9404 6.82291 23.0219 9.5387 22.9945 10.3846M22.7728 10.3846C22.4518 10.0374 19.4649 9.9506 18.8228 9.9506C18.1808 9.9506 18.0158 10.0618 18.1005 9.60342C18.1701 9.22695 18.1194 6.78218 18 5.21536M14.0775 5.12049C13.2342 4.94252 10.5999 4.97813 9.84091 5.1205M14.3937 5.29847C14.4404 6.82291 14.5219 9.5387 14.4945 10.3846M14.2728 10.3846C13.9518 10.0374 10.9649 9.9506 10.3228 9.9506C9.68077 9.9506 9.51575 10.0618 9.60051 9.60342C9.67014 9.22695 9.61944 6.78218 9.5 5.21536" stroke="black" stroke-linecap="round"/>
</svg>
