<svg width="24" height="24" viewBox="0 0 24 24" fill="none" xmlns="http://www.w3.org/2000/svg">
<path d="M21.1406 1.49227C17.4302 0.765159 5.83938 0.910658 2.5 1.49235M22.532 2.21947C22.7375 8.44787 23.096 19.5438 22.9755 22.9999M22 23C20.5875 21.5815 7.44545 21.2267 4.62042 21.2267C1.79539 21.2267 1.06931 21.6809 1.44226 19.8082C1.74859 18.2701 1.52553 8.28149 1 1.87988" stroke="black" stroke-opacity="0.3" stroke-linecap="round"/>
<path d="M9.375 8.10475C11.7196 7.78515 16.9269 7.43358 19 8.58416M5 7.97724C5.02526 8.14664 5.38091 8.86793 5.54316 8.46192C5.73684 7.97724 5.92105 7.47525 6.75 7M9.375 12.0651C11.7196 11.7455 16.9269 11.394 19 12.5446M5 11.9376C5.02526 12.107 5.38091 12.8283 5.54316 12.4223C5.73684 11.9376 5.92105 11.4356 6.75 10.9604M9.375 16.0255C11.7196 15.7059 16.9269 15.3544 19 16.505M5.79056 16.9938C5.83016 16.9884 6.78871 16.8697 6.74879 16.0418C6.70287 15.0899 5.6309 15.2141 5.27153 15.6279C5.15588 15.7612 4.91352 16.0992 5.03163 16.5218C5.12482 16.8551 5.48125 17.0365 5.79056 16.9938Z" stroke="black" stroke-linecap="round"/>
</svg>
