<svg width="24" height="24" viewBox="0 0 24 24" fill="none" xmlns="http://www.w3.org/2000/svg">
<path d="M11.9999 1.00037V9M11.9999 21.4667V15M1.57397 15C5.0493 14.8333 11.9999 14.6 11.9999 15M11.9999 15V9M11.9999 9C15.4439 9.16667 22.3719 9.4 22.532 9" stroke="black" stroke-opacity="0.3" stroke-linecap="round"/>
<path d="M22.532 2.21947C22.7375 8.44787 23.096 19.5438 22.9755 22.9999M21.1406 1.49227C19.3376 1.13894 15.6737 0.991661 12 1.00036C8.11377 1.00957 4.21664 1.19332 2.5 1.49235M22 23C21.1803 22.1769 16.4111 21.7119 12 21.4667C8.80939 21.2892 5.80615 21.2267 4.62042 21.2267C1.79539 21.2267 1.06931 21.6809 1.44226 19.8082C1.55955 19.2193 1.59923 17.3912 1.57403 15C1.53341 11.1464 1.3243 5.83021 1 1.87988" stroke="black" stroke-linecap="round"/>
</svg>
