<svg width="24" height="24" viewBox="0 0 24 24" fill="none" xmlns="http://www.w3.org/2000/svg">
<path d="M21.1406 1.49227C17.4302 0.765159 5.83938 0.910658 2.5 1.49235M22.532 2.21947C22.7375 8.44787 23.096 19.5438 22.9755 22.9999M22 23C20.5875 21.5815 7.44545 21.2267 4.62042 21.2267C1.79539 21.2267 1.06931 21.6809 1.44226 19.8082C1.74859 18.2701 1.52553 8.28149 1 1.87988" stroke="black" stroke-opacity="0.3" stroke-linecap="round"/>
<path d="M9.375 7.27852C11.7196 6.90864 16.9269 6.50178 19 7.83333M9.375 11.8619C11.7196 11.492 16.9269 11.0851 19 12.4167M9.375 16.4452C11.7196 16.0753 16.9269 15.6684 19 17M5.79056 7.82663C5.83016 7.82069 6.78871 7.69138 6.74879 6.7897C6.70287 5.75282 5.6309 5.88809 5.27153 6.33886C5.15588 6.48403 4.91352 6.85221 5.03163 7.31242C5.12482 7.67553 5.48125 7.87308 5.79056 7.82663ZM5.79056 12.41C5.83016 12.404 6.78871 12.2747 6.74879 11.373C6.70287 10.3362 5.6309 10.4714 5.27153 10.9222C5.15588 11.0674 4.91352 11.4355 5.03163 11.8958C5.12482 12.2589 5.48125 12.4564 5.79056 12.41ZM5.79056 16.9933C5.83016 16.9874 6.78871 16.858 6.74879 15.9564C6.70287 14.9195 5.6309 15.0548 5.27153 15.5055C5.15588 15.6507 4.91352 16.0189 5.03163 16.4791C5.12482 16.8422 5.48125 17.0397 5.79056 16.9933Z" stroke="black" stroke-linecap="round"/>
</svg>
