<svg width="24" height="24" viewBox="0 0 24 24" fill="none" xmlns="http://www.w3.org/2000/svg">
<path d="M7.875 4.97598C11.5593 4.40435 19.7423 3.77556 23 5.83341M7.875 12.0593C11.5593 11.4877 19.7423 10.8589 23 12.9167M7.875 19.1426C11.5593 18.571 19.7423 17.9422 23 20.0001" stroke="black" stroke-opacity="0.3" stroke-linecap="round"/>
<path d="M3.74809 4.22045C3.81083 5.61395 2.30453 5.81379 2.24232 5.82298C1.75626 5.89475 1.19614 5.58946 1.0497 5.02829C0.864101 4.31705 1.24496 3.74805 1.42669 3.52369C1.99142 2.82704 3.67595 2.61799 3.74809 4.22045Z" stroke="black" stroke-linecap="round"/>
<path d="M3.74809 11.3038C3.81083 12.6973 2.30453 12.8971 2.24232 12.9063C1.75626 12.9781 1.19614 12.6728 1.0497 12.1116C0.864101 11.4004 1.24496 10.8314 1.42669 10.607C1.99142 9.91038 3.67595 9.70132 3.74809 11.3038Z" stroke="black" stroke-linecap="round"/>
<path d="M3.74809 18.3871C3.81083 19.7806 2.30453 19.9805 2.24232 19.9896C1.75626 20.0614 1.19614 19.7561 1.0497 19.195C0.864101 18.4837 1.24496 17.9147 1.42669 17.6904C1.99142 16.9937 3.67595 16.7847 3.74809 18.3871Z" stroke="black" stroke-linecap="round"/>
</svg>
