<svg width="24" height="24" viewBox="0 0 24 24" fill="none" xmlns="http://www.w3.org/2000/svg">
<path d="M8.69298 11L1 1M14.7666 11C17.466 7.52174 19.0856 6.15528 23 1.18634M18 17C18 20.3137 15.3137 23 12 23C8.68629 23 6 20.3137 6 17C6 13.6863 8.68629 11 12 11C15.3137 11 18 13.6863 18 17Z" stroke="black" stroke-opacity="0.3" stroke-linecap="round"/>
<path d="M14.5 15.6678L13.151 15.94C13.0785 15.9547 13.0092 15.9039 13.0015 15.8303C12.899 14.8606 12.6564 13.2327 12.3969 13.5374C12.1348 13.8452 11.7177 15.5159 11.5215 16.4019C11.5088 16.4594 11.458 16.5 11.3992 16.5H8.5M15.5 15.5L13.4943 17.1563C13.4589 17.1855 13.4424 17.2318 13.4512 17.2768L13.9249 19.6876C13.9503 19.8168 13.7844 19.8924 13.7035 19.7884L12.2746 17.9496C12.2272 17.8887 12.1366 17.8848 12.0842 17.9414L10.0939 20.0915C10.0033 20.1894 9.84286 20.0963 9.88291 19.9691L10.602 17.6848C10.6216 17.6223 10.5898 17.5553 10.5291 17.5311L8.5 16.7222" stroke="black" stroke-linecap="round"/>
</svg>
