<svg width="24" height="24" viewBox="0 0 24 24" fill="none" xmlns="http://www.w3.org/2000/svg">
<path d="M12.5001 3.49988C12.8334 3.7335 13.6001 4.48066 14.0001 5.60031M7.52874 12.7561V5.60031C7.50007 2.49914 10.9841 -0.858354 14.4839 2.21703C16.4714 3.96355 16.4714 13.7259 14.4839 15.75C13.037 17.2235 8.57978 17.6749 7.54906 12.9462C7.53549 12.8839 7.52874 12.8197 7.52874 12.7561Z" stroke="black" stroke-opacity="0.3" stroke-linecap="round"/>
<path d="M4.05108 9.46704C3.71989 12.8503 4.84596 19.6169 11.9998 19.6169M11.9998 19.6169C19.1537 19.6169 20.28 12.8503 19.949 9.46704M11.9998 19.6169V22.7997M11.9998 22.7997C10.3367 22.833 8.62784 22.9238 7.52901 23.0002C5.78682 23.1212 18.5 23.5 16.4714 23.0002C15.6351 22.7968 13.8457 22.7628 11.9998 22.7997Z" stroke="black" stroke-linecap="round"/>
</svg>
