<svg width="24" height="24" viewBox="0 0 24 24" fill="none" xmlns="http://www.w3.org/2000/svg">
<path d="M4.05108 9.46704C3.71989 12.8503 4.84596 19.6169 11.9998 19.6169M11.9998 19.6169V22.7997M11.9998 19.6169C13.4534 19.6169 14.6581 19.3375 15.6523 18.864M11.9998 22.7997C10.3367 22.833 8.62784 22.9238 7.52901 23.0002C5.78682 23.1212 18.5 23.5 16.4714 23.0002C15.6351 22.7968 13.8457 22.7628 11.9998 22.7997ZM7.52867 10.1424V12.7562C7.52867 12.8198 7.53542 12.884 7.54899 12.9463C8.33086 16.5333 11.0844 17.1396 13 16.5801" stroke="black" stroke-opacity="0.3" stroke-linecap="round"/>
<path d="M12.5 3.5C12.8333 3.73362 13.6 4.48078 14 5.60043M1 1L7.52867 7.52867M7.52867 7.52867V5.60043C7.5 2.49926 10.9841 -0.858232 14.4838 2.21715C16.2851 3.80001 16.4539 11.9668 14.9902 14.9902M7.52867 7.52867L14.9902 14.9902M14.9902 14.9902L17.5287 17.5287M17.5287 17.5287L23 23M17.5287 17.5287C19.7679 15.2558 20.163 11.6544 19.949 9.46704" stroke="black" stroke-linecap="round"/>
</svg>
