<svg width="24" height="24" viewBox="0 0 24 24" fill="none" xmlns="http://www.w3.org/2000/svg">
<path d="M17.3626 9.81302C17.0313 10.0044 16.4771 10.0612 15.5857 9.78814C15.5143 9.76622 15.4361 9.76824 15.3694 9.80052C14.5263 10.209 13.3885 11.3758 14.8935 13.1824C16.8543 15.536 17.871 11.8905 17.3626 9.81302ZM17.3626 9.81302C17.5079 9.67251 17.7984 9.30234 17.7984 8.94574M6.87099 8.94574C6.27862 7.53359 5.14283 3.89764 6.87099 3.43163C9.156 2.81567 8.64809 9.88718 9.66479 8.94574C10.6815 8.00431 8.64809 0.136616 11.4077 1.07805C13.3256 1.73235 12.9342 5.44536 12.3383 7.92241C12.2728 8.19448 12.697 8.43898 12.9535 8.29306C14.1881 7.59048 16.0916 7.19911 17.7984 8.94574M6.87099 8.94574C6.19695 7.81199 5.96077 6.64866 4.79929 6.79391C2.03968 7.46636 7.19579 16.679 8.64822 18.6291C9.81016 20.1892 9.42285 21.8345 9.08395 22.462M6.87099 8.94574C7.20118 9.50119 7.41319 10.0782 7.92154 10.8179M17.7984 8.94574C18.6215 8.74401 20.2094 8.95919 19.977 11.4338C19.7446 13.9084 17.992 16.7237 17.1448 17.8221C16.225 18.8756 14.4578 21.3861 14.7483 23" stroke="black" stroke-linecap="round"/>
</svg>
