<svg width="24" height="24" viewBox="0 0 24 24" fill="none" xmlns="http://www.w3.org/2000/svg">
<path d="M12.3786 21C9.6527 17.6168 6.58599 16.2809 5.65116 15.5627C4.39311 14.5961 5.12703 14.0093 5.65116 13.8366C6.26277 13.664 7.45096 13.8884 8.35962 14.786C9.26828 15.6836 9.78665 15.3326 9.93223 15.0449C9.99055 14.9011 10.0721 14.2336 9.93223 12.7146C9.79252 11.1957 7.22388 10.2981 7.22388 9.26238C7.22388 8.08864 8.15582 8.19804 8.62174 8.39935C9.49547 8.77339 11.3302 9.83208 11.6796 11.0748C11.763 11.6239 12.1153 12.8937 12.8572 13.5806M13.8639 12.7145C13.631 12.0529 12.9711 10.7985 11.7829 11.42M14.9998 13.3187C14.9998 12.6859 15.0523 11.4373 13.5146 11.5064" stroke="black" stroke-opacity="0.3" stroke-linecap="round"/>
<path d="M10.2318 6.74549C9.9121 6.20813 8.85064 5.23522 7.16254 5.64248C5.05241 6.15156 4.95649 7.6788 4.95649 8.27273M9.7922 3.72727L10.6714 1.90909M6.71493 3.27273V1M4.07727 4.63636L1.87922 2.81818M2.75844 7.36364H1M15.6364 18.5H21.3636M18.9091 16.4545C18.9091 16.6805 18.7259 16.8636 18.5 16.8636C18.2741 16.8636 18.0909 16.6805 18.0909 16.4545C18.0909 16.2286 18.2741 16.0455 18.5 16.0455C18.7259 16.0455 18.9091 16.2286 18.9091 16.4545ZM18.9091 20.5455C18.9091 20.7714 18.7259 20.9545 18.5 20.9545C18.2741 20.9545 18.0909 20.7714 18.0909 20.5455C18.0909 20.3195 18.2741 20.1364 18.5 20.1364C18.7259 20.1364 18.9091 20.3195 18.9091 20.5455ZM18.0658 22.9671C18.2694 22.9379 23.1991 22.3031 22.9938 17.8767C22.9749 17.47 22.9223 17.1001 22.8407 16.7647C22.7384 16.3448 22.5905 15.9791 22.4059 15.6635C20.8924 13.0757 16.9121 13.8488 15.3964 15.6635C14.8017 16.3762 13.5552 18.1836 14.1627 20.4428C14.5434 21.859 15.7788 22.7622 17.0682 22.9593C17.4017 23.0102 17.7389 23.014 18.0658 22.9671Z" stroke="black" stroke-linecap="round"/>
</svg>
