<svg width="24" height="24" viewBox="0 0 24 24" fill="none" xmlns="http://www.w3.org/2000/svg">
<path d="M18.1109 3C14.4362 7.30435 8.59419 13.4935 10.2634 14.25C10.7512 14.4348 12.0944 14.2826 13.5643 12.1957M14.4674 10.174C13.7823 11.1305 12.8418 13.2848 14.5608 14.25C14.8203 14.3696 15.4266 14.537 15.7753 14.25M15.9311 11.0544C15.8376 11.0544 14.5297 13.7283 16.4605 14.5109C16.6888 14.5979 17.2016 14.6805 17.4258 14.3153M17.4258 11.4457C16.9795 12.2283 16.4292 14.3083 18.2978 14.7717C20.6645 15.3587 21.5364 13.0435 21.0693 12.3261M18.7338 13.0435C19.9898 13.087 22.6015 11.7588 23.0001 6.09789" stroke="black" stroke-opacity="0.3" stroke-linecap="round"/>
<path d="M3.46161 15.3913H2.71656C2.64112 15.3913 2.5745 15.4428 2.55228 15.5183L1.00774 20.767C0.973673 20.8827 1.05633 21 1.17202 21H16.3757C16.4898 21 16.5722 20.8857 16.541 20.7708L15.1707 15.7173M13.3247 17.7474C13.2397 18.1294 12.084 19.2551 9.47178 19.4021C7.03845 19.5391 5.19721 18.3651 4.74958 17.5089C4.73752 17.4859 4.7317 17.4606 4.73089 17.4344M13.3247 17.7474C13.3266 17.7389 13.3272 17.7307 13.3274 17.722L13.3353 17.4344M13.3247 17.7474C9.58442 20.1279 6.03705 18.5306 4.73089 17.4344M4.73089 17.4344L4.72049 17.0966M13.3868 15.5449C13.3926 15.4941 13.3955 15.4429 13.3955 15.3913C13.3955 14.7499 12.9434 14.167 12.206 13.7348M13.3868 15.5449C13.2437 16.8061 11.3504 17.8044 9.03577 17.8044C6.62794 17.8044 4.67601 16.724 4.67601 15.3913C4.67601 14.0586 6.62794 12.9783 9.03577 12.9783C9.4099 12.9783 9.77301 13.0044 10.1195 13.0534M13.3868 15.5449L13.3608 16.5M13.3868 15.5449L13.3894 15.4525M13.3353 17.4344C12.0372 18.354 8.49688 19.574 4.72049 17.0966M13.3353 17.4344L13.3445 17.0966M4.72049 17.0966L4.70981 16.75M13.3445 17.0966C11.7792 17.9861 7.86072 19.1621 4.70981 16.75M13.3445 17.0966L13.3608 16.5M4.70981 16.75L4.696 16.3018M13.3608 16.5C12.0379 17.7012 8.45281 19.3433 4.696 16.3018M4.66984 15.4525L4.696 16.3018" stroke="black" stroke-linecap="round"/>
</svg>
