<svg width="24" height="24" viewBox="0 0 24 24" fill="none" xmlns="http://www.w3.org/2000/svg">
<path d="M7.99515 4.01522C8.15485 7.45801 4.32063 7.95172 4.16226 7.97442C3.908 8.01086 3.64577 8.00796 3.38636 7.96831C2.38349 7.81503 1.42267 7.11257 1.12652 6.01107C0.654076 4.25388 1.62354 2.84813 2.08611 2.29383C3.26496 0.882379 6.36075 0.281075 7.53791 2.29383C7.6815 2.53934 7.79654 2.82374 7.87607 3.15031C7.9396 3.41115 7.98047 3.6989 7.99515 4.01522Z" stroke="black" stroke-opacity="0.3" stroke-linecap="round"/>
<path d="M22.9951 19.0152C23.1549 22.458 19.3206 22.9517 19.1623 22.9744C18.908 23.0109 18.6458 23.008 18.3864 22.9683C17.3835 22.815 16.4227 22.1126 16.1265 21.0111C15.6541 19.2539 16.6235 17.8481 17.0861 17.2938C18.265 15.8824 21.3608 15.2811 22.5379 17.2938C22.6815 17.5393 22.7965 17.8237 22.8761 18.1503C22.9396 18.4112 22.9805 18.6989 22.9951 19.0152Z" stroke="black" stroke-opacity="0.3" stroke-linecap="round"/>
<path d="M1 23L23 1" stroke="black" stroke-linecap="round"/>
</svg>
