<svg width="24" height="24" viewBox="0 0 24 24" fill="none" xmlns="http://www.w3.org/2000/svg">
<path d="M22 5.84951C21.7252 2.32861 18.9608 1.05322 17.1987 1.00169C17.1277 0.999609 17.0607 1.03027 17.0133 1.08315L4.60884 14.9172C4.58531 14.9435 4.5676 14.9744 4.55686 15.008L2.60268 21.1163M21.8831 5.96782L9.64823 20.4619C9.61826 20.4974 9.579 20.5239 9.53484 20.5383L4.30313 22.2476M9.48535 20.5162C9.17331 19.0573 7.80114 16.1872 4.80698 15.4302M2.81935 22.7324L2.46476 22.8482C2.27091 22.9116 2.08687 22.7286 2.14901 22.5344L2.2222 22.3056M2.81935 22.7324C2.87954 22.7253 2.84438 22.6301 2.2222 22.3056M2.81935 22.7324L3.42743 22.5337M2.2222 22.3056L2.35195 21.9M3.42743 22.5337C3.18625 22.3225 2.63349 21.9 2.35195 21.9M3.42743 22.5337L3.96486 22.3581M2.35195 21.9L2.49537 21.4517M3.96486 22.3581C3.64015 22.0899 2.89165 21.5331 2.49537 21.4517M3.96486 22.3581L4.30313 22.2476M2.49537 21.4517L2.60268 21.1163M4.30313 22.2476C4.12238 21.9759 3.52925 21.3693 2.60268 21.1163" stroke="black" stroke-linecap="round"/>
</svg>
