<svg width="24" height="24" viewBox="0 0 24 24" fill="none" xmlns="http://www.w3.org/2000/svg">
<path d="M11.6862 21.5821C12.1297 22.0094 12.8597 22.1323 13.4613 21.8422C14.0512 21.5578 14.3318 20.9659 14.1876 20.4131M11.6862 21.5821C11.6067 21.5055 11.5364 21.4191 11.4778 21.3236C11.0917 20.6951 11.3538 19.9084 12.0631 19.5663C12.7725 19.2243 13.6606 19.4565 14.0467 20.0849C14.1117 20.1908 14.1583 20.3012 14.1876 20.4131M11.6862 21.5821C12.3325 21.7884 13.7376 21.8435 14.1876 20.4131" stroke="black" stroke-opacity="0.3" stroke-linecap="round"/>
<path d="M8.01197 7.71845C7.84948 6.56681 9.32355 3.34201 13.5365 4.1196C17.2736 4.8094 18.0861 8.43822 15.4863 10.5975C14.0239 11.9468 12.0416 14.2252 12.5616 16.6436" stroke="black" stroke-linecap="round"/>
</svg>
