<svg width="24" height="24" viewBox="0 0 24 24" fill="none" xmlns="http://www.w3.org/2000/svg">
<path d="M3.54171 17.4116C3.49271 16.7167 2.94445 15.1698 1.64717 15.8438C0.716223 16.3275 0.923109 17.3616 1.43485 17.8619M3.11721 18.3456C2.7579 17.8786 1.26191 18.172 1.59832 19.4964C1.77995 20.2115 3.14988 20.5917 3.78683 20.2303M1.85346 21.6084C2.08211 21.8419 2.69294 22.2055 3.30703 21.7918M6.10618 21.2311C5.93741 20.9031 5.43002 20.4205 4.7506 21.1143C3.90133 21.9816 5.09358 22.7655 5.46922 22.6821M7.33101 20.6806C7.84276 20.803 8.92868 21.3239 8.68659 22.3318C8.47427 23.2158 7.39634 23.0601 6.84104 22.7822M5.9261 17.4784C5.8869 17.5451 4.74473 18.2734 4.17855 18.6292M7.00417 18.6794L5.94257 20.2973" stroke="black" stroke-opacity="0.3" stroke-linecap="round"/>
<path d="M9.12978 8.50258L9.5335 8.79754C9.63585 8.65746 9.65826 8.47434 9.59273 8.31371C9.5272 8.15308 9.38309 8.0379 9.21197 8.00938L9.12978 8.50258ZM4.0668 10.1757L3.70963 9.82578L4.0668 10.1757ZM2.82837 12.0347L2.36994 11.8351C2.29597 12.005 2.32202 12.2018 2.43762 12.3467C2.55323 12.4915 2.73944 12.5605 2.92149 12.5259L2.82837 12.0347ZM7.16286 11.9603L7.09886 12.4562C7.32059 12.4848 7.53436 12.3628 7.62243 12.1573L7.16286 11.9603ZM12.2076 21.6084L11.7199 21.4983C11.6781 21.6834 11.7447 21.8762 11.8919 21.9961C12.039 22.1159 12.2414 22.1421 12.4142 22.0637L12.2076 21.6084ZM14.0288 20.3443L13.6716 19.9943L13.6658 20.0005L14.0288 20.3443ZM15.6679 15.1762L16.1618 15.098C16.1344 14.925 16.0184 14.7789 15.856 14.7129C15.6936 14.647 15.5086 14.6709 15.3683 14.776L15.6679 15.1762ZM12.2805 17.1654L12.0827 16.7061C11.8783 16.7941 11.7567 17.0066 11.7843 17.2274L12.2805 17.1654ZM7.58209 15.7527L7.22492 15.4028L7.58209 15.7527ZM11.2245 12.0347L11.5817 12.3846L11.2245 12.0347ZM12.208 13.0385L12.5651 13.3884L12.208 13.0385ZM8.56554 16.7565L8.20838 16.4066L8.56554 16.7565ZM11.2197 14.0121C11.0181 13.8234 10.7017 13.8339 10.513 14.0356C10.3243 14.2372 10.3348 14.5536 10.5365 14.7423L11.2197 14.0121ZM13.4334 16.8741C13.6728 17.0118 13.9784 16.9294 14.1161 16.69C14.2538 16.4507 14.1714 16.145 13.9321 16.0073L13.4334 16.8741ZM8.33079 10.2714C8.19878 10.0288 7.89514 9.93921 7.6526 10.0712C7.41005 10.2032 7.32044 10.5069 7.45245 10.7494L8.33079 10.2714ZM9.54116 13.7073C9.72566 13.9128 10.0418 13.9298 10.2472 13.7453C10.4527 13.5608 10.4697 13.2446 10.2852 13.0392L9.54116 13.7073ZM10.2337 15.013C10.0306 14.826 9.71426 14.8389 9.52716 15.042C9.34007 15.2451 9.35305 15.5615 9.55615 15.7485L10.2337 15.013ZM12.2443 17.184L11.9762 17.6061L12.2015 17.7492L12.4457 17.6417L12.2443 17.184ZM18.229 13.5928C18.4223 13.3956 18.419 13.079 18.2217 12.8858C18.0245 12.6925 17.7079 12.6958 17.5147 12.893L18.229 13.5928ZM11.0059 6.23448L10.6496 5.88365L10.6487 5.88457L11.0059 6.23448ZM8.54095 14.7127C8.72638 14.9173 9.04258 14.9329 9.24721 14.7474C9.45183 14.562 9.46739 14.2458 9.28196 14.0412L8.54095 14.7127ZM19.0281 11.1457C18.8606 11.3652 18.9027 11.679 19.1222 11.8466C19.3417 12.0141 19.6555 11.972 19.823 11.7524L19.0281 11.1457ZM22.9895 1.01067L23.4891 0.990555L23.4705 0.530409L23.0104 0.511108L22.9895 1.01067ZM17.692 1.343C17.4313 1.43391 17.2936 1.71898 17.3845 1.97973C17.4754 2.24048 17.7605 2.37817 18.0212 2.28727L17.692 1.343ZM16.6555 2.8368C16.9067 2.722 17.0172 2.42534 16.9024 2.17419C16.7876 1.92304 16.491 1.81251 16.2398 1.92731L16.6555 2.8368ZM19.0849 1.31364C18.9442 1.07605 18.6375 0.99754 18.3999 1.13828C18.1623 1.27901 18.0838 1.58571 18.2245 1.82329L19.0849 1.31364ZM20.3303 3.74351L20.6875 3.39357L20.6825 3.38861L20.3303 3.74351ZM22.2014 5.86251C22.4374 6.0059 22.745 5.93083 22.8884 5.69483C23.0318 5.45883 22.9567 5.15128 22.7207 5.00789L22.2014 5.86251ZM12.3912 19.9755L11.8915 19.9573L12.3912 19.9755ZM14.4692 19.8429L14.8624 20.1517L14.4692 19.8429ZM14.8312 19.3284L15.2547 19.5943L14.8312 19.3284ZM12.3903 18.6795L11.8906 18.6963L12.3903 18.6795ZM15.4718 17.9364L15.9492 18.0852L15.4718 17.9364ZM12.3408 17.8531L11.842 17.8879L12.3408 17.8531ZM12.312 17.4784L11.8138 17.5211L12.312 17.4784ZM15.5948 17.4784L16.0825 17.5888L15.5948 17.4784ZM15.6791 17.0269L16.1737 17.0999L15.6791 17.0269ZM12.8043 16.9274L12.5887 16.4763L12.8043 16.9274ZM13.3572 16.644L13.1225 16.2025L13.3572 16.644ZM14.9239 15.7062L14.6438 15.292L14.9239 15.7062ZM15.7286 15.7062L16.2273 15.6709L15.7286 15.7062ZM3.14733 11.397L2.7131 11.1491L3.14733 11.397ZM3.45597 10.9104L3.04689 10.6229H3.04689L3.45597 10.9104ZM3.76332 10.5104L3.38022 10.1891L3.76332 10.5104ZM4.37941 9.87854L4.04816 9.50401L4.37941 9.87854ZM5.16285 9.29372L4.89831 8.86944L5.16285 9.29372ZM5.59873 9.0475L5.37195 8.60189L5.59873 9.0475ZM7.80457 10.6203L8.24615 10.8548L7.80457 10.6203ZM6.77672 8.60313L6.65281 8.11873L6.77672 8.60313ZM7.25377 8.50258L7.17162 8.00937L7.25377 8.50258ZM8.46258 9.46515L8.8867 9.72997L8.46258 9.46515ZM8.66217 9.1524L9.081 9.42549L8.66217 9.1524ZM7.93925 16.4066C7.85651 16.3222 7.85651 16.187 7.93925 16.1026L7.22492 15.4028C6.76129 15.876 6.76129 16.6332 7.22492 17.1064L7.93925 16.4066ZM7.93925 16.1026L11.5817 12.3846L10.8674 11.6847L7.22492 15.4028L7.93925 16.1026ZM11.5817 12.3846C11.6588 12.3058 11.7737 12.3058 11.8508 12.3846L12.5651 11.6847C12.0959 11.2058 11.3366 11.2058 10.8674 11.6847L11.5817 12.3846ZM11.8508 12.3846C11.9335 12.469 11.9335 12.6042 11.8508 12.6886L12.5651 13.3884C13.0288 12.9152 13.0288 12.158 12.5651 11.6847L11.8508 12.3846ZM11.8508 12.6886L8.20838 16.4066L8.92271 17.1064L12.5651 13.3884L11.8508 12.6886ZM8.20838 16.4066C8.13125 16.4853 8.01637 16.4853 7.93925 16.4066L7.22492 17.1064C7.69416 17.5854 8.45347 17.5854 8.92271 17.1064L8.20838 16.4066ZM17.5568 8.09991C17.5568 8.9931 16.8505 9.69916 16.0012 9.69916V10.6992C17.4224 10.6992 18.5568 9.52549 18.5568 8.09991H17.5568ZM16.0012 9.69916C15.1518 9.69916 14.4455 8.9931 14.4455 8.09991H13.4455C13.4455 9.52549 14.5799 10.6992 16.0012 10.6992V9.69916ZM14.4455 8.09991C14.4455 7.20672 15.1518 6.50066 16.0012 6.50066V5.50066C14.5799 5.50066 13.4455 6.67433 13.4455 8.09991H14.4455ZM16.0012 6.50066C16.8505 6.50066 17.5568 7.20672 17.5568 8.09991H18.5568C18.5568 6.67433 17.4224 5.50066 16.0012 5.50066V6.50066ZM10.5365 14.7423C11.4412 15.5889 12.4016 16.2805 13.4334 16.8741L13.9321 16.0073C12.9606 15.4483 12.0633 14.8015 11.2197 14.0121L10.5365 14.7423ZM7.45245 10.7494C8.01685 11.7864 8.71302 12.7852 9.54116 13.7073L10.2852 13.0392C9.51064 12.1767 8.85912 11.2421 8.33079 10.2714L7.45245 10.7494ZM9.55615 15.7485C10.3256 16.4573 11.1325 17.0702 11.9762 17.6061L12.5124 16.762C11.717 16.2568 10.9576 15.6799 10.2337 15.013L9.55615 15.7485ZM6.71795 12.2391C7.24025 13.0959 7.84133 13.9406 8.54095 14.7127L9.28196 14.0412C8.63388 13.326 8.06939 12.5348 7.57181 11.7186L6.71795 12.2391ZM19.823 11.7524C22.3629 8.42466 23.6319 4.53926 23.4891 0.990555L22.4899 1.03078C22.6223 4.32028 21.4435 7.9811 19.0281 11.1457L19.823 11.7524ZM23.0104 0.511108C21.2792 0.438484 19.4715 0.722635 17.692 1.343L18.0212 2.28727C19.6928 1.70451 21.3747 1.44337 22.9685 1.51023L23.0104 0.511108ZM16.2398 1.92731C14.261 2.8318 12.3488 4.15809 10.6496 5.88365L11.3621 6.58531C12.9784 4.94401 14.7907 3.68922 16.6555 2.8368L16.2398 1.92731ZM18.2245 1.82329C18.7168 2.65428 19.2885 3.41407 19.9781 4.09841L20.6825 3.38861C20.0608 2.77164 19.5397 2.0814 19.0849 1.31364L18.2245 1.82329ZM19.9731 4.09341C20.6584 4.79296 21.4016 5.37652 22.2014 5.86251L22.7207 5.00789C21.9907 4.56438 21.3134 4.03253 20.6874 3.3936L19.9731 4.09341ZM11.8257 20.8572C11.7985 21.0898 11.7634 21.3055 11.7199 21.4983L12.6953 21.7185C12.7484 21.4837 12.7887 21.2321 12.8189 20.9736L11.8257 20.8572ZM12.4142 22.0637C12.7398 21.916 13.0637 21.7415 13.3755 21.5355L12.8243 20.7011C12.5613 20.8749 12.2842 21.0246 12.0011 21.1531L12.4142 22.0637ZM12.1961 21.3992L12.9737 21.6021L13.2261 20.6345L12.4486 20.4316L12.1961 21.3992ZM11.8645 20.4494C11.854 20.589 11.8412 20.7254 11.8257 20.8572L12.8189 20.9736C12.8362 20.8264 12.8503 20.676 12.8617 20.5242L11.8645 20.4494ZM13.3755 21.5355C13.5945 21.3908 13.8077 21.2305 14.0113 21.053L13.3542 20.2992C13.1863 20.4455 13.0089 20.5792 12.8243 20.7011L13.3755 21.5355ZM14.0113 21.053C14.1425 20.9386 14.2697 20.8171 14.3919 20.6881L13.6658 20.0005C13.5663 20.1055 13.4623 20.205 13.3542 20.2992L14.0113 21.053ZM12.2921 20.9817L13.6118 21.171L13.7537 20.1811L12.4341 19.9918L12.2921 20.9817ZM11.8915 19.9573C11.8854 20.1237 11.8766 20.2884 11.8645 20.4494L12.8617 20.5242C12.8748 20.349 12.8844 20.1714 12.8908 19.9938L11.8915 19.9573ZM14.386 20.6942C14.435 20.6441 14.4831 20.5935 14.5302 20.5422L13.7942 19.8653C13.7542 19.9088 13.7134 19.9518 13.6717 19.9944L14.386 20.6942ZM12.3273 20.4714L14.0983 20.6997L14.2261 19.7079L12.4551 19.4796L12.3273 20.4714ZM14.5302 20.5422C14.6469 20.4155 14.7576 20.2852 14.8624 20.1517L14.0759 19.5341C13.9871 19.6471 13.8933 19.7576 13.7942 19.8653L14.5302 20.5422ZM11.9012 19.5335C11.8998 19.6748 11.8966 19.8165 11.8915 19.9573L12.8908 19.9938C12.8963 19.8434 12.8997 19.6928 12.9011 19.5434L11.9012 19.5335ZM14.542 19.3482L12.474 19.0438L12.3283 20.0331L14.3963 20.3375L14.542 19.3482ZM11.8996 19.0551C11.9021 19.2125 11.9028 19.3727 11.9012 19.5335L12.9011 19.5434C12.9028 19.3732 12.9021 19.2045 12.8994 19.0391L11.8996 19.0551ZM14.8624 20.1517C15.004 19.9713 15.1348 19.7853 15.2547 19.5943L14.4077 19.0626C14.3064 19.224 14.1958 19.3814 14.0759 19.5341L14.8624 20.1517ZM12.342 19.5438L14.7737 19.8251L14.8887 18.8317L12.457 18.5504L12.342 19.5438ZM15.2547 19.5943C15.3627 19.4221 15.462 19.246 15.5524 19.0665L14.6592 18.6167C14.5829 18.7683 14.4991 18.9171 14.4077 19.0626L15.2547 19.5943ZM11.8906 18.6963C11.8946 18.8136 11.8976 18.9335 11.8996 19.0551L12.8994 19.0391C12.8974 18.9113 12.8942 18.7855 12.8901 18.6626L11.8906 18.6963ZM15.1356 18.3425L12.4201 18.1804L12.3605 19.1786L15.076 19.3408L15.1356 18.3425ZM11.864 18.2262C11.8758 18.4188 11.8841 18.504 11.8906 18.6963L12.8901 18.6626C12.883 18.4523 12.8725 18.3353 12.8622 18.1653L11.864 18.2262ZM15.5524 19.0665C15.6412 18.8901 15.7216 18.7103 15.7933 18.528L14.8627 18.1619C14.8021 18.3159 14.7343 18.4677 14.6592 18.6167L15.5524 19.0665ZM12.338 18.6951L15.3029 18.8443L15.3531 17.8456L12.3882 17.6964L12.338 18.6951ZM15.7933 18.528C15.8507 18.382 15.9027 18.2343 15.9492 18.0852L14.9944 17.7877C14.9552 17.9137 14.9113 18.0385 14.8627 18.1619L15.7933 18.528ZM11.842 17.8879C11.8498 18 11.8572 18.1147 11.864 18.2262L12.8622 18.1653C12.8552 18.0514 12.8476 17.9337 12.8396 17.8183L11.842 17.8879ZM15.4851 17.4366L12.3541 17.3533L12.3275 18.3529L15.4585 18.4363L15.4851 17.4366ZM11.7843 17.2274C11.7936 17.3018 11.8036 17.4023 11.8138 17.5211L12.8102 17.4357C12.7995 17.3116 12.7883 17.1964 12.7766 17.1033L11.7843 17.2274ZM11.8138 17.5211C11.8235 17.6333 11.833 17.7585 11.842 17.8879L12.8396 17.8183C12.8303 17.6853 12.8204 17.5547 12.8102 17.4357L11.8138 17.5211ZM15.9492 18.0852C16.0002 17.9213 16.0447 17.7557 16.0825 17.5888L15.1072 17.3679C15.0752 17.5091 15.0376 17.6491 14.9944 17.7877L15.9492 18.0852ZM12.312 17.9784H15.5948V16.9784H12.312V17.9784ZM16.0825 17.5888C16.1191 17.4269 16.1495 17.2638 16.1737 17.0999L15.1844 16.954C15.1639 17.0929 15.1382 17.231 15.1072 17.3679L16.0825 17.5888ZM12.5887 16.4763C12.4207 16.5566 12.252 16.6332 12.0827 16.7061L12.4782 17.6246C12.6598 17.5464 12.8403 17.4644 13.0199 17.3786L12.5887 16.4763ZM15.6964 16.5272L12.8216 16.4277L12.787 17.4271L15.6618 17.5266L15.6964 16.5272ZM12.4457 17.6417C12.8303 17.4724 13.2127 17.2869 13.5918 17.0855L13.1225 16.2025C12.765 16.3924 12.4047 16.5671 12.0429 16.7264L12.4457 17.6417ZM13.5918 17.0855C15.2285 16.2158 16.8038 15.0476 18.229 13.5928L17.5147 12.893C16.1598 14.2761 14.6668 15.3819 13.1225 16.2025L13.5918 17.0855ZM16.1737 17.0999C16.194 16.9622 16.2099 16.8239 16.2214 16.6853L15.2248 16.6027C15.2151 16.7202 15.2016 16.8374 15.1844 16.954L16.1737 17.0999ZM13.3572 17.144H15.7231V16.144H13.3572V17.144ZM16.2214 16.6853C16.2328 16.5481 16.2399 16.4106 16.2426 16.2729L15.2428 16.2528C15.2405 16.3697 15.2345 16.4864 15.2248 16.6027L16.2214 16.6853ZM13.9038 15.7655C13.4701 16.0273 13.0317 16.2645 12.5887 16.4763L13.0199 17.3786C13.4936 17.1521 13.9605 16.8993 14.4206 16.6216L13.9038 15.7655ZM15.7646 15.7633L14.1842 15.694L14.1403 16.693L15.7208 16.7624L15.7646 15.7633ZM15.3683 14.776C15.1283 14.9556 14.8868 15.1277 14.6438 15.292L15.204 16.1204C15.4607 15.9468 15.7152 15.7654 15.9676 15.5765L15.3683 14.776ZM14.6438 15.292C14.3987 15.4577 14.152 15.6156 13.9038 15.7655L14.4206 16.6216C14.684 16.4626 14.9451 16.2954 15.204 16.1204L14.6438 15.292ZM16.2426 16.2729C16.2466 16.0724 16.2415 15.8715 16.2273 15.6709L15.2298 15.7415C15.2419 15.912 15.2462 16.0826 15.2428 16.2528L16.2426 16.2729ZM16.2273 15.6709C16.2138 15.4795 16.1919 15.2884 16.1618 15.098L15.1741 15.2544C15.1997 15.4164 15.2183 15.5789 15.2298 15.7415L16.2273 15.6709ZM14.9239 16.2062H15.7286V15.2062H14.9239V16.2062ZM2.7131 11.1491C2.58507 11.3734 2.47117 11.6026 2.36994 11.8351L3.2868 12.2343C3.37443 12.033 3.47235 11.8362 3.58157 11.6449L2.7131 11.1491ZM2.92149 12.5259C3.24662 12.4643 3.58669 12.4164 3.94007 12.3831L3.8463 11.3875C3.46344 11.4236 3.09246 11.4757 2.73524 11.5434L2.92149 12.5259ZM2.87347 11.8154L3.61932 12.3036L4.16705 11.467L3.4212 10.9787L2.87347 11.8154ZM3.04689 10.6229C2.92621 10.7947 2.81519 10.9703 2.7131 11.1491L3.58157 11.6449C3.66865 11.4923 3.76296 11.3432 3.86504 11.198L3.04689 10.6229ZM3.94007 12.3831C4.14323 12.364 4.35072 12.3497 4.56223 12.3404L4.51836 11.3414C4.29058 11.3514 4.06644 11.3668 3.8463 11.3875L3.94007 12.3831ZM3.13037 11.2899L4.2147 12.2203L4.8659 11.4614L3.78156 10.531L3.13037 11.2899ZM3.70963 9.82578C3.5939 9.94391 3.48419 10.0651 3.38022 10.1891L4.14642 10.8317C4.23403 10.7272 4.32646 10.6251 4.42396 10.5256L3.70963 9.82578ZM3.38022 10.1891C3.26173 10.3304 3.15076 10.4752 3.04689 10.6229L3.86504 11.198C3.9529 11.0729 4.04657 10.9507 4.14642 10.8317L3.38022 10.1891ZM4.56223 12.3404C4.75896 12.3318 4.95912 12.3274 5.16248 12.3276L5.16322 11.3276C4.94526 11.3274 4.73022 11.3321 4.51836 11.3414L4.56223 12.3404ZM3.42064 10.8745L4.82017 12.1917L5.50553 11.4635L4.106 10.1463L3.42064 10.8745ZM5.16248 12.3276C5.32156 12.3277 5.48258 12.3306 5.64541 12.3362L5.67998 11.3368C5.50602 11.3308 5.33372 11.3277 5.16322 11.3276L5.16248 12.3276ZM6.02323 11.4901L4.42732 9.82925L3.70627 10.5221L5.30217 12.1829L6.02323 11.4901ZM4.04816 9.50401C3.93243 9.60636 3.8195 9.71363 3.70963 9.82578L4.42396 10.5256C4.51717 10.4304 4.61281 10.3396 4.71066 10.2531L4.04816 9.50401ZM5.64541 12.3362C5.83417 12.3427 6.02536 12.353 6.21877 12.3671L6.29153 11.3698C6.08557 11.3547 5.88165 11.3438 5.67998 11.3368L5.64541 12.3362ZM4.01557 10.2215L5.89131 12.2114L6.61899 11.5255L4.74325 9.53558L4.01557 10.2215ZM6.21877 12.3671C6.35941 12.3774 6.50124 12.3897 6.64415 12.404L6.74408 11.409C6.59219 11.3938 6.44132 11.3807 6.29153 11.3698L6.21877 12.3671ZM6.64415 12.404C6.79455 12.4191 6.94615 12.4365 7.09886 12.4562L7.22686 11.4644C7.06487 11.4435 6.90391 11.4251 6.74408 11.409L6.64415 12.404ZM4.42548 9.19496C4.29679 9.29243 4.17091 9.39545 4.04816 9.50401L4.71066 10.2531C4.81444 10.1613 4.92071 10.0743 5.02922 9.99215L4.42548 9.19496ZM7.07502 11.5826L5.10826 9.26966L4.34644 9.91745L6.31321 12.2304L7.07502 11.5826ZM4.89831 8.86944C4.73707 8.96997 4.57928 9.07849 4.42548 9.19496L5.02922 9.99215C5.15889 9.89395 5.29176 9.80257 5.42739 9.71801L4.89831 8.86944ZM4.76058 9.59067L6.7426 12.2758L7.54715 11.6819L5.56512 8.99678L4.76058 9.59067ZM6.92626 11.2459C6.84305 11.4237 6.7629 11.602 6.68578 11.7808L7.60398 12.1769C7.67709 12.0074 7.75308 11.8383 7.83197 11.6698L6.92626 11.2459ZM5.37195 8.60189C5.21123 8.68368 5.05319 8.77287 4.89831 8.86944L5.42739 9.71801C5.55767 9.63678 5.69052 9.56182 5.82552 9.49311L5.37195 8.60189ZM7.7813 11.1608L6.00091 8.75043L5.19655 9.34457L6.97694 11.7549L7.7813 11.1608ZM5.80182 8.40326C5.65669 8.46374 5.51329 8.52995 5.37195 8.60189L5.82552 9.49311C5.94425 9.43268 6.06467 9.37708 6.1865 9.32631L5.80182 8.40326ZM7.62243 12.1573C7.75404 11.8502 7.89564 11.5444 8.04722 11.2409L7.1526 10.7941C6.99227 11.1151 6.84251 11.4386 6.7033 11.7634L7.62243 12.1573ZM5.59337 9.16373L7.19912 11.3165L8.0007 10.7186L6.39494 8.56583L5.59337 9.16373ZM8.04722 11.2409C8.11173 11.1118 8.17804 10.983 8.24615 10.8548L7.363 10.3857C7.29095 10.5214 7.22082 10.6575 7.1526 10.7941L8.04722 11.2409ZM6.21846 8.24687C6.07822 8.29386 5.93925 8.34599 5.80182 8.40326L6.1865 9.32631C6.30186 9.27824 6.41849 9.23448 6.53617 9.19505L6.21846 8.24687ZM8.20429 10.3199L6.77703 8.42058L5.9776 9.02133L7.40486 10.9206L8.20429 10.3199ZM6.65281 8.11873C6.5069 8.15605 6.36202 8.19876 6.21846 8.24687L6.53617 9.19505C6.65664 9.15469 6.77821 9.11885 6.90063 9.08753L6.65281 8.11873ZM8.24615 10.8548C8.30898 10.7365 8.37336 10.6186 8.43926 10.5013L7.5673 10.0117C7.49757 10.1359 7.42947 10.2606 7.363 10.3857L8.24615 10.8548ZM8.43926 10.5013C8.76632 9.91873 9.1311 9.34833 9.5335 8.79754L8.72605 8.20761C8.2995 8.79145 7.91328 9.39545 7.5673 10.0117L8.43926 10.5013ZM6.37516 8.90103L7.60172 10.5544L8.40484 9.95856L7.17828 8.30522L6.37516 8.90103ZM7.82368 9.55261C7.49246 10.1091 7.19358 10.6747 6.92626 11.2459L7.83197 11.6698C8.08543 11.1282 8.36885 10.5919 8.68299 10.0641L7.82368 9.55261ZM7.17162 8.00937C6.99759 8.03836 6.8245 8.07481 6.65281 8.11873L6.90063 9.08753C7.04468 9.05068 7.18991 9.0201 7.33591 8.99578L7.17162 8.00937ZM8.65036 9.50442L7.65079 8.19865L6.85674 8.8065L7.85631 10.1123L8.65036 9.50442ZM7.54807 7.95845C7.42223 7.97157 7.29669 7.98854 7.17162 8.00937L7.33591 8.99578C7.44084 8.97831 7.54617 8.96407 7.65175 8.95306L7.54807 7.95845ZM8.03847 9.20033C7.96542 9.31733 7.89383 9.43477 7.82368 9.55261L8.68299 10.0641C8.74951 9.95231 8.81741 9.84093 8.8867 9.72997L8.03847 9.20033ZM7.21981 8.7806L8.08249 9.79L8.84268 9.14031L7.98001 8.13091L7.21981 8.7806ZM10.6487 5.88457C9.72479 6.82764 8.92478 7.83422 8.24334 8.8793L9.081 9.42549C9.72728 8.43434 10.4862 7.47941 11.363 6.58438L10.6487 5.88457ZM8.24334 8.8793C8.17382 8.98592 8.10553 9.09294 8.03847 9.20033L8.8867 9.72997C8.95029 9.62812 9.01506 9.52662 9.081 9.42549L8.24334 8.8793ZM9.21197 8.00938C8.84069 7.9475 8.46508 7.91965 8.08986 7.92582L8.1063 8.92569C8.42109 8.92051 8.73617 8.94388 9.04758 8.99578L9.21197 8.00938ZM8.08986 7.92582C7.909 7.9288 7.72823 7.93967 7.54807 7.95845L7.65175 8.95306C7.8029 8.93731 7.95456 8.92818 8.1063 8.92569L8.08986 7.92582ZM9.05713 8.84579L8.49304 8.11915L7.70312 8.73236L8.26721 9.459L9.05713 8.84579Z" fill="black"/>
</svg>
