<svg width="24" height="24" viewBox="0 0 24 24" fill="none" xmlns="http://www.w3.org/2000/svg">
<path d="M16.5401 9.08433C15.988 7.77094 15.3807 5.26407 17.3683 5.74375C19.8529 6.34334 20.0185 11.8254 23 17.907M6 13.7736C4.49899 14.0002 2.71655 13.547 1.87222 12.8671C-0.311936 11.1081 2.09398 10.7124 3.76566 10.7847M7.88113 16.6395C8.865 16.8361 10.5934 16.8924 9.7957 15.9656C8.66379 14.6506 4.78589 14.4156 5.00927 15.7129C5.16881 16.6395 7.0834 17.9875 9.31707 17.9032M8.83096 19.694C9.91959 19.8498 12.0771 19.9558 11.9979 19.133C11.8989 18.1045 6.65371 17.1695 6.05991 18.759C5.46612 20.3484 9.42476 21.19 11.7999 20.9095M11.151 21.8814C12.1061 21.4986 13.6978 22.3024 12.6632 22.7999C11.0715 23.5654 8.92256 21.9579 9.00215 20.9628M17 21.9814C17.9211 21.1457 19.8105 19.1607 20 17.907" stroke="black" stroke-opacity="0.3" stroke-linecap="round"/>
<path d="M16.1153 12.9903L16 12.814L17.7 11.7954L17.8334 11.9522M16.1153 12.9903L17.8334 11.9522M16.1153 12.9903L16.2079 13.1318M17.8334 11.9522L17.9805 12.1251M17.9805 12.1251L16.2079 13.1318M17.9805 12.1251L18.0933 12.2578M16.2079 13.1318L16.3167 13.2979M16.3167 13.2979L18.0933 12.2578M16.3167 13.2979L16.3952 13.4179M18.0933 12.2578L18.2387 12.4287M18.2387 12.4287L16.3952 13.4179M18.2387 12.4287L18.3342 12.5408M16.3952 13.4179L16.4912 13.5646M16.4912 13.5646L18.3342 12.5408M16.4912 13.5646L16.571 13.6866M18.3342 12.5408L18.4535 12.6811M18.4535 12.6811L16.571 13.6866M18.4535 12.6811L18.5666 12.814M16.571 13.6866L16.6666 13.8327M16.6666 13.8327L18.5666 12.814M16.6666 13.8327L16.7489 13.9583M18.5666 12.814L18.6583 12.9218M18.6583 12.9218L16.7489 13.9583M18.6583 12.9218L18.7591 13.0403M16.7489 13.9583L16.8281 14.0794M16.8281 14.0794L18.7591 13.0403M16.8281 14.0794L16.914 14.2107M18.7591 13.0403L18.8795 13.1818M18.8795 13.1818L19 13.3234L17 14.342L16.914 14.2107M18.8795 13.1818L16.914 14.2107M8.49997 7.72077C8.49997 8.00205 8.27611 8.23008 7.99997 8.23008M8.49997 7.72077C8.49997 7.43949 8.27611 7.21146 7.99997 7.21146M8.49997 7.72077H7.49997M7.99997 8.23008C7.72383 8.23008 7.49997 8.00205 7.49997 7.72077M7.99997 8.23008V7.21146M7.49997 7.72077C7.49997 7.43949 7.72383 7.21146 7.99997 7.21146M11.758 20.9628L19.2125 14.9544C19.6468 14.6042 19.7191 13.9611 19.3735 13.5201L9.86317 1.38322C9.51967 0.944849 8.89289 0.871824 8.46109 1.21986L1.78748 6.59886C1.35309 6.94899 1.28088 7.59209 1.62643 8.03309L6.55248 14.3196M16.186 9.758L15.5008 10.5485C15.2046 10.8903 15.1674 11.391 15.4098 11.7743L18 15.8697M9.65831 9.38614C9.56086 9.47907 9.49997 9.61129 9.49997 9.758C9.49997 9.89258 9.55121 10.015 9.6349 10.106M9.65831 9.38614C9.7477 9.30089 9.86785 9.24869 9.99997 9.24869C10.144 9.24869 10.2738 9.31072 10.365 9.40998M9.65831 9.38614L10.365 10.106M10.365 10.106C10.4487 10.015 10.5 9.89258 10.5 9.758C10.5 9.62342 10.4487 9.50104 10.365 9.40998M10.365 10.106C10.2738 10.2053 10.144 10.2673 9.99997 10.2673C9.85594 10.2673 9.72614 10.2053 9.6349 10.106M10.365 9.40998L9.6349 10.106M4.64852 8.4017L8.38349 13.0631C8.72646 13.4911 9.3419 13.5626 9.77067 13.2242L13.1892 10.5264C13.6336 10.1756 13.7069 9.52073 13.3514 9.07706L9.61644 4.41569C9.27347 3.98765 8.65804 3.91616 8.22926 4.25455L4.81077 6.95241C4.36634 7.30315 4.29302 7.95804 4.64852 8.4017Z" stroke="black" stroke-linecap="round"/>
</svg>
