<svg width="24" height="24" viewBox="0 0 24 24" fill="none" xmlns="http://www.w3.org/2000/svg">
<path d="M10.2632 6.75V4.02845C10.2632 3.87975 10.1354 3.76387 9.98739 3.77822C7.72964 3.99719 3.42222 4.13474 1.40385 3.21806C1.22341 3.13611 1 3.26162 1 3.4598V13.2982C1 13.416 1.08133 13.5177 1.1967 13.5412C2.43305 13.7931 4.84812 14.1591 6.01754 13.875M6.01754 13.875V7.125M6.01754 13.875V17.1307C6.01754 17.2062 6.05079 17.2777 6.11129 17.3227C6.95384 17.95 9.04455 18.8659 11.4211 18M13.3509 8.625V7.375C13.3509 7.23693 13.2402 7.12508 13.1021 7.12397C11.347 7.10986 8.05808 6.94672 7.17544 6.375M11.4211 18V8.92826C11.4211 8.77106 11.5645 8.65303 11.7196 8.67883C12.8787 8.87165 13.9582 8.8639 14.8947 8.75406C16.3453 8.58396 17.4529 8.16898 17.9825 7.875M11.4211 18V19.6535C11.4211 19.7799 11.5151 19.8867 11.6409 19.8993C12.747 20.0102 14.8016 20.0604 15.6667 19.5" stroke="black" stroke-opacity="0.3" stroke-linecap="round"/>
<path d="M14.8948 8.75382V7.37476C14.8948 7.23668 15.0067 7.12476 15.1448 7.12476H23M23 7.12476V18.5679C23 18.6763 22.9302 18.7724 22.8271 18.8058L22.6141 18.8748M23 7.12476L22.6141 7.26291M22.2281 7.40107V18.9998M22.2281 7.40107L22.6141 7.26291M22.2281 7.40107L21.9733 7.4923M22.2281 18.9998L22.6141 18.8748M22.2281 18.9998L21.9733 19.0823M22.6141 18.8748V7.26291M21.7184 7.58353V19.1648M21.7184 7.58353L21.9733 7.4923M21.7184 7.58353L21.4562 7.67739M21.7184 19.1648L21.9733 19.0823M21.7184 19.1648L21.4562 19.2498M21.9733 19.0823V7.4923M21.4562 7.67739V19.2498M21.4562 7.67739L21.1828 7.77526M21.4562 19.2498L21.1828 19.3383M21.1828 19.3383V7.77526M21.1828 19.3383L20.9048 19.4283M21.1828 7.77526L20.9048 7.87476M20.9048 7.87476V19.4283M20.9048 7.87476L20.6102 7.9802M20.9048 19.4283L20.6102 19.5237M20.6102 19.5237V7.9802M20.6102 19.5237L20.2983 19.6248M20.6102 7.9802L20.2983 8.09186M20.2983 8.09186V19.6248M20.2983 8.09186L19.9829 8.20474M20.2983 19.6248L19.9829 19.7269M19.9829 19.7269V8.20474M19.9829 19.7269L19.6156 19.8459M19.9829 8.20474L19.6156 8.33624M19.6156 8.33624V19.8459M19.6156 8.33624L19.2504 8.46695M19.6156 19.8459L19.2504 19.9641M19.2504 19.9641V8.46695M19.2504 19.9641L18.9113 20.074M19.2504 8.46695L18.9113 8.58835M18.9113 8.58835V20.074M18.9113 8.58835L18.6021 8.69902M18.9113 20.074L18.6021 20.1741M18.6021 20.1741V8.69902M18.6021 20.1741L18.2499 20.2881M18.6021 8.69902L18.2499 8.82509M18.2499 8.82509V20.2881M18.2499 8.82509L17.9032 8.94918M18.2499 20.2881L17.9032 20.4004M17.9032 20.4004V8.94918M17.9032 20.4004L17.5965 20.4998M17.9032 8.94918L17.5965 9.05897M17.5965 9.05897V20.4998M17.5965 9.05897L17.3054 9.16317M17.5965 20.4998L17.3054 20.594M17.3054 20.594V9.16317M17.3054 20.594L16.9278 20.7163M17.3054 9.16317L16.9278 9.29833M16.9278 9.29833V20.7163M16.9278 9.29833L16.6274 9.40588M16.9278 20.7163L16.6782 20.7972M16.6782 20.7972L16.6274 9.40588M16.6782 20.7972L16.3654 20.8985M16.6274 9.40588L16.2821 9.52948M16.2821 9.52948L16.3654 20.8985M16.2821 9.52948L15.9744 9.63962M16.3654 20.8985L16.209 20.9491M16.209 20.9491L15.9744 9.63962M16.209 20.9491C16.1307 20.9745 16.0499 20.9178 16.047 20.8355L15.673 9.93219C15.6692 9.82351 15.7362 9.72489 15.8386 9.68824L15.9744 9.63962" stroke="black" stroke-linecap="round"/>
</svg>
