<svg width="24" height="24" viewBox="0 0 24 24" fill="none" xmlns="http://www.w3.org/2000/svg">
<path d="M18.9336 8.77506L13.9772 1.95641C13.9365 1.89836 13.8889 1.8433 13.835 1.7956C12.0538 0.220609 9.71642 0.863014 7.81689 4.81458M14.2792 7.67976C15.2313 7.83457 17.4846 8.3318 19.1921 9.12062C19.2628 9.15327 19.3865 9.06395 19.3705 8.99231C19.1278 7.90279 19.1629 5.52705 19.4298 4.06594" stroke="black" stroke-opacity="0.3" stroke-linecap="round"/>
<path d="M6.09518 9.06635L1.32564 16.0004C1.28444 16.0581 1.24888 16.1206 1.22307 16.1856C0.328488 18.4413 2.08079 20.2652 7.27272 20.1732M6.84235 13.496C6.62135 12.617 6.22712 10.4855 6.33404 8.70871C6.33847 8.63516 6.20199 8.56385 6.13771 8.60567C5.16017 9.24158 2.80729 10.1433 1.26401 10.487M11.6326 19.8015L20.4449 20.1935C20.519 20.1979 20.5947 20.1955 20.6679 20.1838C23.25 19.7728 24.0483 17.369 21.1972 13.0783M15.3651 16.9821C14.6608 17.6004 12.8821 18.9851 11.1816 19.787C11.1112 19.8202 11.1134 19.9663 11.1843 19.9974C12.2625 20.4704 14.2748 21.9232 15.3651 23" stroke="black" stroke-linecap="round"/>
</svg>
