<svg width="24" height="24" viewBox="0 0 24 24" fill="none" xmlns="http://www.w3.org/2000/svg">
<path d="M1 2H2.30034C3.27458 2 4.11483 2.6662 4.3121 3.59503L6.60793 14.405C6.80519 15.3338 7.64545 16 8.61968 16H16.4073M6.35201 12.08H19.6279C20.5644 12.08 21.3824 11.4633 21.6168 10.5805L22.9336 5.62047C23.2697 4.35437 22.2878 3.12 20.9446 3.12H8.19008M18.4616 16H20.5159" stroke="black" stroke-linecap="round"/>
<path d="M9.99723 19.723C10.0885 21.6903 7.8975 21.9724 7.807 21.9854C7.66171 22.0062 7.51187 22.0046 7.36364 21.9819C6.79056 21.8943 6.24153 21.4929 6.0723 20.8635C5.80233 19.8594 6.35631 19.0561 6.62063 18.7393C7.29426 17.9328 9.06329 17.5892 9.73595 18.7393C9.818 18.8796 9.88374 19.0421 9.92918 19.2287C9.96549 19.3778 9.98884 19.5422 9.99723 19.723Z" stroke="black" stroke-opacity="0.3" stroke-linecap="round"/>
<path d="M19.9972 19.723C20.0885 21.6903 17.8975 21.9724 17.807 21.9854C17.6617 22.0062 17.5119 22.0046 17.3636 21.9819C16.7906 21.8943 16.2415 21.4929 16.0723 20.8635C15.8023 19.8594 16.3563 19.0561 16.6206 18.7393C17.2943 17.9328 19.0633 17.5892 19.736 18.7393C19.818 18.8796 19.8837 19.0421 19.9292 19.2287C19.9655 19.3778 19.9888 19.5422 19.9972 19.723Z" stroke="black" stroke-opacity="0.3" stroke-linecap="round"/>
</svg>
