<svg width="24" height="24" viewBox="0 0 24 24" fill="none" xmlns="http://www.w3.org/2000/svg">
<path d="M2.85909 1.49227C6.5695 0.765159 18.1603 0.910658 21.4997 1.49235M1.46768 2.21947C1.26219 8.44787 0.903701 19.5438 1.02417 22.9999M1.99972 23C3.41224 21.5815 16.5543 21.2267 19.3793 21.2267C22.2043 21.2267 22.9304 21.6809 22.5575 19.8082C22.2511 18.2701 22.4742 8.28149 22.9997 1.87988" stroke="black" stroke-opacity="0.3" stroke-linecap="round"/>
<path d="M18.1768 17.7908C18.0544 17.8341 17.8107 17.8888 17.4996 17.9445M18.1768 17.7908V4.41233M18.1768 17.7908C18.3839 17.7176 18.5379 17.7009 18.651 17.6965M14.7677 4.6005C14.556 4.6493 14.3728 4.70533 14.2307 4.76817C14.1505 4.8036 14.1054 4.88194 14.1042 4.96957C14.0472 9.26833 13.4995 18.0002 13.9996 18C13.9983 18.1169 14.1929 18.1794 14.4996 18.2038M14.7677 4.6005L14.4996 18.2038M14.7677 4.6005C14.9303 4.56301 15.1097 4.52979 15.3004 4.50101M14.4996 18.2038C14.6443 18.2154 14.8139 18.2184 14.9996 18.2147M14.9996 18.2147L15.3004 4.50101M14.9996 18.2147C15.3715 18.2072 15.8081 18.1726 16.2389 18.1247M15.3004 4.50101C15.5213 4.46767 15.7573 4.44031 15.9996 4.41921M15.9996 4.41921L15.4996 18.2147M15.9996 4.41921C16.1643 4.40487 16.3318 4.39342 16.4996 4.38495M16.2389 18.1247L16.4996 4.38495M16.2389 18.1247C16.4998 18.0957 16.7586 18.0617 16.9996 18.0259M16.4996 4.38495C16.667 4.37651 16.8346 4.37103 16.9996 4.36861M16.9996 4.36861V18.0259M16.9996 4.36861C17.17 4.36612 17.3377 4.36689 17.4996 4.37102M16.9996 18.0259C17.1782 17.9994 17.347 17.9718 17.4996 17.9445M17.4996 17.9445V4.37102M17.4996 4.37102C17.7414 4.37718 17.9705 4.39084 18.1768 4.41233M18.1768 4.41233C18.3839 4.43389 18.5681 4.46334 18.7193 4.50101M18.651 17.6965C18.9873 17.6834 18.9625 17.7791 18.8991 16.8237C18.8303 15.7872 18.879 9.12341 18.9954 4.75429C18.998 4.65878 18.9471 4.57091 18.8565 4.54057C18.8145 4.5265 18.7687 4.51331 18.7193 4.50101M18.651 17.6965L18.7193 4.50101" stroke="black" stroke-linecap="round"/>
</svg>
