<svg width="24" height="24" viewBox="0 0 24 24" fill="none" xmlns="http://www.w3.org/2000/svg">
<path d="M13.2333 15.6736C13.247 15.1019 12.7905 14.6228 12.2187 14.6273C8.74696 14.6548 7.70652 14.8896 6.66664 16.8952C6.46454 17.2849 6.3491 17.6643 6.30406 18.0309M13.2333 15.6736C11.3583 15.303 7.34731 15.2556 6.30406 18.0309M13.2333 15.6736C13.2286 15.8725 13.2251 16.0771 13.2231 16.2839M6.30406 18.0309C6.24055 18.5479 6.31706 19.0397 6.48805 19.5M13.2231 16.2839C13.2039 18.3284 13.338 20.6027 13.9544 19.9771C14.9509 18.9657 23.9193 12.8977 22.9229 11.3806C21.9264 9.8636 14.4527 0.25579 13.9544 2.27849C13.6416 3.54849 13.4372 5.51154 13.3341 6.8628C13.2936 7.39317 12.855 7.8093 12.3231 7.8093H6.66701C3.13242 7.8093 -0.870546 11.6708 1.95601 18.0309C3.71221 21.9826 7.35164 22.5178 7.79899 21.6327C7.85681 21.5183 7.79188 21.3885 7.70223 21.2977C7.1904 20.779 6.73816 20.1732 6.48805 19.5M13.2231 16.2839C11.3075 15.856 7.27849 15.9 6.48805 19.5" stroke="black" stroke-linecap="round"/>
</svg>
