<svg width="24" height="24" viewBox="0 0 24 24" fill="none" xmlns="http://www.w3.org/2000/svg">
<path d="M11.008 5.9746L10.8384 4.93875C10.8227 4.84328 10.7543 4.76446 10.6611 4.7346L9.64966 4.41056C9.42854 4.33972 9.40418 4.04064 9.61099 3.93586L10.557 3.45657C10.6442 3.4124 10.699 3.32381 10.6989 3.2271L10.6987 2.17781C10.6987 1.94841 10.9794 1.83313 11.1443 1.99483L11.8986 2.73446C11.9681 2.80263 12.0704 2.82669 12.1636 2.79679L13.1749 2.47233C13.396 2.40139 13.5939 2.62922 13.489 2.83394L13.0092 3.77035C12.9649 3.85665 12.9734 3.96012 13.031 4.03834L13.6562 4.8871C13.7929 5.07266 13.6345 5.32875 13.4047 5.29357L12.3539 5.13267C12.2571 5.11784 12.16 5.15773 12.1024 5.23597L11.4775 6.085C11.3409 6.27061 11.0451 6.20106 11.008 5.9746ZM11.008 5.9746L10.0953 4.90142C10.0352 4.83473 9.94449 4.80342 9.85539 4.81862L8.49512 5.05073C8.26604 5.08982 8.10314 4.83647 8.23655 4.64861L9.02062 3.54459C9.07687 3.46539 9.08348 3.3618 9.03775 3.27627L8.40032 2.08387C8.29186 1.88097 8.4857 1.6498 8.708 1.71695L10.0144 2.11159C10.1081 2.1399 10.21 2.1141 10.2783 2.04476L11.2301 1.07862C11.3922 0.914059 11.675 1.02472 11.6788 1.25419L11.7118 2.55133M9.0213 3.24964L8.75735 2.80637C8.63836 2.60655 8.33343 2.65096 8.27803 2.87618L8.0949 3.62058C8.07178 3.71456 7.99732 3.78788 7.90203 3.81049L7.13053 3.99358C6.90449 4.04722 6.85661 4.34352 7.05452 4.46387L7.73005 4.87465C7.81349 4.92539 7.86114 5.01792 7.85349 5.11433L7.79155 5.89492C7.77341 6.12362 8.04419 6.26012 8.22135 6.11158L8.82603 5.60457C8.90072 5.54195 9.00463 5.52582 9.09519 5.56279L9.82143 5.85928C10.0372 5.94738 10.2529 5.73326 10.1622 5.52088L9.87015 4.83666M11.8927 5.52088L12.8019 6.24335C12.964 6.36921 13.2031 6.26887 13.2236 6.06634L13.2878 5.27567M13.2878 6.07111L13.9057 5.70161C13.9802 5.65703 14.0724 5.65206 14.1514 5.68836L15.0243 6.08931C15.1762 6.15907 15.3544 6.07182 15.39 5.9103M14.9856 16.4529H15.6558M12.3945 13.3008V13.8518M12.417 19.1418V19.6929M9.1551 16.4529H9.82525M14.6946 14.2706L14.3149 14.6233M10.5629 18.3926L10.1832 18.7453M14.6499 18.7453L14.3149 18.3485M10.5182 14.6455L10.1832 14.2487M15.0911 2.98738L14.0847 2.64855C13.8647 2.57447 13.6635 2.79946 13.7654 3.00565L14.2314 3.9488C14.2744 4.03572 14.2645 4.13905 14.2057 4.21645L13.5681 5.05622C13.4287 5.2398 13.5834 5.49813 13.8136 5.46623L14.8667 5.32031C14.9637 5.30687 15.0603 5.34813 15.1167 5.42719L15.7291 6.28503C15.863 6.47257 16.1597 6.40723 16.2001 6.18133L16.3849 5.148C16.4019 5.05276 16.4715 4.97493 16.5652 4.9464L17.5812 4.63681C17.8034 4.56913 17.8321 4.27042 17.6268 4.16271L16.688 3.66999C16.6015 3.62458 16.5479 3.53521 16.5494 3.43852L16.565 2.38934C16.5684 2.15997 16.2893 2.0407 16.1221 2.20003L15.3571 2.92884C15.2866 2.99601 15.1839 3.01861 15.0911 2.98738ZM16.1252 16.4968C16.1252 18.5176 14.4651 20.1558 12.4171 20.1558C10.3691 20.1558 8.70895 18.5176 8.70895 16.4968C8.70895 14.476 10.3691 12.8379 12.4171 12.8379C14.4651 12.8379 16.1252 14.476 16.1252 16.4968ZM10.4917 18.0546L14.9188 14.7997L10.3053 17.7919C10.2269 17.8427 10.2083 17.9482 10.2645 18.0222C10.3183 18.0929 10.4199 18.1074 10.4917 18.0546ZM12.7745 16.4968C12.7745 16.6915 12.6144 16.8494 12.4171 16.8494C12.2197 16.8494 12.0596 16.6915 12.0596 16.4968C12.0596 16.302 12.2197 16.1441 12.4171 16.1441C12.6144 16.1441 12.7745 16.302 12.7745 16.4968Z" stroke="black" stroke-opacity="0.3" stroke-linecap="round"/>
<path d="M5.74349 6.28917C5.63444 6.10024 5.81139 5.88769 6.02632 5.93564C10.3201 6.89349 16.0994 6.35876 18.9588 5.89183C19.1678 5.8577 19.3277 6.06593 19.224 6.24816C19.2162 6.26176 19.2084 6.27544 19.2005 6.28917M5.74349 6.28917C5.81584 6.41452 5.89653 6.54535 5.98552 6.68006M5.74349 6.28917H19.2005M9.0207 9.50528H15.9727M9.0207 9.50528C9.23152 9.62098 9.45102 9.72867 9.67914 9.82651M9.0207 9.50528C8.80985 9.38956 8.60769 9.26584 8.41427 9.13595M15.9727 9.50528C15.767 9.621 15.553 9.72868 15.3311 9.82651M15.9727 9.50528C16.1784 9.38959 16.376 9.26587 16.5653 9.13595M15.3311 9.82651H9.67914M15.3311 9.82651C15.028 9.96006 14.7099 10.0752 14.377 10.1674M9.67914 9.82651C9.99047 9.96003 10.3179 10.0752 10.6612 10.1674M10.6612 10.1674C11.2065 10.3137 11.7919 10.402 12.4169 10.4133C13.1182 10.4261 13.772 10.3348 14.377 10.1674M10.6612 10.1674H14.377M16.5653 9.13595H8.41427M16.5653 9.13595C16.7387 9.01689 16.9052 8.89263 17.0648 8.76456M8.41427 9.13595C8.23694 9.01686 8.06695 8.89259 7.90436 8.76456M7.90436 8.76456H17.0648M7.90436 8.76456C7.77909 8.66592 7.6582 8.56505 7.54173 8.46259M17.0648 8.76456C17.1876 8.66594 17.3063 8.56507 17.4208 8.46259M17.4208 8.46259H7.54173M17.4208 8.46259C17.562 8.33617 17.6969 8.2073 17.8253 8.07719M7.54173 8.46259C7.39796 8.33613 7.26091 8.20726 7.1306 8.07719M7.1306 8.07719H17.8253M7.1306 8.07719C7.00662 7.95343 6.88875 7.8286 6.77702 7.70373M17.8253 8.07719C17.9474 7.95348 18.0637 7.82865 18.1741 7.70373M18.1741 7.70373H6.77702M18.1741 7.70373C18.3742 7.47726 18.5551 7.25051 18.7162 7.02966M6.77702 7.70373C6.68773 7.60394 6.60236 7.50413 6.52093 7.40484M6.52093 7.40484H18.3929L18.7162 7.02966M6.52093 7.40484C6.41737 7.27857 6.32019 7.15314 6.22942 7.02966M18.7162 7.02966H6.22942M18.7162 7.02966C18.8028 6.91111 18.8836 6.79426 18.9588 6.68006M6.22942 7.02966C6.14219 6.91101 6.06088 6.79415 5.98552 6.68006M18.9588 6.68006H5.98552M18.9588 6.68006C19.0473 6.54555 19.1279 6.41474 19.2005 6.28917M7.26683 21.9193H9.50683C9.62823 21.9193 9.73551 22.0017 9.74707 22.1209C9.78216 22.4831 9.7047 22.9701 9.2003 22.9994H7.59195C7.35254 23.0129 6.93465 22.849 7.02066 22.125C7.035 22.0044 7.14372 21.9193 7.26683 21.9193ZM15.4894 21.9193H17.7294C17.8508 21.9193 17.9581 22.0017 17.9696 22.1209C18.0047 22.4831 17.9273 22.9701 17.4229 22.9994H15.8145C15.5751 23.0129 15.1572 22.849 15.2432 22.125C15.2576 22.0044 15.3663 21.9193 15.4894 21.9193ZM5.00012 19.5166C5.02246 16.4307 6.81845 10.4309 13.8237 11.1186C15.581 11.295 19.2698 13.2214 19.9667 19.5166C20.0717 20.4644 20.0561 21.8971 17.9116 21.8971H6.96588C6.19827 21.9265 4.98622 21.4343 5.00012 19.5166Z" stroke="black" stroke-linecap="round"/>
</svg>
