<svg width="24" height="24" viewBox="0 0 24 24" fill="none" xmlns="http://www.w3.org/2000/svg">
<path d="M15.2211 10.5774L12.2781 15.6132C12.6635 16.03 12.9606 16.5373 13.1312 17.1144C13.7301 19.1403 12.5434 21.2594 10.4805 21.8476C8.41763 22.4358 6.25981 21.2703 5.66087 19.2444C5.06194 17.2186 6.2487 15.0995 8.31157 14.5113C8.91181 14.3402 9.52009 14.3175 10.0957 14.4213C10.1565 14.4213 11.8094 11.3449 12.7647 9.84027M22.9999 5.35046C21.7717 7.62883 19.8611 11.3814 15.2893 10.5773M10.9997 16.6192C10.4389 16.0873 9.61857 15.8588 8.82269 16.0898C7.62964 16.4362 6.94329 17.6842 7.28968 18.8772C7.63607 20.0703 8.88403 20.7566 10.0771 20.4103C10.9763 20.1492 11.5877 19.3759 11.686 18.5" stroke="black" stroke-opacity="0.3" stroke-linecap="round"/>
<path d="M16.313 8.16499L19.6566 2C14.8643 4.22056 13.1287 6.23109 12.7599 7.69592M23 5.35042L8.64548 11.6351C8.59329 11.658 8.55332 11.7011 8.53334 11.7537C8.33445 12.2773 8.01496 12.7659 7.57587 13.1778C6.02253 14.6349 3.56053 14.5794 2.07685 13.0539C0.593167 11.5285 0.649635 9.11066 2.20298 7.6536C3.75631 6.19655 6.21831 6.252 7.70199 7.77747C8.12465 8.21202 8.42232 8.719 8.59601 9.25554L12.56 7.77746M3.2998 12.0808C3.86061 12.6128 4.68092 12.8413 5.4768 12.6102C6.66985 12.2638 7.35621 11.0159 7.00982 9.8228C6.66343 8.62975 5.41547 7.9434 4.22242 8.28979C3.22174 8.58033 2.57753 9.50513 2.60019 10.4998" stroke="black" stroke-linecap="round"/>
</svg>
