<svg width="24" height="24" viewBox="0 0 24 24" fill="none" xmlns="http://www.w3.org/2000/svg">
<path d="M5.8229 17.7908C5.94526 17.8341 6.18902 17.8888 6.50007 17.9445M5.8229 17.7908V4.41233M5.8229 17.7908C5.61579 17.7176 5.46181 17.7009 5.34869 17.6965M9.23203 4.6005C9.44372 4.6493 9.62686 4.70533 9.76901 4.76817C9.84916 4.8036 9.89429 4.88194 9.89546 4.96957C9.95248 9.26833 10.5001 18.0002 10.0001 18C10.0014 18.1169 9.80676 18.1794 9.50007 18.2038M9.23203 4.6005L9.50007 18.2038M9.23203 4.6005C9.06942 4.56301 8.88997 4.52979 8.69928 4.50101M9.50007 18.2038C9.35541 18.2154 9.18581 18.2184 9.00007 18.2147M9.00007 18.2147L8.69928 4.50101M9.00007 18.2147C8.62818 18.2072 8.19157 18.1726 7.76082 18.1247M8.69928 4.50101C8.47837 4.46767 8.24238 4.44031 8.00007 4.41921M8.00007 4.41921L8.50007 18.2147M8.00007 4.41921C7.83541 4.40487 7.66783 4.39342 7.50007 4.38495M7.76082 18.1247L7.50007 4.38495M7.76082 18.1247C7.49985 18.0957 7.24104 18.0617 7.00007 18.0259M7.50007 4.38495C7.33267 4.37651 7.1651 4.37103 7.00007 4.36861M7.00007 4.36861V18.0259M7.00007 4.36861C6.82969 4.36612 6.66202 4.36689 6.50007 4.37102M7.00007 18.0259C6.82147 17.9994 6.65267 17.9718 6.50007 17.9445M6.50007 17.9445V4.37102M6.50007 4.37102C6.25828 4.37718 6.02923 4.39084 5.8229 4.41233M5.8229 4.41233C5.61582 4.43389 5.43162 4.46334 5.28041 4.50101M5.34869 17.6965C5.01237 17.6834 5.03716 17.7791 5.10058 16.8237C5.16939 15.7872 5.12068 9.12341 5.00424 4.75429C5.0017 4.65878 5.05255 4.57091 5.14315 4.54057C5.18515 4.5265 5.23102 4.51331 5.28041 4.50101M5.34869 17.6965L5.28041 4.50101" stroke="black" stroke-linecap="round"/>
<path d="M21.1406 1.49227C17.4302 0.765159 5.83938 0.910658 2.5 1.49235M22.532 2.21947C22.7375 8.44787 23.096 19.5438 22.9755 22.9999M22 23C20.5875 21.5815 7.44545 21.2267 4.62042 21.2267C1.79539 21.2267 1.06931 21.6809 1.44226 19.8082C1.74859 18.2701 1.52553 8.28149 1 1.87988" stroke="black" stroke-opacity="0.3" stroke-linecap="round"/>
</svg>
