<svg width="24" height="24" viewBox="0 0 24 24" fill="none" xmlns="http://www.w3.org/2000/svg">
<path d="M22.532 2.21949C22.7375 8.44789 23.096 19.5439 22.9755 22.9999M21.1406 1.49229C19.3376 1.13895 15.6737 0.991677 12 1.00038C10.6365 1.00361 11.2716 0.976728 10 1.02037M22 23C21.1803 22.1769 16.4111 21.712 12 21.4667C10.582 21.3878 11.2009 21.2801 10 21.242M1 1.8799C1.3243 5.83022 1.53341 11.1465 1.57403 15C1.59923 17.3913 1.55955 19.2193 1.44226 19.8083C1.06931 21.6809 1.79539 21.2268 4.62042 21.2268C5.27916 21.2268 8.49886 21.1945 10 21.242M10 1.02037C7.64747 1.10112 3.61433 1.29826 2.5 1.49236M10 1.02037C10.1667 7.35879 10.4 20.2769 10 21.242" stroke="black" stroke-opacity="0.3" stroke-linecap="round"/>
<path d="M3.5 6.00012H7.5M3.5 10.0001H7.5M3.5 14.0001H7.5" stroke="black" stroke-linecap="round"/>
</svg>
