<svg width="24" height="24" viewBox="0 0 24 24" fill="none" xmlns="http://www.w3.org/2000/svg">
<path d="M1 17.342C3.34456 13.4054 4.86464 5.88504 5.38239 2.26415C5.40375 2.11482 5.53718 2.00945 5.69111 2.02132C9.86724 2.34339 18.5193 2.76123 21.8249 2M6.54072 5.0091C6.74991 5.07719 7.33564 5.21336 8.00504 5.21336M9.46936 5.41763C9.81801 5.48571 10.5571 5.58104 10.7245 5.41763M12.1888 5.41763H13.4439M15.1175 5.41763C15.4661 5.48571 16.2052 5.58104 16.3726 5.41763M18.0461 5.41763H19.3012M21.7239 3.30526C21.2387 7.29997 20.0757 15.8332 19.229 18.6833C19.1952 18.797 19.095 18.8723 18.974 18.8782C15.0536 19.0692 6.64305 19.2443 2.79587 18.4793" stroke="black" stroke-linecap="round"/>
<path d="M23.0001 5.44519C22.9308 9.69325 22.5904 18.7644 21.7801 21.7844C21.748 21.9039 21.6379 21.9823 21.5114 21.9841M23.0001 5.44519C22.7874 10.5701 22.1919 21.0527 21.5114 21.9841M23.0001 5.44519C22.7165 10.7665 21.9793 21.5246 21.2987 21.9868M23.0001 5.44519C22.6456 10.833 21.7666 21.6847 21.086 21.9893M23.0001 5.44519C22.5747 10.8344 21.5539 21.6886 20.8733 21.9915M23.0001 5.44519C22.5038 10.8357 21.3412 21.692 20.6607 21.9934M23.0001 5.44519C22.4272 10.8363 21.1343 21.6937 20.5457 21.9943M23.0001 5.44519C22.986 5.55369 22.9716 5.66436 22.9569 5.77707M23.0001 5.44519C22.9553 5.752 22.9078 6.07618 22.858 6.41483M23.0001 5.44519C22.8439 6.39224 22.6597 7.50471 22.4614 8.69742M23.0001 5.44519L21.2394 15.2332M23.0001 5.44519C22.9905 5.53274 22.976 5.6441 22.9569 5.77707M21.5114 21.9841L21.2987 21.9868M21.2987 21.9868L21.086 21.9893M21.086 21.9893L20.8733 21.9915M20.8733 21.9915L20.6607 21.9934M20.6607 21.9934L20.5457 21.9943M20.5457 21.9943L20.448 21.995M20.448 21.995C20.7815 21.8535 22.2319 11.3328 22.9569 5.77707M20.448 21.995L20.3165 21.9959M22.9569 5.77707C22.9316 5.95335 22.8983 6.16763 22.858 6.41483M20.3165 21.9959C20.5384 21.8603 22.0223 12.0994 22.858 6.41483M20.3165 21.9959L20.1609 21.9969M22.858 6.41483C22.7613 7.00903 22.6243 7.79343 22.4614 8.69742M20.1609 21.9969C20.2523 21.8788 21.517 14.378 22.4614 8.69742M20.1609 21.9969L20.0226 21.9976M22.4614 8.69742C22.1236 10.5717 21.674 12.96 21.2394 15.2332M20.0226 21.9976C15.3835 22.0205 7.96033 21.8888 5.56074 21.2028M20.0226 21.9976L20.0436 21.8813M5.56074 21.2028C9.54462 21.5903 18.0186 22.2685 20.0436 21.8813M5.56074 21.2028C15.2587 21.981 19.2789 21.8566 20.0767 21.6971M5.56074 21.2028C5.4986 21.1649 5.42647 21.1199 5.34807 21.0695M20.0436 21.8813L20.0767 21.6971M20.0767 21.6971L20.1109 21.5067M5.34807 21.0695C9.81887 21.4081 19.0306 21.9696 20.1109 21.5067M5.34807 21.0695C5.28099 21.0264 5.20932 20.9795 5.13539 20.93M5.34807 21.0695C14.3655 21.741 18.9639 21.5482 20.1359 21.3679M20.1109 21.5067L20.1359 21.3679M5.13539 20.93C16.3646 21.6454 19.8312 21.4276 20.1609 21.2292M5.13539 20.93C15.0035 21.4898 19.2832 21.2563 20.1896 21.0695M5.13539 20.93C5.06586 20.8833 4.99432 20.8344 4.92272 20.7842M20.1609 21.2292L20.1359 21.3679M20.1609 21.2292L20.1896 21.0695M20.1896 21.0695L20.204 20.9896M20.1896 21.0695L6.418 20.8252C6.35212 20.824 6.3424 20.9174 6.40717 20.9292C6.41001 20.9297 6.41289 20.93 6.41578 20.93L18.5339 21.2028M20.2184 20.9096L4.71004 20.6308M20.2184 20.9096L20.2434 20.7702M20.2184 20.9096L20.204 20.9896M4.71004 20.6308C4.66887 20.6002 4.62834 20.5695 4.58886 20.5389M4.71004 20.6308L20.2434 20.7702M4.71004 20.6308C4.77972 20.6826 4.85125 20.734 4.92272 20.7842M4.58886 20.5389L20.2685 20.6308M4.58886 20.5389C4.53934 20.5005 4.49147 20.4623 4.44602 20.4247M21.2394 15.2332L20.2685 20.6308M21.2394 15.2332C20.8914 17.0536 20.553 18.8001 20.2891 20.1497M20.2685 20.6308L20.2434 20.7702M4.44602 20.4247L12.2013 20.4447M4.44602 20.4247C4.40702 20.3924 4.3698 20.3605 4.33486 20.3293M12.2013 20.4447C13.1852 20.4776 14.1678 20.5033 15.1105 20.518M12.2013 20.4447C11.2271 20.4121 10.2517 20.3724 9.31243 20.3293M15.1105 20.518C16.3841 20.5378 17.5848 20.5376 18.6175 20.5081M15.1105 20.518C11.0225 20.3907 5.88361 19.9169 5.01939 19.7346C3.87786 19.4937 3.91217 19.8349 4.07202 20.0356M15.1105 20.518C16.4569 20.5599 17.6893 20.5642 18.6175 20.5081M18.6175 20.5081C19.129 20.4935 19.5993 20.4717 20.0168 20.4416C20.1464 20.4323 20.2522 20.3386 20.2766 20.2139L20.2891 20.1497M18.6175 20.5081C19.5242 20.4534 20.1405 20.341 20.2891 20.1497M9.31243 20.3293H4.33486M9.31243 20.3293C8.07855 20.2726 6.90721 20.21 5.88344 20.1497M4.33486 20.3293C4.27127 20.2725 4.21523 20.2179 4.16974 20.1671M4.16974 20.1671C4.12708 20.1195 4.09368 20.0752 4.07202 20.0356M4.16974 20.1671L5.88344 20.1497M4.07202 20.0356C4.59506 20.071 5.20704 20.1099 5.88344 20.1497M4.92272 20.7842L20.204 20.9896" stroke="black" stroke-opacity="0.3" stroke-linecap="round"/>
</svg>
