<svg width="24" height="24" viewBox="0 0 24 24" fill="none" xmlns="http://www.w3.org/2000/svg">
<path d="M4 2.5H5.12302C5.96441 2.5 6.69008 3.09958 6.86045 3.93553L8.84321 13.6645C9.01358 14.5004 9.73925 15.1 10.5806 15.1H17M8.62219 11.572H20.0877C20.8966 11.572 21.603 11.0169 21.8054 10.2224L22.9426 5.75842C23.2329 4.61893 22.385 3.508 21.2249 3.508H10.2096M19.0805 15.1H20.8547M18.807 21.4854C18.8975 21.4724 21.0885 21.1903 20.9972 19.223C20.9888 19.0422 20.9655 18.8778 20.9292 18.7287C20.8837 18.5421 20.818 18.3796 20.736 18.2393C20.0633 17.0892 18.2943 17.4328 17.6206 18.2393C17.3563 18.5561 16.8023 19.3594 17.0723 20.3635C17.2415 20.9929 17.7906 21.3943 18.3636 21.4819C18.5119 21.5045 18.6617 21.5062 18.807 21.4854ZM9.807 21.4854C9.8975 21.4724 12.0885 21.1903 11.9972 19.223C11.9888 19.0422 11.9655 18.8778 11.9292 18.7287C11.8837 18.5421 11.818 18.3796 11.7359 18.2393C11.0633 17.0892 9.29426 17.4328 8.62063 18.2393C8.35631 18.5561 7.80233 19.3594 8.0723 20.3635C8.24153 20.9929 8.79056 21.3943 9.36364 21.4819C9.51187 21.5045 9.66171 21.5062 9.807 21.4854Z" stroke="black" stroke-opacity="0.3" stroke-linecap="round"/>
<path d="M6.5 8.5H4M2.5 11.5H6.5M7.5 14.5L1 14.5001" stroke="black" stroke-linecap="round"/>
</svg>
