<svg width="24" height="24" viewBox="0 0 24 24" fill="none" xmlns="http://www.w3.org/2000/svg">
<path d="M21.1409 4.35802C17.4304 3.82921 5.83944 3.93502 2.50002 4.35807M22.5323 4.88689C22.7378 9.41663 23.0963 17.4864 22.9758 19.9999M22.0003 20C20.5877 18.9684 7.44553 18.7104 4.62046 18.7104C1.7954 18.7104 1.06931 19.0406 1.44226 17.6787C1.74859 16.5601 1.52554 9.29563 1 4.63991" stroke="black" stroke-opacity="0.3" stroke-linecap="round"/>
<path d="M4.04462 7.52929C4.04006 7.48991 4.03547 7.45077 4.03084 7.41186C4.01439 7.27349 4.11322 7.14815 4.25206 7.13618C7.01032 6.8984 16.5517 6.98447 19.4399 7.29746C19.5602 7.3105 19.648 7.40839 19.6542 7.52929C19.6583 7.60907 19.6625 7.69 19.6668 7.77202M4.04462 7.52929L19.6668 7.77202M4.04462 7.52929C4.06239 7.68292 4.07962 7.84004 4.0963 8M19.6668 7.77202C19.6753 7.93741 19.6842 8.10716 19.6933 8.28054M19.6933 8.28054L4.0963 8M19.6933 8.28054C19.7004 8.41624 19.7077 8.55417 19.715 8.69396M4.0963 8C4.11339 8.16393 4.12989 8.33083 4.14579 8.5M4.14579 8.5L19.715 8.69396M4.14579 8.5C4.16127 8.66474 4.17617 8.83162 4.19048 9M19.715 8.69396C19.7203 8.79504 19.7257 8.8971 19.7311 9M19.7311 9H4.19048M19.7311 9C19.7397 9.16469 19.7485 9.33154 19.7573 9.5M4.19048 9C4.20454 9.16543 4.21802 9.33231 4.23091 9.5M4.23091 9.5H19.7573M4.23091 9.5C4.24368 9.66607 4.25586 9.83294 4.26745 10M19.7573 9.5C19.7659 9.66529 19.7746 9.83212 19.7832 10M19.7832 10H4.26745M19.7832 10C19.7918 10.1658 19.8003 10.3327 19.8088 10.5M4.26745 10C4.27901 10.1667 4.28997 10.3335 4.30032 10.5M4.30032 10.5H19.8088M4.30032 10.5C4.31072 10.6673 4.32051 10.8341 4.32965 11M19.8088 10.5C19.8172 10.6663 19.8256 10.8332 19.8338 11M19.8338 11H4.32965M19.8338 11C19.8421 11.1668 19.8502 11.3336 19.8582 11.5M4.32965 11C4.33891 11.1679 4.34752 11.3348 4.35545 11.5M4.35545 11.5H19.8582M4.35545 11.5C4.36355 11.6686 4.37095 11.8355 4.37764 12M19.8582 11.5C19.8662 11.6673 19.8741 11.8341 19.8817 12M19.8817 12H4.37764M19.8817 12C19.8895 12.1678 19.897 12.3347 19.9043 12.5M4.37764 12C4.38452 12.1695 4.39064 12.3364 4.39598 12.5M4.39598 12.5H19.9043M4.39598 12.5C4.40154 12.6705 4.40625 12.8375 4.41009 13M19.9043 12.5C19.9117 12.6684 19.9188 12.8353 19.9256 13M19.9256 13H4.41009M19.9256 13C19.9325 13.1691 19.9391 13.3359 19.9453 13.5M4.41009 13C4.41414 13.172 4.41721 13.339 4.41928 13.5M4.41928 13.5H19.9453M4.41928 13.5C4.42151 13.674 4.42255 13.8411 4.42238 14M19.9453 13.5C19.9537 13.7231 19.9614 13.941 19.9681 14.1522M19.9681 14.1522L4.42238 14M19.9681 14.1522C19.9739 14.3338 19.979 14.5106 19.9834 14.6814M4.42238 14C4.4222 14.1775 4.42049 14.3447 4.41721 14.5M4.41721 14.5L19.9834 14.6814M4.41721 14.5C4.4129 14.7046 4.40586 14.8885 4.39598 15.0476M19.9834 14.6814C19.9884 14.8761 19.9923 15.0631 19.9951 15.2411M19.9951 15.2411L4.39598 15.0476M19.9951 15.2411C19.9972 15.3731 19.9987 15.5001 19.9994 15.6216M4.39598 15.0476C4.38563 15.2142 4.37217 15.3537 4.35545 15.4615M4.35545 15.4615C4.34531 15.5269 4.33397 15.5806 4.3214 15.6216C4.27275 15.7803 4.24984 15.9036 4.25688 15.999M4.35545 15.4615L19.9994 15.6216M19.9994 15.6216C20.0003 15.7542 20.0003 15.8803 19.9994 15.999M19.9994 15.999H4.25688M19.9994 15.999C19.9986 16.1198 19.9968 16.233 19.9939 16.3378M4.25688 15.999C4.28905 16.4353 4.94649 16.291 6.63041 16.291C7.37111 16.291 9.31628 16.4676 11.5001 16.6445M11.5001 16.6445C15.3675 16.9578 19.9834 17.2722 19.9834 16.6086C19.9878 16.526 19.9913 16.4355 19.9939 16.3378M11.5001 16.6445L19.9939 16.3378" stroke="black" stroke-linecap="round"/>
</svg>
