<svg width="24" height="24" viewBox="0 0 24 24" fill="none" xmlns="http://www.w3.org/2000/svg">
<path d="M22.999 12.0001C22.7596 11.7612 17.5177 11.7482 11.8091 11.812M12 3.00781C11.9314 5.33494 11.8515 8.65469 11.8091 11.812M12 20.9824C11.7647 20.5034 11.7486 16.3235 11.8091 11.812M11.8091 11.812C7.96095 11.8551 3.90068 11.933 1.01758 12.0001" stroke="black" stroke-opacity="0.3" stroke-linecap="round"/>
<path d="M7 3.21179C5.79723 3.29032 4.67501 3.38389 3.70121 3.48041C1.80823 3.48047 1.13034 7.78586 1.01758 12C0.954676 14.351 1.06766 16.6736 1.24367 18.2044C1.43592 19.8765 3.88415 20.6038 7 20.8697C8.5653 21.0033 10.2991 21.0204 12 20.9823C15.5693 20.9023 18.9938 20.5793 20.4125 20.5793C22.5392 20.5793 22.9757 16.2238 22.999 12C23.0134 9.39055 22.87 6.83132 22.87 5.38029C22.87 3.41196 17.512 2.93058 12 3.00771C10.2969 3.03154 8.57901 3.1087 7 3.21179Z" stroke="black" stroke-linecap="round"/>
</svg>
