<svg width="24" height="24" viewBox="0 0 24 24" fill="none" xmlns="http://www.w3.org/2000/svg">
<path d="M6.99998 3.21167C6.95229 4.8355 6.89916 6.93421 6.85695 9.11498M6.99998 20.8696C6.81482 20.6362 6.76537 18.0515 6.78219 14.7794M6.85695 9.11498C6.83843 10.0719 6.82202 11.0446 6.8091 11.9999C6.79618 12.9548 6.78675 13.8924 6.78219 14.7794M6.85695 9.11498C4.76845 9.0786 2.80425 9.03754 1.20653 8.99988M6.85695 9.11498C14.0124 9.23965 22.6269 9.30951 22.9608 8.99988M6.78219 14.7794C11.7084 14.7709 18.6409 14.8979 22.8933 14.9999M6.78219 14.7794C3.66081 14.7849 1.34485 14.8447 1.02637 14.9999" stroke="black" stroke-opacity="0.3" stroke-linecap="round"/>
<path d="M7 3.21179C5.79723 3.29032 4.67501 3.38389 3.70121 3.48041C2.26425 3.48046 1.52747 5.96137 1.20655 9C1.00172 10.9395 0.966308 13.1062 1.02639 15C1.06536 16.2284 1.14451 17.3421 1.24367 18.2044C1.43592 19.8765 3.88415 20.6038 7 20.8697C11.85 21.2836 18.3177 20.5793 20.4125 20.5793C22.0291 20.5793 22.6691 18.0625 22.8933 15C22.964 14.0337 22.9934 13.0131 22.999 12C23.0047 10.9705 22.9858 9.94887 22.9608 9C22.9226 7.54372 22.87 6.25887 22.87 5.38029C22.87 2.80376 13.6892 2.77506 7 3.21179Z" stroke="black" stroke-linecap="round"/>
</svg>
