<svg width="24" height="24" viewBox="0 0 24 24" fill="none" xmlns="http://www.w3.org/2000/svg">
<path d="M22.5323 2.21947C22.5671 3.27616 22.6064 4.47296 22.647 5.74879C22.8456 11.993 23.0758 20.1302 22.9758 22.9999M21.1409 1.49227C19.3378 1.13894 15.6739 0.991661 12.0002 1.00036C10.6367 1.00359 9.27181 1.02831 8.00024 1.07196C5.64771 1.15271 3.61457 1.29824 2.50024 1.49235M22.0002 23C21.1806 22.1769 16.4114 21.7119 12.0002 21.4667C10.5822 21.3878 9.20116 21.3317 8.00024 21.2936C6.4991 21.246 5.2794 21.2267 4.62066 21.2267C1.79563 21.2267 1.06956 21.6809 1.4425 19.8082C1.5598 19.2193 1.59948 17.3912 1.57427 15C1.5459 12.3085 1.43534 8.90356 1.26075 5.74879C1.18536 4.38665 1.09804 3.07116 1.00024 1.87988M11.0002 9.33356H20.0002M11.0002 13.6669H20.0002M11.0002 18.0002H20.0002" stroke="black" stroke-opacity="0.3" stroke-linecap="round"/>
<path d="M8.10728 5.74902C8.23685 12.2963 8.31648 20.5308 8.00024 21.2938M8.10728 5.74902H1.26074M8.10728 5.74902H22.647" stroke="black" stroke-linecap="round"/>
</svg>
