<svg width="24" height="24" viewBox="0 0 24 24" fill="none" xmlns="http://www.w3.org/2000/svg">
<path d="M3.89939 4.51967C4.43315 4.51967 4.86585 4.9279 4.86585 5.43148C4.86585 5.93505 4.43315 6.34328 3.89939 6.34328C3.82569 6.34328 3.75391 6.3355 3.68494 6.32076M3.17902 4.82361C3.02598 4.98492 2.93293 5.19795 2.93293 5.43148C2.93293 5.82467 3.19672 6.15974 3.56646 6.28774M5.18801 8.50589C4.73913 8.9934 4.3111 9.39929 4.07896 9.6128C4.02573 9.66176 3.9581 9.68646 3.89028 9.68657C3.82663 9.68667 3.76282 9.66511 3.7106 9.62162C3.66073 9.5801 3.60231 9.53078 3.53697 9.47447C2.75918 8.80417 1 7.14227 1 5.82294C1 4.12918 2.15976 3 3.89939 3C5.63902 3 6.79878 4.41147 6.79878 5.82294C6.79878 6.31284 6.4495 6.93877 5.99339 7.54728M3.68494 6.32076C3.64442 6.3121 3.60486 6.30103 3.56646 6.28774M3.68494 6.32076C3.79739 6.33515 3.94685 6.33151 4.09994 6.29108M4.80545 5.17313C4.81653 5.3403 4.64916 5.6764 4.1669 6.11041M4.1669 6.11041C3.96325 6.23837 3.73966 6.31663 3.56646 6.28774M4.1669 6.11041C4.3547 5.99239 4.52554 5.83211 4.62424 5.67463M4.09994 6.29108C4.42791 6.20448 4.7725 5.94904 4.80545 5.3403M4.09994 6.29108C4.22101 6.20717 4.47927 6.00896 4.5437 5.88738" stroke="black" stroke-linecap="round"/>
<path d="M11.7093 12.2896H3.16992M8.95873 14.1026H6.15048M4.6599 14.1026H3.97216M5.00375 16.61V17.1687C5.00375 17.6962 5.43645 18.1239 5.97021 18.1239H6.79888M7.68323 7.64502H16.6465C17.1803 7.64502 17.613 8.07269 17.613 8.60024V14.2154M10.8874 18.1243H16.6465C17.1803 18.1243 17.613 17.6966 17.613 17.1691V14.2154M23.0001 14.2154V17.1687C23.0001 17.6963 22.5674 18.1239 22.0336 18.1239H21.9112M23.0001 14.2154H17.613M23.0001 14.2154C23.0001 12.6126 21.4927 10.1812 18.3964 10.1285M9.74849 18.5628C9.57528 18.8259 9.274 19 8.93132 19C8.39422 19 7.95882 18.5723 7.95882 18.0447C7.95882 17.5172 8.39422 17.0895 8.93132 17.0895C9.35934 17.0895 9.72278 17.3611 9.85274 17.7384M20.6693 18.5628C20.4961 18.8259 20.1948 19 19.8522 19C19.3151 19 18.8797 18.5723 18.8797 18.0447C18.8797 17.5172 19.3151 17.0895 19.8522 17.0895C20.2802 17.0895 20.6436 17.3611 20.7736 17.7384M4.00391 20.5C11.4411 20.5 25.2776 20.5753 21.1266 20.8769M4.00391 20.5L21.1266 20.8769M4.00391 20.5C2.80133 20.7912 11.2038 21.0375 17.0001 20.9952M4.00391 20.5L17.0001 20.9952M21.1266 20.8769C20.1834 20.9454 18.7044 20.9828 17.0001 20.9952" stroke="black" stroke-opacity="0.3" stroke-linecap="round"/>
</svg>
