<svg width="24" height="24" viewBox="0 0 24 24" fill="none" xmlns="http://www.w3.org/2000/svg">
<path d="M4.0043 19.5C11.4414 19.5 25.278 19.5754 21.127 19.8769M4.0043 19.5L21.127 19.8769M4.0043 19.5C2.80172 19.7913 11.2042 20.0375 17.0005 19.9953M4.0043 19.5L17.0005 19.9953M21.127 19.8769C20.1838 19.9454 18.7048 19.9828 17.0005 19.9953" stroke="black" stroke-opacity="0.3" stroke-linecap="round"/>
<path d="M3.22911 16.9199H2.21784C1.56645 16.9199 1.0384 16.3926 1.0384 15.7421V15.0534L1.00391 5.00343C1.00201 4.44981 1.45028 4 2.00391 4H15.2468C15.8982 4 16.4263 4.52729 16.4263 5.17774V12.101M8.21854 16.9204H15.2468C15.8982 16.9204 16.4263 16.3931 16.4263 15.7426V12.101M23.0005 12.101V15.7422C23.0005 16.3926 22.4724 16.9199 21.821 16.9199H21.6716M23.0005 12.101H16.4263M23.0005 12.101C23.0005 10.1247 21.1609 7.12699 17.3823 7.06195M6.82871 17.461C6.61732 17.7854 6.24965 18 5.83146 18C5.17601 18 4.64466 17.4727 4.64466 16.8223C4.64466 16.1718 5.17601 15.6445 5.83146 15.6445C6.35381 15.6445 6.79733 15.9794 6.95593 16.4446M20.1561 17.461C19.9447 17.7854 19.577 18 19.1588 18C18.5034 18 17.972 17.4727 17.972 16.8223C17.972 16.1718 18.5034 15.6445 19.1588 15.6445C19.6812 15.6445 20.1247 15.9794 20.2833 16.4446" stroke="black" stroke-linecap="round"/>
</svg>
