<svg width="24" height="24" viewBox="0 0 24 24" fill="none" xmlns="http://www.w3.org/2000/svg">
<path d="M1.46792 2.21947C1.43306 3.27616 1.39379 4.47296 1.35321 5.74879C1.15458 11.993 0.924384 20.1302 1.02442 22.9999M2.85933 1.49227C4.66237 1.13894 8.3263 0.991661 12 1.00036C13.3635 1.00359 14.7284 1.02831 16 1.07196C18.3525 1.15271 20.3856 1.29824 21.5 1.49235M1.99996 23C2.81962 22.1769 7.58886 21.7119 12 21.4667C13.418 21.3878 14.799 21.3317 16 21.2936C17.5011 21.246 18.7208 21.2267 19.3795 21.2267C22.2046 21.2267 22.9307 21.6809 22.5577 19.8082C22.4404 19.2193 22.4007 17.3912 22.4259 15C22.4543 12.3085 22.5649 8.90356 22.7395 5.74879C22.8148 4.38665 22.9022 3.07116 23 1.87988M13 9.33356H3.99997M13 13.6669H3.99997M13 18.0002H3.99997" stroke="black" stroke-opacity="0.3" stroke-linecap="round"/>
<path d="M15.893 5.74902C15.7634 12.2963 15.6838 20.5308 16 21.2938M15.893 5.74902H22.7395M15.893 5.74902H1.35327" stroke="black" stroke-linecap="round"/>
</svg>
