<svg width="24" height="24" viewBox="0 0 24 24" fill="none" xmlns="http://www.w3.org/2000/svg">
<path d="M3.70121 3.48041C0.75216 3.48051 0.75216 13.9297 1.24367 18.2044C1.43592 19.8765 3.88415 20.6038 7 20.8697C11.85 21.2836 18.3177 20.5793 20.4125 20.5793C22.5392 20.5793 22.9757 16.2238 22.999 12C23.0134 9.39055 22.87 6.83132 22.87 5.38029C22.87 2.80376 13.6892 2.77506 7 3.21179C5.79723 3.29032 4.67501 3.38389 3.70121 3.48041Z" stroke="black" stroke-linecap="round"/>
<path d="M6.99991 3.21167C6.93131 5.54801 6.85141 8.86742 6.80903 11.9999M6.99991 20.8696C6.76456 20.5729 6.74846 16.4774 6.80903 11.9999M6.80903 11.9999C12.2054 12.1665 22.9982 12.3999 22.9989 11.9999" stroke="black" stroke-opacity="0.3" stroke-linecap="round"/>
</svg>
