<svg width="24" height="24" viewBox="0 0 24 24" fill="none" xmlns="http://www.w3.org/2000/svg">
<path d="M16.07 19.0994C15.9641 14.8569 15.8158 5.06213 16.07 4.04395M8.07004 18.7607C7.96413 14.5182 7.81585 5.06885 8.07004 4.05067" stroke="black" stroke-opacity="0.3" stroke-linecap="round"/>
<path d="M21.1409 4.35802C20.0208 4.19838 18.1826 4.09658 16.07 4.04388C13.5428 3.98083 10.6228 3.98806 8.07004 4.0506C5.68786 4.10897 3.62539 4.21551 2.50002 4.35807M22.5323 4.88689C22.7378 9.41663 23.0963 17.4864 22.9758 19.9999M22.0003 20C20.9222 19.2126 13.0118 18.8759 8.07004 18.7606C6.53684 18.7248 5.28941 18.7104 4.62046 18.7104C1.7954 18.7104 1.06931 19.0406 1.44226 17.6787C1.74859 16.5601 1.52554 9.29563 1 4.63991" stroke="black" stroke-linecap="round"/>
</svg>
