<svg width="24" height="24" viewBox="0 0 24 24" fill="none" xmlns="http://www.w3.org/2000/svg">
<path d="M21.1406 1.49227C17.4302 0.765159 5.83938 0.910658 2.5 1.49235M22.532 2.21947C22.7375 8.44787 23.096 19.5438 22.9755 22.9999M22 23C20.5875 21.5815 7.44545 21.2267 4.62042 21.2267C1.79539 21.2267 1.06931 21.6809 1.44226 19.8082C1.74859 18.2701 1.52553 8.28149 1 1.87988" stroke="black" stroke-opacity="0.3" stroke-linecap="round"/>
<path d="M11.3034 13.4015C11.5053 13.3741 16.394 12.7794 16.1904 8.63217C16.1717 8.25113 16.1195 7.90451 16.0385 7.59029M11.3034 13.4015C13.9829 13.24 15.3445 12.2827 15.9539 11.1355M11.3034 13.4015C10.9792 13.4454 10.6449 13.4419 10.3141 13.3941M16.0385 7.59029C15.9371 7.1969 15.7905 6.8543 15.6074 6.55856M16.0385 7.59029C16.4036 8.51244 16.5947 9.92903 15.9539 11.1355M15.6074 6.55856C14.1065 4.13397 10.1593 4.85831 8.65628 6.55856C8.0665 7.22629 6.83043 8.91967 7.4328 11.0364C7.8104 12.3633 9.03545 13.2095 10.3141 13.3941M15.6074 6.55856C16.1785 7.29024 17.0071 9.00372 16.2987 10.5576M15.9539 11.1355C16.0956 10.9469 16.2094 10.7536 16.2987 10.5576M10.3141 13.3941C12.005 13.6624 15.569 13.4706 16.2987 10.5576M20.1817 18.9725L20.5452 19.6356C20.8677 20.2238 21.0611 20.8811 20.9825 21.5126C20.9292 21.9407 20.5092 22.1851 20.0778 22.1851C20.5883 20.9743 20.492 19.7937 20.1817 18.9725ZM20.1817 18.9725C19.394 17.5357 17.7838 16.6281 16.0225 16.6281H7.81996C6.05862 16.6281 4.44845 17.5357 3.66075 18.9725L3.48235 19.2979C3.17752 19.8539 2.99995 20.4654 3 21.0688" stroke="black" stroke-linecap="round"/>
</svg>
