<svg width="24" height="24" viewBox="0 0 24 24" fill="none" xmlns="http://www.w3.org/2000/svg">
<path d="M17.9385 8.49995C19.7652 6.83328 23.3189 4.09995 22.9204 6.49995C22.4222 9.49995 22.9204 15 22.9204 15.5C22.9204 16 23.4185 17 21.924 16C20.4294 15 18.9349 14 18.4367 13.5" stroke="black" stroke-opacity="0.3" stroke-linecap="round"/>
<path d="M5.40537 5.03109C1.58137 5.03109 0.884967 6.90598 1.01422 7.92588C1.02185 7.98609 1.02813 8.04471 1.02813 8.1054V16.4728C1.02813 18.8607 2.85175 19.126 3.76356 18.9602C5.5874 18.7944 10.0011 18.5622 13.0652 18.9602C16.8953 19.4577 15.801 10.5032 15.801 7.51843C15.801 4.53362 10.3298 5.03109 5.40537 5.03109Z" stroke="black" stroke-linecap="round"/>
</svg>
