<svg width="392" height="302" viewBox="0 0 392 302" fill="none" xmlns="http://www.w3.org/2000/svg">
<path d="M46.6044 30.5519V30.5519C45.9521 31.1317 44.8928 30.6039 44.8674 29.7316C44.8215 28.154 44.5068 26.8457 43.5473 27.6986C41.7131 29.3291 40.694 35.4428 39.4712 32.9973C38.2484 30.5519 37.8408 29.9407 35.3951 32.1823C32.9495 34.424 33.7647 30.5515 32.5419 31.3669C32.203 31.5929 31.5608 32.021 30.7984 32.5293C29.269 33.5489 27.3302 32.151 27.8876 30.3995C30.9431 20.7987 36.5569 8.32013 43.9549 10.3751C51.6995 13.4322 47.6234 51.5436 55.1641 41.7609C59.0915 36.6659 59.6478 17.223 66.1696 20.1577C77.2231 23.8422 74.6223 54.6506 87.6872 85.7209C88.2554 87.0721 91.7245 87.0396 93.0718 87.617V87.617C95.925 88.8398 94.7022 90.0626 97.3517 87.617C100.001 85.1713 99.7973 91.2855 101.428 88.2284C103.058 85.1713 101.428 80.8914 105.504 83.9485C109.58 87.0056 110.395 88.8398 111.007 85.9866C111.618 83.1333 111.618 83.5409 113.248 84.7637C114.697 85.8501 115.019 87.0974 116.074 85.5042C116.376 85.0479 116.414 84.4743 116.246 83.9537C112.947 73.7366 106.254 51.0862 103.873 35.8507C101.428 20.1985 96.7402 15.742 94.7022 15.4702C89.8788 15.1985 77.8272 15.4295 68.2076 18.5273" stroke="#A0A0A0" stroke-width="2" stroke-linecap="round"/>
<path d="M174.425 128.174C157.31 134.463 137.887 156.012 188.656 187.277" stroke="black" stroke-width="2" stroke-linecap="round"/>
<path d="M216.932 125.519C228.326 123.987 258.352 130.882 243.138 162.102C241.302 165.869 234.63 173.288 222.629 172.828C207.247 172.239 198.955 187.896 193.954 195.429" stroke="black" stroke-width="2" stroke-linecap="round"/>
<path d="M221.672 137.957C211.202 145.866 190.878 171.596 193.345 211.244C195.811 250.892 196.043 256.339 195.85 254.106" stroke="black" stroke-width="2" stroke-linecap="round"/>
<path d="M206.591 179.533V212.141" stroke="black" stroke-width="2" stroke-linecap="round"/>
<path d="M182.542 183.608V214.587" stroke="black" stroke-width="2" stroke-linecap="round"/>
<path d="M189.063 186.462C188.357 175.727 184.514 146.515 174.797 115.538" stroke="black" stroke-width="2" stroke-linecap="round"/>
<path d="M209.86 148.554C209.728 143.076 211.158 130.191 217.924 122.483C226.381 112.848 227.325 105.246 227.325 87.2988" stroke="black" stroke-width="2" stroke-linecap="round"/>
<path d="M206.87 94.393C210.067 93.8203 215.501 90.0023 211.665 79.3115" stroke="black" stroke-width="2" stroke-linecap="round"/>
<path d="M160.531 77.6309C160.653 79.7963 161.883 84.2139 165.83 84.5602" stroke="black" stroke-width="2" stroke-linecap="round"/>
<path d="M165.83 94.3425C158.109 90.0122 145.717 79.3736 157.916 71.4625C159.589 70.299 163.514 69.6011 165.83 76.1159" stroke="black" stroke-width="2" stroke-linecap="round"/>
<path d="M171.85 23.3333C128.764 27.7926 141.929 60.3024 153.897 76C156.342 70.6178 161.155 70.4258 163.256 71.0022C165.242 40.7094 184.2 44.7972 193.431 50.6276C212.682 49.8588 217.495 57.4834 217.495 61.3917C225.839 56.1525 232.906 62.3034 233.479 63.6489C254.869 0.910353 201.134 10.8394 171.85 23.3333Z" fill="black"/>
<path d="M193.343 80.4839C195.257 80.4839 196.808 78.8415 196.808 76.8155C196.808 74.7894 195.257 73.147 193.343 73.147C191.43 73.147 189.878 74.7894 189.878 76.8155C189.878 78.8415 191.43 80.4839 193.343 80.4839Z" fill="black"/>
<path d="M223.351 79.3997C224.916 80.0338 226.802 79.0257 227.563 77.148C228.324 75.2703 227.672 73.234 226.107 72.5999C224.542 71.9657 222.657 72.9738 221.896 74.8515C221.135 76.7293 221.787 78.7655 223.351 79.3997Z" fill="black"/>
<path d="M209.852 73.9619H202.922" stroke="black" stroke-width="2" stroke-linecap="round"/>
<path d="M178.039 73.2729L165.015 73.9623" stroke="black" stroke-width="2" stroke-linecap="round"/>
<path d="M177.518 69.9609L163.102 70.7402" stroke="black" stroke-width="2" stroke-linecap="round"/>
<path d="M157.678 142.033C117.677 164.088 71.395 222.867 137.571 294.071" stroke="black" stroke-width="2" stroke-linecap="round"/>
<path d="M152.786 259.831C145.459 247.884 145.332 245.654 144.634 230.483" stroke="black" stroke-width="2" stroke-linecap="round"/>
<path d="M264.878 186.054C258.783 205.006 260.19 226.699 261.782 248.215" stroke="black" stroke-width="2" stroke-linecap="round"/>
<path d="M212.705 109.424C210.411 106.963 203.857 103.518 195.993 109.424" stroke="black" stroke-width="2" stroke-linecap="round"/>
<path d="M268.547 169.75C267.345 167.014 257.162 145.238 246.536 139.587" stroke="black" stroke-width="2" stroke-linecap="round"/>
<path d="M36.414 158.744L35.395 153.242L61.8896 144.07L62.9086 147.535L77.5825 142.848L78.3977 144.886L36.414 158.744Z" fill="#A0A0A0"/>
<path d="M25.5175 228.949C15.2111 205.887 5.75285 158.385 1.66668 133.575C1.42584 132.112 2.8123 130.93 4.22772 131.369L5.67194 131.817C6.50252 132.075 7.40448 131.767 7.9032 131.054L8.97529 129.523C9.52081 128.743 10.5482 128.47 11.4089 128.875C12.4627 129.371 13.7136 128.841 14.0906 127.739L14.9721 125.162C15.4567 123.746 17.2685 123.344 18.3061 124.423L19.9025 126.084C20.5321 126.738 21.606 126.643 22.1099 125.887C22.487 125.321 23.2156 125.103 23.8431 125.365C24.5868 125.675 25.4444 125.313 25.7353 124.562L25.7988 124.397C26.3664 122.931 28.4724 123.07 28.8239 124.603C35.438 153.438 40.8059 188.659 50.3919 220.461C50.6185 221.212 49.7703 221.833 49.1235 221.389C48.5743 221.011 47.827 221.416 47.827 222.082C47.827 222.73 47.1242 223.145 46.5646 222.818L42.6552 220.538C41.5985 219.921 40.2498 220.536 40.0209 221.738C39.8322 222.728 38.8562 223.362 37.8749 223.131C36.9461 222.912 36.0112 223.469 35.7601 224.389L35.6866 224.659C35.3364 225.943 33.8537 226.533 32.7171 225.841L32.5209 225.722C31.3992 225.039 29.9351 225.604 29.563 226.863L29.0336 228.655C28.5266 230.371 26.2475 230.582 25.5175 228.949Z" stroke="#A0A0A0" stroke-width="2" stroke-linecap="round"/>
<path d="M10.1233 139.383C10.9385 142.305 12.1614 148.229 10.5309 148.555C8.4929 148.962 9.30811 143.46 13.1804 141.421C17.0527 139.383 13.9956 146.313 16.6451 145.701C19.2945 145.09 22.5554 137.142 20.7212 137.142C18.8869 137.142 17.8679 145.498 22.7592 145.294C27.6505 145.09 26.2239 136.123 25.2049 137.753C24.1858 139.383 25.4087 143.256 29.0772 144.275" stroke="#A0A0A0" stroke-width="2" stroke-linecap="round"/>
<path d="M27.6505 212.549C27.5825 214.519 28.2619 217.277 31.5228 212.549C32.3379 211.53 32.2156 210.307 30.9112 211.122C29.2808 212.141 31.5227 215.402 34.1721 213.975C36.8216 212.549 40.2862 208.676 37.8406 209.084C35.3949 209.492 37.0254 213.16 40.0824 211.937" stroke="#A0A0A0" stroke-width="2" stroke-linecap="round"/>
<path d="M23.3706 204.193C26.1559 203.921 32.2565 202.848 34.376 200.728" stroke="#A0A0A0" stroke-width="2" stroke-linecap="round"/>
<path d="M25.2046 197.875C27.3785 197.603 32.0524 196.815 33.3568 195.837" stroke="#A0A0A0" stroke-width="2" stroke-linecap="round"/>
<path d="M36.2104 195.226V192.168" stroke="#A0A0A0" stroke-width="2" stroke-linecap="round"/>
<path d="M38.4521 195.226V191.965" stroke="#A0A0A0" stroke-width="2" stroke-linecap="round"/>
<path d="M19.0908 182.998C23.1669 182.046 31.6044 179.981 32.7457 179.329" stroke="#A0A0A0" stroke-width="2" stroke-linecap="round"/>
<path d="M15.0146 169.954C18.4114 169.274 26.1016 167.467 29.6886 165.674" stroke="#A0A0A0" stroke-width="2" stroke-linecap="round"/>
<path d="M14.1992 167.304C17.8677 167.304 25.5307 165.185 28.4655 163.228" stroke="#A0A0A0" stroke-width="2" stroke-linecap="round"/>
<path d="M40.2861 175.864L79.7142 162.419C82.3531 161.519 83.7462 158.634 82.8104 156.008L78.1937 143.052" stroke="#A0A0A0" stroke-width="2" stroke-linecap="round"/>
<path d="M33.5605 144.682L59.2399 136.326" stroke="#A0A0A0" stroke-width="2" stroke-linecap="round"/>
<path d="M61.2076 142.542L55.0234 122.752C54.2002 120.118 55.6671 117.315 58.3007 116.49L93.0234 105.609C95.6444 104.788 98.4372 106.234 99.2783 108.849L105.595 128.487C106.444 131.124 104.986 133.949 102.344 134.785L67.4888 145.817C64.8493 146.653 62.0334 145.184 61.2076 142.542Z" stroke="#A0A0A0" stroke-width="2" stroke-linecap="round"/>
<path d="M39.4707 165.062C40.3539 163.839 42.487 161.475 43.9544 161.801C45.7886 162.209 46.4001 162.209 48.2343 159.967C50.0685 157.725 50.4761 161.598 53.5332 159.967C56.5903 158.337 59.8511 155.28 61.4816 156.91C62.7859 158.215 64.199 156.367 64.7424 155.28" stroke="#A0A0A0" stroke-width="2" stroke-linecap="round"/>
<path d="M68.7128 132.71L64.824 134.04C63.7842 134.396 62.5895 133.564 62.2553 132.517C61.7734 131.007 63.035 128.452 64.5345 127.939L66.7697 127.175C67.7963 126.824 68.9157 127.355 69.2926 128.372L69.9409 130.123C70.3314 131.177 69.7765 132.346 68.7128 132.71Z" stroke="#A0A0A0" stroke-width="2"/>
<path d="M91.8486 134.084L93.0715 128.174" stroke="#A0A0A0" stroke-width="2" stroke-linecap="round"/>
<path d="M94.7021 130.619C95.925 130.008 98.3706 131.435 96.944 132.046C96.3819 132.287 94.4983 129.193 100.001 129.396" stroke="#A0A0A0" stroke-width="2" stroke-linecap="round"/>
<path d="M85.3271 133.075C86.55 132.463 88.9956 133.891 87.569 134.501C87.0069 134.742 85.1233 131.648 90.6261 131.852" stroke="#A0A0A0" stroke-width="2" stroke-linecap="round"/>
<path d="M42.1206 9.9665C48.2347 7.92846 62.0938 4.25869 68.6152 5.89041C72.0798 6.75731 75.6804 13.9068 75.1369 16.896" stroke="#A0A0A0" stroke-width="2" stroke-linecap="round"/>
<path d="M50.6802 12.4128C55.7753 12.4127 63.3976 8.94814 65.3541 9.76336" stroke="#A0A0A0" stroke-width="2" stroke-linecap="round"/>
<path d="M50.8838 14.8585C53.1936 14.8585 58.3838 14.4102 60.6664 12.6167" stroke="#A0A0A0" stroke-width="2" stroke-linecap="round"/>
<path d="M77.9902 27.0873C83.3571 26.6118 94.4576 25.4976 95.925 24.8455" stroke="#A0A0A0" stroke-width="2" stroke-linecap="round"/>
<path d="M79.4165 30.1441C84.0361 29.3289 94.1719 27.7392 97.7589 27.9023" stroke="#A0A0A0" stroke-width="2" stroke-linecap="round"/>
<path d="M80.0283 39.9267C84.3082 40.5383 94.5392 37.1957 95.5175 37.6848" stroke="#A0A0A0" stroke-width="2" stroke-linecap="round"/>
<path d="M80.2319 42.9847C86.5499 42.9842 94.2944 38.5002 99.7972 39.52" stroke="#A0A0A0" stroke-width="2" stroke-linecap="round"/>
<path d="M292.746 31.2107L293.101 29.9429C293.389 28.915 294.433 28.2943 295.474 28.5326L327.876 35.9544C329.053 36.224 329.724 37.4666 329.305 38.5986L328.677 40.2944C328.324 41.2469 327.314 41.7837 326.327 41.5427L294.197 33.6928C293.099 33.4245 292.441 32.2996 292.746 31.2107Z" fill="#A0A0A0"/>
<path d="M296.672 21.3816L327.739 28.0755C330.776 28.7301 332.488 31.9681 331.317 34.8469L322.777 55.848C321.833 58.1684 319.318 59.4324 316.893 58.8052L285.667 50.7294" stroke="#A0A0A0" stroke-width="2" stroke-linecap="round"/>
<path d="M299.729 10.9874C296.646 14.7195 287.992 44.5317 282.284 57.8749C282.228 58.0059 282.157 58.1299 282.073 58.2445C279.133 62.2243 278.717 58.0284 277.311 55.4166C275.884 52.7669 269.77 58.6774 267.121 59.4927C264.471 60.3079 267.528 54.1937 263.452 55.4166C259.376 56.6394 259.376 55.0089 259.172 53.3785C259.096 52.7649 258.174 52.8489 257.014 53.2231C255.388 53.7477 253.612 52.433 254.018 50.7739C258.111 34.0879 266.254 14.8069 270.905 4.93843C271.461 3.75986 273.075 3.68145 274.355 3.43929C275.7 3.18483 276.814 1.76352 278.33 1.20492C282.202 -0.222064 279.553 6.30003 283.017 5.4847C286.482 4.66937 287.093 5.4847 287.501 6.30003C287.909 7.11536 289.743 6.70753 291.985 4.26187C294.227 1.81622 295.246 2.22383 295.653 5.4847C296.061 8.74557 298.71 5.28089 300.137 6.70753C301.278 7.84883 300.341 10.0363 299.729 10.9874Z" stroke="#A0A0A0" stroke-width="2" stroke-linecap="round"/>
<path d="M264.675 37.0737C271.197 39.1118 283.914 38.4188 285.055 39.7232" stroke="#A0A0A0" stroke-width="2" stroke-linecap="round"/>
<path d="M273.846 41.7615C275.069 41.4897 278.003 41.1093 279.96 41.7615" stroke="#A0A0A0" stroke-width="2" stroke-linecap="round"/>
<path d="M268.343 26.0691L281.794 27.0881" stroke="#A0A0A0" stroke-width="2" stroke-linecap="round"/>
<path d="M270.585 22.6042C275.137 22.9439 284.852 23.8271 287.297 24.6423" stroke="#A0A0A0" stroke-width="2" stroke-linecap="round"/>
<path d="M272.623 46.2457L274.661 44.6152" stroke="#A0A0A0" stroke-width="2" stroke-linecap="round"/>
<path d="M277.514 45.0225L276.699 47.2643" stroke="#A0A0A0" stroke-width="2" stroke-linecap="round"/>
<path d="M279.96 45.8379L279.756 47.2645" stroke="#A0A0A0" stroke-width="2" stroke-linecap="round"/>
<path d="M282.406 45.6338V47.0604" stroke="#A0A0A0" stroke-width="2" stroke-linecap="round"/>
<path d="M274.05 10.7833C272.827 12.0741 270.83 14.5333 272.623 14.0442C274.181 13.6193 276.624 11.8167 277.834 12.2607C279.026 12.6987 277.534 13.5223 278.768 13.2183C279.037 13.1519 279.364 13.0871 279.756 13.0252C283.628 12.4137 280.368 14.4518 284.036 14.0442C287.705 13.6366 290.354 8.54146 288.927 9.96809C287.501 11.3947 285.87 15.2669 289.743 15.0631C293.615 14.8593 294.226 10.1718 293.003 12.6174C291.781 15.0631 293.003 14.8593 293.003 15.6745" stroke="#A0A0A0" stroke-width="2" stroke-linecap="round"/>
<path d="M289.743 39.5197C290.49 39.1121 292.677 38.9898 295.449 41.7615C298.914 45.2262 303.805 40.7424 305.232 42.7805C306.658 44.8185 306.455 45.0223 308.289 44.4109" stroke="#A0A0A0" stroke-width="2" stroke-linecap="round"/>
<path d="M313.763 282.658H273.263C271.527 282.658 270.193 281.12 270.439 279.401C270.64 277.995 271.844 276.951 273.263 276.951H313.763C315.499 276.951 316.833 278.489 316.587 280.208C316.386 281.614 315.183 282.658 313.763 282.658Z" fill="#A0A0A0"/>
<path d="M317.452 272.982L314.32 298.367C314.135 299.871 312.858 301 311.343 301H270.761C268.943 301 267.543 299.396 267.789 297.595L271.25 272.209C271.453 270.722 272.723 269.614 274.223 269.614H314.475C316.277 269.614 317.673 271.193 317.452 272.982Z" stroke="#A0A0A0" stroke-width="2" stroke-linecap="round"/>
<path d="M272.827 290.198C274.186 288.975 277.392 286.897 279.349 288.364C281.795 290.198 283.629 286.937 285.871 288.976C288.112 291.014 294.023 286.53 296.468 288.976C298.425 290.932 300.545 289.791 301.36 288.976" stroke="#A0A0A0" stroke-width="2" stroke-linecap="round"/>
<path d="M279.552 269.003L281.425 255.319C281.836 252.317 279.502 249.642 276.471 249.642H240.283C237.791 249.642 235.68 251.476 235.332 253.943L232.271 275.644C231.842 278.685 234.231 281.391 237.302 281.342L269.77 280.824" stroke="#A0A0A0" stroke-width="2" stroke-linecap="round"/>
<path d="M238.03 266.977L238.18 265.678C238.296 264.669 239.151 263.908 240.167 263.908H244.115C245.371 263.908 246.316 265.052 246.079 266.285L245.829 267.584C245.648 268.526 244.824 269.207 243.865 269.207H240.017C238.822 269.207 237.893 268.165 238.03 266.977Z" stroke="#A0A0A0" stroke-width="2" stroke-linecap="round"/>
<path d="M262.841 276.951L266.713 272.06" stroke="#A0A0A0" stroke-width="2" stroke-linecap="round"/>
<path d="M255.708 274.913C256.319 274.233 257.909 273.078 259.376 273.894C261.21 274.913 260.803 276.951 258.765 276.543C256.727 276.136 258.561 273.486 262.841 274.709" stroke="#A0A0A0" stroke-width="2" stroke-linecap="round"/>
<path d="M267.528 274.709C268.14 275.253 269.607 275.932 270.585 274.302" stroke="#A0A0A0" stroke-width="2" stroke-linecap="round"/>
<path d="M299.166 155.892C298.053 157.412 298.284 161.335 308.085 164.859" stroke="black" stroke-width="2" stroke-linecap="round"/>
<path d="M311.073 153.446C308.166 153.437 305.351 153.246 298.75 151.096C297.195 150.606 296.122 149.391 295.78 148.844C294.547 146.708 297 144.822 299.21 144.887C301.619 144.96 306.338 145.248 311.961 145.884" stroke="black" stroke-width="2" stroke-linecap="round"/>
<path d="M310.938 153.356C308.031 153.348 305.214 153.156 298.611 151C297.104 151.545 296.909 154.137 299.294 155.756C300.8 156.782 303.526 158.04 308.031 159.56" stroke="black" stroke-width="2" stroke-linecap="round"/>
<path d="M261.006 233.541C272.691 242.984 295.114 242.296 304.417 217.644C312.569 196.041 315.422 177.359 315.83 168.527" stroke="black" stroke-width="2" stroke-linecap="round"/>
<path d="M271.197 216.014C271.401 214.791 275.477 197.468 281.998 190.946" stroke="black" stroke-width="2" stroke-linecap="round"/>
<path d="M315.626 166.897C317.324 162.277 319.702 151.53 315.626 145.498" stroke="black" stroke-width="2" stroke-linecap="round"/>
<path d="M303.194 163.229L302.451 185.702C302.42 186.646 301.356 187.181 300.579 186.643V186.643C300.091 186.305 299.43 186.378 299.026 186.812L298.501 187.378C297.717 188.222 296.396 188.269 295.553 187.483L295.472 187.407C294.649 186.639 293.378 186.619 292.531 187.36L292.092 187.744C291.278 188.457 290.129 188.644 289.131 188.228L287.453 187.529C286.472 187.121 285.349 187.261 284.499 187.899L282.601 189.322C281.695 190.002 280.415 189.844 279.701 188.966L279.287 188.456C278.763 187.811 277.81 187.728 277.183 188.272V188.272C276.33 189.01 275.009 188.57 274.835 187.455C269.927 156.049 280.639 78.1671 320.314 84.3564C327.175 85.3753 340.287 94.0572 337.841 120.633C335.527 145.781 340.938 153.568 344.404 154.563C344.774 154.669 345.226 154.725 345.441 154.406C345.708 154.011 346.004 153.14 346.197 151.408C346.595 147.828 349.127 125.622 358.147 135.716C358.6 136.222 358.833 136.9 358.833 137.579V162.518C358.833 164.282 360.657 165.457 362.263 164.726V164.726C362.929 164.423 363.697 164.438 364.352 164.765L365.873 165.526C366.816 165.997 367.937 165.939 368.826 165.374L373.841 162.182C375.234 161.296 377.082 161.702 377.975 163.091L378.53 163.955C379.365 165.253 381.081 165.654 382.404 164.86L384.239 163.759C384.712 163.475 385.327 163.663 385.56 164.163V164.163C385.916 164.926 387.006 164.859 387.24 164.051C389.653 155.7 392.324 140.754 387.569 133.473C385.972 131.027 363.52 128.921 354.757 131.639" stroke="black" stroke-width="2" stroke-linecap="round"/>
<path d="M320.517 84.1523C329.824 84.2882 351.312 83.8155 358.221 88.8398C369.43 96.992 363.112 125.321 366.984 130.008" stroke="black" stroke-width="2" stroke-linecap="round"/>
<path d="M305.843 140.606C307.813 128.446 313.792 105.348 333.764 94.9541" stroke="black" stroke-width="2" stroke-linecap="round"/>
<path d="M338.859 91.4893C343.411 91.4893 353.166 91.6931 355.775 92.5083" stroke="black" stroke-width="2" stroke-linecap="round"/>
<path d="M340.898 94.9541C348.846 94.9541 358.221 96.8699 359.037 96.3807" stroke="black" stroke-width="2" stroke-linecap="round"/>
<path d="M342.528 107.793L359.852 108.405" stroke="black" stroke-width="2" stroke-linecap="round"/>
<path d="M344.159 111.054C347.555 111.462 354.675 112.032 355.979 111.054" stroke="black" stroke-width="2" stroke-linecap="round"/>
<path d="M342.528 123.486L357.406 124.098" stroke="black" stroke-width="2" stroke-linecap="round"/>
<path d="M344.566 126.136C346.672 126.407 351.088 126.788 351.903 126.136" stroke="black" stroke-width="2" stroke-linecap="round"/>
<path d="M367.188 138.16C367.596 141.625 368.167 148.595 367.188 148.758C365.966 148.962 370.857 141.013 372.284 142.644C373.71 144.274 368.004 152.834 374.729 148.758C376.563 147.263 379.743 143.663 377.786 141.217C375.341 138.16 375.748 150.388 377.175 148.758C378.601 147.128 382.678 139.791 383.9 144.07C385.123 148.35 380.232 148.35 381.862 146.72C383.493 145.09 385.531 144.07 386.754 146.72" stroke="black" stroke-width="2" stroke-linecap="round"/>
<path d="M179.987 84.3767C196.665 93.9069 202.297 79.4629 202.916 69.3137C202.985 68.1796 202.029 67.2782 200.894 67.3314L179.945 68.3134C178.878 68.3634 178.039 69.243 178.039 70.3112V73.6625" stroke="black" stroke-width="2" stroke-linecap="round"/>
<path d="M228.299 85.7404C213.414 88.4632 209.975 78.7825 209.628 69.3065C209.586 68.1746 210.538 67.2737 211.669 67.3217L230.528 68.1207C231.654 68.1685 232.518 69.1372 232.438 70.2617L232.195 73.6625" stroke="black" stroke-width="2" stroke-linecap="round"/>
</svg>
