<svg width="180" height="152" viewBox="0 0 180 152" fill="none" xmlns="http://www.w3.org/2000/svg">
<path d="M38.3808 137.241C40.3354 141.066 41.9504 150.499 36.5964 149.224C33.2822 148.205 28.0806 140.913 30.7321 137.241C31.1571 136.476 32.5679 135.049 34.8115 135.457" stroke="#A0A0A0" stroke-width="2" stroke-linecap="round"/>
<path d="M38.3808 120.925L33.1844 117.244C32.6943 116.897 32.0115 117.057 31.7702 117.607C30.6724 120.11 29.4705 124.477 30.8416 127.973C30.9299 128.198 31.1063 128.377 31.3322 128.464C33.4955 129.295 37.6007 129.516 39.1457 124.494" stroke="#A0A0A0" stroke-width="2" stroke-linecap="round"/>
<mask id="path-3-inside-1_2312_6428" fill="white">
<ellipse cx="35.0666" cy="105.373" rx="2.77229" ry="1.8482" transform="rotate(22.5962 35.0666 105.373)"/>
</mask>
<path d="M35.7796 105.669C35.9204 105.331 36.1594 105.336 35.9895 105.37C35.836 105.4 35.518 105.396 35.125 105.232L33.588 108.925C34.6085 109.35 35.7293 109.497 36.7591 109.295C37.7725 109.096 38.9396 108.487 39.4726 107.206L35.7796 105.669ZM35.125 105.232C34.7319 105.069 34.5051 104.846 34.4183 104.716C34.3222 104.572 34.4944 104.738 34.3536 105.076L30.6607 103.539C30.1277 104.82 30.5178 106.077 31.091 106.936C31.6735 107.809 32.5675 108.501 33.588 108.925L35.125 105.232ZM34.3536 105.076C34.2128 105.414 33.9738 105.409 34.1438 105.375C34.2973 105.345 34.6152 105.349 35.0083 105.513L36.5452 101.82C35.5248 101.395 34.404 101.248 33.3741 101.45C32.3607 101.649 31.1937 102.258 30.6607 103.539L34.3536 105.076ZM35.0083 105.513C35.4014 105.676 35.6281 105.899 35.715 106.029C35.8111 106.173 35.6389 106.008 35.7796 105.669L39.4726 107.206C40.0056 105.926 39.6154 104.668 39.0422 103.809C38.4597 102.936 37.5657 102.245 36.5452 101.82L35.0083 105.513Z" fill="#A0A0A0" mask="url(#path-3-inside-1_2312_6428)"/>
<circle cx="53.1823" cy="139.91" r="1.54955" transform="rotate(22.5962 53.1823 139.91)" stroke="#A0A0A0" stroke-width="2"/>
<circle cx="16.2189" cy="93.9184" r="1.54955" transform="rotate(22.5962 16.2189 93.9184)" stroke="#A0A0A0" stroke-width="2"/>
<path d="M79.1736 122.454C79.0037 124.919 80.4994 129.491 87.8421 128.063" stroke="black" stroke-width="2" stroke-linecap="round"/>
<path d="M128.089 83.5544C126.014 82.2192 121.532 80.8391 120.201 86.0002" stroke="black" stroke-width="2" stroke-linecap="round"/>
<path d="M102.594 40.5017C100.519 39.1665 96.0362 37.7863 94.705 42.9475" stroke="black" stroke-width="2" stroke-linecap="round"/>
<path d="M69.5697 70.1947C67.7429 71.8533 65.2496 75.826 69.8903 78.4477" stroke="black" stroke-width="2" stroke-linecap="round"/>
<path d="M156.417 45.8224C157.17 43.4726 157.343 38.7855 152.013 38.8355" stroke="black" stroke-width="2" stroke-linecap="round"/>
<ellipse cx="128.635" cy="52.8518" rx="7.64865" ry="7.64865" fill="#A0A0A0"/>
<path d="M170.447 70.9536C173.259 75.1704 170.04 78.58 167.994 79.82C167.929 79.859 167.86 79.8892 167.788 79.9097C163.75 81.056 159.994 75.7634 159.994 71.9734C159.994 68.8718 166.878 65.5995 170.447 70.9536Z" fill="#A0A0A0"/>
<path d="M148.011 93.3895C145.768 88.0865 137.218 91.1799 133.224 93.3895C129.91 94.929 130.675 100.528 134.754 105.117C138.017 108.789 142.063 107.157 143.677 105.882C146.057 103.928 150.255 98.6926 148.011 93.3895Z" fill="#A0A0A0"/>
<path d="M13.9496 101.373C12.3153 97.5343 6.08781 99.7735 3.17833 101.373C0.76408 102.487 1.32122 106.54 4.2926 109.862C6.66971 112.519 9.61633 111.338 10.7925 110.416C12.5258 109.001 15.5839 105.211 13.9496 101.373Z" stroke="#A0A0A0" stroke-width="2" stroke-linecap="round"/>
<path d="M114.102 119.905C102.68 116.03 101.015 126.109 101.61 131.633C102.375 135.203 106.454 135.712 109.003 134.948C114.376 133.336 128.38 124.749 114.102 119.905Z" fill="#A0A0A0"/>
<ellipse cx="76.2699" cy="100.331" rx="7.47016" ry="8.66847" transform="rotate(30.9344 76.2699 100.331)" fill="#A0A0A0"/>
<path d="M96.5103 69.6784C98.9579 66.415 94.9806 62.0298 92.686 60.2451C90.3914 58.4606 87.23 59.0213 84.7824 62.2847C81.9779 66.0239 93.4509 73.7577 96.5103 69.6784Z" fill="#A0A0A0"/>
<path d="M47.8142 44.1831C40.6754 42.5514 39.0607 46.5627 39.1457 48.7723C39.6557 56.421 51.1287 57.9507 53.9332 55.9111C55.8784 54.4964 56.7376 46.2228 47.8142 44.1831Z" fill="#A0A0A0"/>
<path d="M91.9218 13.8439C89.2703 8.54085 83.3384 9.42469 80.7038 10.5295C71.7294 13.385 73.3099 18.1781 75.3498 19.7078C78.4092 22.1724 85.7009 26.8976 90.3921 26.0817C96.2561 25.0619 95.2363 20.4727 91.9218 13.8439Z" fill="#A0A0A0"/>
<path d="M143.167 134.183C145.207 130.613 151.581 124.545 163.819 121.69C166.198 121.35 171.06 118.273 171.467 108.687C171.977 96.7042 185.235 79.1123 174.527 67.1294C169.938 61.9939 172.232 54.8916 169.938 41.124" stroke="black" stroke-width="2" stroke-linecap="round"/>
<path d="M167.898 37.2994C163.904 32.4553 152.55 21.5942 139.088 16.903C122.278 11.045 140.326 8.24026 110.624 8.74291C110.567 8.74389 110.508 8.74972 110.451 8.75939C108.17 9.14722 101.694 8.25959 93.2652 1.65973C93.22 1.62435 93.1725 1.59232 93.121 1.56703C91.9308 0.982708 88.2751 0.375176 82.4883 2.37064C76.5733 4.41028 59.9673 10.5292 52.4036 13.3337C50.7889 14.1835 47.2025 17.005 45.7748 21.4922C43.9901 27.1013 14.1604 55.6562 23.3388 69.1688" stroke="black" stroke-width="2" stroke-linecap="round"/>
<path d="M25.6333 72.2285C29.4824 72.7199 36.9935 75.6736 37.3518 83.5537C37.3752 84.0694 37.7505 84.5094 38.2595 84.5951C45.524 85.8172 57.0342 92.0458 51.5471 108.712C51.4484 109.012 51.4901 109.349 51.6574 109.617C54.2431 113.752 56.6227 122.451 48.6874 129.048C47.9781 129.638 48.2422 130.909 49.1414 131.115C55.1421 132.487 64.5224 135.981 68.8069 142.43C69.0652 142.819 69.5438 143.003 69.9959 142.887C74.4431 141.749 84.2335 141.295 93.4513 147.44C105.689 155.599 106.199 146.93 122.261 148.715C135.111 150.143 140.193 142.681 141.128 138.772" stroke="black" stroke-width="2" stroke-linecap="round"/>
</svg>
