<svg width="282" height="150" viewBox="0 0 282 150" fill="none" xmlns="http://www.w3.org/2000/svg">
<path d="M68.4519 92.1857L143.696 79.199C144.68 79.0293 145.278 80.2465 144.543 80.9212L109.917 112.693C109.844 112.76 109.765 112.817 109.671 112.852C106.544 114.037 94.9366 109.408 88.5348 106.506C87.97 106.25 87.311 106.559 87.142 107.156C85.7259 112.155 84.053 116.758 83.1373 119.087C82.9641 119.527 82.4786 119.75 82.203 119.366C80.624 117.163 80.3925 107.956 80.5023 102.475C80.5126 101.963 80.1371 101.529 79.6362 101.421C74.9785 100.41 68.793 96.3139 66.1401 94.2727" stroke="black" stroke-width="2" stroke-linecap="round"/>
<path d="M88.2759 105.336C96.2482 101.535 116.416 92.016 133.311 84.3452" stroke="black" stroke-width="2" stroke-linecap="round"/>
<path d="M82.1694 119.839L97.0539 110.297" stroke="black" stroke-width="2" stroke-linecap="round"/>
<path d="M85.6045 98.0844L106.214 90.833" stroke="black" stroke-width="2" stroke-linecap="round"/>
<path d="M74.0535 132.661C66.484 136.751 45.8195 141.122 23.7183 125.884" stroke="black" stroke-width="2" stroke-linecap="round"/>
<path d="M62.8433 123.283C50.2247 121.399 20.242 110.132 1.25937 80.1357" stroke="black" stroke-width="2" stroke-linecap="round"/>
<path d="M171.365 58.1767C166.215 89.9273 181.922 118.418 205.856 122.3C229.79 126.182 253.697 104.115 258.846 72.3646C263.996 40.6141 248.289 12.123 224.355 8.24136C200.42 4.35971 176.514 26.4262 171.365 58.1767Z" stroke="#A0A0A0" stroke-width="2"/>
<path d="M181.332 59.2093C179.363 71.3457 181.237 82.8863 185.81 91.7272C190.383 100.568 197.615 106.65 206.372 108.071C215.129 109.491 223.912 106.006 231.044 99.0633C238.177 92.1209 243.602 81.7641 245.571 69.6277C247.539 57.4912 245.665 45.9506 241.092 37.1098C236.519 28.2689 229.288 22.1865 220.531 20.7663C211.774 19.3461 202.991 22.8312 195.858 29.7737C188.725 36.7161 183.3 47.0729 181.332 59.2093Z" stroke="#A0A0A0" stroke-width="2"/>
<ellipse cx="16.9076" cy="22.7973" rx="16.9076" ry="22.7973" transform="matrix(-0.987103 -0.160089 -0.160089 0.987103 230.695 45.1074)" fill="#A0A0A0"/>
<path d="M249.206 116.404C218.674 145.792 184.707 128.617 177.455 110.107C180.684 128.571 202.563 139.046 220.773 139.494C240.81 139.494 265.808 122.892 272.678 107.817C297.958 52.341 259.447 13.2944 240.237 7.82422C276.303 24.8077 282.02 84.82 249.206 116.404Z" fill="#A0A0A0"/>
</svg>
