<svg width="167" height="152" viewBox="0 0 167 152" fill="none" xmlns="http://www.w3.org/2000/svg">
<path d="M106.78 147.364L121.122 115.495C121.445 114.777 122.159 114.315 122.946 114.315H146.701C148.169 114.315 149.137 115.843 148.509 117.17L133.444 149.04C133.113 149.739 132.409 150.185 131.636 150.185H108.604C107.153 150.185 106.185 148.688 106.78 147.364Z" stroke="black" stroke-width="2"/>
<path d="M88.8459 109.701L103.187 77.8311C103.51 77.1134 104.224 76.6519 105.011 76.6519H128.767C130.234 76.6519 131.202 78.1798 130.575 79.5066L115.509 111.376C115.179 112.075 114.475 112.521 113.701 112.521H90.6698C89.2185 112.521 88.2504 111.024 88.8459 109.701Z" stroke="black" stroke-width="2"/>
<path d="M166.052 147.466L149.918 114.618C149.582 113.934 148.886 113.5 148.123 113.5H125.89C124.438 113.5 123.47 114.999 124.067 116.323L138.892 149.171C139.216 149.887 139.929 150.348 140.715 150.348H164.256C165.737 150.348 166.704 148.795 166.052 147.466Z" fill="black"/>
<path d="M148.117 109.803L131.984 76.9552C131.647 76.2707 130.951 75.8369 130.188 75.8369H107.955C106.503 75.8369 105.535 77.336 106.132 78.6597L120.957 111.507C121.281 112.224 121.994 112.685 122.78 112.685H146.322C147.802 112.685 148.769 111.132 148.117 109.803Z" fill="black"/>
<path d="M39.4428 147.201L53.7841 115.331C54.1071 114.613 54.821 114.152 55.608 114.152H79.3636C80.8312 114.152 81.799 115.68 81.1718 117.007L66.1062 148.876C65.7756 149.575 65.0715 150.021 64.298 150.021H41.2667C39.8154 150.021 38.8473 148.524 39.4428 147.201Z" stroke="black" stroke-width="2"/>
<path d="M68.6618 149.71L55.9967 116.373C55.4995 115.065 56.4663 113.663 57.8663 113.663H79.644C80.4072 113.663 81.1039 114.097 81.4398 114.783L84.5517 121.131C84.8147 121.667 84.824 122.294 84.5771 122.838L76.9779 139.587L73.6264 147.31C73.3952 147.843 73.5754 148.465 74.0556 148.791C75.0401 149.461 74.5663 151 73.3758 151H70.5315C69.7009 151 68.9568 150.487 68.6618 149.71Z" fill="black"/>
<path d="M73.3559 147.364L87.6972 115.495C88.0202 114.777 88.734 114.315 89.5211 114.315H113.277C114.744 114.315 115.712 115.843 115.085 117.17L100.019 149.04C99.6887 149.739 98.9846 150.185 98.2111 150.185H75.1798C73.7285 150.185 72.7604 148.688 73.3559 147.364Z" stroke="black" stroke-width="2"/>
<path d="M55.4214 109.701L69.7627 77.8311C70.0856 77.1134 70.7995 76.6519 71.5865 76.6519H95.3422C96.8097 76.6519 97.7775 78.1798 97.1503 79.5066L82.0847 111.376C81.7541 112.075 81.05 112.521 80.2766 112.521H57.2452C55.7939 112.521 54.8258 111.024 55.4214 109.701Z" stroke="black" stroke-width="2"/>
<path d="M102.575 149.71L89.9098 116.373C89.4126 115.065 90.3794 113.663 91.7794 113.663H113.557C114.32 113.663 115.017 114.097 115.353 114.783L118.465 121.131C118.728 121.667 118.737 122.294 118.49 122.838L110.891 139.587L107.539 147.31C107.308 147.843 107.489 148.465 107.969 148.791C108.953 149.461 108.479 151 107.289 151H104.445C103.614 151 102.87 150.487 102.575 149.71Z" fill="black"/>
<path d="M84.6404 112.047L71.9752 78.7103C71.478 77.4015 72.4448 76 73.8449 76H95.6225C96.3857 76 97.0824 76.4344 97.4183 77.1197L100.53 83.4679C100.793 84.0044 100.803 84.6304 100.556 85.1745L92.9564 101.924L89.6049 109.647C89.3737 110.18 89.5539 110.802 90.0342 111.128C91.0186 111.798 90.5448 113.337 89.3543 113.337H86.51C85.6794 113.337 84.9353 112.824 84.6404 112.047Z" fill="black"/>
<path d="M51.5435 113.011H151.815" stroke="black" stroke-width="2" stroke-linecap="round"/>
<path d="M85.6945 56.3277L50.5261 35.2044C49.0919 34.343 49.2863 32.2062 50.8523 31.6177L61.9856 27.434C62.5682 27.2151 63.2195 27.2798 63.7475 27.6092L99.4474 49.8756C100.937 50.8047 100.592 53.0651 98.8935 53.5079L87.2288 56.5485C86.7085 56.6841 86.1554 56.6045 85.6945 56.3277Z" stroke="#A0A0A0" stroke-width="2" stroke-linecap="round"/>
<path d="M60.3477 5.94795L76.8757 2.80892C77.4968 2.69096 78.1417 2.6716 78.7389 2.87903C79.9579 3.30245 81.2017 4.1469 80.1978 5.43755C78.9274 7.07082 77.3747 8.15967 76.7571 8.49993" stroke="#A0A0A0" stroke-width="2" stroke-linecap="round"/>
<path d="M68.1738 10.7195C72.6062 9.67642 81.8881 8.32041 83.5568 11.2411C85.2255 14.1617 84.2521 16.2826 83.5568 16.978" stroke="#A0A0A0" stroke-width="2" stroke-linecap="round"/>
<path d="M69.1519 11.2958C72.8805 10.7716 80.65 11.0337 81.8987 16.276C83.4595 22.8289 81.8987 25.45 79.2973 26.7606" stroke="#A0A0A0" stroke-width="2" stroke-linecap="round"/>
<path d="M1 26.5391C3.35681 29.6986 9.69402 36.4915 16.1883 38.3872C23.2884 40.4597 45.8127 50.5883 54.8535 44.2882C57.0827 42.7349 55.8277 39.6455 53.3268 38.5838L47.1426 35.9585C46.4186 35.6512 45.7774 35.1774 45.2709 34.5756L40.7161 29.1634C38.9006 27.0061 39.2268 23.7753 41.4369 22.0245L44.4408 19.645C45.4667 18.8323 46.7703 18.4543 48.0718 18.592L62.4297 20.1116C64.5357 20.3345 66.2439 21.8716 66.9823 23.8565C68.2677 27.3119 70.4305 31.2955 73.4208 33.0424C75.4191 34.2097 77.4398 32.294 77.5597 29.9828C77.8471 24.443 77.3669 17.1147 74.0612 14.9544C70.1574 12.4032 58.6763 5.53983 52.3256 1.775C51.471 1.26839 50.4871 1.03056 49.4953 1.08777L19.0689 2.84303" stroke="#A0A0A0" stroke-width="2" stroke-linecap="round"/>
</svg>
