<svg width="176" height="151" viewBox="0 0 176 151" fill="none" xmlns="http://www.w3.org/2000/svg">
<path d="M73.7308 127.459C75.5243 102.648 72.6547 54.4022 46.8278 59.9023C21.001 65.4025 19.9249 96.4705 22.6152 111.317C25.0065 119.986 38.6971 115.98 27.6968 88.0011" stroke="black" stroke-width="2" stroke-linecap="round"/>
<path d="M18.7293 85.0116C11.4556 84.8124 -5.53147 92.3639 4.68001 117.893C17.8325 150.775 85.3889 169.606 105.118 117.893" stroke="black" stroke-width="2" stroke-linecap="round"/>
<path d="M122.754 102.051C117.672 96.0723 111.993 102.051 106.612 96.0723V111.15C107.569 113.541 109.816 111.15 111.096 110.122L122.754 102.051Z" fill="#A0A0A0"/>
<path d="M133.814 93.9797L114.518 107.762C111.209 110.126 106.612 107.761 106.612 103.694V77.8379" stroke="#A0A0A0" stroke-width="2" stroke-linecap="round"/>
<path d="M118.868 70.963L138.298 31.8042" stroke="#A0A0A0" stroke-width="2" stroke-linecap="round"/>
<path d="M148.462 32.4019L126.341 77.539" stroke="#A0A0A0" stroke-width="2" stroke-linecap="round"/>
<path d="M155.635 41.3696L136.504 79.9305" stroke="#A0A0A0" stroke-width="2" stroke-linecap="round"/>
<path d="M130.825 28.2168L108.182 74.3614C107.804 75.1332 108.524 76.0377 109.38 75.9578C112.861 75.6327 117.392 76.5662 118.38 81.7202C118.527 82.4916 119.427 82.9651 120.134 82.6234C123.187 81.148 127.258 80.6925 127.8 86.3135C127.884 87.1815 128.95 87.7248 129.702 87.284C131.887 86.0041 134.505 85.3624 135.763 87.7047C136.271 88.6507 138.052 89.0347 138.525 88.0708L161.315 41.6683" stroke="#A0A0A0" stroke-width="2" stroke-linecap="round"/>
<path d="M158.326 0.417151C148.282 -1.25681 143.579 2.5096 142.483 4.60206L136.983 15.3403C136.635 16.0201 137.145 16.8305 137.909 16.8435C146.114 16.9832 160.703 19.9995 166.327 29.8308C166.753 30.5756 167.892 30.6063 168.276 29.8388L169.087 28.2169L174.891 16.3177C175.003 16.0886 175.025 15.8269 174.943 15.5856C173.379 10.9736 168.097 2.0457 158.326 0.417151Z" fill="#A0A0A0"/>
<path d="M166.994 32.1026L163.25 39.1509C162.806 39.9856 161.4 39.8342 160.992 38.9817C158.382 33.5352 150.514 25.9069 133.893 25.2666C133.163 25.2384 132.682 24.4721 132.998 23.8128L135.906 17.7544" stroke="#A0A0A0" stroke-width="2" stroke-linecap="round"/>
<path d="M137.7 21.6411C141.785 21.0433 152.288 22.1195 161.614 31.2066" stroke="#A0A0A0" stroke-width="2" stroke-linecap="round"/>
</svg>
