<svg width="105" height="147" viewBox="0 0 105 147" fill="none" xmlns="http://www.w3.org/2000/svg">
<path d="M1.86837 141.985C-5.41414 138.587 10.4587 136.293 19.3054 135.57C35.8876 135.021 71.2574 134.253 80.0785 135.57C91.1048 137.217 90.9766 141.985 83.1556 144.673C75.3346 147.36 10.9715 146.233 1.86837 141.985Z" fill="#A0A0A0"/>
<path d="M52.6779 17.4355L56.5498 20.8175C57.2934 21.467 58.3091 21.7091 59.2658 21.4647L64.2468 20.1925C65.0499 19.9874 65.7395 20.7921 65.4139 21.5543L63.3939 26.2818C63.0059 27.1897 63.0896 28.2305 63.6176 29.0648L66.3668 33.4089C66.81 34.1093 66.2578 35.0139 65.4323 34.9397L60.312 34.4794C59.3285 34.391 58.3646 34.7922 57.7342 35.5522L54.4523 39.5092C53.9232 40.1472 52.8922 39.9015 52.7077 39.0935L51.5632 34.0816C51.3433 33.1189 50.6639 32.3261 49.7463 31.9615L44.9688 30.063C44.1985 29.7569 44.1136 28.7005 44.8251 28.2753L49.238 25.638C50.0856 25.1315 50.6296 24.2403 50.6929 23.255L51.0221 18.1246C51.0752 17.2974 52.0537 16.8902 52.6779 17.4355Z" stroke="#A0A0A0" stroke-width="2"/>
<path d="M76.8097 22.8323L75.9576 18.0611C75.834 17.369 76.0829 16.6628 76.6131 16.2011L79.0584 14.0719C80.4001 12.9037 79.6631 10.6966 77.8887 10.5688L74.7428 10.3421C73.9947 10.2882 73.3397 9.82038 73.0461 9.13026L71.6309 5.80379C70.962 4.23157 68.7571 4.16781 67.9985 5.69876L67.3223 7.06322M47.9634 16.5502L43.3128 13.3759C41.8442 12.3735 42.3159 10.0965 44.0619 9.76017L49.1222 8.78527C49.8587 8.64339 50.4538 8.10143 50.6638 7.38145L52.1052 2.44034C52.6034 0.732518 54.9161 0.476318 55.776 2.0337L58.2639 6.53955C58.6264 7.1961 59.3258 7.59466 60.0754 7.57192L65.2201 7.41584C66.9983 7.3619 67.9566 9.48229 66.7412 10.7813L62.8076 14.9855C62.5354 15.2764 62.3563 15.642 62.2933 16.0354L61.5531 20.6528" stroke="#A0A0A0" stroke-width="2" stroke-linecap="round"/>
<path d="M83.2024 19.3442L83.4576 24.4788C83.5066 25.465 84.0377 26.3639 84.8779 26.8826L89.2523 29.5833C89.9575 30.0188 89.8574 31.0739 89.0828 31.3688L84.2783 33.1981C83.3556 33.5495 82.6648 34.3324 82.4311 35.2917L81.2143 40.2866C81.0181 41.0919 79.9837 41.3227 79.4639 40.6771L76.2394 36.6731C75.6201 35.9041 74.662 35.489 73.6774 35.5632L68.551 35.9495C67.7245 36.0118 67.1854 35.0993 67.6387 34.4054L70.4503 30.1015C70.9904 29.2748 71.089 28.2354 70.7142 27.3219L68.7627 22.5658C68.4481 21.799 69.1493 21.0043 69.9493 21.2209L74.9114 22.565C75.8645 22.8231 76.8835 22.5958 77.6365 21.957L81.5568 18.6313C82.1888 18.0951 83.1613 18.5164 83.2024 19.3442Z" stroke="#A0A0A0" stroke-width="2"/>
<path d="M40.6554 23.8579L39.7662 22.3445C38.8557 20.7949 36.5222 21.1393 36.0983 22.8859L35.4106 25.7187C35.2337 26.4475 34.6639 27.0161 33.9347 27.1915L30.9726 27.9039C29.2429 28.3199 28.8765 30.6178 30.391 31.5511L32.9846 33.1495C33.6231 33.5429 33.9878 34.2605 33.9293 35.0082L33.6914 38.0455C33.5526 39.8191 35.6247 40.8777 36.9804 39.7257L39.302 37.753C39.8735 37.2673 40.6687 37.1422 41.3617 37.429L44.1234 38.5716C45.7748 39.2548 47.4249 37.5942 46.7312 35.9472L45.5272 33.0887" stroke="#A0A0A0" stroke-width="2" stroke-linecap="round"/>
<path d="M56.0402 20.5245L55.9255 13.4547C55.8966 11.6751 53.7322 10.8169 52.4916 12.0931L48.0809 16.6306C47.5581 17.1683 46.7785 17.3684 46.0613 17.1489L40.0051 15.2948C38.304 14.774 36.8206 16.5668 37.6506 18.1403L40.6057 23.7424C40.9556 24.4058 40.905 25.2091 40.4746 25.8233L36.8397 31.0102C35.8188 32.4671 37.0654 34.4319 38.8184 34.1287L45.1667 33.0309C45.8485 32.913 46.5428 33.1559 47.0024 33.6731L53.0915 40.5246" stroke="#A0A0A0" stroke-width="2" stroke-linecap="round"/>
<path d="M56.8099 65.5244L56.4253 69.2424" stroke="black" stroke-width="2" stroke-linecap="round"/>
<path d="M64.5024 65.6528L64.8871 69.1144" stroke="black" stroke-width="2" stroke-linecap="round"/>
<path d="M60.143 65.5244C44.1377 65.2294 32.6542 56.0323 25.988 47.6311C23.3678 44.329 26.5488 40.2033 30.7153 40.8434C51.1116 43.9769 75.2617 42.3137 91.0132 40.2161C95.0302 39.6811 97.9446 43.7015 95.4937 46.9287C88.7467 55.8128 76.7638 65.8308 60.143 65.5244Z" fill="black"/>
<path d="M40.6657 132.447H33.4107C31.0555 132.447 28.6395 134.195 29.3451 136.442C29.9297 138.304 31.458 138.786 32.4511 138.729H41.6819C43.3771 138.63 44.2321 137.617 44.6091 136.372C45.2821 134.149 42.9882 132.447 40.6657 132.447Z" fill="black"/>
<path d="M87.8561 132.447H80.6011C78.246 132.447 75.8299 134.195 76.5356 136.442C77.1202 138.304 78.6484 138.786 79.6415 138.729H88.8723C90.5676 138.63 91.4225 137.617 91.7995 136.372C92.4725 134.149 90.1786 132.447 87.8561 132.447Z" fill="black"/>
<path d="M68.2203 69.6271C28.0152 65.6271 17.7075 100.525 17.5793 118.473C17.4996 129.627 24.4558 132.49 28.8614 132.319H91.6819C103.99 132.319 104.079 123.986 103.477 118.473C99.4768 81.8579 78.3058 70.6527 68.2203 69.6271Z" stroke="black" stroke-width="2" stroke-linecap="round"/>
<circle cx="60.1434" cy="100.909" r="20.2821" stroke="#A0A0A0" stroke-width="2"/>
<path d="M74.502 91.0371L49.0941 109.969C48.6818 110.276 48.0986 110.192 47.7901 109.78C47.4672 109.35 47.5744 108.736 48.024 108.44L74.502 91.0371Z" fill="#A0A0A0"/>
<circle cx="60.1431" cy="100.909" r="2.05128" fill="#A0A0A0"/>
<path d="M74.8867 100.653H78.7329" stroke="#A0A0A0" stroke-width="2" stroke-linecap="round"/>
<path d="M60.0151 82.3193V85.5245" stroke="#A0A0A0" stroke-width="2" stroke-linecap="round"/>
<path d="M60.1431 116.294V119.499" stroke="#A0A0A0" stroke-width="2" stroke-linecap="round"/>
<path d="M41.4253 100.653H45.2714" stroke="#A0A0A0" stroke-width="2" stroke-linecap="round"/>
<path d="M65.7842 86.5499L67.3226 83.9858" stroke="#A0A0A0" stroke-width="2" stroke-linecap="round"/>
<path d="M52.9639 117.832L54.5023 115.268" stroke="#A0A0A0" stroke-width="2" stroke-linecap="round"/>
<path d="M73.22 87.9604L71.0405 90.0117" stroke="#A0A0A0" stroke-width="2" stroke-linecap="round"/>
<path d="M49.5022 111.935L47.3228 113.986" stroke="#A0A0A0" stroke-width="2" stroke-linecap="round"/>
<path d="M77.3227 94.1143L74.374 95.1399" stroke="#A0A0A0" stroke-width="2" stroke-linecap="round"/>
<path d="M46.1689 106.807L43.2202 107.832" stroke="#A0A0A0" stroke-width="2" stroke-linecap="round"/>
<path d="M74.2456 106.807L77.1943 108.089" stroke="#A0A0A0" stroke-width="2" stroke-linecap="round"/>
<path d="M43.2202 93.9858L46.1689 95.2679" stroke="#A0A0A0" stroke-width="2" stroke-linecap="round"/>
<path d="M72.9636 113.986L71.0405 111.678" stroke="#A0A0A0" stroke-width="2" stroke-linecap="round"/>
<path d="M49.2458 90.1397L47.3228 87.832" stroke="#A0A0A0" stroke-width="2" stroke-linecap="round"/>
<path d="M66.8098 118.217L66.0405 115.396" stroke="#A0A0A0" stroke-width="2" stroke-linecap="round"/>
<path d="M53.9894 86.55L53.2202 83.7295" stroke="#A0A0A0" stroke-width="2" stroke-linecap="round"/>
<path d="M56.6816 36.8065L58.4268 38.1798C61.058 40.2502 64.9382 38.5995 65.2714 35.2681V35.2681" stroke="#A0A0A0" stroke-width="2" stroke-linecap="round"/>
<path d="M65.1431 40.2682L67.2754 38.9759C68.5868 38.1811 70.2082 38.0925 71.5984 38.7397L74.074 39.8921C75.4764 40.5449 77.1222 39.7285 77.4508 38.2169V38.2169" stroke="#A0A0A0" stroke-width="2" stroke-linecap="round"/>
</svg>
