<svg width="178" height="151" viewBox="0 0 178 151" fill="none" xmlns="http://www.w3.org/2000/svg">
<path d="M24.7114 100.489L20.3542 93.2269C19.077 91.0983 19.8942 88.3326 22.1232 87.24C24.2783 86.1835 26.8799 87.1255 27.859 89.3169L31.3138 97.0491C32.1104 98.8321 31.3965 100.928 29.677 101.854C27.923 102.798 25.7364 102.197 24.7114 100.489Z" fill="#A0A0A0"/>
<path d="M14.6509 82.4526L22.4204 78.8057" stroke="black" stroke-width="2" stroke-linecap="round"/>
<path d="M16.0778 71.5116L5.93572 75.2757C3.14145 76.3128 1.86762 79.5434 3.25501 82.1814C8.00391 91.2107 15.5314 104.64 20.6761 110.835C24.3634 115.275 28.7628 123.52 30.9827 127.643C32.409 130.292 55.2427 157.77 52.3886 147.463C50.2198 139.631 24.989 84.3496 10.7782 53.6416C9.5955 51.086 10.7472 48.0812 13.3416 46.9861C33.9274 38.2964 71.2069 23.5503 86.7966 21.0888C101.516 18.7647 122.939 8.94911 135.289 2.55197C137.884 1.20795 141.1 2.27509 142.289 4.94411C149.477 21.0693 161.398 48.9007 163.224 65.3277C165.05 81.7605 180.445 87.6321 175.648 101.384C175.333 102.287 174.701 103.032 173.903 103.558C146.935 121.315 106.316 132.349 54.9256 150" stroke="black" stroke-width="2" stroke-linecap="round"/>
<path d="M30.0312 105.285L47.9488 136.522" stroke="black" stroke-width="2" stroke-linecap="round"/>
<path d="M141.026 119.715C139.704 115.275 135 105.761 132.146 98.9431C130.721 95.5381 145.895 92.009 155.758 88.4007C159.431 87.0573 165.587 88.7945 167.208 92.3532C169.459 97.2954 171.793 102.282 172.58 103.541" stroke="black" stroke-width="2" stroke-linecap="round"/>
<path d="M148.953 86.4165L133.89 91.9662" stroke="black" stroke-width="2" stroke-linecap="round"/>
<path d="M131.987 88.0025L150.063 80.8672" stroke="black" stroke-width="2" stroke-linecap="round"/>
<path d="M154.979 78.9642L158.15 77.5371" stroke="black" stroke-width="2" stroke-linecap="round"/>
<path d="M129.608 83.7206L157.674 72.7798" stroke="black" stroke-width="2" stroke-linecap="round"/>
<path d="M127.706 79.5982L156.247 68.8159" stroke="black" stroke-width="2" stroke-linecap="round"/>
<path d="M125.961 75.7927L154.661 64.6934" stroke="black" stroke-width="2" stroke-linecap="round"/>
<path d="M88.6992 88.4781L118.668 78.3301" stroke="black" stroke-width="2" stroke-linecap="round"/>
<path d="M91.5532 92.7591L120.094 82.9282" stroke="black" stroke-width="2" stroke-linecap="round"/>
<path d="M92.8218 97.8327L121.522 87.209" stroke="black" stroke-width="2" stroke-linecap="round"/>
<path d="M93.2979 102.907L123.108 91.8076" stroke="black" stroke-width="2" stroke-linecap="round"/>
<path d="M95.042 108.14L111.85 100.37" stroke="black" stroke-width="2" stroke-linecap="round"/>
<path d="M99.0059 110.359L122.79 102.272" stroke="black" stroke-width="2" stroke-linecap="round"/>
<path d="M98.8472 115.433L124.693 106.078" stroke="black" stroke-width="2" stroke-linecap="round"/>
<path d="M100.909 119.556L128.181 109.408" stroke="black" stroke-width="2" stroke-linecap="round"/>
<path d="M102.812 123.838L129.767 114.482" stroke="black" stroke-width="2" stroke-linecap="round"/>
<path d="M103.287 128.277L123.107 121.459" stroke="black" stroke-width="2" stroke-linecap="round"/>
<path d="M51.9131 124.313L87.7482 111.786" stroke="black" stroke-width="2" stroke-linecap="round"/>
<path d="M55.084 131.765L90.7605 118.763" stroke="black" stroke-width="2" stroke-linecap="round"/>
<path d="M68.7207 132.241L90.6023 123.996" stroke="black" stroke-width="2" stroke-linecap="round"/>
<path d="M70.9404 137.473L92.822 128.118" stroke="black" stroke-width="2" stroke-linecap="round"/>
<path d="M63.8317 141.5L63.332 141.76C61.3109 142.811 58.8203 142.037 57.7505 140.026C56.642 137.941 57.4915 135.354 59.6196 134.332L60.1274 134.089C62.1039 133.14 64.4773 133.895 65.5421 135.812C66.675 137.851 65.9016 140.423 63.8317 141.5Z" stroke="black" stroke-width="2" stroke-linecap="round"/>
<path d="M83.9424 81.9767C94.7246 77.8012 117.716 69.1014 123.424 67.7061" stroke="black" stroke-width="2" stroke-linecap="round"/>
<path d="M82.5151 77.5374C99.6399 68.0236 149.809 55.9412 151.331 52.6431" stroke="black" stroke-width="2" stroke-linecap="round"/>
<path d="M80.2954 73.5732C98.8472 64.0595 148.192 50.6451 149.587 47.7275" stroke="black" stroke-width="2" stroke-linecap="round"/>
<path d="M31.1411 80.8667C50.3272 72.1458 138.329 44.2388 147.526 37.1035" stroke="black" stroke-width="2" stroke-linecap="round"/>
<path d="M30.9829 76.5857C65.3909 62.4737 136.3 38.5942 145.941 33.1396" stroke="black" stroke-width="2" stroke-linecap="round"/>
<path d="M48.266 117.97C48.3687 114.889 42.5179 103.559 37.9025 95.263C36.3874 92.5394 37.6287 89.0536 40.4754 87.7848C50.9172 83.1306 64.7254 75.6338 71.7332 75.6338C74.3186 75.6338 80.8742 90.8141 84.8865 100.732C85.8826 103.195 84.7519 105.991 82.323 107.066C68.8026 113.052 48.1522 121.385 48.266 117.97Z" fill="#A0A0A0"/>
<path d="M29.2383 68.1822L27.1644 62.5188C26.505 60.7181 28.5127 59.1114 30.1252 60.1495L32.2384 61.5101C33.7883 62.508 35.7484 61.0558 35.2451 59.2825L33.361 52.6431" stroke="black" stroke-width="2" stroke-linecap="round"/>
<path d="M43.5091 48.8374L38.9727 51.0474C38.0405 51.5016 37.61 52.593 37.9812 53.5613L40.2458 59.4692C40.6452 60.5111 41.82 61.0247 42.8561 60.6102L47.3146 58.8268" stroke="black" stroke-width="2" stroke-linecap="round"/>
<path d="M39.3867 57.0825L44.9364 54.7041" stroke="black" stroke-width="2" stroke-linecap="round"/>
<path d="M46.6802 49.9472L49.5715 53.8325C50.5123 55.0966 52.4796 54.8158 53.0291 53.339L53.4222 52.2825C53.7987 51.2706 55.1438 51.0728 55.7958 51.9333V51.9333C56.588 52.979 58.2552 52.4188 58.2552 51.1069V43.9219" stroke="black" stroke-width="2" stroke-linecap="round"/>
<path d="M67.9287 41.7019C66.659 40.1162 63.489 40.4334 63.0133 43.7632C62.3791 48.2029 70.1476 44.8731 71.2586 48.2029C73.0151 53.4673 64.1761 52.7484 63.489 51.3742" stroke="black" stroke-width="2" stroke-linecap="round"/>
<path d="M74.1118 39.0063L77.6151 46.0129C78.1252 47.0331 79.3839 47.4207 80.3796 46.8643L83.9427 44.8732" stroke="black" stroke-width="2" stroke-linecap="round"/>
<path d="M89.9678 33.9321L86.3551 35.951C85.3783 36.4969 85.0394 37.738 85.6032 38.7046L88.0716 42.9361C88.603 43.847 89.7503 44.1888 90.6936 43.7172L96.6274 40.7503" stroke="black" stroke-width="2" stroke-linecap="round"/>
<path d="M87.2725 41.2265L90.9194 38.6895" stroke="black" stroke-width="2" stroke-linecap="round"/>
<path d="M95.5176 33.1398L104.397 29.1758" stroke="black" stroke-width="2" stroke-linecap="round"/>
<path d="M100.274 31.0781L104.714 38.6891" stroke="black" stroke-width="2" stroke-linecap="round"/>
<path d="M106.141 29.3339L112.642 25.687" stroke="black" stroke-width="2" stroke-linecap="round"/>
<path d="M109.154 27.748L112.959 35.0419" stroke="black" stroke-width="2" stroke-linecap="round"/>
<path d="M121.363 20.9302L116.897 23.9859C116.022 24.5847 115.766 25.7625 116.314 26.6702L119.343 31.6867C119.928 32.6545 121.197 32.946 122.145 32.3298L126.754 29.334" stroke="black" stroke-width="2" stroke-linecap="round"/>
<path d="M118.034 29.6507L123.266 26.4795" stroke="black" stroke-width="2" stroke-linecap="round"/>
<path d="M131.035 29.0169L126.605 21.1247C126.214 20.4291 126.25 19.527 126.897 19.0604C128.861 17.6435 131.428 18.4083 131.333 20.5497C131.269 21.9944 131.659 23.7169 133.059 24.0798L138.646 25.5285" stroke="black" stroke-width="2" stroke-linecap="round"/>
</svg>
