<svg width="190" height="151" viewBox="0 0 190 151" fill="none" xmlns="http://www.w3.org/2000/svg">
<path d="M170.071 3.78857C163.544 3.78857 161.65 9.00381 161.559 12.8177C161.529 14.0951 160.667 15.3112 159.629 16.0569C158.352 16.9741 157.265 18.6097 157.737 21.2644C158.412 25.0712 162.524 25.5472 164.955 25.2123C165.38 25.1538 165.761 24.9363 166.066 24.6339L176.766 13.995C177.028 13.7352 177.228 13.4185 177.313 13.0599C178.171 9.43109 176.819 3.78857 170.071 3.78857Z" stroke="black" stroke-width="2" stroke-linecap="round"/>
<path d="M187.104 20.2733C187.104 26.6798 181.873 28.5324 178.057 28.6159C176.787 28.6438 175.579 29.5017 174.823 30.5236C173.904 31.7674 172.271 32.8211 169.628 32.3614C165.832 31.701 165.348 27.6924 165.677 25.3072C165.737 24.8779 165.96 24.4937 166.268 24.1895L176.897 13.7126C177.157 13.4563 177.473 13.2607 177.828 13.178C181.457 12.335 187.104 13.6581 187.104 20.2733Z" stroke="black" stroke-width="2" stroke-linecap="round"/>
<path d="M177.942 10.9592C179.43 9.92182 182.201 6.47758 181.377 1" stroke="black" stroke-width="2" stroke-linecap="round"/>
<path d="M179.137 12.553C180.133 10.8991 183.439 7.82013 188.698 8.73618" stroke="black" stroke-width="2" stroke-linecap="round"/>
<path d="M60.869 71.5117C56.3314 71.5117 54.8192 75.0063 54.5971 77.8304C54.4976 79.0956 53.6026 80.3029 52.7058 81.2009C51.9704 81.9373 51.448 83.0852 51.7413 84.7804C52.2251 87.5775 55.0902 88.0062 56.9051 87.8005C57.3369 87.7516 57.7218 87.5252 58.026 87.2149L65.7296 79.3565C65.9845 79.0965 66.1808 78.7807 66.2553 78.4242C66.831 75.6664 65.7861 71.5117 60.869 71.5117Z" stroke="black" stroke-width="2" stroke-linecap="round"/>
<path d="M73.9668 84.112C73.9668 88.9123 70.3608 90.5004 67.4624 90.7254C66.1875 90.8244 64.9706 91.7204 64.0989 92.6559C63.3472 93.4626 62.1558 94.0502 60.3745 93.7331C57.4864 93.219 57.0632 90.1551 57.2859 88.2448C57.3354 87.8194 57.5537 87.4384 57.8553 87.1342L65.9407 78.9786C66.2004 78.7166 66.5182 78.514 66.8788 78.4361C69.7038 77.8259 73.9668 78.9249 73.9668 84.112Z" stroke="black" stroke-width="2" stroke-linecap="round"/>
<path d="M67.1947 77.0886C68.1871 76.3001 70.0345 73.6825 69.4849 69.5195" stroke="black" stroke-width="2" stroke-linecap="round"/>
<path d="M67.9915 78.2838C68.7384 77.2914 71.2183 75.444 75.1621 75.9937" stroke="black" stroke-width="2" stroke-linecap="round"/>
<path d="M84.9514 96.8688C80.9549 99.1762 81.403 103.014 82.6411 105.598C83.1901 106.743 83.0204 108.237 82.6806 109.461C82.397 110.483 82.5102 111.763 83.634 113.109C85.4759 115.316 88.2172 114.229 89.7061 113.126C90.0545 112.867 90.2747 112.48 90.3837 112.061L93.1867 101.262C93.2784 100.908 93.2911 100.536 93.1777 100.189C92.2923 97.483 89.2743 94.373 84.9514 96.8688Z" stroke="black" stroke-width="2" stroke-linecap="round"/>
<path d="M102.762 101.028C105.168 105.194 102.735 108.412 100.278 110.071C99.224 110.783 98.6212 112.157 98.3288 113.395C98.0728 114.479 97.3172 115.601 95.58 116.237C92.7848 117.261 90.8882 114.844 90.1307 113.084C89.9595 112.686 89.9616 112.242 90.0762 111.824L93.1392 100.674C93.236 100.321 93.411 99.9921 93.6823 99.7473C95.8635 97.7787 100.176 96.5471 102.762 101.028Z" stroke="black" stroke-width="2" stroke-linecap="round"/>
<path d="M93.0927 98.7187C93.6169 97.4857 94.0052 94.1725 91.3645 90.7845" stroke="black" stroke-width="2" stroke-linecap="round"/>
<path d="M94.5011 99.0963C94.6172 97.7931 95.783 94.8189 99.5183 93.3469" stroke="black" stroke-width="2" stroke-linecap="round"/>
<path d="M140.665 24.1327C153.074 29.9952 150.584 42.2625 146.987 48.6525C146.361 49.7643 146.591 51.2104 147.417 52.1833C149.592 54.7468 151.345 59.2376 147.617 64.5034C143.144 70.8213 135.191 67.796 131.438 65.1354C131.087 64.8866 130.836 64.5291 130.69 64.1241L120.578 35.9004C120.455 35.5544 120.413 35.1845 120.477 34.8226C121.735 27.7517 128.744 18.5006 140.665 24.1327Z" stroke="black" stroke-width="2" stroke-linecap="round"/>
<path d="M97.8307 38.9651C91.9682 51.3738 101.682 59.2686 108.518 61.9208C109.708 62.3823 110.448 63.6454 110.429 64.9211C110.377 68.2824 111.874 72.865 118.098 74.5654C125.565 76.6054 129.788 69.2176 130.997 64.7794C131.11 64.3643 131.077 63.9282 130.932 63.5233L120.82 35.2995C120.696 34.9535 120.494 34.6411 120.214 34.4025C114.752 29.7394 103.463 27.0442 97.8307 38.9651Z" stroke="black" stroke-width="2" stroke-linecap="round"/>
<path d="M120.968 30.4417C119.501 27.5797 117.991 19.6661 123.691 10.9077" stroke="black" stroke-width="2" stroke-linecap="round"/>
<path d="M118.789 32.3002C118.105 29.1576 114.245 22.0859 104.281 18.9395" stroke="black" stroke-width="2" stroke-linecap="round"/>
<path d="M96.1524 35.7405C88.762 31.365 72.4861 24.8274 66.5051 33.6815C59.0288 44.749 99.5038 91.0783 129.667 84.1289L164.728 110.382C166.618 110.811 169.987 110.691 168.337 106.779L134.307 80.2681C134.651 78.3806 134.771 73.6275 132.503 69.7153" stroke="black" stroke-width="2" stroke-linecap="round"/>
<path d="M66.2382 27.6904C57.6631 29.4973 39.7411 38.3771 36.654 59.4405C32.7952 85.7699 35.8414 98.4088 10.6714 112.616C-9.90836 124.231 7.32743 140.43 18.389 141.01C51.2318 142.731 118.924 134.918 126.95 89.9" stroke="black" stroke-width="2" stroke-linecap="round"/>
<path d="M61.4668 150.986C125.843 150.667 130.783 134.786 122.417 129.673C111.661 123.1 98.1169 138.238 80.1902 141.624C72.3003 143.115 -19.0038 151.384 61.4668 150.986Z" fill="#A0A0A0"/>
<path d="M60.4223 36.0566C58.4024 40.4821 55.2716 51.9362 58.9074 62.349" stroke="#A0A0A0" stroke-width="2" stroke-linecap="round"/>
<path d="M52.4552 42.4307C50.6514 45.3152 48.1262 54.8509 52.4552 69.9182" stroke="#A0A0A0" stroke-width="2" stroke-linecap="round"/>
<path d="M64.4063 51.7231C60.8493 50.9569 51.9655 53.2045 44.8862 68.3243" stroke="#A0A0A0" stroke-width="2" stroke-linecap="round"/>
<path d="M63.6095 44.8306C60.2682 44.6623 51.6864 46.4963 44.0894 55.1779" stroke="#A0A0A0" stroke-width="2" stroke-linecap="round"/>
<path d="M52.3352 117.429L46.6773 127.111C44.6197 129.727 38.576 128.68 39.7333 123.186C39.9484 122.165 41.1348 120.399 44.1651 120.216C44.988 120.166 45.6127 119.267 45.2845 118.51C43.685 114.825 42.4292 109.428 45.3914 108.01C48.889 106.335 49.9349 113.592 50.0206 117.429" stroke="#A0A0A0" stroke-width="2" stroke-linecap="round"/>
</svg>
