<svg width="198" height="151" viewBox="0 0 198 151" fill="none" xmlns="http://www.w3.org/2000/svg">
<path d="M128.132 72.4497C130.951 76.972 132.081 79.5111 136.028 85.4322" stroke="black" stroke-width="2" stroke-linecap="round"/>
<path d="M136.828 66.2998C139.648 70.8221 141.103 73.0372 145.05 78.9583" stroke="black" stroke-width="2" stroke-linecap="round"/>
<path d="M196.648 112.218C193.359 104.981 184.524 89.831 175.502 87.1242C164.223 83.7408 154.355 78.6656 151.253 81.7671" stroke="black" stroke-width="2" stroke-linecap="round"/>
<path d="M190.727 150C181.14 146.992 160.501 137.368 154.637 122.932" stroke="black" stroke-width="2" stroke-linecap="round"/>
<path d="M150.408 128.854C151.16 132.707 154.468 139.117 161.686 133.929" stroke="black" stroke-width="2" stroke-linecap="round"/>
<path d="M138.283 93.6089C136.122 102.443 135.013 117.631 147.87 107.707" stroke="black" stroke-width="2" stroke-linecap="round"/>
<path d="M173.81 106.297C172.4 107.801 168.396 109.568 163.66 104.605C157.738 98.4021 151.253 74.154 139.411 80.357C127.569 86.56 152.099 108.271 152.945 115.601C153.791 122.932 154.637 126.88 150.408 128.853C146.178 130.827 142.231 127.725 143.077 111.654" stroke="black" stroke-width="2" stroke-linecap="round"/>
<path d="M69.563 55.5453C69.563 57.5696 71.204 59.2107 73.2284 59.2107C74.2679 59.2107 75.2063 58.778 75.8734 58.0829L73.2284 51.8799C71.204 51.8799 69.563 53.5209 69.563 55.5453Z" fill="#A0A0A0"/>
<path d="M83.6606 71.8983C83.6606 73.9226 85.3017 75.5637 87.3261 75.5637C89.1586 75.5637 90.6771 74.2188 90.9484 72.4622L85.3524 68.8091C84.335 69.4604 83.6606 70.6006 83.6606 71.8983Z" fill="#A0A0A0"/>
<path d="M139.539 39.1919C139.539 56.236 125.722 70.0528 108.678 70.0528C91.6343 70.0528 77.8174 56.236 77.8174 39.1919C77.8174 22.1479 91.6343 8.33105 108.678 8.33105C125.722 8.33105 139.539 22.1479 139.539 39.1919Z" stroke="black" stroke-width="2"/>
<circle cx="108.678" cy="39.1917" r="38.1917" stroke="black" stroke-width="2"/>
<path d="M102.778 77.7001C101.798 80.4309 100.894 82.3633 99.8104 84.0973C99.1344 85.1793 99.3488 86.6185 100.258 87.5136C104.365 91.5577 108.622 99.7663 101.691 109.557C93.9676 120.467 80.1142 114.924 73.9254 110.361C73.5791 110.106 73.3255 109.749 73.1804 109.344L55.7713 60.7531C55.6474 60.4071 55.6069 60.0371 55.6647 59.6742C56.8471 52.2499 61.4708 43.2617 69.9281 39.7501" stroke="#A0A0A0" stroke-width="2" stroke-linecap="round"/>
<path d="M117.193 67.7404C118.936 54.5473 115.037 39.7819 96.8163 31.1732C91.4959 28.6596 86.6118 27.4676 82.1786 27.2958" stroke="black" stroke-width="2" stroke-linecap="round"/>
<path d="M17.3798 66.3084C7.01125 88.2547 25.4139 101.863 36.9885 105.729C38.1986 106.133 38.944 107.39 38.8103 108.658C38.206 114.39 40.1297 123.435 51.7011 126.596C64.5959 130.119 71.7777 117.041 73.6608 109.586C73.7662 109.168 73.7354 108.732 73.5903 108.327L56.1812 59.7356C56.0573 59.3897 55.856 59.0801 55.5803 58.8371C46.4469 50.7858 27.02 45.904 17.3798 66.3084Z" stroke="#A0A0A0" stroke-width="2" stroke-linecap="round"/>
<path d="M56.5615 51.8752C54.0767 47.0285 51.5202 33.627 61.1721 18.7949" stroke="#A0A0A0" stroke-width="2" stroke-linecap="round"/>
<path d="M52.8706 55.0216C51.7122 49.6997 45.1766 37.7239 28.3018 32.3957" stroke="#A0A0A0" stroke-width="2" stroke-linecap="round"/>
<ellipse cx="37.1381" cy="65.1312" rx="3.66541" ry="3.66541" fill="#A0A0A0"/>
<ellipse cx="28.1156" cy="78.6654" rx="3.66541" ry="3.66541" fill="#A0A0A0"/>
<ellipse cx="43.3412" cy="79.7933" rx="3.66541" ry="3.66541" fill="#A0A0A0"/>
<ellipse cx="53.4916" cy="112.5" rx="3.66541" ry="3.66541" fill="#A0A0A0"/>
<ellipse cx="59.1307" cy="100.094" rx="3.66541" ry="3.66541" fill="#A0A0A0"/>
<ellipse cx="45.5971" cy="96.7103" rx="3.66541" ry="3.66541" fill="#A0A0A0"/>
<ellipse cx="71.5365" cy="69.079" rx="3.66541" ry="3.66541" fill="#A0A0A0"/>
<ellipse cx="87.3261" cy="104.605" rx="3.66541" ry="3.66541" fill="#A0A0A0"/>
<ellipse cx="96.3485" cy="93.891" rx="3.66541" ry="3.66541" fill="#A0A0A0"/>
<ellipse cx="107.063" cy="55.5452" rx="4.79323" ry="4.79323" fill="black"/>
<ellipse cx="91.8377" cy="44.2669" rx="4.79323" ry="4.79323" fill="black"/>
<ellipse cx="82.2509" cy="86.5599" rx="3.66541" ry="3.66541" fill="#A0A0A0"/>
</svg>
