<svg width="386" height="302" viewBox="0 0 386 302" fill="none" xmlns="http://www.w3.org/2000/svg">
<path d="M250.703 25.3642L269.585 10.1365" stroke="black" stroke-width="2" stroke-linecap="round"/>
<path d="M225.317 121.397C227.914 123.037 233.071 123.539 234.421 121.397C235.094 120.327 235.527 117.275 235.785 113.228C234.328 112.862 232.582 106.376 229.536 105.157C229.474 108.923 229.273 111.024 228.619 112.149C224.956 118.45 199.538 94.9547 195.492 93.2382C191.684 91.6226 166.199 98.6389 158.996 99.9787C153.234 101.05 151.405 97.8173 150.504 96.4775C150.809 99.2185 153.298 106.599 156.913 107.37C160.061 108.041 193.421 98.4102 196.674 100.833C206.485 108.14 223.171 120.04 225.317 121.397Z" fill="#A0A0A0"/>
<path d="M155.682 80.1837C157.895 76.0188 161.359 70.6187 163.581 67.3927C165.275 64.9329 166.855 61.8498 163.581 56.7333C159.489 50.3376 141.368 31.1508 154.92 30.0848C165.762 29.2321 186.956 34.6531 189.335 30.0849C194.411 20.3391 204.349 1.27403 210.806 2.97953C218.876 5.1114 220.524 35.8712 224.815 37.2417C229.107 38.6122 261.514 48.2056 252.073 55.6672C242.632 63.1287 227.689 67.3927 228.318 72.8746C228.666 75.9112 228.97 80.8597 229.172 86.2748M151.297 92.5181C150.519 97.3981 152.104 100.586 158.121 99.7175C176.777 97.0237 190.883 89.3915 197.254 93.881C203.625 98.3706 228.197 120.369 229.107 110.043C229.246 108.464 229.335 106.877 229.384 104.548" stroke="#A0A0A0" stroke-width="2" stroke-linecap="round"/>
<path d="M138.627 107.29C140.911 106.071 142.282 104.244 143.043 102.112C144.657 97.5919 145.881 95.3828 147.738 94.2784C149.595 93.1741 161.122 86.2319 160.367 91.7017C160.117 93.5122 157.95 93.7599 155.414 94.7674" stroke="black" stroke-width="2" stroke-linecap="round"/>
<path d="M252.682 64.3468C256.066 60.673 256.989 56.9734 255.768 54.0757C255.457 53.3377 254.362 53.4543 253.845 54.0653C249.771 58.8714 235.086 65.4223 229.303 69.9255C229.254 69.9636 229.211 70.0029 229.178 70.0555C228.815 70.632 228.239 72.9769 228.47 73.788C228.696 74.5773 229.026 81.1672 229.194 85.0819C229.216 85.5894 229.616 85.9919 230.108 86.1198C231.233 86.4124 232.866 87.1992 234.877 89.1985C235.614 89.931 237.106 89.3059 237.024 88.2701C236.626 83.281 236.626 77.4078 237.455 76.2244C239.332 73.5428 241.718 72.5698 244.307 70.8947C245.221 70.3035 248.634 68.7414 252.682 64.3468Z" fill="#A0A0A0"/>
<path d="M147.002 94.1938C148.419 91.7081 153.406 84.1858 161.011 86.8312" stroke="black" stroke-width="2" stroke-linecap="round"/>
<path d="M146.545 95.1072C147.886 91.0138 153.941 80.4645 159.793 82.9998" stroke="black" stroke-width="2" stroke-linecap="round"/>
<path d="M149.134 89.625C149.997 81.8971 152.372 74.2799 155.461 76.6719C155.891 77.1148 156.556 78.4656 155.783 80.3261" stroke="black" stroke-width="2" stroke-linecap="round"/>
<path d="M231.211 92.2373C228.037 91.0025 221.401 89.7866 220.247 94.8021" stroke="black" stroke-width="2" stroke-linecap="round"/>
<path d="M236.693 99.371C231.098 95.9029 220.737 91.641 221.506 98.3263" stroke="black" stroke-width="2" stroke-linecap="round"/>
<path d="M233.862 101.954C229.707 99.6684 221.872 96.5148 222.079 101.137C222.1 101.613 222.527 101.951 223.001 101.994C225.787 102.249 230.665 103.798 232.986 108.604C235.555 113.924 237.949 115.832 238.825 116.121" stroke="black" stroke-width="2" stroke-linecap="round"/>
<path d="M269.889 40.8966L280.853 37.8511" stroke="black" stroke-width="2" stroke-linecap="round"/>
<path d="M146.85 11.6594L136.799 1" stroke="black" stroke-width="2" stroke-linecap="round"/>
<path d="M130.404 25.3643L101.471 17.1414" stroke="black" stroke-width="2" stroke-linecap="round"/>
<path d="M128.576 48.5103L107.867 50.9467" stroke="black" stroke-width="2" stroke-linecap="round"/>
<path d="M150.497 170.931C140.845 158.539 141.593 140.483 143.878 129.921C145.277 125.176 153.076 101.969 136.397 112.94C128.739 117.977 96.3298 186.514 162.25 200.121C162.803 200.235 163.19 200.786 163.086 201.341C160.909 212.956 166.403 224.557 163.295 240.836" stroke="black" stroke-width="2" stroke-linecap="round"/>
<path d="M148.981 171.703C152.23 171.093 172.432 164.115 180.046 173.071" stroke="black" stroke-width="2" stroke-linecap="round"/>
<path d="M206.847 174.866C218.115 168.504 229.231 175.682 239.129 177.641" stroke="black" stroke-width="2" stroke-linecap="round"/>
<path d="M236.693 177.031C243.912 170.22 250.202 148.358 243.166 123.774C241.801 119.006 242.198 106.98 251.254 112.337C262.642 119.073 297.055 199.553 221.412 200.473C220.765 200.481 220.24 201.086 220.382 201.717C223.004 213.367 223.468 226.628 223.369 240.492" stroke="black" stroke-width="2" stroke-linecap="round"/>
<path d="M245.221 105.462C241.754 98.6565 234.513 85.5942 229.313 86.3031C228.273 86.4449 225.799 87.1538 224.815 88.7135" stroke="black" stroke-width="2" stroke-linecap="round"/>
<path d="M216.488 134.406C214.262 142.428 213.145 143.139 209.906 146.693C209.906 143.181 209.303 137.285 209.303 134.83C198.69 134.83 189.736 130.486 186.581 128.314C186.696 135.679 179.808 140.495 179.808 140.495C179.808 140.495 180.795 143.469 181.361 150.126C181.814 155.452 180.512 154.423 179.808 153.242C177.777 146.67 174.447 148.427 173.034 150.126C155.718 121.915 182.348 116.464 187.429 116.984C191.268 113.698 196.621 111.123 200.383 110.745C213.958 109.383 220.1 121.398 216.488 134.406Z" fill="black"/>
<path d="M179.742 158.437C181.586 169.579 193.959 177.591 202.888 168.565C211.818 159.539 210.03 143.018 209.076 135.308" stroke="black" stroke-width="2" stroke-linecap="round"/>
<path d="M202.19 176.109C203.091 173.409 202.27 171.592 201.469 171.246C196.662 175.815 189.372 174.119 186.668 171.349C185.707 172.263 186.267 174.967 186.668 175.798C191.875 181.78 199.286 178.429 202.19 176.109Z" fill="black"/>
<path d="M183.092 191.651L183.518 190.989C185.749 187.527 190.13 186.145 193.944 187.7V187.7C197.372 189.097 201.31 188.133 203.704 185.309L206.847 181.601" stroke="black" stroke-width="2" stroke-linecap="round"/>
<path d="M172.797 149.317C171.725 151.969 172.731 157.845 179.742 157.845" stroke="black" stroke-width="2" stroke-linecap="round"/>
<path d="M176.137 151.145C175.977 151.585 176.105 152.627 177.914 153.277" stroke="black" stroke-width="2" stroke-linecap="round"/>
<path d="M208.979 156.627C211.427 155.653 213.155 152.047 212.49 146.272" stroke="black" stroke-width="2" stroke-linecap="round"/>
<path d="M202.385 149.442C203.105 148.995 203.303 148.01 202.826 147.241C202.35 146.472 201.379 146.212 200.658 146.659C199.938 147.105 199.74 148.091 200.217 148.86C200.693 149.628 201.664 149.889 202.385 149.442Z" fill="black"/>
<path d="M189.867 150.621C190.733 150.203 191.156 149.287 190.812 148.574C190.469 147.861 189.488 147.622 188.623 148.039C187.757 148.457 187.334 149.373 187.678 150.086C188.021 150.799 189.002 151.038 189.867 150.621Z" fill="black"/>
<path d="M185.833 145.662C186.167 144.89 187.611 143.462 190.706 143.925" stroke="black" stroke-width="2" stroke-linecap="round"/>
<path d="M200.451 143.836C201.143 143.606 203.026 143.284 205.02 143.836" stroke="black" stroke-width="2" stroke-linecap="round"/>
<path d="M195.115 149.013C194.905 150.856 194.759 154.593 195.883 154.799" stroke="black" stroke-width="2" stroke-linecap="round"/>
<path d="M196.187 163.804C194.031 164.43 194.167 162.707 192.533 161.195" stroke="black" stroke-width="2" stroke-linecap="round"/>
<path d="M288.044 300.507L282.391 278.445C276.723 256.325 256.79 240.855 233.956 240.855H152.58C129.6 240.855 109.579 256.518 104.049 278.823L98.5508 301" stroke="#A0A0A0" stroke-width="2" stroke-linecap="round"/>
<path d="M105.797 267.667H49.0049C28.6258 267.667 10.286 280.035 2.64876 298.929L1.81152 301" stroke="#A0A0A0" stroke-width="2" stroke-linecap="round"/>
<path d="M284.783 282.521H358.057C369.639 282.521 380.065 289.543 384.42 300.275V300.275" stroke="#A0A0A0" stroke-width="2" stroke-linecap="round"/>
</svg>
