<svg width="575" height="301" viewBox="0 0 575 301" fill="none" xmlns="http://www.w3.org/2000/svg">
<path d="M169.267 194.813C175.588 197.366 190.382 198.895 198.039 194.813C210.314 188.269 212.868 147.438 214.291 138.33" stroke="black" stroke-width="2" stroke-linecap="round"/>
<path d="M439.31 222.467C416.645 210.225 395.48 189.778 390.11 173.788C387.614 165.294 381.521 154.051 391.303 143.059C401.085 132.066 410.093 139.978 413.371 145.307C418.232 153.047 431.786 170.298 444.766 179.445" stroke="black" stroke-width="2" stroke-linecap="round"/>
<path d="M534.075 227.278C531.739 232.266 528.468 245.387 534.075 257.965" stroke="black" stroke-width="2" stroke-linecap="round"/>
<path d="M500.103 164.224C513.968 158.324 523.065 168.295 529.189 173.005C539.944 182.426 562.63 204.328 569.224 215.632C572.05 219.243 583.12 236.121 551.797 258.965" stroke="black" stroke-width="2" stroke-linecap="round"/>
<path d="M559.327 262.597C563.983 266.863 569.95 276.186 556.584 279.35" stroke="black" stroke-width="2" stroke-linecap="round"/>
<path d="M559.701 271.558C558.932 267.744 555.771 260.549 548.951 258.239C547.83 257.859 546.61 257.612 545.286 257.532" stroke="black" stroke-width="2" stroke-linecap="round"/>
<path d="M546.158 229.87C537.272 235.541 528.394 256.511 541.113 270.836C553.831 285.16 558.805 286.416 559.701 285.253" stroke="black" stroke-width="2" stroke-linecap="round"/>
<path d="M511.39 201.818C515.197 208.909 526.76 223.278 542.558 224.026" stroke="black" stroke-width="2" stroke-linecap="round"/>
<path d="M380.493 144.612C376.548 136.936 364.49 130.991 362.085 129.052C358.849 126.441 359.691 124.629 361.04 124.163C362.613 123.696 365.67 124.303 368.007 126.727C370.345 129.152 371.679 128.203 372.053 127.426C372.203 127.038 372.413 125.235 372.053 121.132C371.694 117.029 365.086 114.605 365.086 111.807C365.086 108.637 367.483 108.933 368.682 109.476C370.929 110.487 375.649 113.346 376.548 116.703C376.763 118.186 377.669 121.616 379.578 123.471" stroke="black" stroke-width="2" stroke-linecap="round"/>
<path d="M383.141 121.314C382.429 119.158 380.415 115.07 376.787 117.095" stroke="black" stroke-width="2" stroke-linecap="round"/>
<path d="M386.847 122.373C386.847 120.711 387.034 117.433 381.552 117.614" stroke="black" stroke-width="2" stroke-linecap="round"/>
<path d="M395.85 132.434C393.675 130.143 391.227 126.834 390.684 123.271C390.309 120.819 387.511 119.114 385.789 119.199" stroke="black" stroke-width="2" stroke-linecap="round"/>
<path d="M269.619 134.942L262.443 162.791C261.841 165.129 265.127 166.335 266.179 164.163L279.683 136.314C280.327 134.986 279.36 133.441 277.883 133.441H271.556C270.643 133.441 269.847 134.059 269.619 134.942Z" fill="black"/>
<path d="M195.402 133.441H240.673C242.904 133.441 244.864 134.918 245.479 137.062L253.174 163.863C254.593 168.808 261.657 168.643 262.845 163.637L269.094 137.288C269.628 135.033 271.642 133.441 273.959 133.441H346.703" stroke="black" stroke-width="2" stroke-linecap="round"/>
<path d="M239.57 67.3027H389.791C392.552 67.3027 394.791 69.5413 394.791 72.3027V115.459" stroke="black" stroke-width="2" stroke-linecap="round"/>
<path d="M207.871 67.8315H162.566C159.805 67.8315 157.566 70.0701 157.566 72.8315V127.962C157.566 130.724 159.805 132.962 162.566 132.962H183.481" stroke="black" stroke-width="2" stroke-linecap="round"/>
<path d="M200.458 66.0629C202.793 61.0639 211.266 50.3818 224.826 54.4325C232.437 56.7058 237.223 62.7467 239.373 68.2211C240.648 71.4672 237.375 73.4747 234.717 71.2167C233.231 69.9541 231.69 68.4325 230.31 66.6751" stroke="black" stroke-width="2" stroke-linecap="round"/>
<path d="M209.989 67.3027C212.221 74.8095 218.095 90.3355 222.163 88.3014C224.598 87.0841 222.366 76.9398 220.337 73.3893" stroke="black" stroke-width="2" stroke-linecap="round"/>
<path d="M223.227 84.699C226.791 87.4491 232.137 86.2268 225.009 69.4204" stroke="black" stroke-width="2" stroke-linecap="round"/>
<path d="M229.051 82.4256C232.024 83.429 236.376 81.7031 230.007 66.7725" stroke="black" stroke-width="2" stroke-linecap="round"/>
<path d="M184.209 113.828C183.233 113.666 184.339 108.354 185.246 104.789C185.448 103.993 185.16 103.151 184.503 102.659L182.289 101.001C180.835 99.9121 181.468 97.6043 183.275 97.4094C184.703 97.2554 186.017 97.1129 186.744 97.0322C188.818 96.8021 189.048 92.2005 190.431 90.3598C191.352 89.1343 192.655 92.0733 193.465 94.5086C193.736 95.3236 194.465 95.9106 195.323 95.9534L198.454 96.1097C200.208 96.1973 201.012 98.3495 199.761 99.5836C198.511 100.817 197.351 101.994 196.883 102.554C195.731 103.935 199.649 111.067 200.109 113.828C200.57 116.589 192.044 108.996 191.583 108.306C191.122 107.616 185.592 114.058 184.209 113.828Z" fill="black" fill-opacity="0.5"/>
<path d="M237.122 97.3669L235.766 97.4871C234.821 97.5709 233.95 96.9798 233.633 96.0863C233.118 94.6361 232.363 92.7629 231.578 91.4864C230.621 89.9292 229.026 93.8105 228.049 96.8648C227.777 97.7179 226.994 98.313 226.1 98.3644C224.738 98.4428 222.859 98.6247 221.082 98.9964C217.816 99.6792 223.181 102.638 225.047 104.458C226.913 106.279 221.548 111.058 222.714 113.789C223.881 116.52 229.479 109.693 230.878 108.782C232.278 107.872 237.41 113.561 239.509 113.789C241.608 114.017 238.343 106.507 237.41 104.458C237.104 103.786 237.782 102.682 238.87 101.483C240.239 99.976 239.149 97.187 237.122 97.3669Z" fill="black" fill-opacity="0.6"/>
<path d="M317.609 97.3669L316.253 97.4871C315.309 97.5709 314.437 96.9798 314.12 96.0863C313.605 94.6361 312.851 92.7629 312.066 91.4864C311.108 89.9292 309.513 93.8105 308.537 96.8648C308.264 97.7179 307.482 98.313 306.588 98.3644C305.226 98.4428 303.347 98.6247 301.569 98.9964C298.303 99.6792 303.668 102.638 305.534 104.458C307.4 106.279 302.035 111.058 303.202 113.789C304.368 116.52 309.966 109.693 311.366 108.782C312.765 107.872 317.897 113.561 319.996 113.789C322.096 114.017 318.83 106.507 317.897 104.458C317.591 103.786 318.269 102.682 319.358 101.483C320.726 99.976 319.637 97.187 317.609 97.3669Z" fill="black" fill-opacity="0.8"/>
<path d="M283.781 97.2827C285.513 95.4663 280.26 95.9229 276.351 96.5398C275.425 96.686 274.503 96.197 274.214 95.3045C273.708 93.7348 273.372 92.1698 272.517 90.1969C271.468 87.7795 269.901 92.569 269.048 96.2678C268.822 97.2493 267.934 97.9463 266.927 97.9168C265.416 97.8725 263.503 97.8625 262.154 97.9911C259.676 98.2273 263.505 101.534 265.983 103.896C268.462 106.257 264.406 109.328 264.181 114.288C263.956 119.247 269.137 112.162 271.615 110.273C274.094 108.383 275.67 114.288 278.374 114.288C281.077 114.288 278.374 107.675 277.698 105.313C277.022 102.951 281.303 99.8807 283.781 97.2827Z" fill="black" fill-opacity="0.7"/>
<path d="M366.1 104.26C368.889 102.961 361.685 100.78 357.734 99.8524C357.889 98.3059 358.153 94.5631 357.967 91.9648C357.734 88.7168 353.087 95.9085 351.925 97.3004C350.763 98.6924 345.65 95.6767 342.397 95.2127C339.144 94.7488 344.024 99.8524 346.115 102.404C348.207 104.956 342.397 107.74 341.7 111.684C341.003 115.628 347.51 110.988 350.298 110.756C353.087 110.524 351.228 116.091 354.946 119.107C358.664 122.123 357.734 113.308 357.734 109.596C357.734 105.884 362.614 105.884 366.1 104.26Z" fill="black"/>
<path d="M366.726 86.8952L368.315 80.541" stroke="black" stroke-width="2" stroke-linecap="round"/>
<path d="M369.374 91.1308C371.622 89.7718 377.099 86.7041 381.023 85.3062" stroke="black" stroke-width="2" stroke-linecap="round"/>
<path d="M373.081 94.3081L379.435 95.8967" stroke="black" stroke-width="2" stroke-linecap="round"/>
<path d="M107.736 212.92H388.966" stroke="#A0A0A0" stroke-width="2" stroke-linecap="round"/>
<path d="M1 212.92H67.0341" stroke="#A0A0A0" stroke-width="2" stroke-linecap="round"/>
<path d="M9.47241 212.92V140.02C9.47241 131.736 16.1881 125.02 24.4724 125.02H47.5977" stroke="#A0A0A0" stroke-width="2" stroke-linecap="round"/>
<path d="M275.471 270.586C272.009 264.738 283.061 263.886 289.019 264.19V268.393L308.4 270.586C298.867 273.022 278.934 276.433 275.471 270.586Z" fill="#A0A0A0"/>
<path d="M316.94 262.429L310.108 270.398" stroke="#A0A0A0" stroke-width="2" stroke-linecap="round"/>
<path d="M308.4 247.628L289.615 246.489" stroke="#A0A0A0" stroke-width="2" stroke-linecap="round"/>
<path d="M297.015 241.366L316.939 241.935" stroke="#A0A0A0" stroke-width="2" stroke-linecap="round"/>
<path d="M289.615 246.489L288.476 267.552" stroke="#A0A0A0" stroke-width="2" stroke-linecap="round"/>
<path d="M316.939 242.505V262.429" stroke="#A0A0A0" stroke-width="2" stroke-linecap="round"/>
<path d="M310.108 254.459V270.398" stroke="#A0A0A0" stroke-width="2" stroke-linecap="round"/>
<path d="M289.615 246.49L297.015 241.366" stroke="#A0A0A0" stroke-width="2" stroke-linecap="round"/>
<path d="M310.108 270.398L287.907 267.552" stroke="#A0A0A0" stroke-width="2" stroke-linecap="round"/>
<path d="M193.411 295.647C193.595 290.625 214.295 292.239 215.589 292.418V295.647L221.873 299.951C212.324 300.191 193.263 299.665 193.411 295.647Z" fill="#A0A0A0"/>
<path d="M244.643 295.446V276.091" stroke="#A0A0A0" stroke-width="2" stroke-linecap="round"/>
<path d="M228.704 300V278.938" stroke="#A0A0A0" stroke-width="2" stroke-linecap="round"/>
<path d="M215.042 295.445V274.383" stroke="#A0A0A0" stroke-width="2" stroke-linecap="round"/>
<path d="M215.042 274.383L229.843 270.398" stroke="#A0A0A0" stroke-width="2" stroke-linecap="round"/>
<path d="M244.643 276.091L228.704 278.937" stroke="#A0A0A0" stroke-width="2" stroke-linecap="round"/>
<path d="M228.704 300L244.643 295.446" stroke="#A0A0A0" stroke-width="2" stroke-linecap="round"/>
<path d="M244.643 276.091L229.842 270.398" stroke="#A0A0A0" stroke-width="2" stroke-linecap="round"/>
<path d="M215.042 274.383L228.704 278.937" stroke="#A0A0A0" stroke-width="2" stroke-linecap="round"/>
<path d="M143.885 254.66C144.074 249.638 165.187 251.253 166.507 251.432V254.66L172.917 258.965C163.177 259.204 143.734 258.678 143.885 254.66Z" fill="#A0A0A0"/>
<path d="M195.687 254.459V235.673" stroke="#A0A0A0" stroke-width="2" stroke-linecap="round"/>
<path d="M179.178 259.013V238.52" stroke="#A0A0A0" stroke-width="2" stroke-linecap="round"/>
<path d="M166.085 254.459V233.396" stroke="#A0A0A0" stroke-width="2" stroke-linecap="round"/>
<path d="M179.178 259.013L195.687 254.459" stroke="#A0A0A0" stroke-width="2" stroke-linecap="round"/>
<path d="M195.687 235.673L179.178 238.52" stroke="#A0A0A0" stroke-width="2" stroke-linecap="round"/>
<path d="M166.085 233.397L180.317 229.981" stroke="#A0A0A0" stroke-width="2" stroke-linecap="round"/>
<path d="M195.687 235.674L180.317 229.981" stroke="#A0A0A0" stroke-width="2" stroke-linecap="round"/>
<path d="M166.085 233.965L179.178 238.519" stroke="#A0A0A0" stroke-width="2" stroke-linecap="round"/>
<path d="M188.863 217.106L182.207 227.532C181.525 228.6 181.996 230.025 183.18 230.477L193.726 234.501C194.639 234.849 195.67 234.487 196.164 233.644L202.446 222.936C203.077 221.861 202.581 220.477 201.412 220.047L191.24 216.305C190.358 215.981 189.369 216.314 188.863 217.106Z" stroke="#A0A0A0" stroke-width="2"/>
<path d="M440.912 87.2591C445.262 102.905 447.443 104.291 453.771 111.222C453.771 104.372 454.95 92.8744 454.95 88.0861C475.685 88.0861 493.18 79.6157 499.344 75.3798C499.119 89.7433 512.578 99.1351 512.578 99.1351C512.578 99.1351 510.649 104.936 509.544 117.918C508.658 128.304 511.201 126.297 512.578 123.995C516.547 111.178 523.051 114.603 525.812 117.918C559.645 62.9001 507.615 52.2695 497.687 53.2822C490.187 46.8739 479.728 41.852 472.378 41.1154C445.855 38.4589 433.855 61.891 440.912 87.2591Z" fill="black"/>
<path d="M512.558 134.184C508.936 156.031 484.634 171.742 467.095 154.043C449.555 136.345 453.067 103.949 454.94 88.8311" stroke="black" stroke-width="2" stroke-linecap="round"/>
<path d="M525.515 115.714C527.515 121.287 525.638 133.636 512.558 133.636" stroke="black" stroke-width="2" stroke-linecap="round"/>
<path d="M519.453 120C519.828 120.964 519.528 123.251 515.286 124.675" stroke="black" stroke-width="2" stroke-linecap="round"/>
<path d="M455.285 131.299C450.588 129.357 447.272 122.166 448.548 110.649" stroke="black" stroke-width="2" stroke-linecap="round"/>
<path d="M481.389 144.635C477.022 146.058 477.298 142.14 473.987 138.701" stroke="black" stroke-width="2" stroke-linecap="round"/>
<path d="M467.948 118.831C466.119 118.831 464.636 117.523 464.636 115.909C464.636 114.295 466.119 112.987 467.948 112.987C469.777 112.987 471.26 114.295 471.26 115.909C471.26 117.523 469.777 118.831 467.948 118.831Z" fill="black"/>
<path d="M493.857 118.831C492.136 118.831 490.74 117.784 490.74 116.493C490.74 115.202 492.136 114.156 493.857 114.156C495.579 114.156 496.974 115.202 496.974 116.493C496.974 117.784 495.579 118.831 493.857 118.831Z" fill="black"/>
<path d="M500.87 109.87C500.175 108.224 497.173 105.179 490.74 106.167" stroke="black" stroke-width="2" stroke-linecap="round"/>
<path d="M472.818 105.974C471.343 105.386 467.329 104.563 463.078 105.974" stroke="black" stroke-width="2" stroke-linecap="round"/>
<path d="M483.354 115.714C483.892 119.561 484.266 127.363 481.39 127.792" stroke="black" stroke-width="2" stroke-linecap="round"/>
<path d="M465.166 169.251C463.057 163.538 464.985 159.693 466.857 158.961C478.133 168.629 495.235 165.04 501.571 159.18C503.828 161.114 502.515 166.834 501.571 168.592C489.359 181.248 471.978 174.159 465.166 169.251Z" fill="black"/>
<path d="M464.247 168.701C454.51 171.064 437.396 189.375 450.969 260.26" stroke="black" stroke-width="2" stroke-linecap="round"/>
<circle cx="144.169" cy="58.3493" r="12.3776" stroke="black" stroke-width="2"/>
<circle cx="113.429" cy="58.3493" r="12.3776" stroke="black" stroke-width="2"/>
<path d="M126.807 55.9028C127.945 55.2974 130.564 54.5407 131.93 56.3568" stroke="black" stroke-width="2" stroke-linecap="round"/>
<ellipse cx="113.998" cy="59.4874" rx="3.13093" ry="3.13093" fill="black"/>
<ellipse cx="141.892" cy="59.4874" rx="3.13093" ry="3.13093" fill="black"/>
<path d="M139.33 52.3718C140.194 51.7646 142.655 50.4591 145.592 50.0947" stroke="black" stroke-width="2" stroke-linecap="round"/>
<path d="M112.006 50.2802C114.615 49.7481 118.41 50.2802 120.545 52.941" stroke="black" stroke-width="2" stroke-linecap="round"/>
<path d="M128.514 68.3055C130.164 68.3766 133.613 67.794 134.207 64.8955" stroke="black" stroke-width="2" stroke-linecap="round"/>
<path d="M120.544 78.5576C122.848 81.1563 122.784 83.4951 130.791 80.7232" stroke="black" stroke-width="2" stroke-linecap="round"/>
<path d="M148.113 70.0186C149.176 75.8284 147.969 81.3404 139.456 89.7115C129.661 99.3436 125.105 104.16 111.437 93.8395" stroke="black" stroke-width="2" stroke-linecap="round"/>
<path d="M148.929 76.85C146.009 39.5771 119.288 24.5316 105.98 21.577C98.1327 22.8497 93.8841 44.0044 83.9992 46.3229C81.0619 46.3229 78.3616 45.7433 77.0217 39.7538C69.904 7.93546 90.8476 6.65268 100.049 7.71328C152.976 -21.8318 181.324 40.4861 148.929 76.85Z" fill="black"/>
<path d="M82.4043 60.9106C82.4043 61.4799 82.4043 62.8461 82.4043 63.7569" stroke="black" stroke-width="2" stroke-linecap="round"/>
<path d="M101.19 55.2183H82.4043" stroke="black" stroke-width="2" stroke-linecap="round"/>
<path d="M84.9776 56.6777C81.7774 54.4273 76.3494 56.2078 78.2402 64.7153C79.4192 70.0203 84.8091 70.7705 85.8197 67.4482" stroke="black" stroke-width="2" stroke-linecap="round"/>
<path d="M90.9431 101.897C43.1271 101.897 42.9898 161.132 18.6471 185.009" stroke="black" stroke-width="2" stroke-linecap="round"/>
<path d="M133.416 146.102C124.788 148.196 111.027 147.045 104.543 145.978C103.84 145.862 103.218 146.469 103.329 147.173C104.574 155.127 107.858 184.326 107.227 210.928C107.215 211.414 107.55 211.837 108.031 211.91C111.442 212.429 119.142 212.909 123.711 212.241C124.082 212.187 124.38 211.917 124.489 211.559L126.387 205.309C129.439 198.388 132.575 174.254 134.716 147.183C134.772 146.479 134.102 145.936 133.416 146.102Z" fill="#A0A0A0"/>
<path d="M136.324 98.4819C138.089 117.81 133.662 185.844 124.701 211.753" stroke="black" stroke-width="2" stroke-linecap="round"/>
<path d="M94.9277 112.144C99.4875 128.859 109.407 176.369 107.169 212.532" stroke="black" stroke-width="2" stroke-linecap="round"/>
<path d="M96.6357 108.729C100.658 117.981 113.431 133.493 118.837 138.899" stroke="black" stroke-width="2" stroke-linecap="round"/>
<path d="M122.822 138.899C126.155 131.817 133.439 115.982 135.915 109.298" stroke="black" stroke-width="2" stroke-linecap="round"/>
<path d="M124.099 141.461C124.099 143.333 122.698 144.73 121.114 144.73C119.529 144.73 118.129 143.333 118.129 141.461C118.129 139.589 119.529 138.191 121.114 138.191C122.698 138.191 124.099 139.589 124.099 141.461Z" stroke="black" stroke-width="2"/>
<path d="M71.1847 206.641C71.1847 206.952 76.7293 212.03 77.7045 214.919C78.0659 215.989 77.7999 216.759 76.392 216.874C72.2261 217.215 67.2791 211.047 65.3264 207.92" stroke="black" stroke-width="2" stroke-linecap="round"/>
<path d="M77.2779 203.226C79.2769 206.305 82.7637 211.049 85.8198 213.741C85.5408 215.809 83.4438 218.954 77.2881 214.982C76.3504 212.179 71.0191 207.252 71.0191 206.95" stroke="black" stroke-width="2" stroke-linecap="round"/>
<path d="M82.7884 200.379C86.672 204.424 93.719 213.09 90.8381 215.393C90.3274 215.802 89.6761 215.841 88.9316 215.602C88.0446 215.317 87.0253 214.636 85.9539 213.713C82.8508 211.037 79.3104 206.32 77.2807 203.259" stroke="black" stroke-width="2" stroke-linecap="round"/>
<path d="M51.6642 208.031C58.1443 200.061 78.289 185.615 90.1223 196.076C94.8415 200.701 100.723 209.062 97.3421 212.478C95.6517 213.759 91.9923 212.051 89.6324 208.635" stroke="black" stroke-width="2" stroke-linecap="round"/>
<path d="M157.547 143.454C155.625 152.137 150.999 171.011 147.869 177.04" stroke="black" stroke-width="2" stroke-linecap="round"/>
<path d="M157.546 168.501C160.807 160.395 167.054 142.671 165.958 136.623" stroke="black" stroke-width="2" stroke-linecap="round"/>
<path d="M140.469 100.475C144.548 100.949 153.505 102.467 156.693 104.744" stroke="black" stroke-width="2" stroke-linecap="round"/>
</svg>
