<svg width="470" height="300" viewBox="0 0 470 300" fill="none" xmlns="http://www.w3.org/2000/svg">
<path d="M430.201 177.263C433.175 176.866 439.56 174.606 441.305 168.737" stroke="#A0A0A0" stroke-width="2" stroke-linecap="round"/>
<path d="M420.485 172.504C422.468 172.57 427.029 171.592 429.408 167.15" stroke="#A0A0A0" stroke-width="2" stroke-linecap="round"/>
<path d="M411.563 165.366C414.735 164.707 421.636 162.655 423.856 159.718" stroke="#A0A0A0" stroke-width="2" stroke-linecap="round"/>
<path d="M440.006 187.288C420.894 191.364 403.061 173.214 395.208 161.837C394.473 160.771 394.991 159.321 396.219 158.909L425.421 149.116C426.16 148.868 426.971 149.075 427.528 149.619C437.078 158.937 453.453 163.571 463.943 165.312C465.757 165.613 466.402 168.03 464.922 169.122L440.75 186.951C440.529 187.114 440.274 187.231 440.006 187.288Z" stroke="#A0A0A0" stroke-width="2" stroke-linecap="round"/>
<path d="M291.496 120.565C275.294 119.894 257.628 128.408 254.616 130.667C252.225 132.46 252.462 135.098 252.94 136.392C252.995 136.543 253.08 136.679 253.177 136.806L282.683 174.966C282.742 175.043 282.795 175.125 282.847 175.206C283.517 176.239 285.382 177.383 288.126 174.487C292.332 170.047 309.525 159.123 331.771 158.23C333.663 158.154 334.598 155.725 333.164 154.488L312.911 137.009" stroke="black" stroke-width="2" stroke-linecap="round"/>
<path d="M221.9 153.699C229.633 149.504 231.219 158.854 235.383 158.061C240.742 157.04 231.814 145.768 223.288 145.173C216.467 144.697 202.997 155.418 197.115 160.837C186.408 171.224 152.462 182.634 102.337 145.173" stroke="black" stroke-width="2" stroke-linecap="round"/>
<path d="M96.7439 76.1997C102.432 59.1521 97.1079 48.2032 93.7346 44.8594C104.778 55.1243 118.477 53.429 123.946 51.2982L123.54 59.3792C132.075 62.3493 136.995 50.9444 138.388 44.8701C140.537 35.499 132.984 21.4952 111.379 21.2392C89.775 20.9837 74.4657 35.3262 69.5114 42.5294C55.7988 34.9797 37.4032 42.2467 29.9194 46.824C22.1753 51.581 4.50448 67.3305 8.72471 90.6242C14.4185 122.051 49.2883 122.895 55.3721 121.388C76.3928 116.179 89.6331 97.5094 96.7439 76.1997Z" fill="black"/>
<path d="M125.776 79.7797C124.641 82.6145 122.956 84.8678 121.196 86.2335C119.416 87.6151 117.722 87.9831 116.428 87.4644C115.134 86.9458 114.163 85.5098 113.829 83.2805C113.499 81.077 113.834 78.2833 114.97 75.4485C116.105 72.6136 117.79 70.3604 119.55 68.9947C121.33 67.613 123.024 67.245 124.318 67.7637C125.612 68.2823 126.583 69.7184 126.917 71.9477C127.247 74.1512 126.911 76.9449 125.776 79.7797Z" stroke="black" stroke-width="2"/>
<path d="M122.206 79.6532C123.325 78.9599 123.671 77.4905 122.977 76.3711C122.284 75.2518 120.815 74.9064 119.695 75.5997C118.576 76.293 118.23 77.7624 118.924 78.8817C119.617 80.0011 121.086 80.3465 122.206 79.6532Z" fill="black"/>
<path d="M97.3563 74.7836L114.05 76.7204" stroke="black" stroke-width="2" stroke-linecap="round"/>
<path d="M125.383 60.2234C126.104 63.35 128.74 70.4349 132.197 74.8731C135.734 79.4122 135.04 83.9583 131.485 86.5054L125.931 90.522C123.951 109.471 117.171 122.236 93.1668 123.209" stroke="black" stroke-width="2" stroke-linecap="round"/>
<path d="M60.9589 140.21L77.236 147.861C77.7644 148.11 78.3582 147.696 78.315 147.109L77.0845 130.516C77.039 129.901 77.6886 129.487 78.2201 129.793L89.6535 136.379" stroke="black" stroke-width="2" stroke-linecap="round"/>
<path d="M85.7676 123.182C86.878 124.306 88.5445 126.173 90.2497 128.411C92.5908 131.482 95.0048 135.254 96.1546 138.762" stroke="black" stroke-width="2" stroke-linecap="round"/>
<path d="M91.3816 149.28C92.4341 148.97 92.9858 147.695 92.6139 146.432C92.2419 145.169 91.0872 144.396 90.0347 144.706C88.9821 145.016 88.4304 146.291 88.8024 147.554C89.1743 148.818 90.3291 149.59 91.3816 149.28Z" fill="black"/>
<path d="M97.002 159.223C97.9493 158.944 98.4157 157.694 98.0438 156.431C97.6718 155.168 96.6024 154.37 95.6551 154.649C94.7079 154.928 94.2415 156.178 94.6134 157.441C94.9853 158.704 96.0548 159.501 97.002 159.223Z" fill="black"/>
<path d="M111.587 102.683C110.979 104.131 110.883 107.401 115.368 108.895" stroke="black" stroke-width="2" stroke-linecap="round"/>
<path d="M196.182 235.76C194.888 227.5 195.276 224.488 196.182 221.678C190.984 231.313 183.517 235.435 180.062 237.54C178.648 242.968 176.52 255.679 183.635 258.94C192.528 263.017 197.774 245.918 196.182 235.76Z" fill="#A0A0A0"/>
<path d="M171.02 214.481C173.66 214.087 179.171 212.87 181.026 220.108C183.345 229.155 171.348 259.771 186.174 259.387C198.035 259.079 197.619 236.607 195.727 225.048" stroke="black" stroke-width="2" stroke-linecap="round"/>
<path d="M201.278 189.556C198.105 188.962 198.105 185.194 198.105 181.824C200.165 180.502 205.045 176.073 206.235 173.099C208.813 181.823 206.204 190.479 201.278 189.556Z" fill="#A0A0A0"/>
<path d="M206.083 173.297C208.584 181.903 205.672 190.755 201.279 189.556C198.646 188.838 197.853 184.766 197.614 181.228C197.183 175.082 196.916 162.114 199.296 159.418" stroke="black" stroke-width="2" stroke-linecap="round"/>
<path d="M172.816 259.395C127.851 237.377 48.5562 311.242 67.8599 164.481" stroke="black" stroke-width="2" stroke-linecap="round"/>
<path d="M54.7593 145.689C18.0979 187.402 31.3776 231.902 5.63032 267.662" stroke="black" stroke-width="2" stroke-linecap="round"/>
<path d="M226.063 145.768C231.814 143.983 234.391 145.768 238.159 154.294" stroke="black" stroke-width="2" stroke-linecap="round"/>
<path d="M216.546 154.353C221.622 153.877 226.107 155.344 228.046 157.128C233.003 161.689 228.641 163.672 221.701 160.896C218.148 159.474 218.138 164.249 213.325 165.492C210.914 166.115 208.538 167.45 207.572 169.745C205.686 174.229 202.389 179.695 197.908 181.228" stroke="black" stroke-width="2" stroke-linecap="round"/>
<path d="M214.96 193.324C215.819 192.266 217.047 191.338 217.736 190.944C219.124 190.151 224.477 192.927 221.107 188.168C217.087 182.493 203.261 192.2 197.313 198.677C181.451 212.953 137.488 233.821 110.046 208.442" stroke="black" stroke-width="2" stroke-linecap="round"/>
<path d="M212.382 194.315C215.621 193.985 222.058 194.037 221.9 196.893" stroke="black" stroke-width="2" stroke-linecap="round"/>
<path d="M214.365 198.082C217.406 197.091 223.446 196.06 223.288 199.867" stroke="black" stroke-width="2" stroke-linecap="round"/>
<path d="M216.348 201.057C219.52 199.735 225.072 199.272 226.064 204.626C226.196 205.948 225.786 208.036 223.089 205.815C220.393 203.595 217.075 205.683 215.753 207.005C212.779 209.781 205.799 215.452 201.675 215.928C196.916 223 185.932 236.946 180.062 236.152" stroke="black" stroke-width="2" stroke-linecap="round"/>
<path d="M115.027 199.202C155.476 225.375 164.399 195.237 194.934 195.237" stroke="black" stroke-width="2" stroke-linecap="round"/>
<path d="M214.86 261.314L209.079 262.47C208.441 262.598 207.853 262.091 207.884 261.441L209.763 223.001C209.823 221.767 211.628 221.717 211.756 222.946L215.658 260.229C215.712 260.743 215.366 261.213 214.86 261.314Z" fill="#A0A0A0"/>
<path d="M219.124 254.196L353.924 225.95C355.166 225.69 356.334 226.638 356.334 227.907V228.39C356.334 229.333 355.676 230.147 354.755 230.345L216.984 260.019C215.739 260.287 214.563 259.338 214.563 258.064V255.584L210.994 212.358" stroke="black" stroke-width="2" stroke-linecap="round"/>
<path d="M221.106 242.893L349.77 216.616C351.009 216.362 352.17 217.31 352.17 218.575V225.445" stroke="black" stroke-width="2" stroke-linecap="round"/>
<path d="M210.598 187.574L208.615 168.34" stroke="black" stroke-width="2" stroke-linecap="round"/>
<path d="M289.712 180.832C291.496 178.386 297.603 172.702 307.755 169.53C320.445 165.564 350.584 150.892 352.765 180.832C352.897 188.631 352.765 195.108 350.187 215.729" stroke="black" stroke-width="2" stroke-linecap="round"/>
<path d="M275.03 182.418C275.03 182.621 274.852 183.053 274.002 183.493C273.202 183.908 272.028 184.194 270.677 184.194C269.325 184.194 268.151 183.908 267.352 183.493C266.502 183.053 266.323 182.621 266.323 182.418C266.323 182.215 266.502 181.783 267.352 181.343C268.151 180.928 269.325 180.642 270.677 180.642C272.028 180.642 273.202 180.928 274.002 181.343C274.852 181.783 275.03 182.215 275.03 182.418Z" stroke="black" stroke-width="2"/>
<path d="M271.065 176.469C271.065 176.672 270.886 177.104 270.036 177.544C269.237 177.959 268.063 178.245 266.711 178.245C265.359 178.245 264.185 177.959 263.386 177.544C262.536 177.104 262.357 176.672 262.357 176.469C262.357 176.266 262.536 175.835 263.386 175.394C264.185 174.98 265.359 174.693 266.711 174.693C268.063 174.693 269.237 174.98 270.036 175.394C270.886 175.835 271.065 176.266 271.065 176.469Z" stroke="black" stroke-width="2"/>
<path d="M267.099 170.521C267.099 170.724 266.92 171.156 266.071 171.596C265.271 172.011 264.097 172.297 262.746 172.297C261.394 172.297 260.22 172.011 259.42 171.596C258.571 171.156 258.392 170.724 258.392 170.521C258.392 170.318 258.571 169.886 259.42 169.446C260.22 169.031 261.394 168.745 262.746 168.745C264.097 168.745 265.271 169.031 266.071 169.446C266.92 169.886 267.099 170.318 267.099 170.521Z" stroke="black" stroke-width="2"/>
<path d="M263.133 164.771C263.133 164.921 262.997 165.303 262.22 165.706C261.492 166.085 260.418 166.349 259.176 166.349C257.935 166.349 256.86 166.085 256.132 165.706C255.356 165.303 255.219 164.921 255.219 164.771C255.219 164.621 255.356 164.239 256.132 163.836C256.86 163.457 257.935 163.193 259.176 163.193C260.418 163.193 261.492 163.457 262.22 163.836C262.997 164.239 263.133 164.621 263.133 164.771Z" stroke="black" stroke-width="2"/>
<path d="M259.168 159.021C259.168 159.117 259.073 159.45 258.369 159.817C257.714 160.159 256.739 160.4 255.607 160.4C254.476 160.4 253.501 160.159 252.845 159.817C252.141 159.45 252.047 159.117 252.047 159.021C252.047 158.924 252.141 158.592 252.845 158.225C253.501 157.883 254.476 157.642 255.607 157.642C256.739 157.642 257.714 157.883 258.369 158.225C259.073 158.592 259.168 158.924 259.168 159.021Z" stroke="black" stroke-width="2"/>
<path d="M255.202 153.271C255.202 153.315 255.15 153.597 254.519 153.927C253.935 154.233 253.06 154.452 252.038 154.452C251.017 154.452 250.142 154.233 249.558 153.927C248.927 153.597 248.875 153.315 248.875 153.271C248.875 153.227 248.927 152.945 249.558 152.615C250.142 152.309 251.017 152.09 252.038 152.09C253.06 152.09 253.935 152.309 254.519 152.615C255.15 152.945 255.202 153.227 255.202 153.271Z" stroke="black" stroke-width="2"/>
<path d="M265.116 192.729C265.116 192.931 264.937 193.363 264.088 193.804C263.288 194.218 262.114 194.504 260.763 194.504C259.411 194.504 258.237 194.218 257.438 193.804C256.588 193.363 256.409 192.931 256.409 192.729C256.409 192.526 256.588 192.094 257.438 191.653C258.237 191.239 259.411 190.953 260.763 190.953C262.114 190.953 263.288 191.239 264.088 191.653C264.937 192.094 265.116 192.526 265.116 192.729Z" stroke="black" stroke-width="2"/>
<path d="M261.547 186.78C261.547 186.983 261.369 187.415 260.519 187.855C259.72 188.27 258.546 188.556 257.194 188.556C255.842 188.556 254.668 188.27 253.869 187.855C253.019 187.415 252.84 186.983 252.84 186.78C252.84 186.578 253.019 186.146 253.869 185.705C254.668 185.291 255.842 185.004 257.194 185.004C258.546 185.004 259.72 185.291 260.519 185.705C261.369 186.146 261.547 186.578 261.547 186.78Z" stroke="black" stroke-width="2"/>
<path d="M258.771 180.832C258.771 181.034 258.592 181.466 257.743 181.907C256.943 182.321 255.769 182.608 254.418 182.608C253.066 182.608 251.892 182.321 251.092 181.907C250.243 181.466 250.064 181.034 250.064 180.832C250.064 180.629 250.243 180.197 251.092 179.756C251.892 179.342 253.066 179.056 254.418 179.056C255.769 179.056 256.943 179.342 257.743 179.756C258.592 180.197 258.771 180.629 258.771 180.832Z" stroke="black" stroke-width="2"/>
<path d="M255.599 174.685C255.599 174.835 255.463 175.217 254.686 175.621C253.958 175.999 252.884 176.263 251.642 176.263C250.4 176.263 249.326 175.999 248.598 175.621C247.822 175.217 247.685 174.835 247.685 174.685C247.685 174.536 247.822 174.154 248.598 173.75C249.326 173.371 250.4 173.107 251.642 173.107C252.884 173.107 253.958 173.371 254.686 173.75C255.463 174.154 255.599 174.536 255.599 174.685Z" stroke="black" stroke-width="2"/>
<path d="M252.427 168.935C252.427 169.032 252.332 169.364 251.628 169.731C250.973 170.073 249.998 170.314 248.866 170.314C247.734 170.314 246.759 170.073 246.104 169.731C245.4 169.364 245.306 169.032 245.306 168.935C245.306 168.839 245.4 168.506 246.104 168.139C246.759 167.797 247.734 167.556 248.866 167.556C249.998 167.556 250.973 167.797 251.628 168.139C252.332 168.506 252.427 168.839 252.427 168.935Z" stroke="black" stroke-width="2"/>
<path d="M249.651 163.581C249.651 163.625 249.598 163.907 248.967 164.238C248.384 164.544 247.508 164.763 246.487 164.763C245.465 164.763 244.59 164.544 244.006 164.238C243.376 163.907 243.323 163.625 243.323 163.581C243.323 163.538 243.376 163.255 244.006 162.925C244.59 162.619 245.465 162.4 246.487 162.4C247.508 162.4 248.384 162.619 248.967 162.925C249.598 163.255 249.651 163.538 249.651 163.581Z" stroke="black" stroke-width="2"/>
<path d="M247.668 158.823C247.668 158.867 247.615 159.149 246.984 159.479C246.401 159.785 245.525 160.004 244.504 160.004C243.482 160.004 242.607 159.785 242.023 159.479C241.393 159.149 241.34 158.867 241.34 158.823C241.34 158.779 241.393 158.497 242.023 158.166C242.607 157.861 243.482 157.642 244.504 157.642C245.525 157.642 246.401 157.861 246.984 158.166C247.615 158.497 247.668 158.779 247.668 158.823Z" stroke="black" stroke-width="2"/>
<path d="M245.685 154.064C245.685 154.108 245.632 154.39 245.001 154.72C244.418 155.026 243.542 155.245 242.521 155.245C241.499 155.245 240.624 155.026 240.041 154.72C239.41 154.39 239.357 154.108 239.357 154.064C239.357 154.02 239.41 153.738 240.041 153.407C240.624 153.102 241.499 152.883 242.521 152.883C243.542 152.883 244.418 153.102 245.001 153.407C245.632 153.738 245.685 154.02 245.685 154.064Z" stroke="black" stroke-width="2"/>
<path d="M253.616 201.849C253.616 202.052 253.437 202.484 252.587 202.924C251.788 203.339 250.614 203.625 249.262 203.625C247.911 203.625 246.737 203.339 245.937 202.924C245.088 202.484 244.909 202.052 244.909 201.849C244.909 201.646 245.088 201.215 245.937 200.774C246.737 200.359 247.911 200.073 249.262 200.073C250.614 200.073 251.788 200.359 252.587 200.774C253.437 201.215 253.616 201.646 253.616 201.849Z" stroke="black" stroke-width="2"/>
<path d="M251.633 194.711C251.633 194.914 251.455 195.346 250.605 195.787C249.806 196.201 248.631 196.487 247.28 196.487C245.928 196.487 244.754 196.201 243.955 195.787C243.105 195.346 242.926 194.914 242.926 194.711C242.926 194.509 243.105 194.077 243.955 193.636C244.754 193.222 245.928 192.936 247.28 192.936C248.631 192.936 249.806 193.222 250.605 193.636C251.455 194.077 251.633 194.509 251.633 194.711Z" stroke="black" stroke-width="2"/>
<path d="M249.254 187.97C249.254 188.173 249.075 188.604 248.226 189.045C247.426 189.459 246.252 189.746 244.9 189.746C243.549 189.746 242.375 189.459 241.575 189.045C240.726 188.604 240.547 188.173 240.547 187.97C240.547 187.767 240.726 187.335 241.575 186.895C242.375 186.48 243.549 186.194 244.9 186.194C246.252 186.194 247.426 186.48 248.226 186.895C249.075 187.335 249.254 187.767 249.254 187.97Z" stroke="black" stroke-width="2"/>
<path d="M246.874 181.823C246.874 181.973 246.738 182.355 245.961 182.759C245.234 183.137 244.159 183.401 242.917 183.401C241.676 183.401 240.601 183.137 239.874 182.759C239.097 182.355 238.96 181.973 238.96 181.823C238.96 181.674 239.097 181.292 239.874 180.888C240.601 180.509 241.676 180.246 242.917 180.246C244.159 180.246 245.234 180.509 245.961 180.888C246.738 181.292 246.874 181.674 246.874 181.823Z" stroke="black" stroke-width="2"/>
<path d="M244.098 176.073C244.098 176.169 244.004 176.501 243.3 176.869C242.645 177.211 241.67 177.452 240.538 177.452C239.406 177.452 238.431 177.211 237.776 176.869C237.072 176.501 236.978 176.169 236.978 176.073C236.978 175.976 237.072 175.644 237.776 175.277C238.431 174.935 239.406 174.693 240.538 174.693C241.67 174.693 242.645 174.935 243.3 175.277C244.004 175.644 244.098 175.976 244.098 176.073Z" stroke="black" stroke-width="2"/>
<path d="M241.323 170.72C241.323 170.763 241.27 171.046 240.639 171.376C240.056 171.682 239.181 171.901 238.159 171.901C237.137 171.901 236.262 171.682 235.679 171.376C235.048 171.046 234.995 170.763 234.995 170.72C234.995 170.676 235.048 170.394 235.679 170.063C236.262 169.758 237.137 169.539 238.159 169.539C239.181 169.539 240.056 169.758 240.639 170.063C241.27 170.394 241.323 170.676 241.323 170.72Z" stroke="black" stroke-width="2"/>
<path d="M239.34 165.961C239.34 166.005 239.287 166.287 238.656 166.617C238.073 166.923 237.198 167.142 236.176 167.142C235.154 167.142 234.279 166.923 233.696 166.617C233.065 166.287 233.012 166.005 233.012 165.961C233.012 165.917 233.065 165.635 233.696 165.304C234.279 164.999 235.154 164.78 236.176 164.78C237.198 164.78 238.073 164.999 238.656 165.304C239.287 165.635 239.34 165.917 239.34 165.961Z" stroke="black" stroke-width="2"/>
<path d="M237.357 161.202C237.357 161.246 237.304 161.528 236.673 161.859C236.09 162.164 235.215 162.383 234.193 162.383C233.172 162.383 232.296 162.164 231.713 161.859C231.082 161.528 231.029 161.246 231.029 161.202C231.029 161.158 231.082 160.876 231.713 160.546C232.296 160.24 233.172 160.021 234.193 160.021C235.215 160.021 236.09 160.24 236.673 160.546C237.304 160.876 237.357 161.158 237.357 161.202Z" stroke="black" stroke-width="2"/>
<path d="M240.926 205.419C240.926 205.621 240.747 206.053 239.898 206.494C239.098 206.908 237.924 207.194 236.572 207.194C235.221 207.194 234.047 206.908 233.247 206.494C232.398 206.053 232.219 205.621 232.219 205.419C232.219 205.216 232.398 204.784 233.247 204.343C234.047 203.929 235.221 203.643 236.572 203.643C237.924 203.643 239.098 203.929 239.898 204.343C240.747 204.784 240.926 205.216 240.926 205.419Z" stroke="black" stroke-width="2"/>
<path d="M238.943 198.28C238.943 198.483 238.765 198.915 237.915 199.355C237.116 199.77 235.942 200.056 234.59 200.056C233.238 200.056 232.064 199.77 231.265 199.355C230.415 198.915 230.236 198.483 230.236 198.28C230.236 198.078 230.415 197.646 231.265 197.205C232.064 196.791 233.238 196.504 234.59 196.504C235.942 196.504 237.116 196.791 237.915 197.205C238.765 197.646 238.943 198.078 238.943 198.28Z" stroke="black" stroke-width="2"/>
<path d="M236.564 191.539C236.564 191.742 236.385 192.174 235.536 192.614C234.736 193.029 233.562 193.315 232.211 193.315C230.859 193.315 229.685 193.029 228.885 192.614C228.036 192.174 227.857 191.742 227.857 191.539C227.857 191.336 228.036 190.904 228.885 190.464C229.685 190.049 230.859 189.763 232.211 189.763C233.562 189.763 234.736 190.049 235.536 190.464C236.385 190.904 236.564 191.336 236.564 191.539Z" stroke="black" stroke-width="2"/>
<path d="M234.185 185.393C234.185 185.542 234.048 185.924 233.271 186.328C232.544 186.706 231.469 186.97 230.228 186.97C228.986 186.97 227.911 186.706 227.184 186.328C226.407 185.924 226.271 185.542 226.271 185.393C226.271 185.243 226.407 184.861 227.184 184.457C227.911 184.079 228.986 183.815 230.228 183.815C231.469 183.815 232.544 184.079 233.271 184.457C234.048 184.861 234.185 185.243 234.185 185.393Z" stroke="black" stroke-width="2"/>
<path d="M232.598 179.642C232.598 179.739 232.504 180.071 231.8 180.438C231.145 180.78 230.17 181.021 229.038 181.021C227.906 181.021 226.931 180.78 226.276 180.438C225.572 180.071 225.478 179.739 225.478 179.642C225.478 179.546 225.572 179.213 226.276 178.846C226.931 178.504 227.906 178.263 229.038 178.263C230.17 178.263 231.145 178.504 231.8 178.846C232.504 179.213 232.598 179.546 232.598 179.642Z" stroke="black" stroke-width="2"/>
<path d="M230.615 174.289C230.615 174.332 230.563 174.615 229.932 174.945C229.348 175.251 228.473 175.47 227.451 175.47C226.43 175.47 225.555 175.251 224.971 174.945C224.34 174.615 224.288 174.332 224.288 174.289C224.288 174.245 224.34 173.962 224.971 173.632C225.555 173.326 226.43 173.107 227.451 173.107C228.473 173.107 229.348 173.326 229.932 173.632C230.563 173.962 230.615 174.245 230.615 174.289Z" stroke="black" stroke-width="2"/>
<path d="M229.426 169.53C229.426 169.574 229.373 169.856 228.742 170.186C228.159 170.492 227.284 170.711 226.262 170.711C225.24 170.711 224.365 170.492 223.782 170.186C223.151 169.856 223.098 169.574 223.098 169.53C223.098 169.486 223.151 169.204 223.782 168.873C224.365 168.568 225.24 168.349 226.262 168.349C227.284 168.349 228.159 168.568 228.742 168.873C229.373 169.204 229.426 169.486 229.426 169.53Z" stroke="black" stroke-width="2"/>
<path d="M228.236 164.771C228.236 164.815 228.183 165.097 227.552 165.427C226.969 165.733 226.094 165.952 225.072 165.952C224.05 165.952 223.175 165.733 222.592 165.427C221.961 165.097 221.908 164.815 221.908 164.771C221.908 164.727 221.961 164.445 222.592 164.115C223.175 163.809 224.05 163.59 225.072 163.59C226.094 163.59 226.969 163.809 227.552 164.115C228.183 164.445 228.236 164.727 228.236 164.771Z" stroke="black" stroke-width="2"/>
<path d="M216.546 185.789L214.853 175.124C214.69 174.093 215.347 173.109 216.362 172.865L217.481 172.597C218.592 172.33 219.699 173.046 219.913 174.167L225.072 201.255" stroke="black" stroke-width="2" stroke-linecap="round"/>
<path d="M228.046 217.514C239.414 214.209 265.759 205.657 280.987 186.78" stroke="black" stroke-width="2" stroke-linecap="round"/>
<path d="M238.357 148.512C241.662 147.388 247.28 144.546 250.452 138.003" stroke="black" stroke-width="2" stroke-linecap="round"/>
<path d="M290.041 156.332C288.527 157.225 286.582 158.751 285.172 159.935C284.661 160.364 283.876 160.2 283.593 159.595L273.796 138.686C273.306 137.641 274.682 136.735 275.449 137.597L290.425 154.446C290.918 155 290.68 155.955 290.041 156.332Z" fill="#A0A0A0"/>
<path d="M282.829 159.138C279.285 154.755 270.303 143.849 265.073 137.513C264.613 136.956 264.476 136.177 264.941 135.625C266.045 134.312 268.143 133.22 269.809 132.708C270.462 132.508 271.15 132.761 271.605 133.272L289.354 153.241C290.34 154.35 289.906 156.361 288.689 157.21C287.715 157.889 286.687 158.689 285.793 159.42C284.897 160.154 283.557 160.039 282.829 159.138Z" stroke="black" stroke-width="2" stroke-linecap="round"/>
<ellipse cx="331.945" cy="181.427" rx="9.91402" ry="10.1123" fill="#A0A0A0"/>
<path d="M289.514 130.667C290.59 119.781 296.877 97.8911 313.425 93.8236C314.842 93.4752 316.308 93.9472 317.427 94.8853C321.239 98.0833 327.553 102.945 334.233 107.014C337.643 109.091 337.954 114.312 334.708 116.639C323.398 124.748 308.859 137.333 306.962 147.322" stroke="#A0A0A0" stroke-width="2" stroke-linecap="round"/>
<path d="M290.108 126.106C289.283 126.107 288.171 126.297 287.303 126.878C286.6 127.348 286.703 128.317 287.266 128.948C292.524 134.843 301.635 143.389 305.315 147.139C306.126 147.966 307.488 148.006 308.551 147.546C308.603 147.524 308.655 147.502 308.707 147.481C310.011 146.959 310.625 145.51 309.792 144.379L308.747 142.96" stroke="black" stroke-width="2" stroke-linecap="round"/>
<path d="M295.858 126.503C297.379 128.354 301.331 132.689 304.979 135.227" stroke="#A0A0A0" stroke-width="2" stroke-linecap="round"/>
<path d="M297.445 118.572C299.56 121.179 305.059 127.289 310.135 130.865" stroke="#A0A0A0" stroke-width="2" stroke-linecap="round"/>
<path d="M311.721 101.123C313.836 103.731 319.335 109.84 324.411 113.416" stroke="#A0A0A0" stroke-width="2" stroke-linecap="round"/>
<path d="M299.031 110.641C301.873 113.921 309.262 121.607 316.083 126.107" stroke="#A0A0A0" stroke-width="2" stroke-linecap="round"/>
<path d="M303.393 103.899C306.566 107.6 314.417 115.479 322.031 120.554" stroke="#A0A0A0" stroke-width="2" stroke-linecap="round"/>
<path d="M331.945 194.116C334.589 194.447 340.313 193.72 342.058 188.168" stroke="black" stroke-width="2" stroke-linecap="round"/>
<path d="M272.759 72.544C273.185 72.0301 273.835 71.7646 274.501 71.8172C282.861 72.4776 294.971 71.3029 296.456 65.1926C298.006 58.8185 292.089 56.4874 288.936 56.1185C277.036 54.2532 261.289 55.1078 261.023 64.9393" stroke="#A0A0A0" stroke-width="2" stroke-linecap="round"/>
<path d="M271.074 66.0274C271.84 66.0274 272.461 65.406 272.461 64.6394C272.461 63.8729 271.84 63.2515 271.074 63.2515C270.307 63.2515 269.686 63.8729 269.686 64.6394C269.686 65.406 270.307 66.0274 271.074 66.0274Z" fill="black"/>
<path d="M280.393 64.6394C280.393 65.3135 279.854 66.0274 279.005 66.0274C278.155 66.0274 277.617 65.3135 277.617 64.6394C277.617 63.9653 278.155 63.2515 279.005 63.2515C279.854 63.2515 280.393 63.9653 280.393 64.6394Z" fill="black"/>
<path d="M287.332 66.0274C288.099 66.0274 288.72 65.406 288.72 64.6394C288.72 63.8729 288.099 63.2515 287.332 63.2515C286.566 63.2515 285.944 63.8729 285.944 64.6394C285.944 65.406 286.566 66.0274 287.332 66.0274Z" fill="black"/>
<path d="M418.228 84.553C418.076 85.0695 418.14 85.6227 418.393 86.098C421.612 92.1453 424.686 101.622 420.586 104.727C416.315 107.961 412.643 104.287 411.342 102.045C406.088 93.7598 401.617 81.7295 408.809 78.2939" stroke="#A0A0A0" stroke-width="2" stroke-linecap="round"/>
<path d="M409.878 86.4754C410.127 87.0497 410.795 87.3131 411.369 87.0638C411.943 86.8144 412.207 86.1468 411.957 85.5725C411.708 84.9982 411.04 84.7348 410.466 84.9842C409.892 85.2335 409.628 85.9012 409.878 86.4754Z" fill="black"/>
<path d="M413.949 93.0056C413.444 93.2249 412.734 93.0537 412.457 92.4173C412.181 91.7809 412.541 91.1453 413.046 90.9261C413.551 90.7068 414.261 90.878 414.537 91.5144C414.813 92.1508 414.454 92.7864 413.949 93.0056Z" fill="black"/>
<path d="M415.166 98.6561C415.416 99.2304 416.083 99.4938 416.658 99.2444C417.232 98.9951 417.495 98.3274 417.246 97.7532C416.997 97.1789 416.329 96.9155 415.755 97.1648C415.18 97.4142 414.917 98.0818 415.166 98.6561Z" fill="black"/>
<path d="M356.43 91.8563C356.915 91.4983 357.209 90.9421 357.253 90.3409C357.683 84.4982 359.717 76.4148 363.992 76.0023C368.504 75.567 369.496 79.8988 369.428 82.1191C369.495 90.5572 367.309 101.392 360.548 100.566" stroke="#A0A0A0" stroke-width="2" stroke-linecap="round"/>
<path d="M363.436 93.9774C363.515 93.4356 363.14 92.9321 362.598 92.8527C362.057 92.7734 361.553 93.1482 361.474 93.69C361.394 94.2317 361.769 94.7352 362.311 94.8146C362.853 94.894 363.356 94.5191 363.436 93.9774Z" fill="black"/>
<path d="M363.403 87.3596C363.88 87.4294 364.328 87.8838 364.24 88.4842C364.152 89.0846 363.592 89.3912 363.116 89.3214C362.639 89.2516 362.191 88.7972 362.278 88.1968C362.366 87.5964 362.927 87.2898 363.403 87.3596Z" fill="black"/>
<path d="M365.045 82.991C365.124 82.4493 364.75 81.9458 364.208 81.8664C363.666 81.787 363.163 82.1619 363.083 82.7036C363.004 83.2454 363.379 83.7489 363.92 83.8283C364.462 83.9076 364.966 83.5328 365.045 82.991Z" fill="black"/>
<path d="M374.059 125.518C371.809 124.802 371.031 126.08 370.887 127.611C370.802 128.508 369.7 129.285 368.826 129.067C367.701 128.788 366.58 128.901 366.127 130.078C365.408 131.948 369.854 134.069 372.808 135.138C373.29 135.312 373.823 135.072 374.017 134.597C376.551 128.395 375.135 125.961 374.059 125.518Z" fill="black"/>
<path d="M335.195 43.0328C332.945 42.3169 332.168 43.5956 332.024 45.1259C331.939 46.0226 330.836 46.8001 329.962 46.5826C328.838 46.3029 327.717 46.4159 327.264 47.5933C326.545 49.4636 330.991 51.5842 333.945 52.6528C334.427 52.8274 334.96 52.5873 335.154 52.1123C337.688 45.9096 336.272 43.4761 335.195 43.0328Z" fill="black"/>
<path d="M400.154 128.684L430.094 123.727" stroke="#A0A0A0" stroke-width="2" stroke-linecap="round"/>
<path d="M384.292 72.1743L413.637 49.5703" stroke="#A0A0A0" stroke-width="2" stroke-linecap="round"/>
<path d="M335.515 86.054L348.006 51.5532" stroke="#A0A0A0" stroke-width="2" stroke-linecap="round"/>
<path d="M314.1 66.8205L311.721 47.9839" stroke="#A0A0A0" stroke-width="2" stroke-linecap="round"/>
</svg>
