<svg width="24" height="24" viewBox="0 0 24 24" fill="none" xmlns="http://www.w3.org/2000/svg">
<path d="M3.77086 21.1546C11.0491 22.698 21.4339 21.7773 21.4339 16.3608V4.63375C21.4339 3.93962 21.3581 3.30535 21.1917 2.76787M3.77086 21.1546C1.9934 20.7777 0.973585 18.7264 1.08749 16.688C1.2668 13.479 1.15721 9.43135 1.00513 6.21507C0.87809 3.52811 3.12891 1.16316 5.51029 1.25008C9.76594 1.40542 15.377 1.20229 18.7912 1.00542C20.0864 0.930734 20.8406 1.63385 21.1917 2.76787M3.77086 21.1546C4.56586 21.4723 5.49168 21.7879 6.5 22.0658M21.1917 2.76787C23.1097 4.18217 23.13 12.4191 22.9004 16.3608C20.8478 24.0194 12.3061 23.6662 6.5 22.0658M21.1917 2.76787C21.7612 4.51192 22.7203 9.67216 22 16.3608C21.2797 23.0494 11.3665 22.9511 6.5 22.0658M14.5351 9.82954C14.5696 10.8743 14.8108 13.3683 15.496 15.3254C15.5244 15.4064 15.3954 15.5243 15.3107 15.4956C14.0216 15.0581 11.1194 14.7084 9.29482 14.7561M15.0013 15.1397C12.8046 13.2291 8.37337 8.96326 7.5 6.5" stroke="black" stroke-linecap="round"/>
</svg>
