<svg width="24" height="24" viewBox="0 0 24 24" fill="none" xmlns="http://www.w3.org/2000/svg">
<path d="M4.52737 11.3358C3.9727 12.4992 3.37988 15.1803 5.44595 16.5981M5.67831 14.8162C5.53293 15.7889 5.68624 17.5284 6.24647 18.7455C6.94676 20.2668 9.20556 22.9961 12.9666 23C15.005 23.0001 18.2818 21.9974 19 16.7521M11.665 13.0965C11.6036 13.3618 11.3858 13.541 11.1784 13.4968M11.665 13.0965C11.7264 12.8312 11.608 12.5804 11.4007 12.5362M11.665 13.0965L10.9141 12.9365M11.1784 13.4968C10.9711 13.4527 10.8527 13.2018 10.9141 12.9365M11.1784 13.4968L11.4007 12.5362M10.9141 12.9365C10.9755 12.6713 11.1933 12.492 11.4007 12.5362M17.5049 13.5324C17.4435 13.7977 17.2443 13.9809 17.06 13.9416M17.5049 13.5324C17.5662 13.2671 17.4666 13.0203 17.2823 12.981M17.5049 13.5324L16.8374 13.3902M17.06 13.9416C16.8757 13.9024 16.776 13.6555 16.8374 13.3902M17.06 13.9416L17.2823 12.981M16.8374 13.3902C16.8988 13.125 17.098 12.9417 17.2823 12.981M14.1622 13.6976C14.2615 14.7881 15.1034 17.4055 13.0963 16.7811M9.96235 11.7543C10.0537 11.55 11.0981 10.3917 12.1694 11.4197M15.9188 11.7543C15.9188 11.4196 17.5257 10.9056 18.1856 11.7543M14 19.5C12.5 20 11.7778 19.486 10.9141 19M15 4.5C15.5 4 16.5 3 15.5 2M19.2323 5.87468C19.4764 6.50278 19.8182 8.0831 19.2323 9.3795M17.5 6.5C17.8333 6.16667 18.3 5.1 17.5 3.5M4.97558 11.8859C4.84836 11.4164 4.63467 10.9826 4.31298 11.0113C4.24007 11.0178 4.16222 10.9788 4.1475 10.9018C3.84195 9.30466 3.82077 6.18267 6.01077 5.32461C6.03235 5.31616 6.05175 5.30119 6.06602 5.28186C6.30364 4.95979 6.91699 4.31765 7.67218 4.06053C7.7036 4.04983 7.72951 4.02638 7.74552 3.99543C7.94227 3.61507 8.568 2.88273 9.71025 2.6426C11.2019 2.329 15.0065 0.803818 13.7494 3.96746C13.4787 4.60595 12.6115 5.8196 11.282 5.65416C11.2396 5.64888 11.1974 5.6676 11.1666 5.69941C11.0015 5.86985 10.5896 6.08997 9.9181 5.9466C9.8691 5.93614 9.81902 5.95786 9.79032 6.00178C9.46333 6.50226 8.65552 7.26862 7.62738 6.93924C7.56094 6.91796 7.4871 6.95829 7.44356 7.01624C7.34921 7.14184 7.14432 7.27739 6.766 7.27075C6.70109 7.26961 6.64425 7.32051 6.63778 7.38988C6.58147 7.99357 6.41293 9.09608 6.1003 9.52022C5.80619 9.91923 5.69853 10.9032 5.67339 11.5122C5.66925 11.6124 5.54004 11.7149 5.46658 11.7769C5.42979 11.808 5.39097 11.8541 5.35159 11.9197C5.27968 12.0395 5.01266 12.0228 4.97558 11.8859Z" stroke="black" stroke-linecap="round"/>
</svg>
