<svg width="24" height="24" viewBox="0 0 24 24" fill="none" xmlns="http://www.w3.org/2000/svg">
<path d="M13.2643 9.22166C13.2643 9.41708 13.1036 9.5755 12.9053 9.5755C12.707 9.5755 12.5463 9.41708 12.5463 9.22166C12.5463 9.02623 12.707 8.86781 12.9053 8.86781C13.1036 8.86781 13.2643 9.02623 13.2643 9.22166Z" fill="black"/>
<path d="M8.19017 9.22166C8.19017 9.41708 8.02943 9.5755 7.83115 9.5755C7.63287 9.5755 7.47213 9.41708 7.47213 9.22166C7.47213 9.02623 7.63287 8.86781 7.83115 8.86781C8.02943 8.86781 8.19017 9.02623 8.19017 9.22166Z" fill="black"/>
<path d="M19.7451 8.3925C19.7904 8.54218 19.8343 8.69179 19.8767 8.84128M19.7451 8.3925L16.0668 9.87478M19.7451 8.3925C19.7104 8.2384 19.6731 8.08735 19.6335 7.93931M11.4123 1.118C11.3876 1.11749 11.3648 1.11527 11.3406 1.111C11.1375 1.07527 10.9183 1.0466 10.6869 1.02736M11.4123 1.118C11.8312 1.12662 12.3361 1.18538 12.889 1.31157M11.4123 1.118L10.1186 3.12751M3.9901 18.9149C4.03847 18.6876 4.08377 18.4704 4.12613 18.2627M3.9901 18.9149L8.94348 17.0025M3.9901 18.9149C3.95115 19.0979 3.89366 19.2946 3.82566 19.5M3.06061 22.7893C3.11643 22.9666 3.31853 23.032 3.50093 22.9855C3.73878 22.9248 4.02322 22.8595 4.33227 22.7959M3.06061 22.7893C3.0031 22.6067 2.98954 22.4 3.00727 22.1771M3.06061 22.7893L8.70781 20.2563M9.28296 17.384C9.27035 17.1979 9.12658 17.05 8.94348 17.0025M9.28296 17.384L3.82566 19.5M9.28296 17.384C9.29498 17.5613 9.29763 17.7365 9.29193 17.9092M8.94348 17.0025C8.75266 16.9529 8.53809 16.8864 8.31278 16.8004M5.80431 14.2102C5.79931 14.1831 5.79736 14.156 5.79807 14.1284C5.80162 13.9897 5.80468 13.8411 5.80729 13.6845M5.80431 14.2102L4.66493 14.5M5.80431 14.2102C5.84618 14.4377 5.91304 14.6489 6 14.8448M5.79701 7.51825C5.79701 7.43196 5.80488 7.33464 5.82046 7.22836M5.79701 7.51825L3.99637 6.8435M5.79701 7.51825C5.79701 7.58063 5.7976 7.68237 5.7986 7.81679M10.1186 3.12751C10.2142 3.13776 10.3028 3.18398 10.3693 3.25239M10.1186 3.12751C10.0166 3.11657 9.91626 3.11086 9.8175 3.11007M10.3693 3.25239L10.8116 3.7073M10.3693 3.25239L12.889 1.31157M15.8974 8.93807C15.9667 9.00935 16.0092 9.10108 16.0173 9.19945M15.8974 8.93807L19.3359 7M15.8974 8.93807L15.6669 8.70104M16.0173 9.19945C16.0251 9.29354 16.0329 9.39412 16.0408 9.5M16.0173 9.19945L19.5061 7.5M18.7222 22.4166C18.2567 22.3076 17.7937 22.2258 17.4593 22.1771C17.4052 22.1692 17.353 22.152 17.3053 22.1256L17.2458 22.0927C17.1802 22.0564 17.1042 22.0379 17.029 22.0352C16.7722 22.0259 16.5326 21.9861 16.3091 21.9204M18.7222 22.4166C19.0831 22.501 19.4456 22.6017 19.7509 22.7158C20.0652 22.8333 20.5032 22.669 20.5651 22.3435C20.5878 22.2243 20.6102 22.0994 20.6322 21.9691M18.7222 22.4166L20.6322 21.9691M20.6322 21.9691C20.6447 21.8952 20.657 21.8196 20.6692 21.7423M20.706 21.5H15.4565M20.706 21.5C20.6939 21.5825 20.6816 21.6633 20.6692 21.7423M20.706 21.5C20.7343 21.3061 20.7616 21.1026 20.7872 20.8902M15.4565 21.5C15.71 21.6831 15.9934 21.8276 16.3091 21.9204M15.4565 21.5C15.2563 21.3553 15.0747 21.1865 14.9106 21M16.3091 21.9204L20.6692 21.7423M20.7872 20.8902L14.9106 21M20.7872 20.8902C20.809 20.71 20.8296 20.5233 20.8489 20.3306M14.9106 21C14.8226 20.9 14.7396 20.7948 14.6614 20.6856M14.6614 20.6856L20.8489 20.3306M14.6614 20.6856C14.5632 20.5483 14.4726 20.4046 14.3893 20.2563M20.8489 20.3306C20.8666 20.1529 20.8832 19.9701 20.8983 19.7824M20.8983 19.7824L14.3893 20.2563M20.8983 19.7824C20.9143 19.5849 20.9287 19.382 20.9413 19.1741M14.3893 20.2563C14.3029 20.1024 14.2243 19.9437 14.1531 19.7824M14.1531 19.7824L20.9413 19.1741M14.1531 19.7824C14.0741 19.6031 14.0042 19.4206 13.9429 19.2379M20.9413 19.1741C20.9677 18.7381 20.9863 18.28 20.9948 17.8028M20.9749 18.5L13.9429 19.2379M13.9429 19.2379C13.8206 18.8731 13.7327 18.5074 13.6747 18.165M13.786 18.6983L20.9948 17.8028M20.9948 17.8028C20.9983 17.6059 21.0001 17.4056 21 17.2024M21 17.2024L13.6747 18.165M21 17.2024C20.9999 16.972 20.9974 16.7378 20.9922 16.5M13.6747 18.165C13.6479 18.0062 13.6274 17.8525 13.6129 17.7062M13.6129 17.7062L20.9922 16.5M13.6129 17.7062C13.595 17.5255 13.5862 17.356 13.5857 17.2024M20.9922 16.5C20.9892 16.362 20.9853 16.2228 20.9805 16.0824M20.9805 16.0824L13.5857 17.2024M20.9805 16.0824C20.9725 15.8502 20.9619 15.6149 20.9486 15.3768M13.5857 17.2024C13.5852 17.0337 13.5946 16.8841 13.6129 16.7595M13.6129 16.7595C13.6407 16.5702 13.6889 16.4386 13.7537 16.3858C13.9327 16.2399 14.1153 16.081 14.2956 15.9128M13.6129 16.7595L20.9486 15.3768M20.9486 15.3768C20.937 15.1698 20.9234 14.9606 20.9075 14.7496M20.9075 14.7496L14.2956 15.9128M20.9075 14.7496C20.8919 14.5429 20.8743 14.3345 20.8543 14.1243M14.2956 15.9128C14.4782 15.7424 14.6585 15.5625 14.8305 15.3768M14.8305 15.3768L20.8543 14.1243M14.8305 15.3768C15.0485 15.1414 15.253 14.8967 15.4317 14.6506M20.8543 14.1243C20.8324 13.8935 20.8078 13.6606 20.7803 13.426M20.7803 13.426L15.4317 14.6506M20.7803 13.426C20.757 13.2275 20.7317 13.0277 20.7042 12.8268M15.4317 14.6506C15.5593 14.475 15.6737 14.2986 15.7705 14.1243M15.7705 14.1243C15.8679 13.9487 15.9475 13.7753 16.0045 13.6069C16.0089 13.5939 16.0131 13.5803 16.0173 13.5662M15.7705 14.1243L20.7042 12.8268M20.7042 12.8268C20.6845 12.6831 20.6637 12.5388 20.6418 12.3939M20.6418 12.3939L16.0173 13.5662M20.6418 12.3939C20.6166 12.2274 20.5899 12.0601 20.5616 11.8922M16.0173 13.5662C16.0518 13.4494 16.0781 13.2956 16.0976 13.1143M16.0976 13.1143L20.5616 11.8922M16.0976 13.1143C16.1123 12.9778 16.1231 12.8258 16.1306 12.6623M20.5616 11.8922C20.5278 11.6921 20.4919 11.4911 20.4536 11.2894M20.4536 11.2894L16.1306 12.6623M20.4536 11.2894C20.4177 11.1004 20.3798 10.9106 20.3398 10.7204M16.1306 12.6623C16.1378 12.5063 16.142 12.34 16.1436 12.1667M16.1436 12.1667L20.3398 10.7204M16.1436 12.1667C16.1448 12.047 16.1447 11.924 16.1436 11.799M20.3398 10.7204C20.3107 10.5819 20.2804 10.4432 20.249 10.3042M20.249 10.3042L16.1436 11.799M20.249 10.3042C20.2114 10.138 20.1722 9.97138 20.1313 9.80448M16.1436 11.799C16.1422 11.6319 16.1389 11.4611 16.1341 11.2894M16.1341 11.2894L20.1313 9.80448M16.1341 11.2894C16.13 11.1425 16.1248 10.995 16.1188 10.8485M20.1313 9.80448C20.0894 9.63329 20.0456 9.46179 20 9.29006M20 9.29006L16.1188 10.8485M20 9.29006C19.9603 9.14062 19.9192 8.99101 19.8767 8.84128M16.1188 10.8485C16.1125 10.6962 16.1054 10.545 16.0976 10.397M16.0976 10.397L19.8767 8.84128M16.0976 10.397C16.0881 10.2171 16.0777 10.0419 16.0668 9.87478M16.0668 9.87478C16.0584 9.74431 16.0496 9.61882 16.0408 9.5M16.0408 9.5L19.6335 7.93931M19.6335 7.93931C19.5934 7.78983 19.5509 7.64341 19.5061 7.5M19.5061 7.5C19.4526 7.3291 19.3958 7.16246 19.3359 7M19.3359 7C19.286 6.86458 19.2338 6.73207 19.1797 6.60239M19.1797 6.60239L15.6669 8.70104M19.1797 6.60239C19.1221 6.4645 19.0621 6.32983 19 6.19831M15.6669 8.70104L15.3669 8.3925M15.3669 8.3925L19 6.19831M15.3669 8.3925L15.0896 8.10729M19 6.19831C18.9325 6.05536 18.8624 5.91613 18.7899 5.78055M18.7899 5.78055L15.0896 8.10729M18.7899 5.78055C18.7227 5.65483 18.6534 5.53224 18.5822 5.41272M15.0896 8.10729L14.8072 7.81679M14.8072 7.81679L18.5822 5.41272M14.8072 7.81679L14.4991 7.5M18.5822 5.41272C18.4977 5.27087 18.4106 5.13333 18.321 5M18.321 5L14.4991 7.5M18.321 5C18.23 4.86464 18.1365 4.73362 18.0407 4.60681M14.4991 7.5L14.235 7.22836M14.235 7.22836L18.0407 4.60681M14.235 7.22836L13.8608 6.8435M18.0407 4.60681C17.9479 4.48393 17.8529 4.365 17.7561 4.24993M17.7561 4.24993L13.8608 6.8435M17.7561 4.24993C17.6721 4.15012 17.5867 4.05322 17.5 3.95914M13.8608 6.8435L13.5269 6.5M13.5269 6.5L17.5 3.95914M13.5269 6.5L13.2335 6.19831M17.5 3.95914C17.3888 3.83848 17.2755 3.72248 17.1605 3.61098M17.1605 3.61098L13.2335 6.19831M17.1605 3.61098C17.0313 3.48584 16.9 3.36638 16.7668 3.25239M13.2335 6.19831L12.889 5.84396M12.889 5.84396L16.7668 3.25239M12.889 5.84396L12.5546 5.5M16.7668 3.25239C16.6326 3.13754 16.4966 3.02824 16.3593 2.92428M16.3593 2.92428L12.5546 5.5M16.3593 2.92428C16.2263 2.82364 16.0921 2.72801 15.957 2.6372M12.5546 5.5L12.2645 5.20169M12.2645 5.20169L15.957 2.6372M12.2645 5.20169L11.91 4.837M15.957 2.6372C15.7617 2.50585 15.5645 2.38459 15.3669 2.27283M15.3669 2.27283L11.91 4.837M15.3669 2.27283C15.2187 2.189 15.0702 2.11052 14.922 2.03714M11.91 4.837L11.6861 4.60681M11.6861 4.60681L14.922 2.03714M11.6861 4.60681L11.2539 4.1622M14.922 2.03714C14.6917 1.92316 14.462 1.82148 14.235 1.7312M14.235 1.7312L11.2539 4.1622M14.235 1.7312C13.9952 1.63583 13.7584 1.55317 13.5269 1.48214M11.2539 4.1622L10.8116 3.7073M10.8116 3.7073L13.5269 1.48214M13.5269 1.48214C13.3089 1.41527 13.0956 1.35871 12.889 1.31157M10.6869 1.02736L9.8175 3.11007M10.6869 1.02736C10.4677 1.00913 10.2376 0.999354 10 1.00003M9.8175 3.11007C9.74637 3.1095 9.67608 3.11148 9.60663 3.11589M9.60663 3.11589L10 1.00003M9.60663 3.11589C9.44718 3.12602 9.29219 3.14898 9.14176 3.18337M10 1.00003C9.72233 1.00083 9.43443 1.0159 9.14176 1.04843M9.14176 1.04843L9.36455 3.11007M9.14176 1.04843C8.9817 1.06622 8.82022 1.08924 8.6582 1.118M9.14176 3.18337L8.6582 1.118M9.14176 3.18337C9.02434 3.21021 8.9097 3.244 8.79789 3.28409M8.6582 1.118C8.38876 1.16583 8.11785 1.22955 7.84957 1.31157M7.84957 1.31157L8.79789 3.28409M7.84957 1.31157C7.64196 1.37503 7.43594 1.44944 7.23339 1.53592M8.79789 3.28409C8.66309 3.33242 8.53241 3.3899 8.40592 3.45534M8.40592 3.45534L7.23339 1.53592M8.40592 3.45534C8.26235 3.52963 8.12419 3.61419 7.99157 3.7073M7.23339 1.53592C7.02686 1.62409 6.82394 1.72482 6.62666 1.83926M6.62666 1.83926L7.99157 3.7073M6.62666 1.83926C6.47402 1.92781 6.32475 2.02457 6.17979 2.13009M7.99157 3.7073C7.88012 3.78554 7.77259 3.86983 7.66905 3.95914M7.66905 3.95914L6.17979 2.13009M7.66905 3.95914C7.56243 4.05111 7.46003 4.14841 7.36195 4.24993M6.17979 2.13009C6.02452 2.24312 5.8742 2.3662 5.72996 2.5M5.72996 2.5L7.36195 4.24993M5.72996 2.5C5.58955 2.63026 5.45491 2.77067 5.32711 2.92187M7.36195 4.24993C7.25166 4.36409 7.14683 4.48358 7.04757 4.60681M7.04757 4.60681L5.32711 2.92187M7.04757 4.60681C6.94479 4.73444 6.84798 4.86609 6.75729 5M5.32711 2.92187C5.18784 3.08663 5.05668 3.26418 4.93501 3.45534M4.93501 3.45534L6.75729 5M4.93501 3.45534C4.83417 3.61378 4.73984 3.78156 4.65281 3.95914M6.75729 5C6.6807 5.1131 6.60847 5.22781 6.54068 5.34308M6.54068 5.34308L4.65281 3.95914M6.54068 5.34308C6.45707 5.48525 6.38022 5.62826 6.31027 5.77014M4.65281 3.95914C4.56897 4.1302 4.49191 4.31035 4.42231 4.5M4.42231 4.5L6.31027 5.77014M4.42231 4.5C4.36365 4.65984 4.3103 4.82642 4.26267 5M6.31027 5.77014C6.2279 5.93723 6.1551 6.10275 6.09213 6.26344M6.09213 6.26344L4.26267 5M6.09213 6.26344C6.01248 6.46669 5.94855 6.66223 5.90083 6.8435M4.26267 5C4.21859 5.16062 4.17942 5.32722 4.14547 5.5M4.14547 5.5L5.90083 6.8435M4.14547 5.5C4.10178 5.72239 4.06676 5.95503 4.0411 6.19831M5.90083 6.8435C5.86465 6.98095 5.83779 7.11019 5.82046 7.22836M5.82046 7.22836L4.0411 6.19831M4.0411 6.19831C4.01924 6.40556 4.00419 6.62054 3.99637 6.8435M3.99637 6.8435C3.99221 6.96206 3.9901 7.08288 3.9901 7.206C3.9901 7.95794 4.00568 8.60438 4.03211 9.16639M5.7986 7.81679L4 7.5L3.9901 8L5.80145 8.16991M5.7986 7.81679C5.79935 7.91719 5.80033 8.03583 5.80145 8.16991M5.80145 8.16991C5.80229 8.27148 5.80323 8.38192 5.80421 8.5M5.80421 8.5H4L4.03211 9.16639M5.80421 8.5C5.80571 8.67988 5.80733 8.8775 5.80894 9.08858M4.03211 9.16639L5.80894 9.08858M4.03211 9.16639C4.03906 9.31433 4.04677 9.45642 4.05515 9.59304M5.80894 9.08858C5.80994 9.22079 5.81095 9.35828 5.81193 9.5M4.05515 9.59304L5.81193 9.5M4.05515 9.59304C4.06704 9.78702 4.08027 9.96998 4.0946 10.143M5.81193 9.5C5.81285 9.63469 5.81375 9.77319 5.8146 9.91461M5.8146 9.91461L4.0946 10.143M5.8146 9.91461C5.81573 10.1052 5.81677 10.3011 5.81765 10.5M4.0946 10.143C4.11258 10.3602 4.13229 10.5618 4.15324 10.7499M4.15324 10.7499L5.81765 10.5M4.15324 10.7499C4.17362 10.933 4.19518 11.1033 4.21746 11.2629M5.81765 10.5C5.81816 10.6149 5.81861 10.7308 5.819 10.8473M5.819 10.8473L4.21746 11.2629M5.819 10.8473C5.81959 11.0241 5.82003 11.2023 5.82027 11.3803M4.21746 11.2629C4.23906 11.4176 4.26133 11.5623 4.28388 11.6986M4.28388 11.6986L5.82027 11.3803M4.28388 11.6986C4.33007 11.978 4.37739 12.2227 4.42231 12.4484M5.82027 11.3803C5.82055 11.5875 5.82058 11.7945 5.82027 11.999M5.82027 11.999L4.42231 12.4484M5.82027 11.999C5.81994 12.2186 5.81924 12.4353 5.81807 12.6462M4.42231 12.4484C4.46105 12.643 4.498 12.8235 4.5309 13M4.5309 13L5.81807 12.6462M4.5309 13C4.55493 13.1289 4.5768 13.2557 4.59562 13.3842M5.81807 12.6462C5.81695 12.8478 5.81542 13.044 5.81339 13.2325M5.81339 13.2325L4.59562 13.3842M5.81339 13.2325C5.81171 13.3891 5.80969 13.5402 5.80729 13.6845M4.59562 13.3842C4.61979 13.5492 4.63893 13.7171 4.65118 13.8963M4.65118 13.8963L5.80729 13.6845M4.65118 13.8963C4.66389 14.0823 4.66917 14.2804 4.66493 14.5M4.66493 14.5C4.66154 14.6751 4.65211 14.8637 4.63556 15.0708M4.63556 15.0708L6 14.8448M4.63556 15.0708C4.61847 15.2845 4.59379 15.5178 4.56037 15.7759M6 14.8448C6.08512 15.0365 6.1895 15.2135 6.30852 15.3768M4.56037 15.7759L6.30852 15.3768M4.56037 15.7759C4.54043 15.9298 4.51739 16.0925 4.49098 16.2651M6.30852 15.3768C6.36879 15.4595 6.43282 15.5386 6.5 15.6143M6.5 15.6143L4.49098 16.2651M6.5 15.6143C6.63613 15.7677 6.78523 15.9072 6.94233 16.0336M4.49098 16.2651C4.46705 16.4215 4.44037 16.5861 4.41074 16.7595M4.41074 16.7595L6.94233 16.0336M4.41074 16.7595C4.38658 16.9011 4.36045 17.0485 4.33227 17.2024M6.94233 16.0336C7.07588 16.141 7.2152 16.2391 7.35725 16.3283M7.35725 16.3283L4.33227 17.2024M7.35725 16.3283C7.49748 16.4164 7.64036 16.496 7.78295 16.5675M4.33227 17.2024C4.29724 17.3936 4.25903 17.5948 4.21746 17.8067M4.21746 17.8067L7.78295 16.5675M4.21746 17.8067C4.18865 17.9534 4.15823 18.1054 4.12613 18.2627M7.78295 16.5675C7.96196 16.6573 8.14051 16.7346 8.31278 16.8004M8.31278 16.8004L4.12613 18.2627M3.82566 19.5C3.75305 19.7193 3.66844 19.9486 3.58162 20.1817M3.58162 20.1817L9.29193 17.9092M3.58162 20.1817C3.50702 20.3821 3.43079 20.5853 3.35912 20.7876M9.29193 17.9092C9.28531 18.1097 9.26743 18.3068 9.23985 18.5M9.23985 18.5L3.35912 20.7876M9.23985 18.5C9.2156 18.6699 9.18385 18.8367 9.14566 19M3.35912 20.7876C3.27374 21.0285 3.19482 21.2681 3.13285 21.5M3.13285 21.5L9.14566 19M3.13285 21.5C3.06976 21.736 3.02421 21.964 3.00727 22.1771M9.14566 19C9.10575 19.1707 9.05881 19.3375 9.00606 19.5M9.00606 19.5L3.00727 22.1771M9.00606 19.5C8.92027 19.7643 8.81911 20.0171 8.70781 20.2563M8.70781 20.2563C8.55975 20.5745 8.39374 20.8687 8.22209 21.1339M8.22209 21.1339L4.33227 22.7959M8.22209 21.1339C8.04581 21.4063 7.86358 21.648 7.68873 21.8537M4.33227 22.7959C4.95128 22.6686 5.66897 22.5483 6.30852 22.4865M6.30852 22.4865C6.53183 22.4649 6.7456 22.4504 6.94233 22.4453C7.04251 22.4426 7.13909 22.4109 7.21368 22.3449C7.35704 22.2182 7.51943 22.0528 7.68873 21.8537M6.30852 22.4865L7.68873 21.8537M10.0653 11.3247C10.3578 11.0364 10.3515 9.78187 10.4274 9.07897M12.9053 9.5755C13.1036 9.5755 13.2643 9.41708 13.2643 9.22166C13.2643 9.02623 13.1036 8.86781 12.9053 8.86781M12.9053 9.5755C12.707 9.5755 12.5463 9.41708 12.5463 9.22166C12.5463 9.02623 12.707 8.86781 12.9053 8.86781M12.9053 9.5755V8.86781M7.83115 9.5755C8.02943 9.5755 8.19017 9.41708 8.19017 9.22166C8.19017 9.02623 8.02943 8.86781 7.83115 8.86781M7.83115 9.5755C7.63287 9.5755 7.47213 9.41708 7.47213 9.22166C7.47213 9.02623 7.63287 8.86781 7.83115 8.86781M7.83115 9.5755V8.86781M7 7.20936C7.35762 6.94507 7.89404 6.91572 8.46027 7.20944M12.1523 7.20918C12.8079 6.97421 13.6424 7.20918 14 7.73775M11.5408 13.4727C11.0985 14.29 10.0653 14.0098 9.57345 13.6167" stroke="black" stroke-linecap="round"/>
</svg>
