<svg width="24" height="24" viewBox="0 0 24 24" fill="none" xmlns="http://www.w3.org/2000/svg">
<path d="M1.58166 7.76537C5.21437 11.2165 8.25222 15.8218 12.5 15.3707M21.8751 7.71116C18.5377 12.323 15.833 14.5113 13.5 15.1747M8.29851 6.20359C7.97526 5.36605 7.71665 3.59047 9.26826 3.18845C11.2078 2.68592 14.602 3.18845 14.602 4.69602V6.70611M13.5 15.1747C14.8552 15.1165 18.5091 13.6 22.2828 8M13.5 15.1747C13.159 15.2717 12.8259 15.3361 12.5 15.3707M22.2828 8C21.7267 7.28482 20.8313 7.20863 19.9356 7.20863C17.6082 7.20863 8.62176 6.53853 4.41949 6.20348C-0.429291 5.70095 1.51049 13.239 1.02534 18.264C0.73569 21.2642 2.96485 20.7767 5.87412 20.7767C8.78339 20.7767 17.9961 21.2792 20.9053 20.7767C23.8146 20.2741 22.8448 13.7414 22.8448 10.2238C22.8448 9.53963 22.7589 9.00992 22.6079 8.6M22.2828 8C22.4104 8.16409 22.5201 8.36183 22.6079 8.6M12.5 15.3707C14.5719 15.3138 19.4941 13.88 22.6079 8.6" stroke="black" stroke-linecap="round"/>
</svg>
