<svg width="24" height="24" viewBox="0 0 24 24" fill="none" xmlns="http://www.w3.org/2000/svg">
<path d="M1 9.42306V16.2802C1 16.5273 1.16734 16.7444 1.40989 16.812M1.40989 16.812L5.92271 18.0691C6.02915 18.0987 6.13541 18.0965 6.23231 18.0691M1.40989 16.812L5.72216 18.6094M1 8.31729L6.27682 10.2772C6.49603 10.3586 6.64103 10.5644 6.64103 10.7942V17.5373C6.64103 17.7958 6.46329 18.0038 6.23231 18.0691M6.23231 18.0691L21.8718 18.2692M21.8718 18.2692C22.4949 18.2692 23 17.7741 23 17.1634V11.6346C23 11.0239 22.4949 10.5288 21.8718 10.5288H21.3077M21.8718 18.2692L6.64103 19L5.72216 18.6094M21.8718 18.2692H5.4M21.3077 10.5288H17.359M21.3077 10.5288V7.59878C21.3077 7.36629 21.1593 7.15864 20.9364 7.07919L15.1026 5M17.359 10.5288H13.4103M17.359 10.5288V7.07001C17.359 6.82585 17.1956 6.6106 16.957 6.54044L11.7179 5M13.4103 10.5288H8.89744M13.4103 10.5288V7.08094C13.4103 6.83161 13.24 6.61314 12.9946 6.54754L7.20513 5M8.89744 10.5288H7.76923M8.89744 10.5288V7.62289C8.89744 7.37873 8.73403 7.16348 8.49543 7.09333L3.98261 5.76641C3.62067 5.65999 3.25641 5.92562 3.25641 6.29597V8.87018M5.72216 18.6094H11.5" stroke="black" stroke-linecap="round"/>
</svg>
