<svg width="24" height="24" viewBox="0 0 24 24" fill="none" xmlns="http://www.w3.org/2000/svg">
<path d="M8.92289 20.9981C10.4839 20.9904 11.7785 20.9138 12.8449 20.7897C13.079 20.7625 13.302 20.733 13.5145 20.7014C13.7675 20.6638 14.0055 20.6233 14.2292 20.5802C14.4181 20.5439 14.5968 20.5057 14.7658 20.466C14.8536 20.4453 14.9387 20.4242 15.0213 20.4028C15.1914 20.3585 15.3505 20.3126 15.4991 20.2653C15.5777 20.2403 15.6534 20.2148 15.7262 20.1891C15.8182 20.1565 15.9056 20.1234 15.9886 20.0899C16.0971 20.046 16.1981 20.0013 16.2918 19.956C16.3534 19.9262 16.4119 19.8962 16.4673 19.8659C16.5465 19.8228 16.6195 19.7792 16.6866 19.7353C16.7287 19.7078 16.7684 19.6802 16.8059 19.6525C16.8354 19.6307 16.8636 19.6089 16.8903 19.5871C16.9214 19.5617 16.9507 19.5362 16.9782 19.5108C17.0121 19.4795 17.0432 19.4482 17.0718 19.4169C17.0947 19.3917 17.116 19.3666 17.1357 19.3416C17.1543 19.3178 17.1715 19.294 17.1872 19.2704C17.2139 19.2303 17.2364 19.1904 17.2551 19.1509C17.2667 19.1264 17.2767 19.102 17.2853 19.0778C17.293 19.0563 17.2994 19.0349 17.3048 19.0137C17.3099 18.9936 17.314 18.9736 17.3172 18.9537C17.3204 18.9334 17.3226 18.9132 17.3238 18.8932C17.3252 18.8687 17.3252 18.8444 17.3238 18.8204C17.3213 18.7804 17.3149 18.7412 17.3048 18.7031C17.2994 18.6826 17.2929 18.6624 17.2853 18.6425C17.2766 18.6194 17.2665 18.5968 17.2551 18.5747C17.2438 18.5527 17.2311 18.5312 17.2173 18.5102C17.2007 18.4851 17.1823 18.4606 17.1624 18.4369C17.1433 18.4144 17.1228 18.3926 17.101 18.3716C17.0719 18.3437 17.0404 18.3171 17.0067 18.292C16.9787 18.2712 16.9491 18.2513 16.9181 18.2326C16.9089 18.227 16.8996 18.2215 16.8903 18.2162C16.8506 18.1933 16.8105 18.1725 16.7702 18.1539C16.728 18.1344 16.6855 18.1173 16.6426 18.1023C16.5752 18.0787 16.507 18.0606 16.438 18.0474C16.3497 18.0306 16.26 18.022 16.1688 18.0206C15.7873 18.0148 15.3811 18.1367 14.9472 18.3204C14.8741 18.3513 14.8002 18.384 14.7255 18.4181C14.6605 18.4478 14.5949 18.4786 14.5286 18.5102C14.4717 18.5375 14.4143 18.5654 14.3564 18.5938C14.2899 18.6264 14.2228 18.6597 14.155 18.6935C14.0891 18.7264 14.0226 18.7598 13.9555 18.7934C13.899 18.8217 13.8421 18.8502 13.7848 18.8788C13.7154 18.9134 13.6453 18.9481 13.5746 18.9828C13.5015 19.0186 13.4278 19.0544 13.3533 19.0898C13.2911 19.1195 13.2283 19.1489 13.1651 19.178C13.0973 19.2093 13.0289 19.2401 12.96 19.2704C12.8855 19.3031 12.8104 19.3352 12.7346 19.3665C12.6341 19.4079 12.5325 19.448 12.4296 19.4861C12.334 19.5215 12.2373 19.5553 12.1396 19.5871C12.047 19.6172 11.9535 19.6455 11.8589 19.6716C11.7016 19.7152 11.5417 19.7529 11.3789 19.7833C11.327 19.793 11.2476 19.8049 11.145 19.8188C11.0327 19.834 10.8925 19.8515 10.7301 19.871C10.1984 19.9349 9.42768 20.0203 8.61113 20.1156C8.4422 20.1354 8.27131 20.1555 8.10017 20.176C7.61632 20.2339 7.1305 20.2944 6.68138 20.3552C6.51145 20.3782 6.34678 20.4012 6.18946 20.4242C5.84218 20.4748 5.53071 20.5251 5.27759 20.5735C5.10137 20.6073 4.95344 20.6402 4.84139 20.6717C4.69231 20.7137 4.60677 20.7534 4.60269 20.7897C4.59938 20.8192 4.64984 20.8464 4.76368 20.8708C4.81588 20.882 4.8814 20.8926 4.96118 20.9026C5.04898 20.9136 5.15404 20.9237 5.27759 20.933C5.56242 20.9545 5.94555 20.9714 6.4421 20.9829C6.94991 20.9946 7.57635 21.0005 8.33761 20.9998C8.5245 20.9996 8.71951 20.9991 8.92289 20.9981Z" fill="black"/>
<path d="M17.6473 7.45325C14.4459 3.77756 10.3687 2.62851 9.58418 3.77738C8.60347 5.21346 13.9128 11.225 17.8694 10.3232L22.4686 13.7298C22.7166 13.7854 23.1585 13.7698 22.9421 13.2622L18.4782 9.82227C18.5233 9.57736 18.539 8.96062 18.2414 8.45298M10 3.46399C8.87515 3.69845 6.0733 4.38652 5.66836 7.11963C5.16218 10.536 5.56177 12.176 2.26007 14.0194C-0.439495 15.5266 1.82142 17.6285 3.27243 17.7037C7.58061 17.927 16.4602 16.9133 17.513 11.0719M8.92289 20.9981C10.4839 20.9904 11.7785 20.9138 12.8449 20.7897M8.92289 20.9981L12.8449 20.7897M8.92289 20.9981C8.71951 20.9991 8.5245 20.9996 8.33761 20.9998M11.3789 19.7833L17.2551 19.1509M11.3789 19.7833C11.5417 19.7529 11.7016 19.7152 11.8589 19.6716M11.3789 19.7833C11.327 19.793 11.2476 19.8049 11.145 19.8188M6.4421 20.9829L14.2292 20.5802M6.4421 20.9829C5.94555 20.9714 5.56242 20.9545 5.27759 20.933M6.4421 20.9829C6.94991 20.9946 7.57635 21.0005 8.33761 20.9998M14.2292 20.5802C14.4181 20.5439 14.5968 20.5057 14.7658 20.466M14.2292 20.5802C14.0055 20.6233 13.7675 20.6638 13.5145 20.7014M14.7658 20.466L5.27759 20.933M14.7658 20.466C14.8536 20.4453 14.9387 20.4242 15.0213 20.4028M5.27759 20.933C5.15404 20.9237 5.04898 20.9136 4.96118 20.9026M12.8449 20.7897C13.079 20.7625 13.302 20.733 13.5145 20.7014M13.5145 20.7014L8.33761 20.9998M15.4991 20.2653C15.5777 20.2403 15.6534 20.2148 15.7262 20.1891M15.4991 20.2653C15.3505 20.3126 15.1914 20.3585 15.0213 20.4028M15.4991 20.2653L10.8342 20.5474M4.96118 20.9026C4.8814 20.8926 4.81588 20.882 4.76368 20.8708M4.96118 20.9026L10.8342 20.5474M4.76368 20.8708L11.2442 20.42M4.76368 20.8708C4.64984 20.8464 4.59938 20.8192 4.60269 20.7897M15.9886 20.0899C15.9056 20.1234 15.8182 20.1565 15.7262 20.1891M15.9886 20.0899L11.2442 20.42M15.9886 20.0899C16.0971 20.046 16.1981 20.0013 16.2918 19.956M15.7262 20.1891L11.2442 20.42M15.0213 20.4028L10.8342 20.5474M4.60269 20.7897L16.2918 19.956M4.60269 20.7897C4.60677 20.7534 4.69231 20.7137 4.84139 20.6717M16.2918 19.956C16.3534 19.9262 16.4119 19.8962 16.4673 19.8659M16.4673 19.8659L4.84139 20.6717M16.4673 19.8659C16.5465 19.8228 16.6195 19.7792 16.6866 19.7353M4.84139 20.6717C4.95344 20.6402 5.10137 20.6073 5.27759 20.5735M5.27759 20.5735L16.6866 19.7353M5.27759 20.5735C5.53071 20.5251 5.84217 20.4748 6.18946 20.4242M16.6866 19.7353C16.7287 19.7078 16.7684 19.6802 16.8059 19.6525M16.8903 19.5871L6.68138 20.3552M16.8903 19.5871C16.9214 19.5617 16.9507 19.5362 16.9782 19.5108M16.8903 19.5871C16.8636 19.6089 16.8354 19.6307 16.8059 19.6525M6.68138 20.3552C7.1305 20.2944 7.61632 20.2339 8.10017 20.176M6.68138 20.3552C6.51145 20.3782 6.34678 20.4012 6.18946 20.4242M8.61113 20.1156L17.0718 19.4169M8.61113 20.1156C9.42768 20.0203 10.1984 19.9349 10.7301 19.871M8.61113 20.1156C8.4422 20.1354 8.27131 20.1555 8.10017 20.176M17.0718 19.4169C17.0947 19.3917 17.116 19.3666 17.1357 19.3416M17.0718 19.4169C17.0432 19.4482 17.0121 19.4795 16.9782 19.5108M17.2551 19.1509C17.2667 19.1264 17.2767 19.102 17.2853 19.0778M17.2551 19.1509C17.2364 19.1904 17.2139 19.2303 17.1872 19.2704M12.1396 19.5871C12.047 19.6172 11.9535 19.6455 11.8589 19.6716M12.1396 19.5871L15.797 19.1397M12.1396 19.5871C12.2373 19.5553 12.334 19.5215 12.4296 19.4861M17.3172 18.9537C17.314 18.9736 17.3099 18.9936 17.3048 19.0137M17.3172 18.9537L15.797 19.1397M17.3172 18.9537C17.3204 18.9334 17.3226 18.9132 17.3238 18.8932M17.2853 19.0778L11.8589 19.6716M17.2853 19.0778C17.293 19.0563 17.2994 19.0349 17.3048 19.0137M11.145 19.8188L17.1872 19.2704M11.145 19.8188C11.0327 19.834 10.8925 19.8515 10.7301 19.871M17.1872 19.2704C17.1715 19.294 17.1543 19.3178 17.1357 19.3416M17.1357 19.3416L10.7301 19.871M16.9782 19.5108L8.10017 20.176M6.18946 20.4242L16.8059 19.6525M17.3048 19.0137L15.797 19.1397M17.3238 18.8204C17.3213 18.7804 17.3149 18.7412 17.3048 18.7031M17.3238 18.8204C17.3252 18.8444 17.3252 18.8687 17.3238 18.8932M17.3238 18.8204L15.3432 19.0898M12.4296 19.4861C12.5325 19.448 12.6341 19.4079 12.7346 19.3665M12.4296 19.4861L15.3432 19.0898M12.7346 19.3665L17.3048 18.7031M12.7346 19.3665C12.8104 19.3352 12.8855 19.3031 12.96 19.2704M17.3048 18.7031C17.2994 18.6826 17.2929 18.6624 17.2853 18.6425M17.3238 18.8932L15.3432 19.0898M12.96 19.2704L17.2853 18.6425M12.96 19.2704C13.0289 19.2401 13.0973 19.2093 13.1651 19.178M17.2853 18.6425C17.2766 18.6194 17.2665 18.5968 17.2551 18.5747M17.2551 18.5747L13.1651 19.178M17.2551 18.5747C17.2438 18.5527 17.2311 18.5312 17.2173 18.5102M13.1651 19.178C13.2283 19.1489 13.2911 19.1195 13.3533 19.0898M13.3533 19.0898L17.2173 18.5102M13.3533 19.0898C13.4278 19.0544 13.5015 19.0186 13.5746 18.9828M17.2173 18.5102C17.2007 18.4851 17.1823 18.4606 17.1624 18.4369M17.1624 18.4369L13.5746 18.9828M17.1624 18.4369C17.1433 18.4144 17.1228 18.3926 17.101 18.3716M13.5746 18.9828C13.6453 18.9481 13.7154 18.9134 13.7848 18.8788M13.7848 18.8788L17.101 18.3716M13.7848 18.8788C13.8421 18.8502 13.899 18.8217 13.9555 18.7934M17.101 18.3716C17.0719 18.3437 17.0404 18.3171 17.0067 18.292M17.0067 18.292C16.9787 18.2712 16.9491 18.2513 16.9181 18.2326C16.9089 18.227 16.8996 18.2215 16.8903 18.2162M17.0067 18.292L13.9555 18.7934M13.9555 18.7934C14.0226 18.7598 14.0891 18.7264 14.155 18.6935M14.155 18.6935L16.8903 18.2162M14.155 18.6935C14.2228 18.6597 14.2899 18.6264 14.3564 18.5938M16.8903 18.2162C16.8506 18.1933 16.8105 18.1725 16.7702 18.1539M16.7702 18.1539L14.3564 18.5938M16.7702 18.1539C16.728 18.1345 16.6855 18.1173 16.6426 18.1023M14.3564 18.5938C14.4143 18.5654 14.4717 18.5375 14.5286 18.5102M14.5286 18.5102L16.6426 18.1023M14.5286 18.5102C14.5949 18.4786 14.6605 18.4478 14.7255 18.4181M16.6426 18.1023C16.5752 18.0787 16.507 18.0606 16.438 18.0474M16.438 18.0474L14.7255 18.4181M16.438 18.0474C16.3497 18.0306 16.26 18.022 16.1688 18.0206M14.7255 18.4181C14.8002 18.384 14.8741 18.3513 14.9472 18.3204M14.9472 18.3204C15.3811 18.1367 15.7873 18.0148 16.1688 18.0206M14.9472 18.3204L16.1688 18.0206" stroke="black" stroke-linecap="round"/>
</svg>
