<svg width="24" height="24" viewBox="0 0 24 24" fill="none" xmlns="http://www.w3.org/2000/svg">
<path d="M18.2281 21.2228C18.3471 21.3668 18.5429 21.4082 18.7043 21.3104C18.8625 21.2146 18.9378 21.0152 18.8991 20.829M18.2281 21.2228C18.2068 21.197 18.188 21.1679 18.1722 21.1357C18.0687 20.924 18.139 20.6589 18.3292 20.5437C18.5195 20.4284 18.7577 20.5067 18.8613 20.7184C18.8787 20.7541 18.8912 20.7913 18.8991 20.829M18.2281 21.2228C18.4015 21.2923 18.7784 21.3109 18.8991 20.829M4.76628 5.55544C5.27223 6.07091 5.98635 6.39216 6.77778 6.39216C8.3119 6.39216 9.55556 5.18508 9.55556 3.69608C9.55556 2.20708 8.3119 1 6.77778 1C5.76596 1 4.88049 1.52507 4.39484 2.3098C3.96827 2.99907 3.32843 3.69608 2.5 3.69608C1.67157 3.69608 1 4.3479 1 5.15196V21.5008C1 22.3288 1.69155 23 2.54462 23H11.965M20.1111 3.69608H21.4554C22.3084 3.69608 23 4.36729 23 5.19527V12M15.2108 5.55544C15.7168 6.07091 16.4309 6.39216 17.2223 6.39216C18.7565 6.39216 20.0001 5.18508 20.0001 3.69608C20.0001 2.20708 18.7565 1 17.2223 1C16.2265 1 15.353 1.50863 14.8627 2.27284C14.4117 2.97568 13.753 3.69608 12.8999 3.69608H9.66679M3.22221 9.41167H22.8889M8.87565 14.9006C8.94476 13.6649 11.3668 12.5168 11.735 14.5889C11.9605 15.858 10.698 17.2278 8.81816 18.3478C8.44403 18.5707 8.56717 19.1589 8.99835 19.1556L11.965 19.1324M13.727 14.3019L14.8462 13.1858C15.1039 12.9289 15.5461 13.0764 15.5415 13.4177M18.3847 18.8901C18.1275 17.6541 17.8509 15.6364 18.4464 15.6364C19.0418 15.6364 18.7652 17.6541 18.5081 18.8901C18.491 18.972 18.4017 18.972 18.3847 18.8901ZM18.0658 22.9671C18.2694 22.9379 23.1991 22.3032 22.9938 17.8767C22.9749 17.47 22.9223 17.1001 22.8407 16.7647C22.7384 16.3448 22.5905 15.9791 22.4059 15.6635C20.8924 13.0757 16.9121 13.8488 15.3964 15.6635C14.8017 16.3762 13.5552 18.1836 14.1627 20.4428C14.5434 21.859 15.7788 22.7622 17.0682 22.9593C17.4017 23.0102 17.7388 23.014 18.0658 22.9671Z" stroke="black" stroke-linecap="round"/>
</svg>
