<svg width="24" height="24" viewBox="0 0 24 24" fill="none" xmlns="http://www.w3.org/2000/svg">
<path d="M22.0704 14.2014C20.2152 13.9039 14.4197 13.9635 12.75 14.2014M22.7662 14.4989C22.8689 17.0469 23.0482 21.5861 22.9879 23M22.5001 23C21.7939 22.4197 15.2228 22.2746 13.8102 22.2746C12.3977 22.2746 12.0347 22.4604 12.2211 21.6943C12.3743 21.065 12.2628 16.9788 12 14.36M21.1409 1.20138C17.4304 0.903929 5.83944 0.963451 2.50002 1.20141M22.5323 1.49887C22.7378 4.04686 23.0963 8.58611 22.9758 9.99997M22.0003 10C20.5877 9.4197 7.44553 9.27458 4.62046 9.27458C1.7954 9.27458 1.06931 9.46036 1.44226 8.69428C1.74859 8.06504 1.52554 3.97879 1 1.35995M6.50011 9.5C6.00011 13.1667 5.5 19 7.5 19H12.0001" stroke="black" stroke-linecap="round"/>
</svg>
