<svg width="24" height="24" viewBox="0 0 24 24" fill="none" xmlns="http://www.w3.org/2000/svg">
<path d="M5 12H19M11.9035 7.99269C11.9488 7.98621 13.0442 7.84514 12.9986 6.86149C12.9944 6.77111 12.9827 6.6889 12.9646 6.61437C12.9419 6.52107 12.909 6.43981 12.868 6.36966C12.5316 5.79459 11.6471 5.96639 11.3103 6.36966C11.1782 6.52804 10.9012 6.92968 11.0361 7.43173C11.1208 7.74645 11.3953 7.94715 11.6818 7.99095C11.7559 8.00227 11.8309 8.0031 11.9035 7.99269ZM11.9035 17.9927C11.9488 17.9862 13.0442 17.8451 12.9986 16.8615C12.9944 16.7711 12.9827 16.6889 12.9646 16.6144C12.9419 16.5211 12.909 16.4398 12.868 16.3697C12.5316 15.7946 11.6471 15.9664 11.3103 16.3697C11.1782 16.528 10.9012 16.9297 11.0361 17.4317C11.1208 17.7464 11.3953 17.9472 11.6818 17.9909C11.7559 18.0023 11.8309 18.0031 11.9035 17.9927Z" stroke="black" stroke-linecap="round"/>
</svg>
