<svg width="24" height="24" viewBox="0 0 24 24" fill="none" xmlns="http://www.w3.org/2000/svg">
<path d="M6.63962 13.5414L6.24078 13.8429C6.36458 14.0066 6.57588 14.0781 6.77365 14.0231C6.97141 13.968 7.11545 13.7977 7.13689 13.5936L6.63962 13.5414ZM7.75699 2.90041L8.25425 2.95262C8.25607 2.93532 8.25699 2.91793 8.25699 2.90052L7.75699 2.90041ZM10.5505 1.12694L10.7169 0.65541V0.65541L10.5505 1.12694ZM11.6678 5.85591L11.1723 5.78901C11.1717 5.7939 11.1711 5.7988 11.1706 5.80371L11.6678 5.85591ZM11.1092 11.1767L10.612 11.1245C10.5972 11.2654 10.6429 11.406 10.7377 11.5113C10.8325 11.6166 10.9675 11.6767 11.1092 11.6767V11.1767ZM21.7242 18.2707L21.2415 18.1403L21.7242 18.2707ZM1.05292 11.7679L1.53952 11.6529L1.05292 11.7679ZM0.563511 4.75612C0.42882 4.99719 0.515054 5.3018 0.75612 5.43649C0.997187 5.57118 1.3018 5.48495 1.43649 5.24388L0.563511 4.75612ZM4.32764 2.4646C4.58423 2.36255 4.70951 2.07181 4.60746 1.81522C4.50541 1.55862 4.21466 1.43334 3.95807 1.5354L4.32764 2.4646ZM16.8412 1.51638C16.5741 1.44627 16.3008 1.60596 16.2307 1.87305C16.1606 2.14014 16.3202 2.4135 16.5873 2.48362L16.8412 1.51638ZM22.6379 5.34483C22.8284 5.54479 23.1449 5.55251 23.3448 5.36207C23.5448 5.17163 23.5525 4.85514 23.3621 4.65517L22.6379 5.34483ZM7.13689 13.5936L8.25425 2.95262L7.25972 2.84819L6.14236 13.4891L7.13689 13.5936ZM8.25699 2.90052C8.257 2.86778 8.28265 2.72781 8.39175 2.51702C8.49356 2.3203 8.64534 2.10687 8.83886 1.92678C9.21468 1.57703 9.72346 1.36541 10.3842 1.59847L10.7169 0.65541C9.62938 0.271846 8.74146 0.651381 8.1576 1.19474C7.87127 1.4612 7.65247 1.76981 7.50364 2.05738C7.36209 2.33088 7.25705 2.63746 7.25699 2.90029L8.25699 2.90052ZM10.3842 1.59847C10.9319 1.79163 11.2214 2.35478 11.3099 3.24528C11.3963 4.11333 11.2667 5.08981 11.1723 5.78901L12.1633 5.92281C12.2552 5.24252 12.4049 4.15006 12.305 3.14628C12.2074 2.16495 11.8451 1.05336 10.7169 0.65541L10.3842 1.59847ZM11.1706 5.80371L10.612 11.1245L11.6065 11.2289L12.1651 5.90812L11.1706 5.80371ZM11.1092 11.6767H17.2547V10.6767H11.1092V11.6767ZM17.2547 11.6767C19.6704 11.6767 22.2128 14.5438 21.2415 18.1403L22.2069 18.401C23.3236 14.2661 20.426 10.6767 17.2547 10.6767V11.6767ZM21.2415 18.1403C20.8709 19.5127 20.0924 20.6107 19.2138 21.3642C18.3239 22.1275 17.3776 22.5 16.6959 22.5V23.5C17.6905 23.5 18.8592 22.9858 19.8648 22.1233C20.8817 21.2511 21.7793 19.9845 22.2069 18.401L21.2415 18.1403ZM16.6959 22.5H8.87436V23.5H16.6959V22.5ZM8.87436 22.5C7.55695 22.5 3.75698 21.0384 1.53952 11.6529L0.566319 11.8829C2.81833 21.4146 6.83994 23.5 8.87436 23.5V22.5ZM1.53952 11.6529C1.45149 11.2803 1.5221 11.0231 1.63076 10.8809C1.72955 10.7516 1.92393 10.6328 2.29233 10.6658C3.07748 10.736 4.47279 11.5044 6.24078 13.8429L7.03846 13.2398C5.23087 10.849 3.60811 9.77948 2.38144 9.66973C1.74393 9.6127 1.18396 9.81843 0.836073 10.2739C0.498046 10.7164 0.429629 11.3043 0.566319 11.8829L1.53952 11.6529ZM1.43649 5.24388C1.62668 4.90348 2.01138 4.33655 2.52768 3.78567C3.04692 3.23165 3.66877 2.72665 4.32764 2.4646L3.95807 1.5354C3.10838 1.87335 2.36832 2.49335 1.79804 3.10183C1.22482 3.71345 0.792364 4.34652 0.563511 4.75612L1.43649 5.24388ZM16.5873 2.48362C17.3284 2.67813 18.533 3.06041 19.7168 3.56935C20.9171 4.08539 22.0266 4.70291 22.6379 5.34483L23.3621 4.65517C22.602 3.85709 21.3305 3.17461 20.1118 2.65065C18.8765 2.11959 17.624 1.72187 16.8412 1.51638L16.5873 2.48362Z" fill="black"/>
</svg>
