<svg width="24" height="24" viewBox="0 0 24 24" fill="none" xmlns="http://www.w3.org/2000/svg">
<path d="M6.48876 3.00647C7.81625 2.18551 9.30754 1.67257 10.8536 1.50227L11.0513 4.70906C11.0514 4.70995 11.0513 4.7098 11.0513 4.70987C11.0511 4.71035 11.0502 4.71263 11.0473 4.71597C11.041 4.72334 11.03 4.73022 11.0161 4.73211C10.0103 4.86955 9.04221 5.2165 8.17499 5.75281C7.15516 6.38351 6.30633 7.25658 5.70358 8.29459C5.10083 9.33259 4.76272 10.5035 4.71911 11.7037C4.67551 12.9039 4.92775 14.0964 5.45355 15.1756C5.97936 16.2548 6.76255 17.1874 7.73387 17.8908C8.7052 18.5942 9.83465 19.0467 11.0222 19.2079C12.2097 19.3692 13.4186 19.2342 14.5416 18.8151C15.4965 18.4588 16.3643 17.9063 17.0903 17.1955C17.1005 17.1855 17.1127 17.1811 17.122 17.1807C17.1257 17.1805 17.1277 17.181 17.1284 17.1811C17.1284 17.1812 17.1285 17.1812 17.1286 17.1813L19.5298 19.3087C18.4451 20.428 17.1243 21.293 15.6619 21.8387C14.0438 22.4426 12.3021 22.637 10.5912 22.4047C8.88035 22.1724 7.2529 21.5205 5.85305 20.5068C4.4532 19.493 3.32413 18.1486 2.566 16.5926C1.80785 15.0366 1.44408 13.317 1.50696 11.5862C1.56985 9.85535 2.05745 8.16687 2.92648 6.67031C3.7955 5.17376 5.0191 3.91536 6.48876 3.00647ZM22.4866 12.5007C22.4072 14.0789 21.9747 15.6167 21.2239 17.0011L18.4869 15.3344C18.4868 15.3344 18.4867 15.3343 18.4867 15.3343C18.4865 15.3341 18.4861 15.3335 18.4857 15.3324C18.4851 15.3313 18.4845 15.3297 18.484 15.3275C18.4815 15.3178 18.4821 15.3044 18.4887 15.2914C18.9553 14.3754 19.2245 13.369 19.2764 12.3379C19.3374 11.1275 19.097 9.9209 18.5769 8.82681C18.0567 7.73271 17.2731 6.78547 16.2966 6.07057C15.4649 5.46167 14.5155 5.03765 13.5119 4.8242C13.4982 4.82128 13.4877 4.8136 13.4819 4.80574C13.4792 4.80218 13.4785 4.79982 13.4783 4.79931C13.4783 4.79929 13.4783 4.79929 13.4783 4.79928C13.4783 4.79924 13.4783 4.79921 13.4784 4.79849L13.9106 1.61512C15.4553 1.90179 16.9185 2.53291 18.1909 3.46441C19.5982 4.49471 20.7279 5.86013 21.4778 7.43766C22.2278 9.0152 22.5745 10.7552 22.4866 12.5007Z" stroke="black"/>
</svg>
