<svg width="24" height="24" viewBox="0 0 24 24" fill="none" xmlns="http://www.w3.org/2000/svg">
<path d="M14.3862 11.0206C14.4456 11.2646 14.4605 11.5167 14.4266 11.7588C14.4107 11.8719 14.0659 14.6106 11.6614 14.4965C11.5099 14.4893 11.3678 14.4734 11.2347 14.4494M14.3862 11.0206C14.3028 11.9383 13.5558 13.9089 11.2347 14.4494M14.3862 11.0206C14.3467 10.8582 14.2875 10.6994 14.2098 10.5496M11.2347 14.4494C11.1098 14.4269 10.9929 14.3974 10.8835 14.3615M14.2098 10.5496C13.978 10.1025 13.582 9.73518 13.0553 9.59037C11.8281 9.25291 10.8463 9.94538 10.4592 10.2758C9.38477 11.1935 8.98249 13.7378 10.8835 14.3615M14.2098 10.5496C14.1548 11.3574 13.4126 13.2507 10.8835 14.3615" stroke="black" stroke-opacity="0.3" stroke-linecap="round"/>
<path d="M5.83067 11.0206C5.89006 11.2646 5.90494 11.5167 5.87103 11.7588C5.85517 11.8719 5.51035 14.6106 3.10587 14.4965C2.95438 14.4893 2.81227 14.4734 2.67917 14.4494M5.83067 11.0206C5.7959 10.8777 5.74587 10.7376 5.68145 10.604M5.83067 11.0206C5.76671 11.8846 5.31207 13.4174 4.05556 14.1024M2.67917 14.4494C3.21941 14.44 3.67438 14.3102 4.05556 14.1024M2.67917 14.4494C2.51307 14.4195 2.361 14.3771 2.22222 14.3239M22.9821 11.2346C23.0057 11.4101 23.0062 11.587 22.9821 11.7588C22.9663 11.8719 22.6215 14.6106 20.217 14.4965C20.0655 14.4893 19.9234 14.4734 19.7903 14.4494M22.9821 11.2346C22.8853 12.2893 22.1114 14.4089 19.7903 14.4494M22.9821 11.2346C22.9504 10.9984 22.8769 10.7647 22.7654 10.5496M19.7903 14.4494C17.494 14.0359 17.8785 11.2463 19.0147 10.2758C19.4019 9.94538 20.3837 9.25291 21.6109 9.59037C22.1375 9.73518 22.5336 10.1025 22.7654 10.5496M19.7903 14.4494C22.1114 13.4089 22.7408 11.416 22.7654 10.5496M5.68145 10.604C5.45414 10.1324 5.04763 9.74101 4.49979 9.59037C3.27255 9.25291 2.29076 9.94538 1.90362 10.2758C0.849612 11.1761 0.442462 13.6418 2.22222 14.3239M5.68145 10.604C5.45605 11.477 4.81531 13.399 4.05556 14.1024M2.22222 14.3239C2.86696 14.3328 4.25847 14.1303 4.66667 13.25" stroke="black" stroke-linecap="round"/>
</svg>
