<svg width="24" height="24" viewBox="0 0 24 24" fill="none" xmlns="http://www.w3.org/2000/svg">
<path d="M10.4057 23C7.88703 21.3902 -1.20099 16.0218 1.49436 11.4887C4.86354 5.82223 9.59688 -0.596814 13.352 1.35853C17.1071 3.31388 24.9287 9.3074 22.5621 12.517C20.6688 15.0846 16.8309 20.5343 14.6615 22.4634M11.3354 17.6557C11.6262 18.0077 12.1049 18.1089 12.4993 17.87C12.8861 17.6357 13.0701 17.1482 12.9755 16.6931M11.3354 17.6557C11.2833 17.5927 11.2373 17.5215 11.1988 17.4429C10.9456 16.9253 11.1175 16.2774 11.5826 15.9957C12.0477 15.714 12.63 15.9052 12.8832 16.4228C12.9258 16.51 12.9564 16.6008 12.9755 16.6931M11.3354 17.6557C11.7592 17.8257 12.6805 17.871 12.9755 16.6931M11.7181 13.9535C11.0895 10.9323 10.4133 6 11.8689 6C13.3245 6 12.6483 10.9323 12.0197 13.9535C11.978 14.1538 11.7597 14.1538 11.7181 13.9535Z" stroke="black" stroke-linecap="round"/>
</svg>
