<svg width="24" height="24" viewBox="0 0 24 24" fill="none" xmlns="http://www.w3.org/2000/svg">
<path d="M4.10401 7.63269C4.01514 10.532 3.98424 14.1036 4.22592 15.8232C4.65004 18.8408 17.7983 17.9786 20.7673 17.5475C23.4205 17.1623 23.0251 10.9244 22.911 8.06378M4.10401 7.63269C4.13991 6.46179 4.18526 5.40051 4.22592 4.61512C4.22592 3.75289 4.31075 2.02862 6.3466 2.02862C6.94192 2.02886 10.4283 1.75595 10.5878 2.89079C11.012 5.90821 16.9499 4.18404 19.4947 4.18404C22.0395 4.18404 22.8878 5.0462 22.8878 7.20161C22.8878 7.43081 22.8974 7.72338 22.911 8.06378M4.10401 7.63269C10.2393 7.63269 22.5902 7.71891 22.911 8.06378M17.7733 21.5475C14.8044 21.9786 1.65612 22.8408 1.232 19.8232C0.990313 18.1036 0.955804 10.3992 1.04468 7.49988" stroke="black" stroke-linecap="round"/>
</svg>
