<svg width="24" height="24" viewBox="0 0 24 24" fill="none" xmlns="http://www.w3.org/2000/svg">
<path d="M6.13481 23C4.7779 17.855 2.7184 7.55838 5.07249 6.62189C5.17946 6.57945 5.29606 6.55174 5.40413 6.51097L14.3523 3.12887M16.6815 4.2316L17.2697 6.69783M5.97269 7.58899C4.96096 9.31475 6.53326 16.591 7.80252 21.3741C8.07859 22.4168 9.33172 22.9634 10.4204 22.5348L18.8312 19.2225C19.6908 18.8837 20.1605 18.0401 19.95 17.2165L17.741 8.63114M7.75557 7.693C8.16598 7.24061 8.59013 5.64338 7.63736 4.8268C7.47324 4.68448 7.2664 4.56619 7.01048 4.48162C5.28276 3.90939 4.18061 5.85347 5.21978 6.52246M7.61066 4.7557C7.7579 3.87908 9.01409 2.96354 10.5285 3.72372C12.1557 4.76558 11.3382 6.29769 10.5962 6.83221M10.5971 3.6484C10.9058 2.95734 12.0699 1.62477 13.6057 2.17254C15.6683 3.19178 14.4809 5.19968 13.6177 5.45669M13.5882 2.07714C14.0572 1.30955 15.2272 0.567647 16.3698 1.30146C17.5126 2.03543 17.1501 3.9804 15.9889 4.60302" stroke="black" stroke-linecap="round"/>
</svg>
