<svg width="24" height="24" viewBox="0 0 24 24" fill="none" xmlns="http://www.w3.org/2000/svg">
<path d="M5.12049 18.4225C4.94252 19.2658 4.97813 21.9001 5.12051 22.6591M5.29847 18.1063C6.82291 18.0596 9.5387 17.9781 10.3846 18.0055M10.3846 18.2272C10.0374 18.5482 9.9506 21.5351 9.9506 22.1772C9.9506 22.8192 10.0618 22.9842 9.60342 22.8995C9.22695 22.8299 6.78218 22.8806 5.21536 23M13.7359 18.4225C13.5579 19.2658 13.5935 21.9001 13.7359 22.6591M13.9139 18.1063C15.4383 18.0596 18.1541 17.9781 19 18.0055M19 18.2272C18.6528 18.5482 18.566 21.5351 18.566 22.1772C18.566 22.8192 18.6771 22.9842 18.2188 22.8995C17.8423 22.8299 15.3976 22.8806 13.8307 23M5.12049 1.42253C4.94252 2.26581 4.97813 4.90013 5.1205 5.65909M5.29847 1.10629C6.82291 1.05959 9.5387 0.978113 10.3846 1.00549M10.3846 1.22721C10.0374 1.54824 9.9506 4.53511 9.9506 5.17717C9.9506 5.81923 10.0618 5.98425 9.60342 5.89949C9.22695 5.82987 6.78218 5.88056 5.21536 6M13.7359 1.42252C13.5579 2.26581 13.5935 4.90013 13.7359 5.65909M13.9139 1.10629C15.4383 1.05959 18.1541 0.978112 19 1.00549M19 1.22721C18.6528 1.54824 18.566 4.53511 18.566 5.17717C18.566 5.81923 18.6771 5.98425 18.2188 5.89949C17.8423 5.82987 15.3976 5.88056 13.8307 6M5.12049 9.92253C4.94252 10.7658 4.97813 13.4001 5.1205 14.1591M5.29847 9.60629C6.82291 9.55959 9.5387 9.47811 10.3846 9.5055M10.3846 9.72721C10.0374 10.0482 9.9506 13.0351 9.9506 13.6772C9.9506 14.3192 10.0618 14.4842 9.60342 14.3995C9.22695 14.3299 6.78218 14.3806 5.21536 14.5M13.7359 9.92253C13.5579 10.7658 13.5935 13.4001 13.7359 14.1591M13.9139 9.60629C15.4383 9.55959 18.1541 9.47811 19 9.50549M19 9.72721C18.6528 10.0482 18.566 13.0351 18.566 13.6772C18.566 14.3192 18.6771 14.4842 18.2188 14.3995C17.8423 14.3299 15.3976 14.3806 13.8307 14.5" stroke="black" stroke-linecap="round"/>
</svg>
