<svg width="24" height="24" viewBox="0 0 24 24" fill="none" xmlns="http://www.w3.org/2000/svg">
<path d="M10.6319 17.57C10 17.276 10.0121 17.883 10.0772 16.5923C10.1301 15.5428 10.0925 8.78475 10.0027 4.36841C10.001 4.28429 10.0408 4.2049 10.1181 4.17169C10.2105 4.13197 10.3265 4.09941 10.4598 4.07372M10.6319 17.57C10.7176 17.6099 10.881 17.6595 11.0904 17.7106M10.6319 17.57L10.4598 4.07372M16.6319 10.785C16 10.638 16.0121 10.9415 16.0772 10.2962C16.1292 9.78074 16.0938 6.51197 16.0075 4.30342C16.0032 4.19295 16.071 4.09328 16.1798 4.07372C16.3021 4.05174 16.4563 4.03485 16.6319 4.02282M16.6319 10.785V4.02282M16.6319 10.785C16.7571 10.8141 17.0478 10.8536 17.4058 10.8907M21.1406 1.49227C17.4302 0.765159 5.83938 0.910658 2.5 1.49235M22.532 2.21947C22.7375 8.44787 23.096 19.5438 22.9755 22.9999M22 23C20.5875 21.5815 7.44545 21.2267 4.62042 21.2267C1.79539 21.2267 1.06931 21.6809 1.44226 19.8082C1.74859 18.2701 1.52553 8.28149 1 1.87988M16.6319 4.02282C16.8024 4.01113 16.9932 4.00402 17.1946 4.00129M17.4058 10.8907L17.1946 4.00129M17.4058 10.8907C17.5393 10.9046 17.6823 10.9181 17.8294 10.9307M17.1946 4.00129C17.3986 3.99852 17.6135 4.00024 17.8294 4.00623M17.8294 4.00623V10.9307M17.8294 4.00623C18.0213 4.01155 18.2139 4.02023 18.4003 4.03214M17.8294 10.9307C18.0492 10.9495 18.2783 10.9661 18.5 10.9783M18.5 10.9783L18.4003 4.03214M18.5 10.9783C18.7112 10.99 18.9156 10.9977 19.0985 10.9996M18.4003 4.03214C18.5742 4.04325 18.7427 4.05715 18.9002 4.07372M18.9002 4.07372L19.0985 10.9996M18.9002 4.07372C19.0477 4.08925 19.1855 4.10712 19.309 4.12723M19.0985 10.9996C19.231 11.0009 19.3521 10.9992 19.4564 10.9937M19.4564 10.9937C19.6915 10.9814 19.8406 10.9498 19.8396 10.8907C20.218 10.8908 19.8153 6.60623 19.7615 4.40183C19.759 4.30013 19.6966 4.21022 19.598 4.18529C19.5148 4.16425 19.4174 4.14488 19.309 4.12723M19.4564 10.9937L19.309 4.12723M13.221 4.22724C13.3935 4.2779 13.5427 4.33655 13.6577 4.40273C13.7241 4.44096 13.7583 4.51118 13.7591 4.58781C13.8017 8.92588 14.2243 17.7816 13.8396 17.7815C13.8406 17.8921 13.7098 17.9545 13.5 17.9823M13.221 4.22724L13.5 17.9823M13.221 4.22724C13.0015 4.16279 12.7442 4.11129 12.4715 4.07372M13.5 17.9823C13.3624 18.0005 13.1907 18.0038 13 17.9961M13 17.9961L12.4715 4.07372M13 17.9961C12.7702 17.9867 12.5127 17.9612 12.2534 17.9263M12.4715 4.07372C12.3142 4.05206 12.1518 4.03503 11.9886 4.02282M11.9886 4.02282L12.2534 17.9263M11.9886 4.02282C11.8251 4.01059 11.6608 4.0032 11.5 4.00083M12.2534 17.9263C11.9954 17.8915 11.7357 17.8475 11.5 17.8006M11.5 17.8006V4.00083M11.5 17.8006C11.3519 17.7712 11.2132 17.7406 11.0904 17.7106M11.5 4.00083C11.3599 3.99877 11.2224 4.00053 11.0904 4.00623M11.0904 4.00623V17.7106M11.0904 4.00623C10.8579 4.01626 10.6425 4.03854 10.4598 4.07372M7.24972 4.18529C7.39908 4.2209 7.52992 4.26135 7.63486 4.30639C7.71421 4.34045 7.75849 4.4186 7.75964 4.50494C7.80524 7.9286 8.22266 14.8284 7.83963 14.8283C7.84033 14.8946 7.76426 14.9389 7.63486 14.9659M7.24972 4.18529L7.63486 14.9659M7.24972 4.18529C7.16136 4.16422 7.06653 4.14485 6.96675 4.12723M7.63486 14.9659C7.48361 14.9974 7.25949 15.0052 7 14.9969M7 14.9969L6.96675 4.12723M7 14.9969C6.84345 14.9919 6.67402 14.981 6.49995 14.9659M6.96675 4.12723C6.82023 4.10135 6.66303 4.07924 6.5 4.06106M6.5 4.06106L6.49995 14.9659M6.5 4.06106C6.33752 4.04294 6.16926 4.02874 6 4.0186M6.49995 14.9659C6.33513 14.9516 6.16615 14.9335 6 14.913M6 14.913V4.0186M6 14.913C5.79304 14.8876 5.59047 14.8584 5.40579 14.8283M6 4.0186C5.75145 4.00372 5.50076 3.99762 5.26311 4.00083M5.26311 4.00083L5.40579 14.8283M5.26311 4.00083C5.11078 4.00289 4.96381 4.00877 4.8262 4.0186M5.40579 14.8283C5.19754 14.7943 5.01204 14.7592 4.86864 14.7267M4.86864 14.7267C4.76556 14.7033 4.68424 14.6813 4.63187 14.6622C4.5257 14.6234 4.43771 14.6045 4.3651 14.5952M4.86864 14.7267L4.8262 4.0186M4.8262 4.0186C4.65558 4.0308 4.49934 4.04909 4.3651 4.07372M4.3651 4.07372C4.28146 4.08907 4.20637 4.10689 4.14165 4.12723C4.05178 4.15548 4.00155 4.24277 4.00396 4.33694C4.09283 7.80766 4.12988 13.0731 4.07719 13.894C4.02303 14.7377 4.00556 14.5493 4.3651 14.5952M4.3651 4.07372V14.5952" stroke="black" stroke-linecap="round"/>
</svg>
