<svg width="24" height="24" viewBox="0 0 24 24" fill="none" xmlns="http://www.w3.org/2000/svg">
<path d="M7.875 4.97589C11.5593 4.40427 19.7423 3.77548 23 5.83333M7.875 12.0592C11.5593 11.4876 19.7423 10.8588 23 12.9167M7.875 19.1426C11.5593 18.5709 19.7423 17.9421 23 20M2.24232 5.82298C2.30453 5.81379 3.81083 5.61395 3.74809 4.22045C3.67595 2.61799 1.99142 2.82704 1.42669 3.52369C1.24496 3.74805 0.864101 4.31705 1.0497 5.02829C1.19614 5.58946 1.75626 5.89475 2.24232 5.82298ZM2.24232 12.9063C2.30453 12.8971 3.81083 12.6973 3.74809 11.3038C3.67595 9.70132 1.99142 9.91038 1.42669 10.607C1.24496 10.8314 0.864101 11.4004 1.0497 12.1116C1.19614 12.6728 1.75626 12.9781 2.24232 12.9063ZM2.24232 19.9896C2.30453 19.9805 3.81083 19.7806 3.74809 18.3871C3.67595 16.7847 1.99142 16.9937 1.42669 17.6904C1.24496 17.9147 0.864101 18.4837 1.0497 19.195C1.19614 19.7561 1.75626 20.0614 2.24232 19.9896Z" stroke="black" stroke-linecap="round"/>
</svg>
