<svg width="24" height="24" viewBox="0 0 24 24" fill="none" xmlns="http://www.w3.org/2000/svg">
<path d="M8.29053 5.70099C11.8736 5.19621 19.8318 4.64095 23 6.45816M1.53528 7.2253C2.94131 7.47229 4.94746 7.32494 4.94746 6.45816V4.5815C4.94746 4.47042 4.93281 4.36892 4.90066 4.28291M1.53528 7.2253C1.19191 7.16498 0.994897 6.83672 1.0169 6.51052C1.05154 5.99698 1.03037 5.34925 1.00099 4.83456C0.976449 4.40457 1.41127 4.02611 1.87131 4.04002C2.69342 4.06488 3.77738 4.03237 4.43695 4.00087C4.68715 3.98892 4.83284 4.10143 4.90066 4.28291M1.53528 7.2253C2.57319 7.56893 4.76537 7.89658 5.23076 6.45816C5.27512 5.82738 5.27119 4.50924 4.90066 4.28291M8.29053 11.956C11.8736 11.4512 19.8318 10.896 23 12.7132M1.53528 13.4803C2.94131 13.7273 4.94746 13.5799 4.94746 12.7132V10.8365C4.94746 10.7254 4.93281 10.6239 4.90066 10.5379M1.53528 13.4803C1.19191 13.42 0.994897 13.0917 1.0169 12.7655C1.05154 12.252 1.03037 11.6043 1.00099 11.0896C0.976449 10.6596 1.41127 10.2811 1.87131 10.295C2.69342 10.3199 3.77738 10.2874 4.43695 10.2559C4.68715 10.2439 4.83284 10.3564 4.90066 10.5379M1.53528 13.4803C2.50269 13.8408 4.575 14.2979 5.125 13.2417C5.20461 12.7594 5.27119 11.5435 4.90066 10.5379M8.29053 18.211C11.8736 17.7062 19.8318 17.151 23 18.9682M1.53528 19.7353C2.94131 19.9823 4.94746 19.835 4.94746 18.9682V17.0915C4.94746 16.9804 4.93281 16.8789 4.90066 16.7929M1.53528 19.7353C1.19191 19.675 0.994897 19.3467 1.0169 19.0205C1.05154 18.507 1.03037 17.8593 1.00099 17.3446C0.976449 16.9146 1.41127 16.5361 1.87131 16.55C2.69342 16.5749 3.77738 16.5424 4.43695 16.5109C4.68715 16.4989 4.83284 16.6114 4.90066 16.7929M1.53528 19.7353C2.50269 19.9912 5.125 20.3636 5.125 19.1828C5.125 17.8625 4.90066 16.7929 4.90066 16.7929" stroke="black" stroke-linecap="round"/>
</svg>
