<svg width="24" height="24" viewBox="0 0 24 24" fill="none" xmlns="http://www.w3.org/2000/svg">
<path d="M6 6.43064C8.92308 5.99045 15.4154 5.50625 18 7.09091M6 11.8852C8.92308 11.445 15.4154 10.9608 18 12.5455M6 17.3397C8.92308 16.8995 15.4154 16.4153 18 18M21.1406 1.49227C17.4302 0.765159 5.83938 0.910658 2.5 1.49235M22.532 2.21947C22.7375 8.44787 23.096 19.5438 22.9755 22.9999M22 23C20.5875 21.5815 7.44545 21.2267 4.62042 21.2267C1.79539 21.2267 1.06931 21.6809 1.44226 19.8082C1.74859 18.2701 1.52553 8.28149 1 1.87988" stroke="black" stroke-linecap="round"/>
</svg>
