<svg width="24" height="24" viewBox="0 0 24 24" fill="none" xmlns="http://www.w3.org/2000/svg">
<path d="M4.05108 9.46692C3.71989 12.8502 4.84596 19.6168 11.9998 19.6168M11.9998 19.6168C19.1537 19.6168 20.28 12.8502 19.949 9.46692M11.9998 19.6168V22.7996M11.9998 22.7996C10.3367 22.8328 8.62784 22.9237 7.52901 23C5.78682 23.1211 18.5 23.4999 16.4714 23C15.6351 22.7966 13.8457 22.7627 11.9998 22.7996ZM12.5 3.49988C12.8333 3.7335 13.6 4.48066 14 5.60031M7.52867 12.7561V5.60031C7.5 2.49914 10.9841 -0.858354 14.4838 2.21703C16.4714 3.96355 16.4714 13.7259 14.4838 15.75C13.0369 17.2235 8.57971 17.6749 7.54899 12.9462C7.53542 12.8839 7.52867 12.8197 7.52867 12.7561Z" stroke="black" stroke-linecap="round"/>
</svg>
