<svg width="24" height="24" viewBox="0 0 24 24" fill="none" xmlns="http://www.w3.org/2000/svg">
<path d="M3.46161 15.3913H2.71656C2.64112 15.3913 2.5745 15.4428 2.55228 15.5183L1.00774 20.767C0.973673 20.8828 1.05633 21 1.17202 21H16.3757C16.4898 21 16.5722 20.8858 16.541 20.7708L15.1707 15.7174M13.3247 17.7474C13.2397 18.1295 12.084 19.2551 9.47178 19.4022C7.03845 19.5392 5.19721 18.3651 4.74958 17.509C4.73752 17.4859 4.7317 17.4607 4.73089 17.4344M13.3247 17.7474C13.3266 17.7389 13.3272 17.7308 13.3274 17.722L13.3353 17.4344M13.3247 17.7474C9.58442 20.128 6.03705 18.5306 4.73089 17.4344M4.73089 17.4344L4.72049 17.0967M13.3868 15.545C13.3926 15.4942 13.3955 15.443 13.3955 15.3914C13.3955 14.75 12.9434 14.167 12.206 13.7348M13.3868 15.545C13.2437 16.8061 11.3504 17.8044 9.03577 17.8044C6.62794 17.8044 4.67601 16.724 4.67601 15.3914C4.67601 14.0587 6.62794 12.9783 9.03577 12.9783C9.4099 12.9783 9.77301 13.0044 10.1195 13.0535M13.3868 15.545L13.3608 16.5M13.3868 15.545L13.3894 15.4526M18.1108 3C14.4361 7.30435 8.59408 13.4935 10.2632 14.25C10.7511 14.4348 12.0943 14.2826 13.5642 12.1957M14.4673 10.174C13.7822 11.1305 12.8417 13.2848 14.5607 14.25C14.8202 14.3696 15.4264 14.537 15.7752 14.25M15.9309 11.0544C15.8375 11.0544 14.5296 13.7283 16.4603 14.5109C16.6887 14.5979 17.2015 14.6805 17.4257 14.3153M17.4257 11.4457C16.9794 12.2283 16.4291 14.3083 18.2977 14.7717C20.6644 15.3587 21.5363 13.0435 21.0692 12.3261M18.7337 13.0435C19.9897 13.087 22.6014 11.7588 23 6.09789M13.3353 17.4344C12.0372 18.3541 8.49688 19.574 4.72049 17.0967M13.3353 17.4344L13.3445 17.0967M4.72049 17.0967L4.70981 16.75M13.3445 17.0967C11.7792 17.9862 7.86072 19.1622 4.70981 16.75M13.3445 17.0967L13.3608 16.5M4.70981 16.75L4.696 16.3018M13.3608 16.5C12.0379 17.7012 8.45281 19.3433 4.696 16.3018M4.66984 15.4526L4.696 16.3018" stroke="black" stroke-linecap="round"/>
</svg>
