<svg width="24" height="24" viewBox="0 0 24 24" fill="none" xmlns="http://www.w3.org/2000/svg">
<path d="M1 23L23 1M4.16226 7.97442C4.32063 7.95172 8.15485 7.45801 7.99515 4.01522C7.98047 3.6989 7.9396 3.41115 7.87607 3.15031C7.79654 2.82374 7.6815 2.53934 7.53791 2.29383C6.36075 0.281075 3.26496 0.882379 2.08611 2.29383C1.62354 2.84813 0.654076 4.25388 1.12652 6.01107C1.42267 7.11257 2.38349 7.81503 3.38636 7.96831C3.64577 8.00796 3.908 8.01086 4.16226 7.97442ZM19.1623 22.9744C19.3206 22.9517 23.1549 22.458 22.9951 19.0152C22.9805 18.6989 22.9396 18.4112 22.8761 18.1503C22.7965 17.8237 22.6815 17.5393 22.5379 17.2938C21.3608 15.2811 18.265 15.8824 17.0861 17.2938C16.6235 17.8481 15.6541 19.2539 16.1265 21.0111C16.4227 22.1126 17.3835 22.815 18.3864 22.9683C18.6458 23.008 18.908 23.0109 19.1623 22.9744Z" stroke="black" stroke-linecap="round"/>
</svg>
