<svg width="24" height="24" viewBox="0 0 24 24" fill="none" xmlns="http://www.w3.org/2000/svg">
<path d="M8.01197 7.71845C7.84948 6.56681 9.32355 3.34201 13.5365 4.1196C17.2736 4.8094 18.0861 8.43822 15.4863 10.5975C14.0239 11.9468 12.0416 14.2252 12.5616 16.6436M11.6861 21.582C12.1296 22.0093 12.8597 22.1322 13.4612 21.8421C14.0511 21.5577 14.3317 20.9657 14.1875 20.413M11.6861 21.582C11.6067 21.5054 11.5364 21.419 11.4777 21.3235C11.0916 20.695 11.3537 19.9083 12.0631 19.5662C12.7725 19.2242 13.6605 19.4563 14.0466 20.0848C14.1116 20.1907 14.1583 20.301 14.1875 20.413M11.6861 21.582C12.3324 21.7883 13.7375 21.8434 14.1875 20.413" stroke="black" stroke-linecap="round"/>
</svg>
