<svg width="24" height="24" viewBox="0 0 24 24" fill="none" xmlns="http://www.w3.org/2000/svg">
<path d="M23 11.6364V19.0974C23 19.1952 22.9256 19.2755 22.8317 19.2791L3.79365 20M23 11.6364L19.5325 10.5531C19.5162 10.548 19.4993 10.5455 19.4823 10.5455L16.5706 10.7758M23 11.6364L16.5396 12.0033M3.79365 20V12.7273M3.79365 20L3.59111 19.9209M3.79365 12.7273L10.0794 12.3702M3.79365 12.7273L3.59111 12.6482M16.5706 10.7758L16.5396 12.0033M16.5706 10.7758L16.7143 5.09091M16.3651 18.9091L16.5396 12.0033M16.5396 12.0033L10.0794 12.3702M16.7143 5.09091H10.0794M16.7143 5.09091L13.5983 4.00933C13.5805 4.00315 13.5619 4 13.5431 4H7.28571M10.0794 5.09091V12.3702M10.0794 5.09091L9.97129 5.04871M7.28571 4L6.93651 10.9091M7.28571 4L7.51316 4.08882M6.93651 10.9091L1 11.6364M6.93651 10.9091L7.19191 11.0278M10.0794 12.3702V19.2727M10.0794 12.3702L9.8033 12.2419M1 11.6364V18.7831C1 18.8589 1.04515 18.9267 1.1133 18.9533L1.26419 19.0123M1 11.6364L1.26419 11.7395M7.51316 4.08882L7.19191 11.0278M7.51316 4.08882L7.80313 4.20205M7.19191 11.0278L7.52376 11.1821M7.52376 11.1821L7.80313 4.20205M7.52376 11.1821L7.82176 11.3207M7.80313 4.20205L8.13679 4.33234M8.13679 4.33234L7.82176 11.3207M8.13679 4.33234L8.33333 4.40909M7.82176 11.3207L8.1127 11.4559M8.1127 11.4559L8.33333 4.40909M8.1127 11.4559L8.36348 11.5725M8.33333 4.40909L8.62937 4.52469M8.62937 4.52469L8.36348 11.5725M8.62937 4.52469L8.88403 4.62413M8.36348 11.5725L8.60883 11.6866M8.60883 11.6866L8.88403 4.62413M8.60883 11.6866L8.83057 11.7897M8.88403 4.62413L9.14815 4.72727M9.14815 4.72727L8.83057 11.7897M9.14815 4.72727L9.38095 4.81818M8.83057 11.7897L9.03175 11.8832M9.03175 11.8832L9.38095 4.81818M9.03175 11.8832L9.28299 12M9.38095 4.81818L9.64707 4.9221M9.64707 4.9221L9.28299 12M9.64707 4.9221L9.86322 5.0065M9.28299 12L9.52723 12.1136M9.52723 12.1136L9.86322 5.0065M9.52723 12.1136L9.8033 12.2419M9.86322 5.0065L9.97129 5.04871M9.97129 5.04871L9.8033 12.2419M3.59111 19.9209V12.6482M3.59111 19.9209L3.37525 19.8366M3.59111 12.6482L3.37525 12.5639M3.37525 12.5639V19.8366M3.37525 12.5639L3.09524 12.4545M3.37525 19.8366L3.09524 19.7273M3.09524 19.7273V12.4545M3.09524 19.7273L2.86243 19.6364M3.09524 12.4545L2.86243 12.3636M2.86243 12.3636V19.6364M2.86243 12.3636L2.56018 12.2456M2.86243 19.6364L2.56018 19.5183M2.56018 19.5183V12.2456M2.56018 19.5183L2.39683 19.4545M2.56018 12.2456L2.39683 12.1818M2.39683 12.1818V19.4545M2.39683 12.1818L2.13614 12.08M2.39683 19.4545L2.13614 19.3528M2.13614 19.3528V12.08M2.13614 19.3528L1.82016 19.2294M2.13614 12.08L1.82016 11.9566M1.82016 11.9566V19.2294M1.82016 11.9566L1.52839 11.8427M1.82016 19.2294L1.52839 19.1154M1.52839 19.1154V11.8427M1.52839 19.1154L1.26419 19.0123M1.52839 11.8427L1.26419 11.7395M1.26419 11.7395V19.0123" stroke="black" stroke-linecap="round"/>
</svg>
