<svg width="24" height="24" viewBox="0 0 24 24" fill="none" xmlns="http://www.w3.org/2000/svg">
<path d="M21.1409 4.35802C17.4304 3.82921 5.83944 3.93502 2.50002 4.35807M22.5323 4.88689C22.7378 9.41663 23.0963 17.4864 22.9758 19.9999M22.0003 20C20.5877 18.9684 7.44553 18.7104 4.62046 18.7104C1.7954 18.7104 1.06931 19.0406 1.44226 17.6787C1.74859 16.5601 1.52554 9.29563 1 4.63991M4.04453 7.52929C4.03997 7.48991 4.03538 7.45077 4.03075 7.41186C4.0143 7.27349 4.11314 7.14815 4.25197 7.13618C7.01023 6.8984 16.5516 6.98447 19.4398 7.29746C19.5601 7.3105 19.6479 7.40839 19.6542 7.52929C19.6582 7.60907 19.6624 7.69 19.6667 7.77202M4.04453 7.52929L19.6667 7.77202M4.04453 7.52929C4.0623 7.68292 4.07954 7.84004 4.09621 8M19.6667 7.77202C19.6752 7.93741 19.6841 8.10716 19.6932 8.28054M19.6932 8.28054L4.09621 8M19.6932 8.28054C19.7003 8.41624 19.7076 8.55417 19.7149 8.69396M4.09621 8C4.1133 8.16393 4.1298 8.33083 4.1457 8.5M4.1457 8.5L19.7149 8.69396M4.1457 8.5C4.16118 8.66474 4.17608 8.83162 4.19039 9M19.7149 8.69396C19.7202 8.79504 19.7256 8.8971 19.731 9M19.731 9H4.19039M19.731 9C19.7396 9.16469 19.7484 9.33154 19.7572 9.5M4.19039 9C4.20445 9.16543 4.21793 9.33231 4.23082 9.5M4.23082 9.5H19.7572M4.23082 9.5C4.24359 9.66607 4.25577 9.83294 4.26736 10M19.7572 9.5C19.7658 9.66529 19.7745 9.83212 19.7831 10M19.7831 10H4.26736M19.7831 10C19.7917 10.1658 19.8002 10.3327 19.8087 10.5M4.26736 10C4.27892 10.1667 4.28988 10.3335 4.30024 10.5M4.30024 10.5H19.8087M4.30024 10.5C4.31064 10.6673 4.32042 10.8341 4.32956 11M19.8087 10.5C19.8171 10.6663 19.8255 10.8332 19.8337 11M19.8337 11H4.32956M19.8337 11C19.842 11.1668 19.8501 11.3336 19.8581 11.5M4.32956 11C4.33882 11.1679 4.34743 11.3348 4.35537 11.5M4.35537 11.5H19.8581M4.35537 11.5C4.36347 11.6686 4.37087 11.8355 4.37755 12M19.8581 11.5C19.8661 11.6673 19.874 11.8341 19.8817 12M19.8817 12H4.37755M19.8817 12C19.8894 12.1678 19.8969 12.3347 19.9042 12.5M4.37755 12C4.38443 12.1695 4.39056 12.3364 4.39589 12.5M4.39589 12.5H19.9042M4.39589 12.5C4.40146 12.6705 4.40617 12.8375 4.41 13M19.9042 12.5C19.9116 12.6684 19.9187 12.8353 19.9255 13M19.9255 13H4.41M19.9255 13C19.9324 13.1691 19.939 13.3359 19.9452 13.5M4.41 13C4.41405 13.172 4.41713 13.339 4.41919 13.5M4.41919 13.5H19.9452M4.41919 13.5C4.42142 13.674 4.42247 13.8411 4.4223 14M19.9452 13.5C19.9536 13.7231 19.9613 13.941 19.968 14.1522M19.968 14.1522L4.4223 14M19.968 14.1522C19.9738 14.3338 19.979 14.5106 19.9833 14.6814M4.4223 14C4.42211 14.1775 4.4204 14.3447 4.41713 14.5M4.41713 14.5L19.9833 14.6814M4.41713 14.5C4.41281 14.7046 4.40577 14.8885 4.39589 15.0476M19.9833 14.6814C19.9883 14.8761 19.9922 15.0631 19.995 15.2411M19.995 15.2411L4.39589 15.0476M19.995 15.2411C19.9971 15.3731 19.9986 15.5001 19.9994 15.6216M4.39589 15.0476C4.38554 15.2142 4.37208 15.3537 4.35537 15.4615M4.35537 15.4615C4.34522 15.5269 4.33388 15.5806 4.32131 15.6216C4.27266 15.7803 4.24975 15.9036 4.25679 15.999M4.35537 15.4615L19.9994 15.6216M19.9994 15.6216C20.0002 15.7542 20.0002 15.8803 19.9994 15.999M19.9994 15.999H4.25679M19.9994 15.999C19.9985 16.1198 19.9967 16.233 19.9939 16.3378M4.25679 15.999C4.28896 16.4353 4.9464 16.291 6.63032 16.291C7.37102 16.291 9.31619 16.4676 11.5 16.6445M11.5 16.6445C15.3674 16.9578 19.9833 17.2722 19.9833 16.6086C19.9877 16.526 19.9912 16.4355 19.9939 16.3378M11.5 16.6445L19.9939 16.3378" stroke="black" stroke-linecap="round"/>
</svg>
