<svg width="25" height="24" viewBox="0 0 25 24" fill="none" xmlns="http://www.w3.org/2000/svg">
<path d="M16.313 8.16499L19.6566 2C14.8643 4.22056 13.1287 6.23109 12.7599 7.69592M15.2213 10.5773L12.2782 15.6132C12.6636 16.03 12.9607 16.5373 13.1313 17.1144C13.7303 19.1402 12.5435 21.2593 10.4806 21.8475C8.41774 22.4357 6.25992 21.2703 5.66098 19.2444C5.06205 17.2185 6.24881 15.0994 8.31169 14.5113C8.91192 14.3401 9.5202 14.3174 10.0958 14.4212C10.1567 14.4212 11.8095 11.3449 12.7648 9.84022M15.2894 10.5773C19.8612 11.3814 21.7718 7.62878 23 5.35042L8.64548 11.6351C8.59329 11.658 8.55332 11.7011 8.53334 11.7537C8.33445 12.2773 8.01496 12.7659 7.57587 13.1778C6.02253 14.6349 3.56053 14.5794 2.07685 13.0539C0.593167 11.5285 0.649635 9.11066 2.20298 7.6536C3.75631 6.19655 6.21831 6.252 7.70199 7.77747C8.12465 8.21202 8.42232 8.719 8.59601 9.25554L12.56 7.77746M10.9998 16.6192C10.439 16.0872 9.61869 15.8587 8.82281 16.0898C7.62976 16.4362 6.9434 17.6841 7.28979 18.8772C7.63618 20.0702 8.88414 20.7566 10.0772 20.4102C10.9764 20.1491 11.5878 19.3759 11.6861 18.5M3.2998 12.0808C3.86061 12.6128 4.68092 12.8413 5.4768 12.6102C6.66985 12.2638 7.35621 11.0159 7.00982 9.8228C6.66343 8.62975 5.41547 7.9434 4.22242 8.28979C3.22174 8.58033 2.57753 9.50513 2.60019 10.4998" stroke="black" stroke-linecap="round"/>
</svg>
