<svg width="24" height="24" viewBox="0 0 24 24" fill="none" xmlns="http://www.w3.org/2000/svg">
<path d="M11.0081 5.9746L10.8385 4.93875C10.8228 4.84328 10.7544 4.76446 10.6612 4.7346L9.64974 4.41056C9.42862 4.33972 9.40426 4.04064 9.61106 3.93586L10.557 3.45657C10.6442 3.4124 10.699 3.32381 10.699 3.2271L10.6988 2.17781C10.6987 1.94841 10.9795 1.83313 11.1444 1.99483L11.8987 2.73446C11.9682 2.80263 12.0705 2.82669 12.1637 2.79679L13.175 2.47233C13.3961 2.40139 13.5939 2.62922 13.4891 2.83394L13.0092 3.77035C12.965 3.85665 12.9735 3.96012 13.0311 4.03834L13.6563 4.8871C13.793 5.07266 13.6346 5.32875 13.4048 5.29357L12.354 5.13267C12.2572 5.11784 12.16 5.15773 12.1024 5.23597L11.4776 6.085C11.341 6.27061 11.0452 6.20106 11.0081 5.9746ZM11.0081 5.9746L10.0954 4.90142C10.0353 4.83473 9.94457 4.80342 9.85547 4.81862L8.4952 5.05073C8.26612 5.08982 8.10321 4.83647 8.23663 4.64861L9.0207 3.54459C9.07694 3.46539 9.08356 3.3618 9.03783 3.27627L8.4004 2.08387C8.29193 1.88097 8.48578 1.6498 8.70807 1.71695L10.0145 2.11159C10.1082 2.1399 10.2101 2.1141 10.2784 2.04476L11.2302 1.07862C11.3923 0.914059 11.6751 1.02472 11.6789 1.25419L11.7119 2.55133M9.02138 3.24964L8.75742 2.80637C8.63844 2.60655 8.33351 2.65096 8.2781 2.87618L8.09498 3.62058C8.07186 3.71456 7.9974 3.78788 7.90211 3.81049L7.1306 3.99358C6.90457 4.04722 6.85669 4.34352 7.0546 4.46387L7.73013 4.87465C7.81356 4.92539 7.86122 5.01792 7.85357 5.11433L7.79163 5.89492C7.77348 6.12362 8.04427 6.26012 8.22143 6.11158L8.82611 5.60457C8.90079 5.54195 9.00471 5.52582 9.09527 5.56279L9.8215 5.85928C10.0373 5.94738 10.2529 5.73326 10.1623 5.52088L9.87023 4.83666M11.8358 10.4133L11.7688 11.0526M13.1766 10.4352L13.2436 11.0304M5.74349 6.28917C5.63444 6.10024 5.81139 5.88769 6.02631 5.93563C10.3201 6.89349 16.0994 6.35876 18.9588 5.89182C19.1678 5.85769 19.3277 6.06592 19.224 6.24815C19.2162 6.26176 19.2084 6.27543 19.2005 6.28917M5.74349 6.28917C5.81584 6.41451 5.89653 6.54535 5.98552 6.68006M5.74349 6.28917H19.2005M14.9857 16.4529H15.6558M12.3946 13.3008V13.8518M12.417 19.1418V19.6929M9.15518 16.4529H9.82532M14.6947 14.2706L14.3149 14.6233M10.563 18.3926L10.1833 18.7453M14.65 18.7453L14.3149 18.3485M10.5183 14.6455L10.1833 14.2487M11.8928 5.52088L12.802 6.24335C12.9641 6.36921 13.2032 6.26887 13.2237 6.06634L13.2879 5.27567M13.2879 6.07111L13.9058 5.70161C13.9803 5.65703 14.0725 5.65206 14.1515 5.68836L15.0244 6.08931C15.1763 6.15907 15.3545 6.07182 15.3901 5.9103M9.0207 9.50527H15.9727M9.0207 9.50527C9.23152 9.62097 9.45102 9.72866 9.67914 9.8265M9.0207 9.50527C8.80985 9.38956 8.60769 9.26583 8.41427 9.13594M15.9727 9.50527C15.767 9.62099 15.553 9.72868 15.3311 9.8265M15.9727 9.50527C16.1784 9.38958 16.376 9.26586 16.5653 9.13594M15.3311 9.8265H9.67914M15.3311 9.8265C15.028 9.96006 14.7099 10.0752 14.377 10.1673M9.67914 9.8265C9.99047 9.96003 10.3179 10.0752 10.6612 10.1673M10.6612 10.1673C11.2065 10.3137 11.7919 10.402 12.4169 10.4133C13.1182 10.4261 13.772 10.3348 14.377 10.1673M10.6612 10.1673H14.377M16.5653 9.13594H8.41427M16.5653 9.13594C16.7387 9.01688 16.9052 8.89262 17.0648 8.76456M8.41427 9.13594C8.23694 9.01686 8.06695 8.89259 7.90435 8.76456M7.90435 8.76456H17.0648M7.90435 8.76456C7.77909 8.66592 7.6582 8.56504 7.54173 8.46259M17.0648 8.76456C17.1876 8.66594 17.3063 8.56507 17.4208 8.46259M17.4208 8.46259H7.54173M17.4208 8.46259C17.562 8.33617 17.6969 8.20729 17.8253 8.07718M7.54173 8.46259C7.39796 8.33613 7.26091 8.20725 7.1306 8.07718M7.1306 8.07718H17.8253M7.1306 8.07718C7.00662 7.95343 6.88875 7.82859 6.77702 7.70373M17.8253 8.07718C17.9474 7.95347 18.0637 7.82864 18.1741 7.70373M18.1741 7.70373H6.77702M18.1741 7.70373C18.3742 7.47725 18.5551 7.2505 18.7162 7.02966M6.77702 7.70373C6.68773 7.60393 6.60236 7.50412 6.52093 7.40483M6.52093 7.40483H18.3929L18.7162 7.02966M6.52093 7.40483C6.41737 7.27856 6.32019 7.15314 6.22942 7.02966M18.7162 7.02966H6.22942M18.7162 7.02966C18.8028 6.9111 18.8836 6.79425 18.9588 6.68006M6.22942 7.02966C6.14219 6.911 6.06088 6.79414 5.98552 6.68006M18.9588 6.68006H5.98552M18.9588 6.68006C19.0473 6.54555 19.1279 6.41473 19.2005 6.28917M15.0912 2.98738L14.0848 2.64855C13.8648 2.57447 13.6636 2.79946 13.7655 3.00565L14.2315 3.9488C14.2745 4.03572 14.2645 4.13905 14.2058 4.21645L13.5682 5.05622C13.4288 5.2398 13.5835 5.49813 13.8137 5.46623L14.8668 5.32031C14.9638 5.30687 15.0603 5.34813 15.1168 5.42719L15.7292 6.28503C15.863 6.47257 16.1598 6.40723 16.2002 6.18133L16.385 5.148C16.402 5.05276 16.4716 4.97493 16.5653 4.9464L17.5813 4.63681C17.8034 4.56913 17.8322 4.27042 17.6269 4.16271L16.6881 3.66999C16.6015 3.62458 16.548 3.53521 16.5495 3.43852L16.565 2.38934C16.5684 2.15997 16.2894 2.0407 16.1222 2.20003L15.3571 2.92884C15.2866 2.99601 15.184 3.01861 15.0912 2.98738ZM7.26683 21.9192H9.50683C9.62823 21.9192 9.73551 22.0016 9.74707 22.1208C9.78216 22.483 9.7047 22.97 9.2003 22.9992H7.59195C7.35254 23.0127 6.93465 22.8489 7.02066 22.1249C7.035 22.0043 7.14372 21.9192 7.26683 21.9192ZM15.4894 21.9192H17.7294C17.8508 21.9192 17.9581 22.0016 17.9696 22.1208C18.0047 22.483 17.9273 22.97 17.4229 22.9992H15.8145C15.5751 23.0127 15.1572 22.8489 15.2432 22.1249C15.2576 22.0043 15.3663 21.9192 15.4894 21.9192ZM5.00012 19.5165C5.02246 16.4306 6.81845 10.4308 13.8237 11.1185C15.581 11.2949 19.2698 13.2213 19.9667 19.5165C20.0717 20.4643 20.0561 21.897 17.9116 21.897H6.96588C6.19827 21.9264 4.98622 21.4342 5.00012 19.5165ZM16.1253 16.4968C16.1253 18.5176 14.4651 20.1558 12.4172 20.1558C10.3692 20.1558 8.70903 18.5176 8.70903 16.4968C8.70903 14.476 10.3692 12.8379 12.4172 12.8379C14.4651 12.8379 16.1253 14.476 16.1253 16.4968ZM10.4918 18.0546L14.9188 14.7997L10.3054 17.7919C10.227 17.8427 10.2083 17.9482 10.2646 18.0222C10.3183 18.0929 10.42 18.1074 10.4918 18.0546ZM12.7745 16.4968C12.7745 16.6915 12.6145 16.8494 12.4171 16.8494C12.2197 16.8494 12.0597 16.6915 12.0597 16.4968C12.0597 16.302 12.2197 16.1441 12.4171 16.1441C12.6145 16.1441 12.7745 16.302 12.7745 16.4968Z" stroke="black" stroke-linecap="round"/>
</svg>
