<svg width="24" height="24" viewBox="0 0 24 24" fill="none" xmlns="http://www.w3.org/2000/svg">
<path d="M5.82283 17.791C5.94519 17.8342 6.18895 17.889 6.5 17.9446M5.82283 17.791V4.41245M5.82283 17.791C5.61573 17.7178 5.46174 17.701 5.34862 17.6966M21.1406 1.49227C17.4302 0.765159 5.83938 0.910658 2.5 1.49235M22.532 2.21947C22.7375 8.44787 23.096 19.5438 22.9755 22.9999M22 23C20.5875 21.5815 7.44545 21.2267 4.62042 21.2267C1.79539 21.2267 1.06931 21.6809 1.44226 19.8082C1.74859 18.2701 1.52553 8.28149 1 1.87988M9.23196 4.60062C9.44366 4.64942 9.62679 4.70545 9.76894 4.76829C9.84909 4.80372 9.89422 4.88206 9.89539 4.96969C9.95241 9.26845 10.5001 18.0003 10 18.0001C10.0013 18.117 9.80669 18.1796 9.5 18.204M9.23196 4.60062L9.5 18.204M9.23196 4.60062C9.06935 4.56313 8.8899 4.52991 8.69921 4.50113M9.5 18.204C9.35534 18.2155 9.18574 18.2185 9 18.2148M9 18.2148L8.69921 4.50113M9 18.2148C8.62811 18.2073 8.1915 18.1728 7.76075 18.1248M8.69921 4.50113C8.4783 4.4678 8.24231 4.44043 8 4.41933M8 4.41933L8.5 18.2148M8 4.41933C7.83534 4.40499 7.66776 4.39354 7.5 4.38507M7.76075 18.1248L7.5 4.38507M7.76075 18.1248C7.49978 18.0958 7.24097 18.0618 7 18.026M7.5 4.38507C7.3326 4.37663 7.16503 4.37115 7 4.36873M7 4.36873V18.026M7 4.36873C6.82962 4.36624 6.66195 4.36701 6.5 4.37114M7 18.026C6.8214 17.9995 6.6526 17.972 6.5 17.9446M6.5 17.9446V4.37114M6.5 4.37114C6.25821 4.3773 6.02916 4.39096 5.82283 4.41245M5.82283 4.41245C5.61575 4.43401 5.43155 4.46346 5.28034 4.50113M5.34862 17.6966C5.0123 17.6835 5.03709 17.7792 5.10051 16.8238C5.16932 15.7874 5.12061 9.12353 5.00417 4.75442C5.00163 4.6589 5.05248 4.57104 5.14308 4.54069C5.18508 4.52662 5.23095 4.51344 5.28034 4.50113M5.34862 17.6966L5.28034 4.50113" stroke="black" stroke-linecap="round"/>
</svg>
