<svg width="24" height="24" viewBox="0 0 24 24" fill="none" xmlns="http://www.w3.org/2000/svg">
<path d="M21.1406 1.49227C17.4302 0.765159 5.83938 0.910658 2.5 1.49235M22.532 2.21947C22.7375 8.44787 23.096 19.5438 22.9755 22.9999M22 23C20.5875 21.5815 7.44545 21.2267 4.62042 21.2267C1.79539 21.2267 1.06931 21.6809 1.44226 19.8082C1.74859 18.2701 1.52553 8.28149 1 1.87988M16 8.99983C16 6.99999 17.9571 5.41359 19 7.49983C19.5 8.50007 20.5 19 18 18.9997C17.5 19 16 19.0001 16 17.0001V8.99983ZM5 13.3923C5 12.2708 6.61969 11.3812 7.48276 12.5511C7.89655 13.112 8.72414 19.0002 6.65517 19C6.24138 19.0002 5 19.0002 5 17.8786V13.3923ZM10 6.98344C10 4.58029 12.1596 2.67395 13.3103 5.18093C13.8621 6.38289 14.9655 19.0004 12.2069 19C11.6552 19.0004 10 19.0004 10 16.5971V6.98344Z" stroke="black" stroke-linecap="round"/>
</svg>
