<svg width="24" height="24" viewBox="0 0 24 24" fill="none" xmlns="http://www.w3.org/2000/svg">
<path d="M20.5 6.00002H16.5M20.5 10H16.5M20.5 14H16.5M1.46799 2.21949C1.26249 8.44789 0.904006 19.5439 1.02448 22.9999M2.85939 1.49229C4.66244 1.13895 8.32636 0.991677 12 1.00038C13.3636 1.00361 12.7285 0.976728 14 1.02037M2.00002 23C2.81968 22.1769 7.58892 21.712 12 21.4667C13.4181 21.3878 12.7991 21.2801 14 21.242M23 1.8799C22.6757 5.83022 22.4666 11.1465 22.426 15C22.4008 17.3913 22.4405 19.2193 22.5578 19.8083C22.9307 21.6809 22.2046 21.2268 19.3796 21.2268C18.7209 21.2268 15.5012 21.1945 14 21.242M14 1.02037C16.3526 1.10112 20.3857 1.29826 21.5 1.49236M14 1.02037C13.8334 7.35879 13.6 20.2769 14 21.242" stroke="black" stroke-linecap="round"/>
</svg>
