<svg width="24" height="24" viewBox="0 0 24 24" fill="none" xmlns="http://www.w3.org/2000/svg">
<path d="M22.5076 21.1408C23.2347 17.4303 23.0892 5.8395 22.5075 2.50012M21.7804 22.5322C15.552 22.7377 4.45603 23.0961 0.999939 22.9757M0.999863 22.0001C2.41837 20.5876 2.77311 7.44557 2.77311 4.62054C2.77311 1.79551 2.31898 1.06943 4.19162 1.44238C5.72976 1.74871 15.7184 1.52565 22.12 1.00012M15 16.0001C16.9999 16.0001 18.5863 17.9572 16.5 19.0001C15.4998 19.5001 4.99986 20.5001 5.00017 18.0001C4.99986 17.5001 4.9998 16.0001 6.9998 16.0001L15 16.0001ZM10.6076 5.00012C11.7291 5.00012 12.6187 6.61981 11.4488 7.48288C10.8878 7.89667 4.99969 8.72426 4.99987 6.65529C4.99969 6.2415 4.99966 5.00012 6.12122 5.00012L10.6076 5.00012ZM17.0164 10.0001C19.4196 10.0001 21.3259 12.1597 18.8189 13.3105C17.617 13.8622 4.9995 14.9656 4.99987 12.207C4.9995 11.6553 4.99943 10.0001 7.40277 10.0001L17.0164 10.0001Z" stroke="black" stroke-linecap="round"/>
</svg>
