<svg width="24" height="24" viewBox="0 0 24 24" fill="none" xmlns="http://www.w3.org/2000/svg">
<path d="M18.8566 4.54069C18.8146 4.52662 18.7688 4.51344 18.7194 4.50113C18.5682 4.46346 18.384 4.43401 18.1769 4.41245C17.9706 4.39096 17.7415 4.3773 17.4997 4.37114C17.3378 4.36701 17.1701 4.36624 16.9997 4.36873C16.8347 4.37115 16.6671 4.37663 16.4997 4.38507C16.332 4.39354 16.1644 4.40499 15.9997 4.41933C15.7574 4.44043 15.5214 4.4678 15.3005 4.50113C15.1098 4.52991 14.9304 4.56313 14.7678 4.60062C14.5561 4.64942 14.3729 4.70545 14.2308 4.76829C14.1506 4.80372 14.1055 4.88206 14.1043 4.96969C14.0473 9.26845 13.4996 18.0003 13.9997 18.0001C13.9984 18.117 14.193 18.1796 14.4997 18.204C14.6444 18.2155 14.814 18.2185 14.9997 18.2148C15.3716 18.2073 15.8082 18.1728 16.239 18.1248C16.4999 18.0958 16.7588 18.0618 16.9997 18.026C17.1783 17.9995 17.3471 17.972 17.4997 17.9446C17.8108 17.889 18.0545 17.8342 18.1769 17.791C18.384 17.7178 18.538 17.701 18.6511 17.6966C18.9874 17.6835 18.9626 17.7792 18.8992 16.8238C18.8304 15.7874 18.8791 9.12353 18.9955 4.75442C18.9981 4.6589 18.9472 4.57104 18.8566 4.54069Z" fill="black"/>
<path d="M18.1769 17.791C18.0545 17.8342 17.8108 17.889 17.4997 17.9446M18.1769 17.791V4.41245M18.1769 17.791C18.384 17.7178 18.538 17.701 18.6511 17.6966M2.85909 1.49227C6.5695 0.765159 18.1603 0.910658 21.4997 1.49235M1.46768 2.21947C1.26219 8.44787 0.903701 19.5438 1.02417 22.9999M1.99972 23C3.41224 21.5815 16.5543 21.2267 19.3793 21.2267C22.2043 21.2267 22.9304 21.6809 22.5575 19.8082C22.2511 18.2701 22.4742 8.28149 22.9997 1.87988M14.7678 4.60062C14.5561 4.64942 14.3729 4.70545 14.2308 4.76829C14.1506 4.80372 14.1055 4.88206 14.1043 4.96969C14.0473 9.26845 13.4996 18.0003 13.9997 18.0001C13.9984 18.117 14.193 18.1796 14.4997 18.204M14.7678 4.60062L14.4997 18.204M14.7678 4.60062C14.9304 4.56313 15.1098 4.52991 15.3005 4.50113M14.4997 18.204C14.6444 18.2155 14.814 18.2185 14.9997 18.2148M14.9997 18.2148L15.3005 4.50113M14.9997 18.2148C15.3716 18.2073 15.8082 18.1728 16.239 18.1248M15.3005 4.50113C15.5214 4.4678 15.7574 4.44043 15.9997 4.41933M15.9997 4.41933L15.4997 18.2148M15.9997 4.41933C16.1644 4.40499 16.332 4.39354 16.4997 4.38507M16.239 18.1248L16.4997 4.38507M16.239 18.1248C16.4999 18.0958 16.7588 18.0618 16.9997 18.026M16.4997 4.38507C16.6671 4.37663 16.8347 4.37115 16.9997 4.36873M16.9997 4.36873V18.026M16.9997 4.36873C17.1701 4.36624 17.3378 4.36701 17.4997 4.37114M16.9997 18.026C17.1783 17.9995 17.3471 17.972 17.4997 17.9446M17.4997 17.9446V4.37114M17.4997 4.37114C17.7415 4.3773 17.9706 4.39096 18.1769 4.41245M18.1769 4.41245C18.384 4.43401 18.5682 4.46346 18.7194 4.50113M18.6511 17.6966C18.9874 17.6835 18.9626 17.7792 18.8992 16.8238C18.8304 15.7874 18.8791 9.12353 18.9955 4.75442C18.9981 4.6589 18.9472 4.57104 18.8566 4.54069C18.8146 4.52662 18.7688 4.51344 18.7194 4.50113M18.6511 17.6966L18.7194 4.50113" stroke="black" stroke-linecap="round"/>
</svg>
