<svg width="24" height="24" viewBox="0 0 24 24" fill="none" xmlns="http://www.w3.org/2000/svg">
<path d="M3.58988 5H20.1651C23.273 5 23.2461 7.49227 22.755 9.2C22.2373 11 21.0284 11 20.1651 11H3.0719C1.41438 11 1 9.8 1 9.2V6.8C1 5.36 2.72658 5 3.58988 5Z" stroke="black" stroke-linecap="round"/>
<path d="M19.9986 7.86149C20.0442 8.84514 18.9488 8.98621 18.9035 8.99269C18.8309 9.0031 18.7559 9.00227 18.6818 8.99095C18.3953 8.94715 18.1208 8.74645 18.0361 8.43173C17.9012 7.92968 18.1782 7.52804 18.3103 7.36966C18.6471 6.96639 19.5316 6.79459 19.868 7.36966C19.909 7.43981 19.9419 7.52107 19.9646 7.61437C19.9827 7.6889 19.9944 7.77111 19.9986 7.86149Z" stroke="black" stroke-linecap="round"/>
<path d="M3.58988 13H20.1651C23.273 13 23.2461 15.4923 22.755 17.2C22.2373 19 21.0284 19 20.1651 19H3.0719C1.41438 19 1 17.8 1 17.2V14.8C1 13.36 2.72658 13 3.58988 13Z" stroke="black" stroke-linecap="round"/>
<path d="M19.9986 15.8615C20.0442 16.8451 18.9488 16.9862 18.9035 16.9927C18.8309 17.0031 18.7559 17.0023 18.6818 16.9909C18.3953 16.9472 18.1208 16.7464 18.0361 16.4317C17.9012 15.9297 18.1782 15.528 18.3103 15.3697C18.6471 14.9664 19.5316 14.7946 19.868 15.3697C19.909 15.4398 19.9419 15.5211 19.9646 15.6144C19.9827 15.6889 19.9944 15.7711 19.9986 15.8615Z" stroke="black" stroke-linecap="round"/>
</svg>
