<svg width="24" height="24" viewBox="0 0 24 24" fill="none" xmlns="http://www.w3.org/2000/svg">
<path d="M13 5H4.00002M13 9.33333H4.00002M13 13.6667H4.00002M13 18H4.00002M1.46799 2.21947C1.26249 8.44787 0.904006 19.5438 1.02448 22.9999M2.85939 1.49227C4.66244 1.13894 8.32636 0.991661 12 1.00036C13.3636 1.00359 14.7285 1.02831 16 1.07196M2.00002 23C2.81968 22.1769 7.58892 21.7119 12 21.4667C13.4181 21.3878 14.7991 21.3317 16 21.2936M23 1.87988C22.6757 5.83021 22.4666 11.1464 22.426 15C22.4008 17.3912 22.4405 19.2193 22.5578 19.8082C22.9307 21.6809 22.2046 21.2267 19.3796 21.2267C18.7209 21.2267 17.5012 21.246 16 21.2936M16 1.07196C18.3526 1.15271 20.3857 1.29824 21.5 1.49235M16 1.07196C15.8334 7.41037 15.6 20.3285 16 21.2936" stroke="black" stroke-linecap="round"/>
</svg>
