<svg width="24" height="24" viewBox="0 0 24 24" fill="none" xmlns="http://www.w3.org/2000/svg">
<path d="M7.04121 4.82089L13.5627 4.91094L13.6311 4.91144C14.942 4.92103 16 6.05732 16 7.45569C16 8.86087 14.9321 10 13.6147 10H13M10.2122 7.48556C9.67806 6.92197 8.32898 5.65975 7.03919 4.92878C6.9858 4.89852 6.98743 4.76536 7.04121 4.73701C7.85901 4.30588 9.38528 2.98156 10.2122 2M3.2252 18.9199H2.21393C1.56255 18.9199 1.03449 18.3926 1.03449 17.7421V17.0534L1.00001 7.00343C0.998106 6.44981 1.44637 6 2 6H4.00038M8.21464 18.9204H15.2429C15.8943 18.9204 16.4224 18.3931 16.4224 17.7426V14.101M22.9966 14.101V17.7422C22.9966 18.3926 22.4685 18.9199 21.8171 18.9199H21.6677M22.9966 14.101H16.4224M22.9966 14.101C22.9966 12.3313 21.5215 9.74259 18.5 9.17398M16.4224 14.101V13M6.8248 19.461C6.61342 19.7854 6.24575 20 5.82756 20C5.1721 20 4.64075 19.4727 4.64075 18.8223C4.64075 18.1718 5.1721 17.6445 5.82756 17.6445C6.3499 17.6445 6.79343 17.9794 6.95203 18.4446M20.1522 19.461C19.9408 19.7854 19.5731 20 19.1549 20C18.4995 20 17.9681 19.4727 17.9681 18.8223C17.9681 18.1718 18.4995 17.6445 19.1549 17.6445C19.6773 17.6445 20.1208 17.9794 20.2794 18.4446M4.00038 21.5C11.4375 21.5 25.2741 21.5754 21.1231 21.8769M4.00038 21.5L21.1231 21.8769M4.00038 21.5C2.7978 21.7913 11.2003 22.0375 16.9966 21.9953M4.00038 21.5L16.9966 21.9953M21.1231 21.8769C20.1799 21.9454 18.7009 21.9828 16.9966 21.9953" stroke="black" stroke-linecap="round"/>
</svg>
