<svg width="24" height="24" viewBox="0 0 24 24" fill="none" xmlns="http://www.w3.org/2000/svg">
<path d="M11.0003 9.33333H20.0003M11.0003 13.6667H20.0003M11.0003 18H20.0003M22.5323 2.21947C22.5672 3.27616 22.6065 4.47296 22.6471 5.74879M22.6471 5.74879C22.8457 11.993 23.0759 20.1302 22.9759 22.9999M22.6471 5.74879H8.10734M21.1409 1.49227C19.3379 1.13894 15.674 0.991661 12.0003 1.00036C10.6368 1.00359 9.27188 1.02831 8.0003 1.07196C5.64777 1.15271 3.61463 1.29824 2.50031 1.49235M22.0003 23C21.1807 22.1769 16.4114 21.7119 12.0003 21.4667C10.5823 21.3878 9.20122 21.3317 8.0003 21.2936M1.00031 1.87988C1.0981 3.07116 1.18542 4.38665 1.26081 5.74879M1.26081 5.74879C1.4354 8.90356 1.54597 12.3085 1.57433 15C1.59954 17.3912 1.55986 19.2193 1.44256 19.8082C1.06962 21.6809 1.79569 21.2267 4.62072 21.2267C5.27946 21.2267 6.49916 21.246 8.0003 21.2936M1.26081 5.74879H8.10734M8.0003 21.2936C8.31655 20.5306 8.23692 12.2961 8.10734 5.74879" stroke="black" stroke-linecap="round"/>
</svg>
