<svg width="24" height="24" viewBox="0 0 24 24" fill="none" xmlns="http://www.w3.org/2000/svg">
<path d="M7 20.8697C3.88415 20.6038 1.43592 19.8765 1.24367 18.2044C1.06766 16.6736 0.954676 14.351 1.01758 12C1.04475 10.9848 1.10471 9.96432 1.20655 9M7 20.8697C8.5653 21.0033 10.2991 21.0204 12 20.9823C15.5693 20.9023 18.9938 20.5793 20.4125 20.5793C22.5392 20.5793 22.9757 16.2238 22.999 12C23.0047 10.9705 22.9858 9.94887 22.9608 9M7 20.8697C7.16667 17.0028 7.4 9.19215 7 8.88453M1.20655 9C1.52747 5.96137 2.26425 3.48046 3.70121 3.48041C4.67501 3.38389 5.79723 3.29032 7 3.21179C8.57901 3.1087 10.2969 3.03154 12 3.00771C17.512 2.93058 22.87 3.41196 22.87 5.38029C22.87 6.25887 22.9226 7.54372 22.9608 9M1.20655 9C2.84953 8.96222 4.8651 8.92101 7 8.88453M22.9608 9C22.9532 8.69068 14.2823 8.76009 7 8.88453" stroke="black" stroke-linecap="round"/>
</svg>
