<svg width="24" height="24" viewBox="0 0 24 24" fill="none" xmlns="http://www.w3.org/2000/svg">
<path d="M8 3.15118C7.6616 3.1701 7.32781 3.19039 7 3.21179C5.79723 3.29032 4.67501 3.38389 3.70121 3.48041C2.26425 3.48046 1.52747 5.96137 1.20655 9M8 3.15118C9.29163 3.07896 10.6504 3.02659 12 3.00771C13.3694 2.98854 14.7294 3.00386 16 3.06788M8 3.15118C7.9551 4.7431 7.90535 6.76481 7.86446 8.87013M8 20.9387C9.2874 21.008 10.654 21.0124 12 20.9823C13.3922 20.9511 14.7623 20.8829 16 20.8114M8 20.9387C7.66055 20.9204 7.32661 20.8976 7 20.8697C3.88415 20.6038 1.43592 19.8765 1.24367 18.2044C1.14451 17.3421 1.06536 16.2284 1.02639 15M8 20.9387C7.81635 20.9161 7.7662 18.4103 7.78182 15.1343M7.86446 8.87013C7.82326 10.9913 7.79105 13.1974 7.78182 15.1343M7.86446 8.87013C5.41222 8.9099 3.06979 8.95715 1.20655 9M7.86446 8.87013C10.6919 8.82428 13.6653 8.78838 16.2185 8.78068M7.78182 15.1343C10.3335 15.1297 13.3052 15.108 16.1358 15.0801M7.78182 15.1343C3.92632 15.1413 1.02953 15.1091 1.02639 15M16 20.8114C17.9355 20.6995 19.5471 20.5793 20.4125 20.5793C22.0291 20.5793 22.6691 18.0625 22.8933 15M16 20.8114C16.045 19.2159 16.0949 17.1891 16.1358 15.0801M16 3.06788C19.8436 3.26156 22.87 3.90099 22.87 5.38029C22.87 6.25887 22.9226 7.54372 22.9608 9M16 3.06788C16.1825 3.07611 16.2332 5.54128 16.2185 8.78068M16.1358 15.0801C16.1773 12.9438 16.2096 10.7231 16.2185 8.78068M16.1358 15.0801C18.6243 15.0557 21.0039 15.0265 22.8933 15M16.2185 8.78068C20.0641 8.76907 22.9564 8.82141 22.9608 9M1.20655 9C1.10471 9.96432 1.04475 10.9848 1.01758 12C0.990113 13.0266 0.996182 14.0478 1.02639 15M22.9608 9C22.9858 9.94887 23.0047 10.9705 22.999 12C22.9934 13.0131 22.964 14.0337 22.8933 15" stroke="black" stroke-linecap="round"/>
</svg>
