<svg width="24" height="24" viewBox="0 0 24 24" fill="none" xmlns="http://www.w3.org/2000/svg">
<path d="M12 20.9823C15.5693 20.9023 18.9938 20.5793 20.4125 20.5793C22.5392 20.5793 22.9757 16.2238 22.999 12C23.0047 10.9705 22.9858 9.94887 22.9608 9M12 20.9823C10.2991 21.0204 8.5653 21.0033 7 20.8697C3.88415 20.6038 1.43592 19.8765 1.24367 18.2044C1.06766 16.6736 0.954676 14.351 1.01758 12C1.04475 10.9848 1.10471 9.96432 1.20655 9M12 20.9823C11.6 20.9925 11.8333 12.8735 12 8.81271M1.20655 9C1.52747 5.96137 2.26425 3.48046 3.70121 3.48041C4.67501 3.38389 5.79723 3.29032 7 3.21179C8.57901 3.1087 10.2969 3.03154 12 3.00771C17.512 2.93058 22.87 3.41196 22.87 5.38029C22.87 6.25887 22.9226 7.54372 22.9608 9M1.20655 9C4.10748 8.93329 8.16998 8.85589 12 8.81271M22.9608 9C22.9549 8.76011 17.7384 8.74801 12 8.81271" stroke="black" stroke-linecap="round"/>
</svg>
