<svg width="24" height="24" viewBox="0 0 24 24" fill="none" xmlns="http://www.w3.org/2000/svg">
<path d="M1.20655 9C1.10471 9.96432 1.04475 10.9848 1.01758 12C0.954676 14.351 1.06766 16.6736 1.24367 18.2044C1.43592 19.8765 3.88415 20.6038 7 20.8697C8.5653 21.0033 10.2991 21.0204 12 20.9823C15.5693 20.9023 18.9938 20.5793 20.4125 20.5793C22.5392 20.5793 22.9757 16.2238 22.999 12C23.0047 10.9705 22.9858 9.94887 22.9608 9M1.20655 9C1.52747 5.96137 2.26425 3.48046 3.70121 3.48041C4.67501 3.38389 5.79723 3.29032 7 3.21179C8.57901 3.1087 10.2969 3.03154 12 3.00771C17.512 2.93058 22.87 3.41196 22.87 5.38029C22.87 6.25887 22.9226 7.54372 22.9608 9M1.20655 9C2.72067 8.96518 4.55122 8.92745 6.5 8.89319M22.9608 9C22.9532 8.69068 14.2823 8.76009 7 8.88453L6.5 8.89319M6.5 8.89319C6.35103 10.0264 6.25532 11.6861 6.40926 13.2109M13 17C12.5 17.1667 10.9 17.4 8.5 17C7.17261 16.7788 6.59977 15.098 6.40926 13.2109M15.5 17H19M6.40926 13.2109C7.43951 13.2813 9.6 13.3797 10 13.2109M12 13.5L16 13.2109" stroke="black" stroke-linecap="round"/>
</svg>
