<svg width="24" height="24" viewBox="0 0 24 24" fill="none" xmlns="http://www.w3.org/2000/svg">
<path d="M7 3.21179C5.79723 3.29032 4.67501 3.38389 3.70121 3.48041C2.26425 3.48046 1.52747 5.96137 1.20655 9M7 3.21179C13.6892 2.77506 22.87 2.80376 22.87 5.38029C22.87 6.25887 22.9226 7.54372 22.9608 9M7 3.21179C6.95232 4.83562 6.89918 6.93433 6.85698 9.1151M7 20.8697C11.85 21.2836 18.3177 20.5793 20.4125 20.5793C22.0291 20.5793 22.6691 18.0625 22.8933 15M7 20.8697C3.88415 20.6038 1.43592 19.8765 1.24367 18.2044C1.14451 17.3421 1.06536 16.2284 1.02639 15M7 20.8697C6.81485 20.6363 6.76539 18.0516 6.78221 14.7796M6.85698 9.1151C6.83846 10.072 6.82204 11.0447 6.80912 12C6.7962 12.9549 6.78677 13.8925 6.78221 14.7796M6.85698 9.1151C4.76847 9.07871 2.80427 9.03766 1.20655 9M6.85698 9.1151C14.0124 9.23977 22.627 9.30963 22.9608 9M6.78221 14.7796C11.7085 14.771 18.6409 14.898 22.8933 15M6.78221 14.7796C3.66083 14.785 1.34487 14.8449 1.02639 15M1.20655 9C1.00172 10.9395 0.966308 13.1062 1.02639 15M22.9608 9C22.9858 9.94887 23.0047 10.9705 22.999 12C22.9934 13.0131 22.964 14.0337 22.8933 15" stroke="black" stroke-linecap="round"/>
</svg>
