<svg width="24" height="24" viewBox="0 0 24 24" fill="none" xmlns="http://www.w3.org/2000/svg">
<path d="M12.9997 9.33333H3.99972M12.9997 13.6667H3.99972M12.9997 18H3.99972M1.46768 2.21947C1.43282 3.27616 1.39355 4.47296 1.35297 5.74879M1.35297 5.74879C1.15433 11.993 0.92414 20.1302 1.02417 22.9999M1.35297 5.74879H15.8927M2.85909 1.49227C4.66213 1.13894 8.32605 0.991661 11.9997 1.00036C13.3633 1.00359 14.7281 1.02831 15.9997 1.07196C18.3523 1.15271 20.3854 1.29824 21.4997 1.49235M1.99972 23C2.81937 22.1769 7.58861 21.7119 11.9997 21.4667C13.4178 21.3878 14.7988 21.3317 15.9997 21.2936M22.9997 1.87988C22.9019 3.07116 22.8146 4.38665 22.7392 5.74879M22.7392 5.74879C22.5646 8.90356 22.4541 12.3085 22.4257 15C22.4005 17.3912 22.4402 19.2193 22.5575 19.8082C22.9304 21.6809 22.2043 21.2267 19.3793 21.2267C18.7206 21.2267 17.5009 21.246 15.9997 21.2936M22.7392 5.74879H15.8927M15.9997 21.2936C15.6835 20.5306 15.7631 12.2961 15.8927 5.74879" stroke="black" stroke-linecap="round"/>
</svg>
