<svg width="24" height="24" viewBox="0 0 24 24" fill="none" xmlns="http://www.w3.org/2000/svg">
<path d="M11 5H20M11 9.33333H20M11 13.6667H20M11 18H20M22.532 2.21947C22.7375 8.44787 23.096 19.5438 22.9755 22.9999M21.1406 1.49227C19.3376 1.13894 15.6737 0.991661 12 1.00036C10.6365 1.00359 9.27157 1.02831 8 1.07196M22 23C21.1803 22.1769 16.4111 21.7119 12 21.4667C10.582 21.3878 9.20091 21.3317 8 21.2936M1 1.87988C1.3243 5.83021 1.53341 11.1464 1.57403 15C1.59923 17.3912 1.55955 19.2193 1.44226 19.8082C1.06931 21.6809 1.79539 21.2267 4.62042 21.2267C5.27916 21.2267 6.49886 21.246 8 21.2936M8 1.07196C5.64747 1.15271 3.61433 1.29824 2.5 1.49235M8 1.07196C8.16667 7.41037 8.4 20.3285 8 21.2936" stroke="black" stroke-linecap="round"/>
</svg>
