<svg width="24" height="24" viewBox="0 0 24 24" fill="none" xmlns="http://www.w3.org/2000/svg">
<path d="M1.02712 10C1.17454 6.55404 1.97341 3.54428 4.63284 3.54431C10.4448 2.90906 22.1629 2.30557 22.5399 4.97363C22.6828 5.98519 22.8691 7.87335 22.9541 10M1.02712 10C0.948429 11.8395 1.05538 13.8034 1.16405 15.5M1.02712 10C3.9532 9.93157 8.099 9.85191 12 9.80945M22.9541 10C23.0257 11.7912 23.0254 13.7517 22.8669 15.5M22.9541 10C22.6967 9.76422 17.6007 9.74849 12 9.80945M22.8669 15.5C22.5931 18.5196 21.8471 20.9064 20.1837 20.6962C18.6874 20.5071 15.4096 20.7683 12 20.9139M22.8669 15.5C19.8993 15.5685 15.7115 15.6482 11.8051 15.6906M1.16405 15.5C1.24859 16.82 1.33417 17.9783 1.33417 18.7904C1.33417 21.0892 6.81909 21.1351 12 20.9139M1.16405 15.5C1.17882 15.7357 6.20252 15.7515 11.8051 15.6906M11.8051 15.6906C11.8463 13.631 11.9292 11.3857 12 9.80945M11.8051 15.6906C11.7494 18.4773 11.77 20.9241 12 20.9139" stroke="black" stroke-linecap="round"/>
</svg>
