<svg width="24" height="24" viewBox="0 0 24 24" fill="none" xmlns="http://www.w3.org/2000/svg">
<path d="M7 3.21179C5.79723 3.29032 4.67501 3.38389 3.70121 3.48041C0.75216 3.48051 0.75216 13.9297 1.24367 18.2044C1.43592 19.8765 3.88415 20.6038 7 20.8697M7 3.21179C13.6892 2.77506 22.87 2.80376 22.87 5.38029C22.87 6.83132 23.0134 9.39055 22.999 12M7 3.21179C6.9314 5.54813 6.85149 8.86754 6.80912 12M7 20.8697C11.85 21.2836 18.3177 20.5793 20.4125 20.5793C22.5392 20.5793 22.9757 16.2238 22.999 12M7 20.8697C6.76465 20.573 6.74855 16.4775 6.80912 12M6.80912 12C12.2054 12.1667 22.9983 12.4 22.999 12" stroke="black" stroke-linecap="round"/>
</svg>
