<svg width="24" height="24" viewBox="0 0 24 24" fill="none" xmlns="http://www.w3.org/2000/svg">
<path d="M22.999 12C23.0134 9.39055 22.87 6.83132 22.87 5.38029C22.87 3.41196 17.512 2.93058 12 3.00771M22.999 12C22.9757 16.2238 22.5392 20.5793 20.4125 20.5793C18.9938 20.5793 15.5693 20.9023 12 20.9823M22.999 12C22.7596 11.7611 17.5177 11.7481 11.8091 11.8119M12 3.00771C10.2969 3.03154 8.57901 3.1087 7 3.21179C5.79723 3.29032 4.67501 3.38389 3.70121 3.48041C1.80823 3.48047 1.13034 7.78586 1.01758 12M12 3.00771C11.9314 5.33483 11.8515 8.65458 11.8091 11.8119M12 20.9823C10.2991 21.0204 8.5653 21.0033 7 20.8697C3.88415 20.6038 1.43592 19.8765 1.24367 18.2044C1.06766 16.6736 0.954676 14.351 1.01758 12M12 20.9823C11.7647 20.5033 11.7486 16.3234 11.8091 11.8119M11.8091 11.8119C7.96095 11.855 3.90069 11.9329 1.01758 12" stroke="black" stroke-linecap="round"/>
</svg>
