<svg width="24" height="24" viewBox="0 0 24 24" fill="none" xmlns="http://www.w3.org/2000/svg">
<path d="M11.7092 12.2896H3.16982M8.95863 14.1026H6.15038M4.6598 14.1026H3.97206M5.00365 16.6101V17.1687C5.00365 17.6963 5.43635 18.1239 5.97011 18.1239H6.79878M7.68313 7.64506H16.6464C17.1802 7.64506 17.6129 8.07272 17.6129 8.60028V14.2155M10.8873 18.1243H16.6464C17.1802 18.1243 17.6129 17.6967 17.6129 17.1691V14.2155M23 14.2155V17.1687C23 17.6963 22.5673 18.124 22.0335 18.124H21.9111M23 14.2155H17.6129M23 14.2155C23 12.6126 21.4926 10.1813 18.3963 10.1285M3.89939 4.51967C4.43315 4.51967 4.86585 4.9279 4.86585 5.43148C4.86585 5.93505 4.43315 6.34328 3.89939 6.34328C3.82569 6.34328 3.75391 6.3355 3.68494 6.32076M3.17902 4.82361C3.02598 4.98492 2.93293 5.19795 2.93293 5.43148C2.93293 5.82467 3.19672 6.15974 3.56646 6.28774M5.18801 8.50589C4.73913 8.9934 4.3111 9.39929 4.07896 9.6128C4.02573 9.66176 3.9581 9.68646 3.89028 9.68657C3.82663 9.68667 3.76282 9.66511 3.7106 9.62162C3.66073 9.5801 3.60231 9.53078 3.53697 9.47447C2.75918 8.80417 1 7.14227 1 5.82294C1 4.12918 2.15976 3 3.89939 3C5.63902 3 6.79878 4.41147 6.79878 5.82294C6.79878 6.31284 6.4495 6.93877 5.99339 7.54728M3.68494 6.32076C3.64442 6.3121 3.60486 6.30103 3.56646 6.28774M3.68494 6.32076C3.79739 6.33515 3.94685 6.33151 4.09994 6.29108M4.80545 5.17313C4.81653 5.3403 4.64916 5.6764 4.1669 6.11041M4.1669 6.11041C3.96325 6.23837 3.73966 6.31663 3.56646 6.28774M4.1669 6.11041C4.3547 5.99239 4.52554 5.83211 4.62424 5.67463M4.09994 6.29108C4.42791 6.20448 4.7725 5.94904 4.80545 5.3403M4.09994 6.29108C4.22101 6.20717 4.47927 6.00896 4.5437 5.88738M9.74839 18.5629C9.57518 18.8259 9.2739 19 8.93122 19C8.39412 19 7.95872 18.5723 7.95872 18.0448C7.95872 17.5172 8.39412 17.0896 8.93122 17.0896C9.35924 17.0896 9.72268 17.3612 9.85264 17.7385M20.6692 18.5629C20.496 18.8259 20.1947 19 19.8521 19C19.315 19 18.8796 18.5723 18.8796 18.0448C18.8796 17.5172 19.315 17.0896 19.8521 17.0896C20.2801 17.0896 20.6435 17.3612 20.7735 17.7385M4.00381 20.5C11.441 20.5 25.2775 20.5754 21.1266 20.8769M4.00381 20.5L21.1266 20.8769M4.00381 20.5C2.80123 20.7913 11.2037 21.0375 17 20.9953M4.00381 20.5L17 20.9953M21.1266 20.8769C20.1833 20.9454 18.7043 20.9828 17 20.9953" stroke="black" stroke-linecap="round"/>
</svg>
