<svg width="24" height="24" viewBox="0 0 24 24" fill="none" xmlns="http://www.w3.org/2000/svg">
<path d="M17.9384 8.5C19.7651 6.83333 23.3188 4.1 22.9203 6.5C22.4221 9.5 22.9203 15.0001 22.9203 15.5001C22.9203 16.0001 23.4185 17.0001 21.9239 16.0001C20.4293 15.0001 18.9348 14.0001 18.4366 13.5001M1.01422 7.92588C0.884967 6.90598 1.58137 5.03109 5.40537 5.03109C10.3298 5.03109 15.801 4.53362 15.801 7.51843C15.801 10.5032 16.8953 19.4577 13.0652 18.9602C10.0011 18.5622 5.5874 18.7944 3.76356 18.9602C2.85175 19.126 1.02813 18.8607 1.02813 16.4728V8.1054C1.02813 8.04471 1.02185 7.98609 1.01422 7.92588Z" stroke="black" stroke-linecap="round"/>
</svg>
