<svg width="24" height="24" viewBox="0 0 24 24" fill="none" xmlns="http://www.w3.org/2000/svg">
<path d="M17.9384 8.5C19.7651 6.83333 23.3188 4.1 22.9203 6.5C22.4221 9.5 22.9203 15.0001 22.9203 15.5001C22.9203 16.0001 23.4185 17.0001 21.9239 16.0001C20.4293 15.0001 18.9348 14.0001 18.4366 13.5001M1 1L5.03711 5.03711M5.03711 5.03711C5.15652 5.03313 5.27924 5.03109 5.40537 5.03109C10.3298 5.03109 15.801 4.53362 15.801 7.51843C15.801 9.25023 16.1693 12.9917 15.7305 15.7305M5.03711 5.03711L15.7305 15.7305M1.83544 6C1.1074 6.61294 0.946082 7.38822 1.01422 7.92588C1.02185 7.98609 1.02813 8.04471 1.02813 8.1054V16.4728C1.02813 18.8607 2.85175 19.126 3.76356 18.9602C5.5874 18.7944 10.0011 18.5622 13.0652 18.9602C13.4666 19.0123 13.8139 18.9606 14.114 18.8229M15.7305 15.7305L23 23" stroke="black" stroke-linecap="round"/>
</svg>
