<svg width="462" height="301" viewBox="0 0 462 301" fill="none" xmlns="http://www.w3.org/2000/svg">
<path fill-rule="evenodd" clip-rule="evenodd" d="M429.953 194.976C423.397 189.253 402.334 169.679 402.334 154.404C402.334 136.314 414.151 124.254 431.876 124.254C449.601 124.254 461.418 139.329 461.418 154.404C461.418 167.194 440.151 188.667 433.706 194.881C432.654 195.895 431.052 195.935 429.953 194.976ZM441.723 150.384C441.723 155.934 437.315 160.434 431.876 160.434C426.438 160.434 422.029 155.934 422.029 150.384C422.029 144.833 426.438 140.334 431.876 140.334C437.315 140.334 441.723 144.833 441.723 150.384Z" fill="black"/>
<path d="M271.466 227.249C283.627 237.35 349.324 228.637 342.422 225.052C316.999 211.849 368.099 204.372 385.96 218.302C397.088 226.98 425.664 220.916 431.876 213.747" stroke="black" stroke-width="2" stroke-miterlimit="3.99933" stroke-linecap="round" stroke-dasharray="0 4"/>
<path d="M41.3911 262.397C37.5821 267.643 31.9408 272.762 29.9209 273.608L29.0552 277.838C39.2269 274.665 42.0403 268.108 41.3911 262.397Z" fill="black"/>
<path d="M25.6928 256.934C25.5677 264.266 24.6456 271.125 23.7748 275.656C23.5317 276.92 24.4878 278.114 25.7753 278.114H27.835C28.722 278.114 29.5094 277.531 29.7178 276.669C31.3283 270.005 30.7932 262.663 29.4515 256.159C28.9744 253.846 25.7331 254.573 25.6928 256.934Z" fill="black"/>
<path d="M30.6741 263.689C36.4344 264.739 44.1148 261.763 48.3817 255.556" stroke="black" stroke-width="2" stroke-linecap="round"/>
<path d="M4.11136 250.425C0.420413 256.786 12.8364 270.889 25.4907 264.739" stroke="black" stroke-width="2" stroke-linecap="round"/>
<path d="M10.0323 230.013C2.52943 231.073 -1.58482 241.347 4.11132 250.424C5.14806 252.077 9.64747 253.87 11.7565 253.87" stroke="black" stroke-width="2" stroke-linecap="round"/>
<path d="M48.3817 242.608C48.3817 234.725 46.2748 226.338 33.6631 222.591C20.3806 218.644 13.1628 224.607 10.0322 230.013C8.54435 232.582 9.12013 235.049 10.0322 237.17" stroke="black" stroke-width="2" stroke-linecap="round"/>
<path d="M29.6074 252.471C31.8233 250.203 36.4779 246.189 34.7544 237.03" stroke="black" stroke-width="2" stroke-linecap="round"/>
<path d="M25.1899 256.882C23.4515 256.346 19.1403 253.666 15.8027 247.232" stroke="black" stroke-width="2" stroke-linecap="round"/>
<path d="M59.5972 229.282C59.5972 228.568 60.3246 228.084 60.9835 228.36L67.199 230.963C67.5707 231.119 67.8126 231.482 67.8126 231.885V247.969C67.8126 248.698 67.0568 249.182 66.3942 248.877L60.1787 246.013C59.8242 245.85 59.5972 245.495 59.5972 245.105V229.282Z" stroke="black" stroke-width="2"/>
<path d="M78.9238 239.76C78.9238 239.045 79.6512 238.561 80.3101 238.837L86.5256 241.441C86.8973 241.596 87.1392 241.96 87.1392 242.363V258.446C87.1392 259.176 86.3834 259.66 85.7208 259.355L79.5053 256.491C79.1508 256.328 78.9238 255.973 78.9238 255.583V239.76Z" stroke="black" stroke-width="2"/>
<path d="M59.5972 197.848C59.5972 197.134 60.3246 196.65 60.9835 196.926L67.199 199.529C67.5707 199.685 67.8126 200.048 67.8126 200.451V216.535C67.8126 217.264 67.0568 217.748 66.3942 217.443L60.1787 214.579C59.8242 214.416 59.5972 214.061 59.5972 213.671V197.848Z" stroke="black" stroke-width="2"/>
<path d="M78.9238 208.05C78.9238 207.336 79.6512 206.852 80.3101 207.128L86.5256 209.731C86.8973 209.887 87.1392 210.25 87.1392 210.653V226.737C87.1392 227.466 86.3834 227.95 85.7208 227.645L79.5053 224.781C79.1508 224.618 78.9238 224.264 78.9238 223.873V208.05Z" stroke="black" stroke-width="2"/>
<path d="M67.9844 269.583V283.808C67.9844 284.59 68.4399 285.3 69.1505 285.626L73.9855 287.843C75.3103 288.451 76.8194 287.483 76.8194 286.026V271.684C76.8194 270.888 76.3469 270.167 75.6165 269.85L70.7815 267.749C69.4607 267.175 67.9844 268.143 67.9844 269.583Z" fill="black"/>
<path d="M97.5265 299.07L50.0587 275.744C49.0321 275.239 48.3818 274.195 48.3818 273.051V175.541" stroke="black" stroke-width="2" stroke-linecap="round"/>
<path d="M96.325 296.12V199.256L51.9026 178.838C49.338 177.659 49.6724 173.913 52.4053 173.207L90.5521 163.355C91.1154 163.21 91.7089 163.231 92.2602 163.417L136.456 178.308V278.85C136.456 279.981 135.819 281.016 134.81 281.527L100.679 298.797C98.6839 299.806 96.325 298.356 96.325 296.12Z" fill="black"/>
<path d="M165.722 274.235L136.119 266.257V280.272L108.018 294.934L165.722 274.235Z" fill="black"/>
<path d="M239.589 165.062L211.52 172.4C209.987 172.801 209.506 174.741 210.676 175.811L231.61 194.96C232.095 195.404 232.768 195.581 233.409 195.433L262.53 188.717C264.039 188.369 264.597 186.513 263.531 185.39L245.387 166.294" stroke="black" stroke-width="2" stroke-linecap="round"/>
<path d="M265.662 187.673L271.287 157.354C271.4 156.747 271.226 156.123 270.817 155.662L253.129 135.722C252.048 134.503 250.04 135.02 249.682 136.61L243.856 162.509" stroke="black" stroke-width="2" stroke-linecap="round"/>
<path d="M208.24 173.886L217.435 144.579C217.632 143.95 218.126 143.459 218.756 143.265L251.034 133.353" stroke="black" stroke-width="2" stroke-linecap="round"/>
<path d="M237.993 140.587L231.73 166.053C231.575 166.685 231.736 167.352 232.163 167.843L238.884 175.577C239.88 176.723 239.286 178.518 237.803 178.843L232.611 179.981C231.913 180.134 231.186 179.903 230.705 179.374L222.789 170.687C222.326 170.178 222.157 169.467 222.341 168.804L230.136 140.743C230.321 140.076 230.838 139.553 231.501 139.359L235.489 138.19C236.969 137.757 238.362 139.09 237.993 140.587Z" fill="black"/>
<path d="M229.775 152.93L233.088 98.0588" stroke="black" stroke-width="2" stroke-linecap="round"/>
<path d="M229.775 152.93L217.627 103.298" stroke="black" stroke-width="2" stroke-linecap="round"/>
<path d="M228.947 152.93L202.166 118.739" stroke="black" stroke-width="2" stroke-linecap="round"/>
<path d="M229.223 152.93L182.287 123.151" stroke="black" stroke-width="2" stroke-linecap="round"/>
<path d="M185.876 113.776L213.21 139.144" stroke="black" stroke-width="2" stroke-linecap="round"/>
<path d="M222.873 100.541L226.738 132.25" stroke="black" stroke-width="2" stroke-linecap="round"/>
<path d="M220.664 136.11L208.792 106.331" stroke="black" stroke-width="2" stroke-linecap="round"/>
<path d="M162.203 68.4389C133.136 59.7678 122.886 77.0052 121.833 86.7951C121.147 118.222 155.085 122.171 171.924 119.348C172.647 119.226 173.376 119.489 173.843 120.054L175.455 122.003C176.504 123.273 178.552 122.8 178.94 121.2L179.095 120.559C179.181 120.205 179.389 119.893 179.683 119.677V119.677C180.774 118.877 180.381 117.159 179.05 116.913L178.836 116.873C177.41 116.609 176.828 114.52 177.588 113.285C178.848 111.238 179.814 108.297 179.228 104.627" stroke="black" stroke-width="2" stroke-linecap="round"/>
<path d="M199.37 116.48C199.039 116.55 198.715 116.625 198.405 116.703C197.32 116.975 196.205 116.181 196.205 115.063C196.205 114.007 195.189 113.074 194.162 112.83C184.312 110.485 150.878 88.6433 165.503 59.1639C175.503 39.0055 199.714 48.1206 205.679 57.0606C215.478 70.0044 208.296 101.906 200.952 110.376C200.331 111.092 200.224 112.179 200.837 112.902C201.816 114.058 200.853 116.168 199.37 116.48Z" stroke="black" stroke-width="2" stroke-linecap="round"/>
<path d="M210.905 95.0089C211.455 95.3265 212.302 95.7069 213.155 95.9935C214.212 96.3489 215.109 97.6139 214.784 98.6811L214.684 99.0129C214.324 100.196 215.568 101.228 216.664 100.655L216.782 100.593C217.167 100.392 217.631 100.42 217.989 100.666V100.666C218.836 101.246 219.968 100.536 219.813 99.5214L219.6 98.115C219.455 97.1635 220.087 96.2728 221.015 96.0183C230.45 93.4305 247.885 82.7139 246.231 57.1513C245.698 48.9139 235.51 34.1213 213.717 38.0473C209.674 38.7755 200.711 42.8847 197.196 49.6149" stroke="black" stroke-width="2" stroke-linecap="round"/>
<path d="M231.156 91.3586V93.8278C231.156 94.727 231.985 95.3972 232.864 95.2088L232.99 95.1818C233.38 95.0982 233.786 95.2181 234.068 95.5001V95.5001C234.808 96.2408 236.075 95.7162 236.075 94.6687V93.0568C236.075 92.0972 236.811 91.3029 237.76 91.1604C246.877 89.7908 263.737 82.7728 269.805 63.2504C276.27 42.4503 262.309 35.1422 254.521 34.0881" stroke="black" stroke-width="2" stroke-linecap="round"/>
<path d="M243.4 49.2536C250.248 43.9999 264.461 26.4271 250.073 10.0262C235.323 -6.78557 201.259 6.17328 209.511 38.5711" stroke="black" stroke-width="2" stroke-linecap="round"/>
<path d="M211.829 14.9311C199.991 12.4001 176.876 15.3903 179.127 47.5993" stroke="black" stroke-width="2" stroke-linecap="round"/>
<path d="M201.89 14.1684C195.571 5.27428 175.213 -7.24745 158.887 8.55106C143.381 23.5564 156.958 45.5905 168.542 53.6654" stroke="black" stroke-width="2" stroke-linecap="round"/>
<path d="M151.917 28.6635C137.913 27.261 113.862 42.3019 132.487 70.2095" stroke="black" stroke-width="2" stroke-linecap="round"/>
</svg>
