<svg width="254" height="301" viewBox="0 0 254 301" fill="none" xmlns="http://www.w3.org/2000/svg">
<path d="M151.53 40.9263C154.239 40.6798 160.445 42.2032 164.901 49.8656C165.317 50.5799 166.385 50.586 166.77 49.8547C171.058 41.7115 176.632 34.2269 191.868 42.6C192.777 43.0996 194.031 41.992 193.718 41.0041C191.727 34.7354 191.887 25.4681 202.447 20.1849C203.125 19.8459 203.074 18.8029 202.346 18.5906V18.5906C201.525 18.3509 201.624 17.3021 202.479 17.2885C205.577 17.2392 208.579 17.7089 207.176 19.4109C205.138 21.8824 204.637 23.4451 205.134 26.0254" stroke="black" stroke-width="2" stroke-linecap="round"/>
<path fill-rule="evenodd" clip-rule="evenodd" d="M15.3053 138.423C14.152 137.056 11.9489 138.221 12.4312 139.942C12.8115 141.298 11.4351 142.482 10.148 141.905C8.51616 141.175 7.0363 143.178 8.21811 144.519C9.15013 145.576 8.42429 147.24 7.01483 147.278C5.22803 147.326 4.76456 149.773 6.4112 150.469C7.70995 151.018 7.77897 152.831 6.52605 153.476C4.93755 154.294 5.58338 156.699 7.3687 156.612C8.77686 156.544 9.62657 158.148 8.77788 159.272C7.70188 160.698 9.32958 162.584 10.9003 161.733C12.1392 161.061 13.6014 162.138 13.3251 163.519C12.9748 165.27 15.2607 166.264 16.3061 164.816C17.1307 163.674 18.9159 164.01 19.2671 165.375C19.7125 167.105 22.2032 167.01 22.5162 165.251C22.7631 163.864 24.517 163.394 25.4264 164.471C26.5797 165.837 28.7828 164.673 28.3005 162.952C27.9203 161.595 29.2966 160.412 30.5837 160.988C32.2156 161.719 33.6954 159.716 32.5136 158.375C31.5816 157.317 32.3074 155.654 33.7169 155.616C35.5037 155.567 35.9672 153.121 34.3205 152.425C33.0218 151.876 32.9527 150.063 34.2057 149.418C35.7942 148.6 35.1483 146.195 33.363 146.281C31.9549 146.35 31.1051 144.746 31.9538 143.621C33.0298 142.196 31.4021 140.31 29.8314 141.161C28.5925 141.833 27.1303 140.756 27.4066 139.375C27.7569 137.624 25.471 136.63 24.4256 138.078C23.601 139.22 21.8158 138.884 21.4646 137.519C21.0192 135.789 18.5285 135.884 18.2155 137.642C17.9686 139.03 16.2147 139.5 15.3053 138.423ZM12.1842 149.972C11.7293 149.113 12.0596 148.055 12.9114 147.605C13.7632 147.155 14.8251 147.477 15.28 148.336C15.7348 149.194 15.4046 150.253 14.5528 150.703C13.7009 151.153 12.6391 150.83 12.1842 149.972ZM16.605 147.636C17.4445 149.22 16.8388 151.185 15.2521 152.023C13.6654 152.861 11.6987 152.256 10.8592 150.672C10.0197 149.087 10.6254 147.123 12.212 146.285C13.7987 145.446 15.7655 146.051 16.605 147.636ZM26.4815 152.031C25.6297 152.481 25.2994 153.54 25.7543 154.398C26.2092 155.257 27.271 155.579 28.1229 155.129C28.9747 154.679 29.3049 153.621 28.85 152.762C28.3952 151.904 27.3333 151.581 26.4815 152.031ZM28.8222 156.449C30.4089 155.611 31.0146 153.647 30.1751 152.062C29.3356 150.478 27.3688 149.873 25.7821 150.711C24.1955 151.549 23.5898 153.514 24.4293 155.098C25.2688 156.683 27.2355 157.288 28.8222 156.449ZM21.0308 143.186C20.9979 142.635 20.5243 142.215 19.973 142.248C19.4217 142.281 19.0014 142.754 19.0343 143.306L20.0035 159.547C20.0364 160.099 20.51 160.519 21.0613 160.486C21.6126 160.453 22.0329 159.98 22 159.428L21.0308 143.186Z" fill="black"/>
<path d="M252.827 93.9635C252.827 103.969 244.629 112.098 234.496 112.098C224.363 112.098 216.166 103.969 216.166 93.9635C216.166 83.9577 224.363 75.8291 234.496 75.8291C244.629 75.8291 252.827 83.9577 252.827 93.9635Z" stroke="black" stroke-width="2"/>
<path d="M234.667 102.506V105.239" stroke="black" stroke-width="2" stroke-linecap="round"/>
<path d="M234.667 85.4215V82.688" stroke="black" stroke-width="2" stroke-linecap="round"/>
<path d="M239.457 86.5823C238.242 85.9791 236.397 85.4149 234.672 85.4214C232.593 85.4293 230.688 86.2663 230.269 88.8631C229.717 92.2881 233.902 93.5176 236.394 94.7552C239.84 96.4659 239.809 99.6727 237.734 101.218C236.801 101.912 235.742 102.294 234.672 102.438C233.107 102.648 231.519 102.352 230.269 101.788" stroke="black" stroke-width="2" stroke-linecap="round"/>
<path d="M131.857 52.9617C128.892 43.1098 129.433 23.0776 155.293 21.3558C180.953 19.6473 184.887 19.9887 189.164 20.672" stroke="black" stroke-width="2" stroke-linecap="round"/>
<path d="M83.1038 237.472C90.9607 231.773 108.255 221.377 114.543 225.384C122.4 230.391 117.384 231.082 113.371 230.046" stroke="black" stroke-width="2" stroke-linecap="round"/>
<path d="M106.183 230.212C110.23 229.606 118.397 229.683 118.667 234.839C118.82 237.845 117.991 237.345 116.473 236.406C115.384 235.734 113.943 234.839 112.254 234.839H105" stroke="black" stroke-width="2" stroke-linecap="round"/>
<path d="M105 235.08H112.298C113.997 235.08 115.447 235.994 116.542 236.68C117.613 238.62 118.406 242.199 112.979 240.984C107.551 239.769 105.397 240.141 105 240.478" stroke="black" stroke-width="2" stroke-linecap="round"/>
<path d="M113.072 240.888C114.867 242.937 116.938 246.794 110.885 245.838C104.831 244.883 100.068 247.83 98.4429 249.422C95.6976 251.243 89.1923 253.518 85.1566 248.057" stroke="black" stroke-width="2" stroke-linecap="round"/>
<path d="M54.9455 246.14C83.3921 230.39 83.4214 245.224 81.0182 254.27C77.4631 263.415 59.8279 273.49 51.9108 274.695C40.7426 277.258 20.9674 274.221 31.2234 241.567C44.0463 200.752 49.8467 170.944 92.6833 162.984" stroke="black" stroke-width="2" stroke-linecap="round"/>
<path d="M70.4448 210.82C70.4448 226.234 69.5416 225.871 62.918 239.863" stroke="black" stroke-width="2" stroke-linecap="round"/>
<path d="M128.607 219.021V214.579" stroke="black" stroke-width="2" stroke-linecap="round"/>
<path d="M133.739 218.679L135.45 213.212" stroke="black" stroke-width="2" stroke-linecap="round"/>
<path d="M138.871 220.045L142.976 210.478" stroke="black" stroke-width="2" stroke-linecap="round"/>
<path d="M59.8388 273.69C61.03 287.022 61.538 286.178 63.5816 293.772C84.2167 299.847 129.872 306.833 147.424 286.178" stroke="black" stroke-width="2" stroke-linecap="round"/>
<path d="M81.0509 193.736L81.6965 192.758C85.5876 186.895 93.0905 184.554 99.657 187.156C105.549 189.491 112.284 187.864 116.437 183.104L121.764 176.993" stroke="black" stroke-width="2" stroke-linecap="round"/>
<path d="M118.033 162.68C119.53 158.486 118.161 155.663 116.833 155.125C108.832 162.224 96.6956 159.589 92.1999 155.286C90.5984 156.706 91.5302 160.906 92.1999 162.196C100.865 171.489 113.199 166.284 118.033 162.68Z" fill="black"/>
<path d="M141.613 93.7026C137.884 107.109 136.014 108.297 130.59 114.236C130.59 108.367 129.579 98.5142 129.579 94.4112C111.805 94.4112 96.8069 87.1531 91.5232 83.5235C91.716 95.8313 80.1784 103.879 80.1784 103.879C80.1784 103.879 81.8325 108.849 82.7794 119.973C83.5392 128.873 81.3591 127.154 80.1784 125.181C76.7767 114.198 71.2009 117.133 68.8337 119.973C39.8319 72.8299 84.4335 63.7207 92.9435 64.5885C99.3728 59.0974 108.339 54.7942 114.639 54.163C137.376 51.8867 147.662 71.9652 141.613 93.7026Z" fill="black"/>
<path d="M80.3667 133.57C83.4428 152.321 104.081 165.804 118.976 150.614C133.872 135.425 130.889 107.621 129.299 94.647" stroke="black" stroke-width="2" stroke-linecap="round"/>
<path d="M68.664 118.565C66.8572 123.134 68.5525 133.257 80.3667 133.257" stroke="black" stroke-width="2" stroke-linecap="round"/>
<path d="M74.6165 121.298C74.4069 122.144 74.5746 124.149 76.9453 125.399" stroke="black" stroke-width="2" stroke-linecap="round"/>
<path d="M129.291 130.865C133.187 129.227 135.938 123.158 134.879 113.439" stroke="black" stroke-width="2" stroke-linecap="round"/>
<path d="M106.711 142.253C110.344 143.345 110.115 140.338 112.869 137.699" stroke="black" stroke-width="2" stroke-linecap="round"/>
<path d="M118.514 120.957C119.931 120.957 121.08 119.733 121.08 118.223C121.08 116.714 119.931 115.49 118.514 115.49C117.097 115.49 115.948 116.714 115.948 118.223C115.948 119.733 117.097 120.957 118.514 120.957Z" fill="black"/>
<path d="M95.9335 120.957C97.5396 120.957 98.8416 119.886 98.8416 118.565C98.8416 117.244 97.5396 116.173 95.9335 116.173C94.3274 116.173 93.0254 117.244 93.0254 118.565C93.0254 119.886 94.3274 120.957 95.9335 120.957Z" fill="black"/>
<path d="M90.2884 112.756C90.8514 111.313 93.2855 108.642 98.4995 109.509" stroke="black" stroke-width="2" stroke-linecap="round"/>
<path d="M114.238 109.681C115.481 108.908 118.865 107.825 122.449 109.681" stroke="black" stroke-width="2" stroke-linecap="round"/>
<path d="M105.615 117.54C105.222 120.805 104.948 127.426 107.053 127.79" stroke="black" stroke-width="2" stroke-linecap="round"/>
<path d="M100.822 226.537L91.9973 211.731C91.3082 210.574 91.6995 209.074 92.8675 208.405C94.0064 207.753 95.4547 208.132 96.1264 209.257L105.342 224.658" stroke="black" stroke-width="2" stroke-linecap="round"/>
<path d="M102.947 278.132C107.64 262.983 118.565 233.574 125.505 234.414C125.82 234.452 126.135 234.542 126.45 234.586L152.556 238.239" stroke="black" stroke-width="2" stroke-linecap="round"/>
<path d="M156.32 244.305L153.925 251.481" stroke="black" stroke-width="2" stroke-linecap="round"/>
<path d="M126.132 238.155C121.127 241.207 113.679 262.152 109.335 276.246C108.387 279.317 110.483 282.461 113.685 282.861L138.427 285.95C140.956 286.265 143.345 284.738 144.112 282.323L146.056 276.184" stroke="black" stroke-width="2" stroke-linecap="round"/>
<path d="M130.144 240.888C131.796 240.289 135.231 236.755 134.25 233.331C134.084 232.737 133.781 232.146 133.311 231.574C130.144 227.708 124.689 231.574 126.098 234.737" stroke="black" stroke-width="2" stroke-linecap="round"/>
<path d="M134.081 233.427C135.766 231.369 140.32 230.429 142.701 234.484C144.915 239.423 140.659 242.244 138.106 242.597" stroke="black" stroke-width="2" stroke-linecap="round"/>
<path d="M142.976 234.385C144.755 233.029 149.516 231.202 152.272 234.739C155.539 240.221 149.691 243.759 147.278 243.228" stroke="black" stroke-width="2" stroke-linecap="round"/>
<path d="M152.214 234.753C154.485 233.421 158.519 232.842 160.07 236.315C161.622 239.789 157.8 244.305 154.131 244.305" stroke="black" stroke-width="2" stroke-linecap="round"/>
<path d="M139.253 263.439C138.319 264.714 138.513 268.002 146.74 270.957" stroke="black" stroke-width="2" stroke-linecap="round"/>
<path d="M160.767 256.663C151.874 254.953 142.748 254.319 139.29 254.215C137.436 254.161 135.376 255.742 136.412 257.532C136.698 257.991 137.599 259.01 138.904 259.42C144.444 261.222 146.808 261.383 149.248 261.39" stroke="black" stroke-width="2" stroke-linecap="round"/>
<path d="M149.135 261.314C146.694 261.308 144.33 261.147 138.787 259.339C137.523 259.796 137.359 261.969 139.361 263.326C140.625 264.186 142.913 265.241 146.694 266.515" stroke="black" stroke-width="2" stroke-linecap="round"/>
<path d="M118.343 162.984C145.996 173.95 168.047 206.175 165.33 250.378C164.934 256.62 161.699 269.544 151.93 271.298" stroke="black" stroke-width="2" stroke-linecap="round"/>
<path d="M142.121 99.772C147.481 98.2914 159.467 96.7652 164.531 102.506C170.86 109.681 167.781 111.902 174.966 102.506C180.713 94.9884 203.933 93.7925 214.824 94.1342" stroke="black" stroke-width="2" stroke-linecap="round"/>
<path d="M242.194 74.9993C241.51 73.3478 240.905 67.3119 242.194 62.6986C244.247 55.3524 250.918 28.3597 243.734 22.3797C234.441 14.6457 227.996 18.2798 213.455 19.8172" stroke="black" stroke-width="2" stroke-linecap="round"/>
<path d="M155.834 62.2354L156.458 82.4918C156.476 83.0633 156.968 83.5037 157.538 83.4578L166.134 82.7654C166.671 82.7222 167.077 82.2615 167.053 81.7235L166.12 61.056C166.093 60.4699 165.57 60.0324 164.989 60.1099L156.702 61.2133C156.193 61.2811 155.818 61.7226 155.834 62.2354Z" stroke="black" stroke-width="2" stroke-linecap="round"/>
<path d="M173.939 56.9479V81.8996C173.939 82.6056 174.651 83.0893 175.307 82.8293L183.254 79.682C183.623 79.536 183.871 79.1861 183.886 78.7899L184.68 57.6784C184.7 57.1426 184.294 56.6863 183.76 56.6439L175.018 55.951C174.437 55.9049 173.939 56.3644 173.939 56.9479Z" stroke="black" stroke-width="2" stroke-linecap="round"/>
<path d="M193.27 50.7153V78.9545C193.27 79.5068 193.717 79.9545 194.27 79.9545H202.876C203.428 79.9545 203.876 79.5068 203.876 78.9545V50.7153C203.876 50.163 203.428 49.7153 202.876 49.7153H194.27C193.717 49.7153 193.27 50.163 193.27 50.7153Z" stroke="black" stroke-width="2" stroke-linecap="round"/>
<path d="M213.775 44.6758L212.974 78.0893C212.958 78.7616 213.597 79.2578 214.245 79.076L223.239 76.5495C223.632 76.439 223.919 76.1005 223.963 75.6945L227.358 44.3735C227.424 43.7671 226.936 43.2436 226.326 43.2664L214.737 43.7005C214.209 43.7203 213.787 44.1475 213.775 44.6758Z" stroke="black" stroke-width="2" stroke-linecap="round"/>
<path d="M65.8207 39.9773C65.5816 43.8873 65.419 51.8898 66.6814 52.6197" stroke="black" stroke-width="2" stroke-linecap="round"/>
<path d="M59.1545 47.8361L72.1555 46.1277" stroke="black" stroke-width="2" stroke-linecap="round"/>
<path d="M167.433 154.783C167.194 158.693 167.032 166.696 168.294 167.426" stroke="black" stroke-width="2" stroke-linecap="round"/>
<path d="M160.767 162.642L173.768 160.934" stroke="black" stroke-width="2" stroke-linecap="round"/>
<path d="M220.666 191.686C220.666 192.405 220.029 193.346 218.326 194.167C216.693 194.955 214.368 195.469 211.745 195.469C209.121 195.469 206.796 194.955 205.163 194.167C203.46 193.346 202.823 192.405 202.823 191.686C202.823 190.967 203.46 190.025 205.163 189.204C206.796 188.417 209.121 187.902 211.745 187.902C214.368 187.902 216.693 188.417 218.326 189.204C220.029 190.025 220.666 190.967 220.666 191.686Z" stroke="black" stroke-width="2"/>
<path d="M202.507 191.856V197.726C202.507 198.013 202.627 198.287 202.851 198.466C205.55 200.621 212.072 203.547 219.271 199.886" stroke="black" stroke-width="2" stroke-linecap="round"/>
<path d="M32.1529 75.5126C32.1529 76.2315 31.5158 77.1731 29.8126 77.9943C28.1799 78.7815 25.8543 79.2962 23.2311 79.2962C20.6079 79.2962 18.2822 78.7815 16.6496 77.9943C14.9464 77.1731 14.3093 76.2315 14.3093 75.5126C14.3093 74.7937 14.9464 73.8521 16.6496 73.0309C18.2822 72.2437 20.6079 71.729 23.2311 71.729C25.8543 71.729 28.1799 72.2437 29.8126 73.0309C31.5158 73.8521 32.1529 74.7937 32.1529 75.5126Z" stroke="black" stroke-width="2"/>
<path d="M13.9934 75.6833V81.5533C13.9934 81.8402 14.113 82.1137 14.3372 82.2927C17.0362 84.4478 23.5579 87.3736 30.7578 83.713" stroke="black" stroke-width="2" stroke-linecap="round"/>
<path d="M206.935 135.081C206.432 135.596 205.318 135.826 203.524 135.228C201.805 134.654 199.78 133.402 197.901 131.574C196.022 129.746 194.716 127.757 194.097 126.056C193.451 124.281 193.652 123.162 194.155 122.647C194.658 122.131 195.773 121.901 197.566 122.499C199.285 123.073 201.31 124.325 203.189 126.153C205.068 127.981 206.374 129.97 206.993 131.671C207.639 133.446 207.438 134.565 206.935 135.081Z" stroke="black" stroke-width="2"/>
<path d="M193.809 122.548L189.707 126.754C189.507 126.959 189.402 127.238 189.437 127.522C189.865 130.946 192.492 137.587 200.207 139.983" stroke="black" stroke-width="2" stroke-linecap="round"/>
</svg>
