<svg width="647" height="302" viewBox="0 0 647 302" fill="none" xmlns="http://www.w3.org/2000/svg">
<path d="M104.627 287.357C124.731 280.409 112.752 223.433 103.436 202.807C89.3979 215.933 64.283 210.27 62.351 204.994C61.7704 208.107 59.9108 222.046 51.7649 234.379C43.619 246.711 33.051 253.125 31.1835 258.479C26.6339 271.507 36.5997 278.238 41.5826 279.757C59.0876 283.753 73.8629 264.053 79.0624 253.703C86.515 284.274 99.2105 288.877 104.627 287.357Z" fill="black"/>
<path d="M108.518 284.103C108.368 286.376 109.395 294 115.319 289.821C116.78 288.355 120.234 285.951 122.34 288.062C124.446 290.173 120.291 294.074 117.952 295.76C115.539 297.666 109.615 300.907 105.226 298.619C100.838 296.332 100.909 290.335 101.497 287.622" stroke="black" stroke-width="2" stroke-linecap="round"/>
<path d="M36.7275 276.476C35.1996 277.199 32.1437 279.208 32.1437 281.462C33.8899 283.919 36.6839 289.96 33.8899 294.468C31.096 298.977 26.032 288.688 23.8492 282.98C22.7578 279.728 22.6268 272.531 30.8341 269.757" stroke="black" stroke-width="2" stroke-linecap="round"/>
<path d="M101.849 297.174C100.917 298.948 97.2536 301.559 90.0379 297.813" stroke="black" stroke-width="2" stroke-linecap="round"/>
<path d="M97.0609 293.986C94.9822 295.952 89.4203 299.187 82.3766 296.421" stroke="black" stroke-width="2" stroke-linecap="round"/>
<path d="M87.1649 292.711C84.5342 295.695 77.212 300.512 68.9691 295.908" stroke="black" stroke-width="2" stroke-linecap="round"/>
<path d="M75.6729 291.117C75.0204 293.812 66.1901 299.563 36.089 301" stroke="black" stroke-width="2" stroke-linecap="round"/>
<path d="M77.7144 182.084C65.7769 178.644 56.3844 167.783 53.1804 162.783C49.6016 157.407 52.4735 145.388 92.5918 140.32" stroke="black" stroke-width="2" stroke-linecap="round"/>
<path d="M77.9075 182.084C78.6207 181.092 80.4952 179.3 82.6958 179.215" stroke="black" stroke-width="2" stroke-linecap="round"/>
<path d="M82.6958 179.215C82.6284 176.402 80.236 169.149 71.2037 162.636" stroke="black" stroke-width="2" stroke-linecap="round"/>
<path d="M82.0573 161.043C82.9942 159.591 86.0215 154.423 90.0379 153.71" stroke="black" stroke-width="2" stroke-linecap="round"/>
<path d="M90.7273 183.359C92.7981 183.264 97.1227 182.979 97.8561 182.599C98.7726 182.123 98.9763 182.123 98.9763 181.172C98.9763 180.222 90.7273 181.838 90.7273 178.796C91.4743 178.098 92.6828 176.533 91.5421 175.848C90.4014 175.164 88.0116 177.148 86.9595 178.225C85.8732 179.303 83.4358 181.001 82.3766 179.176" stroke="black" stroke-width="2" stroke-linecap="round"/>
<path d="M77.9075 182.084C78.8143 184.712 82.0789 189.43 87.8825 187.274C93.6864 185.118 93.9282 183.98 93.3235 183.681" stroke="black" stroke-width="2" stroke-linecap="round"/>
<path d="M118.13 179.215C119.5 178.85 122.497 177.151 123.515 173.279C124.533 169.406 123.156 169.387 122.34 169.861" stroke="black" stroke-width="2" stroke-linecap="round"/>
<path d="M112.703 176.664C113.154 174.4 114.743 170.031 117.491 170.67" stroke="black" stroke-width="2" stroke-linecap="round"/>
<path d="M113.853 172.954C112.025 171.43 110.906 174.925 110.575 176.863C108.509 177.505 107.728 180.539 107.595 181.976C112.376 182.474 115.774 181.171 117.926 179.624C119.243 178.677 120.093 177.638 120.508 176.863C121.535 174.09 123.031 168.302 120.806 167.34C118.581 166.377 117.959 168.543 117.926 169.746C118.164 172.473 116.767 175.493 116.038 176.663" stroke="black" stroke-width="2" stroke-linecap="round"/>
<path d="M66.5475 184.635C62.4658 190.173 57.1463 205.256 66.5475 208.455C79.8981 212.412 107.501 213.189 111.107 184.635" stroke="black" stroke-width="2" stroke-linecap="round"/>
<path d="M109.511 142.87C111.226 141.824 124.132 142.832 126.641 126.747C130.937 126.797 133.272 123.311 129.995 121.819C126.501 120.033 126.763 116.756 127.396 114.824C128.402 112.292 128.463 109.633 128.246 109.076" stroke="black" stroke-width="2" stroke-linecap="round"/>
<path d="M122.927 120.981C123.411 120.986 123.811 120.402 123.82 119.676C123.829 118.949 123.442 118.356 122.957 118.35C122.473 118.344 122.073 118.929 122.064 119.655C122.056 120.382 122.442 120.975 122.927 120.981Z" fill="black"/>
<path d="M120.364 115.453C121.118 114.78 123.067 113.797 124.833 115.242" stroke="black" stroke-width="2" stroke-linecap="round"/>
<path d="M115.576 130.437C116.934 132.38 118.425 132.932 121.322 131.678" stroke="black" stroke-width="2" stroke-linecap="round"/>
<path d="M104.931 116.409C104.664 117.069 104.441 118.566 105.68 119.278" stroke="black" stroke-width="2" stroke-linecap="round"/>
<path d="M90.0357 109.491C88.3811 118.612 93.5581 125.478 97.3113 130.756C101.32 128.574 107.89 123.385 105.37 122.825C102.722 122.237 99.9284 114.958 102.5 112.732C105.517 110.12 108.237 114.072 108.756 117.069L111.186 112.834C110.499 109.873 110.229 104.677 114.649 107.59C119.069 110.502 125.552 109.739 128.241 108.994C133.544 105.17 141.781 96.251 132.315 91.1647C124.441 86.9342 114.195 92.2826 107.941 97.0885C103.706 95.9621 92.2917 97.0555 90.0357 109.491Z" fill="black"/>
<path d="M97.3801 130.118C99.3752 132.452 100.366 134.391 100.243 138.407" stroke="black" stroke-width="2" stroke-linecap="round"/>
<path d="M95.2696 143.585C94.5854 141.211 94.1846 136.682 98.054 137.563C102.891 138.663 112.749 143.421 112.027 146.059" stroke="black" stroke-width="2" stroke-linecap="round"/>
<path d="M105.999 178.258L94.5071 178.896" stroke="black" stroke-width="2" stroke-linecap="round"/>
<path d="M67.0538 180.153L7.63473 182.523C4.87813 182.633 2.55338 180.489 2.43973 177.733L1.81897 162.677C1.70515 159.917 3.85177 157.587 6.61234 157.475L52.3393 155.623" stroke="black" stroke-width="2" stroke-linecap="round"/>
<path d="M124.937 176.983L164.365 175.729C167.063 175.643 169.206 173.431 169.206 170.731V157.346C169.206 154.497 166.827 152.223 163.98 152.352L86.8457 155.833" stroke="black" stroke-width="2" stroke-linecap="round"/>
<path d="M8.63574 164.868L10.3714 172.085C10.6867 173.397 12.3136 173.861 13.2732 172.913V172.913C13.9303 172.264 14.9809 172.245 15.6615 172.869L15.7838 172.981C16.8295 173.94 18.5189 173.462 18.9069 172.097L20.1278 167.801" stroke="black" stroke-width="2" stroke-linecap="round"/>
<path d="M24.2777 164.549L26.0133 171.767C26.3287 173.078 27.9555 173.542 28.9152 172.594V172.594C29.5723 171.945 30.6229 171.926 31.3035 172.55L31.4258 172.662C32.4715 173.621 34.1609 173.143 34.5488 171.778L35.7698 167.482" stroke="black" stroke-width="2" stroke-linecap="round"/>
<path d="M40.239 164.23L41.9746 171.448C42.29 172.759 43.9168 173.223 44.8765 172.275V172.275C45.5336 171.626 46.5842 171.607 47.2648 172.231L47.3871 172.343C48.4328 173.302 50.1222 172.824 50.5101 171.459L51.7311 167.164" stroke="black" stroke-width="2" stroke-linecap="round"/>
<ellipse cx="55.881" cy="173.476" rx="0.957673" ry="0.956429" fill="black"/>
<path d="M147.498 262.105V257.642" stroke="black" stroke-width="2" stroke-linecap="round"/>
<path d="M153.244 260.192L150.691 262.105" stroke="black" stroke-width="2" stroke-linecap="round"/>
<path d="M144.306 262.743L142.391 259.236" stroke="black" stroke-width="2" stroke-linecap="round"/>
<path d="M217.728 216.197C199.393 216.197 184.528 201.351 184.528 183.04C184.528 164.729 199.393 149.884 217.728 149.884C236.062 149.884 250.927 164.729 250.927 183.04C250.927 201.351 236.062 216.197 217.728 216.197Z" stroke="black" stroke-width="2"/>
<path d="M188.678 153.734C194.458 147.938 201.821 143.991 209.837 142.392C217.855 140.792 226.164 141.613 233.715 144.75C241.267 147.887 247.72 153.199 252.262 160.015C256.803 166.83 259.227 174.844 259.227 183.04" stroke="black" stroke-width="2" stroke-linecap="round"/>
<path d="M217.728 193.88C211.557 193.88 206.555 188.956 206.555 182.881C206.555 176.806 211.557 171.882 217.728 171.882C223.898 171.882 228.901 176.806 228.901 182.881C228.901 188.956 223.898 193.88 217.728 193.88Z" stroke="black" stroke-width="2"/>
<path d="M217.728 211.414C202.037 211.414 189.317 198.71 189.317 183.04C189.317 167.37 202.037 154.666 217.728 154.666C233.418 154.666 246.139 167.37 246.139 183.04C246.139 198.71 233.418 211.414 217.728 211.414Z" stroke="black" stroke-width="2"/>
<path d="M217.887 177.621C214.979 177.621 212.62 179.976 212.62 182.881C212.62 185.786 214.979 188.141 217.887 188.141C220.796 188.141 223.155 185.786 223.155 182.881C223.155 179.976 220.796 177.621 217.887 177.621Z" fill="black"/>
<path d="M263.377 112.502C260.982 111.636 256.833 113.137 255.294 117.101C253.049 122.888 245.79 125.336 242.946 125.336" stroke="black" stroke-width="2" stroke-linecap="round"/>
<path d="M239.435 133.625C252.469 134.168 260.798 135.471 267.846 137.45" stroke="black" stroke-width="2" stroke-linecap="round"/>
<path d="M245.181 116.09L218.047 182.084" stroke="black" stroke-width="2" stroke-linecap="round"/>
<path d="M269.761 74.645V217.167C269.761 221.029 273.927 224.167 279.135 224.167H593.658C598.866 224.167 603.032 221.029 603.032 217.167V74.1667" stroke="black" stroke-width="2" stroke-miterlimit="10" stroke-linecap="round"/>
<path d="M387.701 2.25623L374.5 52.0545C374.478 52.1381 374.467 52.2242 374.467 52.3107V70.3627C374.467 70.7987 374.196 71.1815 373.779 71.3095C337.247 82.5325 269.498 76.0751 252.873 71.2951C252.453 71.1741 252.204 70.7968 252.204 70.3592V52.486C252.204 52.2868 252.263 52.0922 252.375 51.927L286.406 1.44105C286.592 1.16531 286.903 1 287.236 1H386.734C387.391 1 387.869 1.62173 387.701 2.25623Z" fill="black"/>
<path d="M592.77 1.56436L617.456 52.5702C617.522 52.706 617.556 52.8549 617.556 53.0058V68.8777C617.556 69.1028 617.506 69.2988 617.35 69.4607C608.054 79.0882 503.646 78.1914 496.502 73.5816C496.295 73.4477 496.251 73.2392 496.251 72.9923V52.7765L490.161 2.11937C490.089 1.52404 490.554 1 491.153 1H591.87C592.254 1 592.603 1.21923 592.77 1.56436Z" fill="black"/>
<path d="M490.763 2.6865L496.251 51.9875V72.2565C496.251 72.6442 496.056 72.9851 495.702 73.1416C473.553 82.9115 388.691 85.1761 374.722 71.0983C374.546 70.9209 374.467 70.6921 374.467 70.4422V52.1142C374.467 52.0301 374.477 51.9463 374.498 51.8648L387.202 2.54767C387.316 2.10588 387.714 1.79712 388.17 1.79712H489.77C490.279 1.79712 490.707 2.18015 490.763 2.6865Z" stroke="black" stroke-width="2" stroke-linecap="round"/>
<rect x="403.559" y="108.801" width="153.781" height="85.3539" rx="9" stroke="black" stroke-width="2"/>
<rect x="322.476" y="48.2275" width="227.842" height="40.4017" rx="9" fill="white" stroke="black" stroke-width="2" stroke-dasharray="30 30"/>
<path d="M249.65 229.649C245.303 227.621 234.722 223.696 227.173 224.213C226.102 224.256 224.486 224.705 226.583 226.155C228.68 227.604 229.728 228.355 229.99 228.549C231.082 229.455 232.153 231.37 227.697 231.784C222.127 232.302 206.399 226.672 175.271 230.814" stroke="black" stroke-width="2" stroke-linecap="round"/>
<path d="M643.216 169.361C637.102 171.054 630.478 180.886 627.931 185.591C631.752 185.12 640.414 182.627 644.49 176.417C648.566 170.208 645.339 169.126 643.216 169.361Z" fill="black"/>
<path d="M640.387 153.434C634.286 154.049 629.898 169.09 627.931 176.027C632.301 172.459 640.911 165.325 643.009 162.947C646.942 158.488 646.287 152.84 640.387 153.434Z" fill="black"/>
<path d="M620.682 146.862C616.6 153.277 625.445 162.916 629.527 169.332L629.527 153.277C629.527 147.575 623.629 142.229 620.682 146.862Z" fill="black"/>
<path d="M628.569 178.896C623.98 172.525 614.176 161.483 611.673 168.278C608.544 176.772 627.944 178.896 628.569 178.896Z" fill="black"/>
<path d="M628.569 188.46L627.931 164.549" stroke="black" stroke-width="2" stroke-linecap="round"/>
<path d="M622.224 206.501C623.773 202.742 626.078 193.096 626.56 188.46H633.064C633.353 194.173 636.316 202.367 637.762 206.501C642.097 216.274 638.364 222.538 635.594 224.167H625.115C618.25 221.912 620.056 211.764 622.224 206.501Z" stroke="black" stroke-width="2"/>
<path d="M611.331 241.383V237.557" stroke="black" stroke-width="2" stroke-linecap="round"/>
<path d="M615.481 239.789L613.566 241.383" stroke="black" stroke-width="2" stroke-linecap="round"/>
<path d="M608.778 241.701L607.181 239.151" stroke="black" stroke-width="2" stroke-linecap="round"/>
<path d="M506.307 262.105V258.28" stroke="black" stroke-width="2" stroke-linecap="round"/>
<path d="M510.456 260.511L508.541 262.105" stroke="black" stroke-width="2" stroke-linecap="round"/>
<path d="M503.753 262.424L502.157 259.874" stroke="black" stroke-width="2" stroke-linecap="round"/>
<path d="M470.873 265.875C461.861 261.65 439.927 253.472 424.277 254.551C422.058 254.64 418.708 255.575 423.055 258.595C427.402 261.615 429.575 263.179 430.119 263.583C432.382 265.47 434.602 269.461 425.364 270.324C413.817 271.402 381.214 259.674 316.687 268.301" stroke="black" stroke-width="2" stroke-linecap="round"/>
<path d="M302.641 140.043C302.641 122.236 317.076 107.801 334.883 107.801C352.69 107.801 367.125 122.236 367.125 140.043V224.167H302.641V140.043Z" fill="black"/>
</svg>
