<svg width="229" height="251" viewBox="0 0 229 251" fill="none" xmlns="http://www.w3.org/2000/svg">
<path d="M74.1787 183.481C83.7227 193.695 110.73 211.959 142.408 203.301" stroke="black" stroke-width="2" stroke-linecap="round"/>
<path d="M175.243 246.824C170.994 229.074 164.546 193.552 171.916 190.321C172.251 190.175 172.616 190.079 172.955 189.939L200.972 178.271" stroke="black" stroke-width="2" stroke-linecap="round"/>
<path d="M208.265 182.074L210.107 190.583" stroke="black" stroke-width="2" stroke-linecap="round"/>
<path d="M174.735 193.658C171.567 199.612 176.49 224.714 180.464 241.215C181.329 244.813 185.252 246.698 188.661 245.219L214.996 233.792C217.688 232.624 219.158 229.713 218.499 226.872L211.582 197.253" stroke="black" stroke-width="2" stroke-linecap="round"/>
<path d="M180.317 194.017C181.602 192.456 182.93 186.946 179.947 184.129C179.433 183.638 178.786 183.23 177.984 182.938C172.575 180.964 169.124 187.671 172.378 189.979" stroke="black" stroke-width="2" stroke-linecap="round"/>
<path d="M179.864 183.883C180.325 180.859 184.258 177.7 189 180.323C194.094 183.917 191.535 189.203 189.212 191.047" stroke="black" stroke-width="2" stroke-linecap="round"/>
<path d="M189.215 180.062C190.181 177.678 193.826 173.081 198.635 174.971C205.093 178.487 201.375 185.414 198.672 186.301" stroke="black" stroke-width="2" stroke-linecap="round"/>
<path d="M198.58 174.643C200.048 171.995 203.712 169.435 207.289 171.967C210.867 174.499 209.732 181.209 206.096 183.357" stroke="black" stroke-width="2" stroke-linecap="round"/>
<path d="M181.64 206.22C187.082 204.639 198.991 200.53 203.083 196.736" stroke="black" stroke-width="2" stroke-linecap="round"/>
<path d="M184.077 214.488C189.157 213.699 201.075 208.928 205.764 207.192" stroke="black" stroke-width="2" stroke-linecap="round"/>
<path d="M185.539 223.487C191.272 222.617 203.49 219.795 206.495 215.461" stroke="black" stroke-width="2" stroke-linecap="round"/>
<path d="M188.219 232.727C191.088 232.342 195.745 231.033 199.428 228.106" stroke="black" stroke-width="2" stroke-linecap="round"/>
<rect x="1.29082" y="0.580047" width="7.99977" height="6.14472" rx="3.07236" transform="matrix(0.935046 -0.354527 0.355769 0.934574 202.165 223.324)" stroke="black" stroke-width="2"/>
<path d="M10.8226 110.646L6.92383 107.728" stroke="black" stroke-width="2" stroke-linecap="round"/>
<path d="M14.7217 107.728L9.84814 100.919" stroke="black" stroke-width="2" stroke-linecap="round"/>
<path d="M19.3517 106.512L17.4023 100.189" stroke="black" stroke-width="2" stroke-linecap="round"/>
<path d="M8.11984 129.896L22.9907 144.732C23.627 145.366 24.6084 145.499 25.3901 145.055L32.3546 141.104C33.1524 140.652 34.1559 140.8 34.7889 141.464L39.9714 146.899C40.6223 147.582 41.6615 147.717 42.4653 147.224L59.8046 136.579C61.2091 135.716 62.9952 136.827 62.8424 138.468L60.1917 166.934C60.0862 168.067 59.0587 168.884 57.9316 168.731L3.48663 161.348C2.41518 161.203 1.6532 160.232 1.76635 159.157L4.71828 131.103C4.89422 129.43 6.92955 128.708 8.11984 129.896Z" stroke="black" stroke-width="2" stroke-linecap="round"/>
<path d="M7.16797 156.852L19.5954 148.827" stroke="black" stroke-width="2" stroke-linecap="round"/>
<path d="M44.9377 151.988L54.9284 162.932" stroke="black" stroke-width="2" stroke-linecap="round"/>
<path d="M13.5035 121.347L5.21851 127.163L13.1269 134.479L13.5035 121.347Z" fill="black"/>
<path d="M55.8633 126.939L54.9282 139.585L62.9695 134.489L55.8633 126.939Z" fill="black"/>
<path d="M44.9377 113.807L27.6367 111.72L37.3329 106.025L44.9377 113.807Z" fill="black"/>
<path d="M13.0159 134.564L14.0442 113.23C14.0993 112.088 15.0981 111.225 16.2356 111.335L54.9531 115.102C56.0263 115.206 56.8235 116.143 56.7555 117.219L55.3715 139.099" stroke="black" stroke-width="2" stroke-linecap="round"/>
<path d="M17.8896 139.018L19.0423 124.663C19.1339 123.521 20.1638 122.689 21.2992 122.84L48.6364 126.471C49.7009 126.612 50.4638 127.569 50.3645 128.638L49.0323 142.991" stroke="black" stroke-width="2" stroke-linecap="round"/>
<path d="M26.6616 133.506L40.7948 135.208" stroke="black" stroke-width="2" stroke-linecap="round"/>
<path d="M23.2502 138.857L42.5006 141.045" stroke="black" stroke-width="2" stroke-linecap="round"/>
<path d="M164.216 12.0695C173.823 5.92908 188.176 6.40298 195.163 9.72367C200.175 12.1058 215.072 20.8468 204.167 39.4097C203.945 39.787 203.838 40.2363 203.882 40.6716L204.854 50.1082C204.998 51.5061 203.694 52.6127 202.338 52.2425L192.728 49.6186C192.407 49.5309 192.078 49.5236 191.753 49.5963C180.139 52.1958 156.022 53.2995 154.713 32.0967C154.405 27.113 155.316 23.0181 157.066 19.6941" stroke="black" stroke-width="2" stroke-linecap="round"/>
<path d="M173.329 29.1783C173.329 30.5045 172.251 31.583 170.917 31.583C169.583 31.583 168.506 30.5045 168.506 29.1783C168.506 27.8522 169.583 26.7737 170.917 26.7737C172.251 26.7737 173.329 27.8522 173.329 29.1783Z" stroke="black" stroke-width="2"/>
<path d="M182.832 29.1783C182.832 30.5045 181.754 31.583 180.421 31.583C179.087 31.583 178.009 30.5045 178.009 29.1783C178.009 27.8522 179.087 26.7737 180.421 26.7737C181.754 26.7737 182.832 27.8522 182.832 29.1783Z" stroke="black" stroke-width="2"/>
<path d="M192.336 29.1783C192.336 30.5045 191.258 31.583 189.924 31.583C188.59 31.583 187.513 30.5045 187.513 29.1783C187.513 27.8522 188.59 26.7737 189.924 26.7737C191.258 26.7737 192.336 27.8522 192.336 29.1783Z" stroke="black" stroke-width="2"/>
<path d="M152.886 42.9181L145.483 45.8905C144.058 46.4625 142.547 45.2824 142.756 43.7616L143.542 38.0585C143.597 37.6597 143.531 37.258 143.357 36.8947C139.577 28.9655 135.781 13.4748 151.302 4.98087C166.41 -3.28726 178.594 3.27843 185.904 7.16944" stroke="black" stroke-width="2" stroke-linecap="round"/>
<path d="M206.007 139.464C208.281 124.67 207.737 90.9234 187.366 74.2893" stroke="black" stroke-width="2" stroke-linecap="round"/>
<path d="M66.8684 93.1369C72.5948 80.6127 91.4553 54.4213 121.086 49.8494" stroke="black" stroke-width="2" stroke-linecap="round"/>
<path d="M93.6726 213.029C99.2771 217.528 113.995 220.227 121.208 219.352" stroke="black" stroke-width="2" stroke-linecap="round"/>
<path d="M221.367 118.691C221.527 114.103 220.779 103.037 216.509 95.4807" stroke="black" stroke-width="2" stroke-linecap="round"/>
<path d="M65.2084 67.7145C71.08 58.8614 76.4259 48.2113 95.0128 45.9585" stroke="black" stroke-width="2" stroke-linecap="round"/>
</svg>
