<svg width="356" height="401" viewBox="0 0 356 401" fill="none" xmlns="http://www.w3.org/2000/svg">
<path d="M241.582 254.861V299.571C241.582 300.097 241.99 300.533 242.515 300.569L279.955 303.093C280.003 303.096 280.051 303.096 280.098 303.092L295.146 301.946" stroke="black" stroke-width="2" stroke-linecap="round"/>
<path d="M241.582 254.716L278.904 250.103C279.501 250.029 280.027 250.495 280.027 251.096V302.52" stroke="black" stroke-width="2" stroke-linecap="round"/>
<path d="M287.629 250.398L335.966 253.506C336.492 253.539 336.902 253.976 336.902 254.503V272.86" stroke="black" stroke-width="2" stroke-linecap="round"/>
<path d="M241.725 300.506H228.038C227.486 300.506 227.038 300.953 227.038 301.506V317.211C227.038 317.706 227.4 318.127 227.89 318.2L268.942 324.379C269.547 324.47 270.091 324.002 270.091 323.39V307.705" stroke="black" stroke-width="2" stroke-linecap="round"/>
<path d="M269.947 324.552L304.073 321.384" stroke="black" stroke-width="2" stroke-linecap="round"/>
<path d="M290.106 323.688V287.691L305.656 323.688H290.106Z" fill="black" fill-opacity="0.3"/>
<path d="M332.872 305.502L311.844 261.738C311.192 260.381 312.217 258.817 313.722 258.873L320.73 259.136C321.467 259.163 322.129 259.595 322.453 260.258L344.196 304.839C344.57 305.606 344.416 306.526 343.813 307.13L340.334 310.608C339.979 310.963 339.503 311.172 339.001 311.192L333.806 311.403C332.046 311.474 331.06 309.402 332.225 308.081L332.569 307.691C333.101 307.089 333.22 306.226 332.872 305.502Z" fill="black"/>
<path d="M326.925 319.8H321.332C320.885 319.8 320.456 319.983 320.147 320.306C319.123 321.374 319.923 323.146 321.402 323.083L326.989 322.847C327.347 322.832 327.688 322.691 327.952 322.45C328.98 321.512 328.316 319.8 326.925 319.8Z" fill="black"/>
<path d="M255.693 256.357V254.74C255.693 253.737 256.435 252.89 257.429 252.757L262.068 252.139C263.267 251.979 264.332 252.912 264.332 254.121V255.816C264.332 256.831 263.572 257.685 262.564 257.803L257.925 258.344C256.736 258.483 255.693 257.554 255.693 256.357Z" fill="black"/>
<path d="M242.734 317.591V318.517C242.734 319.503 243.453 320.342 244.427 320.493L248.779 321.169C249.991 321.357 251.085 320.419 251.085 319.192V318.116C251.085 317.104 250.329 316.252 249.325 316.13L244.974 315.605C243.783 315.462 242.734 316.391 242.734 317.591Z" fill="black"/>
<path d="M256.269 297.753V299.524C256.269 300.566 257.069 301.433 258.108 301.517L263.035 301.914C264.2 302.008 265.196 301.089 265.196 299.921V297.753C265.196 296.649 264.301 295.753 263.196 295.753H258.269C257.164 295.753 256.269 296.649 256.269 297.753Z" fill="black"/>
<path d="M242.734 306.218V302.791C242.734 301.632 243.715 300.716 244.871 300.796L249.223 301.096C250.271 301.168 251.085 302.04 251.085 303.091V306.744C251.085 307.943 250.037 308.873 248.846 308.729L244.494 308.204C243.49 308.083 242.734 307.23 242.734 306.218Z" fill="black"/>
<path d="M305.229 322.522L285.031 276.177C284.876 275.822 284.94 275.41 285.196 275.118L299.039 259.316C299.513 258.775 300.385 258.896 300.694 259.545L323.054 306.474C323.241 306.865 323.154 307.331 322.841 307.629L306.835 322.847C306.332 323.326 305.507 323.159 305.229 322.522Z" stroke="black" stroke-width="2" stroke-linecap="round"/>
<path d="M306.089 323.688L336.676 322.266C336.915 322.254 337.142 322.158 337.316 321.994L352.671 307.52C353.343 306.886 352.87 305.757 351.946 305.793L328.666 306.698" stroke="black" stroke-width="2" stroke-linecap="round"/>
<path d="M300.041 258.317L329.41 259.447C329.769 259.461 330.093 259.666 330.258 259.985L354.036 305.69" stroke="black" stroke-width="2" stroke-linecap="round"/>
<path d="M71.3918 396.024C79.3083 392.306 98.578 385.11 112.326 386.06C114.276 386.138 117.219 386.963 113.401 389.618C109.581 392.276 107.672 393.653 107.195 394.008C105.206 395.668 103.256 399.178 111.372 399.938C121.516 400.887 150.158 390.567 206.846 398.157" stroke="black" stroke-width="2" stroke-linecap="round"/>
<path d="M7.95312 324.982V318.133" stroke="black" stroke-width="2" stroke-linecap="round"/>
<path d="M1.82642 321.937L5.56362 324.98" stroke="black" stroke-width="2" stroke-linecap="round"/>
<path d="M10.446 324.982L13.2498 320.525" stroke="black" stroke-width="2" stroke-linecap="round"/>
<path d="M150.952 366.078V355.967" stroke="black" stroke-width="2" stroke-linecap="round"/>
<path d="M141.85 361.584L147.402 366.078" stroke="black" stroke-width="2" stroke-linecap="round"/>
<path d="M154.657 366.079L158.823 359.499" stroke="black" stroke-width="2" stroke-linecap="round"/>
<path d="M212.841 116.404L213.161 166.967C213.165 167.507 212.738 167.953 212.198 167.973L173.347 169.405L148.704 167.937" stroke="black" stroke-width="2" stroke-linecap="round"/>
<path d="M212.841 116.24H173.695C173.142 116.24 172.695 116.687 172.695 117.24V138.092" stroke="black" stroke-width="2" stroke-linecap="round"/>
<path d="M166.493 116.24H133.711C133.159 116.24 132.711 116.687 132.711 117.24V145.92" stroke="black" stroke-width="2" stroke-linecap="round"/>
<path d="M198.805 121.943V120.53C198.805 119.493 198.012 118.628 196.979 118.537L191.514 118.06C190.345 117.958 189.34 118.88 189.34 120.053V121.613C189.34 122.671 190.163 123.546 191.219 123.61L196.685 123.94C197.835 124.009 198.805 123.095 198.805 121.943Z" fill="black"/>
<path d="M197.663 164.555V166.784C197.663 167.825 196.864 168.692 195.827 168.777L190.361 169.227C189.196 169.322 188.198 168.403 188.198 167.233V164.555C188.198 163.451 189.093 162.555 190.198 162.555H195.663C196.768 162.555 197.663 163.451 197.663 164.555Z" fill="black"/>
<path d="M173.184 169.404V159.13" stroke="black" stroke-width="2" stroke-linecap="round"/>
<path d="M125.204 205.933C125.204 202.345 125.204 186.005 125.204 180.656" stroke="black" stroke-width="2" stroke-linecap="round"/>
<path d="M125.856 145.419C125.856 130.863 122.035 123.767 116.758 116.67" stroke="black" stroke-width="2" stroke-linecap="round"/>
<path d="M64.4944 202.836C61.3936 165.001 63.6232 139.398 76.8803 118.855C80.8833 112.652 89.8248 107.049 95.834 109.212" stroke="black" stroke-width="2" stroke-linecap="round"/>
<path d="M118.569 107.23C121.499 104.921 143.56 104.565 144.699 74.176C152.614 73.3488 154.045 68.5357 149.804 64.3112C143.915 58.4438 144.669 55.071 145.416 51.3512C146.721 46.4356 146.258 41.4876 145.738 40.5019" stroke="black" stroke-width="2" stroke-linecap="round"/>
<path d="M152.797 68.3149C143.263 69.9781 132.563 73.4935 111.379 57.2553C110.711 59.7018 108.823 66.0036 106.612 71.6396C103.848 78.6845 122.575 105.856 135.428 99.9632C145.931 95.1477 152.895 87.9385 152.797 68.3149Z" fill="black"/>
<path d="M136.464 65.0173C137.328 65.2522 138.327 64.3462 138.695 62.9934C139.064 61.6406 138.662 60.3532 137.799 60.1182C136.935 59.8833 135.936 60.7892 135.567 62.1423C135.199 63.4952 135.6 64.7823 136.464 65.0173Z" fill="black"/>
<path d="M130.505 60.2376C130.322 58.304 131.043 54.3599 135.388 54.051" stroke="black" stroke-width="2" stroke-linecap="round"/>
<path d="M104.174 58.9877C103.756 60.2856 103.612 63.1377 106.377 64.1656" stroke="black" stroke-width="2" stroke-linecap="round"/>
<path d="M74.8781 49.5705C73.7618 66.7431 84.8593 78.2808 92.9693 87.1995C99.9514 82.3097 111.049 71.3237 106.245 70.8365C101.196 70.324 94.4402 57.51 98.7425 52.8496C103.79 47.3813 109.695 54.0793 111.302 59.4922L114.91 51.1601C112.996 45.8486 111.379 36.3286 120.22 40.7424C129.061 45.1561 140.949 42.3473 145.787 40.3915C154.821 32.1953 168.218 13.9708 149.529 6.64105C133.984 0.544856 116.088 12.6207 105.495 22.8331C97.3816 21.6724 76.3998 26.1568 74.8781 49.5705Z" fill="black"/>
<path d="M93.3845 86.0081C97.4409 89.8743 99.6227 93.2228 100.26 100.611" stroke="black" stroke-width="2" stroke-linecap="round"/>
<path d="M107.186 127.655C110.537 153.296 118.902 155.602 122.665 153.55C130.193 150.109 146.777 144.46 152.896 149.385C159.015 154.31 151.682 160.974 147.25 163.69C132.56 174.133 100.666 191.251 90.6142 176.185C80.5616 161.119 79.8696 142.142 80.7801 134.536" stroke="black" stroke-width="2" stroke-linecap="round"/>
<path d="M96.1629 109.482C95.2121 106.168 94.6549 99.8475 100.032 101.076C106.753 102.611 120.251 112.554 119.248 116.236" stroke="black" stroke-width="2" stroke-linecap="round"/>
<path d="M173.232 152.881C173.838 154.741 172.866 159.047 163.964 160.09C160.596 160.485 160.09 160.43 156.928 160.163" stroke="black" stroke-width="2" stroke-linecap="round"/>
<path d="M174.467 147.472C175.951 147.889 177.285 149.506 173.232 152.88C172.345 153.618 171.201 154.44 169.744 155.352" stroke="black" stroke-width="2" stroke-linecap="round"/>
<path d="M173.807 143.554C175.362 143.536 176.868 144.412 174.468 147.472C173.429 148.798 171.658 150.532 168.842 152.781" stroke="black" stroke-width="2" stroke-linecap="round"/>
<path d="M154.79 145.948C161.862 138.687 164.882 138.321 163.462 144.269C162.042 150.218 167.311 145.106 170.048 142.165C171.148 140.943 173.597 138.977 174.593 140.892C174.936 141.551 174.558 142.505 173.807 143.553C172.375 145.55 169.585 147.889 167.836 149.177" stroke="black" stroke-width="2" stroke-linecap="round"/>
<path d="M116.339 296.894C127.489 255.175 127.814 239.326 126.012 204.557C105.891 218.195 73.839 207.26 63.7138 202.345C57.8912 237.15 61.6501 303.467 70.0985 344.075C73.3489 349.385 80.3526 346.655 83.4482 344.629L87.3177 316.43L91.7677 341.126C94.2441 345.256 101.57 344.443 104.924 343.524L116.339 296.894Z" fill="black"/>
<path d="M63.3515 354.082C62.4375 351.342 68.7914 352.94 71.6746 354.082C71.6746 356.561 77.7673 358.485 80.8136 359.137C69.0634 358.322 63.8411 355.55 63.3515 354.082Z" fill="black"/>
<path d="M89.5573 351.567C87.5989 349.74 91.026 349.502 93.1476 349.773C93.8004 354.991 94.29 353.524 97.3907 355.317C96.9011 356.133 91.5156 353.393 89.5573 351.567Z" fill="black"/>
<path d="M104.919 346.682C105.947 348.061 109.161 350.817 112.246 350.817C114.886 350.817 115.909 353.968 113.017 355.54C108.197 357.51 97.0914 356.603 93.5438 352.194V346.091" stroke="black" stroke-width="2" stroke-linecap="round"/>
<path d="M82.3197 348.375C83.2282 349.168 85.5514 350.828 87.5761 351.144C90.1069 351.539 93.632 354.51 91.6645 358.065C89.9124 361.226 86.0186 360.567 83.6825 359.843L74.5323 356.483C73.5589 356.085 72.0015 355.492 72.0015 353.121C72.0015 350.749 72.0015 349.761 72.0015 349.562" stroke="black" stroke-width="2" stroke-linecap="round"/>
</svg>
