<svg width="326" height="402" viewBox="0 0 326 402" fill="none" xmlns="http://www.w3.org/2000/svg">
<path d="M257.073 23.8941L250.856 68.778C250.706 69.8578 251.449 70.8586 252.526 71.0281L299.367 78.3994C300.583 78.5908 301.682 77.6482 301.677 76.4169L301.46 12.4041C301.456 11.0741 300.179 10.1189 298.902 10.4905L258.496 22.2482C257.739 22.4685 257.182 23.1131 257.073 23.8941Z" stroke="black" stroke-width="2"/>
<path d="M306.552 13.3938L301.199 9.01953L300.712 79.7364L311.905 77.5493L306.552 13.3938Z" fill="black"/>
<path d="M306.552 14.6086H312.192C313.177 14.6086 314.015 15.3251 314.168 16.2975L323.228 73.8333C323.417 75.0318 322.504 76.1209 321.291 76.144L311.335 76.334" stroke="black" stroke-width="2" stroke-linecap="round"/>
<path d="M278.325 16.0669C279.332 11.4954 283.135 2.58132 290.291 3.49544C294.125 3.98515 296.332 8.40973 296.332 10.5812" stroke="black" stroke-width="2" stroke-linecap="round"/>
<path d="M268.593 18.983C269.713 13.4993 274.134 1.57487 282.389 1.01509C288.185 0.621978 290.156 7.99961 289.345 12.8998" stroke="black" stroke-width="2" stroke-linecap="round"/>
<path d="M93.8821 289.214L102.642 290.447V310.315C102.642 310.957 102.044 311.433 101.417 311.289L94.6576 309.731C94.2037 309.627 93.8821 309.223 93.8821 308.757V289.214Z" fill="black"/>
<path d="M116.092 284.354L85.8521 287.27L121.317 293.102L152.592 290.186L116.092 284.354Z" fill="black"/>
<path d="M77.3352 286.865L121.919 293.611M77.3352 286.865V349.996C77.3352 350.215 77.4785 350.409 77.6884 350.474L121.919 364.062M77.3352 286.865L114.565 284.596M121.919 293.611L165.42 289.983C165.691 289.961 165.93 290.159 165.958 290.429L172.431 351.716C172.457 351.966 172.293 352.197 172.048 352.255L121.919 364.062M121.919 293.611V364.062" stroke="black" stroke-width="2" stroke-linecap="round"/>
<path d="M169.786 387.639C164.725 394.249 182.439 402.22 192.173 400.033C181.466 394.2 182.521 389.583 182.926 387.639C180.655 384.885 174.848 381.029 169.786 387.639Z" fill="black"/>
<path d="M186.353 376.297C184.145 381.254 181.054 392.019 186.353 395.418C192.976 399.667 195.184 401.792 202.911 400.729C210.637 399.667 212.845 398.605 208.43 395.418C204.014 392.231 199.735 387.016 200.839 374.269" stroke="black" stroke-width="2" stroke-linecap="round"/>
<path d="M179.877 365.287C169.557 345.593 169.071 314.73 165.919 289.401C137.269 291.102 119.49 289.551 110.583 280.805C98.3282 268.77 101.57 255.584 101.57 243.865C112.739 251.686 109.074 241.583 154.228 241.583C196.354 243.916 208.534 305.253 209.359 335.629C210.216 348.809 208.942 360.696 202.965 365.287C190.959 374.511 182.546 370.38 179.877 365.287Z" fill="black"/>
<path d="M152.252 168.193C164.26 145.667 155.027 136.073 149.377 131.741C150.045 148.8 138.786 157.963 132.814 160.306V165.763C133.87 164.38 146.944 165.183 152.252 168.193Z" fill="black"/>
<path d="M76.1143 159.89C84.12 167.464 90.9844 167.356 94.1108 167.707C105.695 167.707 110.803 166.538 115.125 164.979L112.375 156.794C106.594 152.636 103.108 145.939 101.766 142.764C100.26 144.032 98.1413 144.271 97.0517 142.764C96.1768 141.932 94.3615 138.843 94.6943 134.19C95.027 129.537 97.8365 130.058 99.4916 131.265L107.76 132.152C107.412 124.459 112.175 121.892 114.599 121.57C112.694 117.308 116.102 115.444 117.896 114.712C120.468 117.851 123.84 119.116 125.266 119.704C139.777 123.484 148.634 118.309 152.722 111.851C157.16 105.331 156.442 90.0214 143.887 86.2945C139.782 84.7216 130.05 83.4319 123.962 90.8563C106.041 84.299 97.5586 103.066 95.2317 109.881L92.5425 116.095C69.1879 121.041 67.1324 143.035 71.2348 152.667C73.0946 157.034 73.3393 157.265 75.9913 159.773L76.1143 159.89Z" fill="black"/>
<path d="M107.196 132.548C108.175 138.068 112.974 141.691 117.771 140.856C122.568 140.022 125.834 134.996 124.854 129.476C123.875 123.956 119.076 120.333 114.279 121.168C109.482 122.003 106.216 127.028 107.196 132.548Z" stroke="black" stroke-width="2"/>
<path d="M132.96 132.548C133.78 138.068 137.801 141.691 141.82 140.856C145.84 140.022 148.576 134.996 147.755 129.476C146.935 123.956 142.914 120.333 138.895 121.168C134.876 122.003 132.14 127.028 132.96 132.548Z" stroke="black" stroke-width="2"/>
<path d="M131.841 130.769L125.028 131.741" stroke="black" stroke-width="2" stroke-linecap="round"/>
<path d="M131.841 152.64C130.337 154.97 126.577 156.68 123.568 152.64" stroke="black" stroke-width="2" stroke-linecap="round"/>
<path d="M128.922 139.031C131 143.538 131.663 145.792 129.673 147.294" stroke="black" stroke-width="2" stroke-linecap="round"/>
<path d="M143.35 138.783C141.881 139.04 140.481 138.06 140.223 136.594C139.965 135.127 140.947 133.729 142.415 133.471C143.884 133.214 145.284 134.194 145.542 135.661C145.8 137.127 144.818 138.525 143.35 138.783Z" fill="black"/>
<path d="M120.808 139.452C119.339 139.71 117.939 138.73 117.681 137.263C117.423 135.797 118.405 134.399 119.873 134.141C121.342 133.883 122.742 134.864 123 136.33C123.258 137.797 122.276 139.195 120.808 139.452Z" fill="black"/>
<path d="M98.6182 136.531C98.8784 136.882 99.4786 137.692 99.7982 138.124" stroke="black" stroke-width="2" stroke-linecap="round"/>
<path d="M144.995 118.133C151.304 131.457 151.989 142.311 138.834 155.902C125.678 169.493 111.575 156.746 106.168 148.674L102.642 143.441" stroke="black" stroke-width="2" stroke-linecap="round"/>
<path d="M106.485 131.032L100.661 131.228" stroke="black" stroke-width="2" stroke-linecap="round"/>
<path d="M169.807 199.299C174.271 204.448 179.578 223.53 165.908 236.723" stroke="black" stroke-width="2" stroke-linecap="round"/>
<path d="M162.257 183.503C162.257 169.894 144.43 164.624 133.024 166.62C129.711 169.09 121.256 172.549 113.941 166.62C108.243 167.271 95.8927 170.29 92.0762 177.157C82.4026 193.156 77.367 235.297 107.978 246.613" stroke="black" stroke-width="2" stroke-linecap="round"/>
<path d="M108.482 199.299C112.267 205.203 113.636 214.002 113.409 219.811C113.393 220.21 113.866 220.46 114.195 220.234C123.247 214.012 142.838 215.26 147.468 218.617C151.292 221.39 148.506 225.163 146.247 227.571C140.025 234.203 130.492 240.633 124.298 243.527" stroke="black" stroke-width="2" stroke-linecap="round"/>
<path d="M171.603 189.266C174.873 191.241 172.353 200.41 170.99 204.083L169.805 203.667L170.137 202.229L170.026 200.791C169.413 199.271 165.876 198.131 163.832 200.791C161.835 203.391 159.298 205.618 157.913 206.172C152.519 209.06 153.486 204.336 154.644 201.613C155.325 200.347 157.26 196.028 157.913 191.925C158.567 187.822 161.387 187.366 163.022 187.176C164.52 187.049 168.334 187.29 171.603 189.266Z" fill="black"/>
<path d="M162.014 184.274C163.232 184.094 164.704 184.459 165.567 185.967C165.753 186.292 165.875 186.682 165.907 187.148" stroke="black" stroke-width="2" stroke-linecap="round"/>
<path d="M156.045 200.757C154.839 199.934 154.289 198.699 153.256 196.597C152.223 193.76 151.625 192.114 150.983 189.74C150.845 188.978 150.352 186.908 152.223 186.692C153.875 186.502 154.082 187.835 154.289 188.788C154.908 192.114 157.652 191.519 157.652 189.233C157.652 186.947 157.652 185.117 156.952 182.376C156.583 180.932 155.641 177.914 159.029 177.914C161.463 177.914 161.656 180.14 162.014 183.95" stroke="black" stroke-width="2" stroke-linecap="round"/>
<path d="M169.801 213.394C164.113 222.853 159.593 220.329 152.281 225.058" stroke="black" stroke-width="2" stroke-linecap="round"/>
<path d="M144.981 214.366C145.655 210.753 149.024 208.517 150.54 201.98C151.061 199.734 151.719 197.679 153.741 197.851" stroke="black" stroke-width="2" stroke-linecap="round"/>
<path d="M219.927 349.26C221.868 355.842 227.617 368.569 235.074 366.814C242.531 365.058 253.716 358.768 258.377 355.842C263.038 352.185 266.533 345.749 243.23 349.26C241.676 349.26 238.569 347.943 238.569 342.677" stroke="black" stroke-width="2" stroke-linecap="round"/>
<path d="M82.6081 269.335C72.3231 272.119 61.1811 288.284 56.8958 296.018C63.3238 295.245 77.8942 291.145 84.7508 280.936C91.6074 270.727 86.1792 268.948 82.6081 269.335Z" fill="black"/>
<path d="M77.9562 242.144C67.6405 243.2 60.2211 269.037 56.8958 280.951C64.2854 274.824 78.8429 262.569 82.39 258.484C89.0407 250.824 87.9322 241.122 77.9562 242.144Z" fill="black"/>
<path d="M46.1768 233.883C40.5562 243.02 52.7351 256.748 58.356 265.885C58.356 260.132 58.3563 248.096 58.3562 243.02C58.356 234.898 50.2353 227.286 46.1768 233.883Z" fill="black"/>
<path d="M58.3559 285.812C50.7118 275.128 34.3811 256.611 30.2115 268.006C24.9996 282.251 57.3135 285.812 58.3559 285.812Z" fill="black"/>
<path d="M58.3557 300.392L56.8958 261.51" stroke="black" stroke-width="2" stroke-linecap="round"/>
<path d="M46.5916 332.542C49.2238 326.248 53.1416 310.098 53.9603 302.337H65.0136C65.5048 311.902 70.5398 325.62 72.9964 332.542C80.3647 348.903 74.0198 359.391 69.312 362.118H51.5041C39.8369 358.342 42.907 341.352 46.5916 332.542Z" stroke="black" stroke-width="2"/>
<path d="M111.888 207.075C112.652 203.903 113.949 196.449 113.033 192.009" stroke="black" stroke-width="2" stroke-linecap="round"/>
<path d="M164.448 207.075C166.315 205.923 171.449 203.619 170.049 199.299" stroke="black" stroke-width="2" stroke-linecap="round"/>
<path d="M165.907 211.45C167.043 211.018 169.314 209.506 170.287 208.533" stroke="black" stroke-width="2" stroke-linecap="round"/>
<path d="M159.581 238.91C161.69 234.131 162.987 230.162 164.204 219.955" stroke="black" stroke-width="2" stroke-linecap="round"/>
<path d="M221.182 258.595C206.414 230.505 165.262 236.07 153.741 242.12C182.965 245.115 190.402 265.413 191.58 274.881C195.979 312.44 207.552 334.454 212.789 340.766C217.109 343.922 235.78 343.697 236.747 336.032C240.282 308.021 229.685 274.771 221.182 258.595Z" fill="black"/>
<path d="M250.628 383.051C251.305 378.655 238.069 380.058 229.569 381.618C228.077 381.892 226.622 382.912 226.857 384.41C226.97 385.126 227.259 385.793 227.601 386.358C228.192 387.333 229.318 387.771 230.457 387.816C237.827 388.106 249.943 387.505 250.628 383.051Z" fill="black"/>
<path d="M5.61035 55.1201C2.55418 57.2885 -1.56119 63.3127 7.83404 66.3961C14.9997 68.7477 21.0766 67.5586 23.176 67.5096" stroke="black" stroke-width="2" stroke-linecap="round"/>
<path d="M33.3915 69.5834C23.2439 70.5144 11.2342 59.4941 5.05836 52.2205C4.22922 51.2439 4.58639 49.768 5.68531 49.1084C11.9286 45.3615 16.7968 39.0004 19.3078 34.8293C19.9527 33.7581 21.3999 33.4274 22.3805 34.204C38.6525 47.089 41.3363 57.7893 40.8045 61.948C40.7914 62.0506 40.7688 62.1457 40.7356 62.2437C40.0474 64.2748 37.776 68.3176 33.7141 69.5219C33.609 69.553 33.5007 69.5733 33.3915 69.5834Z" stroke="black" stroke-width="2" stroke-linecap="round"/>
<ellipse cx="12.8878" cy="2.43177" rx="12.8878" ry="2.43177" transform="matrix(0.695401 -0.718622 0.719525 0.694467 1.17651 48.9797)" fill="black"/>
<path d="M296.852 162.847C292.878 176.456 285.562 204.937 288.092 209.992" stroke="black" stroke-width="2" stroke-linecap="round"/>
<path d="M290.38 166.137L295.357 163.03C296.197 162.506 297.294 162.675 297.937 163.429L301.288 167.357C301.934 168.115 303.041 168.282 303.882 167.747L318.475 158.473C320.908 156.528 320.868 154.765 319.935 153.612C318.443 151.769 314.388 151.005 311.365 150.925C310.521 150.902 309.797 151.479 309.554 152.287L308.78 154.864C308.602 155.454 308.162 155.934 307.581 156.139C300.053 158.795 295.126 157.17 292.966 154.777C292.597 154.369 292.51 153.795 292.636 153.26L292.89 152.184C293.167 151.009 292.347 149.857 291.14 149.835C287.001 149.761 281.489 150.537 281.489 154.098C281.489 157.818 285.294 162.911 287.939 165.827C288.564 166.516 289.591 166.629 290.38 166.137Z" fill="black"/>
<path d="M270.296 197.355C272.242 176.553 278.488 159.364 281.489 153.612C282.462 151.425 284.798 149.919 287.329 149.724C290.492 149.481 314.671 149.517 320.665 152.64C326.261 155.557 325.288 155.557 323.828 171.838C322.66 184.864 317.988 202.215 315.798 209.263C314.338 213.151 305.53 216.456 296.575 213.151C285.382 209.019 288.789 211.207 278.569 209.263C270.393 207.707 269.955 201 270.296 197.355Z" stroke="black" stroke-width="2"/>
<path d="M324.803 162.118C323.18 160.417 319.498 158.716 317.746 165.52C315.556 174.026 310.651 193.022 310.202 195.411C309.472 199.299 309.229 209.506 313.123 203.43C316.237 198.57 319.855 178.157 320.909 168.436" stroke="black" stroke-width="2" stroke-linecap="round"/>
<ellipse cx="1.21698" cy="1.94424" rx="1.21698" ry="1.94424" transform="matrix(0.973411 0.229067 -0.229632 0.973278 297.817 166.751)" fill="black"/>
<ellipse cx="1.21698" cy="1.94424" rx="1.21698" ry="1.94424" transform="matrix(0.973411 0.229067 -0.229632 0.973278 295.068 176.699)" fill="black"/>
<ellipse cx="1.21698" cy="1.94424" rx="1.21698" ry="1.94424" transform="matrix(0.973411 0.229067 -0.229632 0.973278 292.635 188.363)" fill="black"/>
<ellipse cx="1.21698" cy="1.94424" rx="1.21698" ry="1.94424" transform="matrix(0.973411 0.229067 -0.229632 0.973278 290.688 200.514)" fill="black"/>
<path d="M173.451 184.718L176.371 171.838" stroke="black" stroke-width="2" stroke-linecap="round"/>
<path d="M177.344 189.092L196.324 178.643" stroke="black" stroke-width="2" stroke-linecap="round"/>
<path d="M179.047 194.925H191.457" stroke="black" stroke-width="2" stroke-linecap="round"/>
<path d="M175.154 113.029C181.4 111.409 195.545 110.842 202.164 121.535C210.437 134.9 210.924 138.789 221.387 136.358" stroke="black" stroke-width="2" stroke-linecap="round"/>
<path d="M228.797 106.319C236.178 107.21 252.984 106.076 261.16 94.4111C269.336 82.7465 275.922 81.9364 278.193 82.9895" stroke="black" stroke-width="2" stroke-linecap="round"/>
<path d="M104.102 70.0157C104.75 65.1554 103.518 54.2684 93.395 49.6025" stroke="black" stroke-width="2" stroke-linecap="round"/>
<path d="M10.4199 140.733C11.4743 134.9 17.6225 123.625 33.7795 125.18C49.9366 126.735 59.0047 120.32 61.5191 116.917" stroke="black" stroke-width="2" stroke-linecap="round"/>
<path d="M72.4235 70.9878C69.8218 71.911 65.4603 75.057 68.829 80.2553C72.1729 85.4153 75.186 81.066 76.3017 78.1886C76.3185 78.1457 76.3287 78.1024 76.3329 78.0563C76.4876 76.3365 76.1044 73.2361 73.3479 74.0769C70.5545 74.9291 71.5677 77.1306 72.4235 78.1248" stroke="black" stroke-width="2" stroke-linecap="round"/>
<path d="M190.195 57.8652C187.594 58.7884 183.232 61.9344 186.601 67.1327C189.945 72.2927 192.958 67.9434 194.073 65.066C194.09 65.0231 194.1 64.9799 194.105 64.9337C194.259 63.2139 193.876 60.1135 191.12 60.9544C188.326 61.8066 189.339 64.008 190.195 65.0022" stroke="black" stroke-width="2" stroke-linecap="round"/>
</svg>
