<svg width="161" height="145" viewBox="0 0 161 145" fill="none" xmlns="http://www.w3.org/2000/svg">
<path d="M27.2728 26.8468L39.3318 6.00166C42.095 1.22532 48.2086 -0.416873 52.9932 2.33207L86.9804 21.8593M8.93556 59.5022L2.89856 69.4281C-0.0161301 74.2204 1.58374 80.4652 6.44355 83.2654L13.1447 87.1266M73.9394 122.774L108.155 141.995C112.933 144.68 118.988 143.022 121.732 138.278L133.608 117.75M153.389 83.5295L158.509 74.6931C161.279 69.9121 159.643 63.7974 154.855 61.0387L148.168 57.1858" stroke="black" stroke-width="2" stroke-linecap="round"/>
<path d="M12.7402 35.4451C12.7402 30.4745 16.7697 26.4451 21.7402 26.4451H139.372C144.342 26.4451 148.372 30.4745 148.372 35.4451V108.751C148.372 113.722 144.342 117.751 139.372 117.751H21.7402C16.7697 117.751 12.7402 113.722 12.7402 108.751V35.4451Z" stroke="black" stroke-width="2"/>
<path d="M64.3052 26.8467V45.2859M64.3052 117.149V75.3201" stroke="black" stroke-width="2" stroke-linecap="round"/>
<path d="M72.1328 59.4839C72.1328 63.7953 68.6301 67.2939 64.3051 67.2939C59.9801 67.2939 56.4774 63.7953 56.4774 59.4839C56.4774 55.1724 59.9801 51.6738 64.3051 51.6738C68.6301 51.6738 72.1328 55.1724 72.1328 59.4839Z" stroke="black" stroke-width="2"/>
<path d="M13.3453 59.4839H24.9859" stroke="black" stroke-width="2" stroke-linecap="round"/>
<path d="M103.432 59.4839H147.968" stroke="black" stroke-width="2" stroke-linecap="round"/>
<path d="M37.7535 45.8938C46.2485 41.2628 55.6112 48.3375 58.8882 53.0762C54.3941 57.7215 55.8119 63.2211 57.6844 65.0899C46.0479 53.4767 36.3508 60.6181 33.007 65.6906C30.5995 63.0876 27.8501 51.2927 37.7535 45.8938Z" fill="black"/>
<path d="M59.3964 53.8774C56.1194 49.1387 47.1981 40.9427 37.7284 46.0685C25.8913 52.4758 31.9102 67.2927 33.9164 69.4952C35.9227 71.6977 45.7536 82.9105 59.3964 65.6908" stroke="black" stroke-width="2" stroke-linecap="round"/>
<path d="M57.682 67.4269C53.8032 61.4868 43.5467 53.3969 32.3114 66.6921" stroke="black" stroke-width="2" stroke-linecap="round"/>
<path d="M49.055 86.6487C49.055 81.4427 52.8084 81.7489 56.2777 78.0388C60.2095 73.8341 58.9605 67.8175 64.6128 67.2927" stroke="black" stroke-width="2" stroke-linecap="round"/>
<path d="M80.0612 86.6487C80.0612 81.4427 76.3078 81.7489 72.8385 78.0388C68.9067 73.8341 70.1557 67.8175 64.5034 67.2927" stroke="black" stroke-width="2" stroke-linecap="round"/>
<path d="M90.7632 45.8938C82.2682 41.2628 72.9055 48.3375 69.6285 53.0762C74.1226 57.7215 72.7049 63.2211 70.8323 65.0899C82.4688 53.4767 92.1659 60.6181 95.5097 65.6906C97.9173 63.0876 100.667 51.2927 90.7632 45.8938Z" fill="black"/>
<path d="M69.1202 53.8774C72.3972 49.1387 81.3185 40.9427 90.7882 46.0685C102.625 52.4758 96.6064 67.2927 94.6002 69.4952C92.5939 71.6977 82.763 82.9105 69.1202 65.6908" stroke="black" stroke-width="2" stroke-linecap="round"/>
<path d="M70.7229 67.6271C74.6017 61.687 84.9699 53.3969 96.2052 66.6921" stroke="black" stroke-width="2" stroke-linecap="round"/>
</svg>
