<svg width="159" height="201" viewBox="0 0 159 201" fill="none" xmlns="http://www.w3.org/2000/svg">
<path d="M5.35427 127.549L11.7986 126.38C12.7793 126.202 13.6077 125.549 14.009 124.636L15.979 120.158C16.4726 119.036 16.234 117.727 15.3764 116.851L10.9196 112.3C9.67943 111.033 9.80188 108.973 11.1834 107.863L19.9438 100.82C21.25 99.7696 23.1633 99.9933 24.192 101.317L29.0569 107.574C30.0716 108.88 31.9512 109.118 33.2595 108.107L35.4148 106.442C36.2697 105.781 36.7034 104.712 36.5503 103.643L35.5738 96.8208C35.3151 95.0133 36.7176 93.3958 38.5436 93.3958H46.7517C48.4085 93.3958 49.7517 94.7389 49.7517 96.3958V101.382C49.7517 102.638 50.5337 103.761 51.7116 104.196L58.3829 106.662C59.4047 107.04 60.551 106.834 61.3774 106.124L65.881 102.257C67.166 101.153 69.1092 101.332 70.1718 102.651L74.2345 107.694C75.2435 108.947 75.0851 110.772 73.8754 111.833L69.8097 115.395C68.8611 116.226 68.5337 117.562 68.9905 118.738L70.8375 123.492C71.4075 124.959 73.0143 125.736 74.5182 125.272L78.9321 123.91C80.707 123.363 82.5478 124.544 82.7906 126.385L83.9036 134.827C84.0933 136.266 83.2261 137.634 81.844 138.076L75.6852 140.048C74.7184 140.357 73.9736 141.135 73.706 142.114L72.2023 147.617C71.9775 148.439 72.1134 149.318 72.576 150.035L75.8339 155.08C76.6977 156.418 76.366 158.197 75.0783 159.134L67.9167 164.343C66.8561 165.114 65.4174 165.107 64.3643 164.326L60.3286 161.331C59.3472 160.602 58.0221 160.542 56.9787 161.179L53.6543 163.206C52.5708 163.867 52.0203 165.138 52.2797 166.38L53.0594 170.116C53.4275 171.879 52.1694 173.567 50.3743 173.718L40.8569 174.519C39.2349 174.656 37.7999 173.474 37.623 171.856L37.038 166.504C36.8952 165.198 35.9198 164.137 34.6307 163.885L29.9038 162.962C28.7633 162.739 27.5967 163.195 26.9095 164.133L24.2477 167.763C23.2101 169.178 21.1847 169.405 19.8602 168.254L12.4765 161.835C11.3484 160.855 11.1142 159.193 11.9274 157.939L15.8619 151.871C16.4406 150.978 16.5034 149.846 16.0269 148.895L12.6729 142.2C12.1643 141.185 11.1262 140.544 9.99072 140.544H5.88989C4.23304 140.544 2.88989 139.201 2.88989 137.544V130.501C2.88989 129.051 3.92732 127.808 5.35427 127.549Z" stroke="black" stroke-width="2"/>
<path d="M76.8019 157.654L66.7784 165.076C65.7169 165.862 64.2661 165.862 63.2054 165.074L59.1855 162.091C58.2041 161.363 56.8791 161.303 55.8357 161.939L52.5112 163.967C51.4277 164.628 50.8773 165.899 51.1366 167.141L51.9163 170.876C52.2845 172.64 51.0264 174.328 49.2313 174.479L39.7138 175.28C38.0918 175.416 36.6568 174.234 36.4799 172.616L35.8949 167.264C35.7522 165.958 34.7767 164.897 33.4876 164.646L28.7608 163.723C27.6202 163.5 26.4536 163.956 25.7664 164.893L23.1047 168.524C22.0671 169.939 20.0416 170.165 18.7172 169.014L11.3335 162.596C10.2053 161.615 9.97118 159.954 10.7843 158.7L14.7189 152.631C15.2976 151.739 15.3603 150.606 14.8839 149.655L11.5299 142.961C11.0213 141.946 9.9831 141.305 8.84765 141.305H4.74683C3.08997 141.305 1.74683 139.961 1.74683 138.305V131.262C1.74683 129.811 2.78425 128.569 4.21121 128.31L10.6555 127.141C11.6363 126.963 12.4646 126.309 12.866 125.397L14.836 120.919C15.3295 119.797 15.0909 118.487 14.2334 117.612L9.77655 113.06C8.53636 111.794 8.65881 109.734 10.0403 108.623L18.8007 101.58C20.107 100.53 22.0202 100.754 23.0489 102.077L27.9138 108.335C28.9286 109.64 30.8081 109.878 32.1165 108.867L34.4892 107.034C35.2244 106.466 35.6549 105.589 35.6549 104.66V94.3464" stroke="black" stroke-width="2" stroke-linecap="round"/>
<path d="M56.7524 134.08C56.7524 141.296 50.8907 147.149 43.6557 147.149C36.4208 147.149 30.5591 141.296 30.5591 134.08C30.5591 126.865 36.4208 121.012 43.6557 121.012C50.8907 121.012 56.7524 126.865 56.7524 134.08Z" stroke="black" stroke-width="2"/>
<path d="M45.3702 147.008C51.4661 145.487 55.0855 140.59 55.0855 134.08C55.0855 127.57 50.8946 120.962 42.8938 120.962" stroke="black" stroke-width="2" stroke-linecap="round"/>
<path d="M121.947 94.1554C121.947 98.851 118.132 102.661 113.422 102.661C108.712 102.661 104.897 98.851 104.897 94.1554C104.897 89.4597 108.712 85.6497 113.422 85.6497C118.132 85.6497 121.947 89.4597 121.947 94.1554Z" stroke="black" stroke-width="2"/>
<path d="M114.184 102.711C118.566 100.81 121.042 98.5286 121.042 94.156C120.661 89.7833 118.375 87.1217 114.184 85.6008" stroke="black" stroke-width="2" stroke-linecap="round"/>
<path d="M115.47 159.175C115.47 163.136 112.252 166.35 108.279 166.35C104.305 166.35 101.088 163.136 101.088 159.175C101.088 155.214 104.305 152 108.279 152C112.252 152 115.47 155.214 115.47 159.175Z" stroke="black" stroke-width="2"/>
<path d="M108.47 166.399C112.66 165.258 114.613 162.597 114.946 159.555C115.439 155.067 112.089 152.901 109.803 152.141" stroke="black" stroke-width="2" stroke-linecap="round"/>
<path d="M88.7569 100.401L89.7432 102.597C90.2396 103.702 90.0226 104.997 89.1931 105.88L86.7359 108.496C85.6686 109.632 85.6494 111.397 86.6918 112.556L89.7932 116.005C90.7838 117.107 92.4303 117.32 93.6692 116.508L96.7409 114.493C97.6336 113.908 98.7703 113.841 99.7256 114.317L101.475 115.19C102.493 115.698 103.136 116.738 103.136 117.875V120.053C103.136 121.71 104.479 123.053 106.136 123.053H112.708C114.365 123.053 115.708 121.71 115.708 120.053V119.443C115.708 118.186 116.493 117.061 117.673 116.627L120.759 115.493C122.046 115.019 123.491 115.479 124.267 116.609L125.527 118.443C126.572 119.964 128.73 120.19 130.067 118.917L133.755 115.408C134.867 114.35 135.001 112.624 134.066 111.407L132.546 109.429C131.809 108.469 131.72 107.16 132.322 106.11L133.64 103.808C134.104 102.997 134.921 102.449 135.847 102.325L140.213 101.744C141.759 101.539 142.89 100.181 142.813 98.6229L142.526 92.8029C142.444 91.139 141.022 89.8605 139.359 89.9554L137.635 90.0537C136.463 90.1206 135.359 89.497 134.811 88.458L132.996 85.0162C132.352 83.7962 132.624 82.2946 133.654 81.377L135.165 80.0302C136.333 78.9891 136.505 77.2248 135.56 75.9778L133.838 73.7078C132.79 72.3248 130.79 72.1176 129.48 73.2562L127.747 74.7626C126.715 75.6591 125.208 75.7453 124.081 74.9721L120.991 72.8516C120.295 72.3745 119.833 71.6267 119.717 70.7914L119.355 68.1946C119.129 66.5674 117.636 65.4251 116.006 65.6321L111.091 66.2563C109.593 66.4467 108.469 67.7217 108.469 69.2324V70.9792C108.469 72.3192 107.581 73.4967 106.292 73.8642L104.498 74.3758C103.635 74.6217 102.708 74.4688 101.97 73.9589L97.7329 71.0314C96.5549 70.2175 94.966 70.3494 93.9385 71.3465L90.9971 74.2005C89.8097 75.3525 89.7791 77.2483 90.9287 78.4381L92.3224 79.8806C93.2982 80.8905 93.4429 82.4421 92.6706 83.615L90.4995 86.9122C89.9445 87.755 89.003 88.2623 87.9939 88.2623H85.8894C84.4124 88.2623 83.1552 89.3374 82.9258 90.7965L82.2687 94.9772C82.0104 96.6207 83.1388 98.1606 84.7838 98.4093L86.4688 98.6641C87.4772 98.8166 88.339 99.4709 88.7569 100.401Z" stroke="black" stroke-width="2"/>
<path d="M136.091 78.9466L132.695 74.468C131.647 73.085 129.647 72.8778 128.337 74.0164L126.604 75.5228C125.572 76.4194 124.065 76.5055 122.938 75.7324L119.848 73.6119C119.152 73.1348 118.69 72.387 118.574 71.5517L118.212 68.9549C117.986 67.3277 116.493 66.1853 114.863 66.3923L109.949 67.0166C108.45 67.2069 107.327 68.4819 107.327 69.9926V71.7394C107.327 73.0795 106.438 74.257 105.149 74.6244L103.355 75.136C102.492 75.382 101.565 75.2291 100.827 74.7192L96.5899 71.7916C95.412 70.9778 93.8231 71.1097 92.7955 72.1067L89.8541 74.9607C88.6668 76.1128 88.6362 78.0086 89.7857 79.1983L91.1795 80.6408C92.1553 81.6507 92.2999 83.2024 91.5276 84.3752L89.3566 87.6724C88.8016 88.5153 87.8601 89.0226 86.8509 89.0226H84.7465C83.2695 89.0226 82.0122 90.0977 81.7829 91.5568L81.1258 95.7375C80.8674 97.381 81.9959 98.9208 83.6408 99.1696L85.3259 99.4244C86.3342 99.5768 87.1961 100.231 87.6139 101.161L88.6755 103.525C89.1332 104.544 88.9869 105.732 88.2961 106.61L85.2291 110.505" stroke="black" stroke-width="2" stroke-linecap="round"/>
<path d="M130.476 152.663L128.749 153.733C127.866 154.28 127.328 155.244 127.328 156.283V158.663C127.328 159.891 128.076 160.995 129.216 161.45L129.783 161.676C131.122 162.21 131.891 163.621 131.616 165.036L131.23 167.015C130.956 168.424 129.721 169.441 128.285 169.441H125.017C124.073 169.441 123.185 169.885 122.618 170.639L121.899 171.596C121.153 172.589 121.096 173.938 121.755 174.99L122.751 176.581C123.679 178.062 123.149 180.02 121.601 180.831L119.428 181.969C117.992 182.722 116.219 182.197 115.423 180.785L114.283 178.763C113.751 177.82 112.752 177.236 111.669 177.236H108.615C107.379 177.236 106.269 177.995 105.82 179.147L104.906 181.491C104.337 182.952 102.739 183.728 101.239 183.273L98.2644 182.369C96.5814 181.858 95.6972 180.015 96.3516 178.383L96.8497 177.14C97.3981 175.771 96.8711 174.207 95.6062 173.45L93.611 172.255C92.6766 171.696 91.5066 171.711 90.5872 172.295C89.1471 173.209 87.2321 172.679 86.4679 171.154L85.3819 168.986C84.6587 167.543 85.2076 165.786 86.6238 165.011L88.4317 164.021C89.3934 163.495 89.9914 162.486 89.9914 161.39V158.572C89.9914 157.529 89.45 156.561 88.5614 156.016L87.2975 155.239C86.0073 154.447 85.5098 152.817 86.1373 151.439L86.778 150.033C87.4137 148.637 88.9999 147.945 90.4552 148.43L91.357 148.73C92.6776 149.169 94.127 148.642 94.8575 147.458L95.6878 146.111C96.2831 145.146 96.2831 143.927 95.6878 142.962L95.1412 142.075C94.2891 140.693 94.691 138.884 96.0483 137.993L98.0673 136.667C99.555 135.691 101.561 136.216 102.379 137.797L103.059 139.112C103.574 140.108 104.602 140.734 105.723 140.734H109.334C110.636 140.734 111.789 139.895 112.189 138.657L112.439 137.881C112.972 136.234 114.785 135.378 116.395 136.014L118.992 137.038C120.465 137.619 121.233 139.247 120.744 140.754L120.175 142.512C119.781 143.724 120.198 145.053 121.213 145.825L121.717 146.208C122.783 147.019 124.258 147.025 125.33 146.222L126.037 145.693C127.514 144.587 129.631 145.065 130.49 146.698L131.551 148.716C132.284 150.11 131.815 151.833 130.476 152.663Z" stroke="black" stroke-width="2"/>
<path d="M113.917 135.791L118.274 137.678C119.692 138.292 120.412 139.883 119.937 141.353L119.388 143.052C118.997 144.263 119.412 145.588 120.423 146.36L120.822 146.664C121.89 147.479 123.37 147.485 124.444 146.678L124.997 146.263C126.475 145.152 128.597 145.631 129.456 147.269L130.416 149.1C131.145 150.492 130.677 152.211 129.342 153.041L127.751 154.03C126.87 154.577 126.335 155.541 126.335 156.578V158.82C126.335 160.046 127.081 161.149 128.219 161.605L128.666 161.784C130.002 162.319 130.77 163.728 130.496 165.141L130.142 166.961C129.869 168.371 128.634 169.389 127.197 169.389H124.129C123.184 169.389 122.294 169.834 121.728 170.591L121.079 171.457C120.337 172.448 120.28 173.793 120.935 174.844L121.844 176.301C122.768 177.78 122.239 179.733 120.696 180.544L118.724 181.581C117.286 182.337 115.507 181.811 114.712 180.395L113.664 178.53C113.133 177.585 112.133 176.999 111.049 176.999H108.247C106.979 176.999 105.848 177.797 105.422 178.992L104.279 182.197" stroke="black" stroke-width="2" stroke-linecap="round"/>
<path d="M65.7023 84.3928C66.2642 82.0842 68.4416 78.0976 70.0126 74.6127C70.4694 73.5994 73.1418 73.5521 73.5347 74.5919C75.1261 78.8025 76.7106 82.536 77.2412 84.3928C77.9822 86.9864 78.2258 93.5161 71.7025 93.3941C65.1792 93.272 64.9843 87.3424 65.7023 84.3928Z" fill="black"/>
<path d="M77.805 59.494C78.11 58.2498 79.1074 56.2918 80.0453 54.352C80.5286 53.3525 83.3962 53.3518 83.8018 54.3852C84.668 56.5916 85.4418 58.465 85.7379 59.494C86.2474 61.2642 86.4149 65.721 81.9301 65.6377C77.4453 65.5544 77.3114 61.5072 77.805 59.494Z" fill="black"/>
<path d="M81.8002 41.477L87.4764 31.7687C87.9901 30.8902 88.7595 30.1893 89.6821 29.7597L108.402 21.0423C110.236 20.1884 112.481 20.5229 113.325 22.361C113.53 22.8075 113.714 23.2938 113.858 23.8141C114.406 25.7917 112.823 27.5289 110.839 28.0553L93.6511 32.6165C92.4396 32.938 91.393 33.7028 90.7187 34.7595L85.5715 42.8255" stroke="black" stroke-width="2" stroke-linecap="round"/>
<path d="M86.3481 43.2714C86.7229 41.4592 82.6035 40.0094 81.1054 40.7343C79.982 41.4592 81.1056 42.909 82.978 43.6339C84.4759 44.2138 86.3481 43.9963 86.3481 43.2714Z" fill="black"/>
<path d="M111.136 19.8998C111.389 15.0904 115.24 5.15493 128.328 1.61836C130.013 1.16307 131.794 1.77969 132.806 3.20193C136.242 8.03181 140.578 16.9106 140.047 27.0475C139.94 29.0972 138.376 30.7364 136.348 31.0536C128.664 32.2556 117.64 32.4655 114.184 27.0456" stroke="black" stroke-width="2" stroke-linecap="round"/>
</svg>
