<svg width="439" height="302" viewBox="0 0 439 302" fill="none" xmlns="http://www.w3.org/2000/svg">
<path d="M83.762 43.3333C78.9941 59.4839 70.2173 93.2849 73.2532 99.2837" stroke="black" stroke-width="2" stroke-linecap="round"/>
<path d="M75.7409 47.308L82.1829 43.3107C83.021 42.7906 84.113 42.9592 84.7553 43.7077L89.1558 48.8364C89.8021 49.5896 90.9029 49.755 91.7419 49.2249L109.34 38.1066C112.228 35.813 112.18 33.7321 111.073 32.3726C109.258 30.1448 104.249 29.2532 100.638 29.1962C99.7943 29.1828 99.0704 29.7572 98.8265 30.5644L97.783 34.0176C97.6047 34.6078 97.1644 35.0863 96.5836 35.2933C87.4329 38.5546 81.4899 36.5355 78.9658 33.6335C78.6031 33.2165 78.5136 32.6409 78.6411 32.1032L79.0701 30.2931C79.3488 29.1168 78.5293 27.9627 77.3209 27.9267C72.371 27.7792 65.4465 28.6229 65.4465 32.946C65.4465 37.4309 70.1612 43.6068 73.3048 47.0049C73.9338 47.6848 74.9539 47.7963 75.7409 47.308Z" fill="black"/>
<path d="M51.8934 84.277C54.2177 59.5501 61.6745 39.1178 65.2577 32.2813C66.4198 29.6815 69.2089 27.8905 72.2303 27.6595C76.0072 27.3706 104.876 27.4132 112.033 31.1258C118.715 34.5922 117.553 34.5922 115.809 53.9462C114.415 69.4293 108.837 90.0543 106.222 98.4314C104.479 103.053 93.9617 106.982 83.2704 103.053C69.9061 98.1425 73.9735 100.742 61.7714 98.4314C52.0097 96.5826 51.4861 88.6099 51.8934 84.277Z" stroke="black" stroke-width="2"/>
<path d="M116.801 42.2823C114.902 40.2495 110.592 38.2167 108.541 46.3479C105.977 56.5118 100.235 79.2126 99.7101 82.0668C98.8554 86.7132 98.5714 98.9099 103.129 91.65C106.775 85.842 111.009 61.4486 112.243 49.8326" stroke="black" stroke-width="2" stroke-linecap="round"/>
<ellipse cx="1.44914" cy="2.31515" rx="1.44914" ry="2.31515" transform="matrix(0.973411 0.229067 -0.229632 0.973278 84.8396 47.9519)" fill="black"/>
<ellipse cx="1.44914" cy="2.31515" rx="1.44914" ry="2.31515" transform="matrix(0.973411 0.229067 -0.229632 0.973278 81.5664 59.7971)" fill="black"/>
<ellipse cx="1.44914" cy="2.31515" rx="1.44914" ry="2.31515" transform="matrix(0.973411 0.229067 -0.229632 0.973278 78.6687 73.687)" fill="black"/>
<ellipse cx="1.44914" cy="2.31515" rx="1.44914" ry="2.31515" transform="matrix(0.973411 0.229067 -0.229632 0.973278 76.3508 88.1558)" fill="black"/>
<path fill-rule="evenodd" clip-rule="evenodd" d="M16.9053 45.5274C15.6947 44.0932 13.3822 45.3151 13.8884 47.1215C14.2876 48.5459 12.8429 49.7881 11.4918 49.183C9.77894 48.4158 8.22557 50.5184 9.46609 51.9261C10.4444 53.0363 9.6825 54.7821 8.20304 54.8223C6.32749 54.8733 5.841 57.4412 7.56942 58.1716C8.93269 58.7477 9.00514 60.651 7.68998 61.3282C6.02258 62.1867 6.70049 64.7113 8.57449 64.6205C10.0526 64.5488 10.9445 66.2324 10.0537 67.4125C8.92422 68.9087 10.6328 70.8887 12.2815 69.995C13.5819 69.29 15.1167 70.4206 14.8267 71.8703C14.459 73.7084 16.8585 74.7513 17.9558 73.2314C18.8214 72.0325 20.6952 72.3855 21.0639 73.8178C21.5314 75.6341 24.1458 75.5344 24.4744 73.6885C24.7335 72.2326 26.5746 71.7385 27.5291 72.8694C28.7397 74.3036 31.0522 73.0817 30.546 71.2753C30.1468 69.8509 31.5916 68.6087 32.9426 69.2138C34.6555 69.981 36.2088 67.8784 34.9683 66.4707C33.99 65.3605 34.7519 63.6147 36.2314 63.5745C38.1069 63.5235 38.5934 60.9556 36.865 60.2252C35.5017 59.6491 35.4293 57.7458 36.7444 57.0686C38.4118 56.2101 37.7339 53.6855 35.8599 53.7763C34.3818 53.848 33.4899 52.1644 34.3808 50.9843C35.5102 49.4881 33.8017 47.5081 32.1529 48.4018C30.8525 49.1068 29.3177 47.9762 29.6077 46.5265C29.9754 44.6884 27.576 43.6455 26.4786 45.1654C25.613 46.3643 23.7392 46.0113 23.3705 44.5789C22.903 42.7627 20.2886 42.8624 19.96 44.7083C19.7009 46.1642 17.8598 46.6583 16.9053 45.5274ZM13.8486 57.5339C13.4355 56.7541 13.7356 55.7933 14.5086 55.3848C15.2817 54.9764 16.2458 55.269 16.659 56.0489C17.0722 56.8288 16.772 57.7896 15.999 58.198C15.226 58.6065 14.2618 58.3138 13.8486 57.5339ZM18.2694 55.198C19.1506 56.8613 18.5148 58.9231 16.8494 59.8031C15.1839 60.6831 13.1194 60.0482 12.2382 58.3849C11.357 56.7216 11.9928 54.6598 13.6583 53.7798C15.3238 52.8997 17.3882 53.5347 18.2694 55.198ZM28.7529 60.0311C27.9799 60.4396 27.6797 61.4003 28.0929 62.1802C28.506 62.9601 29.4702 63.2527 30.2432 62.8443C31.0162 62.4358 31.3164 61.4751 30.9032 60.6952C30.4901 59.9153 29.5259 59.6226 28.7529 60.0311ZM31.0936 64.4494C32.759 63.5693 33.3948 61.5075 32.5136 59.8442C31.6325 58.1809 29.568 57.546 27.9025 58.426C26.2371 59.3061 25.6013 61.3678 26.4825 63.0311C27.3636 64.6944 29.4281 65.3294 31.0936 64.4494ZM24.3642 50.443C24.282 49.0655 23.0974 48.0147 21.7182 48.096C20.3391 48.1772 19.2877 49.3597 19.3699 50.7371L20.3873 67.7858C20.4695 69.1632 21.6541 70.214 23.0332 70.1328C24.4124 70.0516 25.4637 68.8691 25.3815 67.4916L24.3642 50.443Z" fill="black"/>
<path d="M161.051 34.1875C161.051 42.2398 154.436 48.7891 146.249 48.7891C138.063 48.7891 131.448 42.2398 131.448 34.1875C131.448 26.1352 138.063 19.5859 146.249 19.5859C154.436 19.5859 161.051 26.1352 161.051 34.1875Z" stroke="black" stroke-width="2"/>
<path d="M146.249 41.1814V43.3333" stroke="black" stroke-width="2" stroke-linecap="round"/>
<path d="M146.249 27.1937V25.0417" stroke="black" stroke-width="2" stroke-linecap="round"/>
<path d="M150.2 28.1441C149.208 27.6502 147.701 27.1883 146.293 27.1936C144.596 27.2001 143.04 27.8854 142.699 30.0115C142.248 32.8156 145.664 33.8223 147.699 34.8356C150.513 36.2362 150.487 38.8617 148.793 40.1266C148.032 40.6955 147.167 41.0076 146.293 41.1256C145.016 41.298 143.719 41.0555 142.699 40.5934" stroke="black" stroke-width="2" stroke-linecap="round"/>
<path d="M44.1726 144.607C36.1606 147.883 36.2292 158.691 37.4103 164.606C37.5448 165.28 38.0507 165.818 38.7086 166.017C56.3879 171.359 70.2543 163.093 75.7488 157.576C76.2117 157.112 76.3801 156.441 76.1884 155.814C75.2976 152.9 73.279 148.409 71.9894 146.389C67.375 140.005 54.8308 140.249 44.1726 144.607Z" stroke="black" stroke-width="2" stroke-linecap="round"/>
<path d="M76.5932 156.923C84.5558 158.286 92.9235 161.85 90.4203 167.683C87.7267 173.96 62.1405 185.824 42.8398 182.574C33.92 181.236 20.2115 175.154 37.4494 165.71" stroke="black" stroke-width="2" stroke-linecap="round"/>
<path d="M424.449 259.622C428.945 264.188 434.707 274.168 421.801 277.555" stroke="black" stroke-width="2" stroke-linecap="round"/>
<path d="M424.674 269.306C423.907 265.307 420.758 257.764 413.961 255.342C412.844 254.944 411.628 254.684 410.309 254.601" stroke="black" stroke-width="2" stroke-linecap="round"/>
<path d="M416.804 232.006C407.869 237.944 393.195 253.57 405.983 268.568C418.772 283.567 423.772 284.882 424.674 283.664" stroke="black" stroke-width="2" stroke-linecap="round"/>
<path d="M426.828 243.841L413.9 255.318" stroke="black" stroke-width="2" stroke-linecap="round"/>
<path d="M413.9 230.93C414.693 231.019 415.705 231.308 416.841 231.863C419.966 233.388 424.029 236.921 427.049 243.837C427.915 245.821 428.695 248.083 429.342 250.656" stroke="black" stroke-width="2" stroke-linecap="round"/>
<path d="M415.337 227.343C420.988 228.06 432.635 231.36 434.011 238.82" stroke="black" stroke-width="2" stroke-linecap="round"/>
<path d="M417.491 223.488C420.307 222.7 427.194 221.794 432.215 224.474" stroke="black" stroke-width="2" stroke-linecap="round"/>
<path d="M196.987 50.136L219.712 81.8374" stroke="black" stroke-width="2" stroke-linecap="round"/>
<path d="M198.929 79.6179L210.265 89.3347" stroke="black" stroke-width="2" stroke-linecap="round"/>
<path d="M206.762 102.321L174.081 90.3057" stroke="black" stroke-width="2" stroke-linecap="round"/>
<path d="M188.003 115.496L203.387 114.971" stroke="black" stroke-width="2" stroke-linecap="round"/>
<path d="M165.642 137.174L207.629 126.874" stroke="black" stroke-width="2" stroke-linecap="round"/>
<path d="M252.104 115.178C249.954 123.191 246.219 129.922 241.963 134.332C237.683 138.769 233.042 140.71 229 139.628C224.957 138.546 221.91 134.548 220.424 128.568C218.947 122.623 219.082 114.93 221.232 106.916C223.381 98.9028 227.117 92.1726 231.373 87.7622C235.653 83.3256 240.294 81.3846 244.336 82.4663C248.378 83.5476 251.425 87.5463 252.912 93.5258C254.389 99.4709 254.254 107.164 252.104 115.178Z" stroke="black" stroke-width="2"/>
<path d="M233.886 115.872C235.418 116.282 237.285 114.288 238.055 111.418C238.825 108.548 238.207 105.889 236.674 105.479C235.141 105.069 233.275 107.063 232.505 109.933C231.735 112.803 232.353 115.462 233.886 115.872Z" fill="black"/>
<path d="M298.754 133.231C300.757 130.202 301.417 125.156 301.496 123.011L306.362 126.355C307.876 129.582 305.877 131.857 304.689 132.591L298.754 133.231Z" fill="black"/>
<path d="M234.054 139.495L304.688 132.591M306.361 126.355L246.671 83.4619L306.361 126.355Z" stroke="black" stroke-width="2" stroke-linecap="round"/>
<path d="M233.992 114.786L248.415 124.773M236.223 106.472L253.527 105.719L236.223 106.472Z" stroke="black" stroke-width="2" stroke-linecap="round"/>
<path d="M309.82 230.731L295.191 245.461C283.236 256.174 275.344 247.935 270.495 243.527C265.468 236.458 257.567 227.628 257.567 198.082C257.567 179.611 262.056 170.612 280.192 177.426" stroke="black" stroke-width="2" stroke-linecap="round"/>
<path d="M306.361 126.355C306.965 127.569 307.476 130.515 304.688 132.591" stroke="black" stroke-width="2" stroke-linecap="round"/>
<path d="M301.195 122.745C301.289 124.936 300.643 129.652 298.407 133.138" stroke="black" stroke-width="2" stroke-linecap="round"/>
<path d="M339.986 155.402C327.596 155.402 299.584 161.858 288.093 188.219" stroke="black" stroke-width="2" stroke-linecap="round"/>
<path d="M256.21 156.378C255.391 157.426 254.503 159.99 256.966 162.348C257.148 162.523 257.349 162.696 257.57 162.868C260.768 165.358 262.342 163.093 262.729 161.65" stroke="black" stroke-width="2" stroke-linecap="round"/>
<path d="M265.98 157.154C266.945 159.654 265.072 160.309 264.015 160.323C263.764 160.294 263.463 160.247 263.124 160.179C261.271 159.808 258.316 158.82 256.582 156.849C256.439 156.687 256.316 156.53 256.21 156.378C254.792 154.342 256.524 153.197 257.651 152.865" stroke="black" stroke-width="2" stroke-linecap="round"/>
<path d="M259.506 148.72C258.462 148.688 256.529 149.148 257.156 151.247C257.782 153.345 263.072 155.986 265.638 157.044C265.75 157.087 265.865 157.123 265.981 157.154C267.031 157.431 268.201 157.193 268.578 155.789C269.11 153.804 266.747 152.452 266.199 152.182" stroke="black" stroke-width="2" stroke-linecap="round"/>
<path d="M267.157 144.455C266.066 144.596 264.817 145.834 266.841 147.712C268.865 149.591 267.843 151.136 267.079 151.674C265.937 152.235 262.778 152.046 259.278 146.802C255.777 141.558 263.976 141.066 268.514 141.476" stroke="black" stroke-width="2" stroke-linecap="round"/>
<path d="M275.928 151.258C274.38 149.173 271.138 145.966 270.551 149.819C269.963 153.672 272.174 156.009 273.353 156.696" stroke="black" stroke-width="2" stroke-linecap="round"/>
<path d="M271.928 168.938C271.151 167.679 270.243 163.995 272.83 159.34" stroke="black" stroke-width="2" stroke-linecap="round"/>
<path d="M271.609 136.177L267.154 147.239" stroke="black" stroke-width="2" stroke-linecap="round"/>
<path d="M275.51 152.817L284.044 134.864" stroke="black" stroke-width="2" stroke-linecap="round"/>
<path d="M259.855 166.822C258.972 170.113 256.249 174.026 259.439 175.993C263.334 178.396 264.819 174.648 266.755 170.896L272.217 159.547" stroke="black" stroke-width="2" stroke-linecap="round"/>
<path d="M278.755 148.587C280.671 155.342 280.731 169.177 280.731 196.614" stroke="black" stroke-width="2" stroke-linecap="round"/>
<path d="M397.824 219.96C406.604 240.942 394.573 259.412 397.824 294.382C376.037 300.837 327.831 308.262 309.301 286.312C308.462 282.486 309.301 260.847 309.301 246.859" stroke="black" stroke-width="2" stroke-linecap="round"/>
<path d="M379.329 188.578L376.445 184.157C373.634 179.849 368.164 178.129 363.389 180.052L356.516 182.819C352.229 184.546 347.316 183.348 344.307 179.843L336.413 170.645" stroke="black" stroke-width="2" stroke-linecap="round"/>
<path d="M339.646 156.089C338.03 151.426 339.502 148.288 340.938 147.691C349.557 155.581 362.63 152.652 367.478 147.87C369.201 149.448 368.196 154.116 367.478 155.551C358.14 165.88 344.853 160.093 339.646 156.089Z" fill="black"/>
<path d="M314.887 82.7811C318.837 96.9481 320.813 98.2034 326.559 104.48C326.559 98.2769 327.625 87.8655 327.625 83.53C346.44 83.53 362.318 75.8596 367.905 72.0245C367.705 85.0306 379.914 93.5348 379.914 93.5348C379.914 93.5348 378.163 98.7873 377.162 110.543C376.361 119.947 378.663 118.13 379.914 116.046C383.517 104.44 389.421 107.541 391.923 110.543C422.624 60.7239 375.411 51.0978 366.404 52.0149C359.599 46.2121 350.109 41.6647 343.437 40.9977C319.376 38.5923 308.481 59.8101 314.887 82.7811Z" fill="black"/>
<path d="M379.493 124.912C376.261 144.619 354.567 158.789 338.912 142.826C323.257 126.862 326.389 97.6416 328.062 84.0059" stroke="black" stroke-width="2" stroke-linecap="round"/>
<path d="M392.277 109.322C394.253 114.163 392.4 124.893 379.493 124.893" stroke="black" stroke-width="2" stroke-linecap="round"/>
<path d="M386.585 111.981C386.87 113.017 386.642 115.472 383.443 117.002" stroke="black" stroke-width="2" stroke-linecap="round"/>
<path d="M328.498 122.382C324.285 120.628 321.315 114.133 322.458 103.732" stroke="black" stroke-width="2" stroke-linecap="round"/>
<path d="M337.949 109.766C336.752 109.286 336.285 107.648 336.905 106.107C337.525 104.566 338.997 103.706 340.193 104.186C341.389 104.666 341.857 106.304 341.237 107.845C340.617 109.386 339.145 110.246 337.949 109.766Z" fill="black"/>
<path d="M359.914 110.384C358.7 109.95 358.135 108.431 358.651 106.991C359.167 105.551 360.569 104.735 361.783 105.169C362.997 105.603 363.562 107.122 363.046 108.562C362.53 110.002 361.128 110.818 359.914 110.384Z" fill="black"/>
<path d="M369.437 103.373C368.87 101.707 366.425 98.6236 361.177 99.6235" stroke="black" stroke-width="2" stroke-linecap="round"/>
<path d="M344.299 100.145C343.047 99.063 339.643 97.5473 336.039 100.145" stroke="black" stroke-width="2" stroke-linecap="round"/>
<path d="M347.458 107.91C347.04 111.452 344.295 119.029 348.964 119.029" stroke="black" stroke-width="2" stroke-linecap="round"/>
<path d="M367.997 154.146C403.73 154.146 448.441 191.626 434.503 238.431" stroke="black" stroke-width="2" stroke-linecap="round"/>
<path d="M394.687 206.003C396.303 207.736 399.894 212.53 401.331 217.839C402.767 223.147 406.837 226.865 408.693 228.06" stroke="black" stroke-width="2" stroke-linecap="round"/>
<path d="M114.726 156.385C115.111 167.661 125.455 173.577 132.224 175.692C133.064 175.954 133.268 177.111 132.539 177.605C121.566 185.035 117.166 188.205 119.035 205.342C120.615 219.832 99.5827 221.063 88.8689 219.868C77.1974 219.15 49.904 217.644 34.1026 217.357C18.3011 217.07 10.999 199.305 9.32305 190.458C8.6048 183.882 6.70145 163.81 4.83401 136.121C2.49971 101.511 52.2383 105.635 87.0733 111.374C121.908 117.112 114.187 140.604 114.726 156.385Z" stroke="black" stroke-width="2" stroke-linecap="round"/>
<path d="M21.9928 32.7529C21.6935 21.3356 29.821 0.437726 56.1089 1.01158C88.9686 1.72889 126.677 2.80486 136.732 21.455" stroke="black" stroke-width="2" stroke-linecap="round"/>
<path d="M20.9152 82.7856C19.8378 90.4968 20.484 107.605 23.0697 110.761" stroke="black" stroke-width="2" stroke-linecap="round"/>
<path d="M117.16 143.937C124.403 146.268 139.175 146.662 140.324 129.59C141.225 116.204 145.939 108.999 149.634 105.849C150.383 105.212 150.27 103.265 149.51 102.641C147.271 100.801 145.117 97.1774 145.711 90.8553C146.788 79.3783 148.225 58.0382 145.711 48.7131" stroke="black" stroke-width="2" stroke-linecap="round"/>
<path d="M353.359 131.845C353.103 133.271 352.507 134.454 351.797 135.221C351.079 135.997 350.342 136.259 349.741 136.151C349.14 136.044 348.541 135.543 348.136 134.567C347.737 133.601 347.589 132.285 347.844 130.859C348.1 129.433 348.696 128.25 349.406 127.483C350.124 126.708 350.861 126.445 351.462 126.553C352.063 126.66 352.662 127.161 353.067 128.138C353.466 129.103 353.614 130.419 353.359 131.845Z" stroke="black" stroke-width="2"/>
</svg>
