<svg width="187" height="100" viewBox="0 0 187 100" fill="none" xmlns="http://www.w3.org/2000/svg">
<path d="M66.8852 87.4102C66.8852 93.796 61.6195 99.0002 55.0898 99.0002C48.5601 99.0002 43.2944 93.796 43.2944 87.4102C43.2944 81.0245 48.5601 75.8203 55.0898 75.8203C61.6195 75.8203 66.8852 81.0245 66.8852 87.4102Z" stroke="black" stroke-width="2"/>
<path d="M55.2104 93.1335L55.2106 94.5724" stroke="black" stroke-width="2" stroke-linecap="round"/>
<path d="M55.2095 81.6228L55.2092 79.8242" stroke="black" stroke-width="2" stroke-linecap="round"/>
<path d="M58.093 82.4045C57.3343 81.9982 56.1824 81.6182 55.1055 81.6227C53.8075 81.6282 52.6182 82.1923 52.3572 83.942C52.0129 86.2496 54.6253 87.0777 56.1816 87.9113C58.3329 89.0637 58.3136 91.2243 57.0186 92.2654C56.4362 92.7336 55.775 92.9906 55.1069 93.0877C54.1301 93.2297 53.1389 93.0302 52.3583 92.6501" stroke="black" stroke-width="2" stroke-linecap="round"/>
<path d="M83.0242 93.1335L83.0243 94.5724" stroke="black" stroke-width="2" stroke-linecap="round"/>
<path d="M83.0232 81.6228L83.0229 79.8242" stroke="black" stroke-width="2" stroke-linecap="round"/>
<path d="M85.9069 82.4045C85.1482 81.9982 83.9964 81.6182 82.9194 81.6227C81.6214 81.6282 80.4322 82.1923 80.1711 83.942C79.8268 86.2496 82.4392 87.0777 83.9955 87.9113C86.1469 89.0637 86.1276 91.2243 84.8326 92.2654C84.2502 92.7336 83.5889 92.9906 82.9208 93.0877C81.9441 93.2297 80.9528 93.0302 80.1722 92.6501" stroke="black" stroke-width="2" stroke-linecap="round"/>
<path d="M110.838 93.1335L110.839 94.5724" stroke="black" stroke-width="2" stroke-linecap="round"/>
<path d="M110.837 81.6228L110.837 79.8242" stroke="black" stroke-width="2" stroke-linecap="round"/>
<path d="M113.721 82.4045C112.962 81.9982 111.81 81.6182 110.733 81.6227C109.435 81.6282 108.246 82.1923 107.985 83.942C107.641 86.2496 110.253 87.0777 111.81 87.9113C113.961 89.0637 113.942 91.2243 112.647 92.2654C112.064 92.7336 111.403 92.9906 110.735 93.0877C109.758 93.2297 108.767 93.0302 107.986 92.6501" stroke="black" stroke-width="2" stroke-linecap="round"/>
<path d="M138.652 93.1335L138.652 94.5724" stroke="black" stroke-width="2" stroke-linecap="round"/>
<path d="M138.651 81.6228L138.651 79.8242" stroke="black" stroke-width="2" stroke-linecap="round"/>
<path d="M141.535 82.4045C140.776 81.9982 139.624 81.6182 138.547 81.6227C137.249 81.6282 136.06 82.1923 135.799 83.942C135.455 86.2496 138.067 87.0777 139.623 87.9113C141.775 89.0637 141.755 91.2243 140.46 92.2654C139.878 92.7336 139.217 92.9906 138.549 93.0877C137.572 93.2297 136.581 93.0302 135.8 92.6501" stroke="black" stroke-width="2" stroke-linecap="round"/>
<path d="M94.6384 87.2303C94.6384 93.6161 89.3727 98.8202 82.843 98.8202C76.3133 98.8202 71.0476 93.6161 71.0476 87.2303C71.0476 80.8446 76.3133 75.6404 82.843 75.6404C89.3727 75.6404 94.6384 80.8446 94.6384 87.2303Z" stroke="black" stroke-width="2"/>
<path d="M122.392 87.2303C122.392 93.6161 117.126 98.8202 110.596 98.8202C104.067 98.8202 98.801 93.6161 98.801 87.2303C98.801 80.8446 104.067 75.6404 110.596 75.6404C117.126 75.6404 122.392 80.8446 122.392 87.2303Z" stroke="black" stroke-width="2"/>
<path d="M150.145 87.2303C150.145 93.6161 144.88 98.8202 138.35 98.8202C131.82 98.8202 126.554 93.6161 126.554 87.2303C126.554 80.8446 131.82 75.6404 138.35 75.6404C144.88 75.6404 150.145 80.8446 150.145 87.2303Z" stroke="black" stroke-width="2"/>
<path d="M27.5166 68.3453C26.7957 68.2254 24.3087 66.8345 20.1277 62.2302" stroke="black" stroke-width="2" stroke-linecap="round"/>
<path d="M23.1914 77.1584C18.0252 74.8803 6.46732 67.734 1.56543 57.3743" stroke="black" stroke-width="2" stroke-linecap="round"/>
<path d="M24.8134 91.5468C21.2692 90.5876 12.6668 86.7626 6.61157 79.1367" stroke="black" stroke-width="2" stroke-linecap="round"/>
<path d="M159.796 64.2089C160.516 64.089 163.003 62.6981 167.184 58.0938" stroke="black" stroke-width="2" stroke-linecap="round"/>
<path d="M164.121 73.0217C169.287 70.7435 180.845 63.5973 185.747 53.2375" stroke="black" stroke-width="2" stroke-linecap="round"/>
<path d="M162.499 87.4101C166.043 86.4508 174.645 82.6259 180.701 75" stroke="black" stroke-width="2" stroke-linecap="round"/>
<path d="M82.843 10.7913V74.6402" stroke="black" stroke-width="2" stroke-linecap="round"/>
<path d="M55.27 10.9714V74.8204" stroke="black" stroke-width="2" stroke-linecap="round"/>
<path d="M110.056 10.7913V74.6402" stroke="black" stroke-width="2" stroke-linecap="round"/>
<path d="M138.17 10.7913V74.6402" stroke="black" stroke-width="2" stroke-linecap="round"/>
<path d="M34.7253 0H145.04C151.199 0 156.191 4.99251 156.191 11.1511H45.8764C39.7178 11.1511 34.7253 6.15857 34.7253 0Z" fill="black"/>
</svg>
