<svg width="155" height="152" viewBox="0 0 155 152" fill="none" xmlns="http://www.w3.org/2000/svg">
<path d="M153.938 140.272C146.331 147.697 123.389 158.658 92.4727 143.098C53.828 123.648 129.119 111.679 131.284 110.681C133.449 109.684 154.604 108.853 137.947 88.2391C121.29 67.6255 110.462 61.8071 121.956 38.2012C133.449 14.5952 109.629 -13.0004 80.1462 9.10935" stroke="black" stroke-width="2" stroke-linecap="round" stroke-dasharray="0 4"/>
<path d="M45.4993 68.0422C36.4388 63.7466 30.1747 54.53 30.1747 43.8533C30.1747 29.0717 42.1816 17.0889 56.9928 17.0889C71.804 17.0889 83.8109 29.0717 83.8109 43.8533C83.8109 55.5481 76.2952 65.491 65.8211 69.1337" stroke="black" stroke-width="2" stroke-linecap="round"/>
<path d="M45.3328 73.4047C33.53 68.7626 25.1776 57.2814 25.1776 43.8532C25.1776 26.3173 39.4218 12.1016 56.9929 12.1016C74.564 12.1016 88.8081 26.3173 88.8081 43.8532C88.8081 58.3926 79.0161 70.6495 65.6546 74.4139" stroke="black" stroke-width="2" stroke-linecap="round"/>
<path d="M73.9831 23.9045C68.4887 26.8481 62.1392 26.2613 60.063 22.4015C57.9868 18.5416 60.7578 13.0263 66.2522 10.0827C71.7467 7.13912 77.8839 7.88188 79.96 11.7417C81.3028 14.238 80.6181 17.4267 78.4806 20.1643" stroke="black" stroke-width="2" stroke-linecap="round"/>
<path d="M49.9968 41.499C42.9585 41.869 36.3184 42.964 30.3413 44.6423" stroke="black" stroke-width="2" stroke-linecap="round"/>
<path d="M25.1775 46.2959C10.904 51.4673 1.52429 60.2076 1.52429 70.119C1.52429 86.0024 25.6126 98.8784 55.3271 98.8784C85.0415 98.8784 109.13 86.0024 109.13 70.119C109.13 61.0011 101.192 52.8742 88.8081 47.6052" stroke="black" stroke-width="2" stroke-linecap="round"/>
<path d="M61.6569 41.5569C69.6799 42.0595 77.1634 43.5056 83.7084 45.6822" stroke="black" stroke-width="2" stroke-linecap="round"/>
<path d="M63.2117 77.0631C58.175 79.7084 52.2519 78.5854 48.4092 77.0723C46.8577 76.4613 45.9162 74.9395 45.8457 73.2735C45.2581 59.3864 47.4154 37.4634 56.1598 38.8659C66.2866 40.4901 66.4498 61.999 65.2292 73.8504C65.0913 75.189 64.4032 76.4373 63.2117 77.0631Z" stroke="black" stroke-width="2" stroke-linecap="round"/>
<path d="M6.02159 113.341C0.158252 105.761 7.68731 101.538 12.1848 100.375C14.85 115.336 43.5004 122.603 58.1588 122.318C47.8313 123.315 13.3508 122.817 6.02159 113.341Z" fill="black"/>
<path d="M2.35718 75.1062L14.1373 105.544C14.3877 106.191 14.7562 106.774 15.2638 107.246C27.2501 118.407 62.8072 133.202 96.0447 109.119C96.8623 108.527 97.4745 107.675 97.7943 106.717L108.297 75.2724" stroke="black" stroke-width="2" stroke-linecap="round"/>
</svg>
