<svg width="103" height="152" viewBox="0 0 103 152" fill="none" xmlns="http://www.w3.org/2000/svg">
<path d="M10.0923 92.2526C14.6363 89.4905 27.7642 84.2877 43.9242 85.574" stroke="black" stroke-width="2" stroke-linecap="round"/>
<path d="M42.3131 90.5212C38.7192 92.8299 37.4803 99.5498 50.3685 99.5498L61.1491 98.0991C61.3125 98.0771 61.4778 98.0944 61.6306 98.1561C65.1863 99.5913 69.6993 103.832 63.4095 112.768C63.239 113.01 63.178 113.32 63.2325 113.611C63.8532 116.929 62.443 121.083 59.507 123.15C59.3672 123.248 59.2508 123.374 59.1693 123.525C58.2225 125.271 55.9418 128.813 52.9712 129.49C52.4327 129.613 51.9789 130.06 51.7954 130.581C51.0397 132.726 48.05 135.361 44.5439 135.788C39.463 136.406 15.793 127.501 1.5415 118.596" stroke="black" stroke-width="2" stroke-linecap="round"/>
<path d="M62.1416 94.1079C65.6942 94.5202 72.0557 97.0762 69.0815 104.002" stroke="black" stroke-width="2" stroke-linecap="round"/>
<path d="M5.13525 147.413C9.80315 145.435 20.3286 139.622 25.0874 132.201" stroke="black" stroke-width="2" stroke-linecap="round"/>
<path d="M15.1733 151L25.2114 132.201" stroke="black" stroke-width="2" stroke-linecap="round"/>
<path d="M21.7072 150.876C21.3767 148.238 21.7815 141.007 26.0446 133.19" stroke="black" stroke-width="2" stroke-linecap="round"/>
<path d="M44.7917 96.5815C46.692 93.1597 46.8489 83.6695 48.1378 74.072" stroke="black" stroke-width="2" stroke-linecap="round"/>
<path d="M45.5354 97.3235C47.0638 94.3139 51.236 87.5776 55.6974 84.7083" stroke="black" stroke-width="2" stroke-linecap="round"/>
<path d="M45.6592 96.8289C47.4355 95.0149 54.681 91.5354 61.026 88.1714" stroke="black" stroke-width="2" stroke-linecap="round"/>
<path d="M40.3306 67.6406V69.3721" stroke="black" stroke-width="2" stroke-linecap="round"/>
<path d="M40.3306 55.5201V53.7886" stroke="black" stroke-width="2" stroke-linecap="round"/>
<path d="M43.5525 56.3439C42.7374 55.9159 41.4998 55.5157 40.3427 55.5203C38.9481 55.5259 37.6702 56.1197 37.3895 57.962C37.0192 60.3918 39.826 61.2641 41.4981 62.1421C43.8095 63.3558 43.7884 65.6309 42.3969 66.7269C41.7711 67.2199 41.0605 67.4903 40.3427 67.5925C39.2932 67.742 38.2281 67.5318 37.3895 67.1314" stroke="black" stroke-width="2" stroke-linecap="round"/>
<path d="M49.0054 49.2125C44.4614 50.5317 33.9855 51.8592 28.4336 46.6152" stroke="black" stroke-width="2" stroke-linecap="round"/>
<path d="M48.5097 71.1036C44.2962 71.8869 34.4317 72.2909 31.6558 67.6406" stroke="black" stroke-width="2" stroke-linecap="round"/>
<path d="M52.7233 46.6154V71.737C52.7233 72.1082 52.5207 72.4494 52.1872 72.6122C47.5334 74.8834 37.9132 77.447 32.3495 71.4466C32.2196 71.3064 32.1361 71.127 32.107 70.9381L26.6987 35.7317" stroke="black" stroke-width="2" stroke-linecap="round"/>
<path d="M49.8721 45.0074C43.2214 46.8213 29.3251 47.753 26.9457 36.9683C24.5663 26.1835 36.7366 19.5702 46.4021 19.2823C51.9375 19.1174 62.3886 21.4095 59.9101 31.8975C58.407 36.2102 51.0358 40.9778 43.7997 39.2394M43.7997 39.2394C41.5105 38.6895 39.2349 37.4884 37.1629 35.416C37.1262 35.3792 37.0917 35.3392 37.0629 35.296C34.9714 32.1591 41.7964 24.2962 49.8721 27.1977C55.7699 29.3167 49.8866 32.3321 44.5966 33.5775C44.1339 33.6864 43.7997 34.0941 43.7997 34.5694V39.2394Z" stroke="black" stroke-width="2" stroke-linecap="round"/>
<path d="M36.8604 34.866L37.2321 45.3786" stroke="black" stroke-width="2" stroke-linecap="round"/>
<path d="M52.2275 29.7952V37.9579" stroke="black" stroke-width="2" stroke-linecap="round"/>
<path d="M64.0435 81.7839L63.1331 82.798" stroke="black" stroke-width="2" stroke-linecap="round"/>
<path d="M70.4163 74.6855L71.3267 73.6714" stroke="black" stroke-width="2" stroke-linecap="round"/>
<path d="M71.8707 76.8552C71.6184 76.1777 71.104 75.2952 70.4239 74.6919C69.6041 73.9648 68.5436 73.6434 67.4105 74.5754C65.9161 75.8046 67.1013 77.7853 67.6189 79.1751C68.3345 81.0964 67.126 82.4178 65.7348 82.331C65.1091 82.292 64.5507 82.0783 64.0766 81.7622C63.3833 81.3001 62.8701 80.6193 62.5894 79.9456" stroke="black" stroke-width="2" stroke-linecap="round"/>
<path d="M57.0605 78.4009C58.0933 81.6165 61.9928 88.0231 69.3293 87.9241" stroke="black" stroke-width="2" stroke-linecap="round"/>
<path d="M63.7524 61.7041C65.6113 66.6512 72.9726 76.3724 87.5463 75.6798" stroke="black" stroke-width="2" stroke-linecap="round"/>
<path d="M54.1771 78.7232C56.9941 88.4208 65.7159 90.7091 70.0361 90.6524C70.2241 90.6499 70.4031 90.5889 70.5584 90.4829L95.023 73.783C95.9166 73.173 95.3163 71.6885 94.2409 71.807C75.101 73.9144 67.5823 64.9666 65.4363 57.0254C65.1424 55.9381 63.0037 55.635 62.5929 56.6837L54.2071 78.0927C54.1288 78.2928 54.1172 78.5168 54.1771 78.7232Z" stroke="black" stroke-width="2" stroke-linecap="round"/>
<path d="M64.4961 52.5517C65.4875 47.1099 71.436 37.5619 87.2985 42.9048C103.161 48.2477 102.252 58.9006 99.8151 63.5591C98.2622 66.5274 85.483 69.4733 77.3844 61.2092C66.355 49.9545 80.4985 45.6258 87.6703 50.2019C93.7179 54.0606 93.9079 57.4577 92.7513 59.3541C91.5541 60.8748 87.7759 61.1553 84.9428 59.274C84.3618 58.8882 83.5207 59.0407 83.2316 59.6754L81.9697 62.446" stroke="black" stroke-width="2" stroke-linecap="round"/>
<path d="M99.3193 64.3015L94.8579 71.5985" stroke="black" stroke-width="2" stroke-linecap="round"/>
<path d="M89.7771 66.6514L92.7513 59.478" stroke="black" stroke-width="2" stroke-linecap="round"/>
<path d="M67.5942 61.7043L73.1709 53.5415" stroke="black" stroke-width="2" stroke-linecap="round"/>
<path d="M77.7788 31.9325L78.209 30.2551" stroke="black" stroke-width="2" stroke-linecap="round"/>
<path d="M80.6954 33.5279C80.012 32.9116 78.9126 32.2175 77.7904 31.9357C76.4379 31.5959 75.0525 31.8549 74.3228 33.5702C73.3603 35.8326 75.8627 37.3722 77.2644 38.6366C78.1202 39.4085 78.4838 40.2685 78.4834 41.0499" stroke="black" stroke-width="2" stroke-linecap="round"/>
<path d="M67.7182 45.8732C66.6855 45.3785 64.5457 43.6965 64.2483 40.9261V18.833C64.2483 17.7701 65.9536 17.2924 66.6285 18.1136C70.8916 23.3006 79.414 28.7161 92.1317 24.3532C96.4691 22.4568 103.632 16.5862 97.5845 8.27496C91.5369 -0.0362347 79.6152 0.441988 74.4102 1.72C70.5272 3.13149 64.8927 7.95218 73.4188 15.943C75.1537 17.3615 78.1218 19.1114 81.3501 19.7123M81.3501 19.7123C84.502 20.2989 87.9019 19.7903 90.6446 16.8087C96.1965 10.7732 86.555 6.27752 81.2262 6.54343C76.3823 6.78514 70.0001 9.79032 81.2745 13.3433C81.7403 13.49 82.0505 13.9482 81.9916 14.433L81.3501 19.7123Z" stroke="black" stroke-width="2" stroke-linecap="round"/>
<path d="M75.0297 9.88281L74.0383 16.3141" stroke="black" stroke-width="2" stroke-linecap="round"/>
<path d="M67.7183 24.6006C71.4361 27.5689 81.3254 32.4913 91.1403 28.4346" stroke="black" stroke-width="2" stroke-linecap="round"/>
<path d="M98.4517 19.406L86.6787 42.4102" stroke="black" stroke-width="2" stroke-linecap="round"/>
<path d="M91.8837 14.8301L89.9009 24.9717" stroke="black" stroke-width="2" stroke-linecap="round"/>
<path d="M59.9107 31.8977L59.415 60.9621" stroke="black" stroke-width="2" stroke-linecap="round"/>
<path d="M68.9575 8.15137L68.5857 20.0245" stroke="black" stroke-width="2" stroke-linecap="round"/>
</svg>
