<svg width="24" height="24" viewBox="0 0 24 24" fill="none" xmlns="http://www.w3.org/2000/svg">
<path d="M12.5714 7L11.9345 12.0156M11.9345 12.0156L11.928 12.0672M11.9345 12.0156L11.9099 12.0483M11.9345 12.0156L14.0952 9.14286M11.928 12.0672L11.9184 12.1429M11.928 12.0672L11.9099 12.0483M11.928 12.0672L12 12.1429M11.9184 12.1429L11.4286 16M11.9184 12.1429H11.8388M11.9184 12.1429H12M8 12.1429H11.8388M11.8388 12.1429L9.90476 14.7143M11.8388 12.1429L11.9099 12.0483M12 12.1429H16M12 12.1429L14.8571 15.1429M9.14286 9.14286L11.9099 12.0483" stroke="black" stroke-linecap="round"/>
<path d="M6.44441 2C5.40738 2.2648 3.3333 3.35045 3.3333 5.57473C3.3333 8.10294 3.01175 11.288 1.49147 12.1435C1.30782 12.2469 1.24021 12.5322 1.38953 12.6809C1.97224 13.2612 2.62894 14.1407 2.94441 15.1074C3.3333 16.2989 3.3333 23.0512 7.99997 21.8596M18.3333 2C19.2222 2.2648 21 3.35045 21 5.57473C21 8.10379 21.2758 11.2901 22.58 12.1444C22.7458 12.253 22.8136 12.5109 22.6836 12.6606C22.1798 13.2406 21.6069 14.1294 21.3333 15.1074C21 16.2989 21 23.0512 17 21.8596" stroke="#2563EB" stroke-linecap="round"/>
</svg>
