<svg width="24" height="24" viewBox="0 0 24 24" fill="none" xmlns="http://www.w3.org/2000/svg">
<path d="M3.30224 6.94833L8.16345 13.2354M3.30224 6.94833C3.35763 6.6733 3.42381 6.40945 3.5 6.15645M3.30224 6.94833C3.22973 7.34952 3.16618 7.68519 3.11193 8M8.16345 17.5376C7.69699 17.3942 7.09215 17.0919 6.65054 16.6244M8.16345 17.5376L2.81414 15.5M8.16345 17.5376C8.13388 17.6905 8.14565 17.8449 8.19016 18M9.30996 13.7872C9.53226 13.8796 9.81967 13.8557 10.1513 13.7355M9.30996 13.7872L3.78471 5.36542M9.30996 13.7872C9.09753 13.63 8.89297 13.5088 8.69767 13.4179M14.8343 1.74773C15.219 1.92713 15.5532 2.13319 15.8222 2.35957C16.5386 3.23482 16.6234 4.4302 16.315 5.72034M14.8343 1.74773C15.2662 2.47871 16.1669 4.29661 16.315 5.72034M14.8343 1.74773C14.4908 1.58749 14.1071 1.44852 13.694 1.33531M16.315 5.72034C16.235 6.05477 16.1286 6.39557 16 6.73881M16 6.73881L13.694 1.33531M16 6.73881C15.8913 7.02899 15.7666 7.32092 15.6285 7.61221M13.694 1.33531C13.3783 1.24883 13.0455 1.17738 12.7002 1.12299M12.7002 1.12299L15.6285 7.61221M12.7002 1.12299C12.3864 1.07355 12.0624 1.03819 11.7316 1.01843M15.6285 7.61221C15.5323 7.81526 15.4295 8.018 15.3211 8.21964M15.3211 8.21964L11.7316 1.01843M15.3211 8.21964C15.1692 8.50217 15.0062 8.78252 14.8343 9.05849M11.7316 1.01843C11.3941 0.998262 11.0497 0.994323 10.7021 1.00821M10.7021 1.00821L14.8343 9.05849M10.7021 1.00821C10.416 1.01965 10.1277 1.04317 9.83936 1.07966M14.8343 9.05849C14.7262 9.23221 14.6145 9.4042 14.5 9.57391M14.5 9.57391L9.83936 1.07966M14.5 9.57391C14.3707 9.76546 14.2377 9.9541 14.1019 10.139M9.83936 1.07966C9.55895 1.11516 9.27852 1.16293 9 1.22379M9 1.22379L14.1019 10.139M9 1.22379C8.84796 1.25702 8.69649 1.29415 8.54591 1.33531M14.1019 10.139C14.0123 10.261 13.9214 10.3814 13.8296 10.5M13.4272 11L8.01162 1.5M13.4272 11C13.243 11.2205 13.0562 11.4328 12.8687 11.635M13.4272 11C13.563 10.8376 13.6973 10.6707 13.8296 10.5M8.01162 1.5C7.71598 1.60184 7.42539 1.72041 7.14239 1.8568M8.01162 1.5C8.1881 1.43921 8.36637 1.38439 8.54591 1.33531M7.14239 1.8568L12.8687 11.635M7.14239 1.8568C6.92769 1.96027 6.71735 2.07399 6.51248 2.19843M12.8687 11.635C12.6927 11.8248 12.5161 12.0058 12.3404 12.1766M12.3404 12.1766L6.51248 2.19843M12.3404 12.1766C12.1912 12.3217 12.0426 12.4594 11.8955 12.5888M6.51248 2.19843C6.26267 2.35017 6.02098 2.51784 5.78943 2.70229M5.78943 2.70229L11.8955 12.5888M5.78943 2.70229C5.56426 2.88166 5.34867 3.0769 5.1445 3.28877M11.8955 12.5888C11.7271 12.7371 11.5606 12.8746 11.3976 13M11.3976 13L5.1445 3.28877M11.3976 13C11.1897 13.1599 10.9873 13.3001 10.7934 13.4179M5.1445 3.28877C4.93347 3.50778 4.73463 3.74457 4.55004 4M4.55004 4L10.7934 13.4179M4.55004 4C4.40655 4.19854 4.27166 4.40835 4.14633 4.62982M10.7934 13.4179C10.5664 13.5558 10.3508 13.6631 10.1513 13.7355M10.1513 13.7355L4.14633 4.62982M4.14633 4.62982C4.01492 4.86204 3.89401 5.10708 3.78471 5.36542M3.78471 5.36542C3.67852 5.61641 3.58328 5.87995 3.5 6.15645M8.16345 13.2354C8.33223 13.2717 8.51071 13.3309 8.69767 13.4179M8.16345 13.2354C7.85502 13.1691 7.57899 13.1791 7.34277 13.2354M3.5 6.15645L8.69767 13.4179M7.34277 13.2354L3.11193 8M7.34277 13.2354C7.104 13.2923 6.90591 13.3965 6.75618 13.5168M3.11193 8C3.04246 8.40321 2.98826 8.77219 2.95008 9.20071M2.95008 9.20071L6.75618 13.5168M2.95008 9.20071C2.92332 9.50098 2.90444 9.83049 2.89367 10.2215M6.75618 13.5168C6.64946 13.6025 6.5673 13.6964 6.51248 13.7872C6.46905 13.8592 6.42907 13.9301 6.3924 14M6.3924 14L2.89367 10.2215M6.3924 14C6.26574 14.2414 6.17857 14.4703 6.1251 14.687M2.89367 10.2215C2.88622 10.4924 2.88266 10.7929 2.88309 11.1336M2.88309 11.1336L6.1251 14.687M2.88309 11.1336C2.88354 11.4975 2.88855 11.9073 2.8982 12.3762M6.1251 14.687C6.07682 14.8827 6.05601 15.0683 6.05839 15.244M6.05839 15.244L2.8982 12.3762M6.05839 15.244C6.06276 15.5653 6.14474 15.8534 6.27817 16.1087M2.8982 12.3762C2.90476 12.6948 2.91347 13.0407 2.92436 13.4179M2.92436 13.4179C2.92782 13.5378 2.93151 13.6609 2.93541 13.7872C2.94053 13.9532 2.9483 14.1573 2.94409 14.3887M2.92436 13.4179L6.27817 16.1087M6.27817 16.1087C6.37741 16.2987 6.50513 16.4705 6.65054 16.6244M6.65054 16.6244L2.94409 14.3887M2.94409 14.3887C2.93815 14.7147 2.90845 15.0949 2.81414 15.5M2.81414 15.5C2.74704 15.7882 2.64723 16.0889 2.5 16.3915M2.5 16.3915L8.19016 18M2.5 16.3915C2.3774 16.6435 2.22191 16.8968 2.02505 17.1452M8.19016 18C8.2332 18.15 8.30687 18.3007 8.40339 18.4516M8.40339 18.4516L2.02505 17.1452M8.40339 18.4516C8.5205 18.6346 8.67125 18.8177 8.84176 19M2.02505 17.1452C1.87524 17.3342 1.70147 17.5204 1.5 17.7011M1.5 17.7011C1.44548 17.75 1.38893 17.7984 1.33028 17.8465C1.12441 18.015 1.0202 18.2206 1.00267 18.4516M1.5 17.7011L8.84176 19M8.84176 19C8.98643 19.1546 9.14532 19.3086 9.30996 19.4613M9.30996 19.4613L1.00267 18.4516M9.30996 19.4613C9.45658 19.5972 9.60776 19.7321 9.75752 19.8655M1.00267 18.4516C0.985558 18.6771 1.05111 18.9267 1.18537 19.1895M1.18537 19.1895L9.75752 19.8655M1.18537 19.1895C1.33122 19.4751 1.55815 19.7762 1.84827 20.0789M9.75752 19.8655C9.89134 19.9847 10.024 20.1027 10.1513 20.2192M10.1513 20.2192L1.84827 20.0789M10.1513 20.2192C10.3211 20.3745 10.4812 20.5271 10.6216 20.6762M1.84827 20.0789C2.03971 20.2787 2.25867 20.4791 2.5 20.6762M2.5 20.6762H10.6216M2.5 20.6762C2.78399 20.9082 3.09896 21.1355 3.43655 21.3517M10.6216 20.6762C10.7251 20.7862 10.8179 20.8942 10.8958 21M10.8958 21L3.43655 21.3517M10.8958 21C11.0031 21.1456 11.0823 21.287 11.1229 21.4233M3.43655 21.3517C3.7158 21.5305 4.01052 21.7017 4.31598 21.8616M4.31598 21.8616L11.1229 21.4233M4.31598 21.8616C4.89151 22.1627 5.50512 22.4236 6.1251 22.6194M11.1229 21.4233C11.1683 21.5762 11.1652 21.7226 11.0985 21.8616C11.0338 21.9403 10.9662 22.0146 10.8958 22.0843M10.8958 22.0843L6.1251 22.6194M10.8958 22.0843C10.6726 22.3056 10.4217 22.4824 10.149 22.6194M6.1251 22.6194C6.71328 22.8051 7.30718 22.9322 7.87974 22.9795M7.87974 22.9795C8.70821 23.0479 9.49199 22.9493 10.149 22.6194M7.87974 22.9795L10.149 22.6194M13.8296 10.5L8.54591 1.33531M16.1028 1.96575C15.3749 1.90964 14.6829 1.97061 14.1019 2.09627C14.9808 2.66055 14.9564 4.21232 14.8343 4.91767C15.6925 5.03704 16.4079 5.38815 17 5.87541M16.1028 1.96575L17 5.87541M16.1028 1.96575C16.3491 1.98474 16.5995 2.01713 16.8511 2.06495M17 5.87541C17.2554 6.08562 17.4879 6.32117 17.6989 6.57439M16.8511 2.06495L17.6989 6.57439M16.8511 2.06495C17.1336 2.11864 17.4176 2.19178 17.6989 2.28724M17.6989 6.57439C17.906 6.82288 18.0925 7.08838 18.2599 7.36366M17.6989 2.28724L18.2599 7.36366M17.6989 2.28724C17.9696 2.37908 18.2378 2.49157 18.5 2.62728M18.2599 7.36366C18.5125 7.77918 18.7216 8.21696 18.892 8.65204M18.5 2.62728L18.892 8.65204M18.5 2.62728C18.7103 2.73614 18.9167 2.85994 19.1172 3M18.892 8.65204C19.0379 9.02436 19.1556 9.39471 19.2482 9.74745M19.1172 3L19.2482 9.74745M19.1172 3C19.3292 3.148 19.5346 3.31414 19.7314 3.5M19.2482 9.74745C19.3686 10.2062 19.4466 10.6352 19.4893 11M19.4893 11C19.4946 11.0455 19.4993 11.0901 19.5036 11.1336C19.5876 11.3999 19.6634 11.6621 19.7314 11.9203M19.4893 11L19.7314 3.5M19.7314 3.5C19.9356 3.69291 20.1304 3.90706 20.3133 4.14419M20.3133 4.14419L19.7314 11.9203M20.3133 4.14419C20.4943 4.37893 20.6637 4.6362 20.8191 4.91767M19.7314 11.9203C19.8192 12.2539 19.894 12.5807 19.9563 12.9004M20.8191 4.91767L19.9563 12.9004M20.8191 4.91767C21.029 5.29805 21.2132 5.72265 21.3657 6.19563M19.9563 12.9004C20.0556 13.4093 20.1234 13.9004 20.1624 14.3729M21.3657 6.19563L20.1624 14.3729M21.3657 6.19563C21.5495 6.76568 21.6872 7.406 21.7684 8.12389M20.1624 14.3729C20.1946 14.7613 20.2073 15.1371 20.2021 15.5M20.2021 15.5L21.7684 8.12389M20.2021 15.5C20.1919 16.2185 20.1116 16.8862 19.9731 17.5M21.7684 8.12389C21.8163 8.54711 21.8445 8.99729 21.8509 9.47593M21.8509 9.47593C21.8579 9.99444 21.8393 10.5464 21.7924 11.1336C21.7924 11.4241 21.8109 11.886 21.8645 12.3803M21.8509 9.47593L19.9731 17.5M19.9731 17.5C19.8979 17.8332 19.8056 18.1506 19.698 18.4516C19.6653 18.5903 19.6653 18.76 19.7314 18.9185M19.7314 18.9185L21.8645 12.3803M19.7314 18.9185C19.7975 19.0773 19.93 19.225 20.1624 19.319M21.8645 12.3803C21.9051 12.7552 21.9659 13.1486 22.0542 13.5M22.0542 13.5C22.1085 13.7164 22.1733 13.9169 22.2502 14.0872C22.3043 14.2144 22.3595 14.3528 22.4142 14.5M22.0542 13.5L20.1624 19.319M20.1624 19.319C20.3168 19.3815 20.5153 19.4204 20.7678 19.4232M20.7678 19.4232L22.4142 14.5M20.7678 19.4232C20.974 19.4255 21.2163 19.4037 21.5 19.3511M22.4142 14.5C22.5139 14.7678 22.6119 15.0647 22.6983 15.376M22.6983 15.376L21.5 19.3511M22.6983 15.376C22.8441 15.9004 22.9572 16.4654 22.9902 17M21.5 19.3511C21.593 19.3338 21.6904 19.3133 21.7924 19.2892C21.886 19.2671 21.9731 19.2386 22.0542 19.2042M22.0542 19.2042C22.8388 18.8716 23.0511 17.9877 22.9902 17M22.0542 19.2042L22.9902 17M13.6677 14.0326C13.6887 14.187 13.5685 14.3287 13.3992 14.3491M13.6677 14.0326C13.6468 13.8782 13.4925 13.7696 13.3233 13.79M13.6677 14.0326L13.0547 14.1065M13.3992 14.3491C13.2299 14.3695 13.0757 14.2609 13.0547 14.1065M13.3992 14.3491L13.3233 13.79M13.0547 14.1065C13.0338 13.9521 13.154 13.8104 13.3233 13.79M16.6224 13.3606C16.7785 14.5099 17.8808 15.3239 19.0846 15.1787C20.2883 15.0336 21.1376 13.9842 20.9815 12.8349C20.8254 11.6856 19.7231 10.8716 18.5194 11.0168C17.3156 11.1619 16.4663 12.2113 16.6224 13.3606ZM16.6224 13.3606L15.6686 13.4756M19.1763 13.3051C19.1972 13.4595 19.077 13.6012 18.9077 13.6216M19.1763 13.3051C19.1553 13.1508 19.0011 13.0422 18.8318 13.0626M19.1763 13.3051L18.5633 13.3791M18.9077 13.6216C18.7385 13.6421 18.5842 13.5335 18.5633 13.3791M18.9077 13.6216L18.8318 13.0626M18.5633 13.3791C18.5423 13.2247 18.6625 13.083 18.8318 13.0626M15.7783 16.6173C17.4611 16.267 16.573 15.5665 16.199 14.1654M7.21238 14.1654C7.05211 14.4378 6.82774 15.0917 7.21238 15.5276M10.5 21.5C13.5 23 18 24 20 19M15.3536 19.1018C16.2515 19.3682 16.9698 19.1018 17.1942 18.5244M15.6646 13.4445C15.8231 14.611 14.9299 15.6797 13.6698 15.8317C12.4096 15.9837 11.2596 15.1613 11.1012 13.9948C10.9428 12.8284 11.836 11.7596 13.0961 11.6076C14.3563 11.4557 15.5062 12.2781 15.6646 13.4445Z" stroke="#2563EB" stroke-linecap="round"/>
</svg>
