<svg width="24" height="24" viewBox="0 0 24 24" fill="none" xmlns="http://www.w3.org/2000/svg">
<path d="M5.88967 16.5V22.9115C5.88967 22.9858 5.97361 23.0269 6.0299 22.9802L9.57224 20.0376C9.60527 20.0102 9.65286 20.0116 9.68429 20.0409L11.4996 21.7353M13.1325 16.5V21.1417M16.8039 8.36577C16.8039 12.2794 13.7138 15.452 9.90197 15.452C6.09012 15.452 3 12.2794 3 8.36577C3 4.45216 6.09012 1.27954 9.90197 1.27954C13.7138 1.27954 16.8039 4.45216 16.8039 8.36577Z" stroke="black" stroke-linecap="round"/>
<path d="M16.3966 2.15195L17.2806 1M17.4159 3.54862L21.0001 1.50215M18.0282 5.43306H19.8642M10.9502 6.33578L13.3654 6.12305C13.6309 6.09966 13.7698 6.43163 13.5662 6.59518C12.6737 7.31233 11.6665 8.27365 11.8664 8.70932C12.1904 9.41563 13.3244 12.0054 12.5954 11.9269C11.8664 11.8485 10.0844 9.8865 9.59838 10.2004C9.11238 10.5143 7.16838 12.8687 6.76338 11.9269C6.35838 10.9852 8.22138 9.33715 7.57338 8.70932C6.92538 8.08149 5.06239 7.06127 6.1964 6.82583C6.97114 6.66498 7.80102 6.60716 8.26226 6.5937C8.38169 6.59022 8.4857 6.51455 8.51831 6.40537C8.83844 5.33369 9.47453 3.64364 9.84139 4.23604C10.1803 4.78329 10.5028 5.64856 10.6694 6.15616C10.7072 6.27124 10.8238 6.34691 10.9502 6.33578Z" stroke="#2563EB" stroke-linecap="round"/>
</svg>
