<svg width="24" height="24" viewBox="0 0 24 24" fill="none" xmlns="http://www.w3.org/2000/svg">
<path d="M14 15H12M14 15C14 14.8496 13.9668 14.707 13.9074 14.5791M14 15C14 15.1291 13.9755 15.2525 13.931 15.3659M13 16V14M13 16C13.1258 16 13.2462 15.9768 13.3572 15.9343M13 16C12.8775 16 12.7602 15.978 12.6517 15.9377M12 15C12 15.1464 12.0315 15.2855 12.088 15.4109M12 15C12 14.8496 12.0332 14.707 12.0926 14.5791M13 14C12.8775 14 12.7602 14.022 12.6517 14.0623M13 14C13.1225 14 13.2398 14.022 13.3483 14.0623M6 14H4M6 14C6 14.1287 5.97568 14.2518 5.93137 14.3648M6 14C6 13.8713 5.97568 13.7482 5.93137 13.6352M5 15V13M5 15C4.86924 15 4.74435 14.9749 4.62986 14.9293M5 15C5.14811 15 5.2887 14.9678 5.41514 14.91M4 14C4 13.8568 4.03008 13.7207 4.08426 13.5976M4 14C4 14.1287 4.02432 14.2518 4.06863 14.3648M5 13C5.14811 13 5.2887 13.0322 5.41514 13.09M5 13C4.87982 13 4.7646 13.0212 4.65786 13.0601M10 7V5M10 7C9.74661 7 9.51522 6.90575 9.339 6.7504M10 7C10.1386 7 10.2705 6.97182 10.3905 6.92088M9 6L10.9998 6.01807M9 6C9 5.86586 9.02641 5.73788 9.07432 5.62099M9 6C9 6.15482 9.03518 6.30142 9.09799 6.43225M10 5C10.1821 5 10.3529 5.0487 10.5 5.13378M10 5C9.88817 5 9.78062 5.01836 9.68022 5.05222M12.3174 15.7308L13.6964 14.2824M12.3174 15.7308C12.4131 15.8203 12.5265 15.8912 12.6517 15.9377M12.3174 15.7308C12.2212 15.6409 12.1429 15.5324 12.088 15.4109M13.6964 14.2824C13.5978 14.1867 13.4796 14.1111 13.3483 14.0623M13.6964 14.2824C13.7836 14.367 13.8555 14.4675 13.9074 14.5791M13.6964 15.7176L12.3174 14.2692M13.6964 15.7176C13.6 15.8112 13.4849 15.8855 13.3572 15.9343M13.6964 15.7176C13.7978 15.6193 13.8784 15.4996 13.931 15.3659M12.3174 14.2692C12.4131 14.1797 12.5265 14.1088 12.6517 14.0623M12.3174 14.2692C12.2239 14.3566 12.1472 14.4617 12.0926 14.5791M12.6517 14.0623L13.3572 15.9343M12.6517 15.9377L13.3483 14.0623M13.9074 14.5791L12.088 15.4109M12.0926 14.5791L13.931 15.3659M10.9998 6.01807C10.9999 6.01206 11 6.00604 11 6C11 5.8595 10.971 5.72576 10.9187 5.60444M10.9998 6.01807C10.9975 6.15197 10.9688 6.27945 10.9187 6.39556M10.7606 5.35076L9.339 6.7504M10.7606 5.35076C10.6869 5.2645 10.5988 5.19093 10.5 5.13378M10.7606 5.35076C10.8252 5.4264 10.8788 5.5118 10.9187 5.60444M9.339 6.7504C9.2388 6.66207 9.15643 6.55399 9.09799 6.43225M9.339 5.2496L10.6918 6.72212M9.339 5.2496C9.22442 5.3506 9.13316 5.47744 9.07432 5.62099M9.339 5.2496C9.43745 5.16281 9.55312 5.09509 9.68022 5.05222M10.6918 6.72212C10.7877 6.6302 10.8654 6.51934 10.9187 6.39556M10.6918 6.72212C10.6049 6.8054 10.503 6.87314 10.3905 6.92088M10.9187 6.39556L9.07432 5.62099M9.09799 6.43225L10.5 5.13378M9.68022 5.05222L10.3905 6.92088M9.68022 6.92088L10.9187 5.60444M5.75115 13.3398L4.28888 14.7031M5.75115 13.3398C5.65857 13.2346 5.54422 13.149 5.41514 13.09M5.75115 13.3398C5.82723 13.4263 5.88861 13.5261 5.93137 13.6352M4.28888 14.7031C4.38495 14.8002 4.50079 14.8778 4.62986 14.9293M4.28888 14.7031C4.19416 14.6073 4.11866 14.4924 4.06863 14.3648M4.33713 13.2513L5.71112 14.7031M4.33713 13.2513C4.43019 13.1688 4.53874 13.1034 4.65786 13.0601M4.33713 13.2513C4.22968 13.3464 4.14287 13.4644 4.08426 13.5976M5.71112 14.7031C5.62635 14.7888 5.5262 14.8593 5.41514 14.91M5.71112 14.7031C5.80584 14.6073 5.88134 14.4924 5.93137 14.3648M5.41514 13.09L4.62986 14.9293M5.41514 14.91L4.65786 13.0601M4.08426 13.5976L5.93137 14.3648M5.93137 13.6352L4.06863 14.3648M19 13C19 13.5523 18.5523 14 18 14C17.4477 14 17 13.5523 17 13C17 12.4477 17.4477 12 18 12C18.5523 12 19 12.4477 19 13ZM10 11C10 11.5523 9.55228 12 9 12C8.44772 12 8 11.5523 8 11C8 10.4477 8.44772 10 9 10C9.55228 10 10 10.4477 10 11ZM11 19C11 19.5523 10.5523 20 10 20C9.44772 20 9 19.5523 9 19C9 18.4477 9.44772 18 10 18C10.5523 18 11 18.4477 11 19Z" stroke="black" stroke-linecap="round"/>
<path d="M14.627 9.31122C15.3346 6.83303 14.4388 2.8034 9.62141 2.8034C4.50911 2.8034 3.49966 7.38699 3.76028 9.97855C3.79505 10.3243 3.56405 10.652 3.231 10.782C2.08364 11.2297 0.648803 12.4181 1.07767 14.8159C1.57108 17.5745 4.70937 17.7885 6.34072 17.4875M14.627 9.31122L6.49935 17.2406C6.41403 17.3239 6.35382 17.428 6.33146 17.5432C6.00928 19.203 6.23003 22.4166 9.15875 22.9208C11.7155 23.361 12.9738 21.8754 13.4406 20.7019C13.5705 20.3752 13.9128 20.1497 14.2728 20.185C17.0159 20.4539 21.8813 19.4283 21.8813 14.2105C21.8813 9.29797 17.5147 8.43566 14.8902 9.15804C14.7898 9.18568 14.7005 9.23951 14.627 9.31122ZM15.5425 7.85244C16.4714 7.13864 18.2005 4.76884 17.6861 1M16.2882 8.93442C16.9873 8.03599 19.3085 6.36353 23 6.86112" stroke="#2563EB" stroke-linecap="round"/>
</svg>
