<svg width="24" height="24" viewBox="0 0 24 24" fill="none" xmlns="http://www.w3.org/2000/svg">
<path d="M10.2238 1.88214C10.4108 1.32547 11.9068 0.211855 13.0288 1.88214M22.1089 21.0099C23.2131 20.226 23.3564 19.2038 22.1692 18.0258C20.3216 16.1925 19.1998 11.3457 18.6388 8.00559C18.0778 4.66553 15.2728 2.9955 11.9068 2.9955C9.38987 2.9955 6.91216 3.30675 5.55844 5.55844M22.1089 21.0099H21.0099M22.1089 21.0099C21.8998 21.1584 21.6706 21.2982 21.429 21.429M22.1692 19.6596C22.3021 19.78 22.4241 19.9063 22.5338 20.0387C22.6585 20.1892 22.5417 20.4004 22.3463 20.399L20.3854 20.3854M22.1692 19.6596C21.8811 19.3987 21.5423 19.1654 21.1687 18.9575M22.1692 19.6596H19.6596M21.1687 18.9575C20.6282 18.6567 20.0151 18.4093 19.3784 18.2084M21.1687 18.9575H18.9575M19.3784 18.2084C18.8618 18.0455 18.3296 17.9132 17.8081 17.8081M19.3784 18.2084H18.2084M5.55844 5.55844L1 1M5.55844 5.55844L17.8081 17.8081M17.8081 17.8081L18.2084 18.2084M18.2084 18.2084L18.9575 18.9575M18.9575 18.9575L19.6596 19.6596M19.6596 19.6596L20.3854 20.3854M20.3854 20.3854L21.0099 21.0099M21.0099 21.0099L21.429 21.429M21.429 21.429L23 23" stroke="#2563EB" stroke-linecap="round"/>
<path d="M4.6138 8.56226C4.15781 12.1821 2.1828 16.3557 1.24781 18.0258C1.06081 18.3969 0.799006 19.3618 1.24781 20.2525M1.24781 20.2525C1.35243 20.4601 1.69121 20.7258 2.23502 21.0099M1.24781 20.2525C1.38625 20.0808 1.5849 19.8773 1.84235 19.6596M1.24781 20.2525L17.4538 20.365M2.23502 21.0099C2.58096 21.1906 3.00987 21.3788 3.51425 21.5641M2.23502 21.0099H18.0829M3.51425 21.5641C4.1944 21.8141 5.01179 22.059 5.94805 22.2737M3.51425 21.5641H18.6388M5.94805 22.2737C9.07844 22.9916 13.5376 23.3725 18.6388 22.4792M5.94805 22.2737L18.6388 22.4792M18.6388 22.4792C18.7305 22.4564 18.8249 22.4318 18.9217 22.4054C19.0983 22.3572 19.1587 22.1401 19.036 22.0042L18.6388 21.5641M1.84235 19.6596C2.04077 19.4919 2.27412 19.3157 2.54174 19.1393M1.84235 19.6596H16.7484M2.54174 19.1393L11.4236 19.162M2.54174 19.1393C3.03652 18.8131 3.64845 18.4858 4.3734 18.2084M11.4236 19.162C12.2797 19.2774 13.2049 19.0561 14.0799 18.2084M11.4236 19.162C10.6327 19.0554 9.90068 18.6614 9.32161 18.2084M14.0799 18.2084C14.2068 18.0855 14.3326 17.9495 14.4569 17.7994C14.5542 17.682 14.7323 17.6693 14.8397 17.7775L15.2677 18.2084M14.0799 18.2084H15.2677M9.32161 18.2084C9.04962 17.9957 8.81137 17.7699 8.61658 17.5548C8.56782 17.5009 8.49889 17.469 8.42625 17.4696C6.82603 17.4835 5.47033 17.7888 4.3734 18.2084M9.32161 18.2084H4.3734M15.2677 18.2084L16.0167 18.9575M16.0167 18.9575H13.0286M16.0167 18.9575L16.7484 19.6596M16.7484 19.6596L17.4538 20.365M17.4538 20.365L18.0829 21.0099M18.0829 21.0099L18.6388 21.5641" stroke="black" stroke-linecap="round"/>
</svg>
