<svg width="24" height="24" viewBox="0 0 24 24" fill="none" xmlns="http://www.w3.org/2000/svg">
<path d="M18.467 2C19.3789 2.2648 21.2028 3.35045 21.2028 5.57473C21.2028 8.10379 21.4857 11.2901 22.8238 12.1444C22.9939 12.253 23.0634 12.5109 22.9301 12.6606C22.4132 13.2406 21.8254 14.1294 21.5447 15.1074C21.2028 16.2989 21.2028 23.0512 17.0991 21.8596" stroke="black" stroke-linecap="round"/>
<path d="M6.26985 2C5.20592 2.2648 3.07808 3.35045 3.07808 5.57473C3.07808 8.10294 2.74819 11.288 1.1885 12.1435C1.00009 12.2469 0.930721 12.5322 1.08391 12.6809C1.68173 13.2612 2.35545 14.1407 2.67911 15.1074C3.07808 16.2989 3.07808 23.0512 7.86573 21.8596" stroke="#2563EB" stroke-linecap="round"/>
</svg>
