<svg width="24" height="24" viewBox="0 0 24 24" fill="none" xmlns="http://www.w3.org/2000/svg">
<path d="M8.29856 6.20359C7.97531 5.36605 7.7167 3.59047 9.26831 3.18845C11.2078 2.68592 14.602 3.18845 14.602 4.69602V6.70611" stroke="black" stroke-linecap="round"/>
<path d="M1.58166 7.76534C5.21437 11.2165 8.25222 15.8218 12.5 15.3707M21.8751 7.71113C18.5377 12.3229 15.833 14.5113 13.5 15.1747M13.5 15.1747C14.8552 15.1164 18.5091 13.6 22.2828 7.99998M13.5 15.1747C13.159 15.2716 12.8259 15.336 12.5 15.3707M22.2828 7.99998C21.7267 7.28479 20.8313 7.20861 19.9356 7.20861C17.6082 7.20861 8.62176 6.53851 4.41949 6.20345C-0.429291 5.70093 1.51049 13.2389 1.02534 18.264C0.73569 21.2642 2.96485 20.7766 5.87412 20.7766C8.78339 20.7766 17.9961 21.2792 20.9053 20.7766C23.8146 20.2741 22.8448 13.7414 22.8448 10.2238C22.8448 9.5396 22.7589 9.0099 22.6079 8.59998M22.2828 7.99998C22.4104 8.16407 22.5201 8.36181 22.6079 8.59998M12.5 15.3707C14.5719 15.3138 19.4941 13.88 22.6079 8.59998" stroke="#2563EB" stroke-linecap="round"/>
</svg>
