<svg width="24" height="24" viewBox="0 0 24 24" fill="none" xmlns="http://www.w3.org/2000/svg">
<path d="M4.76628 5.55544C5.27223 6.07091 5.98635 6.39216 6.77778 6.39216C8.3119 6.39216 9.55556 5.18508 9.55556 3.69608C9.55556 2.20708 8.3119 1 6.77778 1C5.76596 1 4.88049 1.52507 4.39484 2.3098C3.96827 2.99907 3.32843 3.69608 2.5 3.69608C1.67157 3.69608 1 4.3479 1 5.15196V21.5008C1 22.3288 1.69155 23 2.54462 23H21.4554C22.3084 23 23 22.3288 23 21.5008V5.19527C23 4.36729 22.3084 3.69608 21.4554 3.69608H20.1111M15.2108 5.55544C15.7168 6.07091 16.4309 6.39216 17.2223 6.39216C18.7565 6.39216 20.0001 5.18508 20.0001 3.69608C20.0001 2.20708 18.7565 1 17.2223 1C16.2265 1 15.353 1.50863 14.8627 2.27284C14.4117 2.97568 13.753 3.69608 12.8999 3.69608H9.66679M3.22221 9.41167H22.8889" stroke="black" stroke-linecap="round"/>
<path d="M8.87565 14.9006C8.94476 13.6649 11.3668 12.5168 11.735 14.5889C11.9605 15.858 10.698 17.2278 8.81816 18.3478C8.44403 18.5707 8.56717 19.1589 8.99835 19.1556L11.965 19.1324M13.727 14.3019L14.8462 13.1858C15.1039 12.9289 15.5461 13.0764 15.5415 13.4177L15.5415 19.1556" stroke="#2563EB" stroke-linecap="round"/>
</svg>
