<svg width="24" height="24" viewBox="0 0 24 24" fill="none" xmlns="http://www.w3.org/2000/svg">
<path d="M8.92289 20.9982C10.4839 20.9906 11.7785 20.9139 12.8449 20.7898M8.92289 20.9982L12.8449 20.7898M8.92289 20.9982C8.71951 20.9992 8.5245 20.9998 8.33761 20.9999M11.3789 19.7835L17.2551 19.151M11.3789 19.7835C11.5417 19.7531 11.7016 19.7153 11.8589 19.6718M11.3789 19.7835C11.327 19.7932 11.2476 19.8051 11.145 19.8189M6.4421 20.983L14.2292 20.5804M6.4421 20.983C5.94555 20.9715 5.56242 20.9546 5.27759 20.9332M6.4421 20.983C6.94991 20.9947 7.57635 21.0007 8.33761 20.9999M14.2292 20.5804C14.4181 20.544 14.5968 20.5058 14.7658 20.4661M14.2292 20.5804C14.0055 20.6234 13.7675 20.6639 13.5145 20.7015M14.7658 20.4661L5.27759 20.9332M14.7658 20.4661C14.8536 20.4454 14.9387 20.4244 15.0213 20.4029M5.27759 20.9332C5.15404 20.9239 5.04898 20.9137 4.96118 20.9027M12.8449 20.7898C13.079 20.7626 13.302 20.7331 13.5145 20.7015M13.5145 20.7015L8.33761 20.9999M15.4991 20.2654C15.5777 20.2404 15.6534 20.215 15.7262 20.1892M15.4991 20.2654C15.3505 20.3127 15.1914 20.3586 15.0213 20.4029M15.4991 20.2654L10.8342 20.5475M4.96118 20.9027C4.8814 20.8928 4.81588 20.8822 4.76368 20.871M4.96118 20.9027L10.8342 20.5475M4.76368 20.871L11.2442 20.4201M4.76368 20.871C4.64984 20.8466 4.59938 20.8193 4.60269 20.7898M15.9886 20.09C15.9056 20.1236 15.8182 20.1567 15.7262 20.1892M15.9886 20.09L11.2442 20.4201M15.9886 20.09C16.0971 20.0461 16.1981 20.0014 16.2918 19.9561M15.7262 20.1892L11.2442 20.4201M15.0213 20.4029L10.8342 20.5475M4.60269 20.7898L16.2918 19.9561M4.60269 20.7898C4.60677 20.7535 4.69231 20.7139 4.84139 20.6719M16.2918 19.9561C16.3534 19.9263 16.4119 19.8963 16.4673 19.8661M16.4673 19.8661L4.84139 20.6719M16.4673 19.8661C16.5465 19.8229 16.6195 19.7793 16.6866 19.7354M4.84139 20.6719C4.95344 20.6403 5.10137 20.6074 5.27759 20.5737M5.27759 20.5737L16.6866 19.7354M5.27759 20.5737C5.53071 20.5252 5.84217 20.475 6.18946 20.4243M16.6866 19.7354C16.7287 19.7079 16.7684 19.6803 16.8059 19.6527M16.8903 19.5872L6.68138 20.3553M16.8903 19.5872C16.9214 19.5618 16.9507 19.5364 16.9782 19.511M16.8903 19.5872C16.8636 19.609 16.8354 19.6309 16.8059 19.6527M6.68138 20.3553C7.1305 20.2945 7.61632 20.234 8.10017 20.1761M6.68138 20.3553C6.51145 20.3783 6.34678 20.4014 6.18946 20.4243M8.61113 20.1158L17.0718 19.417M8.61113 20.1158C9.42768 20.0204 10.1984 19.935 10.7301 19.8711M8.61113 20.1158C8.4422 20.1355 8.27131 20.1557 8.10017 20.1761M17.0718 19.417C17.0947 19.3919 17.116 19.3668 17.1357 19.3417M17.0718 19.417C17.0432 19.4483 17.0121 19.4796 16.9782 19.511M17.2551 19.151C17.2667 19.1265 17.2767 19.1021 17.2853 19.0779M17.2551 19.151C17.2364 19.1905 17.2139 19.2304 17.1872 19.2705M12.1396 19.5872C12.047 19.6173 11.9535 19.6456 11.8589 19.6718M12.1396 19.5872L15.797 19.1398M12.1396 19.5872C12.2373 19.5554 12.334 19.5216 12.4296 19.4862M17.3172 18.9538C17.314 18.9737 17.3099 18.9937 17.3048 19.0139M17.3172 18.9538L15.797 19.1398M17.3172 18.9538C17.3204 18.9335 17.3226 18.9133 17.3238 18.8933M17.2853 19.0779L11.8589 19.6718M17.2853 19.0779C17.293 19.0564 17.2994 19.0351 17.3048 19.0139M11.145 19.8189L17.1872 19.2705M11.145 19.8189C11.0327 19.8341 10.8925 19.8516 10.7301 19.8711M17.1872 19.2705C17.1715 19.2942 17.1543 19.3179 17.1357 19.3417M17.1357 19.3417L10.7301 19.8711M16.9782 19.511L8.10017 20.1761M6.18946 20.4243L16.8059 19.6527M17.3048 19.0139L15.797 19.1398M17.3238 18.8206C17.3213 18.7805 17.3149 18.7414 17.3048 18.7032M17.3238 18.8206C17.3252 18.8445 17.3252 18.8688 17.3238 18.8933M17.3238 18.8206L15.3432 19.0899M12.4296 19.4862C12.5325 19.4481 12.6341 19.4081 12.7346 19.3666M12.4296 19.4862L15.3432 19.0899M12.7346 19.3666L17.3048 18.7032M12.7346 19.3666C12.8104 19.3353 12.8855 19.3032 12.96 19.2705M17.3048 18.7032C17.2994 18.6827 17.2929 18.6625 17.2853 18.6426M17.3238 18.8933L15.3432 19.0899M12.96 19.2705L17.2853 18.6426M12.96 19.2705C13.0289 19.2402 13.0973 19.2094 13.1651 19.1782M17.2853 18.6426C17.2766 18.6196 17.2665 18.597 17.2551 18.5748M17.2551 18.5748L13.1651 19.1782M17.2551 18.5748C17.2438 18.5529 17.2311 18.5314 17.2173 18.5104M13.1651 19.1782C13.2283 19.149 13.2911 19.1196 13.3533 19.0899M13.3533 19.0899L17.2173 18.5104M13.3533 19.0899C13.4278 19.0545 13.5015 19.0187 13.5746 18.9829M17.2173 18.5104C17.2007 18.4852 17.1823 18.4607 17.1624 18.437M17.1624 18.437L13.5746 18.9829M17.1624 18.437C17.1433 18.4145 17.1228 18.3927 17.101 18.3717M13.5746 18.9829C13.6453 18.9482 13.7154 18.9135 13.7848 18.8789M13.7848 18.8789L17.101 18.3717M13.7848 18.8789C13.8421 18.8503 13.899 18.8218 13.9555 18.7935M17.101 18.3717C17.0719 18.3438 17.0404 18.3172 17.0067 18.2922M17.0067 18.2922C16.9787 18.2713 16.9491 18.2515 16.9181 18.2327C16.9089 18.2271 16.8996 18.2217 16.8903 18.2163M17.0067 18.2922L13.9555 18.7935M13.9555 18.7935C14.0226 18.7599 14.0891 18.7265 14.155 18.6936M14.155 18.6936L16.8903 18.2163M14.155 18.6936C14.2228 18.6598 14.2899 18.6265 14.3564 18.5939M16.8903 18.2163C16.8506 18.1934 16.8105 18.1727 16.7702 18.1541M16.7702 18.1541L14.3564 18.5939M16.7702 18.1541C16.728 18.1346 16.6855 18.1174 16.6426 18.1024M14.3564 18.5939C14.4143 18.5655 14.4717 18.5376 14.5286 18.5104M14.5286 18.5104L16.6426 18.1024M14.5286 18.5104C14.5949 18.4787 14.6605 18.4479 14.7255 18.4182M16.6426 18.1024C16.5752 18.0789 16.507 18.0607 16.438 18.0476M16.438 18.0476L14.7255 18.4182M16.438 18.0476C16.3497 18.0307 16.26 18.0221 16.1688 18.0207M14.7255 18.4182C14.8002 18.3841 14.8741 18.3514 14.9472 18.3205M14.9472 18.3205C15.3811 18.1368 15.7873 18.0149 16.1688 18.0207M14.9472 18.3205L16.1688 18.0207" stroke="black" stroke-linecap="round"/>
<path d="M17.6473 7.45276C14.4459 3.77707 10.3687 2.62803 9.58418 3.77689C8.60347 5.21297 13.9128 11.2245 17.8694 10.3227L22.4686 13.7293C22.7166 13.7849 23.1585 13.7693 22.9421 13.2617L18.4782 9.82178C18.5233 9.57687 18.539 8.96013 18.2414 8.45249M10 3.4635C8.87515 3.69796 6.0733 4.38603 5.66836 7.11915C5.16218 10.5355 5.56177 12.1755 2.26007 14.0189C-0.439495 15.5261 1.82142 17.628 3.27243 17.7033C7.58061 17.9265 16.4602 16.9128 17.513 11.0714" stroke="#2563EB" stroke-linecap="round"/>
</svg>
