<svg width="24" height="24" viewBox="0 0 24 24" fill="none" xmlns="http://www.w3.org/2000/svg">
<path d="M7.2124 2.93646C6.34935 2.62085 4.53696 2.65241 4.19174 5.30351C3.76022 8.61739 4.19195 17.1387 4.19174 19.5056C4.19161 21.0027 4.62284 21.8728 6.78104 22.3461C8.93869 22.8193 19.9185 24.2339 19.7267 20.4525C19.2946 11.9311 21.8843 2.46286 16.7061 2.93627M9.51813 1.44057C11.3075 0.591372 14.98 0.989835 14.98 2.46286C14.98 4.35651 14.98 4.82998 13.2539 4.82998C11.5278 4.82998 9.8017 5.30339 9.37018 4.35657C8.97395 3.48719 8.94154 2.21855 9.27296 1.65041C9.32849 1.55521 9.41856 1.48782 9.51813 1.44057Z" stroke="black" stroke-linecap="round"/>
<path d="M10.125 9.99428C11.7997 9.70663 15.5192 9.39022 17 10.4257M7 9.87951C7.01805 10.032 7.27208 10.6811 7.38797 10.3157C7.52632 9.87951 7.65789 9.42772 8.25 9M10.125 13.5586C11.7997 13.271 15.5192 12.9546 17 13.9901M7 13.4439C7.01805 13.5963 7.27208 14.2455 7.38797 13.8801C7.52632 13.4439 7.65789 12.9921 8.25 12.5644M10.125 17.123C11.7997 16.8353 15.5192 16.5189 17 17.5545M7.56469 17.9945C7.59297 17.9896 8.27765 17.8827 8.24913 17.1377C8.21634 16.2809 7.45064 16.3927 7.19395 16.7651C7.11135 16.8851 6.93823 17.1893 7.02259 17.5696C7.08916 17.8696 7.34375 18.0328 7.56469 17.9945Z" stroke="#2563EB" stroke-linecap="round"/>
</svg>
