<svg width="24" height="24" viewBox="0 0 24 24" fill="none" xmlns="http://www.w3.org/2000/svg">
<path d="M4.38811 6.07299C4.27171 6.1804 4.15545 6.28338 4.03967 6.38122C3.77993 6.60068 3.52254 6.79425 3.27114 6.95386M2.51437 7.33123C2.76162 7.24893 3.01358 7.1196 3.27114 6.95386M2.51437 7.33123C2.65421 7.28319 2.79751 7.22019 2.94349 7.14393C3.05135 7.08758 3.16067 7.024 3.27114 6.95386M2.51437 7.33123C2.37133 7.37884 2.26034 7.45044 2.17868 7.54139C2.08533 7.64537 2.03031 7.77463 2.00954 7.92229C1.94054 8.41288 2.25037 9.10593 2.78866 9.74911M2.51437 7.33123C2.45452 7.35179 2.40031 7.37646 2.35152 7.40493C1.7096 7.77942 2.00748 8.80969 2.78866 9.74911M3.81509 10.7052C3.739 10.6504 3.66451 10.5937 3.59176 10.5354C3.29 10.2939 3.01843 10.0254 2.78866 9.74911M19.0162 4.12454C19.5263 4.75313 21.1746 5.09622 21.5683 3.55612M20.5882 23C20.7296 19.4041 19.2257 18.6132 17.4831 16.0407C17.4744 16.0278 17.4669 16.0145 17.4608 16.0002C16.9005 14.6916 16.6952 11.3834 20.3047 8.44112C23.8947 5.51459 20.9823 1.63809 18.9066 1.01883C18.8624 1.00562 18.8169 1.00503 18.7719 1.01599C17.542 1.31624 15.6841 2.36057 14.6822 3.44953M14.4403 3.11848C13.8399 2.25433 12.0454 0.785261 9.66991 1.82225C7.26397 2.87255 5.3374 5.41214 3.65715 6.68279C3.52704 6.78118 3.39841 6.87196 3.27114 6.95386M5.43501 19.2751C5.04559 15.3401 10.6921 8.81264 7.62547 10.9422C5.89724 12.1423 3.87593 11.0482 2.78866 9.74911M10.293 3.32793C9.52999 3.61551 9.62325 5.15887 9.82671 5.77238M12.513 5.02455C12.513 5.22313 12.3444 5.3841 12.1363 5.3841C11.9283 5.3841 11.7596 5.22313 11.7596 5.02455C11.7596 4.82598 11.9283 4.665 12.1363 4.665C12.3444 4.665 12.513 4.82598 12.513 5.02455Z" stroke="#2563EB" stroke-linecap="round"/>
<path d="M19.6321 2.74441C19.7557 2.73829 19.8673 2.72742 19.9679 2.71251M19.6321 2.74441C18.8438 2.78347 18.2212 2.09515 17.9382 1.63917M19.6321 2.74441L17.9382 1.63917M17.3784 16.3827C17.0706 15.7595 16.8546 14.6494 17.2022 13.3384C17.0017 13.4846 16.7982 13.6471 16.5982 13.8239M17.3784 16.3827C17.5154 16.5626 17.6492 16.731 17.7796 16.8897M17.3784 16.3827L19.2941 21.579M20.5839 22.024C20.5839 19.8313 19.8246 19.1591 18.6126 17.8408M20.5839 22.024L18.6126 17.8408M20.5839 22.024C20.3627 21.9548 20.1491 21.8848 19.9427 21.8138M4.38811 6.07299C4.50562 5.96455 4.66149 5.88005 4.75942 6.00496C5.68831 7.18974 5.96975 8.12403 5.88997 8.84274M4.38811 6.07299L5.88997 8.84274M4.38811 6.07299C4.27171 6.18041 4.15545 6.28339 4.03967 6.38122M2.51437 7.33124C2.76162 7.24894 3.01358 7.1196 3.27114 6.95386M2.51437 7.33124C2.65421 7.2832 2.79751 7.2202 2.94349 7.14393M2.51437 7.33124L4.31847 10.6522M2.51437 7.33124C2.37133 7.37885 2.26034 7.45044 2.17868 7.5414M2.51437 7.33124C2.45452 7.3518 2.40031 7.37647 2.35152 7.40493M4.03967 10.7451C3.96247 10.7669 3.87934 10.7515 3.81509 10.7052C3.739 10.6504 3.66451 10.5937 3.59176 10.5354M4.03967 10.7451C4.1309 10.7192 4.22436 10.6884 4.31847 10.6522M4.03967 10.7451L2.35152 7.40493M18.9066 1.01883C18.8624 1.00563 18.8169 1.00503 18.7719 1.016M17.4608 16.0002C17.4669 16.0145 17.4744 16.0278 17.4831 16.0407M20.4817 2.5621L18.3797 1.06952M20.4817 2.5621C20.3578 2.62695 20.1898 2.67959 19.9679 2.71251M20.4817 2.5621C20.56 2.52112 20.6207 2.47528 20.6665 2.42645M18.3797 1.06952C18.2421 1.12117 18.1326 1.19671 18.0433 1.27917M18.3797 1.06952C18.4368 1.04812 18.4987 1.03082 18.566 1.01883M18.0433 1.27917C17.9675 1.34914 17.9064 1.4241 17.8549 1.49369C17.8781 1.53821 17.906 1.58718 17.9382 1.63917M18.0433 1.27917L19.9679 2.71251M5.88997 8.84274C5.86176 9.09689 5.78838 9.32408 5.68249 9.52586M5.68249 9.52586L4.03967 6.38122M5.68249 9.52586C5.60212 9.67901 5.50301 9.81752 5.39071 9.94207M4.03967 6.38122C3.77993 6.60069 3.52254 6.79425 3.27114 6.95386M5.39071 9.94207L3.65715 6.68279C3.52704 6.78118 3.39841 6.87197 3.27114 6.95386M5.39071 9.94207C5.29106 10.0526 5.18103 10.1521 5.06447 10.2411M5.06447 10.2411L3.27114 6.95386M5.06447 10.2411C4.96662 10.3158 4.86418 10.3831 4.75942 10.4432M3.27114 6.95386C3.16067 7.024 3.05135 7.08759 2.94349 7.14393M2.94349 7.14393L4.75942 10.4432M4.75942 10.4432C4.61484 10.5263 4.46585 10.5957 4.31847 10.6522M2.17868 7.5414L3.59176 10.5354M2.17868 7.5414C2.08533 7.64537 2.03031 7.77464 2.00954 7.92229M3.59176 10.5354C3.29 10.2939 3.01843 10.0254 2.78866 9.74911M18.6126 17.8408C18.3545 17.56 18.0758 17.25 17.7796 16.8897M17.7796 16.8897L19.9427 21.8138M19.9427 21.8138C19.7179 21.7366 19.5018 21.6582 19.2941 21.579M19.2941 21.579C19.1049 21.5067 18.9225 21.4337 18.747 21.3599M16.5982 13.8239L18.747 21.3599M16.5982 13.8239C16.5335 13.8811 16.4691 13.9399 16.4053 14M18.747 21.3599C18.6631 21.3247 18.5808 21.2893 18.5 21.2537M18.0683 21.0553L16.196 14.2049M18.0683 21.0553C17.9695 21.0078 17.8733 20.9601 17.7796 20.9122M18.0683 21.0553C18.2071 21.1219 18.351 21.1881 18.5 21.2537M16.196 14.2049C16.1022 14.3003 16.0104 14.3988 15.9213 14.5M16.196 14.2049C16.2649 14.1349 16.3347 14.0666 16.4053 14M15.7258 14.7324L17.5319 20.7817M15.7258 14.7324C15.7892 14.6534 15.8545 14.5759 15.9213 14.5M15.7258 14.7324C15.6474 14.83 15.572 14.9298 15.5 15.0316M17.5319 20.7817C17.6124 20.8254 17.695 20.8689 17.7796 20.9122M17.5319 20.7817C17.418 20.72 17.3081 20.6579 17.2022 20.5954M17.0197 20.4852L15.3414 15.2685M17.0197 20.4852C17.0792 20.522 17.14 20.5588 17.2022 20.5954M17.0197 20.4852C16.9465 20.4398 16.8753 20.3942 16.806 20.3485M15.3414 15.2685C15.392 15.1884 15.445 15.1094 15.5 15.0316M15.3414 15.2685C15.2932 15.3447 15.2472 15.4219 15.2034 15.5M15.0055 15.8977L16.5982 20.2066M15.0055 15.8977C14.9363 16.0565 14.8777 16.2184 14.8315 16.3827M15.0055 15.8977C15.0642 15.7628 15.1306 15.6301 15.2034 15.5M16.5982 20.2066C16.4549 20.1055 16.321 20.0036 16.196 19.9012M16.5982 20.2066C16.6654 20.2541 16.7347 20.3014 16.806 20.3485M16.0367 19.7661L14.7311 16.8897M16.0367 19.7661C16.0881 19.8112 16.1412 19.8563 16.196 19.9012M16.0367 19.7661C15.8315 19.5858 15.6533 19.4041 15.5 19.2214M14.7311 16.8897C14.7505 16.7186 14.7846 16.5494 14.8315 16.3827M14.7311 16.8897C14.7021 17.1438 14.7056 17.4021 14.7475 17.6626M2.00954 7.92229C1.94054 8.41288 2.25037 9.10593 2.78866 9.74911M2.00954 7.92229L2.78866 9.74911M2.78866 9.74911C2.00748 8.8097 1.7096 7.77942 2.35152 7.40493M14.8315 16.3827L16.196 19.9012M15.9213 14.5L17.7796 20.9122M18.5 21.2537L16.4053 14M15.5 15.0316L17.2022 20.5954M15.2034 15.5L16.806 20.3485M14.7475 17.6626C14.8307 18.1788 15.0654 18.7036 15.5 19.2214M14.7475 17.6626L15.5 19.2214M20.6665 2.42645C20.7484 2.33897 20.782 2.24193 20.782 2.14623C20.2593 1.40304 19.4857 1.04778 18.9003 1.00428C18.776 0.995034 18.6651 1.00117 18.566 1.01883M20.6665 2.42645L18.566 1.01883" stroke="black" stroke-linecap="round"/>
</svg>
