<svg width="24" height="24" viewBox="0 0 24 24" fill="none" xmlns="http://www.w3.org/2000/svg">
<path d="M20.486 9.50426L20.4296 3.80621C20.4164 2.46567 19.4517 1 18.1111 1H7.99989M18.1111 5.55683C18.6134 6.22176 19.7383 7.90117 20.3898 9.50676C20.4168 9.57323 20.5354 9.57121 20.5607 9.50426C20.9449 8.48622 22.1252 6.58622 23 5.55683M11.0704 1.20138C9.21521 0.903929 3.41972 0.963451 1.75001 1.20141M11.7662 1.49887C11.8689 4.04686 12.0482 8.58611 11.9879 9.99997M11.5001 10C10.7939 9.4197 4.22277 9.27458 2.81023 9.27458C1.3977 9.27458 1.03466 9.46036 1.22113 8.69428C1.3743 8.06504 1.26277 3.97879 1 1.35995" stroke="black" stroke-linecap="round"/>
<path d="M21.1409 14.2014C17.4304 13.9039 5.83944 13.9635 2.50002 14.2014M22.5323 14.4989C22.7378 17.0469 23.0963 21.5861 22.9758 23M22.0003 23C20.5877 22.4197 7.44553 22.2746 4.62046 22.2746C1.7954 22.2746 1.06931 22.4604 1.44226 21.6943C1.74859 21.065 1.52554 16.9788 1 14.36M6 18.5C9.83333 18.5 17.7 18.6 18.5 19" stroke="#2563EB" stroke-linecap="round"/>
</svg>
