<svg width="24" height="24" viewBox="0 0 24 24" fill="none" xmlns="http://www.w3.org/2000/svg">
<path d="M22.4866 12.5008C22.4072 14.079 21.9747 15.6168 21.2239 17.0012L18.4869 15.3345C18.4868 15.3344 18.4868 15.3344 18.4867 15.3343C18.4864 15.3339 18.4851 15.3318 18.484 15.3276C18.4815 15.3179 18.4821 15.3045 18.4887 15.2915C18.9553 14.3755 19.2245 13.3691 19.2765 12.338C19.3374 11.1276 19.097 9.92096 18.5769 8.82687C18.0567 7.73278 17.2731 6.78554 16.2966 6.07064C15.4649 5.46174 14.5155 5.03772 13.5119 4.82427C13.4982 4.82135 13.4877 4.81367 13.4819 4.80581C13.4792 4.80225 13.4785 4.79989 13.4783 4.79938C13.4783 4.79929 13.4782 4.79943 13.4784 4.79856L13.9106 1.61518C15.4553 1.90185 16.9185 2.53298 18.1909 3.46447C19.5982 4.49478 20.7279 5.8602 21.4779 7.43773C22.2278 9.01527 22.5745 10.7552 22.4866 12.5008Z" stroke="black"/>
<path d="M6.48876 3.00659C7.81625 2.18563 9.30754 1.67269 10.8536 1.50239L11.0513 4.70918C11.0514 4.71007 11.0513 4.70992 11.0513 4.70999C11.0511 4.71047 11.0502 4.71276 11.0473 4.71609C11.041 4.72347 11.03 4.73034 11.0161 4.73223C10.0103 4.86967 9.04221 5.21662 8.17499 5.75294C7.15516 6.38363 6.30633 7.2567 5.70358 8.29471C5.10083 9.33271 4.76272 10.5037 4.71911 11.7038C4.67551 12.904 4.92775 14.0965 5.45355 15.1757C5.97936 16.2549 6.76255 17.1875 7.73387 17.8909C8.7052 18.5944 9.83465 19.0468 11.0222 19.208C12.2097 19.3693 13.4186 19.2344 14.5416 18.8152C15.4965 18.4589 16.3643 17.9065 17.0903 17.1956C17.1005 17.1856 17.1127 17.1813 17.122 17.1808C17.1257 17.1806 17.1277 17.1811 17.1284 17.1813C17.1284 17.1813 17.1285 17.1814 17.1286 17.1814L19.5298 19.3088C18.4451 20.4281 17.1243 21.2931 15.6619 21.8389C14.0438 22.4427 12.3021 22.6371 10.5912 22.4048C8.88035 22.1725 7.2529 21.5206 5.85305 20.5069C4.4532 19.4932 3.32413 18.1488 2.566 16.5927C1.80785 15.0367 1.44408 13.3171 1.50696 11.5863C1.56985 9.85547 2.05745 8.167 2.92648 6.67043C3.7955 5.17388 5.0191 3.91548 6.48876 3.00659Z" stroke="#2563EB"/>
</svg>
