<svg width="24" height="24" viewBox="0 0 24 24" fill="none" xmlns="http://www.w3.org/2000/svg">
<path d="M10.155 1.22376C8.46837 0.893254 3.19974 0.95939 1.68183 1.22379M10.7874 1.5543C10.8808 4.3854 11.0438 9.42902 10.989 11M10.5456 11C9.90351 10.3552 3.92979 10.194 2.64567 10.194C1.36154 10.194 1.03151 10.4004 1.20103 9.5492C1.34027 8.85005 1.23888 4.30977 1 1.39995M22.1549 13.2238C20.4684 12.8933 15.1997 12.9594 13.6818 13.2238M22.7874 13.5543C22.8808 16.3854 23.0438 21.429 22.989 23M22.5456 23C21.9035 22.3552 15.9298 22.194 14.6457 22.194C13.3615 22.194 13.0315 22.4004 13.201 21.5492C13.275 21.1776 13.2811 19.7205 13.2346 18C13.1936 16.4838 13.1119 14.763 13 13.3999" stroke="#2563EB" stroke-linecap="round"/>
<path d="M13.2346 18.0001C12.0679 18.1667 9.5 18.4001 7.5 18.0001C5.5 17.6001 5.33333 12.6104 5.5 10.2771" stroke="black" stroke-linecap="round"/>
</svg>
