<svg width="24" height="24" viewBox="0 0 24 24" fill="none" xmlns="http://www.w3.org/2000/svg">
<path d="M21.1409 1.20138C17.4304 0.903929 5.83944 0.963451 2.50002 1.20141M22.5323 1.49887C22.7378 4.04686 23.0963 8.58611 22.9758 9.99997M1 1.35995C1.52554 3.97879 1.74859 8.06504 1.44226 8.69428C1.06931 9.46036 1.7954 9.27458 4.62046 9.27458C5.2792 9.27458 5.99888 9.25512 7.5 9.27458M16.5 9.5C19.5368 9.61165 21.4161 9.76003 22.0003 10" stroke="black" stroke-linecap="round"/>
<path d="M12.0696 13.7648V7.33851M14.4444 10.7492C13.9422 10.1747 12.8172 8.72364 12.1658 7.33635C12.1388 7.27892 12.0201 7.28066 11.9949 7.33851C11.6106 8.21813 10.4304 9.85979 9.55556 10.7492M21.1409 14.2015C17.4304 13.904 5.83944 13.9635 2.50002 14.2015M22.5323 14.4989C22.7378 17.0469 23.0963 21.5862 22.9758 23M22.0003 23.0001C20.5877 22.4198 7.44553 22.2746 4.62046 22.2746C1.7954 22.2746 1.06931 22.4604 1.44226 21.6944C1.74859 21.0651 1.52554 16.9789 1 14.36" stroke="#2563EB" stroke-linecap="round"/>
</svg>
