<svg width="24" height="24" viewBox="0 0 24 24" fill="none" xmlns="http://www.w3.org/2000/svg">
<path d="M21.1409 22.7986C17.4304 23.0961 5.83944 23.0366 2.50002 22.7986M22.5323 22.5011C22.7378 19.9531 23.0963 15.4139 22.9758 14M1 22.64C1.52554 20.0212 1.74859 15.935 1.44226 15.3057C1.06931 14.5396 1.7954 14.7254 4.62046 14.7254C5.2792 14.7254 5.99888 14.7449 7.5 14.7254M16.5 14.5C19.5368 14.3884 21.4161 14.24 22.0003 14" stroke="black" stroke-linecap="round"/>
<path d="M12.0696 10.2353V16.6616M14.4444 13.2509C13.9422 13.8254 12.8172 15.2764 12.1658 16.6637C12.1388 16.7212 12.0201 16.7194 11.9949 16.6616C11.6106 15.7819 10.4304 14.1403 9.55556 13.2509M21.1409 9.79862C17.4304 10.0961 5.83944 10.0365 2.50002 9.79858M22.5323 9.50113C22.7378 6.95314 23.0963 2.41389 22.9758 1.00003M22.0003 1C20.5877 1.5803 7.44553 1.72542 4.62046 1.72542C1.7954 1.72542 1.06931 1.53964 1.44226 2.30572C1.74859 2.93496 1.52554 7.02121 1 9.64005" stroke="#2563EB" stroke-linecap="round"/>
</svg>
