<svg width="24" height="24" viewBox="0 0 24 24" fill="none" xmlns="http://www.w3.org/2000/svg">
<path d="M10.6709 22.459C11.2524 23.012 12.2098 23.171 12.9987 22.7956C13.7722 22.4275 14.1402 21.6615 13.9511 20.9462M10.6709 22.459C10.5667 22.3599 10.4745 22.2481 10.3976 22.1245C9.89126 21.3111 10.2349 20.293 11.1652 19.8503C12.0955 19.4076 13.26 19.7081 13.7663 20.5215C13.8516 20.6585 13.9128 20.8013 13.9511 20.9462M10.6709 22.459C11.5184 22.726 13.361 22.7973 13.9511 20.9462" stroke="black" stroke-linecap="round"/>
<path d="M11.7378 1C8.82659 1 10.179 8.75079 11.4361 13.4983C11.5195 13.8131 11.956 13.8131 12.0394 13.4983C13.2965 8.75079 14.6489 1 11.7378 1Z" stroke="#2563EB" stroke-linecap="round"/>
</svg>
