<svg width="24" height="24" viewBox="0 0 24 24" fill="none" xmlns="http://www.w3.org/2000/svg">
<path d="M7.91687 11.2304C9.54656 10.7722 13.1122 9.58087 14.3375 8.4812M8.64644 13.6271C10.1675 13.3985 13.736 12.0153 15.14 11.5123M9.08425 16.2353C10.8009 15.9833 14.4592 15.1652 15.3589 13.909M9.88682 18.9139C10.7459 18.8023 14.7862 17.4726 15.8889 16.6244" stroke="#2563EB" stroke-linecap="round"/>
<path d="M6.00138 23C4.72928 17.855 2.7985 7.55838 5.00546 6.62189C5.10575 6.57945 5.21506 6.55174 5.31637 6.51097L13.7053 3.12887M15.8889 4.2316L16.4403 6.69783M5.8494 7.58899C4.9009 9.31475 6.37493 16.591 7.56486 21.3741C7.82368 22.4168 8.99849 22.9634 10.0192 22.5348L17.9042 19.2225C18.7102 18.8837 19.1505 18.0401 18.9531 17.2165L16.8822 8.63114M7.52084 7.693C7.9056 7.24061 8.30324 5.64338 7.41003 4.8268C7.25616 4.68448 7.06225 4.56619 6.82232 4.48162C5.20258 3.90939 4.16932 5.85347 5.14355 6.52246M7.38499 4.7557C7.52303 3.87908 8.70071 2.96354 10.1205 3.72372C11.646 4.76558 10.8796 6.29769 10.184 6.83221M10.1848 3.6484C10.4742 2.95734 11.5656 1.62477 13.0054 2.17254C14.939 3.19178 13.8259 5.19968 13.0166 5.45669M12.9889 2.07714C13.4286 1.30955 14.5255 0.567647 15.5967 1.30146C16.668 2.03543 16.3282 3.9804 15.2396 4.60302" stroke="black" stroke-linecap="round"/>
</svg>
