<svg width="24" height="24" viewBox="0 0 24 24" fill="none" xmlns="http://www.w3.org/2000/svg">
<path d="M15.281 19.9719V9.6881M15.281 19.9719L19.0916 17.4907C19.377 17.3048 19.5495 16.9854 19.5495 16.6425V16.6366M15.281 19.9719H14M15.281 19.9719C15.549 19.9719 16.1311 19.9242 16.8662 19.8218M15.281 9.6881H4.60978M15.281 9.6881L9.48805 2.73957M15.281 9.6881L15.7337 9.51122M9.48805 2.73957L4.21525 9.41557C4.07583 9.59208 4 9.81044 4 10.0354V12.5M9.48805 2.73957L9.93153 2.53743M19.5495 8.02045L14.1893 1.33383C13.9343 1.01579 13.4989 0.911412 13.1295 1.07978M19.5495 8.02045V16.6366M19.5495 8.02045L19.0583 8.21236M19.5495 16.6366C19.8865 16.6366 20.2777 16.6486 20.6731 16.6774M16.8662 19.8218L20.6731 16.6774M16.8662 19.8218C17.2873 19.7631 17.7587 19.6864 18.25 19.5905M20.6731 16.6774C20.8741 16.692 21.0761 16.7111 21.2727 16.7351M21.2727 16.7351L18.25 19.5905M21.2727 16.7351C21.5366 16.7674 21.7906 16.8087 22.0189 16.8606M18.25 19.5905C18.6748 19.5076 19.1144 19.4103 19.5495 19.2977M19.5495 19.2977L22.0189 16.8606M19.5495 19.2977C20.0342 19.1723 20.5131 19.0279 20.9592 18.8634M22.0189 16.8606C22.2414 16.9112 22.4395 16.9719 22.5984 17.0441M22.5984 17.0441C23.0685 17.2579 23.1955 17.5727 22.5984 18.0263C22.1733 18.3492 21.6002 18.6271 20.9592 18.8634M22.5984 17.0441L20.9592 18.8634M9.93153 2.53743L15.7337 9.51122M9.93153 2.53743L10.3742 2.33566M15.7337 9.51122L16.23 9.31732M16.23 9.31732L10.3742 2.33566M16.23 9.31732L16.7701 9.10631M10.3742 2.33566L10.8878 2.10157M10.8878 2.10157L16.7701 9.10631M10.8878 2.10157L11.4486 1.84596M16.7701 9.10631L17.3864 8.86555M17.3864 8.86555L11.4486 1.84596M17.3864 8.86555L17.965 8.6395M11.4486 1.84596L11.9762 1.60546M11.9762 1.60546L17.965 8.6395M11.9762 1.60546L12.5025 1.36558M17.965 8.6395L18.567 8.40427M18.567 8.40427L12.5025 1.36558M18.567 8.40427L19.0583 8.21236M12.5025 1.36558L13.1295 1.07978M13.1295 1.07978L19.0583 8.21236" stroke="black" stroke-linecap="round"/>
<path d="M2.21764 20V16.2523C2.21764 16.2008 2.20693 16.1498 2.19899 16.0988C2.15828 15.8372 2.31294 15.3883 3.22027 15.2146C4.47357 14.9747 10.4893 14.7347 10.74 15.6945C10.9405 16.4624 10.8236 18.8002 10.74 20M1.71633 21.2136C5.39265 21.0536 12.2439 20.7338 11.9933 21.6935C11.6894 22.8575 10.74 22.8934 9.98805 22.8934C9.23607 22.8934 2.4683 23.1333 1.96698 22.8934C1.46567 22.6534 0.212376 21.4535 1.71633 21.2136Z" stroke="#2563EB" stroke-linecap="round"/>
</svg>
