<svg width="24" height="24" viewBox="0 0 24 24" fill="none" xmlns="http://www.w3.org/2000/svg">
<path d="M15.1305 16.5474C16.3313 15.4008 16.9744 12.6563 17.9322 12.3281C17.9411 12.3251 17.9495 12.3218 17.958 12.3178C18.7655 11.9359 20.2762 11.5638 19.9562 13.0917C19.554 15.0115 16.739 20.3871 15.5326 21.539C14.3262 22.6909 12.7176 23.4588 10.7069 22.6909C8.6962 21.923 9.09834 23.8428 7.48977 22.3069C5.8812 20.7711 5.07902 18.8704 5.0777 15.0116C5.07731 13.8597 5.47985 12.7078 4.67478 11.1719C4.27276 10.148 3.6296 7.86978 4.27303 6.94827C4.67478 6.45086 5.55979 6.18033 5.88151 7.7162C6.1327 8.91538 6.7271 10.6607 7.16705 11.8556C7.2391 12.0513 7.53039 12.0102 7.54112 11.803C7.6627 9.45611 7.26916 6.33444 7.16705 5.03652C7 2.91304 7.89222 1.95663 8.6965 2.72457C9.50078 3.4925 9.90293 11.5557 10.3051 9.63585C10.7072 7.71602 9.79357 1 11 1C12.2064 1 12.7179 2.72482 12.7179 6.94827C12.7179 10.3039 12.9824 9.6451 13.1173 8.88364C13.1191 8.87321 13.1201 8.86298 13.1201 8.85241C13.122 6.6726 13.526 2.57305 15.1308 3.49239C17.1415 4.64429 14.728 13.8595 15.1305 15.7793" stroke="#2563EB" stroke-linecap="round"/>
</svg>
