<svg width="24" height="24" viewBox="0 0 24 24" fill="none" xmlns="http://www.w3.org/2000/svg">
<path d="M17.7689 9.84052H16.2428C15.8443 9.84052 15.4821 10.0679 15.3156 10.4227L14.7875 11.548C14.621 11.9028 14.2589 12.1302 13.8603 12.1302H10.1258C9.73437 12.1302 9.37745 11.9108 9.20703 11.5656L8.63421 10.4051C8.46379 10.0599 8.10686 9.84052 7.71546 9.84052H6.30651M7.09708 1H16.9125C17.3831 1 17.7927 1.31531 17.904 1.76333L19.971 10.0779C19.9903 10.1553 20 10.2348 20 10.3145V14.5176C20 15.0699 19.5431 15.5176 18.9794 15.5176H5.02056C4.45692 15.5176 4 15.0699 4 14.5176V10.7926C4 10.7167 4.00881 10.6411 4.02627 10.5672L6.10279 1.77455C6.20988 1.3211 6.62208 1 7.09708 1Z" stroke="#2563EB" stroke-linecap="round"/>
<path d="M20 22V18.3607C20 18.3282 19.9955 18.2959 19.9867 18.2646C19.9426 18.1082 19.7974 18 19.6319 18H16.2073C15.8272 18 15.4785 18.207 15.3026 18.5372L14.8005 19.4794C14.6246 19.8096 14.276 20.0166 13.8959 20.0166H10.0896C9.71716 20.0166 9.37431 19.8178 9.19504 19.4979L8.6462 18.5186C8.46693 18.1988 8.12407 18 7.75165 18H4.86485C4.47185 18 4.12826 18.2596 4.02839 18.6321C4.00954 18.7024 4 18.7747 4 18.8474V22C4 22.5523 4.45692 23 5.02056 23H18.9794C19.5431 23 20 22.5523 20 22Z" stroke="black" stroke-linecap="round"/>
</svg>
