<svg width="24" height="24" viewBox="0 0 24 24" fill="none" xmlns="http://www.w3.org/2000/svg">
<path d="M22.5567 14.2593V20.3568C22.5567 20.9091 22.109 21.3568 21.5567 21.3568H1.51326M22.5567 14.2593L22.9795 21.4605C22.9875 21.597 22.8563 21.6929 22.7334 21.6556M22.5567 14.2593L22.6772 20.7055M22.5567 14.2593L19.6672 2.75637C19.5555 2.31174 19.1558 2 18.6973 2H4.86897C4.40611 2 4.00373 2.31765 3.89629 2.76788L1.02731 14.7901C1.00917 14.8661 1 14.944 1 15.0222V20.8436C1 21.127 1.22979 21.3568 1.51326 21.3568M1.51326 21.3568L22.3492 21.6345M1.51326 21.3568C9.30915 21.7684 24.3756 22.399 22.7334 21.6556M22.6946 21.6391L22.3492 21.6345M22.6946 21.6391L22.6772 20.7055M22.6946 21.6391C22.7085 21.6447 22.7214 21.6502 22.7334 21.6556M22.6946 21.6391C22.7074 21.6462 22.7203 21.6516 22.7334 21.6556M22.3492 21.6345L22.6772 20.7055M3.5 13.7874H6.24946C6.62859 13.7874 6.97511 14.0018 7.14433 14.341L8.11473 16.2866C8.28394 16.6258 8.63047 16.8402 9.00959 16.8402H14.5333C14.9196 16.8402 15.2714 16.6178 15.4369 16.2687L16.3426 14.3589C16.5081 14.0098 16.8598 13.7874 17.2461 13.7874H20" stroke="#2563EB" stroke-linecap="round"/>
</svg>
