<svg width="24" height="24" viewBox="0 0 24 24" fill="none" xmlns="http://www.w3.org/2000/svg">
<path d="M21.1406 1.49227C17.4302 0.765159 5.83938 0.910658 2.5 1.49235M22.532 2.21947C22.7375 8.44787 23.096 19.5438 22.9755 22.9999M22 23C20.5875 21.5815 7.44545 21.2267 4.62042 21.2267C1.79539 21.2267 1.06931 21.6809 1.44226 19.8082C1.74859 18.2701 1.52553 8.28149 1 1.87988" stroke="black" stroke-linecap="round"/>
<path d="M9 6.51098C11.6795 6.07385 17.6308 5.59302 20 7.16667M9 11.9276C11.6795 11.4905 17.6308 11.0097 20 12.5833M9 17.3443C11.6795 16.9072 17.6308 16.4263 20 18M4.9035 7.15875C4.94875 7.15172 6.04424 6.99891 5.99861 5.93328C5.94614 4.70788 4.72103 4.86774 4.31032 5.40047C4.17815 5.57204 3.90116 6.00715 4.03615 6.55104C4.14265 6.98017 4.55 7.21363 4.9035 7.15875ZM4.9035 12.5754C4.94875 12.5684 6.04424 12.4156 5.99861 11.3499C5.94614 10.1245 4.72103 10.2844 4.31032 10.8171C4.17815 10.9887 3.90116 11.4238 4.03615 11.9677C4.14265 12.3968 4.55 12.6303 4.9035 12.5754ZM4.9035 17.9921C4.94875 17.9851 6.04424 17.8322 5.99861 16.7666C5.94614 15.5412 4.72103 15.7011 4.31032 16.2338C4.17815 16.4054 3.90116 16.8405 4.03615 17.3844C4.14265 17.8135 4.55 18.047 4.9035 17.9921Z" stroke="#2563EB" stroke-linecap="round"/>
</svg>
