<svg width="24" height="24" viewBox="0 0 24 24" fill="none" xmlns="http://www.w3.org/2000/svg">
<path d="M10 17.8569C7 18.345 1 17.857 1 12C1 9.77782 1.86375 8.32848 3.09966 7.41211M7 11.9999C7.57731 11.9718 8.2606 11.9416 9 11.9131" stroke="black" stroke-linecap="round"/>
<path d="M14 6.14307C17 5.655 23 6.14307 23 12C23 15.8253 20.4405 17.3604 17.8291 17.8291M3 3L6.17093 6.17093M6.17093 6.17093C7.55784 5.92201 8.95939 5.97386 10 6.14316M6.17093 6.17093L11.8233 11.8233M11.8233 11.8233C14.6887 11.7535 17.5051 11.7585 18 12M11.8233 11.8233L17.8291 17.8291M17.8291 17.8291L21 21" stroke="#2563EB" stroke-linecap="round"/>
</svg>
