<svg width="24" height="24" viewBox="0 0 24 24" fill="none" xmlns="http://www.w3.org/2000/svg">
<path d="M21.1406 1.49227C17.4302 0.765159 5.83938 0.910658 2.5 1.49235M22.532 2.21947C22.7375 8.44787 23.096 19.5438 22.9755 22.9999M22 23C20.5875 21.5815 7.44545 21.2267 4.62042 21.2267C1.79539 21.2267 1.06931 21.6809 1.44226 19.8082C1.74859 18.2701 1.52553 8.28149 1 1.87988" stroke="black" stroke-linecap="round"/>
<path d="M9.63942 8.06312C11.9196 7.74763 16.9839 7.40059 19 8.53635M5.34063 9.01581C6.23538 9.17018 7.51202 9.07809 7.51202 8.53635V7.36344C7.51202 7.29401 7.5027 7.23058 7.48224 7.17682M5.34063 9.01581C5.12212 8.97811 4.99675 8.77295 5.01075 8.56908C5.0328 8.24811 5.01933 7.84328 5.00063 7.5216C4.98501 7.25285 5.26171 7.01632 5.55447 7.02501C6.07763 7.04055 6.76743 7.02023 7.18715 7.00054C7.34637 6.99307 7.43908 7.0634 7.48224 7.17682M5.34063 9.01581C6.00112 9.23058 7.39614 9.43537 7.6923 8.53635C7.72053 8.14211 7.71803 7.31827 7.48224 7.17682M9.63942 11.9725C11.9196 11.657 16.9839 11.31 19 12.4457M5.34063 12.9252C6.23538 13.0796 7.51202 12.9875 7.51202 12.4457V11.2728C7.51202 11.2034 7.5027 11.14 7.48224 11.0862M5.34063 12.9252C5.12212 12.8875 4.99675 12.6823 5.01075 12.4785C5.0328 12.1575 5.01933 11.7527 5.00063 11.431C4.98501 11.1622 5.26171 10.9257 5.55447 10.9344C6.07763 10.9499 6.76743 10.9296 7.18715 10.9099C7.34637 10.9025 7.43908 10.9728 7.48224 11.0862M5.34063 12.9252C5.95626 13.1505 7.275 13.4362 7.625 12.7761C7.67566 12.4746 7.71803 11.7147 7.48224 11.0862M9.63942 15.8819C11.9196 15.5664 16.9839 15.2194 19 16.3551M5.34063 16.8346C6.23538 16.9889 7.51202 16.8968 7.51202 16.3551V15.1822C7.51202 15.1128 7.5027 15.0493 7.48224 14.9956M5.34063 16.8346C5.12212 16.7969 4.99675 16.5917 5.01075 16.3878C5.0328 16.0669 5.01933 15.662 5.00063 15.3404C4.98501 15.0716 5.26171 14.8351 5.55447 14.8438C6.07763 14.8593 6.76743 14.839 7.18715 14.8193C7.34637 14.8118 7.43908 14.8822 7.48224 14.9956M5.34063 16.8346C5.95626 16.9945 7.625 17.2273 7.625 16.4892C7.625 15.6641 7.48224 14.9956 7.48224 14.9956" stroke="#2563EB" stroke-linecap="round"/>
</svg>
