<svg width="24" height="24" viewBox="0 0 24 24" fill="none" xmlns="http://www.w3.org/2000/svg">
<path d="M7.875 5.76737C11.5593 5.256 19.7423 4.6935 23 6.53442M7.875 12.104C11.5593 11.5926 19.7423 11.0301 23 12.8711M7.875 18.4406C11.5593 17.9293 19.7423 17.3668 23 19.2077" stroke="black" stroke-linecap="round"/>
<path d="M1 5.56358C1.0397 5.83463 1.59857 6.98869 1.85353 6.33907C2.15789 5.56358 2.44737 4.7604 3.75 4M1 11.9002C1.0397 12.1713 1.59857 13.3253 1.85353 12.6757C2.15789 11.9002 2.44737 11.097 3.75 10.3366M2.24232 19.9902C2.30453 19.9814 3.81083 19.7915 3.74809 18.467C3.67595 16.9438 1.99142 17.1425 1.42669 17.8047C1.24496 18.018 0.864101 18.5588 1.0497 19.2348C1.19614 19.7682 1.75626 20.0584 2.24232 19.9902Z" stroke="#2563EB" stroke-linecap="round"/>
</svg>
