<svg width="24" height="24" viewBox="0 0 24 24" fill="none" xmlns="http://www.w3.org/2000/svg">
<path d="M3.43534 14.9875V6.50468C3.43534 6.40152 3.41392 6.29958 3.39804 6.19754C3.31661 5.67436 3.62594 4.77669 5.4406 4.42925C7.94719 3.94933 19.9787 3.46942 20.4801 5.38909C20.8811 6.92483 20.6472 12.108 20.4801 14.5076" stroke="#2563EB" stroke-linecap="round"/>
<path d="M22.9866 17.3871C22.9155 17.6594 22.8268 17.9009 22.723 18.1149M22.9866 17.3871L1.05712 17.8181M22.9866 17.3871C23.0594 17.1083 22.8324 16.8834 22.3687 16.7037M2.43265 19.4748C2.61681 19.6105 2.79073 19.7182 2.93397 19.7868C3.9366 20.2667 17.4721 19.7868 18.9761 19.7868C19.8883 19.7868 20.9458 19.7604 21.7723 19.2202M2.43265 19.4748L21.7723 19.2202M2.43265 19.4748C2.25028 19.3403 2.05788 19.1785 1.87532 19.0001M21.7723 19.2202C21.9893 19.0784 22.1903 18.9012 22.3687 18.6797M22.3687 18.6797L1.87532 19.0001M22.3687 18.6797C22.5 18.5166 22.6191 18.3295 22.723 18.1149M1.87532 19.0001C1.71532 18.8437 1.56287 18.6746 1.43136 18.5001M1.43136 18.5001L22.723 18.1149M1.43136 18.5001C1.26287 18.2765 1.12875 18.044 1.05712 17.8181M1.05712 17.8181C0.985681 17.5928 0.976384 17.3739 1.05712 17.1768M1.05712 17.1768C1.19699 16.8353 1.60715 16.559 2.43265 16.4273C8.71707 16.1538 19.6403 15.6468 22.3687 16.7037M1.05712 17.1768L22.3687 16.7037" stroke="black" stroke-linecap="round"/>
</svg>
