<svg width="24" height="24" viewBox="0 0 24 24" fill="none" xmlns="http://www.w3.org/2000/svg">
<path d="M16.1566 16.0704C15.9253 14.2152 15.9716 8.41972 16.1567 6.75001M16.388 16.7662C18.3698 16.8689 21.9003 17.0482 23 16.9879M23 16.5001C22.5487 15.7939 22.4358 9.22277 22.4358 7.81023C22.4358 6.3977 22.5803 6.03466 21.9844 6.22113C21.495 6.3743 18.3168 6.26277 16.28 6" stroke="black" stroke-linecap="round"/>
<path d="M11.0704 4.15663C9.21521 3.92528 3.41972 3.97157 1.75001 4.15666M11.7662 4.38801C11.8689 6.36978 12.0482 9.90031 11.9879 11M11.5001 11C10.7939 10.5487 4.22277 10.4358 2.81023 10.4358C1.3977 10.4358 1.03466 10.5803 1.22113 9.98444C1.3743 9.49503 1.26277 6.31684 1 4.27996M11.2395 15.1119C9.72154 14.9466 4.97977 14.9797 3.61364 15.1119M11.8087 15.2772C11.8927 16.6927 12.0394 19.2145 11.9901 20M11.591 20C11.0132 19.6776 5.63681 19.597 4.4811 19.597C3.32539 19.597 3.02835 19.7002 3.18093 19.2746C3.30624 18.925 3.21499 16.6549 3 15.2" stroke="#2563EB" stroke-linecap="round"/>
</svg>
