<svg width="24" height="24" viewBox="0 0 24 24" fill="none" xmlns="http://www.w3.org/2000/svg">
<path d="M12.4999 3.49976C12.8333 3.73338 13.5999 4.48054 13.9999 5.60019M7.52862 12.7559V5.60019C7.49995 2.49902 10.984 -0.858476 14.4838 2.21691C16.4713 3.96343 16.4713 13.7258 14.4838 15.7499C13.0369 17.2234 8.57966 17.6748 7.54894 12.9461C7.53537 12.8838 7.52862 12.8196 7.52862 12.7559Z" stroke="black" stroke-linecap="round"/>
<path d="M4.05108 9.46704C3.71989 12.8503 4.84596 19.6169 11.9998 19.6169M11.9998 19.6169C19.1537 19.6169 20.28 12.8503 19.949 9.46704M11.9998 19.6169V22.7997M11.9998 22.7997C10.3367 22.833 8.62784 22.9238 7.52901 23.0002C5.78682 23.1212 18.5 23.5 16.4714 23.0002C15.6351 22.7968 13.8457 22.7628 11.9998 22.7997Z" stroke="#2563EB" stroke-linecap="round"/>
</svg>
