<svg width="24" height="24" viewBox="0 0 24 24" fill="none" xmlns="http://www.w3.org/2000/svg">
<path d="M6.49297 9.13426C5.48102 8.93595 2.31985 8.97563 1.4091 9.13428M6.72735 15C6.34211 14.6131 2.75787 14.5164 1.9874 14.5164C1.21693 14.5164 1.0189 14.6402 1.12062 14.1295C1.20416 13.71 1.14333 10.9859 1 9.23997M6.87245 9.33258C6.89664 10.0658 6.92861 11.0464 6.95449 12M6.95449 12C6.98856 13.2555 7.01208 14.4643 6.99341 15M6.95449 12H11" stroke="black" stroke-linecap="round"/>
<path d="M13.5882 12H16.5294H19.4706M16.2023 17.8863C16.4629 17.8477 22.7706 17.0062 22.5079 11.1388C22.4838 10.5997 22.4165 10.1093 22.312 9.66472M16.2023 17.8863C19.6597 17.6579 21.4165 16.3036 22.2027 14.6805M16.2023 17.8863C15.784 17.9485 15.3526 17.9435 14.9259 17.8759M22.312 9.66472C22.1812 9.10815 21.9919 8.62345 21.7557 8.20504M22.312 9.66472C22.783 10.9694 23.0296 12.9736 22.2027 14.6805M21.7557 8.20504C19.8191 4.77475 14.7261 5.79954 12.7868 8.20504C12.0258 9.14973 10.4309 11.5455 11.2081 14.5402C11.6954 16.4175 13.276 17.6147 14.9259 17.8759M21.7557 8.20504C22.4926 9.24022 23.5617 11.6644 22.6477 13.8629M22.2027 14.6805C22.3857 14.4137 22.5324 14.1401 22.6477 13.8629M14.9259 17.8759C17.1075 18.2555 21.7062 17.9842 22.6477 13.8629" stroke="#2563EB" stroke-linecap="round"/>
</svg>
