<svg width="24" height="24" viewBox="0 0 24 24" fill="none" xmlns="http://www.w3.org/2000/svg">
<path d="M6.30482 19.922C6.46997 18.9242 6.66498 17.576 6.66498 16.9102C6.66498 15.8276 15.08 16.3689 17.06 16.3689C18.2515 16.3689 18.5841 17.7983 18.6055 19.0442L18.545 21.0263L18.5 22.5C18.5 23.5826 8.6451 22.8647 7.1601 22.8647C6.49383 22.8647 6.25398 22.2229 6.20092 21.5C6.15937 20.9339 6.23236 20.3182 6.30482 19.922ZM6.30482 19.922C6.22803 20.3859 5.87964 20.7386 5.44885 20.7571M18.05 8.24931C18.38 6.08409 18.743 1.6454 17.555 1.21236C16.07 0.671052 6.66498 1.21236 6.16998 2.29496C5.77398 3.16105 6.33498 7.34724 6.66498 9.33207M8.49998 20.7571C10.315 20.5766 13.991 20.7571 15.575 20.7571M8.49998 18.5C10.48 18.1391 14.387 18.1011 15.575 18.5341M4.18998 9.33192L3.86638 7.56255C3.76846 7.02717 4.05028 6.49422 4.53461 6.36164C5.0634 6.21689 5.68955 6.08409 6.16998 6.08409M18.3357 5.5C19.1607 5.31957 20.525 5.21801 20.525 6.08409V8.24935M7.65498 6.6254C9.79998 6.26453 14.486 5.65105 16.07 6.08409M7.65498 3.919C10.13 3.55813 15.278 2.94466 16.07 3.3777" stroke="black" stroke-linecap="round"/>
<path d="M1.22 9.33188H6.17C8.15 9.33188 15.08 8.24927 18.545 8.24927C22.01 8.24927 23 8.79057 23 10.4145V19.4899M23 19.4899C23 20.1351 22.4871 20.6369 21.9007 20.5657L19.5602 20.2813C19.0047 20.2138 18.616 19.6552 18.6055 19.0442M23 19.4899C23 21.4818 20.03 21.3441 18.545 21.0263L18.6055 19.0442M18.6055 19.0442C18.5841 17.7982 18.2515 16.3688 17.06 16.3688C15.08 16.3688 6.665 15.8275 6.665 16.9101C6.665 17.5759 6.46999 18.9241 6.30483 19.9219M6.30483 19.9219C6.22805 20.3858 5.87965 20.7385 5.44886 20.757C3.86256 20.8252 1.55942 20.56 1.22 19.0754M6.30483 19.9219C6.23237 20.3181 6.15938 20.9339 6.20094 21.5C2.36168 21.5 1.28062 19.8836 1.22 19.0754M1.22 19.0754C0.725 16.9101 1.22 10.9558 1.22 10.4145M20.4295 12.0305C20.4743 12.0235 21.5588 11.8707 21.5136 10.8058C21.5095 10.708 21.4979 10.619 21.4799 10.5383C21.4575 10.4373 21.4249 10.3493 21.3843 10.2734C21.0513 9.65081 20.1757 9.8368 19.8422 10.2734C19.7114 10.4448 19.4372 10.8797 19.5708 11.4232C19.6546 11.7639 19.9263 11.9812 20.21 12.0286C20.2834 12.0409 20.3575 12.0418 20.4295 12.0305Z" stroke="#2563EB" stroke-linecap="round"/>
</svg>
