<svg width="24" height="24" viewBox="0 0 24 24" fill="none" xmlns="http://www.w3.org/2000/svg">
<path d="M19.8367 9.20578C18.2383 10.8594 12.4704 13.5643 10.332 11.0791C10.3278 11.0743 10.3241 11.0692 10.321 11.0636C10.1567 10.7753 10.1105 9.96329 11.7776 9.86789C13.8812 9.7475 16.37 7.27964 14.9775 5.92533M22 6.888C21.1309 4.43017 17.36 -0.136377 9.22979 1.26007C7.80759 1.59113 5.22987 3.33669 7.62981 4.20947M9.20021 2.64465C7.81751 3.81839 5.46693 6.31635 7.12617 6.91827C7.42248 7.02576 7.83729 7.03865 8.37062 6.91827M12.785 3.24648C12.1727 3.00571 10.6517 2.84319 9.46656 4.11926C8.28139 5.39532 8.64673 8.14208 8.90351 9.35595C9.1109 10.3363 10.9061 10.3491 10.9183 8.9647C10.9282 7.85115 10.948 6.28617 11.9554 6.19588C12.9922 6.10296 12.8442 6.7677 15.0072 6.55703" stroke="black" stroke-linecap="round"/>
<path d="M11.3629 9.2356C10.4444 10.0181 8.67849 11.252 8.48886 13.2985M7.48114 11.1017L8.04409 10.0483M6.29679 11.011L6.08939 9.47616M5.40744 11.7937L4.28153 11.0413M5.08173 13.1781H3.74842M7.57055 12.9974C7.42249 13.5692 8.28168 14.4721 9.11127 13.5692M6.94781 17.7827C5.78454 17.7226 3.57234 17.1348 4.01206 15.265C4.01363 15.2583 4.01579 15.2517 4.01862 15.2454C4.19169 14.8612 4.76897 14.1048 5.73304 14.0809M11.1849 14.3521C11.8862 14.5829 13.1345 15.4356 12.5183 17.0006C11.902 18.5656 9.43682 19.2377 8.28128 19.3781M12.6073 16.9098C13.4369 17.4215 14.8117 18.8661 13.6739 20.5514C12.5361 22.2368 9.1999 23.2902 6.7703 22.929C4.8647 22.6457 2.04741 21.4362 2 18.9563C2 18.0836 2.5511 16.7895 4.39997 16.9098M8.69032 12.778C9.65151 12.6296 11.3987 12.7381 11.0962 14.3215C10.711 16.3379 8.63699 16.7894 8.01477 16.7894C7.39256 16.7894 5.52592 15.7059 5.79258 13.7497C6.05578 11.8189 7.56004 11.8231 8.59624 12.7495C8.62209 12.7726 8.65627 12.7832 8.69032 12.778Z" stroke="#2563EB" stroke-linecap="round"/>
</svg>
