<svg width="24" height="24" viewBox="0 0 24 24" fill="none" xmlns="http://www.w3.org/2000/svg">
<path d="M1.18088 7.75268C0.230859 12.2831 3.23576 13.6096 5.24264 13.4792C5.44154 13.4663 5.60343 13.6586 5.52957 13.8533C5.15388 14.8436 4.22708 16.381 2.59775 16.9403C0.708474 17.5889 1.65311 19.012 2.36159 19.6426C3.57612 20.7235 7.9128 19.5707 10.1548 13.1572C13.4611 3.69945 2.59754 0.997004 1.18088 7.75268Z" stroke="black" stroke-linecap="round"/>
<path d="M13.4031 7.75268C12.4531 12.2831 15.458 13.6096 17.4649 13.4792C17.6638 13.4663 17.8257 13.6586 17.7518 13.8533C17.3761 14.8436 16.4493 16.381 14.82 16.9403C12.9307 17.5889 13.8753 19.012 14.5838 19.6426C15.7983 20.7235 20.135 19.5707 22.3771 13.1572C25.6833 3.69945 14.8198 0.997004 13.4031 7.75268Z" stroke="#2563EB" stroke-linecap="round"/>
</svg>
