<svg width="24" height="24" viewBox="0 0 24 24" fill="none" xmlns="http://www.w3.org/2000/svg">
<path d="M11.6861 21.5819C12.1296 22.0092 12.8597 22.1321 13.4612 21.842C14.0511 21.5576 14.3317 20.9656 14.1875 20.4129M11.6861 21.5819C11.6066 21.5053 11.5364 21.4189 11.4777 21.3234C11.0916 20.6949 11.3537 19.9081 12.0631 19.5661C12.7725 19.224 13.6605 19.4562 14.0466 20.0847C14.1116 20.1906 14.1583 20.3009 14.1875 20.4129M11.6861 21.5819C12.3324 21.7882 13.7375 21.8433 14.1875 20.4129" stroke="black" stroke-linecap="round"/>
<path d="M8.01197 7.71845C7.84948 6.56681 9.32355 3.34201 13.5365 4.1196C17.2736 4.8094 18.0861 8.43822 15.4863 10.5975C14.0239 11.9468 12.0416 14.2252 12.5616 16.6436" stroke="#2563EB" stroke-linecap="round"/>
</svg>
