<svg width="24" height="24" viewBox="0 0 24 24" fill="none" xmlns="http://www.w3.org/2000/svg">
<path d="M3.54171 17.4118C3.49271 16.7169 2.94445 15.17 1.64717 15.8441C0.716223 16.3277 0.923109 17.3618 1.43485 17.8622M3.11721 18.3459C2.7579 17.8788 1.26191 18.1723 1.59832 19.4967C1.77995 20.2118 3.14988 20.5919 3.78683 20.2306M1.85346 21.6086C2.08211 21.8421 2.69294 22.2057 3.30703 21.7921M6.10618 21.2313C5.93741 20.9033 5.43002 20.4207 4.7506 21.1146C3.90133 21.9819 5.09358 22.7657 5.46922 22.6824M7.33101 20.6809C7.84276 20.8032 8.92868 21.3241 8.68659 22.3321C8.47427 23.216 7.39634 23.0604 6.84104 22.7824M5.9261 17.4786C5.8869 17.5453 4.74473 18.2736 4.17855 18.6294M7.00417 18.6797L5.94257 20.2975" stroke="black" stroke-linecap="round"/>
<path d="M9.12984 8.50258L9.53357 8.79754C9.63591 8.65746 9.65833 8.47434 9.59279 8.31371C9.52727 8.15308 9.38315 8.0379 9.21203 8.00938L9.12984 8.50258ZM4.06686 10.1757L3.70969 9.82578L4.06686 10.1757ZM2.82843 12.0347L2.37 11.8351C2.29603 12.005 2.32208 12.2018 2.43768 12.3467C2.55329 12.4915 2.7395 12.5605 2.92156 12.5259L2.82843 12.0347ZM7.16292 11.9603L7.09892 12.4562C7.32065 12.4848 7.53442 12.3628 7.62249 12.1573L7.16292 11.9603ZM12.2077 21.6084L11.72 21.4983C11.6782 21.6834 11.7448 21.8762 11.8919 21.9961C12.0391 22.1159 12.2414 22.1421 12.4143 22.0637L12.2077 21.6084ZM14.0289 20.3443L13.6717 19.9943L13.6659 20.0005L14.0289 20.3443ZM15.668 15.1762L16.1618 15.098C16.1344 14.925 16.0184 14.7789 15.8561 14.7129C15.6937 14.647 15.5087 14.6709 15.3684 14.776L15.668 15.1762ZM12.2805 17.1654L12.0828 16.7061C11.8784 16.7941 11.7568 17.0066 11.7844 17.2274L12.2805 17.1654ZM7.58215 15.7527L7.22498 15.4028L7.58215 15.7527ZM11.2246 12.0347L11.5817 12.3846L11.2246 12.0347ZM12.208 13.0385L12.5652 13.3884L12.208 13.0385ZM8.5656 16.7565L8.20844 16.4066L8.5656 16.7565ZM11.2198 14.0121C11.0181 13.8234 10.7017 13.8339 10.513 14.0356C10.3244 14.2372 10.3349 14.5536 10.5365 14.7423L11.2198 14.0121ZM13.4335 16.8741C13.6728 17.0118 13.9785 16.9294 14.1162 16.69C14.2539 16.4507 14.1715 16.145 13.9322 16.0073L13.4335 16.8741ZM8.33085 10.2714C8.19884 10.0288 7.8952 9.93921 7.65266 10.0712C7.41011 10.2032 7.3205 10.5069 7.45251 10.7494L8.33085 10.2714ZM9.54122 13.7073C9.72572 13.9128 10.0419 13.9298 10.2473 13.7453C10.4528 13.5608 10.4697 13.2446 10.2852 13.0392L9.54122 13.7073ZM10.2337 15.013C10.0306 14.826 9.71432 14.8389 9.52722 15.042C9.34013 15.2451 9.35311 15.5615 9.55622 15.7485L10.2337 15.013ZM12.2443 17.184L11.9763 17.6061L12.2015 17.7492L12.4458 17.6417L12.2443 17.184ZM18.2291 13.5928C18.4223 13.3956 18.4191 13.079 18.2218 12.8858C18.0246 12.6925 17.708 12.6958 17.5147 12.893L18.2291 13.5928ZM11.0059 6.23448L10.6497 5.88365L10.6488 5.88457L11.0059 6.23448ZM8.54102 14.7127C8.72644 14.9173 9.04264 14.9329 9.24727 14.7474C9.45189 14.562 9.46745 14.2458 9.28202 14.0412L8.54102 14.7127ZM19.0282 11.1457C18.8606 11.3652 18.9028 11.679 19.1223 11.8466C19.3418 12.0141 19.6556 11.972 19.8231 11.7524L19.0282 11.1457ZM22.9895 1.01067L23.4891 0.990555L23.4706 0.530409L23.0105 0.511108L22.9895 1.01067ZM17.6921 1.343C17.4313 1.43391 17.2936 1.71898 17.3845 1.97973C17.4755 2.24048 17.7605 2.37817 18.0213 2.28727L17.6921 1.343ZM16.6556 2.8368C16.9068 2.722 17.0173 2.42534 16.9025 2.17419C16.7877 1.92304 16.491 1.81251 16.2399 1.92731L16.6556 2.8368ZM19.085 1.31364C18.9442 1.07605 18.6376 0.99754 18.4 1.13828C18.1624 1.27901 18.0839 1.58571 18.2246 1.82329L19.085 1.31364ZM20.3303 3.74351L20.6875 3.39357L20.6825 3.38861L20.3303 3.74351ZM22.2015 5.86251C22.4375 6.0059 22.7451 5.93083 22.8884 5.69483C23.0318 5.45883 22.9568 5.15128 22.7208 5.00789L22.2015 5.86251ZM12.3912 19.9755L11.8916 19.9573L12.3912 19.9755ZM14.4692 19.8429L14.8625 20.1517L14.4692 19.8429ZM14.8313 19.3284L15.2547 19.5943L14.8313 19.3284ZM12.3904 18.6795L11.8907 18.6963L12.3904 18.6795ZM15.4719 17.9364L15.9492 18.0852L15.4719 17.9364ZM12.3408 17.8531L11.842 17.8879L12.3408 17.8531ZM12.3121 17.4784L11.8139 17.5211L12.3121 17.4784ZM15.5949 17.4784L16.0825 17.5888L15.5949 17.4784ZM15.6791 17.0269L16.1738 17.0999L15.6791 17.0269ZM12.8043 16.9274L12.5887 16.4763L12.8043 16.9274ZM13.3572 16.644L13.1226 16.2025L13.3572 16.644ZM14.9239 15.7062L14.6439 15.292L14.9239 15.7062ZM15.7286 15.7062L16.2274 15.6709L15.7286 15.7062ZM3.1474 11.397L2.71316 11.1491L3.1474 11.397ZM3.45603 10.9104L3.04695 10.6229H3.04695L3.45603 10.9104ZM3.76338 10.5104L3.38028 10.1891L3.76338 10.5104ZM4.37947 9.87854L4.04822 9.50401L4.37947 9.87854ZM5.16291 9.29372L4.89837 8.86944L5.16291 9.29372ZM5.59879 9.0475L5.37201 8.60189L5.59879 9.0475ZM7.80464 10.6203L8.24621 10.8548L7.80464 10.6203ZM6.77678 8.60313L6.65287 8.11873L6.77678 8.60313ZM7.25383 8.50258L7.17168 8.00937L7.25383 8.50258ZM8.46265 9.46515L8.88676 9.72997L8.46265 9.46515ZM8.66223 9.1524L9.08106 9.42549L8.66223 9.1524ZM7.93931 16.4066C7.85658 16.3222 7.85658 16.187 7.93931 16.1026L7.22498 15.4028C6.76135 15.876 6.76135 16.6332 7.22498 17.1064L7.93931 16.4066ZM7.93931 16.1026L11.5817 12.3846L10.8674 11.6847L7.22498 15.4028L7.93931 16.1026ZM11.5817 12.3846C11.6589 12.3058 11.7737 12.3058 11.8509 12.3846L12.5652 11.6847C12.096 11.2058 11.3367 11.2058 10.8674 11.6847L11.5817 12.3846ZM11.8509 12.3846C11.9336 12.469 11.9336 12.6042 11.8509 12.6886L12.5652 13.3884C13.0288 12.9152 13.0288 12.158 12.5652 11.6847L11.8509 12.3846ZM11.8509 12.6886L8.20844 16.4066L8.92277 17.1064L12.5652 13.3884L11.8509 12.6886ZM8.20844 16.4066C8.13131 16.4853 8.01643 16.4853 7.93931 16.4066L7.22498 17.1064C7.69422 17.5854 8.45353 17.5854 8.92277 17.1064L8.20844 16.4066ZM17.5569 8.09991C17.5569 8.9931 16.8505 9.69916 16.0012 9.69916V10.6992C17.4225 10.6992 18.5569 9.52549 18.5569 8.09991H17.5569ZM16.0012 9.69916C15.1519 9.69916 14.4456 8.9931 14.4456 8.09991H13.4456C13.4456 9.52549 14.5799 10.6992 16.0012 10.6992V9.69916ZM14.4456 8.09991C14.4456 7.20672 15.1519 6.50066 16.0012 6.50066V5.50066C14.5799 5.50066 13.4456 6.67433 13.4456 8.09991H14.4456ZM16.0012 6.50066C16.8505 6.50066 17.5569 7.20672 17.5569 8.09991H18.5569C18.5569 6.67433 17.4225 5.50066 16.0012 5.50066V6.50066ZM10.5365 14.7423C11.4413 15.5889 12.4017 16.2805 13.4335 16.8741L13.9322 16.0073C12.9606 15.4483 12.0634 14.8015 11.2198 14.0121L10.5365 14.7423ZM7.45251 10.7494C8.01691 11.7864 8.71308 12.7852 9.54122 13.7073L10.2852 13.0392C9.51071 12.1767 8.85918 11.2421 8.33085 10.2714L7.45251 10.7494ZM9.55622 15.7485C10.3257 16.4573 11.1326 17.0702 11.9763 17.6061L12.5124 16.762C11.717 16.2568 10.9577 15.6799 10.2337 15.013L9.55622 15.7485ZM6.71801 12.2391C7.24031 13.0959 7.84139 13.9406 8.54102 14.7127L9.28202 14.0412C8.63395 13.326 8.06945 12.5348 7.57187 11.7186L6.71801 12.2391ZM19.8231 11.7524C22.363 8.42466 23.632 4.53926 23.4891 0.990555L22.4899 1.03078C22.6224 4.32028 21.4435 7.9811 19.0282 11.1457L19.8231 11.7524ZM23.0105 0.511108C21.2792 0.438484 19.4715 0.722635 17.6921 1.343L18.0213 2.28727C19.6928 1.70451 21.3748 1.44337 22.9686 1.51023L23.0105 0.511108ZM16.2399 1.92731C14.2611 2.8318 12.3489 4.15809 10.6497 5.88365L11.3622 6.58531C12.9784 4.94401 14.7907 3.68922 16.6556 2.8368L16.2399 1.92731ZM18.2246 1.82329C18.7168 2.65428 19.2885 3.41407 19.9781 4.09841L20.6825 3.38861C20.0608 2.77164 19.5398 2.0814 19.085 1.31364L18.2246 1.82329ZM19.9732 4.09341C20.6585 4.79296 21.4016 5.37652 22.2015 5.86251L22.7208 5.00789C21.9908 4.56438 21.3134 4.03253 20.6875 3.3936L19.9732 4.09341ZM11.8258 20.8572C11.7985 21.0898 11.7635 21.3055 11.72 21.4983L12.6954 21.7185C12.7484 21.4837 12.7887 21.2321 12.819 20.9736L11.8258 20.8572ZM12.4143 22.0637C12.7398 21.916 13.0638 21.7415 13.3756 21.5355L12.8244 20.7011C12.5613 20.8749 12.2843 21.0246 12.0011 21.1531L12.4143 22.0637ZM12.1962 21.3992L12.9738 21.6021L13.2262 20.6345L12.4486 20.4316L12.1962 21.3992ZM11.8646 20.4494C11.8541 20.589 11.8412 20.7254 11.8258 20.8572L12.819 20.9736C12.8363 20.8264 12.8504 20.676 12.8618 20.5242L11.8646 20.4494ZM13.3756 21.5355C13.5945 21.3908 13.8077 21.2305 14.0114 21.053L13.3542 20.2992C13.1864 20.4455 13.0089 20.5792 12.8244 20.7011L13.3756 21.5355ZM14.0114 21.053C14.1425 20.9386 14.2697 20.8171 14.3919 20.6881L13.6659 20.0005C13.5664 20.1055 13.4623 20.205 13.3542 20.2992L14.0114 21.053ZM12.2922 20.9817L13.6118 21.171L13.7538 20.1811L12.4342 19.9918L12.2922 20.9817ZM11.8916 19.9573C11.8855 20.1237 11.8766 20.2884 11.8646 20.4494L12.8618 20.5242C12.8749 20.349 12.8844 20.1714 12.8909 19.9938L11.8916 19.9573ZM14.3861 20.6942C14.4351 20.6441 14.4832 20.5935 14.5303 20.5422L13.7943 19.8653C13.7543 19.9088 13.7134 19.9518 13.6717 19.9944L14.3861 20.6942ZM12.3273 20.4714L14.0984 20.6997L14.2262 19.7079L12.4551 19.4796L12.3273 20.4714ZM14.5303 20.5422C14.6469 20.4155 14.7576 20.2852 14.8625 20.1517L14.076 19.5341C13.9872 19.6471 13.8933 19.7576 13.7943 19.8653L14.5303 20.5422ZM11.9012 19.5335C11.8998 19.6748 11.8967 19.8165 11.8916 19.9573L12.8909 19.9938C12.8964 19.8434 12.8997 19.6928 12.9012 19.5434L11.9012 19.5335ZM14.542 19.3482L12.474 19.0438L12.3284 20.0331L14.3964 20.3375L14.542 19.3482ZM11.8996 19.0551C11.9022 19.2125 11.9028 19.3727 11.9012 19.5335L12.9012 19.5434C12.9029 19.3732 12.9022 19.2045 12.8995 19.0391L11.8996 19.0551ZM14.8625 20.1517C15.0041 19.9713 15.1348 19.7853 15.2547 19.5943L14.4078 19.0626C14.3065 19.224 14.1959 19.3814 14.076 19.5341L14.8625 20.1517ZM12.3421 19.5438L14.7738 19.8251L14.8887 18.8317L12.457 18.5504L12.3421 19.5438ZM15.2547 19.5943C15.3628 19.4221 15.462 19.246 15.5524 19.0665L14.6593 18.6167C14.583 18.7683 14.4991 18.9171 14.4078 19.0626L15.2547 19.5943ZM11.8907 18.6963C11.8946 18.8136 11.8977 18.9335 11.8996 19.0551L12.8995 19.0391C12.8975 18.9113 12.8943 18.7855 12.8901 18.6626L11.8907 18.6963ZM15.1357 18.3425L12.4202 18.1804L12.3606 19.1786L15.076 19.3408L15.1357 18.3425ZM11.8641 18.2262C11.8758 18.4188 11.8842 18.504 11.8907 18.6963L12.8901 18.6626C12.883 18.4523 12.8726 18.3353 12.8622 18.1653L11.8641 18.2262ZM15.5524 19.0665C15.6413 18.8901 15.7216 18.7103 15.7934 18.528L14.8628 18.1619C14.8022 18.3159 14.7344 18.4677 14.6593 18.6167L15.5524 19.0665ZM12.338 18.6951L15.303 18.8443L15.3532 17.8456L12.3883 17.6964L12.338 18.6951ZM15.7934 18.528C15.8508 18.382 15.9028 18.2343 15.9492 18.0852L14.9945 17.7877C14.9552 17.9137 14.9113 18.0385 14.8628 18.1619L15.7934 18.528ZM11.842 17.8879C11.8499 18 11.8573 18.1147 11.8641 18.2262L12.8622 18.1653C12.8553 18.0514 12.8477 17.9337 12.8396 17.8183L11.842 17.8879ZM15.4852 17.4366L12.3541 17.3533L12.3275 18.3529L15.4585 18.4363L15.4852 17.4366ZM11.7844 17.2274C11.7937 17.3018 11.8037 17.4023 11.8139 17.5211L12.8102 17.4357C12.7996 17.3116 12.7883 17.1964 12.7767 17.1033L11.7844 17.2274ZM11.8139 17.5211C11.8235 17.6333 11.833 17.7585 11.842 17.8879L12.8396 17.8183C12.8303 17.6853 12.8204 17.5547 12.8102 17.4357L11.8139 17.5211ZM15.9492 18.0852C16.0003 17.9213 16.0447 17.7557 16.0825 17.5888L15.1072 17.3679C15.0752 17.5091 15.0377 17.6491 14.9945 17.7877L15.9492 18.0852ZM12.3121 17.9784H15.5949V16.9784H12.3121V17.9784ZM16.0825 17.5888C16.1192 17.4269 16.1496 17.2638 16.1738 17.0999L15.1845 16.954C15.164 17.0929 15.1382 17.231 15.1072 17.3679L16.0825 17.5888ZM12.5887 16.4763C12.4207 16.5566 12.2521 16.6332 12.0828 16.7061L12.4783 17.6246C12.6598 17.5464 12.8404 17.4644 13.02 17.3786L12.5887 16.4763ZM15.6964 16.5272L12.8216 16.4277L12.787 17.4271L15.6618 17.5266L15.6964 16.5272ZM12.4458 17.6417C12.8304 17.4724 13.2128 17.2869 13.5918 17.0855L13.1226 16.2025C12.7651 16.3924 12.4048 16.5671 12.0429 16.7264L12.4458 17.6417ZM13.5918 17.0855C15.2286 16.2158 16.8039 15.0476 18.2291 13.5928L17.5147 12.893C16.1598 14.2761 14.6668 15.3819 13.1226 16.2025L13.5918 17.0855ZM16.1738 17.0999C16.1941 16.9622 16.21 16.8239 16.2215 16.6853L15.2249 16.6027C15.2152 16.7202 15.2017 16.8374 15.1845 16.954L16.1738 17.0999ZM13.3572 17.144H15.7232V16.144H13.3572V17.144ZM16.2215 16.6853C16.2329 16.5481 16.2399 16.4106 16.2427 16.2729L15.2429 16.2528C15.2405 16.3697 15.2345 16.4864 15.2249 16.6027L16.2215 16.6853ZM13.9039 15.7655C13.4702 16.0273 13.0318 16.2645 12.5887 16.4763L13.02 17.3786C13.4937 17.1521 13.9606 16.8993 14.4207 16.6216L13.9039 15.7655ZM15.7647 15.7633L14.1842 15.694L14.1404 16.693L15.7209 16.7624L15.7647 15.7633ZM15.3684 14.776C15.1284 14.9556 14.8869 15.1277 14.6439 15.292L15.204 16.1204C15.4607 15.9468 15.7153 15.7654 15.9676 15.5765L15.3684 14.776ZM14.6439 15.292C14.3988 15.4577 14.1521 15.6156 13.9039 15.7655L14.4207 16.6216C14.684 16.4626 14.9451 16.2954 15.204 16.1204L14.6439 15.292ZM16.2427 16.2729C16.2467 16.0724 16.2416 15.8715 16.2274 15.6709L15.2299 15.7415C15.242 15.912 15.2463 16.0826 15.2429 16.2528L16.2427 16.2729ZM16.2274 15.6709C16.2138 15.4795 16.192 15.2884 16.1618 15.098L15.1742 15.2544C15.1998 15.4164 15.2184 15.5789 15.2299 15.7415L16.2274 15.6709ZM14.9239 16.2062H15.7286V15.2062H14.9239V16.2062ZM2.71316 11.1491C2.58514 11.3734 2.47123 11.6026 2.37 11.8351L3.28686 12.2343C3.37449 12.033 3.47241 11.8362 3.58163 11.6449L2.71316 11.1491ZM2.92156 12.5259C3.24668 12.4643 3.58675 12.4164 3.94013 12.3831L3.84636 11.3875C3.4635 11.4236 3.09252 11.4757 2.7353 11.5434L2.92156 12.5259ZM2.87353 11.8154L3.61938 12.3036L4.16711 11.467L3.42126 10.9787L2.87353 11.8154ZM3.04695 10.6229C2.92627 10.7947 2.81525 10.9703 2.71316 11.1491L3.58163 11.6449C3.66871 11.4923 3.76302 11.3432 3.8651 11.198L3.04695 10.6229ZM3.94013 12.3831C4.14329 12.364 4.35078 12.3497 4.56229 12.3404L4.51842 11.3414C4.29064 11.3514 4.0665 11.3668 3.84636 11.3875L3.94013 12.3831ZM3.13043 11.2899L4.21476 12.2203L4.86596 11.4614L3.78163 10.531L3.13043 11.2899ZM3.70969 9.82578C3.59396 9.94391 3.48425 10.0651 3.38028 10.1891L4.14648 10.8317C4.23409 10.7272 4.32652 10.6251 4.42402 10.5256L3.70969 9.82578ZM3.38028 10.1891C3.26179 10.3304 3.15082 10.4752 3.04695 10.6229L3.8651 11.198C3.95296 11.0729 4.04663 10.9507 4.14648 10.8317L3.38028 10.1891ZM4.56229 12.3404C4.75902 12.3318 4.95919 12.3274 5.16254 12.3276L5.16328 11.3276C4.94532 11.3274 4.73028 11.3321 4.51842 11.3414L4.56229 12.3404ZM3.4207 10.8745L4.82023 12.1917L5.50559 11.4635L4.10606 10.1463L3.4207 10.8745ZM5.16254 12.3276C5.32162 12.3277 5.48264 12.3306 5.64547 12.3362L5.68005 11.3368C5.50608 11.3308 5.33378 11.3277 5.16328 11.3276L5.16254 12.3276ZM6.02329 11.4901L4.42739 9.82925L3.70633 10.5221L5.30223 12.1829L6.02329 11.4901ZM4.04822 9.50401C3.9325 9.60636 3.81957 9.71363 3.70969 9.82578L4.42402 10.5256C4.51723 10.4304 4.61287 10.3396 4.71072 10.2531L4.04822 9.50401ZM5.64547 12.3362C5.83424 12.3427 6.02542 12.353 6.21883 12.3671L6.2916 11.3698C6.08563 11.3547 5.88171 11.3438 5.68005 11.3368L5.64547 12.3362ZM4.01564 10.2215L5.89138 12.2114L6.61905 11.5255L4.74331 9.53558L4.01564 10.2215ZM6.21883 12.3671C6.35948 12.3774 6.5013 12.3897 6.64421 12.404L6.74414 11.409C6.59225 11.3938 6.44138 11.3807 6.2916 11.3698L6.21883 12.3671ZM6.64421 12.404C6.79461 12.4191 6.94621 12.4365 7.09892 12.4562L7.22692 11.4644C7.06493 11.4435 6.90397 11.4251 6.74414 11.409L6.64421 12.404ZM4.42554 9.19496C4.29685 9.29243 4.17097 9.39545 4.04822 9.50401L4.71072 10.2531C4.8145 10.1613 4.92077 10.0743 5.02928 9.99215L4.42554 9.19496ZM7.07509 11.5826L5.10832 9.26966L4.3465 9.91745L6.31327 12.2304L7.07509 11.5826ZM4.89837 8.86944C4.73713 8.96997 4.57934 9.07849 4.42554 9.19496L5.02928 9.99215C5.15895 9.89395 5.29182 9.80257 5.42745 9.71801L4.89837 8.86944ZM4.76064 9.59067L6.74267 12.2758L7.54721 11.6819L5.56519 8.99678L4.76064 9.59067ZM6.92632 11.2459C6.84311 11.4237 6.76296 11.602 6.68584 11.7808L7.60404 12.1769C7.67715 12.0074 7.75314 11.8383 7.83204 11.6698L6.92632 11.2459ZM5.37201 8.60189C5.21129 8.68368 5.05325 8.77287 4.89837 8.86944L5.42745 9.71801C5.55773 9.63678 5.69058 9.56182 5.82558 9.49311L5.37201 8.60189ZM7.78136 11.1608L6.00097 8.75043L5.19661 9.34457L6.977 11.7549L7.78136 11.1608ZM5.80188 8.40326C5.65675 8.46374 5.51335 8.52995 5.37201 8.60189L5.82558 9.49311C5.94431 9.43268 6.06473 9.37708 6.18656 9.32631L5.80188 8.40326ZM7.62249 12.1573C7.7541 11.8502 7.8957 11.5444 8.04729 11.2409L7.15266 10.7941C6.99233 11.1151 6.84257 11.4386 6.70336 11.7634L7.62249 12.1573ZM5.59344 9.16373L7.19919 11.3165L8.00076 10.7186L6.39501 8.56583L5.59344 9.16373ZM8.04729 11.2409C8.11179 11.1118 8.1781 10.983 8.24621 10.8548L7.36306 10.3857C7.29101 10.5214 7.22088 10.6575 7.15266 10.7941L8.04729 11.2409ZM6.21852 8.24687C6.07828 8.29386 5.93931 8.34599 5.80188 8.40326L6.18656 9.32631C6.30192 9.27824 6.41855 9.23448 6.53623 9.19505L6.21852 8.24687ZM8.20435 10.3199L6.77709 8.42058L5.97766 9.02133L7.40492 10.9206L8.20435 10.3199ZM6.65287 8.11873C6.50697 8.15605 6.36208 8.19876 6.21852 8.24687L6.53623 9.19505C6.6567 9.15469 6.77827 9.11885 6.90069 9.08753L6.65287 8.11873ZM8.24621 10.8548C8.30905 10.7365 8.37342 10.6186 8.43932 10.5013L7.56736 10.0117C7.49763 10.1359 7.42953 10.2606 7.36306 10.3857L8.24621 10.8548ZM8.43932 10.5013C8.76638 9.91873 9.13116 9.34833 9.53357 8.79754L8.72611 8.20761C8.29956 8.79145 7.91334 9.39545 7.56736 10.0117L8.43932 10.5013ZM6.37522 8.90103L7.60178 10.5544L8.4049 9.95856L7.17834 8.30522L6.37522 8.90103ZM7.82374 9.55261C7.49252 10.1091 7.19364 10.6747 6.92632 11.2459L7.83204 11.6698C8.08549 11.1282 8.36891 10.5919 8.68305 10.0641L7.82374 9.55261ZM7.17168 8.00937C6.99766 8.03836 6.82456 8.07481 6.65287 8.11873L6.90069 9.08753C7.04474 9.05068 7.18997 9.0201 7.33597 8.99578L7.17168 8.00937ZM8.65042 9.50442L7.65085 8.19865L6.8568 8.8065L7.85637 10.1123L8.65042 9.50442ZM7.54813 7.95845C7.42229 7.97157 7.29675 7.98854 7.17168 8.00937L7.33597 8.99578C7.4409 8.97831 7.54623 8.96407 7.65181 8.95306L7.54813 7.95845ZM8.03853 9.20033C7.96548 9.31733 7.89389 9.43477 7.82374 9.55261L8.68305 10.0641C8.74957 9.95231 8.81747 9.84093 8.88676 9.72997L8.03853 9.20033ZM7.21987 8.7806L8.08255 9.79L8.84274 9.14031L7.98007 8.13091L7.21987 8.7806ZM10.6488 5.88457C9.72485 6.82764 8.92484 7.83422 8.2434 8.8793L9.08106 9.42549C9.72734 8.43434 10.4863 7.47941 11.3631 6.58438L10.6488 5.88457ZM8.2434 8.8793C8.17388 8.98592 8.10559 9.09294 8.03853 9.20033L8.88676 9.72997C8.95036 9.62812 9.01512 9.52662 9.08106 9.42549L8.2434 8.8793ZM9.21203 8.00938C8.84075 7.9475 8.46514 7.91965 8.08992 7.92582L8.10636 8.92569C8.42115 8.92051 8.73624 8.94388 9.04764 8.99578L9.21203 8.00938ZM8.08992 7.92582C7.90906 7.9288 7.72829 7.93967 7.54813 7.95845L7.65181 8.95306C7.80296 8.93731 7.95462 8.92818 8.10636 8.92569L8.08992 7.92582ZM9.05719 8.84579L8.4931 8.11915L7.70318 8.73236L8.26727 9.459L9.05719 8.84579Z" fill="#2563EB"/>
</svg>
