<svg width="24" height="24" viewBox="0 0 24 24" fill="none" xmlns="http://www.w3.org/2000/svg">
<path d="M14.7713 2.50075L12.9195 2.65961C12.8226 2.66792 12.7332 2.61142 12.7042 2.52548C12.5765 2.1464 12.3292 1.50024 12.0694 1.09156C11.7881 0.649162 11.3004 1.91127 11.055 2.71158C11.0299 2.79312 10.9502 2.84962 10.8586 2.85223C10.505 2.86228 9.8687 2.90546 9.27469 3.02558C8.40522 3.2014 9.83362 3.96329 10.3305 4.43214C10.8273 4.90099 9.39888 6.13173 9.70941 6.83502C10.0199 7.5383 11.5104 5.78009 11.8831 5.54567C12.2557 5.31124 13.622 6.77641 14.1809 6.83502C14.7399 6.89362 13.8704 4.9596 13.622 4.43214C13.4688 4.10679 14.241 3.38889 14.9253 2.85333C15.0814 2.73119 14.9749 2.48329 14.7713 2.50075Z" stroke="#2563EB"/>
<path d="M23 15.6818V22.2102C23 22.2958 22.9256 22.3661 22.8317 22.3692L3.79365 23M23 15.6818L19.5325 14.734C19.5162 14.7295 19.4993 14.7273 19.4823 14.7273L16.5706 14.9288M23 15.6818L16.5396 16.0029M3.79365 23V16.6364M3.79365 23L3.59111 22.9308M3.79365 16.6364L10.0794 16.324M3.79365 16.6364L3.59111 16.5672M16.5706 14.9288L16.5396 16.0029M16.5706 14.9288L16.7143 9.95455M16.3651 22.0455L16.5396 16.0029M16.5396 16.0029L10.0794 16.324M16.7143 9.95455H10.0794M16.7143 9.95455L13.5983 9.00816C13.5805 9.00276 13.5619 9 13.5431 9H7.28571M10.0794 9.95455V16.324M10.0794 9.95455L9.97129 9.91762M7.28571 9L6.93651 15.0455M7.28571 9L7.51316 9.07771M6.93651 15.0455L1 15.6818M6.93651 15.0455L7.19191 15.1494M10.0794 16.324V22.3636M10.0794 16.324L9.8033 16.2117M1 15.6818V21.9352C1 22.0015 1.04515 22.0609 1.1133 22.0842L1.26419 22.1357M1 15.6818L1.26419 15.7721M7.51316 9.07771L7.19191 15.1494M7.51316 9.07771L7.80313 9.17679M7.19191 15.1494L7.52376 15.2843M7.52376 15.2843L7.80313 9.17679M7.52376 15.2843L7.82176 15.4056M7.80313 9.17679L8.13679 9.2908M8.13679 9.2908L7.82176 15.4056M8.13679 9.2908L8.33333 9.35795M7.82176 15.4056L8.1127 15.5239M8.1127 15.5239L8.33333 9.35795M8.1127 15.5239L8.36348 15.6259M8.33333 9.35795L8.62937 9.45911M8.62937 9.45911L8.36348 15.6259M8.62937 9.45911L8.88403 9.54612M8.36348 15.6259L8.60883 15.7258M8.60883 15.7258L8.88403 9.54612M8.60883 15.7258L8.83057 15.816M8.88403 9.54612L9.14815 9.63636M9.14815 9.63636L8.83057 15.816M9.14815 9.63636L9.38095 9.71591M8.83057 15.816L9.03175 15.8978M9.03175 15.8978L9.38095 9.71591M9.03175 15.8978L9.28299 16M9.38095 9.71591L9.64707 9.80684M9.64707 9.80684L9.28299 16M9.64707 9.80684L9.86322 9.88069M9.28299 16L9.52723 16.0994M9.52723 16.0994L9.86322 9.88069M9.52723 16.0994L9.8033 16.2117M9.86322 9.88069L9.97129 9.91762M9.97129 9.91762L9.8033 16.2117M3.59111 22.9308V16.5672M3.59111 22.9308L3.37525 22.857M3.59111 16.5672L3.37525 16.4934M3.37525 16.4934V22.857M3.37525 16.4934L3.09524 16.3977M3.37525 22.857L3.09524 22.7614M3.09524 22.7614V16.3977M3.09524 22.7614L2.86243 22.6818M3.09524 16.3977L2.86243 16.3182M2.86243 16.3182V22.6818M2.86243 16.3182L2.56018 16.2149M2.86243 22.6818L2.56018 22.5785M2.56018 22.5785V16.2149M2.56018 22.5785L2.39683 22.5227M2.56018 16.2149L2.39683 16.1591M2.39683 16.1591V22.5227M2.39683 16.1591L2.13614 16.07M2.39683 22.5227L2.13614 22.4337M2.13614 22.4337V16.07M2.13614 22.4337L1.82016 22.3257M2.13614 16.07L1.82016 15.9621M1.82016 15.9621V22.3257M1.82016 15.9621L1.52839 15.8624M1.82016 22.3257L1.52839 22.226M1.52839 22.226V15.8624M1.52839 22.226L1.26419 22.1357M1.52839 15.8624L1.26419 15.7721M1.26419 15.7721V22.1357" stroke="black"/>
</svg>
