<svg width="24" height="24" viewBox="0 0 24 24" fill="none" xmlns="http://www.w3.org/2000/svg">
<path d="M16.5401 9.08433C15.988 7.77094 15.3807 5.26407 17.3683 5.74375C19.8529 6.34334 20.0185 11.8254 23 17.907M6 13.7736C4.49899 14.0002 2.71655 13.547 1.87222 12.8671C-0.311936 11.1081 2.09398 10.7124 3.76566 10.7847M7.88113 16.6395C8.865 16.8361 10.5934 16.8924 9.7957 15.9656C8.66379 14.6506 4.78589 14.4156 5.00927 15.7129C5.16881 16.6395 7.0834 17.9875 9.31707 17.9032M8.83096 19.694C9.91959 19.8498 12.0771 19.9558 11.9979 19.133C11.8989 18.1045 6.65371 17.1695 6.05991 18.759C5.46612 20.3484 9.42476 21.19 11.7999 20.9095M11.151 21.8814C12.1061 21.4986 13.6978 22.3024 12.6632 22.7999C11.0715 23.5654 8.92256 21.9579 9.00215 20.9628M17 21.9814C17.9211 21.1457 19.8105 19.1607 20 17.907" stroke="black" stroke-linecap="round"/>
<path d="M16.1154 12.9903L16 12.814L17.7 11.7954L17.8334 11.9522M16.1154 12.9903L17.8334 11.9522M16.1154 12.9903L16.208 13.1318M17.8334 11.9522L17.9806 12.1251M17.9806 12.1251L16.208 13.1318M17.9806 12.1251L18.0934 12.2578M16.208 13.1318L16.3167 13.2979M16.3167 13.2979L18.0934 12.2578M16.3167 13.2979L16.3952 13.4179M18.0934 12.2578L18.2388 12.4287M18.2388 12.4287L16.3952 13.4179M18.2388 12.4287L18.3342 12.5408M16.3952 13.4179L16.4912 13.5646M16.4912 13.5646L18.3342 12.5408M16.4912 13.5646L16.5711 13.6866M18.3342 12.5408L18.4536 12.6811M18.4536 12.6811L16.5711 13.6866M18.4536 12.6811L18.5667 12.814M16.5711 13.6866L16.6667 13.8327M16.6667 13.8327L18.5667 12.814M16.6667 13.8327L16.749 13.9583M18.5667 12.814L18.6584 12.9218M18.6584 12.9218L16.749 13.9583M18.6584 12.9218L18.7592 13.0403M16.749 13.9583L16.8282 14.0794M16.8282 14.0794L18.7592 13.0403M16.8282 14.0794L16.9141 14.2107M18.7592 13.0403L18.8796 13.1818M18.8796 13.1818L19 13.3234L17 14.342L16.9141 14.2107M18.8796 13.1818L16.9141 14.2107M8.50003 7.72077C8.50003 8.00205 8.27617 8.23008 8.00003 8.23008M8.50003 7.72077C8.50003 7.43949 8.27617 7.21146 8.00003 7.21146M8.50003 7.72077H7.50003M8.00003 8.23008C7.72389 8.23008 7.50003 8.00205 7.50003 7.72077M8.00003 8.23008V7.21146M7.50003 7.72077C7.50003 7.43949 7.72389 7.21146 8.00003 7.21146M11.758 20.9628L19.2125 14.9544C19.6469 14.6042 19.7191 13.9611 19.3736 13.5201L9.86323 1.38322C9.51973 0.944849 8.89296 0.871824 8.46115 1.21986L1.78754 6.59886C1.35315 6.94899 1.28094 7.59209 1.62649 8.03309L6.55254 14.3196M16.1861 9.758L15.5009 10.5485C15.2046 10.8903 15.1674 11.391 15.4099 11.7743L18 15.8697M9.65837 9.38614C9.56092 9.47907 9.50003 9.61129 9.50003 9.758C9.50003 9.89258 9.55127 10.015 9.63497 10.106M9.65837 9.38614C9.74776 9.30089 9.86791 9.24869 10 9.24869C10.1441 9.24869 10.2739 9.31072 10.3651 9.40998M9.65837 9.38614L10.3651 10.106M10.3651 10.106C10.4488 10.015 10.5 9.89258 10.5 9.758C10.5 9.62342 10.4488 9.50104 10.3651 9.40998M10.3651 10.106C10.2739 10.2053 10.1441 10.2673 10 10.2673C9.856 10.2673 9.7262 10.2053 9.63497 10.106M10.3651 9.40998L9.63497 10.106M4.64858 8.4017L8.38356 13.0631C8.72652 13.4911 9.34196 13.5626 9.77073 13.2242L13.1892 10.5264C13.6337 10.1756 13.707 9.52073 13.3515 9.07706L9.6165 4.41569C9.27353 3.98765 8.6581 3.91616 8.22932 4.25455L4.81083 6.95241C4.3664 7.30315 4.29308 7.95804 4.64858 8.4017Z" stroke="#2563EB" stroke-linecap="round"/>
</svg>
