<svg width="24" height="24" viewBox="0 0 24 24" fill="none" xmlns="http://www.w3.org/2000/svg">
<path d="M2.85909 1.49227C6.5695 0.765159 18.1603 0.910658 21.4997 1.49235M1.46768 2.21947C1.26219 8.44787 0.903701 19.5438 1.02417 22.9999M1.99972 23C3.41224 21.5815 16.5543 21.2267 19.3793 21.2267C22.2043 21.2267 22.9304 21.6809 22.5575 19.8082C22.2511 18.2701 22.4742 8.28149 22.9997 1.87988" stroke="black" stroke-linecap="round"/>
<path d="M18.1769 17.7908C18.0545 17.8341 17.8108 17.8888 17.4997 17.9445M18.1769 17.7908V4.41233M18.1769 17.7908C18.384 17.7176 18.538 17.7009 18.6511 17.6965M14.7678 4.6005C14.5561 4.6493 14.3729 4.70533 14.2308 4.76817C14.1506 4.8036 14.1055 4.88194 14.1043 4.96957C14.0473 9.26833 13.4997 18.0002 13.9997 18C13.9984 18.1169 14.193 18.1794 14.4997 18.2038M14.7678 4.6005L14.4997 18.2038M14.7678 4.6005C14.9304 4.56301 15.1098 4.52979 15.3005 4.50101M14.4997 18.2038C14.6444 18.2154 14.814 18.2184 14.9997 18.2147M14.9997 18.2147L15.3005 4.50101M14.9997 18.2147C15.3716 18.2072 15.8082 18.1726 16.239 18.1247M15.3005 4.50101C15.5214 4.46767 15.7574 4.44031 15.9997 4.41921M15.9997 4.41921L15.4997 18.2147M15.9997 4.41921C16.1644 4.40487 16.332 4.39342 16.4997 4.38495M16.239 18.1247L16.4997 4.38495M16.239 18.1247C16.4999 18.0957 16.7588 18.0617 16.9997 18.0259M16.4997 4.38495C16.6671 4.37651 16.8347 4.37103 16.9997 4.36861M16.9997 4.36861V18.0259M16.9997 4.36861C17.1701 4.36612 17.3378 4.36689 17.4997 4.37102M16.9997 18.0259C17.1783 17.9994 17.3471 17.9718 17.4997 17.9445M17.4997 17.9445V4.37102M17.4997 4.37102C17.7415 4.37718 17.9706 4.39084 18.1769 4.41233M18.1769 4.41233C18.384 4.43389 18.5682 4.46334 18.7194 4.50101M18.6511 17.6965C18.9874 17.6834 18.9626 17.7791 18.8992 16.8237C18.8304 15.7872 18.8791 9.12341 18.9956 4.75429C18.9981 4.65878 18.9473 4.57091 18.8567 4.54057C18.8147 4.5265 18.7688 4.51331 18.7194 4.50101M18.6511 17.6965L18.7194 4.50101" stroke="#2563EB" stroke-linecap="round"/>
</svg>
