<svg width="24" height="24" viewBox="0 0 24 24" fill="none" xmlns="http://www.w3.org/2000/svg">
<path d="M1 17.342C3.34456 13.4054 4.86464 5.88504 5.38239 2.26415C5.40375 2.11482 5.53718 2.00945 5.69111 2.02132C9.86724 2.34339 18.5193 2.76123 21.8249 2M6.54072 5.0091C6.74991 5.07719 7.33564 5.21336 8.00504 5.21336M9.46936 5.41763C9.81801 5.48571 10.5571 5.58104 10.7245 5.41763M12.1888 5.41763H13.4439M15.1175 5.41763C15.4661 5.48571 16.2052 5.58104 16.3726 5.41763M18.0461 5.41763H19.3012M21.7239 3.30526C21.2387 7.29997 20.0757 15.8332 19.229 18.6833C19.1952 18.797 19.095 18.8723 18.974 18.8782C15.0536 19.0692 6.64305 19.2443 2.79587 18.4793" stroke="#2563EB" stroke-linecap="round"/>
<path d="M23 5.44507C22.9307 9.69312 22.5903 18.7643 21.78 21.7843C21.7479 21.9038 21.6378 21.9822 21.5113 21.9839M23 5.44507C22.7873 10.57 22.1918 21.0526 21.5113 21.9839M23 5.44507C22.7164 10.7664 21.9792 21.5245 21.2986 21.9867M23 5.44507C22.6455 10.8328 21.7665 21.6845 21.0859 21.9892M23 5.44507C22.5746 10.8343 21.5538 21.6885 20.8733 21.9913M23 5.44507C22.5038 10.8356 21.3411 21.6919 20.6606 21.9933M23 5.44507C22.4271 10.8362 21.1342 21.6936 20.5456 21.9942M23 5.44507C22.9859 5.55357 22.9715 5.66424 22.9568 5.77695M23 5.44507C22.9552 5.75188 22.9077 6.07606 22.8579 6.4147M23 5.44507C22.8438 6.39212 22.6596 7.50459 22.4613 8.6973M23 5.44507L21.2393 15.2331M23 5.44507C22.9904 5.53262 22.9759 5.64397 22.9568 5.77695M21.5113 21.9839L21.2986 21.9867M21.2986 21.9867L21.0859 21.9892M21.0859 21.9892L20.8733 21.9913M20.8733 21.9913L20.6606 21.9933M20.6606 21.9933L20.5456 21.9942M20.5456 21.9942L20.4479 21.9949M20.4479 21.9949C20.7814 21.8534 22.2318 11.3327 22.9568 5.77695M20.4479 21.9949L20.3164 21.9958M22.9568 5.77695C22.9315 5.95323 22.8982 6.16751 22.8579 6.4147M20.3164 21.9958C20.5383 21.8602 22.0222 12.0993 22.8579 6.4147M20.3164 21.9958L20.1608 21.9968M22.8579 6.4147C22.7612 7.00891 22.6242 7.79331 22.4613 8.6973M20.1608 21.9968C20.2522 21.8786 21.5169 14.3779 22.4613 8.6973M20.1608 21.9968L20.0226 21.9975M22.4613 8.6973C22.1235 10.5715 21.6739 12.9599 21.2393 15.2331M20.0226 21.9975C15.3834 22.0203 7.96024 21.8886 5.56065 21.2027M20.0226 21.9975L20.0435 21.8812M5.56065 21.2027C9.54453 21.5902 18.0185 22.2684 20.0435 21.8812M5.56065 21.2027C15.2586 21.9809 19.2788 21.8565 20.0766 21.697M5.56065 21.2027C5.49851 21.1648 5.42638 21.1197 5.34797 21.0694M20.0435 21.8812L20.0766 21.697M20.0766 21.697L20.1109 21.5066M5.34797 21.0694C9.81878 21.408 19.0305 21.9694 20.1109 21.5066M5.34797 21.0694C5.2809 21.0263 5.20923 20.9794 5.1353 20.9298M5.34797 21.0694C14.3654 21.7409 18.9638 21.5481 20.1358 21.3678M20.1109 21.5066L20.1358 21.3678M5.1353 20.9298C16.3645 21.6453 19.8311 21.4274 20.1608 21.2291M5.1353 20.9298C15.0034 21.4897 19.2832 21.2561 20.1895 21.0694M5.1353 20.9298C5.06577 20.8832 4.99423 20.8343 4.92262 20.784M20.1608 21.2291L20.1358 21.3678M20.1608 21.2291L20.1895 21.0694M20.1895 21.0694L20.2039 20.9894M20.1895 21.0694L6.4179 20.8251C6.35203 20.8239 6.34231 20.9173 6.40708 20.9291C6.40992 20.9296 6.4128 20.9299 6.41569 20.9299L18.5338 21.2027M20.2183 20.9095L4.70995 20.6307M20.2183 20.9095L20.2433 20.7701M20.2183 20.9095L20.2039 20.9894M4.70995 20.6307C4.66878 20.6001 4.62825 20.5694 4.58877 20.5388M4.70995 20.6307L20.2433 20.7701M4.70995 20.6307C4.77963 20.6824 4.85116 20.7339 4.92262 20.784M4.58877 20.5388L20.2684 20.6307M4.58877 20.5388C4.53925 20.5004 4.49138 20.4622 4.44593 20.4246M21.2393 15.2331L20.2684 20.6307M21.2393 15.2331C20.8913 17.0534 20.5529 18.8 20.289 20.1496M20.2684 20.6307L20.2433 20.7701M4.44593 20.4246L12.2013 20.4445M4.44593 20.4246C4.40693 20.3923 4.36971 20.3604 4.33477 20.3291M12.2013 20.4445C13.1851 20.4775 14.1677 20.5031 15.1104 20.5178M12.2013 20.4445C11.227 20.412 10.2516 20.3723 9.31234 20.3291M15.1104 20.5178C16.384 20.5377 17.5847 20.5375 18.6174 20.508M15.1104 20.5178C11.0224 20.3906 5.88351 19.9168 5.0193 19.7344C3.87777 19.4936 3.91208 19.8348 4.07192 20.0355M15.1104 20.5178C16.4568 20.5597 17.6893 20.5641 18.6174 20.508M18.6174 20.508C19.129 20.4934 19.5992 20.4716 20.0167 20.4415C20.1463 20.4321 20.2521 20.3384 20.2765 20.2138L20.289 20.1496M18.6174 20.508C19.5241 20.4532 20.1404 20.3409 20.289 20.1496M9.31234 20.3291H4.33477M9.31234 20.3291C8.07846 20.2725 6.90712 20.2099 5.88334 20.1496M4.33477 20.3291C4.27118 20.2723 4.21514 20.2178 4.16964 20.167M4.16964 20.167C4.12698 20.1194 4.09359 20.0751 4.07192 20.0355M4.16964 20.167L5.88334 20.1496M4.07192 20.0355C4.59497 20.0709 5.20695 20.1098 5.88334 20.1496M4.92262 20.784L20.2039 20.9894" stroke="black" stroke-linecap="round"/>
</svg>
