<svg width="24" height="24" viewBox="0 0 24 24" fill="none" xmlns="http://www.w3.org/2000/svg">
<path d="M5.82284 17.7908C5.94519 17.8341 6.18896 17.8888 6.50001 17.9445M5.82284 17.7908V4.41233M5.82284 17.7908C5.61573 17.7176 5.46175 17.7009 5.34863 17.6965M9.23197 4.6005C9.44366 4.6493 9.6268 4.70533 9.76895 4.76817C9.8491 4.8036 9.89423 4.88194 9.89539 4.96957C9.95242 9.26833 10.5001 18.0002 10 18C10.0013 18.1169 9.80669 18.1794 9.50001 18.2038M9.23197 4.6005L9.50001 18.2038M9.23197 4.6005C9.06936 4.56301 8.88991 4.52979 8.69922 4.50101M9.50001 18.2038C9.35535 18.2154 9.18575 18.2184 9.00001 18.2147M9.00001 18.2147L8.69922 4.50101M9.00001 18.2147C8.62812 18.2072 8.1915 18.1726 7.76076 18.1247M8.69922 4.50101C8.47831 4.46767 8.24232 4.44031 8.00001 4.41921M8.00001 4.41921L8.50001 18.2147M8.00001 4.41921C7.83535 4.40487 7.66777 4.39342 7.50001 4.38495M7.76076 18.1247L7.50001 4.38495M7.76076 18.1247C7.49979 18.0957 7.24098 18.0617 7.00001 18.0259M7.50001 4.38495C7.33261 4.37651 7.16504 4.37103 7.00001 4.36861M7.00001 4.36861V18.0259M7.00001 4.36861C6.82963 4.36612 6.66196 4.36689 6.50001 4.37102M7.00001 18.0259C6.82141 17.9994 6.65261 17.9718 6.50001 17.9445M6.50001 17.9445V4.37102M6.50001 4.37102C6.25822 4.37718 6.02917 4.39084 5.82284 4.41233M5.82284 4.41233C5.61576 4.43389 5.43156 4.46334 5.28035 4.50101M5.34863 17.6965C5.01231 17.6834 5.0371 17.7791 5.10052 16.8237C5.16933 15.7872 5.12062 9.12341 5.00418 4.75429C5.00164 4.65878 5.05249 4.57091 5.14309 4.54057C5.18509 4.5265 5.23096 4.51331 5.28035 4.50101M5.34863 17.6965L5.28035 4.50101" stroke="#2563EB" stroke-linecap="round"/>
<path d="M21.1406 1.49227C17.4302 0.765159 5.83938 0.910658 2.5 1.49235M22.532 2.21947C22.7375 8.44787 23.096 19.5438 22.9755 22.9999M22 23C20.5875 21.5815 7.44545 21.2267 4.62042 21.2267C1.79539 21.2267 1.06931 21.6809 1.44226 19.8082C1.74859 18.2701 1.52553 8.28149 1 1.87988" stroke="black" stroke-linecap="round"/>
</svg>
