<svg width="24" height="24" viewBox="0 0 24 24" fill="none" xmlns="http://www.w3.org/2000/svg">
<path d="M11.0081 5.9746L10.8385 4.93875C10.8229 4.84328 10.7544 4.76446 10.6612 4.7346L9.64978 4.41056C9.42867 4.33972 9.4043 4.04064 9.61111 3.93586L10.5571 3.45657C10.6443 3.4124 10.6991 3.32381 10.6991 3.2271L10.6988 2.17781C10.6988 1.94841 10.9795 1.83313 11.1444 1.99483L11.8987 2.73446C11.9682 2.80263 12.0706 2.82669 12.1638 2.79679L13.175 2.47233C13.3961 2.40139 13.594 2.62922 13.4891 2.83394L13.0093 3.77035C12.9651 3.85665 12.9735 3.96012 13.0311 4.03834L13.6564 4.8871C13.793 5.07266 13.6346 5.32875 13.4049 5.29357L12.354 5.13267C12.2572 5.11784 12.1601 5.15773 12.1025 5.23597L11.4776 6.085C11.341 6.27061 11.0452 6.20106 11.0081 5.9746ZM11.0081 5.9746L10.0954 4.90142C10.0353 4.83473 9.94461 4.80342 9.85552 4.81862L8.49524 5.05073C8.26617 5.08982 8.10326 4.83647 8.23667 4.64861L9.02074 3.54459C9.07699 3.46539 9.0836 3.3618 9.03788 3.27627L8.40044 2.08387C8.29198 1.88097 8.48583 1.6498 8.70812 1.71695L10.0145 2.11159C10.1082 2.1399 10.2101 2.1141 10.2784 2.04476L11.2302 1.07862C11.3923 0.914059 11.6752 1.02472 11.6789 1.25419L11.7119 2.55133M9.02142 3.24964L8.75747 2.80637C8.63849 2.60655 8.33355 2.65096 8.27815 2.87618L8.09502 3.62058C8.0719 3.71456 7.99744 3.78788 7.90215 3.81049L7.13065 3.99358C6.90462 4.04722 6.85673 4.34352 7.05464 4.46387L7.73017 4.87465C7.81361 4.92539 7.86126 5.01792 7.85361 5.11433L7.79168 5.89492C7.77353 6.12362 8.04432 6.26012 8.22147 6.11158L8.82615 5.60457C8.90084 5.54195 9.00475 5.52582 9.09531 5.56279L9.82155 5.85928C10.0373 5.94738 10.253 5.73326 10.1623 5.52088L9.87027 4.83666M11.8928 5.52088L12.8021 6.24335C12.9642 6.36921 13.2032 6.26887 13.2237 6.06634L13.2879 5.27567M13.2879 6.07111L13.9058 5.70161C13.9804 5.65703 14.0725 5.65206 14.1516 5.68836L15.0244 6.08931C15.1763 6.15907 15.3546 6.07182 15.3901 5.9103M14.9857 16.4529H15.6559M12.3946 13.3008V13.8518M12.4171 19.1418V19.6929M9.15522 16.4529H9.82537M14.6947 14.2706L14.315 14.6233M10.563 18.3926L10.1833 18.7453M14.6501 18.7453L14.315 18.3485M10.5184 14.6455L10.1833 14.2487M15.0913 2.98738L14.0848 2.64855C13.8648 2.57447 13.6636 2.79946 13.7655 3.00565L14.2316 3.9488C14.2745 4.03572 14.2646 4.13905 14.2058 4.21645L13.5682 5.05622C13.4288 5.2398 13.5835 5.49813 13.8137 5.46623L14.8668 5.32031C14.9639 5.30687 15.0604 5.34813 15.1168 5.42719L15.7292 6.28503C15.8631 6.47257 16.1599 6.40723 16.2003 6.18133L16.385 5.148C16.4021 5.05276 16.4717 4.97493 16.5653 4.9464L17.5814 4.63681C17.8035 4.56913 17.8322 4.27042 17.627 4.16271L16.6881 3.66999C16.6016 3.62458 16.5481 3.53521 16.5495 3.43852L16.5651 2.38934C16.5685 2.15997 16.2895 2.0407 16.1222 2.20003L15.3572 2.92884C15.2867 2.99601 15.184 3.01861 15.0913 2.98738ZM16.1254 16.4968C16.1254 18.5176 14.4652 20.1558 12.4172 20.1558C10.3693 20.1558 8.70907 18.5176 8.70907 16.4968C8.70907 14.476 10.3693 12.8379 12.4172 12.8379C14.4652 12.8379 16.1254 14.476 16.1254 16.4968ZM10.4918 18.0546L14.9189 14.7997L10.3054 17.7919C10.2271 17.8427 10.2084 17.9482 10.2646 18.0222C10.3184 18.0929 10.42 18.1074 10.4918 18.0546ZM12.7746 16.4968C12.7746 16.6915 12.6146 16.8494 12.4172 16.8494C12.2198 16.8494 12.0598 16.6915 12.0598 16.4968C12.0598 16.302 12.2198 16.1441 12.4172 16.1441C12.6146 16.1441 12.7746 16.302 12.7746 16.4968Z" stroke="black" stroke-linecap="round"/>
<path d="M5.74349 6.28911C5.63444 6.10018 5.81139 5.88763 6.02632 5.93558C10.3201 6.89343 16.0994 6.3587 18.9588 5.89177C19.1678 5.85764 19.3277 6.06586 19.224 6.24809C19.2162 6.2617 19.2084 6.27537 19.2005 6.28911M5.74349 6.28911C5.81584 6.41446 5.89653 6.54529 5.98552 6.68M5.74349 6.28911H19.2005M9.0207 9.50522H15.9727M9.0207 9.50522C9.23152 9.62092 9.45102 9.72861 9.67914 9.82645M9.0207 9.50522C8.80985 9.3895 8.60769 9.26578 8.41427 9.13589M15.9727 9.50522C15.767 9.62094 15.553 9.72862 15.3311 9.82645M15.9727 9.50522C16.1784 9.38953 16.376 9.26581 16.5653 9.13589M15.3311 9.82645H9.67914M15.3311 9.82645C15.028 9.96 14.7099 10.0752 14.377 10.1673M9.67914 9.82645C9.99047 9.95997 10.3179 10.0752 10.6612 10.1673M10.6612 10.1673C11.2065 10.3137 11.7919 10.4019 12.4169 10.4133C13.1182 10.426 13.772 10.3347 14.377 10.1673M10.6612 10.1673H14.377M16.5653 9.13589H8.41427M16.5653 9.13589C16.7387 9.01683 16.9052 8.89256 17.0648 8.7645M8.41427 9.13589C8.23694 9.0168 8.06695 8.89253 7.90436 8.7645M7.90436 8.7645H17.0648M7.90436 8.7645C7.77909 8.66586 7.6582 8.56499 7.54173 8.46253M17.0648 8.7645C17.1876 8.66588 17.3063 8.56501 17.4208 8.46253M17.4208 8.46253H7.54173M17.4208 8.46253C17.562 8.33611 17.6969 8.20724 17.8253 8.07713M7.54173 8.46253C7.39796 8.33607 7.26091 8.20719 7.1306 8.07713M7.1306 8.07713H17.8253M7.1306 8.07713C7.00662 7.95337 6.88875 7.82853 6.77702 7.70367M17.8253 8.07713C17.9474 7.95342 18.0637 7.82859 18.1741 7.70367M18.1741 7.70367H6.77702M18.1741 7.70367C18.3742 7.4772 18.5551 7.25044 18.7162 7.0296M6.77702 7.70367C6.68773 7.60388 6.60236 7.50407 6.52093 7.40478M6.52093 7.40478H18.3929L18.7162 7.0296M6.52093 7.40478C6.41737 7.27851 6.32019 7.15308 6.22942 7.0296M18.7162 7.0296H6.22942M18.7162 7.0296C18.8028 6.91105 18.8836 6.7942 18.9588 6.68M6.22942 7.0296C6.14219 6.91095 6.06088 6.79409 5.98552 6.68M18.9588 6.68H5.98552M18.9588 6.68C19.0473 6.54549 19.1279 6.41467 19.2005 6.28911M7.26683 21.9192H9.50683C9.62823 21.9192 9.73551 22.0016 9.74707 22.1209C9.78216 22.483 9.7047 22.97 9.2003 22.9993H7.59195C7.35254 23.0128 6.93465 22.849 7.02066 22.125C7.035 22.0043 7.14372 21.9192 7.26683 21.9192ZM15.4894 21.9192H17.7294C17.8508 21.9192 17.9581 22.0016 17.9696 22.1209C18.0047 22.483 17.9273 22.97 17.4229 22.9993H15.8145C15.5751 23.0128 15.1572 22.849 15.2432 22.125C15.2576 22.0043 15.3663 21.9192 15.4894 21.9192ZM5.00012 19.5166C5.02246 16.4307 6.81845 10.4309 13.8237 11.1186C15.581 11.2949 19.2698 13.2214 19.9667 19.5166C20.0717 20.4644 20.0561 21.8971 17.9116 21.8971H6.96588C6.19827 21.9265 4.98622 21.4342 5.00012 19.5166Z" stroke="#2563EB" stroke-linecap="round"/>
</svg>
