<svg width="24" height="24" viewBox="0 0 24 24" fill="none" xmlns="http://www.w3.org/2000/svg">
<path d="M22.5076 21.1409C23.2347 17.4305 23.0892 5.83962 22.5075 2.50024M21.7804 22.5323C15.552 22.7378 4.45601 23.0963 0.999924 22.9758M0.999847 22.0002C2.41835 20.5877 2.7731 7.44569 2.7731 4.62066C2.7731 1.79563 2.31897 1.06955 4.19161 1.4425C5.72974 1.74883 15.7184 1.52577 22.12 1.00024" stroke="black" stroke-linecap="round"/>
<path d="M16.5 19C18.5863 17.9571 16.9999 16 15 16L6.99982 16C4.99982 16 4.99988 17.5 5.00018 18C4.99988 20.5 15.4998 19.5 16.5 19Z" stroke="#2563EB" stroke-linecap="round"/>
<path d="M11.4488 7.48276C12.6187 6.61969 11.7291 5 10.6076 5L6.12124 5C4.99968 5 4.99971 6.24138 4.99988 6.65517C4.99971 8.72414 10.8879 7.89655 11.4488 7.48276Z" stroke="#2563EB" stroke-linecap="round"/>
<path d="M18.8189 13.3103C21.3259 12.1596 19.4196 10 17.0164 10L7.40279 10C4.99944 10 4.99952 11.6552 4.99989 12.2069C4.99952 14.9655 17.617 13.8621 18.8189 13.3103Z" stroke="#2563EB" stroke-linecap="round"/>
</svg>
