<svg width="24" height="24" viewBox="0 0 24 24" fill="none" xmlns="http://www.w3.org/2000/svg">
<path d="M21.1409 4.35802C17.4304 3.82921 5.83944 3.93502 2.50002 4.35807M22.5323 4.88689C22.7378 9.41663 23.0963 17.4864 22.9758 19.9999M22.0003 20C20.5877 18.9684 7.44553 18.7104 4.62046 18.7104C1.7954 18.7104 1.06931 19.0406 1.44226 17.6787C1.74859 16.5601 1.52554 9.29563 1 4.63991" stroke="black" stroke-linecap="round"/>
<path d="M4.04455 7.52929C4.04 7.48991 4.03541 7.45077 4.03078 7.41186C4.01433 7.27349 4.11316 7.14815 4.252 7.13618C7.01026 6.8984 16.5517 6.98447 19.4398 7.29746C19.5602 7.3105 19.648 7.40839 19.6542 7.52929C19.6583 7.60907 19.6625 7.69 19.6667 7.77202M4.04455 7.52929L19.6667 7.77202M4.04455 7.52929C4.06233 7.68292 4.07956 7.84004 4.09624 8M19.6667 7.77202C19.6753 7.93741 19.6841 8.10716 19.6932 8.28054M19.6932 8.28054L4.09624 8M19.6932 8.28054C19.7003 8.41624 19.7076 8.55417 19.7149 8.69396M4.09624 8C4.11333 8.16393 4.12983 8.33083 4.14573 8.5M4.14573 8.5L19.7149 8.69396M4.14573 8.5C4.16121 8.66474 4.17611 8.83162 4.19042 9M19.7149 8.69396C19.7203 8.79504 19.7256 8.8971 19.731 9M19.731 9H4.19042M19.731 9C19.7397 9.16469 19.7484 9.33154 19.7572 9.5M4.19042 9C4.20447 9.16543 4.21796 9.33231 4.23085 9.5M4.23085 9.5H19.7572M4.23085 9.5C4.24362 9.66607 4.2558 9.83294 4.26739 10M19.7572 9.5C19.7658 9.66529 19.7745 9.83212 19.7832 10M19.7832 10H4.26739M19.7832 10C19.7917 10.1658 19.8002 10.3327 19.8087 10.5M4.26739 10C4.27895 10.1667 4.28991 10.3335 4.30026 10.5M4.30026 10.5H19.8087M4.30026 10.5C4.31066 10.6673 4.32045 10.8341 4.32959 11M19.8087 10.5C19.8171 10.6663 19.8255 10.8332 19.8338 11M19.8338 11H4.32959M19.8338 11C19.842 11.1668 19.8502 11.3336 19.8581 11.5M4.32959 11C4.33885 11.1679 4.34746 11.3348 4.35539 11.5M4.35539 11.5H19.8581M4.35539 11.5C4.36349 11.6686 4.37089 11.8355 4.37758 12M19.8581 11.5C19.8662 11.6673 19.874 11.8341 19.8817 12M19.8817 12H4.37758M19.8817 12C19.8894 12.1678 19.897 12.3347 19.9042 12.5M4.37758 12C4.38446 12.1695 4.39058 12.3364 4.39592 12.5M4.39592 12.5H19.9042M4.39592 12.5C4.40148 12.6705 4.40619 12.8375 4.41003 13M19.9042 12.5C19.9116 12.6684 19.9187 12.8353 19.9255 13M19.9255 13H4.41003M19.9255 13C19.9325 13.1691 19.9391 13.3359 19.9452 13.5M4.41003 13C4.41408 13.172 4.41715 13.339 4.41922 13.5M4.41922 13.5H19.9452M4.41922 13.5C4.42144 13.674 4.42249 13.8411 4.42232 14M19.9452 13.5C19.9537 13.7231 19.9613 13.941 19.9681 14.1522M19.9681 14.1522L4.42232 14M19.9681 14.1522C19.9739 14.3338 19.979 14.5106 19.9833 14.6814M4.42232 14C4.42214 14.1775 4.42043 14.3447 4.41715 14.5M4.41715 14.5L19.9833 14.6814M4.41715 14.5C4.41284 14.7046 4.4058 14.8885 4.39592 15.0476M19.9833 14.6814C19.9883 14.8761 19.9923 15.0631 19.9951 15.2411M19.9951 15.2411L4.39592 15.0476M19.9951 15.2411C19.9972 15.3731 19.9986 15.5001 19.9994 15.6216M4.39592 15.0476C4.38557 15.2142 4.37211 15.3537 4.35539 15.4615M4.35539 15.4615C4.34525 15.5269 4.33391 15.5806 4.32134 15.6216C4.27269 15.7803 4.24978 15.9036 4.25682 15.999M4.35539 15.4615L19.9994 15.6216M19.9994 15.6216C20.0002 15.7542 20.0003 15.8803 19.9994 15.999M19.9994 15.999H4.25682M19.9994 15.999C19.9985 16.1198 19.9967 16.233 19.9939 16.3378M4.25682 15.999C4.28898 16.4353 4.94643 16.291 6.63035 16.291C7.37105 16.291 9.31621 16.4676 11.5 16.6445M11.5 16.6445C15.3675 16.9578 19.9833 17.2722 19.9833 16.6086C19.9878 16.526 19.9913 16.4355 19.9939 16.3378M11.5 16.6445L19.9939 16.3378" stroke="#2563EB" stroke-linecap="round"/>
</svg>
