<svg width="24" height="24" viewBox="0 0 24 24" fill="none" xmlns="http://www.w3.org/2000/svg">
<path d="M1.46768 2.21949C1.26219 8.44789 0.903701 19.5439 1.02417 22.9999M2.85909 1.49229C4.66213 1.13895 8.32605 0.991677 11.9997 1.00038C13.3633 1.00361 12.7281 0.976728 13.9997 1.02037M1.99972 23C2.81937 22.1769 7.58861 21.712 11.9997 21.4667C13.4178 21.3878 12.7988 21.2801 13.9997 21.242M22.9997 1.8799C22.6754 5.83022 22.4663 11.1465 22.4257 15C22.4005 17.3913 22.4402 19.2193 22.5575 19.8083C22.9304 21.6809 22.2043 21.2268 19.3793 21.2268C18.7206 21.2268 15.5009 21.1945 13.9997 21.242M13.9997 1.02037C16.3523 1.10112 20.3854 1.29826 21.4997 1.49236M13.9997 1.02037C13.8331 7.35879 13.5997 20.2769 13.9997 21.242" stroke="black" stroke-linecap="round"/>
<path d="M20.4997 6H16.4997M20.4997 10H16.4997M20.4997 14H16.4997" stroke="#2563EB" stroke-linecap="round"/>
</svg>
