<svg width="24" height="24" viewBox="0 0 24 24" fill="none" xmlns="http://www.w3.org/2000/svg">
<path d="M12.9997 5H3.99969M12.9997 9.33333H3.99969M12.9997 13.6667H3.99969M12.9997 18H3.99969" stroke="#2563EB" stroke-linecap="round"/>
<path d="M15.9997 1.07227C15.8331 7.41068 15.5997 20.3288 15.9997 21.2939M15.9997 1.07227C14.7281 1.02862 13.3633 1.00359 11.9997 1.00036C8.32605 0.991661 4.66213 1.13894 2.85909 1.49227M15.9997 1.07227C18.3523 1.15301 20.3854 1.29824 21.4997 1.49235M15.9997 21.2939C17.5009 21.2463 18.7206 21.2267 19.3793 21.2267C22.2043 21.2267 22.9304 21.6809 22.5575 19.8082C22.4402 19.2193 22.4005 17.3912 22.4257 15C22.4663 11.1464 22.6754 5.83021 22.9997 1.87988M15.9997 21.2939C14.7988 21.332 13.4178 21.3878 11.9997 21.4667C7.58861 21.7119 2.81937 22.1769 1.99972 23M1.46768 2.21947C1.26219 8.44787 0.903701 19.5438 1.02417 22.9999" stroke="black" stroke-linecap="round"/>
</svg>
