<svg width="24" height="24" viewBox="0 0 24 24" fill="none" xmlns="http://www.w3.org/2000/svg">
<path d="M3.70121 3.48041C0.75216 3.48051 0.75216 13.9297 1.24367 18.2044C1.43592 19.8765 3.88415 20.6038 7 20.8697C11.85 21.2836 18.3177 20.5793 20.4125 20.5793C22.5392 20.5793 22.9757 16.2238 22.999 12C23.0134 9.39055 22.87 6.83132 22.87 5.38029C22.87 2.80376 13.6892 2.77506 7 3.21179C5.79723 3.29032 4.67501 3.38389 3.70121 3.48041Z" stroke="#2563EB" stroke-linecap="round"/>
<path d="M6.99997 3.21191C6.93137 5.54826 6.85147 8.86766 6.80909 12.0001M6.99997 20.8698C6.76463 20.5731 6.74853 16.4776 6.80909 12.0001M6.80909 12.0001C12.2054 12.1668 22.9982 12.4001 22.999 12.0001" stroke="black" stroke-linecap="round"/>
</svg>
