<svg width="24" height="24" viewBox="0 0 24 24" fill="none" xmlns="http://www.w3.org/2000/svg">
<path d="M11 5H20M11 9.33333H20M11 13.6667H20M11 18H20" stroke="#2563EB" stroke-linecap="round"/>
<path d="M8 1.07227C8.16667 7.41068 8.4 20.3288 8 21.2939M8 1.07227C9.27157 1.02862 10.6365 1.00359 12 1.00036C15.6737 0.991661 19.3376 1.13894 21.1406 1.49227M8 1.07227C5.64747 1.15301 3.61433 1.29824 2.5 1.49235M8 21.2939C6.49886 21.2463 5.27916 21.2267 4.62042 21.2267C1.79539 21.2267 1.06931 21.6809 1.44226 19.8082C1.55955 19.2193 1.59923 17.3912 1.57403 15C1.53341 11.1464 1.3243 5.83021 1 1.87988M8 21.2939C9.20091 21.332 10.582 21.3878 12 21.4667C16.4111 21.7119 21.1803 22.1769 22 23M22.532 2.21947C22.7375 8.44787 23.096 19.5438 22.9755 22.9999" stroke="black" stroke-linecap="round"/>
</svg>
