<svg width="24" height="24" viewBox="0 0 24 24" fill="none" xmlns="http://www.w3.org/2000/svg">
<path d="M1.0271 10.0002C3.95317 9.93173 8.09898 9.85207 12 9.80961M22.9541 10.0002C22.6967 9.76438 17.6006 9.74865 12 9.80961M22.8669 15.5002C19.8993 15.5686 15.7115 15.6483 11.8051 15.6908M1.16402 15.5002C1.1788 15.7358 6.2025 15.7517 11.8051 15.6908M11.8051 15.6908C11.8463 13.6312 11.9291 11.3858 12 9.80961M11.8051 15.6908C11.7494 18.4775 11.77 20.9242 12 20.914" stroke="black" stroke-linecap="round"/>
<path d="M22.5399 4.97363C22.1629 2.30557 10.4448 2.90906 4.63284 3.54431C1.97341 3.54428 1.17454 6.55404 1.02712 10C0.948429 11.8395 1.05538 13.8034 1.16405 15.5C1.24859 16.82 1.33417 17.9783 1.33417 18.7904C1.33417 21.0892 6.81909 21.1351 12 20.9139C15.4096 20.7683 18.6874 20.5071 20.1837 20.6962C21.8471 20.9064 22.5931 18.5196 22.8669 15.5C23.0254 13.7517 23.0257 11.7912 22.9541 10C22.8691 7.87335 22.6828 5.98519 22.5399 4.97363Z" stroke="#2563EB" stroke-linecap="round"/>
</svg>
