<svg width="24" height="24" viewBox="0 0 24 24" fill="none" xmlns="http://www.w3.org/2000/svg">
<path d="M7 3.21179C5.79723 3.29032 4.67501 3.38389 3.70121 3.48041C2.26425 3.48046 1.52747 5.96137 1.20655 9C1.10471 9.96432 1.04475 10.9848 1.01758 12C0.954676 14.351 1.06766 16.6736 1.24367 18.2044C1.43592 19.8765 3.88415 20.6038 7 20.8697C8.5653 21.0033 10.2991 21.0204 12 20.9823C15.5693 20.9023 18.9938 20.5793 20.4125 20.5793C22.5392 20.5793 22.9757 16.2238 22.999 12C23.0047 10.9705 22.9858 9.94887 22.9608 9C22.9226 7.54372 22.87 6.25887 22.87 5.38029C22.87 3.41196 17.512 2.93058 12 3.00771C10.2969 3.03154 8.57901 3.1087 7 3.21179Z" stroke="#2563EB" stroke-linecap="round"/>
<path d="M12 20.9824C11.6 20.9926 11.8333 12.8736 12 8.81287M1.20654 9.00016C4.10748 8.93344 8.16998 8.85605 12 8.81287M22.9608 9.00016C22.9549 8.76027 17.7384 8.74817 12 8.81287" stroke="black" stroke-linecap="round"/>
</svg>
