<svg width="24" height="24" viewBox="0 0 24 24" fill="none" xmlns="http://www.w3.org/2000/svg">
<path d="M7 3.21179C5.79723 3.29032 4.67501 3.38389 3.70121 3.48041C2.26425 3.48046 1.52747 5.96137 1.20655 9C1.10471 9.96432 1.04475 10.9848 1.01758 12C0.990113 13.0266 0.996182 14.0478 1.02639 15C1.06536 16.2284 1.14451 17.3421 1.24367 18.2044C1.43592 19.8765 3.88415 20.6038 7 20.8697C7.32661 20.8976 7.66055 20.9204 8 20.9387C9.2874 21.008 10.654 21.0124 12 20.9823C13.3922 20.9511 14.7623 20.8829 16 20.8114C17.9355 20.6995 19.5471 20.5793 20.4125 20.5793C22.0291 20.5793 22.6691 18.0625 22.8933 15C22.964 14.0337 22.9934 13.0131 22.999 12C23.0047 10.9705 22.9858 9.94887 22.9608 9C22.9226 7.54372 22.87 6.25887 22.87 5.38029C22.87 3.90099 19.8436 3.26156 16 3.06788C14.7294 3.00386 13.3694 2.98854 12 3.00771C10.6504 3.02659 9.29163 3.07896 8 3.15118C7.6616 3.1701 7.32781 3.19039 7 3.21179Z" stroke="#2563EB" stroke-linecap="round"/>
<path d="M7.99998 3.15117C7.95507 4.74309 7.90533 6.7648 7.86444 8.87012M7.99998 20.9386C7.81633 20.9161 7.76618 18.4103 7.78179 15.1343M7.86444 8.87012C7.82324 10.9913 7.79102 13.1974 7.78179 15.1343M7.86444 8.87012C5.4122 8.90989 3.06977 8.95714 1.20653 8.99999M7.86444 8.87012C10.6919 8.82427 13.6652 8.78837 16.2184 8.78067M7.78179 15.1343C10.3335 15.1297 13.3052 15.108 16.1358 15.0801M7.78179 15.1343C3.92629 15.1413 1.02951 15.1091 1.02637 15M16 20.8113C16.045 19.2159 16.0949 17.1891 16.1358 15.0801M16 3.06787C16.1825 3.0761 16.2331 5.54127 16.2184 8.78067M16.1358 15.0801C16.1773 12.9438 16.2096 10.723 16.2184 8.78067M16.1358 15.0801C18.6243 15.0557 21.0038 15.0264 22.8933 15M16.2184 8.78067C20.0641 8.76906 22.9564 8.8214 22.9608 8.99999" stroke="black" stroke-linecap="round"/>
</svg>
