<svg width="24" height="24" viewBox="0 0 24 24" fill="none" xmlns="http://www.w3.org/2000/svg">
<path d="M1.46799 2.21947C1.43312 3.27616 1.39385 4.47296 1.35327 5.74879C1.15464 11.993 0.924445 20.1302 1.02448 22.9999M2.85939 1.49227C4.66244 1.13894 8.32636 0.991661 12 1.00036C13.3636 1.00359 14.7285 1.02831 16 1.07196C18.3526 1.15271 20.3857 1.29824 21.5 1.49235M2.00002 23C2.81968 22.1769 7.58892 21.7119 12 21.4667C13.4181 21.3878 14.7991 21.3317 16 21.2936C17.5012 21.246 18.7209 21.2267 19.3796 21.2267C22.2046 21.2267 22.9307 21.6809 22.5578 19.8082C22.4405 19.2193 22.4008 17.3912 22.426 15C22.4544 12.3085 22.5649 8.90356 22.7395 5.74879C22.8149 4.38665 22.9022 3.07116 23 1.87988M13 9.33356H4.00003M13 13.6669H4.00003M13 18.0002H4.00003" stroke="black" stroke-linecap="round"/>
<path d="M15.893 5.74902C15.7634 12.2963 15.6838 20.5308 16 21.2938M15.893 5.74902H22.7395M15.893 5.74902H1.35327" stroke="#2563EB" stroke-linecap="round"/>
</svg>
