<svg width="24" height="24" viewBox="0 0 24 24" fill="none" xmlns="http://www.w3.org/2000/svg">
<path d="M11.4969 22.9181C9.26061 22.8616 7.05001 21.919 5.77147 19.7156C5.35258 18.9937 5.45002 18.1299 5.84836 17.3983L5.97721 17.1616C6.5461 16.1167 7.709 15.4566 8.98108 15.4566H12.5M11.4969 22.9181C14.1235 22.5679 15.769 21.82 16.7597 20.9496L16.9719 21.1618M11.4969 22.9181C13.5267 22.9693 15.5776 22.2905 16.9719 21.1618M11.4969 22.9181C14.4143 23.2688 16.2105 22.4387 17.2339 21.4238L16.9719 21.1618M4.5 7.375H3.48602C2.57756 7.375 1.74708 7.87258 1.3408 8.66028L1.24878 8.83869C0.964309 9.39024 0.894717 10.0415 1.19387 10.5857" stroke="black" stroke-linecap="round"/>
<path d="M1 1L3.24338 3.24338M23 23L18.4709 18.4709M14.9167 8.88385C14.9752 9.11237 15.0129 9.36446 15.0264 9.64158C15.1166 11.4913 13.8236 12.3693 12.7764 12.7764M14.9167 8.88385C14.8435 8.59774 14.7376 8.34858 14.6053 8.1335M14.9167 8.88385C15.1804 9.5545 15.3184 10.5847 14.8556 11.4622M14.6053 8.1335C13.5214 6.37016 10.6706 6.89695 9.58509 8.1335C9.42233 8.31906 9.19142 8.61353 8.99247 8.99247M14.6053 8.1335C15.0178 8.66563 15.6163 9.91179 15.1046 11.0419M14.8556 11.4622C14.958 11.3251 15.0401 11.1844 15.1046 11.0419M14.8556 11.4622C14.5369 12.0663 13.9334 12.598 12.89 12.89M15.1046 11.0419C14.8205 12.184 13.9416 12.7509 13.0003 13.0003M17.909 17.1618L18.1716 17.6441C18.3142 17.9061 18.4219 18.187 18.4709 18.4709M17.909 17.1618C17.4313 16.2844 16.5349 15.6784 15.5066 15.5066M17.909 17.1618C18.0085 17.4271 18.0776 17.7439 18.0913 18.0913M7.72498 2.42014C7.76676 2.59241 7.79364 2.78245 7.80329 2.99136C7.88893 4.84538 6.22825 5.40442 5.55576 5.55576M7.72498 2.42014C7.67268 2.20446 7.59703 2.01663 7.5026 1.85449M7.72498 2.42014C7.91327 2.92572 8.01182 3.70237 7.6813 4.36382M7.5026 1.85449C6.72848 0.525196 4.69262 0.922319 3.91738 1.85449C3.71408 2.09915 3.3619 2.59497 3.24338 3.24338M7.5026 1.85449C7.79717 2.25564 8.22455 3.19506 7.85917 4.04701M7.6813 4.36382C7.75443 4.26045 7.8131 4.15442 7.85917 4.04701M7.6813 4.36382C7.39034 4.94612 6.76686 5.43914 5.57937 5.57937M7.85917 4.04701C7.58437 5.21314 6.53015 5.58384 5.64173 5.64173M18.7173 5.60616C18.6131 5.59117 16.0917 5.2651 16.1967 2.99136C16.2064 2.78245 16.2332 2.59241 16.275 2.42014M18.7173 5.60616C17.3353 5.51763 16.633 4.99281 16.3187 4.36382M18.7173 5.60616C18.8845 5.63023 19.057 5.62831 19.2275 5.60212M16.275 2.42014C16.3273 2.20446 16.403 2.01663 16.4974 1.85449M16.275 2.42014C16.0867 2.92572 15.9882 3.70237 16.3187 4.36382M16.4974 1.85449C17.2715 0.525196 19.3074 0.922319 20.0826 1.85449C20.3868 2.22057 21.0244 3.14898 20.7137 4.30949C20.5189 5.03696 19.8871 5.50089 19.2275 5.60212M16.4974 1.85449C16.2028 2.25564 15.7754 3.19506 16.1408 4.04701M16.3187 4.36382C16.2456 4.26045 16.1869 4.15442 16.1408 4.04701M19.2275 5.60212C18.3554 5.74919 16.5172 5.64407 16.1408 4.04701M18 7.3752H20.514C21.4224 7.3752 22.2529 7.87278 22.6592 8.66048L22.7512 8.83889C23.0357 9.39044 23.1053 10.0417 22.8061 10.5859M3.24338 3.24338L5.55576 5.55576M5.55576 5.55576L5.57937 5.57937M5.57937 5.57937L5.64173 5.64173M5.64173 5.64173L8.99247 8.99247M8.99247 8.99247L12.7764 12.7764M12.7764 12.7764L12.89 12.89M12.89 12.89L13.0003 13.0003M13.0003 13.0003L15.5066 15.5066M15.5066 15.5066L18.0913 18.0913M18.0913 18.0913L18.4709 18.4709" stroke="#2563EB" stroke-linecap="round"/>
</svg>
