<svg width="24" height="24" viewBox="0 0 24 24" fill="none" xmlns="http://www.w3.org/2000/svg">
<path d="M5.2827 5.60616C5.38685 5.59117 7.90831 5.2651 7.80329 2.99136C7.79364 2.78245 7.76676 2.59241 7.72498 2.42014M5.2827 5.60616C6.66473 5.51763 7.36701 4.99281 7.6813 4.36382M5.2827 5.60616C5.11549 5.63023 4.94305 5.62831 4.77246 5.60212M7.72498 2.42014C7.67268 2.20446 7.59703 2.01663 7.5026 1.85449M7.72498 2.42014C7.91327 2.92572 8.01182 3.70237 7.6813 4.36382M7.5026 1.85449C6.72848 0.525196 4.69262 0.922319 3.91738 1.85449C3.61318 2.22057 2.97565 3.14898 3.28634 4.30949C3.48109 5.03696 4.11294 5.50089 4.77246 5.60212M7.5026 1.85449C7.79717 2.25564 8.22455 3.19506 7.85917 4.04701M7.6813 4.36382C7.75443 4.26045 7.8131 4.15442 7.85917 4.04701M4.77246 5.60212C5.64455 5.74919 7.48283 5.64407 7.85917 4.04701M6 7.3752H3.48602C2.57756 7.3752 1.74708 7.87278 1.3408 8.66048L1.24878 8.83889C0.964309 9.39044 0.894717 10.0417 1.19387 10.5859M18.7173 5.60616C18.6131 5.59117 16.0917 5.2651 16.1967 2.99136C16.2064 2.78245 16.2332 2.59241 16.275 2.42014M18.7173 5.60616C17.3353 5.51763 16.633 4.99281 16.3187 4.36382M18.7173 5.60616C18.8845 5.63023 19.057 5.62831 19.2275 5.60212M16.275 2.42014C16.3273 2.20446 16.403 2.01663 16.4974 1.85449M16.275 2.42014C16.0867 2.92572 15.9882 3.70237 16.3187 4.36382M16.4974 1.85449C17.2715 0.525196 19.3074 0.922319 20.0826 1.85449C20.3868 2.22057 21.0244 3.14898 20.7137 4.30949C20.5189 5.03696 19.8871 5.50089 19.2275 5.60212M16.4974 1.85449C16.2028 2.25564 15.7754 3.19506 16.1408 4.04701M16.3187 4.36382C16.2456 4.26045 16.1869 4.15442 16.1408 4.04701M19.2275 5.60212C18.3554 5.74919 16.5172 5.64407 16.1408 4.04701M18 7.3752H20.514C21.4224 7.3752 22.2529 7.87278 22.6592 8.66048L22.7512 8.83889C23.0357 9.39044 23.1053 10.0417 22.8061 10.5859" stroke="black" stroke-linecap="round"/>
<path d="M11.4969 13.1102C11.6427 13.0903 15.1734 12.6577 15.0264 9.64158C15.0129 9.36446 14.9752 9.11237 14.9167 8.88385M11.4969 13.1102C13.4321 12.9927 14.4155 12.2965 14.8556 11.4622M11.4969 13.1102C11.2628 13.1421 11.0213 13.1395 10.7824 13.1048M14.9167 8.88385C14.8435 8.59774 14.7376 8.34858 14.6053 8.1335M14.9167 8.88385C15.1804 9.5545 15.3184 10.5847 14.8556 11.4622M14.6053 8.1335C13.5214 6.37016 10.6706 6.89695 9.58509 8.1335C9.15914 8.61912 8.26642 9.85067 8.70147 11.3901C8.97418 12.3551 9.85893 12.9705 10.7824 13.1048M14.6053 8.1335C15.0178 8.66563 15.6163 9.91179 15.1046 11.0419M14.8556 11.4622C14.958 11.3251 15.0401 11.1844 15.1046 11.0419M10.7824 13.1048C12.0036 13.2999 14.5776 13.1605 15.1046 11.0419M17.909 17.1618L18.1716 17.6441C18.489 18.2271 18.6332 18.9034 18.343 19.4983M17.909 17.1618C17.3401 16.1169 16.1772 15.4568 14.9051 15.4568H8.98108C7.709 15.4568 6.5461 16.1169 5.97721 17.1618L5.84836 17.3984C5.45002 18.1301 5.35258 18.9939 5.77147 19.7158C7.05001 21.9192 9.26061 22.8618 11.4969 22.9183M17.909 17.1618C18.4928 18.7179 18.0277 22.0477 11.4969 22.9183M18.343 19.4983C17.3269 21.5809 14.3904 22.9913 11.4969 22.9183M18.343 19.4983C18.0599 20.8786 16.2944 23.495 11.4969 22.9183" stroke="#2563EB" stroke-linecap="round"/>
</svg>
