<svg width="24" height="24" viewBox="0 0 24 24" fill="none" xmlns="http://www.w3.org/2000/svg">
<path d="M11.3034 9.40148C11.5053 9.37414 16.394 8.7794 16.1904 4.63217C16.1717 4.25113 16.1195 3.90451 16.0385 3.59029M11.3034 9.40148C13.9829 9.24001 15.3445 8.28275 15.9539 7.1355M11.3034 9.40148C10.9792 9.44538 10.6449 9.44188 10.3141 9.39412M16.0385 3.59029C15.9371 3.1969 15.7905 2.8543 15.6074 2.55856M16.0385 3.59029C16.4036 4.51244 16.5947 5.92903 15.9539 7.1355M15.6074 2.55856C14.1065 0.133973 10.1593 0.858312 8.65628 2.55856C8.0665 3.22628 6.83043 4.91967 7.4328 7.0364C7.50319 7.28376 7.60304 7.51441 7.72719 7.72719M15.6074 2.55856C16.1785 3.29024 17.0071 5.00372 16.2987 6.55765M15.9539 7.1355C16.0956 6.94695 16.2094 6.75356 16.2987 6.55765M10.3141 9.39412C12.005 9.66237 15.569 9.47062 16.2987 6.55765M10.3141 9.39412C9.81285 9.32174 9.31981 9.14768 8.88285 8.88285M20.1817 14.9725L20.5452 15.6356C20.9847 16.4372 21.1845 17.3672 20.7826 18.1851M20.1817 14.9725C19.394 13.5357 17.7838 12.6281 16.0225 12.6281H12.6281M20.1817 14.9725C20.5933 16.062 20.6284 17.7839 19.3697 19.3697M20.7826 18.1851C20.5151 18.7295 20.1515 19.2406 19.7105 19.7105M20.7826 18.1851C20.6768 18.6975 20.4214 19.3338 19.9741 19.9741M8.88285 8.88285L7.72719 7.72719M8.88285 8.88285L12.6281 12.6281M1 1L7.72719 7.72719M12.6281 12.6281L19.3697 19.3697M19.7105 19.7105L19.3697 19.3697M19.7105 19.7105L19.9741 19.9741M19.9741 19.9741L23 23" stroke="#2563EB" stroke-linecap="round"/>
<path d="M11.3034 22.8874C8.207 22.8097 5.14616 21.5136 3.37589 18.4841C2.79587 17.4915 2.9308 16.3037 3.48235 15.2976L3.66075 14.9722C4.44845 13.5355 6.05862 12.6279 7.81996 12.6279H9M11.3034 22.8874C13.9987 22.5306 15.9479 21.8734 17.3348 21.0699L17.6033 21.3384M11.3034 22.8874C13.5431 22.9435 15.8013 22.3622 17.6033 21.3384M11.3034 22.8874C14.3753 23.2541 16.5494 22.6819 18.0379 21.773L17.6033 21.3384" stroke="black" stroke-linecap="round"/>
</svg>
