<svg width="392" height="302" viewBox="0 0 392 302" fill="none" xmlns="http://www.w3.org/2000/svg">
<path d="M46.6051 30.5519V30.5519C45.9528 31.1317 44.8935 30.6039 44.8681 29.7316C44.8222 28.154 44.5076 26.8457 43.548 27.6986C41.7138 29.3291 40.6948 35.4428 39.4719 32.9973C38.2491 30.5519 37.8415 29.9407 35.3959 32.1823C32.9502 34.424 33.7654 30.5515 32.5426 31.3669C32.2037 31.5929 31.5615 32.021 30.7991 32.5293C29.2697 33.5489 27.3309 32.151 27.8883 30.3995C30.9439 20.7987 36.5576 8.32013 43.9556 10.3751C51.7002 13.4322 47.6241 51.5436 55.1649 41.7609C59.0923 36.6659 59.6486 17.223 66.1703 20.1577C77.2238 23.8422 74.6231 54.6506 87.688 85.7209C88.2561 87.0721 91.7252 87.0396 93.0725 87.617V87.617C95.9258 88.8398 94.7029 90.0626 97.3524 87.617C100.002 85.1713 99.798 91.2855 101.428 88.2284C103.059 85.1713 101.428 80.8914 105.505 83.9485C109.581 87.0056 110.396 88.8398 111.007 85.9866C111.619 83.1333 111.619 83.5409 113.249 84.7637C114.698 85.8501 115.02 87.0974 116.075 85.5042C116.376 85.0479 116.415 84.4743 116.247 83.9537C112.948 73.7366 106.255 51.0862 103.874 35.8507C101.428 20.1985 96.741 15.742 94.7029 15.4702C89.8796 15.1985 77.8279 15.4295 68.2084 18.5273" stroke="black" stroke-width="2" stroke-linecap="round"/>
<path d="M174.425 128.174C157.31 134.463 137.887 156.012 188.656 187.277" stroke="black" stroke-width="2" stroke-linecap="round"/>
<path d="M216.933 125.519C228.327 123.987 258.353 130.882 243.139 162.102C241.303 165.869 234.631 173.288 222.63 172.828C207.248 172.239 198.956 187.896 193.955 195.429" stroke="black" stroke-width="2" stroke-linecap="round"/>
<path d="M221.673 137.957C211.203 145.866 190.879 171.596 193.346 211.244C195.812 250.892 196.044 256.339 195.851 254.106" stroke="black" stroke-width="2" stroke-linecap="round"/>
<path d="M206.591 179.533V212.141" stroke="black" stroke-width="2" stroke-linecap="round"/>
<path d="M182.542 183.608V214.587" stroke="black" stroke-width="2" stroke-linecap="round"/>
<path d="M189.064 186.462C188.357 175.727 184.514 146.515 174.798 115.538" stroke="black" stroke-width="2" stroke-linecap="round"/>
<path d="M209.86 148.554C209.729 143.076 211.158 130.191 217.924 122.483C226.381 112.848 227.325 105.246 227.325 87.2988" stroke="black" stroke-width="2" stroke-linecap="round"/>
<path d="M206.871 94.393C210.067 93.8203 215.501 90.0023 211.665 79.3115" stroke="black" stroke-width="2" stroke-linecap="round"/>
<path d="M160.532 77.6309C160.654 79.7963 161.884 84.2139 165.831 84.5602" stroke="black" stroke-width="2" stroke-linecap="round"/>
<path d="M165.831 94.3425C158.11 90.0122 145.718 79.3736 157.917 71.4625C159.59 70.299 163.515 69.6011 165.831 76.1159" stroke="black" stroke-width="2" stroke-linecap="round"/>
<path d="M171.85 23.3333C128.765 27.7926 141.93 60.3024 153.898 76C156.343 70.6178 161.155 70.4258 163.256 71.0022C165.242 40.7094 184.201 44.7972 193.432 50.6276C212.683 49.8588 217.495 57.4834 217.495 61.3917C225.84 56.1525 232.906 62.3034 233.479 63.6489C254.869 0.910353 201.134 10.8394 171.85 23.3333Z" fill="black"/>
<path d="M193.344 80.4839C195.257 80.4839 196.808 78.8415 196.808 76.8155C196.808 74.7894 195.257 73.147 193.344 73.147C191.43 73.147 189.879 74.7894 189.879 76.8155C189.879 78.8415 191.43 80.4839 193.344 80.4839Z" fill="black"/>
<path d="M223.352 79.3997C224.917 80.0338 226.802 79.0257 227.563 77.148C228.324 75.2703 227.673 73.234 226.108 72.5999C224.543 71.9657 222.658 72.9738 221.897 74.8515C221.136 76.7293 221.787 78.7655 223.352 79.3997Z" fill="black"/>
<path d="M209.852 73.9619H202.923" stroke="black" stroke-width="2" stroke-linecap="round"/>
<path d="M178.039 73.2729L165.015 73.9623" stroke="black" stroke-width="2" stroke-linecap="round"/>
<path d="M177.519 69.9609L163.103 70.7402" stroke="black" stroke-width="2" stroke-linecap="round"/>
<path d="M157.678 142.033C117.677 164.088 71.395 222.867 137.571 294.071" stroke="black" stroke-width="2" stroke-linecap="round"/>
<path d="M152.787 259.831C145.46 247.884 145.333 245.654 144.635 230.483" stroke="black" stroke-width="2" stroke-linecap="round"/>
<path d="M264.879 186.054C258.783 205.006 260.19 226.699 261.783 248.215" stroke="black" stroke-width="2" stroke-linecap="round"/>
<path d="M212.706 109.424C210.412 106.963 203.858 103.518 195.994 109.424" stroke="black" stroke-width="2" stroke-linecap="round"/>
<path d="M268.548 169.75C267.346 167.014 257.163 145.238 246.537 139.587" stroke="black" stroke-width="2" stroke-linecap="round"/>
<path d="M36.4145 158.744L35.3955 153.242L61.8901 144.07L62.9091 147.535L77.583 142.848L78.3982 144.886L36.4145 158.744Z" fill="black"/>
<path d="M25.518 228.949C15.2116 205.887 5.75334 158.385 1.66717 133.575C1.42633 132.112 2.81278 130.93 4.22821 131.369L5.67242 131.817C6.50301 132.075 7.40497 131.767 7.90369 131.054L8.97578 129.523C9.5213 128.743 10.5487 128.47 11.4094 128.875C12.4632 129.371 13.7141 128.841 14.0911 127.739L14.9726 125.162C15.4572 123.746 17.269 123.344 18.3066 124.423L19.903 126.084C20.5326 126.738 21.6064 126.643 22.1103 125.887C22.4874 125.321 23.2161 125.103 23.8436 125.365C24.5873 125.675 25.4449 125.313 25.7358 124.562L25.7993 124.397C26.3669 122.931 28.4729 123.07 28.8244 124.603C35.4385 153.438 40.8064 188.659 50.3924 220.461C50.6189 221.212 49.7708 221.833 49.124 221.389C48.5748 221.011 47.8274 221.416 47.8274 222.082C47.8274 222.73 47.1247 223.145 46.5651 222.818L42.6557 220.538C41.599 219.921 40.2502 220.536 40.0213 221.738C39.8327 222.728 38.8567 223.362 37.8754 223.131C36.9466 222.912 36.0117 223.469 35.7606 224.389L35.687 224.659C35.3369 225.943 33.8542 226.533 32.7176 225.841L32.5214 225.722C31.3997 225.039 29.9356 225.604 29.5635 226.863L29.0341 228.655C28.5271 230.371 26.248 230.582 25.518 228.949Z" stroke="black" stroke-width="2" stroke-linecap="round"/>
<path d="M10.1236 139.383C10.9388 142.305 12.1616 148.229 10.5312 148.555C8.49314 148.962 9.30836 143.46 13.1806 141.421C17.0529 139.383 13.9959 146.313 16.6453 145.701C19.2948 145.09 22.5557 137.142 20.7214 137.142C18.8872 137.142 17.8682 145.498 22.7595 145.294C27.6508 145.09 26.2241 136.123 25.2051 137.753C24.1861 139.383 25.4089 143.256 29.0774 144.275" stroke="black" stroke-width="2" stroke-linecap="round"/>
<path d="M27.6512 212.549C27.5833 214.519 28.2626 217.277 31.5235 212.549C32.3386 211.53 32.2163 210.307 30.912 211.122C29.2815 212.141 31.5234 215.402 34.1728 213.975C36.8223 212.549 40.287 208.676 37.8413 209.084C35.3957 209.492 37.0261 213.16 40.0832 211.937" stroke="black" stroke-width="2" stroke-linecap="round"/>
<path d="M23.3708 204.193C26.1562 203.921 32.2567 202.848 34.3763 200.728" stroke="black" stroke-width="2" stroke-linecap="round"/>
<path d="M25.2056 197.875C27.3795 197.603 32.0534 196.815 33.3577 195.837" stroke="black" stroke-width="2" stroke-linecap="round"/>
<path d="M36.2104 195.226V192.168" stroke="black" stroke-width="2" stroke-linecap="round"/>
<path d="M38.4524 195.226V191.965" stroke="black" stroke-width="2" stroke-linecap="round"/>
<path d="M19.0913 182.998C23.1674 182.046 31.6049 179.981 32.7462 179.329" stroke="black" stroke-width="2" stroke-linecap="round"/>
<path d="M15.0149 169.954C18.4116 169.274 26.1019 167.467 29.6888 165.674" stroke="black" stroke-width="2" stroke-linecap="round"/>
<path d="M14.1997 167.304C17.8682 167.304 25.5312 165.185 28.466 163.228" stroke="black" stroke-width="2" stroke-linecap="round"/>
<path d="M40.2871 175.864L79.7152 162.419C82.3541 161.519 83.7472 158.634 82.8113 156.008L78.1947 143.052" stroke="black" stroke-width="2" stroke-linecap="round"/>
<path d="M33.5608 144.682L59.2401 136.326" stroke="black" stroke-width="2" stroke-linecap="round"/>
<path d="M61.2081 142.542L55.0239 122.752C54.2007 120.118 55.6676 117.315 58.3012 116.49L93.0239 105.609C95.6449 104.788 98.4377 106.234 99.2788 108.849L105.596 128.487C106.444 131.124 104.986 133.949 102.345 134.785L67.4893 145.817C64.8498 146.653 62.0338 145.184 61.2081 142.542Z" stroke="black" stroke-width="2" stroke-linecap="round"/>
<path d="M39.4712 165.062C40.3543 163.839 42.4875 161.475 43.9549 161.801C45.7891 162.209 46.4005 162.209 48.2348 159.967C50.069 157.725 50.4766 161.598 53.5337 159.967C56.5908 158.337 59.8516 155.28 61.4821 156.91C62.7864 158.215 64.1995 156.367 64.7429 155.28" stroke="black" stroke-width="2" stroke-linecap="round"/>
<path d="M68.7131 132.71L64.8242 134.04C63.7844 134.396 62.5898 133.564 62.2556 132.517C61.7737 131.007 63.0352 128.452 64.5347 127.939L66.77 127.175C67.7966 126.824 68.916 127.355 69.2928 128.372L69.9412 130.123C70.3316 131.177 69.7768 132.346 68.7131 132.71Z" stroke="black" stroke-width="2"/>
<path d="M91.8495 134.084L93.0723 128.174" stroke="black" stroke-width="2" stroke-linecap="round"/>
<path d="M94.7023 130.619C95.9251 130.008 98.3707 131.435 96.9441 132.046C96.382 132.287 94.4985 129.193 100.001 129.396" stroke="black" stroke-width="2" stroke-linecap="round"/>
<path d="M85.3273 133.075C86.5501 132.463 88.9957 133.891 87.5691 134.501C87.007 134.742 85.1235 131.648 90.6262 131.852" stroke="black" stroke-width="2" stroke-linecap="round"/>
<path d="M42.1208 9.9665C48.235 7.92846 62.094 4.25869 68.6154 5.89041C72.0801 6.75731 75.6806 13.9068 75.1372 16.896" stroke="black" stroke-width="2" stroke-linecap="round"/>
<path d="M50.6809 12.4128C55.776 12.4127 63.3983 8.94814 65.3548 9.76336" stroke="black" stroke-width="2" stroke-linecap="round"/>
<path d="M50.8849 14.8585C53.1947 14.8585 58.3849 14.4102 60.6675 12.6167" stroke="black" stroke-width="2" stroke-linecap="round"/>
<path d="M77.9901 27.0873C83.357 26.6118 94.4575 25.4976 95.9249 24.8455" stroke="black" stroke-width="2" stroke-linecap="round"/>
<path d="M79.417 30.1441C84.0366 29.3289 94.1724 27.7392 97.7594 27.9023" stroke="black" stroke-width="2" stroke-linecap="round"/>
<path d="M80.0288 39.9267C84.3087 40.5383 94.5397 37.1957 95.5179 37.6848" stroke="black" stroke-width="2" stroke-linecap="round"/>
<path d="M80.2319 42.9847C86.5499 42.9842 94.2944 38.5002 99.7972 39.52" stroke="black" stroke-width="2" stroke-linecap="round"/>
<path d="M292.747 31.2107L293.102 29.9429C293.39 28.915 294.434 28.2943 295.474 28.5326L327.877 35.9544C329.054 36.224 329.725 37.4666 329.306 38.5986L328.678 40.2944C328.325 41.2469 327.314 41.7837 326.328 41.5427L294.198 33.6928C293.1 33.4245 292.442 32.2996 292.747 31.2107Z" fill="black"/>
<path d="M296.672 21.3816L327.739 28.0755C330.777 28.7301 332.488 31.9681 331.317 34.8469L322.777 55.848C321.833 58.1684 319.318 59.4324 316.893 58.8052L285.667 50.7294" stroke="black" stroke-width="2" stroke-linecap="round"/>
<path d="M299.73 10.9874C296.647 14.7195 287.992 44.5317 282.284 57.8749C282.228 58.0059 282.158 58.1299 282.073 58.2445C279.133 62.2243 278.717 58.0284 277.311 55.4166C275.884 52.7669 269.77 58.6774 267.121 59.4927C264.471 60.3079 267.528 54.1937 263.452 55.4166C259.376 56.6394 259.376 55.0089 259.172 53.3785C259.096 52.7649 258.174 52.8489 257.014 53.2231C255.389 53.7477 253.612 52.433 254.019 50.7739C258.112 34.0879 266.254 14.8069 270.905 4.93843C271.461 3.75986 273.075 3.68145 274.355 3.43929C275.7 3.18483 276.814 1.76352 278.33 1.20492C282.202 -0.222064 279.553 6.30003 283.018 5.4847C286.482 4.66937 287.094 5.4847 287.501 6.30003C287.909 7.11536 289.743 6.70753 291.985 4.26187C294.227 1.81622 295.246 2.22383 295.653 5.4847C296.061 8.74557 298.711 5.28089 300.137 6.70753C301.278 7.84883 300.341 10.0363 299.73 10.9874Z" stroke="black" stroke-width="2" stroke-linecap="round"/>
<path d="M264.675 37.0737C271.197 39.1118 283.914 38.4188 285.056 39.7232" stroke="black" stroke-width="2" stroke-linecap="round"/>
<path d="M273.846 41.7615C275.069 41.4897 278.004 41.1093 279.96 41.7615" stroke="black" stroke-width="2" stroke-linecap="round"/>
<path d="M268.344 26.0691L281.795 27.0881" stroke="black" stroke-width="2" stroke-linecap="round"/>
<path d="M270.586 22.6042C275.137 22.9439 284.852 23.8271 287.298 24.6423" stroke="black" stroke-width="2" stroke-linecap="round"/>
<path d="M272.623 46.2457L274.661 44.6152" stroke="black" stroke-width="2" stroke-linecap="round"/>
<path d="M277.515 45.0225L276.7 47.2643" stroke="black" stroke-width="2" stroke-linecap="round"/>
<path d="M279.96 45.8379L279.757 47.2645" stroke="black" stroke-width="2" stroke-linecap="round"/>
<path d="M282.406 45.6338V47.0604" stroke="black" stroke-width="2" stroke-linecap="round"/>
<path d="M274.05 10.7833C272.827 12.0741 270.83 14.5333 272.623 14.0442C274.181 13.6193 276.625 11.8167 277.834 12.2607C279.027 12.6987 277.534 13.5223 278.768 13.2183C279.038 13.1519 279.364 13.0871 279.757 13.0252C283.629 12.4137 280.368 14.4518 284.036 14.0442C287.705 13.6366 290.354 8.54146 288.928 9.96809C287.501 11.3947 285.871 15.2669 289.743 15.0631C293.615 14.8593 294.227 10.1718 293.004 12.6174C291.781 15.0631 293.004 14.8593 293.004 15.6745" stroke="black" stroke-width="2" stroke-linecap="round"/>
<path d="M289.743 39.5197C290.491 39.1121 292.678 38.9898 295.45 41.7615C298.915 45.2262 303.806 40.7424 305.233 42.7805C306.659 44.8185 306.455 45.0223 308.29 44.4109" stroke="black" stroke-width="2" stroke-linecap="round"/>
<path d="M313.763 282.658H273.264C271.527 282.658 270.193 281.12 270.439 279.401C270.64 277.995 271.844 276.951 273.264 276.951H313.763C315.499 276.951 316.833 278.489 316.587 280.208C316.387 281.614 315.183 282.658 313.763 282.658Z" fill="black"/>
<path d="M317.453 272.982L314.321 298.367C314.135 299.871 312.858 301 311.343 301H270.762C268.944 301 267.544 299.396 267.789 297.595L271.251 272.209C271.454 270.722 272.723 269.614 274.223 269.614H314.475C316.278 269.614 317.674 271.193 317.453 272.982Z" stroke="black" stroke-width="2" stroke-linecap="round"/>
<path d="M272.827 290.198C274.186 288.975 277.393 286.897 279.349 288.364C281.795 290.198 283.629 286.937 285.871 288.976C288.113 291.014 294.023 286.53 296.469 288.976C298.425 290.932 300.545 289.791 301.36 288.976" stroke="black" stroke-width="2" stroke-linecap="round"/>
<path d="M279.553 269.003L281.426 255.319C281.837 252.317 279.503 249.642 276.472 249.642H240.284C237.792 249.642 235.681 251.476 235.333 253.943L232.272 275.644C231.843 278.685 234.232 281.391 237.303 281.342L269.771 280.824" stroke="black" stroke-width="2" stroke-linecap="round"/>
<path d="M238.03 266.977L238.18 265.678C238.297 264.669 239.151 263.908 240.167 263.908H244.115C245.371 263.908 246.317 265.052 246.079 266.285L245.83 267.584C245.649 268.526 244.825 269.207 243.866 269.207H240.017C238.822 269.207 237.893 268.165 238.03 266.977Z" stroke="black" stroke-width="2" stroke-linecap="round"/>
<path d="M262.841 276.951L266.714 272.06" stroke="black" stroke-width="2" stroke-linecap="round"/>
<path d="M255.708 274.913C256.319 274.233 257.909 273.078 259.376 273.894C261.211 274.913 260.803 276.951 258.765 276.543C256.727 276.136 258.561 273.486 262.841 274.709" stroke="black" stroke-width="2" stroke-linecap="round"/>
<path d="M267.529 274.709C268.14 275.253 269.608 275.932 270.586 274.302" stroke="black" stroke-width="2" stroke-linecap="round"/>
<path d="M299.166 155.892C298.053 157.412 298.284 161.335 308.086 164.859" stroke="black" stroke-width="2" stroke-linecap="round"/>
<path d="M311.073 153.446C308.167 153.437 305.351 153.246 298.75 151.096C297.196 150.606 296.122 149.391 295.781 148.844C294.547 146.708 297.001 144.822 299.21 144.887C301.619 144.96 306.339 145.248 311.961 145.884" stroke="black" stroke-width="2" stroke-linecap="round"/>
<path d="M310.939 153.356C308.032 153.348 305.215 153.156 298.611 151C297.105 151.545 296.91 154.137 299.295 155.756C300.801 156.782 303.527 158.04 308.032 159.56" stroke="black" stroke-width="2" stroke-linecap="round"/>
<path d="M261.007 233.541C272.691 242.984 295.114 242.296 304.417 217.644C312.569 196.041 315.422 177.359 315.83 168.527" stroke="black" stroke-width="2" stroke-linecap="round"/>
<path d="M271.197 216.014C271.401 214.791 275.477 197.468 281.999 190.946" stroke="black" stroke-width="2" stroke-linecap="round"/>
<path d="M315.627 166.897C317.325 162.277 319.703 151.53 315.627 145.498" stroke="black" stroke-width="2" stroke-linecap="round"/>
<path d="M303.194 163.229L302.452 185.702C302.42 186.646 301.356 187.181 300.58 186.643V186.643C300.092 186.305 299.43 186.378 299.026 186.812L298.501 187.378C297.717 188.222 296.396 188.269 295.553 187.483L295.473 187.407C294.65 186.639 293.379 186.619 292.531 187.36L292.092 187.744C291.278 188.457 290.13 188.644 289.131 188.228L287.453 187.529C286.473 187.121 285.349 187.261 284.5 187.899L282.601 189.322C281.696 190.002 280.415 189.844 279.702 188.966L279.288 188.456C278.764 187.811 277.811 187.728 277.183 188.272V188.272C276.331 189.01 275.01 188.57 274.835 187.455C269.928 156.049 280.639 78.1671 320.314 84.3564C327.176 85.3753 340.287 94.0572 337.841 120.633C335.527 145.781 340.938 153.568 344.404 154.563C344.775 154.669 345.226 154.725 345.442 154.406C345.708 154.011 346.005 153.14 346.197 151.408C346.595 147.828 349.127 125.622 358.148 135.716C358.6 136.222 358.833 136.9 358.833 137.579V162.518C358.833 164.282 360.657 165.457 362.263 164.726V164.726C362.93 164.423 363.697 164.438 364.352 164.765L365.874 165.526C366.816 165.997 367.937 165.939 368.826 165.374L373.841 162.182C375.234 161.296 377.082 161.702 377.975 163.091L378.531 163.955C379.366 165.253 381.081 165.654 382.405 164.86L384.24 163.759C384.712 163.475 385.327 163.663 385.56 164.163V164.163C385.916 164.926 387.006 164.859 387.24 164.051C389.654 155.7 392.325 140.754 387.57 133.473C385.973 131.027 363.521 128.921 354.757 131.639" stroke="black" stroke-width="2" stroke-linecap="round"/>
<path d="M320.518 84.1523C329.825 84.2882 351.313 83.8155 358.222 88.8398C369.431 96.992 363.113 125.321 366.985 130.008" stroke="black" stroke-width="2" stroke-linecap="round"/>
<path d="M305.844 140.606C307.814 128.446 313.792 105.348 333.765 94.9541" stroke="black" stroke-width="2" stroke-linecap="round"/>
<path d="M338.86 91.4893C343.412 91.4893 353.167 91.6931 355.776 92.5083" stroke="black" stroke-width="2" stroke-linecap="round"/>
<path d="M340.898 94.9541C348.846 94.9541 358.221 96.8699 359.037 96.3807" stroke="black" stroke-width="2" stroke-linecap="round"/>
<path d="M342.529 107.793L359.852 108.405" stroke="black" stroke-width="2" stroke-linecap="round"/>
<path d="M344.159 111.054C347.555 111.462 354.675 112.032 355.979 111.054" stroke="black" stroke-width="2" stroke-linecap="round"/>
<path d="M342.529 123.486L357.407 124.098" stroke="black" stroke-width="2" stroke-linecap="round"/>
<path d="M344.567 126.136C346.673 126.407 351.088 126.788 351.904 126.136" stroke="black" stroke-width="2" stroke-linecap="round"/>
<path d="M367.189 138.16C367.596 141.625 368.167 148.595 367.189 148.758C365.966 148.962 370.857 141.013 372.284 142.644C373.71 144.274 368.004 152.834 374.729 148.758C376.564 147.263 379.743 143.663 377.786 141.217C375.341 138.16 375.748 150.388 377.175 148.758C378.602 147.128 382.678 139.791 383.901 144.07C385.123 148.35 380.232 148.35 381.863 146.72C383.493 145.09 385.531 144.07 386.754 146.72" stroke="black" stroke-width="2" stroke-linecap="round"/>
<path d="M179.987 84.3767C196.666 93.9069 202.298 79.4629 202.916 69.3137C202.985 68.1796 202.029 67.2782 200.894 67.3314L179.946 68.3134C178.879 68.3634 178.039 69.243 178.039 70.3112V73.6625" stroke="black" stroke-width="2" stroke-linecap="round"/>
<path d="M228.299 85.7404C213.415 88.4632 209.976 78.7825 209.628 69.3065C209.587 68.1746 210.538 67.2737 211.67 67.3217L230.528 68.1207C231.655 68.1685 232.519 69.1372 232.439 70.2617L232.195 73.6625" stroke="black" stroke-width="2" stroke-linecap="round"/>
</svg>
