<svg width="180" height="152" viewBox="0 0 180 152" fill="none" xmlns="http://www.w3.org/2000/svg">
<path d="M38.381 137.242C40.3357 141.066 41.9507 150.5 36.5966 149.225C33.2824 148.205 28.0808 140.913 30.7324 137.242C31.1573 136.477 32.5681 135.049 34.8117 135.457" stroke="black" stroke-width="2" stroke-linecap="round"/>
<path d="M38.3811 120.925L33.1847 117.244C32.6945 116.897 32.0118 117.057 31.7704 117.607C30.6727 120.109 29.4707 124.477 30.8418 127.972C30.9302 128.197 31.1065 128.376 31.3324 128.463C33.4958 129.294 37.6009 129.515 39.146 124.494" stroke="black" stroke-width="2" stroke-linecap="round"/>
<mask id="path-3-inside-1_2312_5165" fill="white">
<ellipse cx="35.0669" cy="105.373" rx="2.77229" ry="1.8482" transform="rotate(22.5962 35.0669 105.373)"/>
</mask>
<path d="M35.7799 105.669C35.9207 105.331 36.1597 105.336 35.9897 105.37C35.8362 105.4 35.5183 105.396 35.1252 105.232L33.5883 108.925C34.6087 109.35 35.7295 109.497 36.7594 109.295C37.7728 109.096 38.9398 108.487 39.4728 107.206L35.7799 105.669ZM35.1252 105.232C34.7321 105.069 34.5054 104.846 34.4185 104.716C34.3224 104.572 34.4946 104.738 34.3539 105.076L30.6609 103.539C30.1279 104.82 30.5181 106.077 31.0913 106.936C31.6738 107.809 32.5678 108.501 33.5883 108.925L35.1252 105.232ZM34.3539 105.076C34.2131 105.414 33.974 105.409 34.144 105.375C34.2975 105.345 34.6155 105.349 35.0085 105.513L36.5455 101.82C35.525 101.395 34.4042 101.248 33.3744 101.45C32.361 101.649 31.1939 102.258 30.6609 103.539L34.3539 105.076ZM35.0085 105.513C35.4016 105.676 35.6284 105.899 35.7152 106.029C35.8113 106.173 35.6391 106.008 35.7799 105.669L39.4728 107.206C40.0058 105.926 39.6157 104.668 39.0425 103.809C38.46 102.936 37.566 102.245 36.5455 101.82L35.0085 105.513Z" fill="black" mask="url(#path-3-inside-1_2312_5165)"/>
<path d="M54.6132 140.505C54.2843 141.295 53.3773 141.669 52.5872 141.34C51.7971 141.011 51.4231 140.104 51.752 139.314C52.0808 138.524 52.9879 138.15 53.7779 138.479C54.568 138.808 54.942 139.715 54.6132 140.505Z" stroke="black" stroke-width="2"/>
<path d="M17.6493 94.5138C17.3205 95.3039 16.4134 95.6778 15.6233 95.349C14.8332 95.0202 14.4593 94.1131 14.7881 93.323C15.1169 92.5329 16.024 92.159 16.8141 92.4878C17.6042 92.8166 17.9781 93.7237 17.6493 94.5138Z" stroke="black" stroke-width="2"/>
<path d="M79.1744 122.454C79.0044 124.919 80.5001 129.491 87.8428 128.063" stroke="black" stroke-width="2" stroke-linecap="round"/>
<path d="M128.09 83.5544C126.015 82.2192 121.532 80.8391 120.201 86.0002" stroke="black" stroke-width="2" stroke-linecap="round"/>
<path d="M102.594 40.5017C100.519 39.1665 96.0364 37.7863 94.7052 42.9475" stroke="black" stroke-width="2" stroke-linecap="round"/>
<path d="M69.5704 70.1947C67.7436 71.8533 65.2503 75.826 69.8911 78.4477" stroke="black" stroke-width="2" stroke-linecap="round"/>
<path d="M156.417 45.8224C157.17 43.4726 157.343 38.7855 152.013 38.8355" stroke="black" stroke-width="2" stroke-linecap="round"/>
<ellipse cx="128.636" cy="52.8518" rx="7.64865" ry="7.64865" fill="black"/>
<path d="M170.448 70.9536C173.259 75.1704 170.041 78.58 167.994 79.82C167.93 79.859 167.861 79.8892 167.789 79.9097C163.751 81.056 159.995 75.7634 159.995 71.9734C159.995 68.8718 166.879 65.5995 170.448 70.9536Z" fill="black"/>
<path d="M148.012 93.3895C145.768 88.0865 137.219 91.1799 133.224 93.3895C129.91 94.929 130.675 100.528 134.754 105.117C138.017 108.789 142.063 107.157 143.677 105.882C146.057 103.928 150.255 98.6926 148.012 93.3895Z" fill="black"/>
<path d="M13.9498 101.373C12.3156 97.5343 6.08806 99.7735 3.17858 101.373C0.764325 102.487 1.32146 106.54 4.29285 109.862C6.66995 112.519 9.61658 111.338 10.7928 110.416C12.5261 109.001 15.5841 105.211 13.9498 101.373Z" stroke="black" stroke-width="2" stroke-linecap="round"/>
<path d="M114.103 119.905C102.681 116.029 101.015 126.109 101.61 131.633C102.375 135.202 106.454 135.712 109.004 134.947C114.376 133.335 128.38 124.749 114.103 119.905Z" fill="black"/>
<ellipse cx="76.2706" cy="100.331" rx="7.47015" ry="8.66847" transform="rotate(30.9344 76.2706 100.331)" fill="black"/>
<path d="M96.511 69.6784C98.9586 66.415 94.9813 62.0298 92.6867 60.2451C90.3921 58.4606 87.2307 59.0213 84.7831 62.2847C81.9786 66.0239 93.4516 73.7577 96.511 69.6784Z" fill="black"/>
<path d="M47.8149 44.1831C40.6762 42.5514 39.0615 46.5627 39.1464 48.7723C39.6565 56.421 51.1294 57.9507 53.9339 55.9111C55.8791 54.4964 56.7383 46.2228 47.8149 44.1831Z" fill="black"/>
<path d="M91.9221 13.8434C89.2706 8.54036 83.3386 9.4242 80.7041 10.529C71.7297 13.3845 73.3102 18.1776 75.35 19.7074C78.4095 22.1719 85.7012 26.8971 90.3924 26.0812C96.2563 25.0614 95.2365 20.4722 91.9221 13.8434Z" fill="black"/>
<path d="M143.168 134.182C145.207 130.613 151.581 124.545 163.819 121.689C166.199 121.349 171.06 118.273 171.468 108.687C171.978 96.7037 185.235 79.1118 174.527 67.1289C169.938 61.9934 172.233 54.8911 169.938 41.1235" stroke="black" stroke-width="2" stroke-linecap="round"/>
<path d="M167.898 37.2994C163.904 32.4553 152.55 21.5942 139.088 16.903C122.278 11.045 140.326 8.24026 110.624 8.74291C110.566 8.74389 110.507 8.74972 110.451 8.75939C108.17 9.14722 101.694 8.25958 93.2649 1.65973C93.2197 1.62435 93.1722 1.59232 93.1207 1.56703C91.9305 0.982708 88.2749 0.375176 82.488 2.37064C76.5731 4.41028 59.967 10.5292 52.4034 13.3337C50.7886 14.1835 47.2023 17.005 45.7745 21.4922C43.9899 27.1013 14.1601 55.6562 23.3385 69.1688" stroke="black" stroke-width="2" stroke-linecap="round"/>
<path d="M25.6335 72.228C29.4827 72.7194 36.9937 75.6731 37.352 83.5532C37.3755 84.0689 37.7507 84.5089 38.2598 84.5946C45.5242 85.8167 57.0345 92.0454 51.5473 108.712C51.4487 109.012 51.4904 109.349 51.6576 109.616C54.2434 113.752 56.6229 122.451 48.6876 129.047C47.9783 129.637 48.2425 130.909 49.1417 131.114C55.1424 132.487 64.5226 135.98 68.8072 142.429C69.0654 142.818 69.544 143.003 69.9962 142.887C74.4434 141.749 84.2337 141.295 93.4515 147.44C105.689 155.598 106.199 146.93 122.261 148.714C135.111 150.142 140.193 142.681 141.128 138.771" stroke="black" stroke-width="2" stroke-linecap="round"/>
</svg>
