<svg width="282" height="150" viewBox="0 0 282 150" fill="none" xmlns="http://www.w3.org/2000/svg">
<path d="M68.4528 92.1857L143.697 79.199C144.681 79.0293 145.279 80.2465 144.544 80.9212L109.918 112.693C109.845 112.76 109.766 112.817 109.672 112.852C106.545 114.037 94.9375 109.408 88.5358 106.506C87.971 106.25 87.312 106.559 87.143 107.156C85.7268 112.155 84.0539 116.758 83.1383 119.087C82.9651 119.527 82.4796 119.75 82.2039 119.366C80.625 117.163 80.3935 107.956 80.5033 102.475C80.5135 101.963 80.1381 101.529 79.6372 101.421C74.9795 100.41 68.794 96.3139 66.1411 94.2727" stroke="black" stroke-width="2" stroke-linecap="round"/>
<path d="M88.2769 105.336C96.2491 101.535 116.417 92.016 133.312 84.3452" stroke="black" stroke-width="2" stroke-linecap="round"/>
<path d="M82.1704 119.839L97.0549 110.297" stroke="black" stroke-width="2" stroke-linecap="round"/>
<path d="M85.605 98.0844L106.214 90.833" stroke="black" stroke-width="2" stroke-linecap="round"/>
<path d="M74.0545 132.661C66.4849 136.751 45.8205 141.122 23.7192 125.884" stroke="black" stroke-width="2" stroke-linecap="round"/>
<path d="M62.8442 123.283C50.2257 121.399 20.243 110.132 1.26034 80.1357" stroke="black" stroke-width="2" stroke-linecap="round"/>
<path d="M171.365 58.1767C166.216 89.9273 181.923 118.418 205.857 122.3C229.791 126.182 253.698 104.115 258.847 72.3646C263.997 40.6141 248.29 12.123 224.356 8.24136C200.421 4.35971 176.515 26.4262 171.365 58.1767Z" stroke="black" stroke-width="2"/>
<path d="M181.333 59.2093C179.364 71.3458 181.238 82.8864 185.811 91.7272C190.384 100.568 197.616 106.65 206.373 108.071C215.13 109.491 223.913 106.006 231.045 99.0633C238.178 92.1209 243.603 81.7641 245.572 69.6277C247.54 57.4912 245.666 45.9506 241.093 37.1098C236.52 28.2689 229.289 22.1865 220.532 20.7663C211.775 19.3461 202.992 22.8312 195.859 29.7737C188.726 36.7161 183.301 47.0729 181.333 59.2093Z" stroke="black" stroke-width="2"/>
<ellipse cx="16.9076" cy="22.7973" rx="16.9076" ry="22.7973" transform="matrix(-0.987103 -0.160089 -0.160089 0.987103 230.697 45.1074)" fill="black"/>
<path d="M249.207 116.404C218.675 145.792 184.708 128.617 177.456 110.107C180.685 128.571 202.564 139.046 220.774 139.494C240.811 139.494 265.809 122.892 272.679 107.817C297.959 52.341 259.448 13.2944 240.238 7.82422C276.304 24.8077 282.021 84.82 249.207 116.404Z" fill="black"/>
</svg>
