<svg width="167" height="152" viewBox="0 0 167 152" fill="none" xmlns="http://www.w3.org/2000/svg">
<path d="M106.78 147.364L121.122 115.495C121.445 114.777 122.159 114.315 122.946 114.315H146.701C148.169 114.315 149.137 115.843 148.509 117.17L133.444 149.04C133.113 149.739 132.409 150.185 131.636 150.185H108.604C107.153 150.185 106.185 148.688 106.78 147.364Z" stroke="black" stroke-width="2"/>
<path d="M88.8459 109.701L103.187 77.8316C103.51 77.1139 104.224 76.6523 105.011 76.6523H128.767C130.234 76.6523 131.202 78.1803 130.575 79.5071L115.509 111.377C115.179 112.076 114.475 112.522 113.701 112.522H90.6698C89.2185 112.522 88.2504 111.025 88.8459 109.701Z" stroke="black" stroke-width="2"/>
<path d="M166.053 147.466L149.92 114.618C149.584 113.934 148.887 113.5 148.125 113.5H125.891C124.439 113.5 123.471 114.999 124.069 116.323L138.894 149.171C139.217 149.887 139.93 150.348 140.717 150.348H164.258C165.738 150.348 166.706 148.795 166.053 147.466Z" fill="black"/>
<path d="M148.118 109.803L131.984 76.9552C131.648 76.2707 130.952 75.8369 130.189 75.8369H107.956C106.504 75.8369 105.536 77.336 106.133 78.6597L120.958 111.507C121.282 112.224 121.995 112.685 122.781 112.685H146.322C147.803 112.685 148.77 111.132 148.118 109.803Z" fill="black"/>
<path d="M39.4436 147.201L53.7849 115.332C54.1078 114.614 54.8217 114.152 55.6087 114.152H79.3644C80.8319 114.152 81.7997 115.68 81.1725 117.007L66.1069 148.877C65.7764 149.576 65.0722 150.022 64.2988 150.022H41.2674C39.8161 150.022 38.848 148.525 39.4436 147.201Z" stroke="black" stroke-width="2"/>
<path d="M68.6621 149.71L55.997 116.373C55.4997 115.065 56.4665 113.663 57.8666 113.663H79.6442C80.4074 113.663 81.1041 114.097 81.44 114.783L84.5519 121.131C84.8149 121.667 84.8243 122.294 84.5774 122.838L76.9781 139.587L73.6266 147.31C73.3954 147.843 73.5757 148.465 74.0559 148.791C75.0404 149.461 74.5666 151 73.376 151H70.5317C69.7012 151 68.9571 150.487 68.6621 149.71Z" fill="black"/>
<path d="M73.3567 147.364L87.698 115.495C88.0209 114.777 88.7348 114.315 89.5218 114.315H113.277C114.745 114.315 115.713 115.843 115.086 117.17L100.02 149.04C99.6894 149.739 98.9853 150.185 98.2119 150.185H75.1805C73.7292 150.185 72.7611 148.688 73.3567 147.364Z" stroke="black" stroke-width="2"/>
<path d="M55.4221 109.701L69.7634 77.8316C70.0863 77.1139 70.8002 76.6523 71.5872 76.6523H95.3429C96.8104 76.6523 97.7782 78.1803 97.151 79.5071L82.0854 111.377C81.7549 112.076 81.0507 112.522 80.2773 112.522H57.2459C55.7946 112.522 54.8265 111.025 55.4221 109.701Z" stroke="black" stroke-width="2"/>
<path d="M102.576 149.71L89.911 116.373C89.4138 115.065 90.3806 113.663 91.7807 113.663H113.558C114.321 113.663 115.018 114.097 115.354 114.783L118.466 121.131C118.729 121.667 118.738 122.294 118.491 122.838L110.892 139.587L107.541 147.31C107.31 147.843 107.49 148.465 107.97 148.791C108.954 149.461 108.481 151 107.29 151H104.446C103.615 151 102.871 150.487 102.576 149.71Z" fill="black"/>
<path d="M84.6406 112.047L71.9755 78.7103C71.4783 77.4015 72.445 76 73.8451 76H95.6227C96.3859 76 97.0826 76.4344 97.4186 77.1197L100.53 83.4679C100.793 84.0044 100.803 84.6304 100.556 85.1745L92.9567 101.924L89.6051 109.647C89.374 110.18 89.5542 110.802 90.0344 111.128C91.0189 111.798 90.5451 113.337 89.3545 113.337H86.5102C85.6797 113.337 84.9356 112.824 84.6406 112.047Z" fill="black"/>
<path d="M51.5439 113.011H151.816" stroke="black" stroke-width="2" stroke-linecap="round"/>
<path d="M85.6955 56.3282L50.5271 35.2049C49.0929 34.3435 49.2872 32.2067 50.8533 31.6182L61.9866 27.4345C62.5691 27.2155 63.2205 27.2803 63.7485 27.6097L99.4484 49.8761C100.938 50.8052 100.593 53.0656 98.8944 53.5084L87.2297 56.549C86.7094 56.6846 86.1564 56.605 85.6955 56.3282Z" stroke="black" stroke-width="2" stroke-linecap="round"/>
<path d="M60.3477 5.94795L76.8757 2.80892C77.4968 2.69096 78.1417 2.6716 78.7389 2.87903C79.9579 3.30245 81.2017 4.1469 80.1978 5.43755C78.9274 7.07082 77.3747 8.15967 76.7571 8.49993" stroke="black" stroke-width="2" stroke-linecap="round"/>
<path d="M68.1738 10.7195C72.6062 9.67642 81.8881 8.32041 83.5568 11.2411C85.2255 14.1617 84.2521 16.2826 83.5568 16.978" stroke="black" stroke-width="2" stroke-linecap="round"/>
<path d="M69.1523 11.2958C72.881 10.7716 80.6505 11.0337 81.8992 16.276C83.46 22.8289 81.8992 25.45 79.2978 26.7606" stroke="black" stroke-width="2" stroke-linecap="round"/>
<path d="M1 26.5391C3.35681 29.6986 9.69402 36.4915 16.1884 38.3872C23.2884 40.4597 45.8127 50.5883 54.8535 44.2882C57.0827 42.7349 55.8277 39.6455 53.3268 38.5838L47.1426 35.9585C46.4186 35.6512 45.7774 35.1774 45.2709 34.5756L40.7161 29.1634C38.9006 27.0061 39.2268 23.7753 41.4369 22.0245L44.4408 19.645C45.4667 18.8323 46.7703 18.4543 48.0718 18.592L62.4297 20.1116C64.5357 20.3345 66.2439 21.8716 66.9823 23.8565C68.2677 27.3119 70.4305 31.2955 73.4208 33.0424C75.4191 34.2097 77.4398 32.294 77.5597 29.9828C77.8472 24.443 77.3669 17.1147 74.0612 14.9544C70.1575 12.4032 58.6763 5.53983 52.3256 1.775C51.471 1.26839 50.4871 1.03056 49.4953 1.08777L19.0689 2.84303" stroke="black" stroke-width="2" stroke-linecap="round"/>
</svg>
