<svg width="176" height="152" viewBox="0 0 176 152" fill="none" xmlns="http://www.w3.org/2000/svg">
<path d="M73.7308 128.459C75.5243 103.648 72.6546 55.4022 46.8278 60.9023C21.001 66.4025 19.9249 97.4705 22.6152 112.317C25.0065 120.986 38.6971 116.98 27.6968 89.0011" stroke="black" stroke-width="2" stroke-linecap="round"/>
<path d="M18.7293 86.0116C11.4556 85.8124 -5.53147 93.3639 4.68 118.893C17.8325 151.775 85.3888 170.606 105.118 118.893" stroke="black" stroke-width="2" stroke-linecap="round"/>
<path d="M122.754 103.051C117.672 97.0723 111.992 103.051 106.612 97.0723V112.15C107.568 114.541 109.815 112.15 111.096 111.122L122.754 103.051Z" fill="black"/>
<path d="M133.814 94.9797L114.518 108.762C111.209 111.126 106.612 108.76 106.612 104.694V78.8379" stroke="black" stroke-width="2" stroke-linecap="round"/>
<path d="M118.868 71.9624L138.298 32.8037" stroke="black" stroke-width="2" stroke-linecap="round"/>
<path d="M148.462 33.4019L126.341 78.539" stroke="black" stroke-width="2" stroke-linecap="round"/>
<path d="M155.635 42.3691L136.504 80.93" stroke="black" stroke-width="2" stroke-linecap="round"/>
<path d="M130.825 29.2168L108.183 75.3613C107.804 76.1332 108.524 77.0377 109.38 76.9578C112.862 76.6326 117.393 77.5662 118.38 82.7201C118.528 83.4915 119.427 83.9651 120.134 83.6234C123.188 82.148 127.258 81.6925 127.801 87.3135C127.884 88.1815 128.95 88.7248 129.703 88.284C131.887 87.0041 134.505 86.3624 135.764 88.7047C136.272 89.6506 138.052 90.0347 138.526 89.0708L161.315 42.6683" stroke="black" stroke-width="2" stroke-linecap="round"/>
<path d="M158.326 1.41715C148.282 -0.256811 143.579 3.5096 142.483 5.60205L136.983 16.3403C136.635 17.0201 137.145 17.8305 137.909 17.8435C146.114 17.9831 160.702 20.9995 166.327 30.8308C166.753 31.5756 167.892 31.6063 168.276 30.8388L169.087 29.2169L174.891 17.3177C175.003 17.0886 175.025 16.8269 174.943 16.5856C173.379 11.9736 168.097 3.0457 158.326 1.41715Z" fill="black" stroke="black" stroke-width="2" stroke-linecap="round"/>
<path d="M166.995 33.1031L163.25 40.1514C162.807 40.9861 161.401 40.8346 160.992 39.9822C158.383 34.5357 150.514 26.9074 133.894 26.2671C133.163 26.2389 132.682 25.4726 132.999 24.8133L135.907 18.7549" stroke="black" stroke-width="2" stroke-linecap="round"/>
<path d="M137.7 22.6411C141.785 22.0433 152.287 23.1195 161.613 32.2066" stroke="black" stroke-width="2" stroke-linecap="round"/>
</svg>
