<svg width="105" height="147" viewBox="0 0 105 147" fill="none" xmlns="http://www.w3.org/2000/svg">
<path d="M1.86935 141.985C-5.41316 138.587 10.4596 136.293 19.3064 135.57C35.8886 135.021 71.2584 134.253 80.0795 135.57C91.1058 137.217 90.9776 141.985 83.1566 144.673C75.3356 147.36 10.9725 146.233 1.86935 141.985Z" fill="black" fill-opacity="0.3"/>
<path d="M52.6789 17.4355L56.5508 20.8175C57.2944 21.467 58.3101 21.7091 59.2668 21.4647L64.2478 20.1925C65.0509 19.9874 65.7405 20.7921 65.4148 21.5543L63.3948 26.2818C63.0069 27.1897 63.0905 28.2305 63.6186 29.0648L66.3678 33.4089C66.811 34.1093 66.2587 35.0139 65.4332 34.9397L60.3129 34.4794C59.3295 34.391 58.3655 34.7922 57.7352 35.5522L54.4533 39.5092C53.9241 40.1472 52.8932 39.9015 52.7087 39.0935L51.5641 34.0816C51.3443 33.1189 50.6649 32.3261 49.7473 31.9615L44.9697 30.063C44.1995 29.7569 44.1146 28.7005 44.826 28.2753L49.239 25.638C50.0866 25.1315 50.6306 24.2403 50.6939 23.255L51.0231 18.1246C51.0762 17.2974 52.0547 16.8902 52.6789 17.4355Z" stroke="black" stroke-width="2"/>
<path d="M76.8106 22.8325L75.9585 18.0613C75.8349 17.3692 76.0837 16.663 76.614 16.2013L79.0593 14.0721C80.401 12.9039 79.664 10.6968 77.8896 10.569L74.7437 10.3423C73.9956 10.2884 73.3406 9.82057 73.047 9.13045L71.6318 5.80398C70.9629 4.23176 68.758 4.168 67.9994 5.69894L67.3232 7.06341" stroke="black" stroke-width="2" stroke-linecap="round"/>
<path d="M47.9644 16.5502L43.3138 13.3759C41.8452 12.3735 42.3169 10.0965 44.0629 9.76017L49.1232 8.78527C49.8596 8.64339 50.4548 8.10143 50.6648 7.38146L52.1062 2.44034C52.6044 0.732518 54.9171 0.476319 55.777 2.0337L58.2649 6.53955C58.6274 7.1961 59.3267 7.59466 60.0764 7.57192L65.2211 7.41584C66.9992 7.3619 67.9576 9.48229 66.7421 10.7814L62.8086 14.9855C62.5364 15.2764 62.3573 15.642 62.2943 16.0354L61.5541 20.6528" stroke="black" stroke-width="2" stroke-linecap="round"/>
<path d="M83.2034 19.3442L83.4586 24.4788C83.5076 25.465 84.0387 26.3639 84.8789 26.8826L89.2533 29.5833C89.9585 30.0188 89.8584 31.0739 89.0838 31.3688L84.2793 33.1981C83.3565 33.5495 82.6657 34.3324 82.432 35.2917L81.2153 40.2866C81.0191 41.0919 79.9847 41.3227 79.4648 40.6771L76.2404 36.6731C75.6211 35.9041 74.663 35.489 73.6784 35.5632L68.552 35.9495C67.7255 36.0118 67.1864 35.0993 67.6397 34.4054L70.4513 30.1015C70.9913 29.2748 71.09 28.2354 70.7152 27.3219L68.7637 22.5658C68.449 21.799 69.1502 21.0043 69.9502 21.2209L74.9124 22.565C75.8654 22.8231 76.8845 22.5958 77.6374 21.957L81.5577 18.6313C82.1898 18.0951 83.1623 18.5164 83.2034 19.3442Z" stroke="black" stroke-width="2"/>
<path d="M40.6564 23.8579L39.7672 22.3445C38.8567 20.7949 36.5232 21.1393 36.0993 22.8859L35.4116 25.7187C35.2347 26.4475 34.6649 27.0161 33.9357 27.1915L30.9736 27.9039C29.2439 28.3199 28.8775 30.6178 30.392 31.5511L32.9856 33.1495C33.6241 33.5429 33.9888 34.2605 33.9302 35.0082L33.6924 38.0455C33.5536 39.8191 35.6257 40.8777 36.9814 39.7257L39.303 37.753C39.8745 37.2673 40.6697 37.1422 41.3627 37.429L44.1244 38.5716C45.7758 39.2548 47.4259 37.5942 46.7322 35.9472L45.5282 33.0887" stroke="black" stroke-width="2" stroke-linecap="round"/>
<path d="M56.0407 20.5245L55.926 13.4547C55.8971 11.6751 53.7327 10.8169 52.4921 12.0931L48.0814 16.6306C47.5586 17.1683 46.779 17.3684 46.0618 17.1489L40.0056 15.2948C38.3045 14.774 36.8211 16.5668 37.6511 18.1403L40.6062 23.7424C40.9561 24.4058 40.9055 25.2091 40.4751 25.8233L36.8402 31.0102C35.8193 32.4671 37.0659 34.4319 38.8189 34.1287L45.1672 33.0309C45.849 32.913 46.5433 33.1559 47.0029 33.6731L53.092 40.5246" stroke="black" stroke-width="2" stroke-linecap="round"/>
<path d="M56.8109 65.5244L56.4263 69.2424" stroke="black" stroke-width="2" stroke-linecap="round"/>
<path d="M64.5024 65.6528L64.8871 69.1144" stroke="black" stroke-width="2" stroke-linecap="round"/>
<path d="M60.1435 65.5244C44.1382 65.2294 32.6547 56.0323 25.9885 47.6311C23.3683 44.329 26.5493 40.2033 30.7158 40.8434C51.112 43.9769 75.2621 42.3137 91.0137 40.2161C95.0306 39.6811 97.9451 43.7015 95.4942 46.9287C88.7472 55.8128 76.7643 65.8308 60.1435 65.5244Z" fill="black"/>
<path d="M40.6662 132.448H33.4112C31.056 132.448 28.64 134.196 29.3456 136.443C29.9302 138.304 31.4584 138.787 32.4516 138.73H41.6824C43.3776 138.63 44.2326 137.617 44.6096 136.372C45.2826 134.149 42.9886 132.448 40.6662 132.448Z" fill="black"/>
<path d="M87.8566 132.448H80.6016C78.2464 132.448 75.8304 134.196 76.536 136.443C77.1207 138.304 78.6489 138.787 79.642 138.73H88.8728C90.568 138.63 91.423 137.617 91.8 136.372C92.473 134.149 90.1791 132.448 87.8566 132.448Z" fill="black"/>
<path d="M68.2204 69.6271C28.0152 65.6271 17.7075 100.525 17.5793 118.473C17.4996 129.627 24.4558 132.49 28.8614 132.319H91.6819C103.99 132.319 104.079 123.986 103.477 118.473C99.4768 81.8579 78.3058 70.6527 68.2204 69.6271Z" stroke="black" stroke-width="2" stroke-linecap="round"/>
<circle cx="60.1439" cy="100.909" r="20.2821" stroke="black" stroke-width="2"/>
<path d="M74.5025 91.0376L49.0946 109.969C48.6822 110.276 48.0991 110.192 47.7906 109.781C47.4677 109.35 47.5749 108.737 48.0245 108.441L74.5025 91.0376Z" fill="black"/>
<circle cx="60.1436" cy="100.909" r="2.05128" fill="black"/>
<path d="M74.8872 100.653H78.7334" stroke="black" stroke-width="2" stroke-linecap="round"/>
<path d="M60.0151 82.3193V85.5245" stroke="black" stroke-width="2" stroke-linecap="round"/>
<path d="M60.144 116.294V119.499" stroke="black" stroke-width="2" stroke-linecap="round"/>
<path d="M41.4263 100.653H45.2724" stroke="black" stroke-width="2" stroke-linecap="round"/>
<path d="M65.7847 86.5504L67.3231 83.9863" stroke="black" stroke-width="2" stroke-linecap="round"/>
<path d="M52.9644 117.832L54.5028 115.268" stroke="black" stroke-width="2" stroke-linecap="round"/>
<path d="M73.22 87.9604L71.0405 90.0117" stroke="black" stroke-width="2" stroke-linecap="round"/>
<path d="M49.5032 111.935L47.3237 113.986" stroke="black" stroke-width="2" stroke-linecap="round"/>
<path d="M77.3232 94.1143L74.3745 95.1399" stroke="black" stroke-width="2" stroke-linecap="round"/>
<path d="M46.1689 106.807L43.2202 107.832" stroke="black" stroke-width="2" stroke-linecap="round"/>
<path d="M74.2456 106.807L77.1943 108.089" stroke="black" stroke-width="2" stroke-linecap="round"/>
<path d="M43.2202 93.9863L46.1689 95.2684" stroke="black" stroke-width="2" stroke-linecap="round"/>
<path d="M72.9636 113.986L71.0405 111.679" stroke="black" stroke-width="2" stroke-linecap="round"/>
<path d="M49.2468 90.1402L47.3237 87.8325" stroke="black" stroke-width="2" stroke-linecap="round"/>
<path d="M66.8107 118.217L66.0415 115.396" stroke="black" stroke-width="2" stroke-linecap="round"/>
<path d="M53.9904 86.55L53.2212 83.7295" stroke="black" stroke-width="2" stroke-linecap="round"/>
<path d="M56.6821 36.8065L58.4273 38.1798C61.0585 40.2502 64.9387 38.5995 65.2719 35.2681V35.2681" stroke="black" stroke-width="2" stroke-linecap="round"/>
<path d="M65.1431 40.2682L67.2754 38.9759C68.5868 38.1811 70.2082 38.0925 71.5984 38.7397L74.074 39.8921C75.4764 40.5449 77.1222 39.7285 77.4508 38.2169V38.2169" stroke="black" stroke-width="2" stroke-linecap="round"/>
</svg>
