<svg width="178" height="151" viewBox="0 0 178 151" fill="none" xmlns="http://www.w3.org/2000/svg">
<path d="M24.7121 100.489L20.3549 93.2269C19.0777 91.0983 19.8949 88.3326 22.1239 87.24C24.279 86.1835 26.8806 87.1255 27.8597 89.3169L31.3145 97.0491C32.1112 98.8321 31.3973 100.928 29.6778 101.854C27.9237 102.798 25.7371 102.197 24.7121 100.489Z" fill="black"/>
<path d="M14.6511 82.4526L22.4207 78.8057" stroke="black" stroke-width="2" stroke-linecap="round"/>
<path d="M16.0785 71.5116L5.93645 75.2757C3.14218 76.3128 1.86836 79.5434 3.25574 82.1814C8.00465 91.2107 15.5321 104.64 20.6769 110.835C24.3641 115.275 28.7635 123.52 30.9834 127.643C32.4097 130.292 55.2435 157.77 52.3893 147.463C50.2205 139.631 24.9898 84.3496 10.7789 53.6416C9.59623 51.086 10.748 48.0812 13.3424 46.9861C33.9281 38.2964 71.2077 23.5503 86.7974 21.0888C101.517 18.7647 122.939 8.94911 135.29 2.55197C137.884 1.20795 141.1 2.27509 142.29 4.94411C149.478 21.0693 161.399 48.9007 163.224 65.3277C165.05 81.7605 180.445 87.6321 175.649 101.384C175.334 102.287 174.702 103.032 173.903 103.558C146.936 121.315 106.317 132.349 54.9263 150" stroke="black" stroke-width="2" stroke-linecap="round"/>
<path d="M30.032 105.285L47.9495 136.522" stroke="black" stroke-width="2" stroke-linecap="round"/>
<path d="M141.027 119.714C139.705 115.275 135 105.761 132.147 98.9426C130.722 95.5376 145.895 92.0085 155.759 88.4003C159.431 87.0568 165.588 88.794 167.209 92.3527C169.46 97.2949 171.793 102.282 172.58 103.541" stroke="black" stroke-width="2" stroke-linecap="round"/>
<path d="M148.954 86.4165L133.89 91.9662" stroke="black" stroke-width="2" stroke-linecap="round"/>
<path d="M131.988 88.0025L150.064 80.8672" stroke="black" stroke-width="2" stroke-linecap="round"/>
<path d="M154.979 78.9642L158.15 77.5371" stroke="black" stroke-width="2" stroke-linecap="round"/>
<path d="M129.609 83.7211L157.675 72.7803" stroke="black" stroke-width="2" stroke-linecap="round"/>
<path d="M127.707 79.5982L156.248 68.8159" stroke="black" stroke-width="2" stroke-linecap="round"/>
<path d="M125.962 75.7927L154.661 64.6934" stroke="black" stroke-width="2" stroke-linecap="round"/>
<path d="M88.7 88.4781L118.668 78.3301" stroke="black" stroke-width="2" stroke-linecap="round"/>
<path d="M91.5544 92.7591L120.096 82.9282" stroke="black" stroke-width="2" stroke-linecap="round"/>
<path d="M92.823 97.8327L121.523 87.209" stroke="black" stroke-width="2" stroke-linecap="round"/>
<path d="M93.2986 102.907L123.108 91.8076" stroke="black" stroke-width="2" stroke-linecap="round"/>
<path d="M95.0427 108.14L111.85 100.37" stroke="black" stroke-width="2" stroke-linecap="round"/>
<path d="M99.0066 110.359L122.791 102.272" stroke="black" stroke-width="2" stroke-linecap="round"/>
<path d="M98.8484 115.433L124.694 106.078" stroke="black" stroke-width="2" stroke-linecap="round"/>
<path d="M100.909 119.556L128.182 109.408" stroke="black" stroke-width="2" stroke-linecap="round"/>
<path d="M102.812 123.838L129.768 114.482" stroke="black" stroke-width="2" stroke-linecap="round"/>
<path d="M103.288 128.277L123.108 121.459" stroke="black" stroke-width="2" stroke-linecap="round"/>
<path d="M51.9138 124.313L87.7489 111.786" stroke="black" stroke-width="2" stroke-linecap="round"/>
<path d="M55.0847 131.765L90.7612 118.763" stroke="black" stroke-width="2" stroke-linecap="round"/>
<path d="M68.7214 132.241L90.603 123.996" stroke="black" stroke-width="2" stroke-linecap="round"/>
<path d="M70.9412 137.473L92.8228 128.118" stroke="black" stroke-width="2" stroke-linecap="round"/>
<path d="M63.8329 141.5L63.3332 141.76C61.3121 142.811 58.8215 142.037 57.7517 140.026C56.6432 137.941 57.4927 135.354 59.6208 134.332L60.1286 134.089C62.1051 133.14 64.4785 133.895 65.5433 135.812C66.6763 137.851 65.9028 140.423 63.8329 141.5Z" stroke="black" stroke-width="2" stroke-linecap="round"/>
<path d="M83.9431 81.9767C94.7254 77.8012 117.717 69.1014 123.425 67.7061" stroke="black" stroke-width="2" stroke-linecap="round"/>
<path d="M82.5164 77.5369C99.6411 68.0231 149.81 55.9407 151.332 52.6426" stroke="black" stroke-width="2" stroke-linecap="round"/>
<path d="M80.2966 73.5732C98.8484 64.0595 148.193 50.6451 149.588 47.7275" stroke="black" stroke-width="2" stroke-linecap="round"/>
<path d="M31.1423 80.8667C50.3284 72.1458 138.331 44.2388 147.527 37.1035" stroke="black" stroke-width="2" stroke-linecap="round"/>
<path d="M30.9832 76.5857C65.3912 62.4737 136.3 38.5942 145.941 33.1396" stroke="black" stroke-width="2" stroke-linecap="round"/>
<path d="M48.2663 117.97C48.369 114.889 42.5181 103.56 37.9027 95.2634C36.3876 92.5398 37.6289 89.0541 40.4756 87.7853C50.9174 83.1311 64.7257 75.6343 71.7335 75.6343C74.3189 75.6343 80.8745 90.8146 84.8867 100.733C85.8829 103.195 84.7522 105.991 82.3233 107.066C68.8028 113.052 48.1524 121.386 48.2663 117.97Z" fill="black"/>
<path d="M29.2386 68.1817L27.1647 62.5184C26.5052 60.7176 28.513 59.1109 30.1254 60.149L32.2387 61.5096C33.7886 62.5075 35.7486 61.0553 35.2454 59.282L33.3612 52.6426" stroke="black" stroke-width="2" stroke-linecap="round"/>
<path d="M43.5099 48.8369L38.9734 51.047C38.0412 51.5011 37.6107 52.5925 37.9819 53.5608L40.2466 59.4687C40.646 60.5106 41.8208 61.0242 42.8568 60.6097L47.3154 58.8263" stroke="black" stroke-width="2" stroke-linecap="round"/>
<path d="M39.3875 57.0825L44.9371 54.7041" stroke="black" stroke-width="2" stroke-linecap="round"/>
<path d="M46.6814 49.9472L49.5728 53.8325C50.5135 55.0966 52.4808 54.8158 53.0303 53.339L53.4235 52.2825C53.8 51.2706 55.1451 51.0728 55.797 51.9333V51.9333C56.5892 52.979 58.2565 52.4188 58.2565 51.1069V43.9219" stroke="black" stroke-width="2" stroke-linecap="round"/>
<path d="M67.9295 41.7019C66.6598 40.1162 63.4897 40.4334 63.0141 43.7632C62.3798 48.2029 70.1483 44.8731 71.2593 48.2029C73.0158 53.4673 64.1769 52.7484 63.4898 51.3742" stroke="black" stroke-width="2" stroke-linecap="round"/>
<path d="M74.1121 39.0063L77.6153 46.0129C78.1254 47.0331 79.3841 47.4207 80.3798 46.8643L83.9429 44.8732" stroke="black" stroke-width="2" stroke-linecap="round"/>
<path d="M89.968 33.9326L86.3554 35.9515C85.3785 36.4973 85.0396 37.7385 85.6034 38.7051L88.0718 42.9366C88.6032 43.8475 89.7506 44.1893 90.6938 43.7177L96.6276 40.7508" stroke="black" stroke-width="2" stroke-linecap="round"/>
<path d="M87.2732 41.2265L90.9201 38.6895" stroke="black" stroke-width="2" stroke-linecap="round"/>
<path d="M95.5183 33.1398L104.398 29.1758" stroke="black" stroke-width="2" stroke-linecap="round"/>
<path d="M100.275 31.0781L104.715 38.6891" stroke="black" stroke-width="2" stroke-linecap="round"/>
<path d="M106.142 29.3339L112.643 25.687" stroke="black" stroke-width="2" stroke-linecap="round"/>
<path d="M109.154 27.748L112.96 35.0419" stroke="black" stroke-width="2" stroke-linecap="round"/>
<path d="M121.364 20.9302L116.898 23.9859C116.023 24.5847 115.767 25.7625 116.315 26.6702L119.344 31.6867C119.928 32.6545 121.198 32.946 122.146 32.3298L126.755 29.334" stroke="black" stroke-width="2" stroke-linecap="round"/>
<path d="M118.034 29.6512L123.266 26.48" stroke="black" stroke-width="2" stroke-linecap="round"/>
<path d="M131.036 29.0169L126.605 21.1247C126.214 20.4291 126.25 19.527 126.897 19.0604C128.861 17.6435 131.429 18.4083 131.333 20.5497C131.269 21.9944 131.659 23.7169 133.059 24.0798L138.647 25.5285" stroke="black" stroke-width="2" stroke-linecap="round"/>
</svg>
