<svg width="198" height="151" viewBox="0 0 198 151" fill="none" xmlns="http://www.w3.org/2000/svg">
<path d="M128.133 72.4497C130.953 76.972 132.082 79.5111 136.029 85.4322" stroke="black" stroke-width="2" stroke-linecap="round"/>
<path d="M136.829 66.2998C139.649 70.8221 141.104 73.0372 145.052 78.9583" stroke="black" stroke-width="2" stroke-linecap="round"/>
<path d="M196.649 112.218C193.359 104.981 184.525 89.831 175.502 87.1242C164.224 83.7408 154.356 78.6656 151.254 81.7671" stroke="black" stroke-width="2" stroke-linecap="round"/>
<path d="M190.728 150C181.142 146.992 160.503 137.368 154.638 122.932" stroke="black" stroke-width="2" stroke-linecap="round"/>
<path d="M150.408 128.854C151.16 132.707 154.469 139.117 161.687 133.929" stroke="black" stroke-width="2" stroke-linecap="round"/>
<path d="M138.284 93.6089C136.122 102.443 135.013 117.631 147.87 107.707" stroke="black" stroke-width="2" stroke-linecap="round"/>
<path d="M173.81 106.297C172.4 107.801 168.397 109.568 163.66 104.605C157.739 98.4021 151.254 74.154 139.412 80.357C127.57 86.56 152.1 108.271 152.945 115.601C153.791 122.932 154.637 126.88 150.408 128.853C146.179 130.827 142.231 127.725 143.077 111.654" stroke="black" stroke-width="2" stroke-linecap="round"/>
<path d="M69.5637 55.5453C69.5637 57.5696 71.2048 59.2107 73.2291 59.2107C74.2686 59.2107 75.207 58.778 75.8741 58.0829L73.2291 51.8799C71.2048 51.8799 69.5637 53.5209 69.5637 55.5453Z" fill="black"/>
<path d="M83.6614 71.8983C83.6614 73.9226 85.3024 75.5637 87.3268 75.5637C89.1594 75.5637 90.6779 74.2188 90.9491 72.4622L85.3531 68.8091C84.3357 69.4604 83.6614 70.6006 83.6614 71.8983Z" fill="black"/>
<circle cx="108.679" cy="39.192" r="30.8609" stroke="black" stroke-width="2"/>
<path d="M146.871 39.1917C146.871 60.2844 129.772 77.3834 108.679 77.3834C87.5866 77.3834 70.4875 60.2844 70.4875 39.1917C70.4875 18.099 87.5866 1 108.679 1C129.772 1 146.871 18.099 146.871 39.1917Z" stroke="black" stroke-width="2"/>
<path d="M102.779 77.7001C101.799 80.4309 100.895 82.3633 99.8117 84.0973C99.1356 85.1793 99.35 86.6185 100.259 87.5136C104.366 91.5577 108.624 99.7663 101.693 109.557C93.9688 120.467 80.1154 114.924 73.9266 110.361C73.5803 110.106 73.3267 109.749 73.1817 109.344L55.7725 60.7531C55.6486 60.4071 55.6081 60.0371 55.6659 59.6742C56.8484 52.2499 61.472 43.2617 69.9293 39.7501" stroke="black" stroke-width="2" stroke-linecap="round"/>
<path d="M117.194 67.7404C118.937 54.5473 115.038 39.7819 96.817 31.1732C91.4967 28.6596 86.6125 27.4676 82.1793 27.2958" stroke="black" stroke-width="2" stroke-linecap="round"/>
<path d="M17.3806 66.3084C7.01199 88.2547 25.4146 101.863 36.9892 105.729C38.1993 106.133 38.9448 107.39 38.811 108.658C38.2068 114.39 40.1304 123.435 51.7018 126.596C64.5966 130.119 71.7785 117.041 73.6615 109.586C73.7669 109.168 73.7361 108.732 73.591 108.327L56.1819 59.7356C56.058 59.3897 55.8567 59.0801 55.5811 58.8371C46.4476 50.7858 27.0207 45.904 17.3806 66.3084Z" stroke="black" stroke-width="2" stroke-linecap="round"/>
<path d="M56.5627 51.8752C54.0779 47.0285 51.5214 33.627 61.1733 18.7949" stroke="black" stroke-width="2" stroke-linecap="round"/>
<path d="M52.8723 55.0216C51.7139 49.6997 45.1784 37.7239 28.3035 32.3957" stroke="black" stroke-width="2" stroke-linecap="round"/>
<circle cx="37.1393" cy="65.1312" r="3.66541" fill="black"/>
<circle cx="28.1168" cy="78.6654" r="3.66541" fill="black"/>
<circle cx="43.3424" cy="79.7933" r="3.66541" fill="black"/>
<circle cx="53.4928" cy="112.5" r="3.66541" fill="black"/>
<circle cx="59.1315" cy="100.094" r="3.66541" fill="black"/>
<circle cx="45.5983" cy="96.7103" r="3.66541" fill="black"/>
<circle cx="71.5377" cy="69.079" r="3.66541" fill="black"/>
<circle cx="87.3268" cy="104.605" r="3.66541" fill="black"/>
<circle cx="96.3493" cy="93.891" r="3.66541" fill="black"/>
<circle cx="107.064" cy="55.5452" r="4.79323" fill="black"/>
<circle cx="91.8384" cy="44.2669" r="4.79323" fill="black"/>
<circle cx="82.2516" cy="86.5599" r="3.66541" fill="black"/>
</svg>
