<svg width="386" height="302" viewBox="0 0 386 302" fill="none" xmlns="http://www.w3.org/2000/svg">
<path d="M250.703 25.3642L269.585 10.1365" stroke="black" stroke-width="2" stroke-linecap="round"/>
<path d="M138.627 107.29C140.911 106.071 142.282 104.244 143.043 102.112C144.657 97.5919 145.881 95.3828 147.738 94.2784C149.595 93.1741 161.122 86.2319 160.367 91.7017C160.117 93.5122 157.95 93.7599 155.414 94.7674" stroke="black" stroke-width="2" stroke-linecap="round"/>
<path d="M155.682 80.1837C157.896 76.0188 161.36 70.6187 163.582 67.3927C165.276 64.9329 166.856 61.8498 163.582 56.7333C159.489 50.3376 141.368 31.1508 154.921 30.0848C165.763 29.2321 186.956 34.6531 189.336 30.0849C194.411 20.3391 204.35 1.27403 210.807 2.97953C218.877 5.1114 220.524 35.8712 224.816 37.2417C229.108 38.6122 261.515 48.2056 252.074 55.6672C242.632 63.1287 227.689 67.3927 228.318 72.8746C228.667 75.9112 228.971 80.8597 229.173 86.2748M151.298 92.5181C150.52 97.3981 152.104 100.586 158.121 99.7175C176.778 97.0237 190.884 89.3915 197.255 93.881C203.625 98.3706 228.198 120.369 229.108 110.043C229.247 108.464 229.336 106.877 229.384 104.548" stroke="black" stroke-width="2" stroke-linecap="round"/>
<path d="M252.682 64.3468C256.066 60.673 256.989 56.9734 255.768 54.0757C255.457 53.3377 254.362 53.4543 253.845 54.0653C249.771 58.8714 235.086 65.4223 229.303 69.9255C229.254 69.9636 229.211 70.0029 229.178 70.0555C228.815 70.632 228.239 72.9769 228.47 73.788C228.696 74.5773 229.026 81.1672 229.194 85.0819C229.216 85.5894 229.616 85.9919 230.108 86.1198C231.233 86.4124 232.866 87.1992 234.877 89.1985C235.614 89.931 237.106 89.3059 237.024 88.2701C236.626 83.281 236.626 77.4078 237.455 76.2244C239.332 73.5428 241.718 72.5698 244.307 70.8947C245.221 70.3035 248.634 68.7414 252.682 64.3468Z" fill="black"/>
<path d="M225.317 121.397C227.914 123.037 233.071 123.539 234.421 121.397C235.095 120.327 235.527 117.275 235.786 113.228C234.329 112.862 232.582 106.376 229.536 105.157C229.474 108.923 229.273 111.024 228.619 112.149C224.956 118.45 199.538 94.9547 195.492 93.2382C191.684 91.6226 166.199 98.6389 158.996 99.9787C153.234 101.05 151.405 97.8173 150.505 96.4775C150.809 99.2185 153.298 106.599 156.913 107.37C160.061 108.041 193.421 98.4102 196.674 100.833C206.485 108.14 223.171 120.04 225.317 121.397Z" fill="black"/>
<path d="M147.003 94.1938C148.419 91.7081 153.407 84.1858 161.012 86.8312" stroke="black" stroke-width="2" stroke-linecap="round"/>
<path d="M146.545 95.1072C147.887 91.0138 153.941 80.4645 159.793 82.9998" stroke="black" stroke-width="2" stroke-linecap="round"/>
<path d="M149.134 89.6255C149.997 81.8976 152.372 74.2804 155.462 76.6724C155.891 77.1153 156.556 78.4661 155.784 80.3266" stroke="black" stroke-width="2" stroke-linecap="round"/>
<path d="M231.212 92.2373C228.038 91.0025 221.402 89.7866 220.248 94.8021" stroke="black" stroke-width="2" stroke-linecap="round"/>
<path d="M236.693 99.371C231.098 95.9029 220.737 91.641 221.506 98.3263" stroke="black" stroke-width="2" stroke-linecap="round"/>
<path d="M233.862 101.954C229.707 99.6684 221.872 96.5148 222.079 101.137C222.1 101.613 222.527 101.951 223.001 101.994C225.787 102.249 230.666 103.798 232.986 108.604C235.556 113.924 237.95 115.832 238.825 116.121" stroke="black" stroke-width="2" stroke-linecap="round"/>
<path d="M269.89 40.8966L280.854 37.8511" stroke="black" stroke-width="2" stroke-linecap="round"/>
<path d="M146.85 11.6594L136.8 1" stroke="black" stroke-width="2" stroke-linecap="round"/>
<path d="M130.404 25.3641L101.472 17.1411" stroke="black" stroke-width="2" stroke-linecap="round"/>
<path d="M128.577 48.5103L107.867 50.9467" stroke="black" stroke-width="2" stroke-linecap="round"/>
<path d="M150.497 170.931C140.845 158.539 141.594 140.483 143.878 129.921C145.278 125.176 153.076 101.969 136.397 112.94C128.74 117.977 96.3303 186.514 162.251 200.121C162.804 200.235 163.191 200.786 163.087 201.341C160.909 212.956 166.404 224.557 163.296 240.836" stroke="black" stroke-width="2" stroke-linecap="round"/>
<path d="M148.982 171.703C152.231 171.093 172.433 164.115 180.046 173.071" stroke="black" stroke-width="2" stroke-linecap="round"/>
<path d="M206.847 174.866C218.116 168.504 229.232 175.682 239.13 177.641" stroke="black" stroke-width="2" stroke-linecap="round"/>
<path d="M236.694 177.031C243.912 170.22 250.203 148.358 243.166 123.774C241.802 119.006 242.199 106.98 251.255 112.337C262.643 119.073 297.055 199.553 221.412 200.473C220.766 200.481 220.241 201.086 220.383 201.717C223.004 213.367 223.469 226.628 223.37 240.492" stroke="black" stroke-width="2" stroke-linecap="round"/>
<path d="M245.221 105.462C241.754 98.6565 234.513 85.5942 229.313 86.3031C228.273 86.4449 225.8 87.1538 224.816 88.7135" stroke="black" stroke-width="2" stroke-linecap="round"/>
<path d="M216.488 134.406C214.262 142.428 213.145 143.139 209.906 146.693C209.906 143.181 209.303 137.285 209.303 134.83C198.69 134.83 189.736 130.486 186.581 128.314C186.696 135.679 179.808 140.495 179.808 140.495C179.808 140.495 180.795 143.469 181.36 150.126C181.814 155.452 180.512 154.423 179.808 153.242C177.777 146.67 174.447 148.427 173.034 150.126C155.718 121.915 182.348 116.464 187.429 116.984C191.268 113.698 196.621 111.123 200.383 110.745C213.958 109.383 220.1 121.398 216.488 134.406Z" fill="black"/>
<path d="M179.742 158.437C181.586 169.579 193.959 177.591 202.889 168.565C211.818 159.539 210.03 143.018 209.077 135.308" stroke="black" stroke-width="2" stroke-linecap="round"/>
<path d="M202.19 176.109C203.091 173.409 202.27 171.592 201.469 171.246C196.662 175.815 189.372 174.119 186.668 171.349C185.707 172.263 186.267 174.967 186.668 175.798C191.875 181.78 199.286 178.429 202.19 176.109Z" fill="black"/>
<path d="M183.092 191.651L183.518 190.989C185.749 187.527 190.13 186.145 193.944 187.7V187.7C197.372 189.097 201.31 188.133 203.704 185.309L206.847 181.601" stroke="black" stroke-width="2" stroke-linecap="round"/>
<path d="M172.797 149.317C171.725 151.969 172.731 157.845 179.742 157.845" stroke="black" stroke-width="2" stroke-linecap="round"/>
<path d="M176.137 151.145C175.978 151.585 176.105 152.627 177.914 153.277" stroke="black" stroke-width="2" stroke-linecap="round"/>
<path d="M208.979 156.627C211.427 155.653 213.155 152.047 212.49 146.272" stroke="black" stroke-width="2" stroke-linecap="round"/>
<path d="M202.386 149.442C203.106 148.995 203.304 148.01 202.827 147.241C202.35 146.472 201.38 146.212 200.659 146.659C199.939 147.105 199.741 148.091 200.218 148.86C200.694 149.628 201.665 149.889 202.386 149.442Z" fill="black"/>
<path d="M189.868 150.621C190.733 150.203 191.157 149.287 190.813 148.574C190.469 147.861 189.489 147.622 188.623 148.039C187.757 148.457 187.334 149.373 187.678 150.086C188.022 150.799 189.002 151.038 189.868 150.621Z" fill="black"/>
<path d="M185.833 145.662C186.167 144.89 187.612 143.462 190.706 143.925" stroke="black" stroke-width="2" stroke-linecap="round"/>
<path d="M200.451 143.836C201.143 143.606 203.026 143.284 205.02 143.836" stroke="black" stroke-width="2" stroke-linecap="round"/>
<path d="M195.116 149.013C194.906 150.856 194.759 154.593 195.884 154.799" stroke="black" stroke-width="2" stroke-linecap="round"/>
<path d="M196.188 163.804C194.032 164.43 194.168 162.707 192.533 161.195" stroke="black" stroke-width="2" stroke-linecap="round"/>
<path d="M288.044 300.507L282.391 278.445C276.724 256.325 256.79 240.855 233.956 240.855H152.58C129.6 240.855 109.579 256.518 104.049 278.823L98.551 301" stroke="black" stroke-width="2" stroke-linecap="round"/>
<path d="M105.798 267.667H49.0053C28.6263 267.667 10.2865 280.035 2.64925 298.929L1.81201 301" stroke="black" stroke-width="2" stroke-linecap="round"/>
<path d="M284.783 282.521H358.057C369.64 282.521 380.066 289.543 384.421 300.275V300.275" stroke="black" stroke-width="2" stroke-linecap="round"/>
</svg>
