<svg width="190" height="151" viewBox="0 0 190 151" fill="none" xmlns="http://www.w3.org/2000/svg">
<path d="M170.071 3.78857C163.544 3.78857 161.649 9.00381 161.559 12.8177C161.528 14.0951 160.666 15.3112 159.629 16.0569C158.352 16.9741 157.265 18.6097 157.736 21.2644C158.412 25.0712 162.523 25.5472 164.955 25.2123C165.38 25.1538 165.761 24.9363 166.065 24.6339L176.766 13.995C177.027 13.7352 177.227 13.4185 177.312 13.0599C178.17 9.43109 176.819 3.78857 170.071 3.78857Z" stroke="black" stroke-width="2" stroke-linecap="round"/>
<path d="M187.104 20.2733C187.104 26.6798 181.873 28.5324 178.058 28.6159C176.787 28.6438 175.579 29.5017 174.824 30.5236C173.904 31.7674 172.271 32.8211 169.628 32.3614C165.832 31.701 165.348 27.6924 165.678 25.3072C165.737 24.8779 165.96 24.4937 166.269 24.1895L176.898 13.7126C177.158 13.4563 177.473 13.2607 177.829 13.178C181.457 12.335 187.104 13.6581 187.104 20.2733Z" stroke="black" stroke-width="2" stroke-linecap="round"/>
<path d="M177.942 10.9592C179.43 9.92182 182.201 6.47758 181.377 1" stroke="black" stroke-width="2" stroke-linecap="round"/>
<path d="M179.137 12.553C180.133 10.8991 183.44 7.82013 188.698 8.73618" stroke="black" stroke-width="2" stroke-linecap="round"/>
<path d="M60.8693 71.5117C56.3316 71.5117 54.8195 75.0063 54.5973 77.8304C54.4978 79.0956 53.6029 80.3029 52.7061 81.2009C51.9706 81.9373 51.4482 83.0852 51.7415 84.7804C52.2254 87.5775 55.0904 88.0062 56.9054 87.8005C57.3371 87.7516 57.722 87.5252 58.0262 87.2149L65.7298 79.3565C65.9848 79.0965 66.1811 78.7807 66.2555 78.4242C66.8313 75.6664 65.7863 71.5117 60.8693 71.5117Z" stroke="black" stroke-width="2" stroke-linecap="round"/>
<path d="M73.9666 84.1115C73.9666 88.9118 70.3606 90.4999 67.4621 90.7249C66.1872 90.8239 64.9703 91.7199 64.0986 92.6555C63.347 93.4621 62.1556 94.0497 60.3743 93.7326C57.4862 93.2185 57.0629 90.1546 57.2856 88.2443C57.3352 87.8189 57.5535 87.4379 57.855 87.1337L65.9404 78.9781C66.2002 78.7161 66.518 78.5135 66.8786 78.4356C69.7036 77.8254 73.9666 78.9244 73.9666 84.1115Z" stroke="black" stroke-width="2" stroke-linecap="round"/>
<path d="M67.1945 77.0886C68.1869 76.3001 70.0342 73.6825 69.4846 69.5195" stroke="black" stroke-width="2" stroke-linecap="round"/>
<path d="M67.9912 78.2838C68.7382 77.2914 71.218 75.444 75.1619 75.9937" stroke="black" stroke-width="2" stroke-linecap="round"/>
<path d="M84.9512 96.8688C80.9546 99.1762 81.4028 103.014 82.6409 105.598C83.1899 106.743 83.0201 108.237 82.6804 109.461C82.3968 110.483 82.5099 111.763 83.6337 113.109C85.4757 115.316 88.217 114.229 89.7058 113.126C90.0542 112.867 90.2745 112.48 90.3834 112.061L93.1865 101.262C93.2782 100.908 93.2909 100.536 93.1774 100.189C92.292 97.483 89.2741 94.373 84.9512 96.8688Z" stroke="black" stroke-width="2" stroke-linecap="round"/>
<path d="M102.763 101.028C105.168 105.194 102.736 108.412 100.278 110.071C99.2242 110.783 98.6214 112.157 98.3291 113.395C98.073 114.479 97.3175 115.601 95.5802 116.237C92.785 117.261 90.8885 114.844 90.1309 113.084C89.9597 112.686 89.9618 112.242 90.0765 111.824L93.1394 100.674C93.2362 100.321 93.4113 99.9921 93.6825 99.7473C95.8637 97.7787 100.176 96.5471 102.763 101.028Z" stroke="black" stroke-width="2" stroke-linecap="round"/>
<path d="M93.0924 98.7187C93.6167 97.4857 94.005 94.1725 91.3642 90.7845" stroke="black" stroke-width="2" stroke-linecap="round"/>
<path d="M94.5004 99.0958C94.6164 97.7927 95.7823 94.8184 99.5176 93.3464" stroke="black" stroke-width="2" stroke-linecap="round"/>
<path d="M140.666 24.1327C153.074 29.9952 150.584 42.2625 146.987 48.6525C146.362 49.7643 146.592 51.2104 147.417 52.1833C149.592 54.7468 151.345 59.2376 147.617 64.5034C143.145 70.8213 135.191 67.796 131.438 65.1354C131.088 64.8866 130.836 64.5291 130.691 64.1241L120.579 35.9004C120.455 35.5544 120.413 35.1845 120.477 34.8226C121.736 27.7517 128.745 18.5006 140.666 24.1327Z" stroke="black" stroke-width="2" stroke-linecap="round"/>
<path d="M97.831 38.9646C91.9684 51.3734 101.682 59.2681 108.518 61.9203C109.708 62.3818 110.449 63.6449 110.429 64.9206C110.377 68.2819 111.874 72.8646 118.098 74.5649C125.565 76.605 129.788 69.2171 130.997 64.7789C131.11 64.3638 131.078 63.9277 130.932 63.5228L120.821 35.299C120.697 34.9531 120.494 34.6406 120.215 34.402C114.752 29.7389 103.463 27.0437 97.831 38.9646Z" stroke="black" stroke-width="2" stroke-linecap="round"/>
<path d="M120.968 30.4417C119.5 27.5797 117.991 19.6661 123.69 10.9077" stroke="black" stroke-width="2" stroke-linecap="round"/>
<path d="M118.789 32.3002C118.104 29.1576 114.245 22.0859 104.281 18.9395" stroke="black" stroke-width="2" stroke-linecap="round"/>
<path d="M96.1526 35.7405C88.7623 31.365 72.4864 24.8274 66.5053 33.6815C59.0291 44.749 99.5041 91.0783 129.667 84.1289L164.728 110.382C166.619 110.811 169.987 110.691 168.337 106.779L134.307 80.2681C134.651 78.3806 134.772 73.6275 132.503 69.7153" stroke="black" stroke-width="2" stroke-linecap="round"/>
<path d="M66.2379 27.6904C57.6628 29.4973 39.7408 38.3771 36.6538 59.4405C32.795 85.7699 35.8412 98.4088 10.6712 112.616C-9.90861 124.231 7.32718 140.43 18.3888 141.01C51.2316 142.731 118.924 134.918 126.95 89.9" stroke="black" stroke-width="2" stroke-linecap="round"/>
<path d="M61.4666 150.986C125.843 150.667 130.783 134.786 122.417 129.673C111.661 123.1 98.1166 138.238 80.19 141.624C72.3001 143.115 -19.0041 151.384 61.4666 150.986Z" fill="black"/>
<path d="M60.4221 36.0566C58.4022 40.4821 55.2713 51.9362 58.9071 62.349" stroke="black" stroke-width="2" stroke-linecap="round"/>
<path d="M52.4554 42.4307C50.6517 45.3152 48.1265 54.8509 52.4554 69.9182" stroke="black" stroke-width="2" stroke-linecap="round"/>
<path d="M64.4056 51.7231C60.8486 50.9569 51.9648 53.2045 44.8855 68.3243" stroke="black" stroke-width="2" stroke-linecap="round"/>
<path d="M63.6097 44.8306C60.2684 44.6623 51.6866 46.4963 44.0896 55.1779" stroke="black" stroke-width="2" stroke-linecap="round"/>
<path d="M52.3345 117.429L46.6766 127.111C44.619 129.727 38.5753 128.68 39.7326 123.186C39.9477 122.165 41.1341 120.399 44.1644 120.216C44.9872 120.166 45.612 119.267 45.2838 118.51C43.6842 114.825 42.4285 109.428 45.3907 108.01C48.8883 106.335 49.9341 113.592 50.0199 117.429" stroke="black" stroke-width="2" stroke-linecap="round"/>
</svg>
