<svg width="255" height="151" viewBox="0 0 255 151" fill="none" xmlns="http://www.w3.org/2000/svg">
<path d="M253.918 144.583C257.677 134.649 241.907 137.213 241.361 137.486L240.542 144.583C205.821 150.479 174.756 147.04 163.565 144.583V129.297L134.63 144.583C115.412 145.893 104.593 139.3 99.9623 136.667L102.692 127.659L63.9301 142.945L51.3734 134.483C44.7311 136.303 28.9897 140.707 19.1628 143.764C9.33582 146.821 12.3385 148.132 15.0682 148.405C93.138 150.315 250.096 154.683 253.918 144.583Z" fill="black"/>
<path d="M215.703 37.5786C216.612 41.2182 216.249 48.2244 207.513 47.1325C198.778 46.0407 202.6 30.7543 210.516 32.6651" stroke="black" stroke-width="2" stroke-linecap="round"/>
<path d="M178.577 13.8297C192.135 15.1946 222.744 16.7232 236.72 11.9189" stroke="black" stroke-width="2" stroke-linecap="round"/>
<path d="M242.726 6.18645L240.571 144.666C240.555 145.701 239.753 146.553 238.72 146.624C220.117 147.908 182.699 149.102 165.07 144.712C164.178 144.49 163.588 143.665 163.622 142.747L168.679 4.33648C168.719 3.24326 169.617 2.38497 170.711 2.40494C183.817 2.64413 213.18 2.65834 240.543 1" stroke="black" stroke-width="2" stroke-linecap="round"/>
<path d="M179.67 136.94C190.134 137.031 213.355 136.776 222.527 135.029" stroke="black" stroke-width="2" stroke-linecap="round"/>
<path d="M114.43 133.664C116.068 134.301 120.272 135.902 123.984 137.213" stroke="black" stroke-width="2" stroke-linecap="round"/>
<path d="M145.548 22.0186C147.641 23.1104 152.372 24.9666 154.556 23.6564" stroke="black" stroke-width="2" stroke-linecap="round"/>
<path d="M144.474 8.39586L162.662 14.5688C164.659 15.2467 164.332 17.6962 162.23 17.5201C153.286 16.7705 146.481 12.9602 143.244 10.0194C142.102 8.98223 143.013 7.90011 144.474 8.39586Z" fill="black"/>
<path d="M166.294 28.8431L134.356 144.037C122.127 146.221 106.513 140.033 100.235 136.667C104.384 120.507 129.534 42.3097 141.18 6.45947L167.386 15.4675" stroke="black" stroke-width="2" stroke-linecap="round"/>
<path d="M123.438 47.9511L110.638 37.8076C109.734 37.0914 108.414 37.2858 107.755 38.2319L47.552 124.656" stroke="black" stroke-width="2" stroke-linecap="round"/>
<path d="M45.095 129.024L64.4759 142.945L124.53 50.9541" stroke="black" stroke-width="2" stroke-linecap="round"/>
<path d="M4.14937 135.848C5.66582 138.375 9.42878 143.243 13.0982 143.951C13.6512 144.057 14.1924 143.8 14.5714 143.383L92.4981 57.7436C93.2841 56.8798 93.1675 55.5276 92.2778 54.771C90.4863 53.2474 88.1009 51.0403 86.1714 48.7722C85.3557 47.8135 83.867 47.7055 82.9972 48.6154L1.69263 133.664" stroke="black" stroke-width="2" stroke-linecap="round"/>
<ellipse cx="10.7005" cy="134.483" rx="1.09188" ry="1.09188" fill="black"/>
<ellipse cx="57.6517" cy="132.299" rx="1.09188" ry="1.09188" fill="black"/>
<ellipse cx="112.245" cy="48.7701" rx="1.09188" ry="1.09188" fill="black"/>
<ellipse cx="85.4945" cy="54.7755" rx="1.09188" ry="1.09188" fill="black"/>
<path d="M84.676 47.4047L104.057 42.4912" stroke="black" stroke-width="2" stroke-linecap="round"/>
<path d="M109.243 37.0319L133.538 29.3887" stroke="black" stroke-width="2" stroke-linecap="round"/>
</svg>
