<svg width="352" height="302" viewBox="0 0 352 302" fill="none" xmlns="http://www.w3.org/2000/svg">
<path d="M273.588 2.01022L244.471 116.152C244.335 116.684 244.654 117.227 245.185 117.366L247.756 118.043C248.292 118.184 248.84 117.862 248.979 117.325L278.346 3.35287C278.48 2.83284 278.179 2.29983 277.665 2.14552L274.845 1.29958C274.3 1.13619 273.729 1.45923 273.588 2.01022Z" stroke="black" stroke-width="2" stroke-linecap="round"/>
<path d="M122.343 154.086C122.2 89.0461 138.108 65.4571 148.196 60.6102C149.659 59.9075 151.338 60.3932 152.581 61.436C159.698 67.4056 181.377 86.032 180.005 108.143C180.005 138.711 157.259 170.905 150.624 183.227C143.989 195.55 123.215 194.365 113.657 192.232C85.3792 182.674 30.8137 160.621 38.7758 148.867C46.0519 138.126 89.3715 149.919 115.529 158.963C118.859 160.114 122.351 157.609 122.343 154.086Z" fill="black"/>
<path d="M184.29 106C192.082 108.533 199.485 100.74 202.602 96.8442" stroke="black" stroke-width="2" stroke-linecap="round"/>
<path d="M40.1997 138.802C36.7242 135.484 27.9722 130.413 20.7684 136.669C13.5646 142.925 6.39245 152.23 3.70682 156.1C1.81109 159.181 -0.321615 165.105 6.31346 164.157C14.6073 162.972 20.0576 152.546 27.1666 153.494" stroke="black" stroke-width="2" stroke-linecap="round"/>
<path d="M114.087 142.151C115.735 138.058 118.004 133.191 120.177 128.769C122.007 125.045 127.171 125.243 128.45 129.19C133.589 145.045 135.466 165.61 116.027 165.455C86.4057 165.218 38.7753 133.464 53.7042 127.777C64.0803 123.824 89.3973 136.16 105.29 145.422C108.388 147.228 112.748 145.478 114.087 142.151Z" fill="black"/>
<path d="M54.4149 125.032C50.4809 121.347 40.6366 114.365 32.7319 115.912C22.851 117.847 3.36375 131.665 9.67653 134.429C15.9893 137.192 25.268 130.384 37.1163 130.384" stroke="black" stroke-width="2" stroke-linecap="round"/>
<path d="M132.614 81.7885C114.513 74.7109 73.4513 79.3738 74.3343 131.332" stroke="black" stroke-width="2" stroke-linecap="round"/>
<path d="M168.159 131.332V172.653C168.159 179.081 166.501 190.1 152.993 190.1" stroke="black" stroke-width="2" stroke-linecap="round"/>
<path d="M126.939 194.549L167.529 190.167C167.947 190.122 168.38 190.127 168.793 190.205C181.065 192.517 177.247 207.872 168.159 207.872H73.3265C72.5764 207.872 71.8271 207.712 71.1735 207.344C60.2606 201.198 66.9749 188.718 75.0306 190.099L125.966 194.559C126.29 194.587 126.616 194.584 126.939 194.549Z" stroke="black" stroke-width="2" stroke-linecap="round"/>
<path d="M78.1717 208.109L74.0607 269.817C73.9446 271.56 75.327 273.038 77.0737 273.038V273.038C78.5418 273.038 79.7972 271.982 80.0487 270.536L90.9078 208.109" stroke="black" stroke-width="2" stroke-linecap="round"/>
<path d="M163.834 208.109L167.945 269.817C168.061 271.56 166.678 273.038 164.932 273.038V273.038C163.464 273.038 162.208 271.982 161.957 270.536L151.098 208.109" stroke="black" stroke-width="2" stroke-linecap="round"/>
<path d="M75.2684 177.303C74.7154 181.332 75.7897 189.294 84.5101 188.915" stroke="black" stroke-width="2" stroke-linecap="round"/>
<path d="M153.942 58.583C159.392 54.0806 174.605 46.9715 199.439 53.6066" stroke="black" stroke-width="2" stroke-linecap="round"/>
<path d="M193.041 52.1847C201.73 42.0741 228.444 23.8435 265.79 31.8056" stroke="black" stroke-width="2" stroke-linecap="round"/>
<path d="M243.514 50.0522C223.293 57.4772 189.697 79.3534 213.183 110.479C231.063 134.175 236.879 114.507 229.533 95.5499C228.349 91.5214 226.69 84.9338 235.221 81.3319" stroke="black" stroke-width="2" stroke-linecap="round"/>
<path d="M227.05 125.171C225.628 128.488 226.908 134.033 229.182 135.36" stroke="black" stroke-width="2" stroke-linecap="round"/>
<path d="M235.932 127.303C237.91 126.204 241.926 124.698 247.604 125.809C248.499 125.984 249.305 126.461 249.926 127.129C253.153 130.6 257.724 136.292 255.837 137.493C253.752 138.82 249.913 133.939 248.965 132.28" stroke="black" stroke-width="2" stroke-linecap="round"/>
<path d="M251.809 135.834C253.23 137.967 253.23 140.1 251.335 140.811C249.439 141.522 247.069 137.019 246.358 135.124" stroke="black" stroke-width="2" stroke-linecap="round"/>
<path d="M249.439 140.337C249.123 141.294 247.265 142.923 245.174 140.811C243.752 139.375 243.278 138.441 242.567 137.019" stroke="black" stroke-width="2" stroke-linecap="round"/>
<path d="M235.221 135.834H180.561C177.871 135.834 175.66 138.098 177.011 140.423C178.031 142.178 179.776 143.842 182.632 144.506C182.933 144.576 183.244 144.602 183.553 144.602H191.122C193.883 144.602 196.122 146.84 196.122 149.602V287.469C196.122 290.23 198.36 292.469 201.122 292.469H287.591" stroke="black" stroke-width="2" stroke-linecap="round"/>
<path d="M195.173 143.654V151.711L320.766 147.568V143.654H195.173Z" fill="black"/>
<path d="M319.581 186.308V149.201C319.581 146.505 321.719 144.294 324.414 144.204L326.69 144.128C329.676 144.128 331.74 143.188 332.906 141.069C334.269 138.593 331.693 136.071 328.866 136.071H256.548" stroke="black" stroke-width="2" stroke-linecap="round"/>
<path d="M244.699 140.811C243.831 142.311 240.861 143.465 235.932 136.071" stroke="black" stroke-width="2" stroke-linecap="round"/>
<path d="M248.728 118.062C259.392 106.45 280.055 67.256 278.349 2.42188" stroke="black" stroke-width="2" stroke-linecap="round"/>
<circle cx="280.007" cy="64.0333" r="6.109" stroke="black" stroke-width="2"/>
<path d="M278.349 70.4312L287.591 116.64C288.381 120.668 287.259 129.009 276.453 130.147H256.785C255.995 130.068 254.415 130.289 254.415 131.806" stroke="black" stroke-width="2" stroke-linecap="round"/>
<path d="M281.193 135.36C286.406 134.096 296.216 128.251 293.752 114.981C291.287 101.711 286.09 78.8039 283.799 69.0093" stroke="black" stroke-width="2" stroke-linecap="round"/>
<path d="M290.02 300.222L281.58 263.128C281.408 262.375 282.126 261.72 282.867 261.941C306.315 268.938 324.774 265.519 332.843 262.28C333.623 261.966 334.483 262.653 334.305 263.475L326.386 300.21C326.287 300.671 325.88 301 325.409 301H290.995C290.529 301 290.124 300.677 290.02 300.222Z" stroke="black" stroke-width="2" stroke-linecap="round"/>
<path d="M325.44 177.402C303.325 206.121 301.082 245.432 303.048 263.894C303.146 264.815 303.878 265.527 304.801 265.6C309.327 265.956 316.625 266.055 319.742 264.381C320.116 264.18 320.364 263.798 320.487 263.392C338.248 204.835 331.562 189.908 329.396 178.566C329.05 176.751 326.567 175.938 325.44 177.402Z" fill="black"/>
<path d="M351.661 198.966C351.51 217.377 338.686 240.744 328.38 256.131C327.095 258.049 324.172 256.5 324.852 254.293C330.256 236.773 333.423 218.495 333.781 211.36C333.795 211.082 333.859 210.824 333.989 210.578C336.831 205.164 344.042 200.163 348.963 197.394C350.195 196.701 351.673 197.552 351.661 198.966Z" fill="black"/>
<path d="M294.936 167.114C305.552 177.54 309.944 193.259 310.813 199.815C301.524 222.754 300.94 252.975 301.808 265.218C300.481 265.218 298.57 264.744 297.78 264.507C280.15 226.592 288.538 183.78 294.936 167.114Z" fill="black"/>
<path d="M280.822 229.673C281.58 250.336 278.664 256.371 282.14 262.611C279.865 262.611 284.929 272.485 282.717 271.616C254.471 242.232 249.305 208.82 250.253 195.787C261.627 199.957 275.371 220.115 280.822 229.673Z" fill="black" fill-opacity="0.3"/>
<path d="M285.932 220.431C286.69 241.095 293.831 258.741 297.307 264.981C295.032 264.981 290.04 263.243 287.828 262.374C259.581 232.99 254.416 199.578 255.363 186.545C266.738 190.716 280.482 210.874 285.932 220.431Z" fill="black"/>
</svg>
