<svg width="470" height="300" viewBox="0 0 470 300" fill="none" xmlns="http://www.w3.org/2000/svg">
<path d="M430.202 177.263C433.176 176.866 439.56 174.606 441.305 168.737" stroke="black" stroke-width="2" stroke-linecap="round"/>
<path d="M420.486 172.504C422.469 172.57 427.029 171.592 429.408 167.15" stroke="black" stroke-width="2" stroke-linecap="round"/>
<path d="M411.563 165.366C414.736 164.707 421.636 162.655 423.857 159.718" stroke="black" stroke-width="2" stroke-linecap="round"/>
<path d="M440.007 187.288C420.895 191.364 403.061 173.214 395.209 161.837C394.473 160.771 394.992 159.321 396.22 158.909L425.422 149.116C426.16 148.868 426.971 149.075 427.528 149.619C437.078 158.937 453.453 163.571 463.943 165.312C465.758 165.613 466.402 168.03 464.922 169.122L440.75 186.951C440.53 187.114 440.275 187.231 440.007 187.288Z" stroke="black" stroke-width="2" stroke-linecap="round"/>
<path d="M291.497 120.565C275.294 119.894 257.628 128.408 254.616 130.667C252.226 132.46 252.462 135.098 252.94 136.392C252.995 136.543 253.08 136.679 253.178 136.806L282.683 174.966C282.742 175.043 282.795 175.125 282.848 175.206C283.517 176.239 285.382 177.383 288.126 174.487C292.332 170.047 309.525 159.123 331.771 158.23C333.663 158.154 334.598 155.725 333.165 154.488L312.911 137.009" stroke="black" stroke-width="2" stroke-linecap="round"/>
<path d="M221.9 153.699C229.633 149.504 231.219 158.854 235.383 158.061C240.742 157.04 231.814 145.768 223.288 145.173C216.467 144.697 202.997 155.418 197.115 160.837C186.408 171.224 152.462 182.634 102.337 145.173" stroke="black" stroke-width="2" stroke-linecap="round"/>
<path d="M96.7446 76.1997C102.433 59.1521 97.1086 48.2032 93.7354 44.8594C104.779 55.1243 118.478 53.429 123.946 51.2982L123.54 59.3792C132.075 62.3493 136.995 50.9444 138.389 44.8701C140.538 35.499 132.985 21.4952 111.38 21.2392C89.7757 20.9837 74.4664 35.3262 69.5122 42.5294C55.7996 34.9797 37.4039 42.2467 29.9201 46.824C22.176 51.581 4.50521 67.3305 8.72544 90.6242C14.4192 122.051 49.289 122.895 55.3729 121.388C76.3936 116.179 89.6339 97.5094 96.7446 76.1997Z" fill="black"/>
<path d="M125.777 79.7797C124.642 82.6145 122.956 84.8678 121.196 86.2335C119.416 87.6151 117.723 87.9831 116.429 87.4644C115.135 86.9458 114.164 85.5098 113.83 83.2805C113.499 81.077 113.835 78.2833 114.971 75.4485C116.106 72.6136 117.791 70.3604 119.551 68.9947C121.331 67.613 123.024 67.245 124.319 67.7637C125.613 68.2823 126.584 69.7184 126.918 71.9477C127.248 74.1512 126.912 76.9449 125.777 79.7797Z" stroke="black" stroke-width="2"/>
<path d="M122.207 79.6532C123.326 78.9599 123.672 77.4905 122.978 76.3711C122.285 75.2518 120.816 74.9064 119.696 75.5997C118.577 76.293 118.231 77.7624 118.925 78.8817C119.618 80.0011 121.087 80.3465 122.207 79.6532Z" fill="black"/>
<path d="M97.357 74.7831L114.051 76.7199" stroke="black" stroke-width="2" stroke-linecap="round"/>
<path d="M125.384 60.2234C126.104 63.35 128.74 70.4349 132.198 74.8731C135.734 79.4122 135.041 83.9583 131.485 86.5054L125.931 90.522C123.951 109.471 117.171 122.236 93.1672 123.209" stroke="black" stroke-width="2" stroke-linecap="round"/>
<path d="M60.9591 140.21L77.2362 147.861C77.7647 148.11 78.3585 147.696 78.3153 147.109L77.0848 130.516C77.0392 129.901 77.6889 129.487 78.2203 129.793L89.6537 136.379" stroke="black" stroke-width="2" stroke-linecap="round"/>
<path d="M85.7678 123.182C86.8782 124.306 88.5447 126.173 90.25 128.411C92.591 131.482 95.005 135.254 96.1549 138.762" stroke="black" stroke-width="2" stroke-linecap="round"/>
<path d="M91.3826 149.28C92.4351 148.97 92.9868 147.695 92.6149 146.432C92.2429 145.169 91.0882 144.396 90.0356 144.706C88.9831 145.016 88.4314 146.291 88.8033 147.554C89.1753 148.818 90.33 149.59 91.3826 149.28Z" fill="black"/>
<path d="M97.0028 159.223C97.95 158.944 98.4164 157.694 98.0445 156.431C97.6726 155.168 96.6031 154.37 95.6559 154.649C94.7086 154.928 94.2422 156.178 94.6141 157.441C94.9861 158.704 96.0555 159.501 97.0028 159.223Z" fill="black"/>
<path d="M111.587 102.683C110.979 104.131 110.884 107.401 115.368 108.895" stroke="black" stroke-width="2" stroke-linecap="round"/>
<path d="M196.183 235.76C194.889 227.5 195.277 224.488 196.183 221.678C190.985 231.313 183.518 235.435 180.063 237.54C178.649 242.968 176.521 255.679 183.636 258.94C192.529 263.017 197.775 245.918 196.183 235.76Z" fill="black"/>
<path d="M171.021 214.481C173.661 214.087 179.172 212.87 181.027 220.108C183.346 229.155 171.349 259.771 186.175 259.387C198.035 259.079 197.62 236.607 195.727 225.048" stroke="black" stroke-width="2" stroke-linecap="round"/>
<path d="M206.083 173.297C208.584 181.903 205.673 190.755 201.279 189.556C198.646 188.838 197.853 184.766 197.615 181.228C197.184 175.082 196.917 162.114 199.296 159.418" stroke="black" stroke-width="2" stroke-linecap="round"/>
<path d="M201.279 189.556C198.107 188.962 198.107 185.194 198.107 181.824C200.166 180.502 205.047 176.073 206.236 173.099C208.814 181.823 206.206 190.479 201.279 189.556Z" fill="black"/>
<path d="M172.817 259.395C127.852 237.377 48.5572 311.242 67.8608 164.481" stroke="black" stroke-width="2" stroke-linecap="round"/>
<path d="M54.7603 145.689C18.0988 187.402 31.3786 231.902 5.6313 267.662" stroke="black" stroke-width="2" stroke-linecap="round"/>
<path d="M226.064 145.768C231.814 143.983 234.392 145.768 238.159 154.294" stroke="black" stroke-width="2" stroke-linecap="round"/>
<path d="M216.547 154.353C221.623 153.877 226.108 155.344 228.047 157.128C233.004 161.689 228.642 163.672 221.702 160.896C218.149 159.474 218.139 164.249 213.326 165.492C210.915 166.115 208.539 167.45 207.573 169.745C205.687 174.229 202.39 179.695 197.909 181.228" stroke="black" stroke-width="2" stroke-linecap="round"/>
<path d="M214.96 193.324C215.819 192.266 217.047 191.338 217.736 190.944C219.124 190.151 224.478 192.927 221.107 188.168C217.087 182.493 203.262 192.2 197.313 198.677C181.451 212.953 137.488 233.821 110.046 208.442" stroke="black" stroke-width="2" stroke-linecap="round"/>
<path d="M212.383 194.315C215.621 193.985 222.059 194.037 221.9 196.893" stroke="black" stroke-width="2" stroke-linecap="round"/>
<path d="M214.366 198.082C217.406 197.091 223.447 196.06 223.289 199.867" stroke="black" stroke-width="2" stroke-linecap="round"/>
<path d="M216.349 201.057C219.521 199.735 225.073 199.272 226.065 204.626C226.197 205.948 225.787 208.036 223.09 205.815C220.394 203.595 217.076 205.683 215.754 207.005C212.78 209.781 205.8 215.452 201.676 215.928C196.917 223 185.933 236.946 180.063 236.152" stroke="black" stroke-width="2" stroke-linecap="round"/>
<path d="M115.028 199.202C155.477 225.375 164.399 195.237 194.935 195.237" stroke="black" stroke-width="2" stroke-linecap="round"/>
<path d="M219.124 254.196L353.924 225.95C355.167 225.69 356.334 226.638 356.334 227.907V228.39C356.334 229.333 355.677 230.147 354.756 230.345L216.985 260.019C215.739 260.287 214.564 259.338 214.564 258.064V255.584L210.995 212.358" stroke="black" stroke-width="2" stroke-linecap="round"/>
<path d="M214.86 261.314L209.08 262.47C208.442 262.598 207.853 262.091 207.885 261.441L209.764 223.001C209.824 221.767 211.629 221.717 211.757 222.946L215.659 260.229C215.713 260.743 215.367 261.213 214.86 261.314Z" fill="black"/>
<path d="M221.107 242.893L349.77 216.616C351.01 216.362 352.171 217.31 352.171 218.575V225.445" stroke="black" stroke-width="2" stroke-linecap="round"/>
<path d="M210.598 187.574L208.615 168.34" stroke="black" stroke-width="2" stroke-linecap="round"/>
<path d="M289.712 180.832C291.497 178.386 297.604 172.702 307.756 169.53C320.446 165.564 350.584 150.892 352.765 180.832C352.898 188.631 352.765 195.108 350.188 215.729" stroke="black" stroke-width="2" stroke-linecap="round"/>
<path d="M275.031 182.418C275.031 182.621 274.853 183.053 274.003 183.493C273.203 183.908 272.029 184.194 270.678 184.194C269.326 184.194 268.152 183.908 267.353 183.493C266.503 183.053 266.324 182.621 266.324 182.418C266.324 182.215 266.503 181.783 267.353 181.343C268.152 180.928 269.326 180.642 270.678 180.642C272.029 180.642 273.203 180.928 274.003 181.343C274.853 181.783 275.031 182.215 275.031 182.418Z" stroke="black" stroke-width="2"/>
<path d="M271.065 176.469C271.065 176.672 270.886 177.104 270.037 177.544C269.237 177.959 268.063 178.245 266.712 178.245C265.36 178.245 264.186 177.959 263.386 177.544C262.537 177.104 262.358 176.672 262.358 176.469C262.358 176.266 262.537 175.835 263.386 175.394C264.186 174.98 265.36 174.693 266.712 174.693C268.063 174.693 269.237 174.98 270.037 175.394C270.886 175.835 271.065 176.266 271.065 176.469Z" stroke="black" stroke-width="2"/>
<path d="M267.1 170.521C267.1 170.724 266.921 171.156 266.072 171.596C265.272 172.011 264.098 172.297 262.746 172.297C261.395 172.297 260.221 172.011 259.421 171.596C258.572 171.156 258.393 170.724 258.393 170.521C258.393 170.318 258.572 169.886 259.421 169.446C260.221 169.031 261.395 168.745 262.746 168.745C264.098 168.745 265.272 169.031 266.072 169.446C266.921 169.886 267.1 170.318 267.1 170.521Z" stroke="black" stroke-width="2"/>
<path d="M263.134 164.771C263.134 164.921 262.998 165.303 262.221 165.706C261.494 166.085 260.419 166.349 259.177 166.349C257.936 166.349 256.861 166.085 256.134 165.706C255.357 165.303 255.22 164.921 255.22 164.771C255.22 164.621 255.357 164.239 256.134 163.836C256.861 163.457 257.936 163.193 259.177 163.193C260.419 163.193 261.494 163.457 262.221 163.836C262.998 164.239 263.134 164.621 263.134 164.771Z" stroke="black" stroke-width="2"/>
<path d="M259.169 159.021C259.169 159.117 259.074 159.45 258.37 159.817C257.715 160.159 256.74 160.4 255.608 160.4C254.477 160.4 253.502 160.159 252.846 159.817C252.142 159.45 252.048 159.117 252.048 159.021C252.048 158.924 252.142 158.592 252.846 158.225C253.502 157.883 254.477 157.642 255.608 157.642C256.74 157.642 257.715 157.883 258.37 158.225C259.074 158.592 259.169 158.924 259.169 159.021Z" stroke="black" stroke-width="2"/>
<path d="M255.203 153.271C255.203 153.315 255.15 153.597 254.52 153.927C253.936 154.233 253.061 154.452 252.039 154.452C251.018 154.452 250.143 154.233 249.559 153.927C248.928 153.597 248.875 153.315 248.875 153.271C248.875 153.227 248.928 152.945 249.559 152.615C250.143 152.309 251.018 152.09 252.039 152.09C253.061 152.09 253.936 152.309 254.52 152.615C255.15 152.945 255.203 153.227 255.203 153.271Z" stroke="black" stroke-width="2"/>
<path d="M265.117 192.729C265.117 192.931 264.938 193.363 264.088 193.804C263.289 194.218 262.115 194.504 260.763 194.504C259.412 194.504 258.238 194.218 257.438 193.804C256.588 193.363 256.41 192.931 256.41 192.729C256.41 192.526 256.588 192.094 257.438 191.653C258.238 191.239 259.412 190.953 260.763 190.953C262.115 190.953 263.289 191.239 264.088 191.653C264.938 192.094 265.117 192.526 265.117 192.729Z" stroke="black" stroke-width="2"/>
<path d="M261.548 186.78C261.548 186.983 261.369 187.415 260.52 187.855C259.72 188.27 258.546 188.556 257.194 188.556C255.843 188.556 254.669 188.27 253.869 187.855C253.02 187.415 252.841 186.983 252.841 186.78C252.841 186.578 253.02 186.146 253.869 185.705C254.669 185.291 255.843 185.004 257.194 185.004C258.546 185.004 259.72 185.291 260.52 185.705C261.369 186.146 261.548 186.578 261.548 186.78Z" stroke="black" stroke-width="2"/>
<path d="M258.772 180.832C258.772 181.034 258.593 181.466 257.744 181.907C256.944 182.321 255.77 182.608 254.419 182.608C253.067 182.608 251.893 182.321 251.093 181.907C250.244 181.466 250.065 181.034 250.065 180.832C250.065 180.629 250.244 180.197 251.093 179.756C251.893 179.342 253.067 179.056 254.419 179.056C255.77 179.056 256.944 179.342 257.744 179.756C258.593 180.197 258.772 180.629 258.772 180.832Z" stroke="black" stroke-width="2"/>
<path d="M255.599 174.685C255.599 174.835 255.463 175.217 254.686 175.621C253.959 175.999 252.884 176.263 251.642 176.263C250.401 176.263 249.326 175.999 248.599 175.621C247.822 175.217 247.685 174.835 247.685 174.685C247.685 174.536 247.822 174.154 248.599 173.75C249.326 173.371 250.401 173.107 251.642 173.107C252.884 173.107 253.959 173.371 254.686 173.75C255.463 174.154 255.599 174.536 255.599 174.685Z" stroke="black" stroke-width="2"/>
<path d="M252.427 168.935C252.427 169.032 252.332 169.364 251.629 169.731C250.973 170.073 249.998 170.314 248.866 170.314C247.735 170.314 246.76 170.073 246.104 169.731C245.4 169.364 245.306 169.032 245.306 168.935C245.306 168.839 245.4 168.506 246.104 168.139C246.76 167.797 247.735 167.556 248.866 167.556C249.998 167.556 250.973 167.797 251.629 168.139C252.332 168.506 252.427 168.839 252.427 168.935Z" stroke="black" stroke-width="2"/>
<path d="M249.651 163.581C249.651 163.625 249.598 163.907 248.968 164.238C248.384 164.544 247.509 164.763 246.487 164.763C245.466 164.763 244.59 164.544 244.007 164.238C243.376 163.907 243.323 163.625 243.323 163.581C243.323 163.538 243.376 163.255 244.007 162.925C244.59 162.619 245.466 162.4 246.487 162.4C247.509 162.4 248.384 162.619 248.968 162.925C249.598 163.255 249.651 163.538 249.651 163.581Z" stroke="black" stroke-width="2"/>
<path d="M247.668 158.823C247.668 158.867 247.616 159.149 246.985 159.479C246.401 159.785 245.526 160.004 244.504 160.004C243.483 160.004 242.608 159.785 242.024 159.479C241.393 159.149 241.341 158.867 241.341 158.823C241.341 158.779 241.393 158.497 242.024 158.166C242.608 157.861 243.483 157.642 244.504 157.642C245.526 157.642 246.401 157.861 246.985 158.166C247.616 158.497 247.668 158.779 247.668 158.823Z" stroke="black" stroke-width="2"/>
<path d="M245.685 154.064C245.685 154.108 245.632 154.39 245.002 154.72C244.418 155.026 243.543 155.245 242.521 155.245C241.5 155.245 240.624 155.026 240.041 154.72C239.41 154.39 239.357 154.108 239.357 154.064C239.357 154.02 239.41 153.738 240.041 153.407C240.624 153.102 241.5 152.883 242.521 152.883C243.543 152.883 244.418 153.102 245.002 153.407C245.632 153.738 245.685 154.02 245.685 154.064Z" stroke="black" stroke-width="2"/>
<path d="M253.617 201.85C253.617 202.052 253.438 202.484 252.588 202.925C251.789 203.339 250.615 203.626 249.263 203.626C247.911 203.626 246.737 203.339 245.938 202.925C245.088 202.484 244.909 202.052 244.909 201.85C244.909 201.647 245.088 201.215 245.938 200.775C246.737 200.36 247.911 200.074 249.263 200.074C250.615 200.074 251.789 200.36 252.588 200.775C253.438 201.215 253.617 201.647 253.617 201.85Z" stroke="black" stroke-width="2"/>
<path d="M251.634 194.711C251.634 194.914 251.455 195.346 250.606 195.787C249.806 196.201 248.632 196.487 247.281 196.487C245.929 196.487 244.755 196.201 243.955 195.787C243.106 195.346 242.927 194.914 242.927 194.711C242.927 194.509 243.106 194.077 243.955 193.636C244.755 193.222 245.929 192.936 247.281 192.936C248.632 192.936 249.806 193.222 250.606 193.636C251.455 194.077 251.634 194.509 251.634 194.711Z" stroke="black" stroke-width="2"/>
<path d="M249.255 187.97C249.255 188.173 249.076 188.604 248.226 189.045C247.427 189.459 246.253 189.746 244.901 189.746C243.55 189.746 242.376 189.459 241.576 189.045C240.726 188.604 240.548 188.173 240.548 187.97C240.548 187.767 240.726 187.335 241.576 186.895C242.376 186.48 243.55 186.194 244.901 186.194C246.253 186.194 247.427 186.48 248.226 186.895C249.076 187.335 249.255 187.767 249.255 187.97Z" stroke="black" stroke-width="2"/>
<path d="M246.875 181.823C246.875 181.973 246.739 182.355 245.962 182.759C245.234 183.137 244.16 183.401 242.918 183.401C241.676 183.401 240.602 183.137 239.874 182.759C239.097 182.355 238.961 181.973 238.961 181.823C238.961 181.674 239.097 181.292 239.874 180.888C240.602 180.509 241.676 180.246 242.918 180.246C244.16 180.246 245.234 180.509 245.962 180.888C246.739 181.292 246.875 181.674 246.875 181.823Z" stroke="black" stroke-width="2"/>
<path d="M244.1 176.073C244.1 176.169 244.005 176.501 243.301 176.869C242.646 177.211 241.671 177.452 240.539 177.452C239.408 177.452 238.433 177.211 237.777 176.869C237.073 176.501 236.979 176.169 236.979 176.073C236.979 175.976 237.073 175.644 237.777 175.277C238.433 174.935 239.408 174.693 240.539 174.693C241.671 174.693 242.646 174.935 243.301 175.277C244.005 175.644 244.1 175.976 244.1 176.073Z" stroke="black" stroke-width="2"/>
<path d="M241.323 170.72C241.323 170.763 241.271 171.046 240.64 171.376C240.056 171.682 239.181 171.901 238.159 171.901C237.138 171.901 236.263 171.682 235.679 171.376C235.048 171.046 234.996 170.763 234.996 170.72C234.996 170.676 235.048 170.394 235.679 170.063C236.263 169.758 237.138 169.539 238.159 169.539C239.181 169.539 240.056 169.758 240.64 170.063C241.271 170.394 241.323 170.676 241.323 170.72Z" stroke="black" stroke-width="2"/>
<path d="M239.34 165.961C239.34 166.005 239.287 166.287 238.657 166.617C238.073 166.923 237.198 167.142 236.176 167.142C235.155 167.142 234.279 166.923 233.696 166.617C233.065 166.287 233.012 166.005 233.012 165.961C233.012 165.917 233.065 165.635 233.696 165.304C234.279 164.999 235.155 164.78 236.176 164.78C237.198 164.78 238.073 164.999 238.657 165.304C239.287 165.635 239.34 165.917 239.34 165.961Z" stroke="black" stroke-width="2"/>
<path d="M237.358 161.202C237.358 161.246 237.305 161.528 236.674 161.859C236.091 162.164 235.216 162.383 234.194 162.383C233.173 162.383 232.297 162.164 231.714 161.859C231.083 161.528 231.03 161.246 231.03 161.202C231.03 161.158 231.083 160.876 231.714 160.546C232.297 160.24 233.173 160.021 234.194 160.021C235.216 160.021 236.091 160.24 236.674 160.546C237.305 160.876 237.358 161.158 237.358 161.202Z" stroke="black" stroke-width="2"/>
<path d="M240.927 205.419C240.927 205.621 240.748 206.053 239.899 206.494C239.099 206.908 237.925 207.194 236.573 207.194C235.222 207.194 234.048 206.908 233.248 206.494C232.399 206.053 232.22 205.621 232.22 205.419C232.22 205.216 232.399 204.784 233.248 204.343C234.048 203.929 235.222 203.643 236.573 203.643C237.925 203.643 239.099 203.929 239.899 204.343C240.748 204.784 240.927 205.216 240.927 205.419Z" stroke="black" stroke-width="2"/>
<path d="M238.944 198.28C238.944 198.483 238.765 198.915 237.915 199.355C237.116 199.77 235.942 200.056 234.59 200.056C233.239 200.056 232.064 199.77 231.265 199.355C230.415 198.915 230.237 198.483 230.237 198.28C230.237 198.078 230.415 197.646 231.265 197.205C232.064 196.791 233.239 196.504 234.59 196.504C235.942 196.504 237.116 196.791 237.915 197.205C238.765 197.646 238.944 198.078 238.944 198.28Z" stroke="black" stroke-width="2"/>
<path d="M236.565 191.539C236.565 191.742 236.386 192.174 235.537 192.614C234.737 193.029 233.563 193.315 232.211 193.315C230.86 193.315 229.686 193.029 228.886 192.614C228.037 192.174 227.858 191.742 227.858 191.539C227.858 191.336 228.037 190.904 228.886 190.464C229.686 190.049 230.86 189.763 232.211 189.763C233.563 189.763 234.737 190.049 235.537 190.464C236.386 190.904 236.565 191.336 236.565 191.539Z" stroke="black" stroke-width="2"/>
<path d="M234.185 185.393C234.185 185.542 234.049 185.924 233.272 186.328C232.544 186.706 231.47 186.97 230.228 186.97C228.987 186.97 227.912 186.706 227.184 186.328C226.408 185.924 226.271 185.542 226.271 185.393C226.271 185.243 226.408 184.861 227.184 184.457C227.912 184.079 228.987 183.815 230.228 183.815C231.47 183.815 232.544 184.079 233.272 184.457C234.049 184.861 234.185 185.243 234.185 185.393Z" stroke="black" stroke-width="2"/>
<path d="M232.599 179.642C232.599 179.739 232.505 180.071 231.801 180.438C231.145 180.78 230.17 181.021 229.039 181.021C227.907 181.021 226.932 180.78 226.277 180.438C225.573 180.071 225.478 179.739 225.478 179.642C225.478 179.546 225.573 179.213 226.277 178.846C226.932 178.504 227.907 178.263 229.039 178.263C230.17 178.263 231.145 178.504 231.801 178.846C232.505 179.213 232.599 179.546 232.599 179.642Z" stroke="black" stroke-width="2"/>
<path d="M230.616 174.289C230.616 174.332 230.563 174.615 229.932 174.945C229.349 175.251 228.474 175.47 227.452 175.47C226.43 175.47 225.555 175.251 224.972 174.945C224.341 174.615 224.288 174.332 224.288 174.289C224.288 174.245 224.341 173.962 224.972 173.632C225.555 173.326 226.43 173.107 227.452 173.107C228.474 173.107 229.349 173.326 229.932 173.632C230.563 173.962 230.616 174.245 230.616 174.289Z" stroke="black" stroke-width="2"/>
<path d="M229.427 169.53C229.427 169.574 229.374 169.856 228.743 170.186C228.16 170.492 227.284 170.711 226.263 170.711C225.241 170.711 224.366 170.492 223.782 170.186C223.152 169.856 223.099 169.574 223.099 169.53C223.099 169.486 223.152 169.204 223.782 168.873C224.366 168.568 225.241 168.349 226.263 168.349C227.284 168.349 228.16 168.568 228.743 168.873C229.374 169.204 229.427 169.486 229.427 169.53Z" stroke="black" stroke-width="2"/>
<path d="M228.236 164.771C228.236 164.815 228.184 165.097 227.553 165.427C226.969 165.733 226.094 165.952 225.073 165.952C224.051 165.952 223.176 165.733 222.592 165.427C221.961 165.097 221.909 164.815 221.909 164.771C221.909 164.727 221.961 164.445 222.592 164.115C223.176 163.809 224.051 163.59 225.073 163.59C226.094 163.59 226.969 163.809 227.553 164.115C228.184 164.445 228.236 164.727 228.236 164.771Z" stroke="black" stroke-width="2"/>
<path d="M216.547 185.789L214.854 175.124C214.69 174.093 215.347 173.109 216.362 172.865L217.482 172.597C218.592 172.33 219.699 173.046 219.913 174.167L225.073 201.255" stroke="black" stroke-width="2" stroke-linecap="round"/>
<path d="M228.047 217.514C239.415 214.209 265.76 205.657 280.988 186.78" stroke="black" stroke-width="2" stroke-linecap="round"/>
<path d="M238.357 148.512C241.662 147.388 247.28 144.546 250.453 138.003" stroke="black" stroke-width="2" stroke-linecap="round"/>
<path d="M290.041 156.332C288.527 157.225 286.582 158.751 285.173 159.935C284.661 160.364 283.876 160.2 283.593 159.595L273.796 138.686C273.307 137.641 274.683 136.735 275.449 137.597L290.426 154.446C290.919 155 290.68 155.955 290.041 156.332Z" fill="black"/>
<path d="M282.83 159.138C279.285 154.755 270.303 143.849 265.073 137.513C264.614 136.956 264.477 136.177 264.941 135.625C266.046 134.312 268.144 133.22 269.809 132.708C270.463 132.508 271.151 132.761 271.605 133.272L289.355 153.241C290.341 154.35 289.907 156.361 288.689 157.21C287.715 157.889 286.687 158.689 285.794 159.42C284.897 160.154 283.558 160.039 282.83 159.138Z" stroke="black" stroke-width="2" stroke-linecap="round"/>
<path d="M290.109 126.106C289.284 126.107 288.172 126.297 287.304 126.878C286.601 127.348 286.704 128.317 287.267 128.948C292.525 134.843 301.636 143.389 305.316 147.139C306.127 147.966 307.489 148.006 308.552 147.546C308.604 147.524 308.656 147.502 308.708 147.481C310.012 146.959 310.626 145.51 309.793 144.379L308.747 142.96" stroke="black" stroke-width="2" stroke-linecap="round"/>
<ellipse cx="331.946" cy="181.427" rx="9.91402" ry="10.1123" fill="black"/>
<path d="M289.514 130.667C290.59 119.781 296.878 97.8911 313.425 93.8236C314.843 93.4752 316.309 93.9472 317.427 94.8853C321.24 98.0833 327.554 102.945 334.234 107.014C337.644 109.091 337.954 114.312 334.709 116.639C323.398 124.748 308.86 137.333 306.963 147.322" stroke="black" stroke-width="2" stroke-linecap="round"/>
<path d="M295.859 126.503C297.379 128.354 301.332 132.689 304.98 135.227" stroke="black" stroke-width="2" stroke-linecap="round"/>
<path d="M297.445 118.572C299.56 121.179 305.059 127.289 310.135 130.865" stroke="black" stroke-width="2" stroke-linecap="round"/>
<path d="M311.721 101.123C313.836 103.731 319.335 109.84 324.411 113.416" stroke="black" stroke-width="2" stroke-linecap="round"/>
<path d="M299.032 110.641C301.874 113.921 309.263 121.607 316.084 126.107" stroke="black" stroke-width="2" stroke-linecap="round"/>
<path d="M303.394 103.899C306.566 107.6 314.418 115.479 322.032 120.554" stroke="black" stroke-width="2" stroke-linecap="round"/>
<path d="M331.946 194.116C334.59 194.447 340.313 193.72 342.058 188.168" stroke="black" stroke-width="2" stroke-linecap="round"/>
<path d="M272.759 72.544C273.185 72.0301 273.836 71.7646 274.501 71.8172C282.861 72.4776 294.971 71.3029 296.457 65.1926C298.006 58.8185 292.089 56.4874 288.936 56.1185C277.036 54.2532 261.289 55.1078 261.024 64.9393" stroke="black" stroke-width="2" stroke-linecap="round"/>
<path d="M271.074 66.0274C271.841 66.0274 272.462 65.406 272.462 64.6394C272.462 63.8729 271.841 63.2515 271.074 63.2515C270.307 63.2515 269.686 63.8729 269.686 64.6394C269.686 65.406 270.307 66.0274 271.074 66.0274Z" fill="black"/>
<path d="M280.393 64.6394C280.393 65.3135 279.855 66.0274 279.005 66.0274C278.156 66.0274 277.617 65.3135 277.617 64.6394C277.617 63.9653 278.156 63.2515 279.005 63.2515C279.855 63.2515 280.393 63.9653 280.393 64.6394Z" fill="black"/>
<path d="M287.333 66.0274C288.099 66.0274 288.721 65.406 288.721 64.6394C288.721 63.8729 288.099 63.2515 287.333 63.2515C286.566 63.2515 285.945 63.8729 285.945 64.6394C285.945 65.406 286.566 66.0274 287.333 66.0274Z" fill="black"/>
<path d="M418.229 84.553C418.077 85.0695 418.141 85.6227 418.394 86.098C421.613 92.1453 424.687 101.622 420.587 104.727C416.316 107.961 412.644 104.287 411.343 102.045C406.089 93.7598 401.618 81.7295 408.81 78.2939" stroke="black" stroke-width="2" stroke-linecap="round"/>
<path d="M409.878 86.4754C410.128 87.0497 410.795 87.3131 411.37 87.0638C411.944 86.8144 412.207 86.1468 411.958 85.5725C411.709 84.9982 411.041 84.7348 410.467 84.9842C409.893 85.2335 409.629 85.9012 409.878 86.4754Z" fill="black"/>
<path d="M413.949 93.0056C413.444 93.2249 412.734 93.0537 412.458 92.4173C412.182 91.7809 412.541 91.1453 413.046 90.9261C413.551 90.7068 414.261 90.878 414.538 91.5144C414.814 92.1508 414.454 92.7864 413.949 93.0056Z" fill="black"/>
<path d="M415.167 98.6561C415.416 99.2304 416.084 99.4938 416.658 99.2444C417.233 98.9951 417.496 98.3274 417.247 97.7532C416.997 97.1789 416.33 96.9155 415.755 97.1648C415.181 97.4142 414.918 98.0818 415.167 98.6561Z" fill="black"/>
<path d="M356.431 91.8563C356.916 91.4983 357.21 90.9421 357.254 90.3409C357.684 84.4982 359.718 76.4148 363.993 76.0023C368.505 75.567 369.497 79.8988 369.429 82.1191C369.496 90.5572 367.31 101.392 360.549 100.566" stroke="black" stroke-width="2" stroke-linecap="round"/>
<path d="M363.436 93.9774C363.515 93.4356 363.141 92.9321 362.599 92.8527C362.057 92.7734 361.554 93.1482 361.474 93.69C361.395 94.2317 361.77 94.7352 362.311 94.8146C362.853 94.894 363.357 94.5191 363.436 93.9774Z" fill="black"/>
<path d="M363.404 87.3596C363.88 87.4294 364.329 87.8838 364.241 88.4842C364.153 89.0846 363.593 89.3912 363.116 89.3214C362.64 89.2516 362.191 88.7972 362.279 88.1968C362.367 87.5964 362.927 87.2898 363.404 87.3596Z" fill="black"/>
<path d="M365.046 82.991C365.125 82.4493 364.75 81.9458 364.208 81.8664C363.667 81.787 363.163 82.1619 363.084 82.7036C363.004 83.2454 363.379 83.7489 363.921 83.8283C364.463 83.9076 364.966 83.5328 365.046 82.991Z" fill="black"/>
<path d="M374.06 125.518C371.81 124.802 371.032 126.08 370.888 127.611C370.803 128.508 369.701 129.285 368.827 129.067C367.702 128.788 366.581 128.901 366.128 130.078C365.409 131.948 369.855 134.069 372.809 135.138C373.291 135.312 373.824 135.072 374.018 134.597C376.552 128.395 375.136 125.961 374.06 125.518Z" fill="black"/>
<path d="M335.196 43.0328C332.946 42.3169 332.168 43.5956 332.024 45.1259C331.94 46.0226 330.837 46.8001 329.963 46.5826C328.838 46.3029 327.717 46.4159 327.265 47.5933C326.545 49.4636 330.991 51.5842 333.945 52.6528C334.428 52.8274 334.96 52.5873 335.154 52.1123C337.689 45.9096 336.272 43.4761 335.196 43.0328Z" fill="black"/>
<path d="M400.155 128.684L430.095 123.727" stroke="black" stroke-width="2" stroke-linecap="round"/>
<path d="M384.292 72.1743L413.638 49.5703" stroke="black" stroke-width="2" stroke-linecap="round"/>
<path d="M335.515 86.054L348.007 51.5532" stroke="black" stroke-width="2" stroke-linecap="round"/>
<path d="M314.101 66.8205L311.721 47.9839" stroke="black" stroke-width="2" stroke-linecap="round"/>
</svg>
