<svg width="321" height="301" viewBox="0 0 321 301" fill="none" xmlns="http://www.w3.org/2000/svg">
<path d="M136.328 236.333C132.608 217.132 146.402 173.275 153.763 153.746C156.217 154.908 176.752 150.907 183.339 141.358C188.608 133.719 197.558 130.719 201.937 129.358C207.749 127.551 217.435 127.809 219.243 132.196L221.18 136.713C227.509 154.908 221.998 182.566 218.081 194.911L203.616 197.491C192.664 179.735 198.278 158.091 202.454 149.488C198.011 155.476 185.535 161.79 179.852 164.199C179.594 180.071 155.313 234.784 150.018 238.268C145.782 241.056 139.126 238.14 136.328 236.333Z" fill="black"/>
<path d="M145.604 239.496L143.796 242.782M138.112 237.413L134.662 246.524L134.366 247.305C134.038 248.094 133.81 249.417 134.366 250.544C134.758 251.339 135.539 252.037 136.95 252.381C140.36 253.214 153.183 254.117 159.168 254.464C160.202 254.594 162.166 254.099 161.752 251.08C161.339 248.06 159.168 245.297 156.714 244.181C154.723 243.277 149.589 241.873 143.796 242.782L138.112 237.413ZM141.987 243.14C142.596 242.994 143.199 242.876 143.796 242.782L141.987 243.14Z" stroke="black" stroke-width="2" stroke-linecap="round"/>
<path d="M205.678 196.792C205.549 200.62 205.898 208.159 206.844 209.311C208.009 210.731 209.434 210.86 218.109 208.15C225.049 205.981 227.82 205.955 229.503 205.697C230.669 205.519 232.093 205.362 232.093 202.471C232.093 198.857 230.669 196.404 226.266 195.888C222.744 195.475 217.721 197.609 215.649 198.727V195.243" stroke="black" stroke-width="2" stroke-linecap="round"/>
<path d="M189.105 66.8784C175.804 68.2225 149.668 73.8878 151.527 85.7953C151.812 86.8064 152.631 88.4196 154.158 89.9371C155.629 91.3987 157.756 92.7716 160.696 93.4319" stroke="black" stroke-width="2" stroke-linecap="round"/>
<path d="M154.158 89.937C158.317 96.4085 170.51 110.465 186.006 114.917" stroke="black" stroke-width="2" stroke-linecap="round"/>
<path d="M185.906 114.917C186.853 113.645 189.343 111.345 192.265 111.236" stroke="black" stroke-width="2" stroke-linecap="round"/>
<path d="M192.265 111.235C192.179 107.601 189.113 98.2295 177.539 89.8154" stroke="black" stroke-width="2" stroke-linecap="round"/>
<path d="M174.192 92.8278C175.393 90.8829 179.083 86.7542 184.233 85.7993" stroke="black" stroke-width="2" stroke-linecap="round"/>
<path d="M202.975 89.1465C203.533 89.8058 204.649 91.5991 204.649 93.4974" stroke="black" stroke-width="2" stroke-linecap="round"/>
<path d="M202.844 116.929C205.481 116.8 210.99 116.414 211.924 115.897C213.091 115.253 213.351 115.253 213.351 113.963C213.351 112.673 202.844 114.866 202.844 110.739C203.795 109.793 205.334 107.669 203.882 106.741C202.429 105.812 199.385 108.504 198.045 109.965C196.661 111.427 193.556 113.731 192.207 111.255" stroke="black" stroke-width="2" stroke-linecap="round"/>
<path d="M186.241 114.866C187.408 118.262 191.611 124.357 199.082 121.572C206.554 118.786 206.865 117.316 206.086 116.929" stroke="black" stroke-width="2" stroke-linecap="round"/>
<path d="M250.588 116.311C252.404 115.815 256.372 113.506 257.721 108.242C259.07 102.977 257.245 102.951 256.164 103.596" stroke="black" stroke-width="2" stroke-linecap="round"/>
<path d="M243.844 112.5C244.406 109.575 246.386 103.932 249.81 104.758" stroke="black" stroke-width="2" stroke-linecap="round"/>
<path d="M245.271 107.725C242.884 105.764 241.423 110.263 240.991 112.758C238.294 113.583 237.273 117.489 237.1 119.338C243.343 119.978 247.779 118.302 250.588 116.311C252.308 115.091 253.418 113.754 253.96 112.758C255.3 109.188 257.254 101.738 254.349 100.5C251.444 99.2609 250.631 102.048 250.588 103.596C250.899 107.106 249.075 110.994 248.124 112.5" stroke="black" stroke-width="2" stroke-linecap="round"/>
<path d="M207.661 116.887C213.281 122.134 227.036 129.97 237.1 119.338" stroke="black" stroke-width="2" stroke-linecap="round"/>
<path d="M206.657 117.595C206.657 120.031 206.054 125.583 203.645 128.305" stroke="black" stroke-width="2" stroke-linecap="round"/>
<path d="M154.111 123.285C148.807 130.444 141.382 146.624 154.111 154.076" stroke="black" stroke-width="2" stroke-linecap="round"/>
<path d="M312.753 92.493L315.765 87.4727" stroke="black" stroke-width="2" stroke-linecap="round"/>
<path d="M314.225 95.1173L319.782 94.8589" stroke="black" stroke-width="2" stroke-linecap="round"/>
<path d="M313.088 98.1831L316.435 102.534" stroke="black" stroke-width="2" stroke-linecap="round"/>
<path d="M203.685 255.823H113.279V300" stroke="black" stroke-width="2" stroke-linecap="round"/>
<path d="M266.541 211.776H192.561V265.64" stroke="black" stroke-width="2" stroke-linecap="round"/>
<path d="M315.43 150.032H255.418V221.981" stroke="black" stroke-width="2" stroke-linecap="round"/>
<path d="M304.825 103.036V160.108" stroke="black" stroke-width="2" stroke-linecap="round"/>
<path d="M304.825 83.1221V87.9751" stroke="black" stroke-width="2" stroke-linecap="round"/>
<path d="M187.593 118.109L113.502 126.631C104.931 119.765 107.005 109.514 109.114 105.248L160.616 99.0742" stroke="black" stroke-width="2" stroke-linecap="round"/>
<path d="M213.021 116.051L238.45 113.607" stroke="black" stroke-width="2" stroke-linecap="round"/>
<path d="M257.037 110.907L273.688 109.749L296.019 99.6273C293.334 96.777 294.806 94.2381 295.925 93.3298L273.688 88.1421L185.657 95.4731" stroke="black" stroke-width="2" stroke-linecap="round"/>
<path d="M101.135 105.354L108.683 104.542C103.448 116.269 109.449 124.247 113.279 127.351L104.47 128.64C97.1069 119.673 99.0049 109.638 101.135 105.354Z" fill="black"/>
<path d="M296.822 100.191C294.02 97.2673 295.594 93.7852 296.762 92.6606L307.398 95.2856L296.822 100.191Z" fill="black"/>
<path d="M273.929 88.1421C271.151 91.669 267.261 100.891 273.929 109.562" stroke="black" stroke-width="2"/>
<path d="M209.942 69.1368C212.156 67.7743 228.81 69.0876 232.047 48.1391C237.59 48.2041 240.605 43.6633 236.375 41.7201C231.866 39.3951 232.205 35.1264 233.022 32.6113C234.32 29.3129 234.399 25.8498 234.119 25.1255" stroke="black" stroke-width="2" stroke-linecap="round"/>
<path d="M227.161 40.5746C227.79 40.582 228.309 39.8231 228.32 38.8796C228.331 37.9361 227.83 37.1652 227.201 37.1579C226.572 37.1505 226.053 37.9094 226.042 38.8529C226.031 39.7964 226.532 40.5672 227.161 40.5746Z" fill="black"/>
<path d="M224.069 33.66C224.993 32.6713 227.385 31.2252 229.552 33.3494" stroke="black" stroke-width="2" stroke-linecap="round"/>
<path d="M217.786 52.9097C219.486 55.5253 221.352 56.2679 224.977 54.5801" stroke="black" stroke-width="2" stroke-linecap="round"/>
<path d="M203.872 34.5767C203.478 35.4415 203.148 37.4048 204.978 38.3392" stroke="black" stroke-width="2" stroke-linecap="round"/>
<path d="M184.361 25.6959C182.204 37.4955 188.952 46.3777 193.844 53.2061C199.069 50.3833 207.633 43.6708 204.348 42.9462C200.896 42.1848 197.256 32.7688 200.608 29.8885C204.541 26.5091 208.086 31.6223 208.762 35.4994L211.93 30.0211C211.034 26.1894 210.683 19.4681 216.444 23.2361C222.205 27.0041 230.655 26.0171 234.16 25.0526C241.072 20.1057 251.809 8.56679 239.47 1.98652C229.207 -3.48645 215.852 3.43287 207.699 9.65024C202.18 8.19304 187.302 9.60767 184.361 25.6959Z" fill="black"/>
<path d="M194.229 52.4155C196.723 55.419 197.963 57.9131 197.808 63.0797" stroke="black" stroke-width="2" stroke-linecap="round"/>
<path d="M191.452 69.9966C190.579 66.9496 190.067 61.1381 195.008 62.2676C201.183 63.6793 213.77 69.7861 212.848 73.1711" stroke="black" stroke-width="2" stroke-linecap="round"/>
<path d="M212.849 77.9341C217.367 82.1177 218.371 84.7952 219.04 89.8155" stroke="black" stroke-width="2" stroke-linecap="round"/>
<path d="M1.15796 213.635C7.2957 213.076 21.7584 216.736 31.4196 235.559C31.6723 236.051 32.3848 236.064 32.6365 235.572C42.5463 216.172 54.7089 196.492 93.1525 220.187C93.7436 220.551 94.5191 219.892 94.2262 219.262C87.989 205.847 84.6183 180.265 113.683 167.573C114.266 167.319 114.24 166.452 113.63 166.273L106.112 164.076C105.423 163.875 105.498 162.929 106.213 162.865C113.957 162.167 124.883 162.622 121.122 167.191C116.73 172.526 115.65 175.899 116.721 181.469" stroke="black" stroke-width="2" stroke-linecap="round"/>
</svg>
