<svg width="119" height="152" viewBox="0 0 119 152" fill="none" xmlns="http://www.w3.org/2000/svg">
<path d="M67.3029 106.674C72.9391 106.535 85.9435 104.719 91.133 102.988C94.2642 101.945 96.8944 103.114 96.5604 106.955C96.2264 110.796 84.2444 117.674 74.4333 119.271C68.4492 120.245 54.3101 121.609 45.6263 119.271C36.9424 116.933 26.9783 126.368 23.0817 131.378C20.5767 134.509 14.5648 142.817 10.5569 151" stroke="black" stroke-width="2" stroke-linecap="round"/>
<path d="M68.1708 103.824C74.3636 102.919 88.4447 99.9441 92.1766 98.1878C95.7253 96.5179 98.0215 98.1878 98.6478 100.693C98.7869 101.389 98.6478 103.031 96.9778 104.033" stroke="black" stroke-width="2" stroke-linecap="round"/>
<path d="M62.3259 98.1866C67.3358 95.96 78.1907 92.4252 81.5306 96.0991" stroke="black" stroke-width="2" stroke-linecap="round"/>
<path d="M66.2922 100.692C66.9185 100.275 75.4771 98.605 83.6182 95.4738C85.3577 94.9171 89.0456 94.6805 89.8806 98.1875" stroke="black" stroke-width="2" stroke-linecap="round"/>
<path d="M43.7476 106.955C52.5845 108.973 69.7156 111.213 67.5447 104.032C65.4876 97.2284 55.8966 96.509 50.6338 97.0442C50.0984 97.0986 49.5584 96.95 49.1198 96.6381C35.153 86.7045 16.2808 99.3689 8.88693 107.79C6.10364 111.13 4.712 113.008 1.78955 117.601" stroke="black" stroke-width="2" stroke-linecap="round"/>
<path d="M42.0776 36.6434V36.6434C41.8086 36.6422 41.6907 36.9781 41.9079 37.1368C47.4322 41.1745 59.4532 47.8707 69.3359 46.2919C69.5298 46.261 69.7283 46.2837 69.9085 46.3618L78.9482 50.2834" stroke="black" stroke-width="2" stroke-linecap="round"/>
<path d="M33.519 21.6104C32.4057 21.9583 30.2208 23.5308 30.3878 27.0378C30.6547 31.4865 34.0341 34.2994 35.6904 35.4628C37.7779 36.7153 39.4729 36.6113 41.2426 36.6401V36.6401C41.3066 36.6411 42.8998 36.4921 42.9608 36.4725C44.1057 36.1044 45.392 35.0981 45.0001 32.8805" stroke="black" stroke-width="2" stroke-linecap="round"/>
<path d="M37.2764 15.1387C35.676 15.6953 32.6839 17.7689 33.5189 21.6098C34.3539 25.4507 34.9945 26.5558 35.2728 27.1124C36.2384 29.2045 37.7985 30.4307 38.5332 30.8284C38.586 30.857 38.6361 30.8879 38.6851 30.9225C39.6878 31.6317 42.1637 32.5878 45 32.88C45.7886 32.9612 48.3871 33.0315 48.9662 33.0909C51.2623 33.0909 52.7236 32.2058 51.8886 28.6098" stroke="black" stroke-width="2" stroke-linecap="round"/>
<path d="M41.1151 7.83203C39.5726 7.83203 36.2327 9.502 37.2764 15.1382C38.1114 19.6471 39.0303 21.6845 40.2827 23.1457C41.5352 24.607 43.2052 26.2769 45.7101 27.0367L51.7999 28.5867C51.8589 28.6017 51.9192 28.6113 51.98 28.6154L53.128 28.6919C53.2741 28.7016 53.4207 28.6812 53.5538 28.62C54.8159 28.0395 56.6526 26.3866 55.2285 23.6968" stroke="black" stroke-width="2" stroke-linecap="round"/>
<path d="M92.0993 25.8596L85.1534 22.475C84.8472 22.3258 84.6406 22.0329 84.588 21.6964C83.8197 16.7802 79.9297 7.37098 69.6324 5.11844C58.9446 2.78048 51.2627 1.50017 48.7577 1.15226C46.044 0.665184 40.7001 1.06876 41.0341 6.57967C41.0602 7.01055 41.0874 7.42807 41.1153 7.83216C41.4447 12.5963 42.5792 14.1698 44.0404 16.3908C46.3804 19.8375 48.7972 21.3266 49.8853 21.8934C51.8888 22.9371 57.3162 25.3669 57.7338 20.1482V18.0435" stroke="black" stroke-width="2" stroke-linecap="round"/>
<path d="M69.6322 5.11768C66.7098 5.32642 57.1491 6.8294 52.3062 7.8314C47.4633 8.8334 48.6183 13.1196 49.8012 15.1375C51.99 18.2383 59.8102 18.0453 62.5385 16.9259C63.0491 16.7164 63.7259 16.6667 64.1699 16.9946C69.0418 20.592 70.6984 20.1474 77.4396 20.1474" stroke="black" stroke-width="2" stroke-linecap="round"/>
<path d="M55.3126 27.1123L55.2286 53.1304" stroke="black" stroke-width="2" stroke-linecap="round"/>
<rect x="50.8013" y="54.3389" width="8.85481" height="4.67989" rx="2.33994" stroke="black" stroke-width="2"/>
<path d="M55.2285 59.6011L55.2285 74.6308" stroke="black" stroke-width="2" stroke-linecap="round"/>
<path d="M102.543 63.4526L78.7451 50.0928C75.6835 44.5958 73.4431 32.5165 87.3039 27.3395C100.031 22.5858 112.139 28.5741 117.984 31.9142" stroke="black" stroke-width="2" stroke-linecap="round"/>
<path d="M49.5924 67.3809H53.2286C54.3332 67.3809 55.2286 68.2763 55.2286 69.3809V71.6433C55.2286 72.7478 54.3332 73.6433 53.2286 73.6433H51.3668C50.7327 73.6433 50.2187 73.1292 50.2187 72.4951V72.182C50.2187 71.7209 50.5925 71.347 51.0537 71.347H51.158C51.5615 71.347 51.8887 71.0199 51.8887 70.6164C51.8887 70.2129 51.5615 69.8858 51.158 69.8858H49.5924C48.9007 69.8858 48.34 69.3251 48.34 68.6333C48.34 67.9416 48.9007 67.3809 49.5924 67.3809Z" fill="black"/>
</svg>
