<svg width="214" height="202" viewBox="0 0 214 202" fill="none" xmlns="http://www.w3.org/2000/svg">
<path d="M101.029 183.73C103.875 184.392 111.947 184.842 113.535 179.76" stroke="black" stroke-width="2" stroke-linecap="round"/>
<path d="M105.198 172.613C109.962 177.179 117.506 184.524 121.476 178.569L123.858 174.598" stroke="black" stroke-width="2" stroke-linecap="round"/>
<path d="M105.198 160.305C110.624 165.466 127.272 177.853 134.577 173.406C135.901 172.546 138.587 169.793 138.746 165.664" stroke="black" stroke-width="2" stroke-linecap="round"/>
<path d="M118.3 153.357C124.983 158.585 139.739 167.928 145.297 163.481C150.855 159.035 145.098 152.894 141.525 150.38L117.506 130.926" stroke="black" stroke-width="2" stroke-linecap="round"/>
<path d="M49.2186 134.5C52.1963 136.064 55.4815 140.121 56.5634 143.83C57.953 148.594 61.857 152.697 63.5113 153.954" stroke="black" stroke-width="2" stroke-linecap="round"/>
<path d="M108.771 107.899C104.801 106.311 93.6847 103.095 84.9503 104.525C76.216 105.954 77.0101 103.135 72.8413 100.753L49.2189 86.2617" stroke="black" stroke-width="2" stroke-linecap="round"/>
<path d="M140.533 106.708L149.267 102.143M148.275 158.122C151.927 157.169 158.001 151.77 160.582 149.189L170.706 143.829" stroke="black" stroke-width="2" stroke-linecap="round"/>
<path d="M141.327 127.948C135.504 131.455 120.92 135.769 109.168 126.559" stroke="black" stroke-width="2" stroke-linecap="round"/>
<path d="M109.168 126.56C104.801 132.713 94.558 144.465 88.5233 142.242C82.4887 140.018 85.2149 133.507 87.3323 130.53C93.4861 118.222 112.741 96.2276 140.533 106.709" stroke="black" stroke-width="2" stroke-linecap="round"/>
<path d="M101.426 176.583C101.268 182.459 99.3751 184.987 98.4487 185.516C93.9326 188.097 88.9203 184.127 90.3191 180.9C91.2793 179.112 92.5658 175.425 93.089 173.804C94.3069 170.033 101.585 170.707 101.426 176.583Z" stroke="black" stroke-width="2" stroke-linecap="round"/>
<path d="M84.9502 182.142C78.2803 183.572 78.2009 176.783 81.1785 173.408C82.1327 172.327 84.5135 170.104 87.5308 167.651C90.5481 165.198 92.4935 167.291 93.089 168.644C93.8754 170.43 91.6201 180.713 84.9502 182.142Z" stroke="black" stroke-width="2" stroke-linecap="round"/>
<path d="M73.8338 174.202C66.5287 174.043 66.886 167.651 69.8636 164.872C72.1795 162.424 78.0818 157.884 83.1636 159.314C88.2454 160.743 87.1338 165.467 85.9428 167.849C84.9502 170.033 81.1389 174.36 73.8338 174.202Z" stroke="black" stroke-width="2" stroke-linecap="round"/>
<path d="M76.2158 152.167C68.4343 150.261 61.8571 154.946 59.5412 157.527C57.9531 159.591 58.0854 161.96 58.3501 162.886C60.2558 167.651 69.0695 164.21 73.2382 161.894C77.473 159.446 83.9973 154.073 76.2158 152.167Z" stroke="black" stroke-width="2" stroke-linecap="round"/>
<path d="M86.9354 80.7031C88.1265 83.3499 90.1513 89.8742 88.722 94.7972" stroke="black" stroke-width="2" stroke-linecap="round"/>
<path d="M94.2802 85.668C94.611 87.1237 95.2727 90.6307 95.2727 93.0128" stroke="black" stroke-width="2" stroke-linecap="round"/>
<path d="M119.094 71.5723L123.659 87.6514" stroke="black" stroke-width="2" stroke-linecap="round"/>
<path d="M131.997 78.7188L130.607 88.2471" stroke="black" stroke-width="2" stroke-linecap="round"/>
<path d="M144.304 85.668L137.356 91.0277" stroke="black" stroke-width="2" stroke-linecap="round"/>
<circle cx="6.93647" cy="103.136" r="6.15375" fill="black"/>
<path d="M17.0502 103.661C27.4605 102.589 43.7953 103.857 45.726 111.909C47.6566 119.962 40.2842 122.907 36.3567 123.373C21.4037 125.75 1.57666 124.632 1.57666 111.909" stroke="black" stroke-width="2" stroke-linecap="round"/>
<circle cx="13.2888" cy="114.648" r="1.18359" stroke="black" stroke-width="2"/>
<path d="M24.7947 114.648C24.7947 115.222 24.2596 115.832 23.4126 115.832C22.5656 115.832 22.0305 115.222 22.0305 114.648C22.0305 114.075 22.5656 113.465 23.4126 113.465C24.2596 113.465 24.7947 114.075 24.7947 114.648Z" stroke="black" stroke-width="2"/>
<circle cx="33.5366" cy="114.648" r="1.18359" stroke="black" stroke-width="2"/>
<circle cx="179.639" cy="177.378" r="5.75673" fill="black"/>
<path d="M188.999 173.209C192.49 173.209 202.466 173.209 207.158 173.209C210.959 173.209 212.789 174.05 212.789 179.935C212.789 185.654 212.742 193.061 212.789 196.05C212.822 198.152 211.775 200.478 208.284 200.814C204.793 201.151 190.781 200.955 184.212 200.814C181.772 200.814 177.455 199.431 177.455 193.808L177.455 187.502" stroke="black" stroke-width="2" stroke-linecap="round"/>
<path d="M186.586 183.135L195.321 189.09" stroke="black" stroke-width="2" stroke-linecap="round"/>
<path d="M195.321 189.09L211.201 174.4" stroke="black" stroke-width="2" stroke-linecap="round"/>
<path d="M183.41 194.25L189.813 185.516M199.346 185.516L208.025 194.25" stroke="black" stroke-width="2" stroke-linecap="round"/>
<path d="M182.519 80.3242L161.874 96.0064C135.671 116.056 161.278 138.553 170.807 143.648L201.179 124.195" stroke="black" stroke-width="2" stroke-linecap="round"/>
<path d="M94.6371 29.5847C97.6147 29.1877 104.007 26.9247 105.754 21.0488" stroke="black" stroke-width="2" stroke-linecap="round"/>
<path d="M84.91 24.8207C86.8951 24.8868 91.4608 23.9075 93.8429 19.4609" stroke="black" stroke-width="2" stroke-linecap="round"/>
<path d="M75.9772 17.6739C79.1533 17.0143 86.0614 14.9599 88.2847 12.0195" stroke="black" stroke-width="2" stroke-linecap="round"/>
<path d="M104.454 39.6224C85.3179 43.704 67.4625 25.5292 59.6019 14.1397C58.8663 13.0739 59.3852 11.6238 60.613 11.212L89.8527 1.40614C90.5912 1.15848 91.402 1.36538 91.9595 1.90938C101.522 11.2405 117.921 15.8801 128.423 17.6217C130.237 17.9226 130.882 20.3397 129.402 21.4314L105.197 39.2851C104.976 39.4478 104.722 39.5652 104.454 39.6224Z" stroke="black" stroke-width="2" stroke-linecap="round"/>
</svg>
