<svg width="310" height="301" viewBox="0 0 310 301" fill="none" xmlns="http://www.w3.org/2000/svg">
<path d="M0.682621 292.981C-2.55638 290.109 11.8351 290.321 18.9382 290.188C19.961 291.625 20.7139 291.651 22.5607 291.984C23.4131 294.177 3.92162 295.853 0.682621 292.981Z" fill="black"/>
<path d="M111.428 75.8784C110.769 78.2622 110.278 86.0079 112.865 92.3638" stroke="black" stroke-width="2" stroke-linecap="round"/>
<path d="M109.333 93.9219C115.471 91.7222 127.16 89.0304 127.16 96.6396V97.9602C127.16 98.8517 128.179 99.3568 128.883 98.8107C138.738 91.1757 158.789 75.8788 165.854 64.2998" stroke="black" stroke-width="2" stroke-linecap="round"/>
<path d="M136.536 35.0576C142.566 39.8052 151.925 50.0529 142.828 54.2217C142.295 54.4659 142 55.057 142.152 55.6207C143.942 62.2486 143.659 75.9347 129.774 85.2029C129.568 85.3406 129.409 85.5455 129.333 85.7811L126.603 94.3265" stroke="black" stroke-width="2" stroke-linecap="round"/>
<path d="M130.567 69.9907C130.353 70.9327 130.909 72.8796 134.845 73.1308" stroke="black" stroke-width="2" stroke-linecap="round"/>
<path d="M141.126 45.2629C141.126 47.327 140.502 49.1422 139.558 50.4102C138.614 51.6775 137.419 52.3281 136.219 52.3281C135.019 52.3281 133.825 51.6775 132.881 50.4102C131.937 49.1422 131.313 47.327 131.313 45.2629C131.313 43.1988 131.937 41.3836 132.881 40.1157C133.825 38.8483 135.019 38.1978 136.219 38.1978C137.419 38.1978 138.614 38.8483 139.558 40.1157C140.502 41.3836 141.126 43.1988 141.126 45.2629Z" stroke="black" stroke-width="2" stroke-linecap="round"/>
<path d="M118.36 51.5432L130.528 47.2256" stroke="black" stroke-width="2" stroke-linecap="round"/>
<path d="M127.78 43.3002C128.09 41.9921 129.231 38.9825 131.313 37.4126" stroke="black" stroke-width="2" stroke-linecap="round"/>
<path d="M136.808 46.4405C137.675 46.4405 138.378 45.9133 138.378 45.263C138.378 44.6126 137.675 44.0854 136.808 44.0854C135.941 44.0854 135.238 44.6126 135.238 45.263C135.238 45.9133 135.941 46.4405 136.808 46.4405Z" fill="black"/>
<path d="M131.469 175.183C130.746 167.467 130.168 150.44 133.638 144.06C137.108 137.68 140.441 128.554 142.786 124.861C150.672 120.309 169.465 102.844 181.554 69.4023" stroke="black" stroke-width="2" stroke-linecap="round"/>
<path d="M109.332 93.5415L64.1938 146.53" stroke="black" stroke-width="2" stroke-linecap="round"/>
<path d="M64.1938 146.693C67.5404 146.241 76.2399 146.46 84.2706 150.957C94.3093 156.577 104.938 166.462 131.313 175.183" stroke="black" stroke-width="2" stroke-linecap="round"/>
<path d="M131.313 175.183L122.285 181.463" stroke="black" stroke-width="2" stroke-linecap="round"/>
<path d="M64.199 146.53C63.5875 148.426 62.9805 152.846 68.1189 158.306" stroke="black" stroke-width="2" stroke-linecap="round"/>
<path d="M97.1648 108.064C89.8603 114.149 71.3383 126.985 55.6856 129.655C52.0336 131.159 45.7465 135.385 49.8162 140.253C53.8858 145.121 56.599 151.048 57.447 153.403C58.0992 155.563 59.7226 158.573 63.6358 151.664" stroke="black" stroke-width="2" stroke-linecap="round"/>
<path d="M51.2412 142.212C48.2088 144.001 41.1373 147.417 37.1113 146.781C33.0852 146.146 30.4011 147.841 29.5623 148.768C29.1106 149.497 28.8268 150.993 31.3044 151.152C33.7819 151.311 36.7241 151.218 37.8855 151.152" stroke="black" stroke-width="2" stroke-linecap="round"/>
<path d="M41.0358 148.493C39.6776 150.014 35.0598 153.473 27.454 155.134C25.9665 155.41 23.9615 157.001 26.6779 158.869C29.0062 160.322 35.4478 158.994 38.7075 157.001" stroke="black" stroke-width="2" stroke-linecap="round"/>
<path d="M38.6721 156.735C36.1775 157.991 31.6872 161.335 33.6829 164.665C34.3225 165.326 37.0217 165.378 42.7017 160.303L46.9234 156.735" stroke="black" stroke-width="2" stroke-linecap="round"/>
<path d="M47.1345 156.811L42.8242 160.412C41.5834 163.679 39.6895 171.614 44.7835 167.213C48.506 163.412 47.7223 160.172 49.2897 159.211C50.857 158.251 54.3837 154.545 55.9511 152.811" stroke="black" stroke-width="2" stroke-linecap="round"/>
<path d="M47.3195 150.455C46.7973 152.071 46.3795 155.825 48.8859 157.913" stroke="black" stroke-width="2" stroke-linecap="round"/>
<path d="M94.8096 282.731C97.2786 282.076 102.256 278.766 102.411 270.759C102.568 262.752 105.855 248.975 107.479 243.087L123.463 172.436" stroke="black" stroke-width="2" stroke-linecap="round"/>
<path d="M129.565 59.4307C130.118 59.4307 130.565 58.9829 130.565 58.4307C130.565 57.8784 130.118 57.4307 129.565 57.4307C129.013 57.4307 128.565 57.8784 128.565 58.4307C128.565 58.9829 129.013 59.4307 129.565 59.4307Z" fill="black"/>
<path d="M132.313 62.1782C132.865 62.1782 133.313 61.7305 133.313 61.1782C133.313 60.6259 132.865 60.1782 132.313 60.1782C131.761 60.1782 131.313 60.6259 131.313 61.1782C131.313 61.7305 131.761 62.1782 132.313 62.1782Z" fill="black"/>
<path d="M126.818 62.9634C127.37 62.9634 127.818 62.5157 127.818 61.9634C127.818 61.4111 127.37 60.9634 126.818 60.9634C126.266 60.9634 125.818 61.4111 125.818 61.9634C125.818 62.5157 126.266 62.9634 126.818 62.9634Z" fill="black"/>
<path d="M68.215 52.9833C77.754 35.2533 91.9972 33.0241 97.9269 34.1255C110.241 15.2676 127.248 9.04655 137.608 14.6845C145.896 19.1947 139.106 30.5613 134.676 35.681L130.375 29.46C127.404 35.2145 118.908 33.0888 114.737 31.7927C118.321 39.3099 124.042 58.7384 112.001 76.3131C99.9599 93.8878 84.8301 94.1985 77.2063 89.1441C70.1695 84.1544 58.676 70.7139 68.215 52.9833Z" fill="black"/>
<path d="M63.4087 285.086C64.7098 287.123 69.0432 290.966 75.969 290.05" stroke="black" stroke-width="2" stroke-linecap="round"/>
<path d="M74.3172 147.708C71.8613 154.733 60.355 169.173 50.0772 187.322C43.2254 198.705 26.8842 224.126 16.3349 234.742C14.9129 236.758 13.5812 241.337 19.6316 243.523C24.2857 245.474 26.3801 250.002 27.0006 254.841C27.7763 260.891 37.6663 265.379 44.2596 260.891C49.5148 257.313 64.6258 231.545 76.0418 216.984C78.9485 213.276 81.6155 210.295 83.8194 208.593" stroke="black" stroke-width="2" stroke-linecap="round"/>
<path d="M76.3238 217.182L63.4087 285.086C69.9732 283.334 88.006 280.027 99.127 280.027" stroke="black" stroke-width="2" stroke-linecap="round"/>
<path d="M12.0423 279.474C1.34379 258.736 11.2612 244.935 16.6249 241.518C24.9397 244.133 25.1644 252.851 26.5127 256.992L23.4008 265.513C21.3184 269.178 22.5331 276.348 23.4008 279.474C26.9976 293.959 21.5689 295.351 18.9047 291.472L12.0423 279.474Z" fill="black"/>
<path d="M69.0847 298.491C65.4809 295.637 72.6084 294.53 79.8408 294.113C82.3604 296.366 99.0958 297.135 99.9124 297.657C92.2131 300.159 72.2428 300.991 69.0847 298.491Z" fill="black"/>
<path d="M105.282 297.268C77.9587 301.015 72.288 290.207 72.868 283.89C77.5672 281.927 90.4888 281.214 96.5803 280.768C94.8398 284.871 97.0152 284.336 98.5381 285.451C100.496 286.788 105.935 288.424 108.98 288.572C122.686 289.241 111.954 296.302 105.282 297.268Z" fill="black"/>
<path d="M169.646 29.7494C170.898 29.0298 173.48 28.7681 173.794 33.4782" stroke="black" stroke-width="2" stroke-linecap="round"/>
<path d="M167.121 42.3095C167.252 40.4781 167.121 36.3042 165.551 34.2632C163.589 31.7118 163.196 26.8055 167.121 27.198C168.367 27.3226 169.16 28.3578 169.647 29.7493C170.387 31.8645 170.419 34.8031 170.261 36.6182" stroke="black" stroke-width="2" stroke-linecap="round"/>
<path d="M164.654 47.4124C164.495 45.6461 163.824 41.564 162.411 39.366C160.645 36.6185 160.448 29.5533 164.177 30.3383" stroke="black" stroke-width="2" stroke-linecap="round"/>
<path d="M167.121 60.7575C166.14 60.7575 164.06 59.8155 163.589 56.0474C163.118 52.2793 161.43 49.8984 160.645 49.1785C160.187 48.0665 159.703 45.7637 161.43 45.4497C162.447 45.2648 163.649 46.2504 164.654 47.4122L166.336 49.7673" stroke="black" stroke-width="2" stroke-linecap="round"/>
<path d="M176.149 43.2909C176.607 42.4407 177.051 40.2686 175.167 38.3846C172.812 36.0296 173.401 33.8708 174.775 33.282C176.149 32.6932 178.111 33.0858 180.074 38.9734C182.036 44.0759 184.941 57.0287 181.644 68.019" stroke="black" stroke-width="2" stroke-linecap="round"/>
<path d="M185.114 12.5824L188.194 6.98389" stroke="black" stroke-width="2" stroke-linecap="round"/>
<path d="M158.486 15.2266L163.981 18.7591" stroke="black" stroke-width="2" stroke-linecap="round"/>
<path d="M168.457 1L173.832 13.3605" stroke="black" stroke-width="2" stroke-linecap="round"/>
<path d="M187.485 29.5615C187.485 25.4407 188.443 18.5619 193.428 24.7917C196.495 29.2694 197.645 38.1859 195.345 42.7023" stroke="black" stroke-width="2" stroke-linecap="round"/>
<path d="M177.324 33.3574C176.685 31.0862 176.366 26.8551 180.2 28.101L184.417 36.667" stroke="black" stroke-width="2" stroke-linecap="round"/>
<path d="M184.417 36.6671L180.2 28.1011C179.88 25.5702 181.542 21.4819 185.568 24.7915L187.485 29.5612L189.402 34.3309" stroke="black" stroke-width="2" stroke-linecap="round"/>
<path d="M189.494 48.7861C188.447 51.076 187.335 56.2831 191.26 58.7951" stroke="black" stroke-width="2" stroke-linecap="round"/>
<path d="M194.4 45.4497C195.316 42.8333 198.09 37.639 201.858 37.796C205.626 37.953 202.643 42.8984 201.858 44.6647L196.363 55.4587C195.185 58.4025 193.419 63.7014 197.54 69.7853C201.662 75.2804 215.874 89.4107 231.182 91.7658" stroke="black" stroke-width="2" stroke-linecap="round"/>
<path d="M228.352 173.8C229.53 177.987 233.847 187.695 241.698 193.033M216.185 166.931L231.689 171.445L216.185 166.931ZM230.904 179.295C232.604 173.735 234.789 159.945 229.922 149.268C223.838 135.923 220.11 118.849 223.053 107.466C225.409 98.36 233.978 96.9991 237.969 97.4572C244.249 98.1778 255.082 105.7 254.454 126.11C253.669 151.623 247.782 173.408 239.343 190.286L230.904 179.295Z" stroke="black" stroke-width="2" stroke-linecap="round"/>
<path d="M224.624 188.519C224.624 178.51 224.558 171.445 223.446 168.697C238.519 174.349 256.81 172.884 264.071 171.445C264.267 171.903 265.877 176.273 270.744 190.089C276.828 207.359 272.51 265.058 270.744 271.535C268.977 278.011 264.267 278.207 257.398 277.422C251.903 276.794 244.642 261.722 241.698 254.264C227.96 228.555 224.624 200.263 224.624 188.519Z" fill="black"/>
<path d="M277.914 136.329C279.861 141.105 284.264 153.246 286.306 163.608C280.679 167.599 264.856 175.174 246.015 172.819L216.185 166.931C215.007 157.053 214.869 131.894 222.719 109.442C222.719 107.414 224.781 101.735 229.334 99.2231" stroke="black" stroke-width="2" stroke-linecap="round"/>
<path d="M276.239 153.39C276.155 152.13 278.48 142.962 277.914 136.329C277.599 132.631 277.195 128.016 276.689 122.395C275.276 106.695 269.689 94.6581 267.073 90.6019C264.456 86.5461 258.265 84.1118 253.358 85.8781" stroke="black" stroke-width="2" stroke-linecap="round"/>
<path d="M272.471 258.565C274.163 221.755 266.66 186.976 262.5 173.408C272.99 171.992 281.253 167.458 284.285 165.95C287.33 177.434 291.787 206.916 293.62 220.418C298.188 235.205 297.215 256.467 296.158 265.25C296.834 270.599 292.492 272.722 290.236 273.116C278.224 277.048 273.387 265.054 272.471 258.565Z" fill="black"/>
<path d="M176.934 32.6934C180.27 38.0577 185.216 51.0627 181.447 69.5891C181.774 73.5797 187.598 86.7755 192.045 92.7471C198.914 101.971 213.241 112.373 222.072 115.316" stroke="black" stroke-width="2" stroke-linecap="round"/>
<path d="M237.825 88.7099C235.228 87.112 215.698 88.6522 211.901 64.0847C205.4 64.1608 201.865 58.8357 206.825 56.5567C212.113 53.83 211.716 48.8239 210.758 45.8742C209.235 42.0061 209.143 37.9447 209.471 37.0952" stroke="black" stroke-width="2" stroke-linecap="round"/>
<path d="M217.294 55.254C216.365 55.2649 215.599 54.1444 215.583 52.7513C215.567 51.3582 216.306 50.22 217.235 50.2092C218.164 50.1983 218.93 51.3188 218.946 52.7119C218.962 54.105 218.223 55.2431 217.294 55.254Z" fill="black"/>
<path d="M221.258 47.1038C220.173 45.9447 217.368 44.2487 214.827 46.7399" stroke="black" stroke-width="2" stroke-linecap="round"/>
<path d="M228.625 69.6797C226.632 72.7471 224.443 73.6181 220.192 71.6387" stroke="black" stroke-width="2" stroke-linecap="round"/>
<path d="M244.944 48.1792C245.406 49.1934 245.793 51.4959 243.646 52.5918" stroke="black" stroke-width="2" stroke-linecap="round"/>
<path d="M267.825 37.764C270.354 51.602 262.44 62.0188 256.703 70.0268C250.575 66.7164 240.533 58.8442 244.384 57.9944C248.433 57.1015 252.703 46.059 248.771 42.6811C244.158 38.7177 240.001 44.7143 239.209 49.2611L235.493 42.8365C236.544 38.3428 236.956 30.4603 230.2 34.8793C223.443 39.2981 213.533 38.1407 209.422 37.0095C201.317 31.208 188.724 17.6757 203.195 9.95861C215.232 3.54014 230.894 11.6548 240.454 18.9463C246.928 17.2374 264.376 18.8964 267.825 37.764Z" fill="black"/>
<path d="M256.253 69.1001C253.327 72.6225 251.873 75.5475 252.054 81.6066" stroke="black" stroke-width="2" stroke-linecap="round"/>
<path d="M274.421 300.872C250.086 301.854 238.507 296.971 238.507 293.611C238.507 292.237 237.722 290.863 243.217 288.901C240.862 292.106 241.725 298.203 264.02 296.947C267.617 297.143 275.716 296.201 279.327 290.863H281.094C298.757 286.349 309.158 290.055 309.158 293.415C309.158 296.775 294.635 300.057 274.421 300.872Z" fill="black"/>
<path d="M278.982 290.777C292.126 292.033 293.784 281.488 292.97 276.058" stroke="black" stroke-width="2" stroke-linecap="round"/>
<path d="M261.57 281.161C261.57 282.011 261.373 283.869 260.588 284.497C259.607 285.282 241.944 283.319 242.337 292.151C242.14 293.394 244.103 295.291 248.813 295.88C255.438 296.708 274.428 299.125 278.982 290.777C279.247 290.291 279.463 289.768 279.625 289.207L281.391 281.749" stroke="black" stroke-width="2" stroke-linecap="round"/>
</svg>
