<svg width="241" height="151" viewBox="0 0 241 151" fill="none" xmlns="http://www.w3.org/2000/svg">
<path d="M154.935 41.0166H138.009L137.21 48.549H155.414L154.935 41.0166Z" fill="black"/>
<path d="M156.421 55.1392H136.577L135.641 63.2992H156.983L156.421 55.1392Z" fill="black"/>
<path d="M157.594 70.2036H134.832L133.758 78.9914H158.238L157.594 70.2036Z" fill="black"/>
<path d="M158.897 86.2095H132.493L131.247 95.3111H154.585L159.493 92.8003L158.897 86.2095Z" fill="black"/>
<path d="M129.678 108.65L138.779 34.7383M154.786 34.7383L159.493 92.0156" stroke="black" stroke-width="2" stroke-linecap="round"/>
<path d="M135.798 34.7383H158.552" stroke="black" stroke-width="2" stroke-linecap="round"/>
<path d="M135.798 20.6157H158.552" stroke="black" stroke-width="2" stroke-linecap="round"/>
<path d="M139.093 24.0684V30.0315" stroke="black" stroke-width="2" stroke-linecap="round"/>
<path d="M154.472 24.0684V30.0315" stroke="black" stroke-width="2" stroke-linecap="round"/>
<circle cx="147.253" cy="26.893" r="2.82464" fill="black"/>
<rect x="144.429" y="15.2793" width="5.64927" height="2.82464" rx="1.41232" fill="black"/>
<path d="M121.989 19.5171L61.1021 1" stroke="black" stroke-width="2" stroke-linecap="round"/>
<path d="M119.321 28.1475L7.12012 23.5967" stroke="black" stroke-width="2" stroke-linecap="round"/>
<path d="M117.752 34.2681L1 70.0468" stroke="black" stroke-width="2" stroke-linecap="round"/>
<path d="M123.872 43.5273L31.4434 109.436" stroke="black" stroke-width="2" stroke-linecap="round"/>
<path d="M63.1421 134.765C68.9711 132.985 112.443 120.912 127.972 110.246" stroke="black" stroke-width="2" stroke-linecap="round"/>
<path d="M104.405 133.15C112.054 120.882 121.497 112.689 140.406 102.891C164.042 90.6424 169.442 88.4924 179.552 73.3849" stroke="black" stroke-width="2" stroke-linecap="round"/>
<path d="M179.552 73.3838C181.68 77.5868 187.09 88.3312 191.038 94.0801M186.784 91.9067C190.784 93.4537 199.241 98.5424 201.059 106.521C202.878 114.5 210.239 120.227 213.211 123.638" stroke="black" stroke-width="2" stroke-linecap="round"/>
<path d="M187.842 105.878C190.687 110.27 196.014 115.873 212.798 122.852" stroke="black" stroke-width="2" stroke-linecap="round"/>
<path d="M234.842 148.124C229.887 142.066 218.38 128.415 211.993 122.272" stroke="black" stroke-width="2" stroke-linecap="round"/>
<path d="M179.552 73.3838C178.101 79.25 175.555 92.4468 179.186 99.8954" stroke="black" stroke-width="2" stroke-linecap="round"/>
<path d="M176.981 94.2782C173.795 95.9737 169.733 102.189 179.296 115.379" stroke="black" stroke-width="2" stroke-linecap="round"/>
<path d="M169.619 117.954C172.191 118.221 177.708 118.14 179.203 115.679" stroke="black" stroke-width="2" stroke-linecap="round"/>
<path d="M173.089 142.702L169.619 117.954" stroke="black" stroke-width="2" stroke-linecap="round"/>
</svg>
