<svg width="204" height="151" viewBox="0 0 204 151" fill="none" xmlns="http://www.w3.org/2000/svg">
<path fill-rule="evenodd" clip-rule="evenodd" d="M42.4186 85.6357C34.1312 90.3502 21.1719 105.221 24.0312 134.768C24.245 138.724 25.3142 148.561 41.0327 149.203H67.0163C74.7151 149.203 83.3763 146.957 84.0179 134.768C85.5592 119.354 81.3536 94.6982 65.7642 85.7374C64.5069 85.0147 63.0573 84.7251 61.6071 84.7251H46.2849C44.936 84.7251 43.591 84.9687 42.4186 85.6357ZM50.3671 106.299V106.217C50.3671 104.284 51.9341 102.717 53.8671 102.717C55.7716 102.717 57.3208 104.238 57.3661 106.132C58.657 106.45 59.8323 106.902 60.7565 107.367C62.4836 108.235 63.18 110.339 62.3119 112.066C61.4438 113.793 59.34 114.489 57.6129 113.621C56.6357 113.13 55.1325 112.685 53.888 112.688C53.8832 112.688 53.8783 112.688 53.8734 112.688C53.143 112.692 52.8107 112.848 52.7104 112.917C52.6744 112.942 52.6456 112.968 52.6107 113.026C52.5716 113.091 52.4868 113.261 52.4312 113.611C52.4042 113.78 52.43 113.797 52.4343 113.8L52.4349 113.801C52.479 113.878 52.6413 114.099 53.1152 114.43C53.5852 114.759 54.1935 115.083 54.9588 115.444C55.1804 115.549 55.4569 115.675 55.7532 115.811L55.7534 115.811C56.2908 116.056 56.8936 116.332 57.3532 116.563C60.073 117.93 61.9292 120.193 62.2953 122.932C62.6556 125.628 61.4696 128.178 59.3775 129.756C58.7328 130.242 58.0572 130.634 57.3671 130.944V131.239C57.3671 133.172 55.8001 134.739 53.8671 134.739C52.0876 134.739 50.6182 133.411 50.3961 131.692C49.3661 131.499 48.3929 131.185 47.5197 130.786C45.7617 129.982 44.9879 127.906 45.7915 126.148C46.595 124.39 48.6717 123.616 50.4297 124.419C51.2705 124.804 52.3689 125.006 53.3944 124.866C54.0689 124.774 54.6642 124.543 55.163 124.167C55.3762 124.006 55.3602 123.883 55.357 123.859C55.3532 123.831 55.3341 123.725 55.2001 123.554C55.0621 123.379 54.7734 123.101 54.2093 122.817C53.8286 122.626 53.4832 122.469 53.0721 122.282L53.0716 122.282L53.0713 122.282C52.7567 122.139 52.4037 121.979 51.9669 121.773C51.1004 121.363 50.0652 120.839 49.1032 120.166C48.1451 119.496 47.0868 118.561 46.3449 117.252C45.5599 115.867 45.2405 114.255 45.5182 112.51C45.8832 110.217 46.9889 108.355 48.7474 107.147C49.2701 106.788 49.8156 106.51 50.3671 106.299Z" fill="black"/>
<rect x="41.7119" y="77.064" width="23.6628" height="6.34042" rx="3.17021" stroke="black" stroke-width="2"/>
<rect x="82.2812" y="33.7202" width="38.4942" height="7.69885" rx="3.84942" fill="black"/>
<path d="M44.2404 73.8182L37.1831 60.9868" stroke="black" stroke-width="2" stroke-linecap="round"/>
<path d="M63.4878 73.8182L70.2243 60.666" stroke="black" stroke-width="2" stroke-linecap="round"/>
<path d="M36.8623 60.6655C39.0009 61.0932 43.7271 61.2429 45.5235 58.42C47.3199 55.5971 49.6937 56.3883 50.6561 57.1368L53.5431 59.7031" stroke="black" stroke-width="2" stroke-linecap="round"/>
<path d="M70.2241 60.4077C68.0856 60.8354 63.3593 60.9851 61.5629 58.1622C59.7665 55.3393 57.3927 56.1305 56.4304 56.879L53.5433 59.7034" stroke="black" stroke-width="2" stroke-linecap="round"/>
<path d="M84.6596 31.7958L72.7905 9.02002" stroke="black" stroke-width="2" stroke-linecap="round"/>
<path d="M118.984 31.7958L130.532 8.69922" stroke="black" stroke-width="2" stroke-linecap="round"/>
<path d="M72.7905 8.93166C76.4919 9.66829 84.6719 9.92611 87.7811 5.06434C90.8902 0.202566 94.9987 1.56534 96.6644 2.85444L101.661 7.27425" stroke="black" stroke-width="2" stroke-linecap="round"/>
<path d="M130.532 8.29006C126.831 9.02669 118.651 9.28451 115.542 4.42274C112.433 -0.439036 108.324 0.923735 106.658 2.21284L101.662 7.07722" stroke="black" stroke-width="2" stroke-linecap="round"/>
<rect x="1.51599" y="144.893" width="31.5506" height="8.77863" rx="4.38931" transform="rotate(-61.5197 1.51599 144.893)" stroke="black" stroke-width="2"/>
<rect x="132.815" y="119.407" width="31.5506" height="8.77863" rx="4.38931" stroke="black" stroke-width="2"/>
<rect x="137.306" y="130.314" width="31.5506" height="8.77863" rx="4.38931" stroke="black" stroke-width="2"/>
<rect x="132.815" y="141.221" width="31.5506" height="8.77863" rx="4.38931" stroke="black" stroke-width="2"/>
<rect x="165.536" y="141.221" width="31.5506" height="8.77863" rx="4.38931" stroke="black" stroke-width="2"/>
<rect x="170.668" y="131.597" width="31.5506" height="8.77863" rx="4.38931" stroke="black" stroke-width="2"/>
<rect x="166.177" y="121.332" width="31.5506" height="8.77863" rx="4.38931" stroke="black" stroke-width="2"/>
<rect x="160.403" y="110.426" width="31.5506" height="8.77863" rx="4.38931" stroke="black" stroke-width="2"/>
<rect x="163.611" y="99.5186" width="31.5506" height="8.77863" rx="4.38931" stroke="black" stroke-width="2"/>
<path d="M73.6201 55.5341C77.4695 50.5085 80.8102 46.2313 87.5467 43.9858H116.417C128.821 50.5085 149.005 70.2902 147.722 112.313" stroke="black" stroke-width="2" stroke-linecap="round"/>
<path d="M83.5645 147.279H128.154" stroke="black" stroke-width="2" stroke-linecap="round"/>
<path d="M101.982 111.806V116.163" stroke="black" stroke-width="2" stroke-linecap="round"/>
<path d="M101.982 83.0865V78.6304" stroke="black" stroke-width="2" stroke-linecap="round"/>
<path d="M110.001 85.0458C107.965 84.0277 104.873 83.0755 101.982 83.0865C98.4976 83.0999 95.305 84.5124 94.6036 88.8952C93.6786 94.6756 100.691 96.7508 104.869 98.8395C110.643 101.727 110.591 107.139 107.114 109.746C105.551 110.919 103.775 111.563 101.982 111.806C99.3599 112.161 96.699 111.661 94.6036 110.709" stroke="black" stroke-width="2" stroke-linecap="round"/>
</svg>
