<svg width="183" height="152" viewBox="0 0 183 152" fill="none" xmlns="http://www.w3.org/2000/svg">
<path d="M40.9723 66.6921C37.846 65.3677 34.4079 64.6348 30.7987 64.6348C16.3853 64.6348 4.70093 76.3195 4.70093 90.7325C4.70093 105.146 16.3853 116.83 30.7987 116.83C45.2119 116.83 56.8962 105.146 56.8962 90.7325C56.8962 84.4328 54.6642 78.6546 50.9477 74.145" stroke="black" stroke-width="2" stroke-linecap="round"/>
<path d="M95.6003 43.1816C99.3602 55.6407 114.886 83.0358 146.911 92.9441" stroke="black" stroke-width="2" stroke-linecap="round"/>
<path d="M146.911 96.2622C147.87 109.606 149.212 138.151 146.911 145.582" stroke="black" stroke-width="2" stroke-linecap="round"/>
<path d="M148.239 148.677C154.063 152.143 166.02 154.339 167.259 135.407C168.497 116.475 166.301 92.5748 165.047 82.9907" stroke="black" stroke-width="2" stroke-linecap="round"/>
<path d="M168.807 88.0774C174.778 81.2212 192.472 56.6717 171.903 20.8428" stroke="black" stroke-width="2" stroke-linecap="round"/>
<path d="M166.816 14.8723C156.422 4.25517 150.892 0.234986 143.815 6.0257C141.161 8.19716 140.498 13.1027 144.479 19.2954" stroke="black" stroke-width="2" stroke-linecap="round"/>
<path d="M87.8595 17.9675C86.9748 12.2172 88.768 3.19024 96.485 1.15916C100.687 0.0531519 106.438 4.97441 107.986 7.79443" stroke="black" stroke-width="2" stroke-linecap="round"/>
<path d="M115.727 33.228C119.185 47.9452 131.825 75.6782 154.746 69.0941C154.829 69.0702 154.91 69.0384 154.986 68.9977C160.921 65.8075 166.88 53.6456 155.979 36.7667" stroke="black" stroke-width="2" stroke-linecap="round"/>
<path d="M117.053 36.9885L143.593 20.8433C147.815 17.6409 158.273 12.0529 166.711 14.9754C166.926 15.0497 167.114 15.1838 167.26 15.3569L171.273 20.099C171.648 20.5418 171.693 21.1778 171.375 21.6635C165.903 30.0372 161.932 32.0589 154.43 36.9885" stroke="black" stroke-width="2" stroke-linecap="round"/>
<path d="M98.4753 51.3643L55.5688 81.443" stroke="black" stroke-width="2" stroke-linecap="round"/>
<path d="M123.025 51.5852C138.728 44.7286 138.065 44.7286 154.652 36.9883" stroke="black" stroke-width="2" stroke-linecap="round"/>
<path d="M57.1172 86.3098L103.783 61.5391" stroke="black" stroke-width="2" stroke-linecap="round"/>
<path d="M128.467 41.8724L146.824 31.4775" stroke="black" stroke-width="2" stroke-linecap="round"/>
<path d="M94.9368 39.1996C93.3444 41.8537 90.5134 43.6231 88.3018 45.1714L10.6721 105.55C9.37412 106.327 8.31645 105.112 7.87412 104.227C7.07663 102.633 7.79692 101.807 8.23921 101.348C35.9588 72.5962 80.8705 26.3277 85.6478 20.8428" stroke="black" stroke-width="2" stroke-linecap="round"/>
<path d="M107.986 7.79395C110.496 11.0891 113.358 15.904 115.594 20.4929C115.682 20.6725 115.726 20.8695 115.726 21.0694V33.6705" stroke="black" stroke-width="2" stroke-linecap="round"/>
<path d="M48.8469 68.1914L85.3395 34.353" stroke="black" stroke-width="2" stroke-linecap="round"/>
<path d="M84.3206 66.6256L96.0424 58.4424" stroke="black" stroke-width="2" stroke-linecap="round"/>
<path d="M94.9368 39.4206C96.6327 34.9974 103.031 25.0451 115.063 20.6216" stroke="black" stroke-width="2" stroke-linecap="round"/>
<path d="M85.8689 20.6228C91.1035 17.2316 103.562 11.1126 111.524 13.7666" stroke="black" stroke-width="2" stroke-linecap="round"/>
<path d="M18.1919 136.292C28.0858 136.292 36.1064 134.312 36.1064 131.869C36.1064 129.426 28.0858 127.446 18.1919 127.446C8.29796 127.446 0.277344 129.426 0.277344 131.869C0.277344 134.312 8.29796 136.292 18.1919 136.292Z" fill="black"/>
<path d="M7.35474 79.2327C11.6306 76.0625 19.7401 71.9333 29.6926 79.2327" stroke="black" stroke-width="2" stroke-linecap="round"/>
<path d="M35.2217 86.7524C38.4655 90.4384 43.9799 101.173 40.0874 114.62" stroke="black" stroke-width="2" stroke-linecap="round"/>
</svg>
