<svg width="187" height="150" viewBox="0 0 187 150" fill="none" xmlns="http://www.w3.org/2000/svg">
<path d="M118.196 62.5457C123.737 96.7093 106.839 127.401 81.0446 131.584C55.2501 135.768 29.5181 111.99 23.9774 77.8262C18.4367 43.6626 35.3347 12.9707 61.1292 8.78734C86.9237 4.60397 112.656 28.382 118.196 62.5457Z" stroke="black" stroke-width="2"/>
<path d="M107.479 63.6564C109.597 76.7212 107.581 89.1475 102.655 98.6699C97.7296 108.192 89.936 114.752 80.4905 116.284C71.045 117.816 61.5776 114.056 53.895 106.578C46.2125 99.1003 40.3718 87.9483 38.2529 74.8835C36.1341 61.8187 38.1508 49.3924 43.0763 39.8701C48.0018 30.3476 55.7954 23.7878 65.2409 22.256C74.6864 20.7241 84.1538 24.4844 91.8364 31.9621C99.5189 39.4397 105.36 50.5917 107.479 63.6564Z" stroke="black" stroke-width="2"/>
<ellipse cx="76.1936" cy="69.7914" rx="18.1809" ry="24.5142" transform="rotate(-9.21208 76.1936 69.7914)" fill="black"/>
<path d="M34.4184 125.171C67.2498 156.772 103.775 138.304 111.573 118.4C108.1 138.254 84.5734 149.518 64.9926 150C43.4469 150 16.5661 132.148 9.17886 115.937C-18.0054 56.2834 23.4061 14.2963 44.0627 8.41406C5.28028 26.6766 -0.86751 91.2085 34.4184 125.171Z" fill="black"/>
<path d="M75.8682 64.4323L134.349 27.0417L146.046 19.6992" stroke="black" stroke-width="2" stroke-linecap="round"/>
<path d="M132.913 24.0086L134.272 14.6895C134.32 14.3582 134.531 14.0731 134.833 13.9299L158.259 2.84297C159.152 2.42031 160.052 3.41088 159.546 4.2593L154.449 12.8002C154.072 13.4311 154.482 14.239 155.213 14.3082L166.018 15.3303C166.955 15.419 167.262 16.6357 166.479 17.1579L146.446 30.5131C146.193 30.6819 145.876 30.7262 145.587 30.6336L134.349 27.0419" stroke="black" stroke-width="2" stroke-linecap="round"/>
<path d="M78.1252 68.742L151.332 42.5224L164.322 37.8354" stroke="black" stroke-width="2" stroke-linecap="round"/>
<path d="M150.574 39.2526L153.884 30.4357C154.001 30.1223 154.268 29.8885 154.594 29.8129L179.842 23.9616C180.804 23.7386 181.473 24.8978 180.798 25.6192L174.001 32.8807C173.499 33.4171 173.727 34.2936 174.427 34.5168L184.768 37.8134C185.665 38.0994 185.705 39.3535 184.829 39.6972L162.414 48.4864C162.131 48.5975 161.812 48.5736 161.549 48.4214L151.332 42.522" stroke="black" stroke-width="2" stroke-linecap="round"/>
<path d="M135.259 60.3134L139.67 52.9618C139.841 52.6763 140.144 52.4947 140.476 52.4776L163.415 51.2993C164.401 51.2487 164.856 52.5062 164.066 53.0983L157.147 58.2818C156.563 58.7196 156.629 59.6157 157.272 59.9622L165.506 64.4035C166.33 64.8478 166.147 66.0791 165.229 66.2639L144.196 70.5003C143.892 70.5614 143.578 70.4785 143.344 70.276L135.37 63.3721" stroke="black" stroke-width="2" stroke-linecap="round"/>
<path d="M79.3565 73.0498L135.369 63.3708L147.649 61.2488" stroke="black" stroke-width="2" stroke-linecap="round"/>
</svg>
