<svg width="214" height="151" viewBox="0 0 214 151" fill="none" xmlns="http://www.w3.org/2000/svg">
<path d="M46.9037 134.709C29.4622 120.724 71.1687 113.613 94.1961 112.11C94.6634 112.079 95.076 112.387 95.2117 112.835C102.133 135.713 119.708 144.998 127.764 147.225C108.492 149.145 64.5458 148.854 46.9037 134.709Z" fill="black"/>
<circle cx="145.247" cy="97.7561" r="46.2839" stroke="black" stroke-width="2"/>
<path d="M197.491 97.7558C197.491 126.609 174.1 150 145.247 150C116.393 150 93.0027 126.609 93.0027 97.7558C93.0027 68.9022 116.393 45.5117 145.247 45.5117C174.1 45.5117 197.491 68.9022 197.491 97.7558Z" stroke="black" stroke-width="2"/>
<ellipse cx="145.247" cy="58.8167" rx="2.38406" ry="2.38406" fill="black"/>
<ellipse cx="145.247" cy="136.695" rx="2.38406" ry="2.38406" fill="black"/>
<ellipse cx="184.186" cy="97.7552" rx="2.38406" ry="2.38406" fill="black"/>
<ellipse cx="106.307" cy="97.7552" rx="2.38406" ry="2.38406" fill="black"/>
<path d="M150.207 98.1525C150.207 100.892 147.986 103.113 145.247 103.113C142.507 103.113 140.287 100.892 140.287 98.1525C140.287 95.4131 142.507 93.1924 145.247 93.1924C147.986 93.1924 150.207 95.4131 150.207 98.1525Z" stroke="black" stroke-width="2"/>
<path d="M125.379 98.1528H140.478" stroke="black" stroke-width="2" stroke-linecap="round"/>
<path d="M60.6125 60.6049C58.8245 60.34 54.8113 59.5718 53.063 58.6182" stroke="black" stroke-width="2" stroke-linecap="round"/>
<path d="M102.532 66.962C97.168 67.4255 85.0888 67.5977 74.9167 63.7832" stroke="black" stroke-width="2" stroke-linecap="round"/>
<path d="M92.4 94.7759C78.6916 95.107 49.5663 94.4183 37.1692 89.8091" stroke="black" stroke-width="2" stroke-linecap="round"/>
<path d="M58.2284 108.881C44.3876 108.418 13.6464 106.497 1.4082 102.524" stroke="black" stroke-width="2" stroke-linecap="round"/>
<path d="M145.247 93.5841V67.5581" stroke="black" stroke-width="2" stroke-linecap="round"/>
<path d="M194.517 81.465C200.676 81.8623 213.391 85.2399 212.199 77.4916C211.615 73.6958 207.746 72.8502 205.425 72.8916C205.067 72.898 204.725 72.7414 204.507 72.4569C201.817 68.9428 195.467 63.9737 188.927 69.1445" stroke="black" stroke-width="2" stroke-linecap="round"/>
<path d="M120.413 28.3169C122.002 21.8269 129.75 10.794 148.028 18.5819L153.789 21.4661" stroke="black" stroke-width="2" stroke-linecap="round"/>
<path d="M148.028 18.5814C151.935 15.9324 161.538 13.0981 166.306 22.9522" stroke="black" stroke-width="2" stroke-linecap="round"/>
<path d="M112.267 28.9126H126.969" stroke="black" stroke-width="2" stroke-linecap="round"/>
<path d="M64.2022 12.1423C63.6563 8.74431 60.3352 6.09702 56.2407 6.09702C55.4673 6.09702 54.6939 6.21555 54.0115 6.3736C51.9187 3.17315 47.9607 1 43.4112 1C36.678 1 31.2642 5.74141 31.2642 11.5496" stroke="black" stroke-width="2" stroke-miterlimit="10" stroke-linecap="round" stroke-linejoin="round"/>
<path d="M64.2023 12.1422C69.0703 12.6558 72.8463 16.2514 72.8463 20.6372C72.8463 25.3786 68.4333 29.2113 62.974 29.2113L36.1777 29.1718H33.448C27.9887 29.1718 23.5757 25.3391 23.5757 20.5977C23.5757 16.4885 26.8968 13.0905 31.3098 12.2212C33.3115 11.8129 38.5343 11.0517 43.4113 11.2729M64.2023 12.2212C62.7162 11.971 58.7885 12.1817 54.9669 15.0266" stroke="black" stroke-width="2" stroke-miterlimit="10" stroke-linecap="round" stroke-linejoin="round"/>
</svg>
