<svg width="590" height="400" viewBox="0 0 590 400" fill="none" xmlns="http://www.w3.org/2000/svg">
<path d="M238.035 355.428C249.039 321.636 267.125 264.36 272.274 240.228C272.295 240.127 272.356 240.045 272.443 239.991C294.877 226.037 319.143 218.447 327.304 216.932C327.404 216.913 327.5 216.938 327.584 216.996C348.37 231.528 361.23 240.41 369.18 247.971C389.395 267.2 393.243 304.072 392.89 328.072C392.89 328.208 392.814 328.33 392.696 328.395L384.362 333C384.157 333.113 383.903 333.016 383.819 332.798C377.016 314.513 364.329 300.082 356.028 273.858C356.034 274.07 355.852 274.257 355.627 274.251C333.072 273.675 332.166 272.376 311.812 266.156C299.666 304.898 264.98 343.127 247.774 359.569C247.665 359.673 247.512 359.697 247.373 359.64L238.254 355.89C238.07 355.815 237.974 355.617 238.035 355.428Z" fill="black"/>
<path d="M299.363 131.586C301.263 128.737 321.915 121.143 314.259 94.2922C320.929 91.319 322.036 84.2261 315.905 84.2288C309.23 83.9283 307.285 78.6337 306.879 75.1743C306.617 70.5122 304.805 66.3249 304.072 65.6123" stroke="black" stroke-width="2" stroke-linecap="round"/>
<path d="M304.524 87.6202C305.404 87.2278 305.64 85.8395 305.052 84.5193C304.463 83.1991 303.272 82.447 302.392 82.8393C301.512 83.2317 301.276 84.62 301.864 85.9403C302.453 87.2605 303.643 88.0126 304.524 87.6202Z" fill="black"/>
<path d="M296.742 81.36C297.305 79.6677 299.371 76.6208 303.133 77.9701" stroke="black" stroke-width="2" stroke-linecap="round"/>
<path d="M299.82 107.854C303.293 110.049 305.935 109.91 309.344 105.896" stroke="black" stroke-width="2" stroke-linecap="round"/>
<path d="M273.077 93.5737C273.082 94.8254 273.768 97.3564 276.473 97.467" stroke="black" stroke-width="2" stroke-linecap="round"/>
<path d="M244.842 93.6843C248.756 108.992 261.72 115.907 271.332 121.386C276.031 115.132 282.584 102.386 278.255 103.327C273.705 104.315 264.165 95.0514 266.591 89.7595C269.438 83.5506 276.495 87.7181 279.437 91.9859L280.213 83.6866C277.032 79.5943 272.912 71.7444 281.881 73.0826C290.849 74.4209 300.418 68.5884 304.082 65.5051C309.629 55.7813 316.128 36.0629 297.74 34.9801C282.446 34.0794 270.272 49.7102 263.939 61.6373C256.531 62.9319 239.505 72.8133 244.842 93.6843Z" fill="black"/>
<path d="M271.356 120.23C275.995 122.451 278.85 124.753 281.509 131.021" stroke="black" stroke-width="2" stroke-linecap="round"/>
<path d="M275.915 176.067C277.352 186.192 278.247 213.126 270.521 240.713C270.423 241.062 270.818 241.35 271.115 241.142C279.382 235.352 300.981 223.217 328.772 216.037C328.956 215.989 329.08 215.82 329.057 215.631C327.25 200.343 326.277 168.207 335.101 159.801C335.149 159.755 335.205 159.726 335.27 159.711C353.467 155.51 392.077 142.128 403.337 121.223C403.352 121.192 403.363 121.16 403.371 121.126C404.18 117.346 404.734 109.629 400.636 108.3C400.556 108.274 400.469 108.278 400.389 108.31C373.514 119.178 343.56 128.179 305.061 135.007" stroke="black" stroke-width="2" stroke-linecap="round"/>
<path d="M275.915 188.982C257.529 209.039 240.421 216.678 227.379 222.376C218.267 227.021 198.509 230.353 207.349 215.953C245.335 168.545 253.692 160.302 262.619 152.135C267.746 147.445 270.027 144.538 282.942 141.119" stroke="black" stroke-width="2" stroke-linecap="round"/>
<path d="M222.733 369.799C221.974 364.86 236.725 357.643 239.258 356.313L247.045 359.352C246.437 363.151 244.513 365.367 243.626 366L222.733 369.799Z" stroke="black" stroke-width="2"/>
<path d="M387.975 339.411C384.936 338.803 384.81 334.472 385.126 332.383L391.963 328.964C394.052 329.534 399.636 331.016 405.258 332.383C410.88 333.751 410.132 335.612 409.057 336.372L387.975 339.411Z" stroke="black" stroke-width="2"/>
<path d="M348.516 376.258C348.516 389.371 337.887 400 324.775 400C311.663 400 301.033 389.371 301.033 376.258C301.033 363.146 311.663 352.517 324.775 352.517C337.887 352.517 348.516 363.146 348.516 376.258Z" fill="black"/>
<path d="M185.886 379.107L463.188 328.205" stroke="black" stroke-width="2" stroke-linecap="round"/>
<path d="M429.38 59.8281H413.426C411.852 59.8281 410.577 61.1037 410.577 62.6771V74.453C410.577 76.0264 411.852 77.302 413.426 77.302H429.38C430.953 77.302 432.229 76.0264 432.229 74.453V62.6771C432.229 61.1037 430.953 59.8281 429.38 59.8281Z" stroke="black" stroke-width="2"/>
<path d="M456.35 55.2715H445.714C444.141 55.2715 442.865 56.547 442.865 58.1205V73.3151C442.865 74.8886 444.141 76.1641 445.714 76.1641H456.35C457.924 76.1641 459.199 74.8886 459.199 73.3151V58.1205C459.199 56.547 457.924 55.2715 456.35 55.2715Z" stroke="black" stroke-width="2"/>
<path d="M483.321 45.7759H473.065C471.491 45.7759 470.216 47.0514 470.216 48.6249V73.3162C470.216 74.8896 471.491 76.1652 473.065 76.1652H483.321C484.894 76.1652 486.17 74.8896 486.17 73.3162V48.6249C486.17 47.0514 484.894 45.7759 483.321 45.7759Z" stroke="black" stroke-width="2"/>
<path d="M511.051 36.0894H500.415C498.317 36.0894 496.616 37.7901 496.616 39.888V73.3162C496.616 75.4142 498.317 77.1149 500.415 77.1149H511.051C513.149 77.1149 514.85 75.4142 514.85 73.3162V39.888C514.85 37.7901 513.149 36.0894 511.051 36.0894Z" fill="black"/>
<path d="M539.161 53.751H528.905C527.331 53.751 526.056 55.0265 526.056 56.6V73.3141C526.056 74.8875 527.331 76.1631 528.905 76.1631H539.161C540.735 76.1631 542.01 74.8875 542.01 73.3141V56.6C542.01 55.0265 540.735 53.751 539.161 53.751Z" stroke="black" stroke-width="2"/>
<path d="M567.651 63.2466H557.015C555.442 63.2466 554.166 64.5221 554.166 66.0956V73.313C554.166 74.8865 555.442 76.162 557.015 76.162H567.651C569.225 76.162 570.5 74.8865 570.5 73.313V66.0956C570.5 64.5221 569.225 63.2466 567.651 63.2466Z" stroke="black" stroke-width="2"/>
<path d="M505.927 30.869C505.623 31.2186 505.083 31.2186 504.78 30.869L501.505 27.0908C501.08 26.5988 501.429 25.8335 502.079 25.8335H508.628C509.277 25.8335 509.627 26.5988 509.201 27.0908L505.927 30.869Z" fill="black"/>
<path fill-rule="evenodd" clip-rule="evenodd" d="M487.499 0H524.346C526.444 0 528.145 1.70072 528.145 3.79866V24.3114C528.145 26.4094 526.444 28.1101 524.346 28.1101H487.499C485.401 28.1101 483.701 26.4094 483.701 24.3114V3.79866C483.701 1.70072 485.401 0 487.499 0ZM497.376 12.9147H521.687C522.527 12.9147 523.207 13.5949 523.207 14.4341C523.207 15.2733 522.527 15.9536 521.687 15.9536H497.376C496.537 15.9536 495.856 15.2733 495.856 14.4341C495.856 13.5949 496.537 12.9147 497.376 12.9147ZM490.159 14.2968C490.081 14.2968 490.019 14.3593 490.019 14.4364C490.019 14.5135 490.081 14.576 490.159 14.576C490.236 14.576 490.298 14.5135 490.298 14.4364C490.298 14.3593 490.236 14.2968 490.159 14.2968ZM488.019 14.4364C488.019 13.2547 488.977 12.2968 490.159 12.2968C491.34 12.2968 492.298 13.2547 492.298 14.4364C492.298 15.618 491.34 16.576 490.159 16.576C488.977 16.576 488.019 15.618 488.019 14.4364ZM497.376 20.1337H507.252C508.092 20.1337 508.772 20.814 508.772 21.6532C508.772 22.4923 508.092 23.1726 507.252 23.1726H497.376C496.537 23.1726 495.856 22.4923 495.856 21.6532C495.856 20.814 496.537 20.1337 497.376 20.1337ZM500.035 5.3165H490.159C489.319 5.3165 488.639 5.99679 488.639 6.83597C488.639 7.67514 489.319 8.35543 490.159 8.35543H500.035C500.874 8.35543 501.555 7.67514 501.555 6.83597C501.555 5.99679 500.874 5.3165 500.035 5.3165ZM490.159 20.1337C490.998 20.1337 491.678 20.814 491.678 21.6532C491.678 22.4923 490.998 23.1726 490.159 23.1726C489.319 23.1726 488.639 22.4923 488.639 21.6532C488.639 20.814 489.319 20.1337 490.159 20.1337Z" fill="black"/>
<path d="M75.71 294.383C81.68 291.313 88.4898 290.28 95.1018 291.441C101.713 292.602 107.764 295.893 112.331 300.813C116.898 305.733 119.731 312.012 120.397 318.691C121.064 325.371 119.528 332.086 116.023 337.811C112.518 343.536 107.237 347.959 100.985 350.403C94.7333 352.848 87.8536 353.181 81.3947 351.351C74.9358 349.522 69.2527 345.63 65.2113 340.27C61.1703 334.91 58.9929 328.375 59.0111 321.662L89.7802 321.747L75.71 294.383Z" stroke="black" stroke-width="2"/>
<path d="M53.3127 318.327C53.3127 312.77 54.8554 307.323 57.769 302.591C60.6825 297.86 64.8527 294.03 69.8145 291.529L83.3222 318.327H53.3127Z" fill="black"/>
<path d="M435.01 107.923C435.443 108.932 435.602 111.161 433.114 112.512C432.932 112.612 432.73 112.708 432.518 112.797C429.407 114.097 428.632 111.96 428.632 110.729V109.475" stroke="black" stroke-width="2" stroke-linecap="round"/>
<path d="M434.607 104.821C435.443 105.325 436.586 106.605 435.01 107.922C434.892 108.021 434.759 108.119 434.607 108.218C432.788 109.416 430.201 109.574 428.632 109.475C428.343 109.456 428.092 109.43 427.883 109.399C427.036 109.163 425.673 108.243 426.987 106.46" stroke="black" stroke-width="2" stroke-linecap="round"/>
<path d="M434.011 101.128C434.858 101.325 436.313 102.103 435.356 103.639C434.398 105.175 429.578 106.15 427.287 106.445C427.188 106.455 427.09 106.46 426.987 106.46C426.083 106.456 425.194 106.018 425.194 104.821C425.194 103.129 427.386 102.556 427.884 102.458" stroke="black" stroke-width="2" stroke-linecap="round"/>
<path d="M429 96.1034C429.847 96.4479 430.364 97.6981 428.332 98.7613C426.299 99.8246 426.79 101.272 427.287 101.863C428.085 102.552 430.664 103.074 434.607 99.6475C438.554 96.2212 432.366 94.0844 428.632 93.4443" stroke="black" stroke-width="2" stroke-linecap="round"/>
<path d="M420.263 99.6506C421.957 98.3214 425.255 96.4605 424.898 99.6506C424.537 102.841 422.257 104.229 421.16 104.525" stroke="black" stroke-width="2" stroke-linecap="round"/>
<path d="M420.263 112.443C421.255 111.59 422.945 108.8 421.752 104.466" stroke="black" stroke-width="2" stroke-linecap="round"/>
<path d="M420.989 98.6154L419.124 88.5103" stroke="black" stroke-width="2" stroke-linecap="round"/>
<path d="M427.67 86.7993L428.943 97.129" stroke="black" stroke-width="2" stroke-linecap="round"/>
<path d="M430.596 113.165C430.596 115.986 431.948 119.697 428.943 120.588C425.278 121.676 424.89 118.361 424.142 114.946L422.189 104.702" stroke="black" stroke-width="2" stroke-linecap="round"/>
<path d="M419.883 94.7783C417.794 95.1582 412.894 97.2854 410.007 102.756C407.12 108.226 404.373 109.973 403.359 110.163" stroke="black" stroke-width="2" stroke-linecap="round"/>
<path d="M403.929 119.659C409.247 120.229 420.225 120.001 423.872 116.05" stroke="black" stroke-width="2" stroke-linecap="round"/>
<path d="M420.073 88.3197C430.144 88.3197 438.307 80.1562 438.307 70.0861C438.307 60.016 430.144 51.8525 420.073 51.8525C410.003 51.8525 401.84 60.016 401.84 70.0861C401.84 80.1562 410.003 88.3197 420.073 88.3197Z" stroke="black" stroke-width="2"/>
<path d="M588.141 105.433C580.856 106.927 584.271 116.96 578.933 119.629C572.559 122.816 570.364 104.875 571.192 97.2594C571.431 93.9203 575.317 92.4354 575.841 97.2594C576.4 102.384 570.041 122.254 562.755 114.587L557.893 108.957C556.54 107.292 553.877 104.977 551.625 108.957C549.372 112.937 545.783 111.622 544.271 110.467L539.519 107.009" stroke="black" stroke-width="2" stroke-linecap="round"/>
<path d="M542.926 91.6825L505.099 85.2749C504.726 85.2115 504.498 85.6772 504.783 85.9317L522.303 101.711C522.333 101.736 522.36 101.757 522.398 101.771C523.948 102.38 529.896 100.037 533.064 98.6188C533.277 98.5231 533.524 98.6401 533.589 98.865C534.318 101.42 535.199 103.782 535.651 104.908C535.72 105.074 535.902 105.165 536.024 105.033C536.871 104.099 536.988 99.3421 536.928 96.612C536.924 96.4171 537.064 96.2519 537.258 96.2143C539.587 95.7596 542.736 93.714 544.077 92.7021" stroke="black" stroke-width="2" stroke-linecap="round"/>
<path d="M533.441 98.3482C529.406 96.491 519.199 91.8399 510.649 88.0918" stroke="black" stroke-width="2" stroke-linecap="round"/>
<path d="M535.72 105.187L528.123 100.629" stroke="black" stroke-width="2" stroke-linecap="round"/>
<path d="M534.2 94.5497L523.944 91.5107" stroke="black" stroke-width="2" stroke-linecap="round"/>
<path d="M277.711 142.793C274.989 139.628 271.177 132.954 277.711 131.587C285.878 129.878 304.301 130.257 305.061 134.816" stroke="black" stroke-width="2" stroke-linecap="round"/>
<path d="M190.224 242.719C191.701 243.518 196.155 243.822 202.152 238.649C208.15 233.477 209.461 228.865 209.368 227.206" stroke="black" stroke-width="2" stroke-linecap="round"/>
<path d="M182.802 242.594C182.635 244.021 183.583 246.21 188.717 243.545L190.224 242.719L192.843 241.283" stroke="black" stroke-width="2" stroke-linecap="round"/>
<path d="M181.466 238.17C180.259 238.878 178.316 240.708 180.193 242.36C180.759 242.858 181.696 242.872 182.803 242.592C185.364 241.945 188.838 239.725 190.749 238.299" stroke="black" stroke-width="2" stroke-linecap="round"/>
<path d="M203.85 220.202C201.019 219.162 195.17 217.133 191.283 218.483C190.307 218.849 188.096 219.354 187.056 218.442C185.755 217.303 183.29 220.226 186.642 222.181C189.994 224.137 192.177 222.063 191.733 225.168C191.378 227.652 184.5 231.682 181.106 233.386C179.886 233.939 177.872 235.54 179.57 237.528C179.991 238.02 180.659 238.201 181.466 238.168C183.92 238.067 187.662 235.987 189.66 234.639" stroke="black" stroke-width="2" stroke-linecap="round"/>
<path d="M104.346 83.5139C114.357 93.7608 132.957 98.2763 142.761 99.5089C143.454 99.5963 143.698 100.497 143.135 100.912L117.34 119.939C117.256 120 117.159 120.045 117.058 120.068C97.9586 124.33 80.1524 105.317 73.0869 94.5164C72.8176 94.105 73.0182 93.5587 73.4846 93.4022L103.55 83.3194C103.831 83.2252 104.139 83.3023 104.346 83.5139Z" stroke="black" stroke-width="2" stroke-linecap="round"/>
<path d="M89.5752 99.119C92.6141 98.4877 99.2238 96.5223 101.351 93.709" stroke="black" stroke-width="2" stroke-linecap="round"/>
<path d="M98.1223 105.954C100.022 106.017 104.39 105.081 106.669 100.826" stroke="black" stroke-width="2" stroke-linecap="round"/>
<path d="M107.429 110.514C110.278 110.134 116.394 107.969 118.065 102.347" stroke="black" stroke-width="2" stroke-linecap="round"/>
<path d="M40.2723 162.907C30.2607 173.153 11.661 177.669 1.85699 178.902C1.16412 178.989 0.920259 179.89 1.48246 180.305L27.2776 199.331C27.3616 199.393 27.4584 199.437 27.5602 199.46C46.6593 203.723 64.4655 184.71 71.5311 173.909C71.8004 173.498 71.5998 172.951 71.1333 172.795L41.0677 162.712C40.7874 162.618 40.4793 162.695 40.2723 162.907Z" stroke="black" stroke-width="2" stroke-linecap="round"/>
<path d="M55.0424 178.511C52.0035 177.88 45.3939 175.914 43.2666 173.101" stroke="black" stroke-width="2" stroke-linecap="round"/>
<path d="M46.4957 185.347C44.5964 185.41 40.2279 184.473 37.9487 180.219" stroke="black" stroke-width="2" stroke-linecap="round"/>
<path d="M37.1885 189.907C34.3395 189.527 28.2237 187.362 26.5522 181.74" stroke="black" stroke-width="2" stroke-linecap="round"/>
</svg>
