<svg width="321" height="301" viewBox="0 0 321 301" fill="none" xmlns="http://www.w3.org/2000/svg">
<path d="M136.328 236.334C132.608 217.132 146.401 173.275 153.763 153.747C156.217 154.908 176.752 150.908 183.339 141.359C188.608 133.72 197.557 130.719 201.937 129.358C207.748 127.551 217.435 127.809 219.243 132.197L221.18 136.713C227.509 154.908 221.998 182.566 218.081 194.911L203.616 197.492C192.663 179.736 198.277 158.091 202.453 149.489C198.01 155.476 185.534 161.79 179.852 164.199C179.593 180.071 155.313 234.785 150.018 238.269C145.781 241.056 139.126 238.14 136.328 236.334Z" fill="black"/>
<path d="M145.604 239.496L143.796 242.782M138.112 237.413L134.662 246.524L134.366 247.305C134.037 248.094 133.81 249.417 134.366 250.544C134.758 251.339 135.539 252.037 136.95 252.381C140.36 253.214 153.183 254.117 159.168 254.464C160.202 254.594 162.165 254.099 161.752 251.08C161.338 248.06 159.168 245.297 156.714 244.181C154.723 243.277 149.589 241.873 143.796 242.782L138.112 237.413ZM141.987 243.14C142.595 242.994 143.199 242.876 143.796 242.782L141.987 243.14Z" stroke="black" stroke-width="2" stroke-linecap="round"/>
<path d="M205.678 196.791C205.549 200.62 205.898 208.158 206.844 209.311C208.009 210.731 209.433 210.859 218.109 208.149C225.049 205.981 227.82 205.955 229.503 205.697C230.668 205.518 232.093 205.361 232.093 202.47C232.093 198.856 230.668 196.404 226.266 195.887C222.744 195.474 217.72 197.608 215.649 198.727V195.242" stroke="black" stroke-width="2" stroke-linecap="round"/>
<path d="M189.105 66.8784C175.804 68.2225 149.667 73.8878 151.527 85.7953C151.812 86.8064 152.631 88.4196 154.158 89.9371C155.628 91.3987 157.756 92.7716 160.695 93.4319" stroke="black" stroke-width="2" stroke-linecap="round"/>
<path d="M154.158 89.937C158.317 96.4086 170.51 110.465 186.006 114.917" stroke="black" stroke-width="2" stroke-linecap="round"/>
<path d="M185.906 114.917C186.853 113.645 189.343 111.345 192.265 111.236" stroke="black" stroke-width="2" stroke-linecap="round"/>
<path d="M192.265 111.235C192.179 107.601 189.113 98.2295 177.539 89.8154" stroke="black" stroke-width="2" stroke-linecap="round"/>
<path d="M174.192 92.8278C175.393 90.8829 179.083 86.7542 184.233 85.7993" stroke="black" stroke-width="2" stroke-linecap="round"/>
<path d="M202.975 89.146C203.533 89.8053 204.649 91.5986 204.649 93.4969" stroke="black" stroke-width="2" stroke-linecap="round"/>
<path d="M202.843 116.929C205.481 116.8 210.989 116.414 211.924 115.897C213.091 115.253 213.35 115.253 213.35 113.963C213.35 112.673 202.843 114.866 202.843 110.739C203.795 109.793 205.334 107.669 203.881 106.741C202.428 105.812 199.384 108.504 198.044 109.965C196.661 111.427 193.556 113.731 192.207 111.255" stroke="black" stroke-width="2" stroke-linecap="round"/>
<path d="M186.241 114.866C187.408 118.262 191.611 124.357 199.082 121.572C206.554 118.786 206.865 117.316 206.086 116.929" stroke="black" stroke-width="2" stroke-linecap="round"/>
<path d="M250.587 116.311C252.403 115.815 256.371 113.506 257.72 108.242C259.069 102.977 257.245 102.951 256.164 103.596" stroke="black" stroke-width="2" stroke-linecap="round"/>
<path d="M243.844 112.5C244.406 109.575 246.386 103.932 249.81 104.758" stroke="black" stroke-width="2" stroke-linecap="round"/>
<path d="M245.271 107.726C242.885 105.764 241.423 110.263 240.991 112.758C238.294 113.584 237.273 117.489 237.101 119.339C243.343 119.979 247.779 118.303 250.588 116.311C252.308 115.092 253.418 113.754 253.96 112.758C255.3 109.188 257.254 101.739 254.349 100.5C251.444 99.2614 250.631 102.048 250.588 103.597C250.899 107.107 249.075 110.995 248.124 112.5" stroke="black" stroke-width="2" stroke-linecap="round"/>
<path d="M207.661 116.887C213.28 122.134 227.036 129.97 237.1 119.338" stroke="black" stroke-width="2" stroke-linecap="round"/>
<path d="M206.657 117.595C206.657 120.031 206.054 125.583 203.645 128.305" stroke="black" stroke-width="2" stroke-linecap="round"/>
<path d="M154.11 123.285C148.807 130.444 141.381 146.624 154.11 154.076" stroke="black" stroke-width="2" stroke-linecap="round"/>
<path d="M312.753 92.493L315.765 87.4727" stroke="black" stroke-width="2" stroke-linecap="round"/>
<path d="M314.225 95.1173L319.781 94.8589" stroke="black" stroke-width="2" stroke-linecap="round"/>
<path d="M313.087 98.1831L316.434 102.534" stroke="black" stroke-width="2" stroke-linecap="round"/>
<path d="M203.684 255.823H113.278V300" stroke="#A0A0A0" stroke-width="2" stroke-linecap="round"/>
<path d="M266.541 211.776H192.561V265.64" stroke="#A0A0A0" stroke-width="2" stroke-linecap="round"/>
<path d="M315.43 150.032H255.418V221.981" stroke="#A0A0A0" stroke-width="2" stroke-linecap="round"/>
<path d="M304.825 103.036V160.108" stroke="#A0A0A0" stroke-width="2" stroke-linecap="round"/>
<path d="M304.825 83.1216V87.9746" stroke="black" stroke-width="2" stroke-linecap="round"/>
<path d="M187.593 118.109L113.502 126.631C104.931 119.765 107.005 109.514 109.114 105.248L160.616 99.0742" stroke="black" stroke-width="2" stroke-linecap="round"/>
<path d="M213.021 116.051L238.45 113.607" stroke="black" stroke-width="2" stroke-linecap="round"/>
<path d="M257.037 110.907L273.688 109.749L296.019 99.6273C293.334 96.777 294.806 94.2381 295.925 93.3298L273.688 88.1421L185.657 95.4731" stroke="black" stroke-width="2" stroke-linecap="round"/>
<path d="M101.135 105.354L108.683 104.542C103.448 116.269 109.449 124.247 113.279 127.351L104.47 128.64C97.1069 119.673 99.0049 109.638 101.135 105.354Z" fill="black"/>
<path d="M296.822 100.191C294.02 97.2673 295.594 93.7852 296.762 92.6606L307.398 95.2856L296.822 100.191Z" fill="black"/>
<path d="M273.929 88.1421C271.151 91.669 267.261 100.891 273.929 109.562" stroke="black" stroke-width="2"/>
<path d="M209.942 69.1368C212.156 67.7743 228.809 69.0876 232.047 48.1391C237.59 48.2041 240.604 43.6634 236.375 41.7202C231.866 39.3951 232.204 35.1265 233.021 32.6113C234.32 29.3129 234.399 25.8498 234.118 25.1255" stroke="black" stroke-width="2" stroke-linecap="round"/>
<path d="M227.16 40.5741C227.789 40.5815 228.308 39.8226 228.319 38.8791C228.33 37.9356 227.829 37.1648 227.2 37.1574C226.571 37.15 226.053 37.9089 226.042 38.8524C226.03 39.7959 226.531 40.5668 227.16 40.5741Z" fill="black"/>
<path d="M224.068 33.66C224.993 32.6713 227.385 31.2252 229.552 33.3494" stroke="black" stroke-width="2" stroke-linecap="round"/>
<path d="M217.786 52.9097C219.486 55.5253 221.351 56.2679 224.976 54.5801" stroke="black" stroke-width="2" stroke-linecap="round"/>
<path d="M203.871 34.5767C203.477 35.4415 203.148 37.4048 204.978 38.3392" stroke="black" stroke-width="2" stroke-linecap="round"/>
<path d="M184.361 25.6959C182.204 37.4955 188.952 46.3778 193.844 53.2061C199.069 50.3833 207.632 43.6708 204.348 42.9462C200.896 42.1848 197.255 32.7689 200.607 29.8885C204.54 26.5091 208.086 31.6223 208.761 35.4994L211.929 30.0211C211.033 26.1894 210.682 19.4681 216.443 23.2361C222.204 27.0041 230.655 26.0171 234.16 25.0526C241.071 20.1057 251.809 8.56679 239.469 1.98652C229.206 -3.48645 215.851 3.43287 207.699 9.65024C202.179 8.19304 187.301 9.60767 184.361 25.6959Z" fill="black"/>
<path d="M194.228 52.4155C196.723 55.419 197.962 57.9131 197.808 63.0797" stroke="black" stroke-width="2" stroke-linecap="round"/>
<path d="M191.453 69.9966C190.579 66.9496 190.067 61.1381 195.008 62.2676C201.183 63.6793 213.77 69.7861 212.848 73.1711" stroke="black" stroke-width="2" stroke-linecap="round"/>
<path d="M212.848 77.9341C217.366 82.1177 218.371 84.7952 219.04 89.8155" stroke="black" stroke-width="2" stroke-linecap="round"/>
<path d="M1.15771 213.635C7.29546 213.076 21.7582 216.736 31.4193 235.559C31.672 236.051 32.3846 236.064 32.6363 235.572C42.5461 216.172 54.7086 196.492 93.1523 220.187C93.7434 220.551 94.5188 219.892 94.226 219.262C87.9887 205.847 84.6181 180.265 113.683 167.573C114.266 167.319 114.24 166.452 113.63 166.273L106.111 164.076C105.422 163.875 105.497 162.929 106.213 162.865C113.957 162.167 124.883 162.622 121.122 167.191C116.73 172.526 115.65 175.899 116.72 181.469" stroke="#A0A0A0" stroke-width="2" stroke-linecap="round"/>
</svg>
