<svg width="214" height="202" viewBox="0 0 214 202" fill="none" xmlns="http://www.w3.org/2000/svg">
<path d="M101.03 183.73C103.875 184.392 111.948 184.842 113.536 179.76" stroke="black" stroke-width="2" stroke-linecap="round"/>
<path d="M105.198 172.613C109.962 177.179 117.506 184.524 121.476 178.569L123.858 174.598" stroke="black" stroke-width="2" stroke-linecap="round"/>
<path d="M105.199 160.305C110.625 165.466 127.273 177.853 134.578 173.406C135.901 172.546 138.588 169.793 138.747 165.664" stroke="black" stroke-width="2" stroke-linecap="round"/>
<path d="M118.3 153.357C124.983 158.585 139.739 167.928 145.297 163.481C150.856 159.035 145.099 152.894 141.526 150.38L117.506 130.926" stroke="black" stroke-width="2" stroke-linecap="round"/>
<path d="M49.2192 134.5C52.1969 136.064 55.4821 140.121 56.564 143.83C57.9536 148.594 61.8576 152.697 63.5119 153.954" stroke="black" stroke-width="2" stroke-linecap="round"/>
<path d="M108.772 107.899C104.801 106.311 93.6851 103.095 84.9507 104.525C76.2163 105.954 77.0104 103.135 72.8417 100.753L49.2192 86.2617" stroke="black" stroke-width="2" stroke-linecap="round"/>
<path d="M140.533 106.708L149.268 102.143M148.275 158.122C151.928 157.169 158.002 151.77 160.583 149.189L170.706 143.829" stroke="black" stroke-width="2" stroke-linecap="round"/>
<path d="M141.327 127.948C135.504 131.455 120.921 135.769 109.169 126.559" stroke="black" stroke-width="2" stroke-linecap="round"/>
<path d="M109.169 126.56C104.802 132.713 94.5586 144.465 88.524 142.242C82.4893 140.018 85.2155 133.507 87.3329 130.53C93.4867 118.222 112.742 96.2276 140.533 106.709" stroke="black" stroke-width="2" stroke-linecap="round"/>
<path d="M101.427 176.583C101.268 182.459 99.3758 184.987 98.4494 185.516C93.9334 188.097 88.921 184.127 90.3198 180.9C91.28 179.112 92.5665 175.425 93.0897 173.804C94.3076 170.033 101.586 170.707 101.427 176.583Z" stroke="black" stroke-width="2" stroke-linecap="round"/>
<path d="M84.9508 182.142C78.2809 183.572 78.2015 176.783 81.1791 173.408C82.1333 172.327 84.5141 170.104 87.5314 167.651C90.5487 165.198 92.4941 167.291 93.0896 168.644C93.876 170.43 91.6207 180.713 84.9508 182.142Z" stroke="black" stroke-width="2" stroke-linecap="round"/>
<path d="M73.8344 174.202C66.5293 174.043 66.8866 167.651 69.8642 164.872C72.1801 162.424 78.0824 157.884 83.1642 159.314C88.2461 160.743 87.1344 165.467 85.9434 167.849C84.9508 170.033 81.1395 174.36 73.8344 174.202Z" stroke="black" stroke-width="2" stroke-linecap="round"/>
<path d="M76.2164 152.167C68.4349 150.261 61.8577 154.946 59.5418 157.527C57.9537 159.591 58.086 161.96 58.3507 162.886C60.2564 167.651 69.0701 164.21 73.2388 161.894C77.4737 159.446 83.998 154.073 76.2164 152.167Z" stroke="black" stroke-width="2" stroke-linecap="round"/>
<path d="M86.936 80.7031C88.1271 83.3499 90.1519 89.8742 88.7226 94.7972" stroke="#A0A0A0" stroke-width="2" stroke-linecap="round"/>
<path d="M94.2808 85.668C94.6116 87.1237 95.2733 90.6307 95.2733 93.0128" stroke="#A0A0A0" stroke-width="2" stroke-linecap="round"/>
<path d="M119.094 71.5723L123.66 87.6514" stroke="#A0A0A0" stroke-width="2" stroke-linecap="round"/>
<path d="M131.997 78.7188L130.607 88.2471" stroke="#A0A0A0" stroke-width="2" stroke-linecap="round"/>
<path d="M144.305 85.668L137.357 91.0277" stroke="#A0A0A0" stroke-width="2" stroke-linecap="round"/>
<circle cx="6.93695" cy="103.136" r="6.15375" fill="#A0A0A0"/>
<path d="M17.0507 103.661C27.461 102.589 43.7958 103.857 45.7264 111.909C47.6571 119.962 40.2847 122.907 36.3572 123.373C21.4042 125.75 1.57715 124.632 1.57715 111.909" stroke="#A0A0A0" stroke-width="2" stroke-linecap="round"/>
<circle cx="13.2895" cy="114.648" r="1.18359" stroke="#A0A0A0" stroke-width="2"/>
<path d="M24.7954 114.648C24.7954 115.222 24.2603 115.832 23.4133 115.832C22.5664 115.832 22.0312 115.222 22.0312 114.648C22.0312 114.075 22.5664 113.465 23.4133 113.465C24.2603 113.465 24.7954 114.075 24.7954 114.648Z" stroke="#A0A0A0" stroke-width="2"/>
<circle cx="33.5371" cy="114.648" r="1.18359" stroke="#A0A0A0" stroke-width="2"/>
<circle cx="179.64" cy="177.378" r="5.75673" fill="#A0A0A0"/>
<path d="M188.999 173.209C192.49 173.209 202.466 173.209 207.158 173.209C210.959 173.209 212.789 174.05 212.789 179.935C212.789 185.654 212.742 193.061 212.789 196.05C212.822 198.152 211.776 200.478 208.285 200.814C204.793 201.151 190.782 200.955 184.213 200.814C181.773 200.814 177.455 199.431 177.456 193.808L177.456 187.502" stroke="#A0A0A0" stroke-width="2" stroke-linecap="round"/>
<path d="M186.587 183.135L195.321 189.09" stroke="#A0A0A0" stroke-width="2" stroke-linecap="round"/>
<path d="M195.321 189.09L211.202 174.4" stroke="#A0A0A0" stroke-width="2" stroke-linecap="round"/>
<path d="M183.411 194.25L189.814 185.516M199.347 185.516L208.026 194.25" stroke="#A0A0A0" stroke-width="2" stroke-linecap="round"/>
<path d="M182.519 80.3242L161.874 96.0064C135.671 116.056 161.278 138.553 170.807 143.648L201.179 124.195" stroke="black" stroke-width="2" stroke-linecap="round"/>
<path d="M94.6377 29.5847C97.6153 29.1877 104.007 26.9247 105.754 21.0488" stroke="#A0A0A0" stroke-width="2" stroke-linecap="round"/>
<path d="M84.9106 24.8207C86.8957 24.8868 91.4614 23.9075 93.8435 19.4609" stroke="#A0A0A0" stroke-width="2" stroke-linecap="round"/>
<path d="M75.9775 17.6739C79.1537 17.0143 86.0617 14.9599 88.285 12.0195" stroke="#A0A0A0" stroke-width="2" stroke-linecap="round"/>
<path d="M104.454 39.6224C85.3186 43.704 67.4632 25.5292 59.6026 14.1397C58.867 13.0739 59.3859 11.6238 60.6137 11.212L89.8534 1.40614C90.5919 1.15848 91.4027 1.36538 91.9602 1.90938C101.523 11.2405 117.922 15.8801 128.424 17.6217C130.238 17.9226 130.883 20.3397 129.403 21.4314L105.198 39.2851C104.977 39.4478 104.722 39.5652 104.454 39.6224Z" stroke="#A0A0A0" stroke-width="2" stroke-linecap="round"/>
</svg>
