<svg width="310" height="301" viewBox="0 0 310 301" fill="none" xmlns="http://www.w3.org/2000/svg">
<path d="M0.682133 292.981C-2.55687 290.109 11.8346 290.321 18.9377 290.188C19.9605 291.625 20.7134 291.651 22.5602 291.984C23.4126 294.177 3.92113 295.853 0.682133 292.981Z" fill="#A0A0A0"/>
<path d="M111.427 75.8784C110.769 78.2622 110.278 86.0079 112.864 92.3638" stroke="black" stroke-width="2" stroke-linecap="round"/>
<path d="M136.535 35.0576C142.565 39.8052 151.925 50.0529 142.828 54.2217C142.294 54.4659 142 55.057 142.152 55.6207C143.942 62.2486 143.659 75.9347 129.774 85.2029C129.567 85.3406 129.408 85.5455 129.333 85.7811L126.602 94.3265" stroke="black" stroke-width="2" stroke-linecap="round"/>
<path d="M130.566 69.9907C130.352 70.9327 130.908 72.8796 134.844 73.1308" stroke="black" stroke-width="2" stroke-linecap="round"/>
<path d="M109.332 93.922C115.471 91.7223 127.16 89.0305 127.16 96.6397V97.9603C127.16 98.8518 128.178 99.3569 128.883 98.8108" stroke="#A0A0A0" stroke-width="2" stroke-linecap="round"/>
<path d="M128.882 98.8102C138.737 91.1752 158.788 75.8783 165.853 64.2993" stroke="black" stroke-width="2" stroke-linecap="round"/>
<path d="M141.125 45.2629C141.125 47.327 140.501 49.1422 139.557 50.4102C138.613 51.6775 137.418 52.3281 136.218 52.3281C135.018 52.3281 133.824 51.6775 132.88 50.4102C131.936 49.1422 131.312 47.327 131.312 45.2629C131.312 43.1988 131.936 41.3836 132.88 40.1157C133.824 38.8483 135.018 38.1978 136.218 38.1978C137.418 38.1978 138.613 38.8483 139.557 40.1157C140.501 41.3836 141.125 43.1988 141.125 45.2629Z" stroke="black" stroke-width="2" stroke-linecap="round"/>
<path d="M118.359 51.5427L130.527 47.2251" stroke="black" stroke-width="2" stroke-linecap="round"/>
<path d="M127.78 43.3002C128.09 41.9921 129.23 38.9825 131.312 37.4126" stroke="black" stroke-width="2" stroke-linecap="round"/>
<path d="M136.807 46.4405C137.674 46.4405 138.377 45.9133 138.377 45.263C138.377 44.6126 137.674 44.0854 136.807 44.0854C135.94 44.0854 135.237 44.6126 135.237 45.263C135.237 45.9133 135.94 46.4405 136.807 46.4405Z" fill="black"/>
<path d="M142.786 124.861C150.671 120.309 169.465 102.844 181.554 69.4023" stroke="black" stroke-width="2" stroke-linecap="round"/>
<path d="M131.468 175.183C130.745 167.467 130.167 150.44 133.637 144.06C137.107 137.68 140.441 128.553 142.785 124.861" stroke="#A0A0A0" stroke-width="2" stroke-linecap="round"/>
<path d="M109.332 93.5415L64.1934 146.53" stroke="#A0A0A0" stroke-width="2" stroke-linecap="round"/>
<path d="M64.1934 146.693C67.5399 146.241 76.2394 146.46 84.2701 150.957C94.3088 156.577 104.937 166.462 131.312 175.183" stroke="#A0A0A0" stroke-width="2" stroke-linecap="round"/>
<path d="M131.312 175.183L122.284 181.463" stroke="#A0A0A0" stroke-width="2" stroke-linecap="round"/>
<path d="M64.1985 146.53C63.587 148.426 62.98 152.846 68.1184 158.306" stroke="#A0A0A0" stroke-width="2" stroke-linecap="round"/>
<path d="M97.1638 108.064C89.8593 114.149 71.3373 126.985 55.6846 129.655C52.0326 131.159 45.7456 135.385 49.8152 140.253C53.8848 145.121 56.598 151.048 57.446 153.403C58.0982 155.563 59.7216 158.573 63.6348 151.664" stroke="#A0A0A0" stroke-width="2" stroke-linecap="round"/>
<path d="M51.2408 142.212C48.2083 144.001 41.1369 147.417 37.1108 146.781C33.0847 146.146 30.4006 147.841 29.5618 148.768C29.1102 149.497 28.8263 150.993 31.3039 151.152C33.7814 151.311 36.7236 151.218 37.885 151.152" stroke="#A0A0A0" stroke-width="2" stroke-linecap="round"/>
<path d="M41.0353 148.493C39.6771 150.014 35.0594 153.473 27.4535 155.134C25.966 155.41 23.961 157.001 26.6774 158.869C29.0057 160.322 35.4474 158.994 38.707 157.001" stroke="#A0A0A0" stroke-width="2" stroke-linecap="round"/>
<path d="M38.6716 156.735C36.177 157.991 31.6867 161.335 33.6824 164.665C34.322 165.326 37.0213 165.378 42.7013 160.303L46.9229 156.735" stroke="#A0A0A0" stroke-width="2" stroke-linecap="round"/>
<path d="M47.1341 156.811L42.8237 160.412C41.5829 163.679 39.689 171.614 44.783 167.213C48.5055 163.412 47.7218 160.172 49.2892 159.211C50.8566 158.251 54.3832 154.545 55.9506 152.811" stroke="#A0A0A0" stroke-width="2" stroke-linecap="round"/>
<path d="M47.319 150.455C46.7968 152.071 46.3791 155.825 48.8854 157.913" stroke="#A0A0A0" stroke-width="2" stroke-linecap="round"/>
<path d="M94.8091 282.731C97.2781 282.077 102.255 278.767 102.411 270.76C102.567 262.753 105.855 248.975 107.479 243.088L123.462 172.436" stroke="#A0A0A0" stroke-width="2" stroke-linecap="round"/>
<path d="M129.35 58.6082C129.784 58.6082 130.135 58.3446 130.135 58.0194C130.135 57.6943 129.784 57.4307 129.35 57.4307C128.916 57.4307 128.565 57.6943 128.565 58.0194C128.565 58.3446 128.916 58.6082 129.35 58.6082Z" fill="black"/>
<path d="M131.901 60.9632C132.226 60.9632 132.49 60.7875 132.49 60.5707C132.49 60.354 132.226 60.1782 131.901 60.1782C131.576 60.1782 131.312 60.354 131.312 60.5707C131.312 60.7875 131.576 60.9632 131.901 60.9632Z" fill="black"/>
<path d="M126.21 62.5334C126.427 62.5334 126.602 62.182 126.602 61.7484C126.602 61.3148 126.427 60.9634 126.21 60.9634C125.993 60.9634 125.817 61.3148 125.817 61.7484C125.817 62.182 125.993 62.5334 126.21 62.5334Z" fill="black"/>
<path d="M68.2145 52.9833C77.7535 35.2533 91.9967 33.0241 97.9264 34.1255C110.241 15.2676 127.247 9.04655 137.607 14.6845C145.895 19.1947 139.106 30.5613 134.675 35.681L130.375 29.46C127.404 35.2145 118.907 33.0888 114.737 31.7927C118.32 39.3099 124.041 58.7384 112 76.3131C99.9594 93.8878 84.8297 94.1985 77.2059 89.1441C70.169 84.1544 58.6755 70.7139 68.2145 52.9833Z" fill="black"/>
<path d="M63.4082 285.086C64.7093 287.123 69.0427 290.966 75.9685 290.05" stroke="#A0A0A0" stroke-width="2" stroke-linecap="round"/>
<path d="M74.3167 147.708C71.8608 154.733 60.3545 169.173 50.0768 187.322C43.2249 198.705 26.8838 224.126 16.3345 234.742C14.9124 236.758 13.5808 241.337 19.6311 243.523C24.2852 245.474 26.3796 250.002 27.0001 254.841C27.7758 260.891 37.6658 265.379 44.2591 260.891C49.5143 257.313 64.6253 231.545 76.0414 216.984C78.948 213.276 81.6151 210.295 83.819 208.593" stroke="#A0A0A0" stroke-width="2" stroke-linecap="round"/>
<path d="M76.3233 217.182L63.4082 285.086C69.9728 283.334 88.0055 280.027 99.1265 280.027" stroke="#A0A0A0" stroke-width="2" stroke-linecap="round"/>
<path d="M12.0418 279.474C1.3433 258.736 11.2607 244.935 16.6244 241.518C24.9392 244.133 25.1639 252.851 26.5122 256.992L23.4003 265.513C21.3179 269.178 22.5326 276.348 23.4003 279.474C26.9971 293.959 21.5684 295.351 18.9042 291.472L12.0418 279.474Z" fill="black"/>
<path d="M69.0842 298.491C65.4804 295.637 72.6079 294.53 79.8403 294.113C82.3599 296.366 99.0953 297.135 99.9119 297.657C92.2126 300.159 72.2423 300.991 69.0842 298.491Z" fill="#A0A0A0"/>
<path d="M105.282 297.269C77.9582 301.015 72.2875 290.208 72.8676 283.89C77.5667 281.928 90.4884 281.214 96.5798 280.769C94.8393 284.871 97.0147 284.336 98.5376 285.451C100.496 286.789 105.934 288.424 108.98 288.573C122.685 289.242 111.953 296.303 105.282 297.269Z" fill="black"/>
<path d="M169.646 29.7494C170.898 29.0298 173.479 28.7681 173.793 33.4782" stroke="black" stroke-width="2" stroke-linecap="round"/>
<path d="M167.12 42.3095C167.251 40.4781 167.12 36.3042 165.55 34.2632C163.588 31.7118 163.195 26.8055 167.12 27.198C168.366 27.3226 169.159 28.3578 169.646 29.7493C170.386 31.8645 170.418 34.8031 170.26 36.6182" stroke="black" stroke-width="2" stroke-linecap="round"/>
<path d="M164.654 47.4124C164.495 45.6461 163.824 41.564 162.411 39.366C160.645 36.6185 160.448 29.5533 164.177 30.3383" stroke="black" stroke-width="2" stroke-linecap="round"/>
<path d="M167.121 60.7575C166.139 60.7575 164.059 59.8155 163.588 56.0474C163.117 52.2793 161.429 49.8984 160.644 49.1785C160.186 48.0665 159.702 45.7637 161.429 45.4497C162.446 45.2648 163.649 46.2504 164.653 47.4122L166.336 49.7673" stroke="black" stroke-width="2" stroke-linecap="round"/>
<path d="M176.148 43.2909C176.606 42.4407 177.051 40.2686 175.167 38.3846C172.812 36.0296 173.401 33.8708 174.774 33.282C176.148 32.6932 178.111 33.0858 180.073 38.9734C182.036 44.0759 184.94 57.0287 181.643 68.019" stroke="black" stroke-width="2" stroke-linecap="round"/>
<path d="M185.113 12.5824L188.193 6.98389" stroke="black" stroke-width="2" stroke-linecap="round"/>
<path d="M158.485 15.2266L163.98 18.7591" stroke="black" stroke-width="2" stroke-linecap="round"/>
<path d="M168.456 1L173.832 13.3605" stroke="black" stroke-width="2" stroke-linecap="round"/>
<path d="M187.484 29.5615C187.484 25.4407 188.443 18.5619 193.427 24.7917C196.494 29.2694 197.645 38.1859 195.344 42.7023" stroke="black" stroke-width="2" stroke-linecap="round"/>
<path d="M177.324 33.3574C176.685 31.0862 176.365 26.8551 180.199 28.101L184.417 36.667" stroke="black" stroke-width="2" stroke-linecap="round"/>
<path d="M184.417 36.6671L180.2 28.1011C179.88 25.5702 181.542 21.4819 185.568 24.7915L187.485 29.5612L189.402 34.3309" stroke="black" stroke-width="2" stroke-linecap="round"/>
<path d="M189.494 48.7861C188.447 51.076 187.335 56.2831 191.26 58.7951" stroke="black" stroke-width="2" stroke-linecap="round"/>
<path d="M194.4 45.4497C195.316 42.8333 198.089 37.639 201.858 37.796C205.626 37.953 202.643 42.8984 201.858 44.6647L196.362 55.4587C195.185 58.4025 193.419 63.7014 197.54 69.7853C201.661 75.2804 215.873 89.4107 231.181 91.7658" stroke="black" stroke-width="2" stroke-linecap="round"/>
<path d="M228.352 173.8C229.529 177.987 233.847 187.695 241.697 193.033M216.184 166.931L231.688 171.445L216.184 166.931ZM230.903 179.295C232.604 173.735 234.789 159.945 229.922 149.268C223.838 135.923 220.109 118.849 223.053 107.466C225.408 98.36 233.978 96.9991 237.968 97.4572C244.248 98.1778 255.082 105.7 254.454 126.11C253.669 151.623 247.781 173.408 239.342 190.286L230.903 179.295Z" stroke="#A0A0A0" stroke-width="2" stroke-linecap="round"/>
<path d="M224.623 188.519C224.623 178.51 224.558 171.445 223.446 168.698C238.518 174.35 256.809 172.885 264.07 171.445C264.267 171.903 265.876 176.273 270.743 190.089C276.827 207.36 272.509 265.059 270.743 271.535C268.977 278.011 264.267 278.208 257.398 277.423C251.903 276.795 244.641 261.722 241.697 254.265C227.96 228.555 224.623 200.264 224.623 188.519Z" fill="black"/>
<path d="M277.914 136.329C279.86 141.105 284.264 153.246 286.305 163.608C280.679 167.599 264.855 175.174 246.015 172.819L216.184 166.931C215.007 157.053 214.868 131.894 222.719 109.442C222.719 107.414 224.78 101.735 229.333 99.2231" stroke="#A0A0A0" stroke-width="2" stroke-linecap="round"/>
<path d="M276.238 153.39C276.154 152.13 278.479 142.962 277.913 136.329C277.598 132.631 277.194 128.016 276.688 122.395C275.275 106.695 269.688 94.6581 267.072 90.6019C264.455 86.5461 258.264 84.1118 253.357 85.8781" stroke="#A0A0A0" stroke-width="2" stroke-linecap="round"/>
<path d="M272.471 258.564C274.162 221.755 266.659 186.975 262.5 173.407C272.99 171.992 281.253 167.457 284.284 165.95C287.33 177.433 291.787 206.915 293.619 220.418C298.188 235.204 297.215 256.467 296.157 265.25C296.834 270.598 292.492 272.722 290.235 273.115C278.223 277.048 273.387 265.053 272.471 258.564Z" fill="black"/>
<path d="M176.933 32.6934C180.269 38.0577 185.215 51.0627 181.447 69.5891C181.774 73.5797 187.598 86.7755 192.045 92.7471C198.914 101.971 213.24 112.373 222.072 115.316" stroke="black" stroke-width="2" stroke-linecap="round"/>
<path d="M237.824 88.7099C235.228 87.112 215.697 88.6522 211.9 64.0847C205.399 64.1608 201.864 58.8357 206.825 56.5567C212.112 53.83 211.716 48.8239 210.758 45.8742C209.234 42.0061 209.142 37.9447 209.471 37.0952" stroke="black" stroke-width="2" stroke-linecap="round"/>
<path d="M217.294 55.254C216.365 55.2649 215.599 54.1444 215.582 52.7513C215.566 51.3582 216.306 50.22 217.234 50.2092C218.163 50.1983 218.929 51.3188 218.946 52.7119C218.962 54.105 218.222 55.2431 217.294 55.254Z" fill="black"/>
<path d="M221.257 47.1038C220.172 45.9447 217.367 44.2487 214.826 46.7399" stroke="black" stroke-width="2" stroke-linecap="round"/>
<path d="M228.625 69.6797C226.631 72.7471 224.443 73.6181 220.192 71.6387" stroke="black" stroke-width="2" stroke-linecap="round"/>
<path d="M244.943 48.1792C245.405 49.1934 245.792 51.4959 243.645 52.5918" stroke="black" stroke-width="2" stroke-linecap="round"/>
<path d="M267.825 37.764C270.354 51.602 262.44 62.0188 256.703 70.0268C250.575 66.7164 240.533 58.8442 244.384 57.9944C248.433 57.1015 252.703 46.059 248.771 42.6811C244.158 38.7177 240.001 44.7143 239.209 49.2611L235.493 42.8365C236.544 38.3428 236.956 30.4603 230.2 34.8793C223.443 39.2981 213.533 38.1407 209.422 37.0095C201.317 31.208 188.724 17.6757 203.195 9.95861C215.232 3.54014 230.894 11.6548 240.454 18.9463C246.928 17.2374 264.376 18.8964 267.825 37.764Z" fill="black"/>
<path d="M256.252 69.1001C253.326 72.6225 251.872 75.5475 252.053 81.6066" stroke="black" stroke-width="2" stroke-linecap="round"/>
<path d="M274.421 300.872C250.085 301.854 238.506 296.971 238.506 293.611C238.506 292.237 237.721 290.863 243.216 288.901C240.861 292.106 241.725 298.203 264.019 296.947C267.617 297.143 275.716 296.201 279.327 290.863H281.093C298.756 286.349 309.158 290.055 309.158 293.415C309.158 296.775 294.635 300.057 274.421 300.872Z" fill="#A0A0A0"/>
<path d="M278.981 290.777C292.126 292.033 293.784 281.488 292.97 276.058" stroke="#A0A0A0" stroke-width="2" stroke-linecap="round"/>
<path d="M261.569 281.161C261.569 282.011 261.373 283.869 260.588 284.497C259.606 285.282 241.944 283.319 242.336 292.151C242.14 293.394 244.102 295.291 248.812 295.88C255.437 296.708 274.427 299.125 278.981 290.777C279.246 290.291 279.462 289.768 279.624 289.207L281.391 281.749" stroke="#A0A0A0" stroke-width="2" stroke-linecap="round"/>
</svg>
