<svg width="119" height="152" viewBox="0 0 119 152" fill="none" xmlns="http://www.w3.org/2000/svg">
<path d="M67.3037 106.674C72.9398 106.535 85.9443 104.719 91.1337 102.988C94.2649 101.945 96.8951 103.114 96.5611 106.955C96.2271 110.796 84.2451 117.674 74.434 119.271C68.45 120.245 54.3109 121.609 45.627 119.271C36.9432 116.933 26.979 126.368 23.0824 131.378C20.5774 134.509 14.5655 142.817 10.5576 151" stroke="#A0A0A0" stroke-width="2" stroke-linecap="round"/>
<path d="M68.1714 103.824C74.3642 102.919 88.4453 99.9441 92.1772 98.1878C95.7259 96.5179 98.0221 98.1878 98.6484 100.693C98.7875 101.389 98.6484 103.031 96.9784 104.033" stroke="#A0A0A0" stroke-width="2" stroke-linecap="round"/>
<path d="M62.3262 98.1866C67.3361 95.96 78.1909 92.4252 81.5308 96.0991" stroke="#A0A0A0" stroke-width="2" stroke-linecap="round"/>
<path d="M66.2925 100.692C66.9187 100.275 75.4773 98.605 83.6184 95.4738C85.358 94.9171 89.0458 94.6805 89.8808 98.1875" stroke="#A0A0A0" stroke-width="2" stroke-linecap="round"/>
<path d="M43.7481 106.955C52.585 108.973 69.7161 111.213 67.5452 104.032C65.4881 97.2284 55.8971 96.509 50.6343 97.0442C50.0989 97.0986 49.5589 96.95 49.1203 96.6381C35.1534 86.7045 16.2813 99.3689 8.88742 107.79C6.10413 111.13 4.71249 113.008 1.79004 117.601" stroke="#A0A0A0" stroke-width="2" stroke-linecap="round"/>
<path d="M42.0783 36.6434V36.6434C41.8092 36.6422 41.6913 36.9781 41.9085 37.1368C47.4328 41.1745 59.4538 47.8707 69.3365 46.2919C69.5304 46.261 69.7289 46.2837 69.9091 46.3618L78.9488 50.2834" stroke="black" stroke-width="2" stroke-linecap="round"/>
<path d="M33.5196 21.6104C32.4063 21.9583 30.2215 23.5308 30.3884 27.0378C30.6553 31.4865 34.0347 34.2994 35.691 35.4628C37.7785 36.7153 39.4735 36.6113 41.2432 36.6401V36.6401C41.3072 36.6411 42.9004 36.4921 42.9614 36.4725C44.1063 36.1044 45.3927 35.0981 45.0007 32.8805" stroke="black" stroke-width="2" stroke-linecap="round"/>
<path d="M37.2768 15.1387C35.6764 15.6953 32.6843 17.7689 33.5193 21.6098C34.3543 25.4507 34.9949 26.5558 35.2732 27.1124C36.2388 29.2045 37.7988 30.4307 38.5336 30.8284C38.5864 30.857 38.6365 30.8879 38.6855 30.9225C39.6882 31.6317 42.1641 32.5878 45.0003 32.88C45.789 32.9612 48.3875 33.0315 48.9666 33.0909C51.2627 33.0909 52.724 32.2058 51.889 28.6098" stroke="black" stroke-width="2" stroke-linecap="round"/>
<path d="M41.1157 7.83203C39.5732 7.83203 36.2333 9.502 37.277 15.1382C38.112 19.6471 39.0309 21.6845 40.2833 23.1457C41.5358 24.607 43.2058 26.2769 45.7108 27.0367L51.8005 28.5867C51.8595 28.6017 51.9198 28.6113 51.9806 28.6154L53.1286 28.6919C53.2747 28.7016 53.4214 28.6812 53.5544 28.62C54.8165 28.0395 56.6532 26.3866 55.2292 23.6968" stroke="black" stroke-width="2" stroke-linecap="round"/>
<path d="M92.0997 25.8596L85.1537 22.475C84.8476 22.3258 84.641 22.0329 84.5884 21.6964C83.82 16.7802 79.9301 7.37098 69.6327 5.11844C58.9449 2.78048 51.2631 1.50017 48.7581 1.15226C46.0444 0.665184 40.7005 1.06876 41.0345 6.57967C41.0606 7.01055 41.0877 7.42807 41.1157 7.83216C41.445 12.5963 42.5795 14.1698 44.0407 16.3908C46.3808 19.8375 48.7976 21.3266 49.8856 21.8934C51.8892 22.9371 57.3165 25.3669 57.7341 20.1482V18.0435" stroke="black" stroke-width="2" stroke-linecap="round"/>
<path d="M69.6328 5.11768C66.7104 5.32642 57.1497 6.8294 52.3068 7.8314C47.4639 8.8334 48.6189 13.1196 49.8018 15.1375C51.9906 18.2383 59.8108 18.0453 62.5391 16.9259C63.0497 16.7164 63.7266 16.6667 64.1705 16.9946C69.0425 20.592 70.699 20.1474 77.4402 20.1474" stroke="black" stroke-width="2" stroke-linecap="round"/>
<path d="M55.313 27.1123L55.229 53.1304" stroke="black" stroke-width="2" stroke-linecap="round"/>
<rect x="50.8018" y="54.3389" width="8.85481" height="4.67989" rx="2.33994" stroke="black" stroke-width="2"/>
<path d="M55.229 59.6011L55.229 74.6308" stroke="black" stroke-width="2" stroke-linecap="round"/>
<path d="M102.543 63.4526L78.7458 50.0928C75.6842 44.5958 73.4439 32.5165 87.3046 27.3395C100.032 22.5858 112.139 28.5741 117.984 31.9142" stroke="black" stroke-width="2" stroke-linecap="round"/>
<path d="M49.5928 67.3809H53.229C54.3335 67.3809 55.229 68.2763 55.229 69.3809V71.6433C55.229 72.7478 54.3335 73.6433 53.229 73.6433H51.3672C50.7331 73.6433 50.219 73.1292 50.219 72.4951V72.182C50.219 71.7209 50.5929 71.347 51.054 71.347H51.1584C51.5619 71.347 51.889 71.0199 51.889 70.6164C51.889 70.2129 51.5619 69.8858 51.1584 69.8858H49.5928C48.9011 69.8858 48.3403 69.3251 48.3403 68.6333C48.3403 67.9416 48.9011 67.3809 49.5928 67.3809Z" fill="black"/>
</svg>
