<svg width="241" height="151" viewBox="0 0 241 151" fill="none" xmlns="http://www.w3.org/2000/svg">
<path d="M154.935 41.0171H138.009L137.21 48.5495H155.414L154.935 41.0171Z" fill="black"/>
<path d="M156.421 55.1396H136.577L135.641 63.2997H156.983L156.421 55.1396Z" fill="black"/>
<path d="M157.594 70.2041H134.832L133.758 78.9919H158.238L157.594 70.2041Z" fill="black"/>
<path d="M158.897 86.21H132.493L131.247 95.3116H154.585L159.493 92.8008L158.897 86.21Z" fill="black"/>
<path d="M129.678 108.65L138.779 34.7388M154.786 34.7388L159.493 92.0161" stroke="black" stroke-width="2" stroke-linecap="round"/>
<path d="M135.798 34.7388H158.552" stroke="black" stroke-width="2" stroke-linecap="round"/>
<path d="M135.798 20.6162H158.552" stroke="black" stroke-width="2" stroke-linecap="round"/>
<path d="M139.093 24.0688V30.032" stroke="black" stroke-width="2" stroke-linecap="round"/>
<path d="M154.472 24.0688V30.032" stroke="black" stroke-width="2" stroke-linecap="round"/>
<circle cx="147.253" cy="26.8935" r="2.82464" fill="black"/>
<rect x="144.429" y="15.2798" width="5.64927" height="2.82464" rx="1.41232" fill="black"/>
<path d="M121.989 19.5175L61.1021 1.00049" stroke="black" stroke-width="2" stroke-linecap="round"/>
<path d="M119.321 28.148L7.12012 23.5972" stroke="black" stroke-width="2" stroke-linecap="round"/>
<path d="M117.752 34.2686L1 70.0473" stroke="black" stroke-width="2" stroke-linecap="round"/>
<path d="M123.872 43.5278L31.4434 109.436" stroke="black" stroke-width="2" stroke-linecap="round"/>
<path d="M63.1418 134.765C68.9708 132.986 112.443 120.912 127.972 110.247" stroke="#A0A0A0" stroke-width="2" stroke-linecap="round"/>
<path d="M104.405 133.15C112.054 120.883 121.497 112.69 140.406 102.891C164.042 90.6429 169.442 88.4928 179.552 73.3854" stroke="#A0A0A0" stroke-width="2" stroke-linecap="round"/>
<path d="M179.552 73.3843C181.68 77.5873 187.09 88.3317 191.038 94.0805M186.784 91.9071C190.784 93.4542 199.241 98.5429 201.059 106.522C202.878 114.5 210.239 120.227 213.211 123.639" stroke="#A0A0A0" stroke-width="2" stroke-linecap="round"/>
<path d="M187.842 105.878C190.687 110.271 196.014 115.874 212.798 122.853" stroke="#A0A0A0" stroke-width="2" stroke-linecap="round"/>
<path d="M234.842 148.124C229.887 142.066 218.38 128.415 211.993 122.273" stroke="#A0A0A0" stroke-width="2" stroke-linecap="round"/>
<path d="M179.552 73.3843C178.101 79.2504 175.555 92.4473 179.186 99.8959" stroke="#A0A0A0" stroke-width="2" stroke-linecap="round"/>
<path d="M176.981 94.2787C173.795 95.9742 169.733 102.19 179.296 115.38" stroke="#A0A0A0" stroke-width="2" stroke-linecap="round"/>
<path d="M169.619 117.955C172.191 118.222 177.708 118.141 179.203 115.679" stroke="#A0A0A0" stroke-width="2" stroke-linecap="round"/>
<path d="M173.089 142.702L169.619 117.955" stroke="#A0A0A0" stroke-width="2" stroke-linecap="round"/>
</svg>
