<svg width="424" height="401" viewBox="0 0 424 401" fill="none" xmlns="http://www.w3.org/2000/svg">
<path d="M19.037 184.073C21.3968 184.073 23.3098 182.16 23.3098 179.8C23.3098 177.44 21.3968 175.527 19.037 175.527C16.6772 175.527 14.7642 177.44 14.7642 179.8C14.7642 182.16 16.6772 184.073 19.037 184.073Z" stroke="#A0A0A0" stroke-width="2"/>
<path d="M27.4096 180.236C36.028 179.349 49.5511 180.398 51.1494 187.064C52.7478 193.731 46.6443 196.169 43.3929 196.555C31.0138 198.522 14.5996 197.596 14.5996 187.064" stroke="#A0A0A0" stroke-width="2" stroke-linecap="round"/>
<path d="M24.2956 190.318C24.8402 190.318 25.2816 189.877 25.2816 189.332C25.2816 188.788 24.8402 188.346 24.2956 188.346C23.751 188.346 23.3096 188.788 23.3096 189.332C23.3096 189.877 23.751 190.318 24.2956 190.318Z" stroke="#A0A0A0" stroke-width="2"/>
<path d="M33.8276 189.332C33.8276 189.811 33.3813 190.318 32.6772 190.318C31.9731 190.318 31.5269 189.811 31.5269 189.332C31.5269 188.853 31.9731 188.346 32.6772 188.346C33.3813 188.346 33.8276 188.853 33.8276 189.332Z" stroke="#A0A0A0" stroke-width="2"/>
<path d="M41.0583 190.318C41.6029 190.318 42.0443 189.877 42.0443 189.332C42.0443 188.788 41.6029 188.346 41.0583 188.346C40.5137 188.346 40.0723 188.788 40.0723 189.332C40.0723 189.877 40.5137 190.318 41.0583 190.318Z" stroke="#A0A0A0" stroke-width="2"/>
<path d="M343.277 63.7774C345.455 63.7774 347.221 62.0116 347.221 59.8333C347.221 57.655 345.455 55.8892 343.277 55.8892C341.098 55.8892 339.333 57.655 339.333 59.8333C339.333 62.0116 341.098 63.7774 343.277 63.7774Z" stroke="#A0A0A0" stroke-width="2"/>
<path d="M351.026 56.3813C353.916 56.3813 362.175 56.3813 366.059 56.3813C369.206 56.3813 370.721 57.0775 370.721 61.9498C370.721 66.6837 370.682 72.8159 370.721 75.2908C370.748 77.0308 369.882 78.9565 366.992 79.2349C364.101 79.5133 352.502 79.351 347.063 79.2349C345.043 79.2349 341.469 78.0898 341.469 73.4344V68.2141" stroke="#A0A0A0" stroke-width="2" stroke-linecap="round"/>
<path d="M349.029 64.5991L356.26 69.5293" stroke="#A0A0A0" stroke-width="2" stroke-linecap="round"/>
<path d="M356.259 69.5297L369.406 57.3687" stroke="#A0A0A0" stroke-width="2" stroke-linecap="round"/>
<path d="M359.592 66.5718L363.184 70.1872L366.777 73.8027" stroke="#A0A0A0" stroke-width="2" stroke-linecap="round"/>
<path d="M346.399 73.8027L351.7 66.5718" stroke="#A0A0A0" stroke-width="2" stroke-linecap="round"/>
<path d="M372.181 310.279C371.089 311.373 370.147 312.316 369.498 312.966C367.807 314.659 366.031 313.671 365.355 312.966L354.566 302.571C352.973 301.09 351.626 299.628 345.606 293.884C344.99 293.267 344.013 291.691 345.037 290.324C346.061 288.957 351.816 281.78 354.566 278.362C355.4 277.154 357.212 275.717 359.524 277.867C361.515 279.718 368.341 286.126 374.172 290.998" stroke="#A0A0A0" stroke-width="2" stroke-linecap="round"/>
<path d="M354.452 278.732C354.791 284.967 357.079 295.004 368.913 298.781" stroke="#A0A0A0" stroke-width="2" stroke-linecap="round"/>
<path d="M384.462 299.264C383.92 297.885 379.755 296.28 378.181 299.264C376.559 302.342 377.8 304.935 378.855 305.443C380.202 306.092 382.181 306.432 384.271 302.696" stroke="#A0A0A0" stroke-width="2" stroke-linecap="round"/>
<path d="M384.807 297.345C384.686 298.065 384.561 298.368 384.462 299.263C384.334 300.431 384.252 301.655 384.272 302.695C384.311 304.521 384.673 305.781 385.698 305.173C387.756 303.953 388.867 302.953 389.162 301.933C389.655 300.217 389.659 296.931 386.885 294.783C383.539 292.19 379.765 292.261 376.798 294.783C373.851 297.287 373.045 301.296 373.206 303.375C373.383 305.65 375.08 310.536 380.62 310.612C386.158 310.688 389.159 307.702 389.619 306.304" stroke="#A0A0A0" stroke-width="2" stroke-linecap="round"/>
<path d="M92.8246 258.213C91.643 253.651 87.7192 245.238 81.4796 248.082C75.2397 250.925 78.8795 256.02 81.4796 258.213C83.2292 259.397 86.9906 260.665 88.0384 256.257C89.0862 251.85 84.6704 250.037 83.4293 251.992C82.7749 252.762 82.0358 254.693 84.3158 256.257" stroke="#A0A0A0" stroke-width="2" stroke-linecap="round"/>
<path d="M123.561 34.8514L126.504 36.3773C127.673 36.9833 129.065 36.9753 130.227 36.356L133.152 34.7965C134.615 34.0167 136.337 35.2528 136.066 36.8882L135.525 40.159C135.31 41.4578 135.747 42.7793 136.695 43.6928L139.083 45.9934C140.276 47.1436 139.633 49.1633 137.994 49.411L134.716 49.9065C133.414 50.1033 132.292 50.928 131.716 52.1119L130.266 55.0933C129.541 56.5839 127.421 56.5961 126.679 55.1138L125.195 52.1493C124.606 50.972 123.475 50.1602 122.171 49.9784L118.887 49.5204C117.246 49.2914 116.579 47.2793 117.759 46.1154L120.12 43.7877C121.058 42.8634 121.48 41.537 121.25 40.2407L120.671 36.9763C120.382 35.3441 122.089 34.0884 123.561 34.8514Z" stroke="#A0A0A0" stroke-width="2"/>
<path d="M222.159 184.045V211.983" stroke="black" stroke-width="2" stroke-linecap="round"/>
<path d="M243.194 187.332V213.955" stroke="black" stroke-width="2" stroke-linecap="round"/>
<path d="M193.994 308.312C187.048 309.177 170.788 312.367 167.226 318.853C166.157 320.8 164.918 325.535 168.508 328.908C172.099 332.281 178.66 331.394 181.491 330.529L198.001 323.88" stroke="black" stroke-width="2" stroke-linecap="round"/>
<path d="M288.651 259.365C275.69 259.782 218.447 287.495 191.446 301.299C189.146 316.51 198.849 327.432 203.988 330.991C230.903 323.178 286.142 307.342 291.786 306.508C297.43 305.675 303.022 301.647 305.112 299.736C319.745 282.65 308.945 268.134 301.716 263.012C296.569 259.365 292.126 259.253 288.651 259.365Z" fill="black"/>
<path d="M167.248 255.489C176.431 256.101 216.49 271.627 235.471 279.764L192.062 301.455C172.636 307.152 160.702 305.275 157.057 304.047C136.019 293.912 144.262 268.906 152.621 259.644C158.008 255.059 163.958 255.269 167.248 255.489Z" fill="black"/>
<path d="M269.452 311.271C275.191 314.029 278.294 317.643 279.868 320.606C283.239 328.323 277.185 332.962 270.273 330.781C266.453 329.576 265.552 328.768 263.529 327.09C262.502 326.238 257.708 321.783 252.233 316.521" stroke="black" stroke-width="2" stroke-linecap="round"/>
<path d="M159.626 186.565L163.299 253.313C163.591 258.614 167.975 262.763 173.284 262.763H283.153C288.676 262.763 293.153 258.286 293.153 252.763V184.485C293.153 178.909 288.594 174.411 283.019 174.486L169.476 176.016C163.791 176.093 159.314 180.888 159.626 186.565Z" fill="black"/>
<rect x="162.997" y="263.914" width="130.156" height="6.24486" rx="3.12243" fill="black"/>
<path d="M243.523 139.674C254.972 139.51 280.171 148.22 290.196 175.664" stroke="black" stroke-width="2" stroke-linecap="round"/>
<path d="M218.379 139.509C192.249 144.604 179.76 155.779 169.899 177.307" stroke="black" stroke-width="2" stroke-linecap="round"/>
<path d="M305.808 165.502L312.217 154.82" stroke="black" stroke-width="2" stroke-linecap="round"/>
<path d="M312.217 168.461L320.927 161.23" stroke="black" stroke-width="2" stroke-linecap="round"/>
<path d="M313.531 173.391C315.229 174.048 319.086 174.673 320.926 171.912" stroke="black" stroke-width="2" stroke-linecap="round"/>
<path d="M145.413 163.503L135.553 153.314" stroke="black" stroke-width="2" stroke-linecap="round"/>
<path d="M155.438 161.859L149.521 146.576" stroke="black" stroke-width="2" stroke-linecap="round"/>
<path d="M142.948 169.255L135.553 166.461" stroke="black" stroke-width="2" stroke-linecap="round"/>
<path d="M296.769 194.098C302.85 203.629 309.752 214.969 296.769 236.305" stroke="black" stroke-width="2" stroke-linecap="round"/>
<path d="M243.687 140.495C245.166 136.222 243.819 133.347 242.504 132.799C234.616 140.03 222.652 137.346 218.215 132.964C216.637 134.41 217.557 138.687 218.215 140.002C226.76 149.468 238.921 144.165 243.687 140.495Z" fill="black"/>
<path d="M208.684 166.789L209.346 165.772C213.067 160.061 220.309 157.781 226.63 160.33V160.33C232.306 162.619 238.81 161.031 242.793 156.384L247.961 150.355" stroke="black" stroke-width="2" stroke-linecap="round"/>
<path d="M157.246 200.151C154.781 205.958 151.855 220.036 159.875 229.896" stroke="black" stroke-width="2" stroke-linecap="round"/>
<path d="M266.348 73.316C262.733 86.2987 260.925 87.4491 255.666 93.2009C255.666 87.5165 254.689 77.9751 254.689 74.0021C237.47 74.0021 222.938 66.9729 217.825 63.4583C218.008 75.3774 206.834 83.1706 206.834 83.1706C206.834 83.1706 208.437 87.984 209.353 98.757C210.085 107.375 207.979 105.71 206.834 103.8C203.537 93.1642 198.133 96.0065 195.843 98.757C167.745 53.1023 210.955 44.2809 219.198 45.1213C225.426 39.8036 234.112 35.6363 240.218 35.0251C262.24 32.8207 272.21 52.2649 266.348 73.316Z" fill="black"/>
<path d="M207.219 111.925C210.177 129.984 230.032 142.97 244.359 128.341C258.687 113.711 255.82 86.9332 254.289 74.4375" stroke="black" stroke-width="2" stroke-linecap="round"/>
<path d="M195.518 97.6382C193.71 102.075 195.406 111.908 207.219 111.908" stroke="black" stroke-width="2" stroke-linecap="round"/>
<path d="M200.728 100.076C200.466 101.025 200.675 103.275 203.603 104.677" stroke="black" stroke-width="2" stroke-linecap="round"/>
<path d="M253.891 109.607C257.746 107.999 260.464 102.047 259.418 92.5156" stroke="black" stroke-width="2" stroke-linecap="round"/>
<path d="M232.198 120.454C235.978 121.44 235.739 118.726 238.607 116.345" stroke="black" stroke-width="2" stroke-linecap="round"/>
<ellipse cx="243.482" cy="97.4949" rx="2.46508" ry="2.46508" fill="black"/>
<ellipse cx="221.789" cy="97.823" rx="2.46508" ry="2.46508" fill="black"/>
<path d="M216.421 92.1872C216.94 90.6599 219.178 87.8343 223.981 88.7507" stroke="black" stroke-width="2" stroke-linecap="round"/>
<path d="M239.429 89.2288C240.574 88.2367 243.69 86.8477 246.988 89.2288" stroke="black" stroke-width="2" stroke-linecap="round"/>
<path d="M231.477 96.1304C231.095 99.3758 230.834 105.957 232.855 106.319" stroke="black" stroke-width="2" stroke-linecap="round"/>
<path d="M326.186 245.207C370.064 257.368 448.881 271.336 413.121 229.923C401.836 218.803 385.183 205.765 358.396 194.262" stroke="#A0A0A0" stroke-width="2" stroke-linecap="round"/>
<path d="M373.679 160.24C400.959 142.765 444.904 106.665 402.438 102.064C359.973 97.4622 321.2 113.403 307.122 121.949" stroke="#A0A0A0" stroke-width="2" stroke-linecap="round"/>
<path d="M268.009 134.704C286.087 95.7554 315.339 15.0323 287.73 3.7258C253.219 -10.4073 208.519 30.3486 172.036 127.637" stroke="#A0A0A0" stroke-width="2" stroke-linecap="round"/>
<path d="M131.832 101.153C91.4048 79.0218 8.874 44.9818 2.16899 85.8692C-4.53602 126.757 77.3813 160.862 119.178 172.804" stroke="#A0A0A0" stroke-width="2" stroke-linecap="round"/>
<path d="M129.909 194.262C70.9119 224.336 -3.01103 265.928 37.9356 287.606C54.6978 296.48 97.5904 291.057 117.311 283.005" stroke="#A0A0A0" stroke-width="2" stroke-linecap="round"/>
<ellipse cx="226.432" cy="391.14" rx="81.3476" ry="9.86031" fill="#A0A0A0"/>
</svg>
