<svg width="165" height="152" viewBox="0 0 165 152" fill="none" xmlns="http://www.w3.org/2000/svg">
<path d="M94.582 39.8667H117.862C120.696 39.8667 125.865 37.2837 124.137 26.9165C122.315 15.9846 131.008 16.0756 134.663 17.4013C136.553 18.0767 139.765 20.9255 137.497 26.9165C134.663 34.4054 136.485 40.278 142.356 40.278H161.408C162.513 40.278 163.408 41.1734 163.408 42.278V110.52C163.408 111.632 162.505 112.531 161.393 112.521C156.078 112.477 141.901 112.376 139.117 112.539C135.675 112.742 136.273 116.497 138.307 121.244C141.344 128.329 138.206 136.974 127.983 135.212C122.113 134.199 119.683 127.924 122.113 121.244C124.542 114.564 121.708 112.539 119.076 112.539C113.73 112.539 101.222 112.472 95.8916 112.539" stroke="#A0A0A0" stroke-width="2" stroke-linecap="round"/>
<path d="M25.1152 111.551V100.481V85.9601C25.1152 82.4334 25.6143 79.3562 21.3691 79.1142C17.1239 78.8722 15.1024 83.6781 7.82479 82.0185C3.98395 81.1426 0.749516 77.2472 0.749512 72.6833C0.749505 64.8002 9.30518 60.0438 17.5281 65.2151C25.1151 69.9864 25.1152 61.0661 25.1152 58.1618V40.2466C25.1152 39.142 26.0106 38.2466 27.1152 38.2466H53.8209C59.4811 38.6615 56.0445 45.0924 54.4273 49.034C51.1928 56.9171 55.5728 61.3427 58.6725 62.5182C69.5887 65.2151 72.2167 53.5979 68.578 49.034C63.6027 42.7937 64.9392 38.8689 67.3651 38.8689H92.9085C94.0705 38.8689 95.0026 39.8565 94.9852 41.0183C94.9261 44.968 95.06 52.2374 95.06 59.4065C95.06 70.1939 104.763 66.6672 104.763 66.8747C104.763 67.0821 119.303 63.001 120.531 74.3429C121.34 81.8111 113.456 86.5823 104.763 83.8854C97.8093 81.7278 96.6772 84.3005 96.6772 86.5823V111.551C96.6772 112.655 95.7818 113.551 94.6772 113.551H66.6693C65.9715 113.551 65.3131 113.188 64.989 112.57C61.862 106.608 65.194 103.705 67.1629 98.8219C69.5887 92.8059 66.9375 87.7957 62.9177 86.5823C57.6617 84.9958 48.3627 87.8271 52.2036 98.8219C55.1655 107.3 55.0337 113.551 50.1821 113.551H27.1152C26.0106 113.551 25.1152 112.655 25.1152 111.551Z" fill="black"/>
<path d="M97.7139 135.414C98.9959 137.64 101.641 142.458 101.965 143.916" stroke="#A0A0A0" stroke-width="2" stroke-linecap="round"/>
<path d="M92.6531 136.628C91.9783 138.45 91.6409 143.875 95.6895 151.001" stroke="#A0A0A0" stroke-width="2" stroke-linecap="round"/>
<path d="M84.9606 135.414C82.329 137.843 76.9443 143.511 76.4585 146.75" stroke="#A0A0A0" stroke-width="2" stroke-linecap="round"/>
<path d="M93.4628 16.5874C96.0944 14.1582 101.479 8.49017 101.965 5.25128" stroke="#A0A0A0" stroke-width="2" stroke-linecap="round"/>
<path d="M85.7703 15.373C86.445 13.5512 86.7824 8.12603 82.7338 1.00047" stroke="#A0A0A0" stroke-width="2" stroke-linecap="round"/>
<path d="M80.71 16.5874C79.4279 14.3607 76.7828 9.54281 76.4589 8.08531" stroke="#A0A0A0" stroke-width="2" stroke-linecap="round"/>
</svg>
