<svg width="183" height="152" viewBox="0 0 183 152" fill="none" xmlns="http://www.w3.org/2000/svg">
<path d="M40.9726 66.6926C37.8463 65.3682 34.4081 64.6353 30.7989 64.6353C16.3855 64.6353 4.70117 76.32 4.70117 90.733C4.70117 105.146 16.3855 116.831 30.7989 116.831C45.2122 116.831 56.8964 105.146 56.8964 90.733C56.8964 84.4333 54.6644 78.655 50.9479 74.1454" stroke="black" stroke-width="2" stroke-linecap="round"/>
<path d="M95.6006 43.1821C99.3604 55.6412 114.886 83.0363 146.911 92.9446" stroke="#A0A0A0" stroke-width="2" stroke-linecap="round"/>
<path d="M146.912 96.2627C147.87 109.607 149.212 138.152 146.912 145.583" stroke="#A0A0A0" stroke-width="2" stroke-linecap="round"/>
<path d="M148.239 148.678C154.063 152.143 166.021 154.34 167.259 135.408C168.498 116.476 166.301 92.5753 165.047 82.9912" stroke="#A0A0A0" stroke-width="2" stroke-linecap="round"/>
<path d="M168.807 88.0779C174.779 81.2217 192.472 56.6722 171.903 20.8433" stroke="#A0A0A0" stroke-width="2" stroke-linecap="round"/>
<path d="M166.817 14.8728C156.422 4.25566 150.893 0.235474 143.816 6.02619C141.162 8.19765 140.498 13.1032 144.479 19.2959" stroke="#A0A0A0" stroke-width="2" stroke-linecap="round"/>
<path d="M87.8597 17.968C86.9751 12.2177 88.7683 3.19072 96.4852 1.15965C100.687 0.0536402 106.438 4.9749 107.986 7.79492" stroke="#A0A0A0" stroke-width="2" stroke-linecap="round"/>
<path d="M115.727 33.2285C119.186 47.9457 131.826 75.6787 154.747 69.0946C154.829 69.0707 154.911 69.0388 154.986 68.9981C160.921 65.808 166.881 53.6461 155.979 36.7672" stroke="#A0A0A0" stroke-width="2" stroke-linecap="round"/>
<path d="M117.054 36.989L143.594 20.8438C147.815 17.6414 158.274 12.0534 166.712 14.9759C166.926 15.0502 167.114 15.1843 167.261 15.3574L171.274 20.0994C171.648 20.5423 171.693 21.1783 171.375 21.6639C165.903 30.0377 161.933 32.0594 154.431 36.989" stroke="black" stroke-width="2" stroke-linecap="round"/>
<path d="M98.4758 51.3647L55.5693 81.4435" stroke="black" stroke-width="2" stroke-linecap="round"/>
<path d="M123.025 51.5857C138.728 44.729 138.065 44.729 154.652 36.9888" stroke="black" stroke-width="2" stroke-linecap="round"/>
<path d="M57.1177 86.3103L103.784 61.5396" stroke="black" stroke-width="2" stroke-linecap="round"/>
<path d="M128.468 41.8729L146.825 31.478" stroke="black" stroke-width="2" stroke-linecap="round"/>
<path d="M94.9375 39.2001C93.3451 41.8541 90.5142 43.6236 88.3025 45.1719L10.6728 105.551C9.37485 106.328 8.31718 105.112 7.87485 104.228C7.07737 102.633 7.79766 101.807 8.23995 101.348C35.9596 72.5966 80.8713 26.3282 85.6485 20.8433" stroke="black" stroke-width="2" stroke-linecap="round"/>
<path d="M107.986 7.79443C110.497 11.0896 113.358 15.9045 115.594 20.4934C115.682 20.673 115.727 20.87 115.727 21.0699V33.671" stroke="#A0A0A0" stroke-width="2" stroke-linecap="round"/>
<path d="M48.8477 68.1919L85.3402 34.3535" stroke="black" stroke-width="2" stroke-linecap="round"/>
<path d="M84.3208 66.6261L96.0427 58.4429" stroke="black" stroke-width="2" stroke-linecap="round"/>
<path d="M94.937 39.4211C96.6329 34.9979 103.032 25.0456 115.063 20.6221" stroke="black" stroke-width="2" stroke-linecap="round"/>
<path d="M85.8691 20.6233C91.1037 17.232 103.563 11.1131 111.525 13.7671" stroke="black" stroke-width="2" stroke-linecap="round"/>
<path d="M18.1924 136.293C28.0863 136.293 36.1069 134.313 36.1069 131.87C36.1069 129.427 28.0863 127.446 18.1924 127.446C8.29845 127.446 0.277832 129.427 0.277832 131.87C0.277832 134.313 8.29845 136.293 18.1924 136.293Z" fill="#A0A0A0"/>
<path d="M7.35547 79.2332C11.6314 76.0629 19.7408 71.9337 29.6934 79.2332" stroke="black" stroke-width="2" stroke-linecap="round"/>
<path d="M35.2222 86.7529C38.466 90.4389 43.9804 101.173 40.0878 114.62" stroke="black" stroke-width="2" stroke-linecap="round"/>
</svg>
