<svg width="214" height="151" viewBox="0 0 214 151" fill="none" xmlns="http://www.w3.org/2000/svg">
<path d="M46.9042 134.709C29.4627 120.724 71.1692 113.614 94.1966 112.11C94.6639 112.08 95.0765 112.387 95.2121 112.836C102.134 135.713 119.709 144.999 127.764 147.225C108.493 149.146 64.5463 148.855 46.9042 134.709Z" fill="#A0A0A0"/>
<ellipse cx="145.247" cy="58.8172" rx="2.38406" ry="2.38406" fill="black"/>
<ellipse cx="145.247" cy="136.696" rx="2.38406" ry="2.38406" fill="black"/>
<ellipse cx="184.187" cy="97.7556" rx="2.38406" ry="2.38406" fill="black"/>
<ellipse cx="106.307" cy="97.7556" rx="2.38406" ry="2.38406" fill="black"/>
<path d="M150.207 98.153C150.207 100.892 147.987 103.113 145.247 103.113C142.508 103.113 140.287 100.892 140.287 98.153C140.287 95.4136 142.508 93.1929 145.247 93.1929C147.987 93.1929 150.207 95.4136 150.207 98.153Z" stroke="black" stroke-width="2"/>
<path d="M125.38 98.1533H140.479" stroke="black" stroke-width="2" stroke-linecap="round"/>
<path d="M60.613 60.6054C58.825 60.3405 54.8118 59.5723 53.0635 58.6187" stroke="#A0A0A0" stroke-width="2" stroke-linecap="round"/>
<path d="M102.533 66.9624C97.1687 67.426 85.0895 67.5982 74.9175 63.7837" stroke="#A0A0A0" stroke-width="2" stroke-linecap="round"/>
<path d="M92.4002 94.7764C78.6919 95.1075 49.5666 94.4188 37.1694 89.8096" stroke="#A0A0A0" stroke-width="2" stroke-linecap="round"/>
<path d="M58.2289 108.882C44.388 108.418 13.6469 106.498 1.40869 102.524" stroke="#A0A0A0" stroke-width="2" stroke-linecap="round"/>
<path d="M145.247 93.5846V67.5586" stroke="black" stroke-width="2" stroke-linecap="round"/>
<path d="M194.518 81.4655C200.677 81.8628 213.392 85.2404 212.2 77.4921C211.616 73.6963 207.746 72.8507 205.426 72.8921C205.068 72.8985 204.725 72.7419 204.507 72.4573C201.817 68.9432 195.467 63.9742 188.928 69.145" stroke="#A0A0A0" stroke-width="2" stroke-linecap="round"/>
<path d="M120.413 28.3174C122.002 21.8274 129.751 10.7945 148.028 18.5824L153.79 21.4666" stroke="#A0A0A0" stroke-width="2" stroke-linecap="round"/>
<path d="M148.028 18.5819C151.936 15.9329 161.538 13.0986 166.306 22.9527" stroke="#A0A0A0" stroke-width="2" stroke-linecap="round"/>
<path d="M112.268 28.9131H126.969" stroke="#A0A0A0" stroke-width="2" stroke-linecap="round"/>
<path d="M64.2027 12.1428C63.6568 8.7448 60.3357 6.09751 56.2412 6.09751C55.4678 6.09751 54.6944 6.21604 54.0119 6.37409C51.9192 3.17364 47.9612 1.00049 43.4117 1.00049C36.6785 1.00049 31.2646 5.7419 31.2646 11.5501" stroke="#A0A0A0" stroke-width="2" stroke-miterlimit="10" stroke-linecap="round" stroke-linejoin="round"/>
<path d="M64.2028 12.1427C69.0708 12.6563 72.8468 16.2519 72.8468 20.6377C72.8468 25.3791 68.4338 29.2118 62.9745 29.2118L36.1782 29.1723H33.4485C27.9891 29.1723 23.5762 25.3396 23.5762 20.5982C23.5762 16.489 26.8973 13.091 31.3103 12.2217C33.312 11.8134 38.5348 11.0522 43.4118 11.2734M64.2028 12.2217C62.7167 11.9715 58.789 12.1822 54.9674 15.027" stroke="#A0A0A0" stroke-width="2" stroke-miterlimit="10" stroke-linecap="round" stroke-linejoin="round"/>
<circle cx="145.247" cy="97.7571" r="46.2839" stroke="black" stroke-width="2"/>
<path d="M197.492 97.7563C197.492 126.61 174.101 150 145.247 150C116.394 150 93.0034 126.61 93.0034 97.7563C93.0034 68.9027 116.394 45.5122 145.247 45.5122C174.101 45.5122 197.492 68.9027 197.492 97.7563Z" stroke="black" stroke-width="2"/>
</svg>
