<svg width="145" height="152" viewBox="0 0 145 152" fill="none" xmlns="http://www.w3.org/2000/svg">
<path d="M8.5933 122.47C10.0535 118.347 9.43659 114.69 8.59327 109.693C7.53913 103.448 5.78223 89.4249 14.6839 80.4691C21.8052 73.3044 29.9104 69.6278 33.0728 68.6851" stroke="#A0A0A0" stroke-width="2" stroke-linecap="round"/>
<path d="M26.5449 122.297C27.0542 120.513 32.0606 112.756 31.4241 107.523C31.195 106.035 31.3554 102.61 34.5162 100.824" stroke="#A0A0A0" stroke-width="2" stroke-linecap="round"/>
<path d="M23.6938 87.252C26.0989 83.3009 32.6267 78.1474 37.7803 77.2885C42.9339 76.4295 43.3896 79.9331 42.7251 81.4205C41.7284 83.6517 39.559 86.1177 35.2203 90.8149C30.922 95.4684 28.5754 104.085 28.3018 108.195" stroke="#A0A0A0" stroke-width="2" stroke-linecap="round"/>
<path d="M108.863 73.3477C105.523 70.4814 97.2168 65.4084 90.71 68.047C90.1206 68.2826 88.8947 69.3899 88.7061 71.9342" stroke="#A0A0A0" stroke-width="2" stroke-linecap="round"/>
<path d="M125.837 114.576C125.523 113.319 124.871 109.299 125.248 106.095C125.719 102.09 125.293 86.9726 118.691 82.6143" stroke="#A0A0A0" stroke-width="2" stroke-linecap="round"/>
<path d="M124.704 82.9577L111.127 82.0679" stroke="black" stroke-width="2" stroke-linecap="round"/>
<ellipse cx="124.635" cy="78.8202" rx="3.60751" ry="4.9818" fill="black"/>
<path d="M119.758 81.6732C117.926 78.7044 119.271 76.3088 120.556 75.1311C120.878 74.837 121.315 74.7238 121.75 74.744L124.084 74.8525C125.186 74.9037 126.039 75.8374 125.989 76.9394L125.816 80.8346C125.765 81.986 124.753 82.8559 123.607 82.7344L121.099 82.4684C120.555 82.4106 120.046 82.139 119.758 81.6732Z" fill="black"/>
<path d="M80.5142 74.8868C80.4143 75.7749 79.4339 76.2666 78.6623 75.8156C77.7376 75.2751 77.8913 73.8945 78.9122 73.5705C79.7653 73.2998 80.6143 73.9974 80.5142 74.8868Z" fill="black"/>
<path d="M34.3746 77.9764L32.7295 32.6032C32.7293 25.9066 33.9751 14.558 47.8889 14.746C61.8026 14.9339 69.3548 14.8243 71.3917 14.746" stroke="black" stroke-width="2" stroke-linecap="round"/>
<path d="M87.3735 14.7466H110.759C117.222 14.8641 122.745 17.6836 122.745 28.4919C122.745 39.3003 122.426 61.8951 121.956 73.6824" stroke="black" stroke-width="2" stroke-linecap="round"/>
<path d="M102.372 129.685C92.7357 130.39 66.9652 132.268 51.4141 132.933C44.8333 132.933 36.1137 132.087 35.0796 120.245L34.3745 91.9321" stroke="black" stroke-width="2" stroke-linecap="round"/>
<circle cx="79.2834" cy="9.41815" r="4.32537" stroke="black" stroke-width="2"/>
<path d="M71.9971 12.3257C72.8401 14.7644 71.6458 16.5465 68.9527 17.1328C67.6648 17.4132 65.8616 17.4376 62.3957 18.6569C58.0634 20.1811 57.2437 24.5192 57.1267 28.2711C57.033 31.2726 58.766 32.2574 61.8103 32.3747C70.6701 32.3356 89.6464 32.6092 94.7125 32.6092C99.9816 32.6092 100.748 30.616 100.918 29.3263C101.761 22.9481 99.5132 20.3912 97.5227 19.4777C96.586 19.0478 93.8461 17.9769 90.3802 17.1328C86.9143 16.2886 86.2902 15.1396 86.6333 13.4981C87.4764 9.46488 86.9846 6.18985 86.6333 5.05649C86.243 3.49321 83.9637 0.50736 77.9687 1.07014C70.4749 1.77361 70.9433 9.27733 71.9971 12.3257Z" stroke="black" stroke-width="2" stroke-linecap="round"/>
<path d="M113.023 72.8223L113.469 29.3605C113.469 28.4222 112.938 26.7803 110.771 26.7803C108.542 26.7803 103.537 26.8585 101.27 26.7803" stroke="black" stroke-width="2" stroke-linecap="round"/>
<path d="M56.5764 26.7807H45.7845C44.6114 26.6635 42.3592 27.3437 42.7346 31.0029C43.1099 34.662 44.9242 91.4028 45.7845 119.316C45.7454 120.723 46.371 123.491 49.1863 123.303C51.328 123.161 84.6571 121.284 104.605 120.407" stroke="black" stroke-width="2" stroke-linecap="round"/>
<path d="M116.287 73.3383L116.905 30.1677C116.905 28.875 116.342 26.9948 113.151 27.4649" stroke="black" stroke-width="2" stroke-linecap="round"/>
<path d="M43.7021 27.1128C42.529 27.1128 39.8309 27.1128 39.948 30.1681C40.0606 33.1044 41.1212 63.173 41.4731 77.118" stroke="black" stroke-width="2" stroke-linecap="round"/>
<path d="M41.4731 83.8711L42.529 120.536C42.6463 121.828 43.1155 123.708 48.7465 123.238" stroke="black" stroke-width="2" stroke-linecap="round"/>
<path d="M55.062 47.0391H77.0506" stroke="black" stroke-width="2" stroke-linecap="round"/>
<path d="M55.209 54.8394L102.681 54.6043" stroke="black" stroke-width="2" stroke-linecap="round"/>
<path d="M55.3267 62.7129L92.5759 62.3604" stroke="black" stroke-width="2" stroke-linecap="round"/>
<path d="M55.6841 74.9406L74.0095 74.1111" stroke="black" stroke-width="2" stroke-linecap="round"/>
<path d="M117.661 74.1973C116.802 75.8006 114.913 77.9766 116.974 82.0994" stroke="black" stroke-width="2" stroke-linecap="round"/>
<path d="M90.347 93.2988C89.2018 94.662 88.5605 98.5565 95.1571 103.229C98.421 105.348 105.189 111.784 106.151 120.58" stroke="#A0A0A0" stroke-width="2" stroke-linecap="round"/>
<path d="M88.6292 79.522C88.0154 80.6729 87.746 82.8878 89.66 85.0097C90.6029 86.055 92.0757 87.0777 94.2982 87.9395" stroke="#A0A0A0" stroke-width="2" stroke-linecap="round"/>
<path d="M89.6599 85.0093C88.4319 86.7856 87.3122 90.4281 90.3471 93.2978C91.133 94.0409 93.7437 95.4194 95.1571 96.013" stroke="#A0A0A0" stroke-width="2" stroke-linecap="round"/>
<path d="M113.515 150.645C109.85 142.113 104.72 123.64 113.515 118.006C124.509 110.962 138.768 126.938 143.749 140.681" stroke="#A0A0A0" stroke-width="2" stroke-linecap="round"/>
<path d="M124.876 74.7117L84.4395 71.8001C84.2171 71.7841 83.9874 71.8057 83.7734 71.8683C78.1546 73.5112 80.2585 76.6374 82.3302 78.4528C82.623 78.7094 82.9947 78.8533 83.3824 78.8886L92.2366 79.6935" stroke="black" stroke-width="2" stroke-linecap="round"/>
<path d="M1.46436 143.943C2.32329 135.926 8.30145 119.564 18.4712 121.625C28.6409 123.687 31.4124 142.068 31.5269 151.001" stroke="#A0A0A0" stroke-width="2" stroke-linecap="round"/>
<path d="M101.857 98.0753C95.3288 90.6885 91.5495 84.8477 92.4084 77.4609C92.8872 73.3438 95.2584 71.6459 97.4292 73.7017C100.311 76.4302 102.544 79.8659 105.681 81.2404C106.296 81.5267 108.247 82.0991 111.133 82.0991" stroke="#A0A0A0" stroke-width="2" stroke-linecap="round"/>
</svg>
