<svg width="187" height="150" viewBox="0 0 187 150" fill="none" xmlns="http://www.w3.org/2000/svg">
<path d="M118.196 62.5461C123.737 96.7098 106.839 127.402 81.0446 131.585C55.2501 135.768 29.5181 111.99 23.9774 77.8267C18.4367 43.663 35.3347 12.9712 61.1292 8.78783C86.9237 4.60446 112.656 28.3825 118.196 62.5461Z" stroke="black" stroke-width="2"/>
<path d="M107.479 63.6569C109.597 76.7217 107.581 89.148 102.655 98.6704C97.7296 108.193 89.936 114.753 80.4905 116.284C71.045 117.816 61.5776 114.056 53.895 106.578C46.2125 99.1008 40.3718 87.9488 38.2529 74.884C36.1341 61.8192 38.1508 49.3929 43.0763 39.8705C48.0018 30.3481 55.7954 23.7883 65.2409 22.2564C74.6864 20.7246 84.1538 24.4849 91.8364 31.9626C99.5189 39.4402 105.36 50.5921 107.479 63.6569Z" stroke="black" stroke-width="2"/>
<ellipse cx="76.1936" cy="69.7919" rx="18.1809" ry="24.5142" transform="rotate(-9.21208 76.1936 69.7919)" fill="black"/>
<path d="M34.4184 125.172C67.2498 156.772 103.775 138.305 111.573 118.4C108.1 138.254 84.5734 149.519 64.9926 150C43.4469 150 16.5661 132.148 9.17886 115.938C-18.0054 56.2839 23.4061 14.2967 44.0627 8.41455C5.28028 26.6771 -0.86751 91.209 34.4184 125.172Z" fill="black"/>
<path d="M75.8682 64.4327L134.349 27.0421L146.046 19.6997" stroke="#A0A0A0" stroke-width="2" stroke-linecap="round"/>
<path d="M132.913 24.0091L134.272 14.69C134.32 14.3587 134.531 14.0736 134.834 13.9304L158.26 2.84345C159.153 2.42079 160.052 3.41137 159.546 4.25979L154.449 12.8007C154.073 13.4316 154.482 14.2395 155.214 14.3087L166.019 15.3308C166.956 15.4194 167.262 16.6361 166.479 17.1584L146.446 30.5136C146.193 30.6824 145.877 30.7267 145.587 30.6341L134.349 27.0424" stroke="#A0A0A0" stroke-width="2" stroke-linecap="round"/>
<path d="M78.1254 68.7425L151.332 42.5228L164.323 37.8358" stroke="#A0A0A0" stroke-width="2" stroke-linecap="round"/>
<path d="M150.574 39.2531L153.884 30.4362C154.002 30.1228 154.268 29.889 154.595 29.8134L179.842 23.9621C180.805 23.7391 181.473 24.8983 180.798 25.6197L174.001 32.8812C173.499 33.4176 173.728 34.2941 174.428 34.5173L184.768 37.8139C185.665 38.0999 185.706 39.354 184.829 39.6977L162.415 48.4869C162.131 48.598 161.813 48.5741 161.549 48.4219L151.333 42.5225" stroke="#A0A0A0" stroke-width="2" stroke-linecap="round"/>
<path d="M135.259 60.3139L139.67 52.9623C139.841 52.6767 140.144 52.4952 140.476 52.4781L163.415 51.2998C164.401 51.2492 164.856 52.5067 164.066 53.0988L157.147 58.2823C156.563 58.7201 156.629 59.6161 157.272 59.9627L165.506 64.404C166.33 64.8483 166.147 66.0796 165.229 66.2644L144.196 70.5007C143.892 70.5619 143.578 70.479 143.344 70.2765L135.37 63.3726" stroke="#A0A0A0" stroke-width="2" stroke-linecap="round"/>
<path d="M79.3565 73.0503L135.369 63.3713L147.649 61.2493" stroke="#A0A0A0" stroke-width="2" stroke-linecap="round"/>
</svg>
