<svg width="590" height="400" viewBox="0 0 590 400" fill="none" xmlns="http://www.w3.org/2000/svg">
<path d="M238.035 355.428C249.038 321.636 267.125 264.36 272.273 240.228C272.295 240.127 272.355 240.045 272.443 239.991C294.876 226.037 319.142 218.447 327.304 216.932C327.404 216.913 327.5 216.938 327.583 216.996C348.37 231.528 361.23 240.41 369.18 247.971C389.395 267.2 393.243 304.072 392.89 328.072C392.89 328.209 392.814 328.33 392.696 328.396L384.362 333C384.157 333.113 383.902 333.016 383.819 332.798C377.016 314.513 364.329 300.082 356.027 273.858C356.034 274.07 355.852 274.257 355.627 274.251C333.071 273.675 332.166 272.376 311.812 266.156C299.666 304.898 264.98 343.127 247.774 359.57C247.665 359.673 247.511 359.698 247.373 359.641L238.253 355.891C238.07 355.815 237.973 355.617 238.035 355.428Z" fill="black"/>
<path d="M299.363 131.589C301.262 128.74 321.914 121.146 314.259 94.2947C320.928 91.3215 322.036 84.2286 315.905 84.2313C309.229 83.9308 307.285 78.6362 306.878 75.1768C306.617 70.5147 304.805 66.3274 304.071 65.6147" stroke="black" stroke-width="2" stroke-linecap="round"/>
<path d="M304.523 87.6188C305.404 87.2264 305.64 85.8381 305.051 84.5179C304.463 83.1976 303.272 82.4455 302.392 82.8379C301.512 83.2303 301.275 84.6186 301.864 85.9388C302.453 87.259 303.643 88.0111 304.523 87.6188Z" fill="black"/>
<path d="M296.742 81.3595C297.304 79.6672 299.37 76.6203 303.133 77.9696" stroke="black" stroke-width="2" stroke-linecap="round"/>
<path d="M299.82 107.853C303.293 110.048 305.935 109.909 309.344 105.895" stroke="black" stroke-width="2" stroke-linecap="round"/>
<path d="M273.077 93.5728C273.081 94.8244 273.767 97.3555 276.472 97.466" stroke="black" stroke-width="2" stroke-linecap="round"/>
<path d="M244.842 93.6844C248.755 108.992 261.719 115.907 271.332 121.386C276.031 115.132 282.584 102.386 278.255 103.327C273.705 104.315 264.165 95.0516 266.591 89.7597C269.438 83.5507 276.495 87.7183 279.437 91.9861L280.213 83.6867C277.032 79.5944 272.912 71.7445 281.881 73.0827C290.848 74.421 300.418 68.5885 304.081 65.5051C309.629 55.7813 316.128 36.0629 297.74 34.9801C282.446 34.0794 270.272 49.7103 263.939 61.6373C256.531 62.9319 239.505 72.8134 244.842 93.6844Z" fill="black"/>
<path d="M271.355 120.228C275.994 122.449 278.85 124.751 281.509 131.019" stroke="black" stroke-width="2" stroke-linecap="round"/>
<path d="M275.915 176.068C277.352 186.194 278.247 213.128 270.521 240.715C270.423 241.063 270.818 241.351 271.115 241.143C279.382 235.353 300.981 223.218 328.772 216.038C328.956 215.99 329.08 215.821 329.058 215.632C327.251 200.344 326.277 168.208 335.101 159.802C335.15 159.756 335.205 159.727 335.27 159.712C353.467 155.511 392.078 142.129 403.337 121.224C403.352 121.193 403.363 121.161 403.371 121.127C404.18 117.347 404.735 109.629 400.636 108.301C400.556 108.274 400.469 108.279 400.389 108.311C373.514 119.179 343.56 128.18 305.061 135.008" stroke="black" stroke-width="2" stroke-linecap="round"/>
<path d="M275.914 188.984C257.529 209.041 240.42 216.68 227.378 222.378C218.267 227.023 198.508 230.355 207.348 215.955C245.335 168.547 253.692 160.304 262.619 152.137C267.746 147.447 270.026 144.54 282.942 141.121" stroke="black" stroke-width="2" stroke-linecap="round"/>
<path d="M222.733 369.8C221.973 364.862 236.725 357.644 239.258 356.315L247.045 359.354C246.437 363.153 244.512 365.368 243.626 366.002L222.733 369.8Z" stroke="black" stroke-width="2"/>
<path d="M387.975 339.411C384.936 338.803 384.81 334.473 385.126 332.384L391.963 328.965C394.052 329.535 399.636 331.016 405.259 332.384C410.881 333.751 410.132 335.613 409.057 336.372L387.975 339.411Z" stroke="black" stroke-width="2"/>
<path d="M348.517 376.259C348.517 389.372 337.887 400 324.775 400C311.663 400 301.033 389.372 301.033 376.259C301.033 363.147 311.663 352.517 324.775 352.517C337.887 352.517 348.517 363.147 348.517 376.259Z" fill="black"/>
<path d="M185.885 379.108L463.188 328.206" stroke="black" stroke-width="2" stroke-linecap="round"/>
<path d="M429.38 59.8296H413.425C411.852 59.8296 410.576 61.1051 410.576 62.6786V74.4545C410.576 76.0279 411.852 77.3035 413.425 77.3035H429.38C430.953 77.3035 432.229 76.0279 432.229 74.4545V62.6786C432.229 61.1051 430.953 59.8296 429.38 59.8296Z" fill="black"/>
<path d="M456.351 55.271H445.714C444.141 55.271 442.865 56.5465 442.865 58.12V73.3147C442.865 74.8881 444.141 76.1637 445.714 76.1637H456.351C457.924 76.1637 459.2 74.8881 459.2 73.3147V58.12C459.2 56.5465 457.924 55.271 456.351 55.271Z" stroke="#A0A0A0" stroke-width="2"/>
<path d="M483.321 45.7734H473.064C471.491 45.7734 470.215 47.049 470.215 48.6224V73.3138C470.215 74.8873 471.491 76.1628 473.064 76.1628H483.321C484.894 76.1628 486.17 74.8873 486.17 73.3138V48.6224C486.17 47.049 484.894 45.7734 483.321 45.7734Z" stroke="#A0A0A0" stroke-width="2"/>
<path d="M511.052 36.0874H500.415C498.317 36.0874 496.617 37.7881 496.617 39.8861V73.3144C496.617 75.4123 498.317 77.113 500.415 77.113H511.052C513.15 77.113 514.85 75.4123 514.85 73.3144V39.8861C514.85 37.7881 513.15 36.0874 511.052 36.0874Z" fill="#A0A0A0"/>
<path d="M539.162 53.7515H528.905C527.332 53.7515 526.056 55.027 526.056 56.6005V73.3146C526.056 74.8881 527.332 76.1636 528.905 76.1636H539.162C540.735 76.1636 542.011 74.8881 542.011 73.3146V56.6005C542.011 55.027 540.735 53.7515 539.162 53.7515Z" stroke="#A0A0A0" stroke-width="2"/>
<path d="M567.651 63.2476H557.015C555.442 63.2476 554.166 64.5231 554.166 66.0966V73.314C554.166 74.8875 555.442 76.163 557.015 76.163H567.651C569.225 76.163 570.5 74.8875 570.5 73.314V66.0966C570.5 64.5231 569.225 63.2476 567.651 63.2476Z" stroke="#A0A0A0" stroke-width="2"/>
<path d="M505.927 30.8661C505.623 31.2157 505.083 31.2157 504.779 30.8661L501.505 27.0879C501.079 26.5959 501.429 25.8306 502.078 25.8306H508.627C509.277 25.8306 509.626 26.5959 509.201 27.0879L505.927 30.8661Z" fill="#A0A0A0"/>
<path d="M524.347 0H487.5C485.402 0 483.701 1.70072 483.701 3.79867V24.3115C483.701 26.4094 485.402 28.1102 487.5 28.1102H524.347C526.445 28.1102 528.146 26.4094 528.146 24.3115V3.79867C528.146 1.70072 526.445 0 524.347 0Z" fill="#A0A0A0"/>
<path d="M521.688 12.9155H497.376C496.537 12.9155 495.857 13.5958 495.857 14.435C495.857 15.2742 496.537 15.9545 497.376 15.9545H521.688C522.527 15.9545 523.207 15.2742 523.207 14.435C523.207 13.5958 522.527 12.9155 521.688 12.9155Z" fill="white"/>
<path d="M491.298 14.435C491.298 13.8056 490.788 13.2954 490.159 13.2954C489.529 13.2954 489.019 13.8056 489.019 14.435C489.019 15.0644 489.529 15.5746 490.159 15.5746C490.788 15.5746 491.298 15.0644 491.298 14.435Z" stroke="white" stroke-width="2"/>
<path d="M507.253 20.1328H497.376C496.537 20.1328 495.857 20.8131 495.857 21.6523C495.857 22.4915 496.537 23.1717 497.376 23.1717H507.253C508.092 23.1717 508.772 22.4915 508.772 21.6523C508.772 20.8131 508.092 20.1328 507.253 20.1328Z" fill="white"/>
<path d="M500.035 5.31787H490.159C489.319 5.31787 488.639 5.99816 488.639 6.83734C488.639 7.67652 489.319 8.35681 490.159 8.35681H500.035C500.874 8.35681 501.555 7.67652 501.555 6.83734C501.555 5.99816 500.874 5.31787 500.035 5.31787Z" fill="white"/>
<path d="M491.678 21.6523C491.678 20.8131 490.998 20.1328 490.159 20.1328C489.319 20.1328 488.639 20.8131 488.639 21.6523C488.639 22.4915 489.319 23.1717 490.159 23.1717C490.998 23.1717 491.678 22.4915 491.678 21.6523Z" fill="white"/>
<path d="M75.7088 294.384C81.6788 291.314 88.4887 290.281 95.1007 291.442C101.712 292.603 107.763 295.894 112.33 300.814C116.897 305.734 119.73 312.012 120.396 318.692C121.063 325.372 119.527 332.086 116.022 337.811C112.517 343.537 107.236 347.959 100.984 350.404C94.7322 352.849 87.8524 353.181 81.3935 351.352C74.9347 349.522 69.2515 345.631 65.2101 340.271C61.169 334.91 58.9916 328.376 59.0099 321.663L89.7791 321.747L75.7088 294.384Z" stroke="#A0A0A0" stroke-width="2"/>
<path d="M53.312 318.329C53.312 312.772 54.8547 307.325 57.7682 302.593C60.6818 297.862 64.852 294.032 69.8138 291.531L83.3215 318.329H53.312Z" fill="#A0A0A0"/>
<path d="M435.009 107.922C435.442 108.93 435.602 111.159 433.114 112.511C432.931 112.611 432.73 112.706 432.517 112.796C429.406 114.095 428.631 111.959 428.631 110.728V109.474" stroke="black" stroke-width="2" stroke-linecap="round"/>
<path d="M434.607 104.82C435.443 105.324 436.586 106.604 435.01 107.922C434.892 108.02 434.759 108.119 434.607 108.217C432.788 109.416 430.201 109.573 428.632 109.474C428.343 109.456 428.092 109.429 427.883 109.399C427.036 109.162 425.673 108.243 426.987 106.459" stroke="black" stroke-width="2" stroke-linecap="round"/>
<path d="M434.011 101.127C434.858 101.324 436.313 102.102 435.355 103.638C434.398 105.174 429.578 106.149 427.287 106.444C427.188 106.454 427.089 106.459 426.987 106.459C426.083 106.455 425.194 106.017 425.194 104.82C425.194 103.128 427.386 102.555 427.883 102.457" stroke="black" stroke-width="2" stroke-linecap="round"/>
<path d="M429.001 96.1068C429.848 96.4514 430.364 97.7015 428.332 98.7648C426.3 99.828 426.79 101.276 427.287 101.866C428.085 102.555 430.664 103.077 434.607 99.651C438.554 96.2246 432.366 94.0878 428.632 93.4478" stroke="black" stroke-width="2" stroke-linecap="round"/>
<path d="M420.263 99.6506C421.957 98.3214 425.255 96.4605 424.898 99.6506C424.537 102.841 422.257 104.229 421.16 104.525" stroke="black" stroke-width="2" stroke-linecap="round"/>
<path d="M420.263 112.441C421.255 111.588 422.945 108.798 421.752 104.463" stroke="black" stroke-width="2" stroke-linecap="round"/>
<path d="M420.989 98.6145L419.124 88.5093" stroke="black" stroke-width="2" stroke-linecap="round"/>
<path d="M427.67 86.7993L428.943 97.129" stroke="black" stroke-width="2" stroke-linecap="round"/>
<path d="M430.596 113.164C430.596 115.985 431.948 119.697 428.944 120.588C425.278 121.675 424.89 118.361 424.142 114.946L422.189 104.702" stroke="black" stroke-width="2" stroke-linecap="round"/>
<path d="M419.884 94.7773C417.794 95.1572 412.894 97.2845 410.007 102.755C407.12 108.225 404.374 109.972 403.359 110.162" stroke="black" stroke-width="2" stroke-linecap="round"/>
<path d="M403.929 119.658C409.247 120.228 420.225 120 423.872 116.049" stroke="black" stroke-width="2" stroke-linecap="round"/>
<path d="M420.073 88.3188C430.144 88.3188 438.307 80.1553 438.307 70.0852C438.307 60.015 430.144 51.8516 420.073 51.8516C410.003 51.8516 401.84 60.015 401.84 70.0852C401.84 80.1553 410.003 88.3188 420.073 88.3188Z" stroke="black" stroke-width="2"/>
<path d="M588.142 105.431C580.856 106.926 584.271 116.958 578.934 119.628C572.56 122.814 570.364 104.873 571.192 97.2579C571.432 93.9189 575.318 92.434 575.842 97.2579C576.4 102.382 570.041 122.253 562.755 114.585L557.893 108.956C556.541 107.29 553.878 104.976 551.625 108.956C549.373 112.936 545.783 111.621 544.271 110.465L539.519 107.008" stroke="#A0A0A0" stroke-width="2" stroke-linecap="round"/>
<path d="M542.926 91.6815L505.099 85.2739C504.727 85.2105 504.499 85.6762 504.784 85.9307L522.303 101.71C522.334 101.735 522.36 101.756 522.398 101.77C523.948 102.379 529.897 100.036 533.065 98.6179C533.278 98.5222 533.525 98.6392 533.589 98.8641C534.319 101.419 535.2 103.781 535.652 104.907C535.72 105.073 535.903 105.164 536.024 105.032C536.871 104.098 536.989 99.3412 536.928 96.6111C536.924 96.4162 537.065 96.251 537.259 96.2134C539.587 95.7587 542.736 93.7131 544.077 92.7011" stroke="#A0A0A0" stroke-width="2" stroke-linecap="round"/>
<path d="M533.441 98.3502C529.407 96.493 519.2 91.8419 510.649 88.0938" stroke="#A0A0A0" stroke-width="2" stroke-linecap="round"/>
<path d="M535.72 105.189L528.123 100.63" stroke="#A0A0A0" stroke-width="2" stroke-linecap="round"/>
<path d="M534.2 94.5521L523.944 91.5132" stroke="#A0A0A0" stroke-width="2" stroke-linecap="round"/>
<path d="M277.711 142.794C274.988 139.629 271.177 132.956 277.711 131.588C285.878 129.879 304.301 130.259 305.061 134.817" stroke="black" stroke-width="2" stroke-linecap="round"/>
<path d="M190.223 242.72C191.7 243.519 196.154 243.823 202.152 238.65C208.149 233.478 209.461 228.866 209.367 227.207" stroke="black" stroke-width="2" stroke-linecap="round"/>
<path d="M182.801 242.593C182.634 244.021 183.582 246.21 188.716 243.545L190.223 242.719L192.842 241.283" stroke="black" stroke-width="2" stroke-linecap="round"/>
<path d="M181.465 238.172C180.258 238.88 178.314 240.71 180.192 242.362C180.758 242.86 181.694 242.874 182.801 242.594C185.363 241.947 188.837 239.727 190.748 238.301" stroke="black" stroke-width="2" stroke-linecap="round"/>
<path d="M203.849 220.205C201.018 219.165 195.169 217.136 191.282 218.486C190.306 218.853 188.095 219.357 187.055 218.445C185.754 217.306 183.289 220.229 186.641 222.184C189.993 224.14 192.176 222.067 191.732 225.171C191.377 227.655 184.499 231.685 181.105 233.39C179.885 233.942 177.871 235.543 179.569 237.531C179.989 238.023 180.658 238.205 181.465 238.172C183.919 238.071 187.66 235.99 189.658 234.643" stroke="black" stroke-width="2" stroke-linecap="round"/>
<path d="M104.345 83.513C114.356 93.7599 132.956 98.2753 142.76 99.508C143.453 99.5954 143.697 100.496 143.135 100.911L117.339 119.938C117.255 120 117.158 120.044 117.057 120.067C97.9577 124.329 80.1515 105.317 73.0859 94.5154C72.8166 94.104 73.0172 93.5578 73.4837 93.4013L103.549 83.3185C103.83 83.2243 104.138 83.3014 104.345 83.513Z" stroke="#A0A0A0" stroke-width="2" stroke-linecap="round"/>
<path d="M89.5742 99.1186C92.6132 98.4872 99.2228 96.5218 101.35 93.7085" stroke="#A0A0A0" stroke-width="2" stroke-linecap="round"/>
<path d="M98.1211 105.956C100.02 106.019 104.389 105.083 106.668 100.828" stroke="#A0A0A0" stroke-width="2" stroke-linecap="round"/>
<path d="M107.428 110.515C110.277 110.135 116.393 107.97 118.065 102.348" stroke="#A0A0A0" stroke-width="2" stroke-linecap="round"/>
<path d="M40.2712 162.905C30.2596 173.151 11.6598 177.667 1.85577 178.9C1.1629 178.987 0.919037 179.888 1.48124 180.303L27.2765 199.329C27.3604 199.391 27.4573 199.436 27.5591 199.458C46.6583 203.721 64.4645 184.708 71.53 173.907C71.7994 173.496 71.5988 172.949 71.1323 172.793L41.0666 162.71C40.7863 162.616 40.4782 162.693 40.2712 162.905Z" stroke="#A0A0A0" stroke-width="2" stroke-linecap="round"/>
<path d="M55.0415 178.51C52.0026 177.879 45.3929 175.913 43.2656 173.1" stroke="#A0A0A0" stroke-width="2" stroke-linecap="round"/>
<path d="M46.4948 185.348C44.5954 185.411 40.227 184.475 37.9478 180.22" stroke="#A0A0A0" stroke-width="2" stroke-linecap="round"/>
<path d="M37.1875 189.907C34.3385 189.527 28.2227 187.362 26.5513 181.74" stroke="#A0A0A0" stroke-width="2" stroke-linecap="round"/>
</svg>
